%TF.GenerationSoftware,KiCad,Pcbnew,10.0.1*%
%TF.CreationDate,2026-06-21T01:56:21+02:00*%
%TF.ProjectId,devboard,64657662-6f61-4726-942e-6b696361645f,rev?*%
%TF.SameCoordinates,Original*%
%TF.FileFunction,Legend,Top*%
%TF.FilePolarity,Positive*%
%FSLAX46Y46*%
G04 Gerber Fmt 4.6, Leading zero omitted, Abs format (unit mm)*
G04 Created by KiCad (PCBNEW 10.0.1) date 2026-06-21 01:56:21*
%MOMM*%
%LPD*%
G01*
G04 APERTURE LIST*
%ADD10C,0.100000*%
%ADD11C,0.150000*%
%ADD12C,0.120000*%
G04 APERTURE END LIST*
D10*
X130933609Y-82950877D02*
X130433609Y-82950877D01*
X130909800Y-82950877D02*
X130933609Y-82998496D01*
X130933609Y-82998496D02*
X130933609Y-83093734D01*
X130933609Y-83093734D02*
X130909800Y-83141353D01*
X130909800Y-83141353D02*
X130885990Y-83165163D01*
X130885990Y-83165163D02*
X130838371Y-83188972D01*
X130838371Y-83188972D02*
X130695514Y-83188972D01*
X130695514Y-83188972D02*
X130647895Y-83165163D01*
X130647895Y-83165163D02*
X130624085Y-83141353D01*
X130624085Y-83141353D02*
X130600276Y-83093734D01*
X130600276Y-83093734D02*
X130600276Y-82998496D01*
X130600276Y-82998496D02*
X130624085Y-82950877D01*
X130909800Y-82522306D02*
X130933609Y-82569925D01*
X130933609Y-82569925D02*
X130933609Y-82665163D01*
X130933609Y-82665163D02*
X130909800Y-82712782D01*
X130909800Y-82712782D02*
X130862180Y-82736591D01*
X130862180Y-82736591D02*
X130671704Y-82736591D01*
X130671704Y-82736591D02*
X130624085Y-82712782D01*
X130624085Y-82712782D02*
X130600276Y-82665163D01*
X130600276Y-82665163D02*
X130600276Y-82569925D01*
X130600276Y-82569925D02*
X130624085Y-82522306D01*
X130624085Y-82522306D02*
X130671704Y-82498496D01*
X130671704Y-82498496D02*
X130719323Y-82498496D01*
X130719323Y-82498496D02*
X130766942Y-82736591D01*
X130600276Y-82331830D02*
X130933609Y-82212782D01*
X130933609Y-82212782D02*
X130600276Y-82093735D01*
X130933609Y-81903259D02*
X130433609Y-81903259D01*
X130624085Y-81903259D02*
X130600276Y-81855640D01*
X130600276Y-81855640D02*
X130600276Y-81760402D01*
X130600276Y-81760402D02*
X130624085Y-81712783D01*
X130624085Y-81712783D02*
X130647895Y-81688973D01*
X130647895Y-81688973D02*
X130695514Y-81665164D01*
X130695514Y-81665164D02*
X130838371Y-81665164D01*
X130838371Y-81665164D02*
X130885990Y-81688973D01*
X130885990Y-81688973D02*
X130909800Y-81712783D01*
X130909800Y-81712783D02*
X130933609Y-81760402D01*
X130933609Y-81760402D02*
X130933609Y-81855640D01*
X130933609Y-81855640D02*
X130909800Y-81903259D01*
X130933609Y-81379449D02*
X130909800Y-81427068D01*
X130909800Y-81427068D02*
X130885990Y-81450878D01*
X130885990Y-81450878D02*
X130838371Y-81474687D01*
X130838371Y-81474687D02*
X130695514Y-81474687D01*
X130695514Y-81474687D02*
X130647895Y-81450878D01*
X130647895Y-81450878D02*
X130624085Y-81427068D01*
X130624085Y-81427068D02*
X130600276Y-81379449D01*
X130600276Y-81379449D02*
X130600276Y-81308021D01*
X130600276Y-81308021D02*
X130624085Y-81260402D01*
X130624085Y-81260402D02*
X130647895Y-81236592D01*
X130647895Y-81236592D02*
X130695514Y-81212783D01*
X130695514Y-81212783D02*
X130838371Y-81212783D01*
X130838371Y-81212783D02*
X130885990Y-81236592D01*
X130885990Y-81236592D02*
X130909800Y-81260402D01*
X130909800Y-81260402D02*
X130933609Y-81308021D01*
X130933609Y-81308021D02*
X130933609Y-81379449D01*
X130933609Y-80784211D02*
X130671704Y-80784211D01*
X130671704Y-80784211D02*
X130624085Y-80808021D01*
X130624085Y-80808021D02*
X130600276Y-80855640D01*
X130600276Y-80855640D02*
X130600276Y-80950878D01*
X130600276Y-80950878D02*
X130624085Y-80998497D01*
X130909800Y-80784211D02*
X130933609Y-80831830D01*
X130933609Y-80831830D02*
X130933609Y-80950878D01*
X130933609Y-80950878D02*
X130909800Y-80998497D01*
X130909800Y-80998497D02*
X130862180Y-81022306D01*
X130862180Y-81022306D02*
X130814561Y-81022306D01*
X130814561Y-81022306D02*
X130766942Y-80998497D01*
X130766942Y-80998497D02*
X130743133Y-80950878D01*
X130743133Y-80950878D02*
X130743133Y-80831830D01*
X130743133Y-80831830D02*
X130719323Y-80784211D01*
X130933609Y-80546116D02*
X130600276Y-80546116D01*
X130695514Y-80546116D02*
X130647895Y-80522306D01*
X130647895Y-80522306D02*
X130624085Y-80498497D01*
X130624085Y-80498497D02*
X130600276Y-80450878D01*
X130600276Y-80450878D02*
X130600276Y-80403259D01*
X130933609Y-80022306D02*
X130433609Y-80022306D01*
X130909800Y-80022306D02*
X130933609Y-80069925D01*
X130933609Y-80069925D02*
X130933609Y-80165163D01*
X130933609Y-80165163D02*
X130909800Y-80212782D01*
X130909800Y-80212782D02*
X130885990Y-80236592D01*
X130885990Y-80236592D02*
X130838371Y-80260401D01*
X130838371Y-80260401D02*
X130695514Y-80260401D01*
X130695514Y-80260401D02*
X130647895Y-80236592D01*
X130647895Y-80236592D02*
X130624085Y-80212782D01*
X130624085Y-80212782D02*
X130600276Y-80165163D01*
X130600276Y-80165163D02*
X130600276Y-80069925D01*
X130600276Y-80069925D02*
X130624085Y-80022306D01*
X117896741Y-106172419D02*
X117896741Y-106410514D01*
X117658646Y-106315276D02*
X117896741Y-106410514D01*
X117896741Y-106410514D02*
X118134836Y-106315276D01*
X117753884Y-106600990D02*
X117896741Y-106410514D01*
X117896741Y-106410514D02*
X118039598Y-106600990D01*
X120411027Y-102991466D02*
X120458646Y-102943847D01*
X120458646Y-102943847D02*
X120553884Y-102896228D01*
X120553884Y-102896228D02*
X120744360Y-102991466D01*
X120744360Y-102991466D02*
X120839598Y-102943847D01*
X120839598Y-102943847D02*
X120887217Y-102896228D01*
X121968169Y-102774800D02*
X121111027Y-104060514D01*
X121968169Y-102727180D02*
X122825312Y-104012895D01*
X121758646Y-105205752D02*
X121996741Y-105872419D01*
X121996741Y-105872419D02*
X122234836Y-105205752D01*
X129229430Y-114005752D02*
X128467525Y-114291466D01*
X128467525Y-114291466D02*
X129229430Y-114577180D01*
X128653884Y-114927180D02*
X128701503Y-114974800D01*
X128701503Y-114974800D02*
X128653884Y-115022419D01*
X128653884Y-115022419D02*
X128606265Y-114974800D01*
X128606265Y-114974800D02*
X128653884Y-114927180D01*
X128653884Y-114927180D02*
X128653884Y-115022419D01*
X121841384Y-92237180D02*
X121889003Y-92284800D01*
X121889003Y-92284800D02*
X121841384Y-92332419D01*
X121841384Y-92332419D02*
X121793765Y-92284800D01*
X121793765Y-92284800D02*
X121841384Y-92237180D01*
X121841384Y-92237180D02*
X121841384Y-92332419D01*
X121841384Y-91951466D02*
X121793765Y-91380038D01*
X121793765Y-91380038D02*
X121841384Y-91332419D01*
X121841384Y-91332419D02*
X121889003Y-91380038D01*
X121889003Y-91380038D02*
X121841384Y-91951466D01*
X121841384Y-91951466D02*
X121841384Y-91332419D01*
X122317574Y-92237180D02*
X122365193Y-92284800D01*
X122365193Y-92284800D02*
X122317574Y-92332419D01*
X122317574Y-92332419D02*
X122269955Y-92284800D01*
X122269955Y-92284800D02*
X122317574Y-92237180D01*
X122317574Y-92237180D02*
X122317574Y-92332419D01*
X122317574Y-91951466D02*
X122269955Y-91380038D01*
X122269955Y-91380038D02*
X122317574Y-91332419D01*
X122317574Y-91332419D02*
X122365193Y-91380038D01*
X122365193Y-91380038D02*
X122317574Y-91951466D01*
X122317574Y-91951466D02*
X122317574Y-91332419D01*
X127229430Y-99255752D02*
X126467525Y-99541466D01*
X126467525Y-99541466D02*
X127229430Y-99827180D01*
X126653884Y-100177180D02*
X126701503Y-100224800D01*
X126701503Y-100224800D02*
X126653884Y-100272419D01*
X126653884Y-100272419D02*
X126606265Y-100224800D01*
X126606265Y-100224800D02*
X126653884Y-100177180D01*
X126653884Y-100177180D02*
X126653884Y-100272419D01*
X155681503Y-109524800D02*
X155681503Y-109572419D01*
X155681503Y-109572419D02*
X155633884Y-109667657D01*
X155633884Y-109667657D02*
X155586265Y-109715276D01*
X122205752Y-105191353D02*
X122872419Y-104953258D01*
X122872419Y-104953258D02*
X122205752Y-104715163D01*
X129722419Y-85203258D02*
X129674800Y-85298496D01*
X129674800Y-85298496D02*
X129627180Y-85346115D01*
X129627180Y-85346115D02*
X129531942Y-85393734D01*
X129531942Y-85393734D02*
X129246228Y-85393734D01*
X129246228Y-85393734D02*
X129150990Y-85346115D01*
X129150990Y-85346115D02*
X129103371Y-85298496D01*
X129103371Y-85298496D02*
X129055752Y-85203258D01*
X129055752Y-85203258D02*
X129055752Y-85060401D01*
X129055752Y-85060401D02*
X129103371Y-84965163D01*
X129103371Y-84965163D02*
X129150990Y-84917544D01*
X129150990Y-84917544D02*
X129246228Y-84869925D01*
X129246228Y-84869925D02*
X129531942Y-84869925D01*
X129531942Y-84869925D02*
X129627180Y-84917544D01*
X129627180Y-84917544D02*
X129674800Y-84965163D01*
X129674800Y-84965163D02*
X129722419Y-85060401D01*
X129722419Y-85060401D02*
X129722419Y-85203258D01*
X129055752Y-84441353D02*
X129722419Y-84441353D01*
X129150990Y-84441353D02*
X129103371Y-84393734D01*
X129103371Y-84393734D02*
X129055752Y-84298496D01*
X129055752Y-84298496D02*
X129055752Y-84155639D01*
X129055752Y-84155639D02*
X129103371Y-84060401D01*
X129103371Y-84060401D02*
X129198609Y-84012782D01*
X129198609Y-84012782D02*
X129722419Y-84012782D01*
X129722419Y-83393734D02*
X129674800Y-83488972D01*
X129674800Y-83488972D02*
X129579561Y-83536591D01*
X129579561Y-83536591D02*
X128722419Y-83536591D01*
X129055752Y-83108019D02*
X129722419Y-82869924D01*
X129055752Y-82631829D02*
X129722419Y-82869924D01*
X129722419Y-82869924D02*
X129960514Y-82965162D01*
X129960514Y-82965162D02*
X130008133Y-83012781D01*
X130008133Y-83012781D02*
X130055752Y-83108019D01*
X129055752Y-82393733D02*
X129055752Y-82012781D01*
X128722419Y-82250876D02*
X129579561Y-82250876D01*
X129579561Y-82250876D02*
X129674800Y-82203257D01*
X129674800Y-82203257D02*
X129722419Y-82108019D01*
X129722419Y-82108019D02*
X129722419Y-82012781D01*
X129722419Y-81679447D02*
X128722419Y-81679447D01*
X129722419Y-81250876D02*
X129198609Y-81250876D01*
X129198609Y-81250876D02*
X129103371Y-81298495D01*
X129103371Y-81298495D02*
X129055752Y-81393733D01*
X129055752Y-81393733D02*
X129055752Y-81536590D01*
X129055752Y-81536590D02*
X129103371Y-81631828D01*
X129103371Y-81631828D02*
X129150990Y-81679447D01*
X128722419Y-80869923D02*
X128722419Y-80250876D01*
X128722419Y-80250876D02*
X129103371Y-80584209D01*
X129103371Y-80584209D02*
X129103371Y-80441352D01*
X129103371Y-80441352D02*
X129150990Y-80346114D01*
X129150990Y-80346114D02*
X129198609Y-80298495D01*
X129198609Y-80298495D02*
X129293847Y-80250876D01*
X129293847Y-80250876D02*
X129531942Y-80250876D01*
X129531942Y-80250876D02*
X129627180Y-80298495D01*
X129627180Y-80298495D02*
X129674800Y-80346114D01*
X129674800Y-80346114D02*
X129722419Y-80441352D01*
X129722419Y-80441352D02*
X129722419Y-80727066D01*
X129722419Y-80727066D02*
X129674800Y-80822304D01*
X129674800Y-80822304D02*
X129627180Y-80869923D01*
X129722419Y-79822304D02*
X128722419Y-79822304D01*
X129103371Y-79822304D02*
X129055752Y-79727066D01*
X129055752Y-79727066D02*
X129055752Y-79536590D01*
X129055752Y-79536590D02*
X129103371Y-79441352D01*
X129103371Y-79441352D02*
X129150990Y-79393733D01*
X129150990Y-79393733D02*
X129246228Y-79346114D01*
X129246228Y-79346114D02*
X129531942Y-79346114D01*
X129531942Y-79346114D02*
X129627180Y-79393733D01*
X129627180Y-79393733D02*
X129674800Y-79441352D01*
X129674800Y-79441352D02*
X129722419Y-79536590D01*
X129722419Y-79536590D02*
X129722419Y-79727066D01*
X129722419Y-79727066D02*
X129674800Y-79822304D01*
X129674800Y-78536590D02*
X129722419Y-78631828D01*
X129722419Y-78631828D02*
X129722419Y-78822304D01*
X129722419Y-78822304D02*
X129674800Y-78917542D01*
X129674800Y-78917542D02*
X129579561Y-78965161D01*
X129579561Y-78965161D02*
X129198609Y-78965161D01*
X129198609Y-78965161D02*
X129103371Y-78917542D01*
X129103371Y-78917542D02*
X129055752Y-78822304D01*
X129055752Y-78822304D02*
X129055752Y-78631828D01*
X129055752Y-78631828D02*
X129103371Y-78536590D01*
X129103371Y-78536590D02*
X129198609Y-78488971D01*
X129198609Y-78488971D02*
X129293847Y-78488971D01*
X129293847Y-78488971D02*
X129389085Y-78965161D01*
X129674800Y-78108018D02*
X129722419Y-78012780D01*
X129722419Y-78012780D02*
X129722419Y-77822304D01*
X129722419Y-77822304D02*
X129674800Y-77727066D01*
X129674800Y-77727066D02*
X129579561Y-77679447D01*
X129579561Y-77679447D02*
X129531942Y-77679447D01*
X129531942Y-77679447D02*
X129436704Y-77727066D01*
X129436704Y-77727066D02*
X129389085Y-77822304D01*
X129389085Y-77822304D02*
X129389085Y-77965161D01*
X129389085Y-77965161D02*
X129341466Y-78060399D01*
X129341466Y-78060399D02*
X129246228Y-78108018D01*
X129246228Y-78108018D02*
X129198609Y-78108018D01*
X129198609Y-78108018D02*
X129103371Y-78060399D01*
X129103371Y-78060399D02*
X129055752Y-77965161D01*
X129055752Y-77965161D02*
X129055752Y-77822304D01*
X129055752Y-77822304D02*
X129103371Y-77727066D01*
X129055752Y-77393732D02*
X129055752Y-77012780D01*
X128722419Y-77250875D02*
X129579561Y-77250875D01*
X129579561Y-77250875D02*
X129674800Y-77203256D01*
X129674800Y-77203256D02*
X129722419Y-77108018D01*
X129722419Y-77108018D02*
X129722419Y-77012780D01*
X122191353Y-104694247D02*
X121953258Y-104027580D01*
X121953258Y-104027580D02*
X121715163Y-104694247D01*
X129784211Y-114594247D02*
X130546115Y-114308533D01*
X130546115Y-114308533D02*
X129784211Y-114022819D01*
X127784211Y-99844247D02*
X128546115Y-99558533D01*
X128546115Y-99558533D02*
X127784211Y-99272819D01*
X121694247Y-104708646D02*
X121027580Y-104946741D01*
X121027580Y-104946741D02*
X121694247Y-105184836D01*
X124125200Y-104918169D02*
X122839485Y-104061027D01*
X124172819Y-104918169D02*
X122887104Y-105775312D01*
X129794247Y-114015789D02*
X129508533Y-113253884D01*
X129508533Y-113253884D02*
X129222819Y-114015789D01*
X129794247Y-114603884D02*
X129508533Y-115365789D01*
X129508533Y-115365789D02*
X129222819Y-114603884D01*
X130627580Y-115256265D02*
X130437104Y-115256265D01*
X130627580Y-115637217D02*
X130437104Y-115637217D01*
X116125200Y-112951503D02*
X116077580Y-112951503D01*
X116077580Y-112951503D02*
X115982342Y-112903884D01*
X115982342Y-112903884D02*
X115934723Y-112856265D01*
X116696628Y-112903884D02*
X116649009Y-112951503D01*
X116649009Y-112951503D02*
X116601390Y-112903884D01*
X116601390Y-112903884D02*
X116649009Y-112856265D01*
X116649009Y-112856265D02*
X116696628Y-112903884D01*
X116696628Y-112903884D02*
X116601390Y-112903884D01*
X116077580Y-113380074D02*
X117077580Y-113380074D01*
X117077580Y-113380074D02*
X117077580Y-113618169D01*
X117077580Y-113618169D02*
X117029961Y-113761026D01*
X117029961Y-113761026D02*
X116934723Y-113856264D01*
X116934723Y-113856264D02*
X116839485Y-113903883D01*
X116839485Y-113903883D02*
X116649009Y-113951502D01*
X116649009Y-113951502D02*
X116506152Y-113951502D01*
X116506152Y-113951502D02*
X116315676Y-113903883D01*
X116315676Y-113903883D02*
X116220438Y-113856264D01*
X116220438Y-113856264D02*
X116125200Y-113761026D01*
X116125200Y-113761026D02*
X116077580Y-113618169D01*
X116077580Y-113618169D02*
X116077580Y-113380074D01*
X127794247Y-99265789D02*
X127508533Y-98503884D01*
X127508533Y-98503884D02*
X127222819Y-99265789D01*
X127794247Y-99853884D02*
X127508533Y-100615789D01*
X127508533Y-100615789D02*
X127222819Y-99853884D01*
X128627580Y-100506265D02*
X128437104Y-100506265D01*
X128627580Y-100887217D02*
X128437104Y-100887217D01*
D11*
X119822200Y-104948935D02*
X121107914Y-105806077D01*
X119774580Y-104948935D02*
X121060295Y-104091792D01*
X121998935Y-107077800D02*
X122856077Y-105792085D01*
X121998935Y-107125419D02*
X121141792Y-105839704D01*
X119823333Y-106934819D02*
X119490000Y-106458628D01*
X119251905Y-106934819D02*
X119251905Y-105934819D01*
X119251905Y-105934819D02*
X119632857Y-105934819D01*
X119632857Y-105934819D02*
X119728095Y-105982438D01*
X119728095Y-105982438D02*
X119775714Y-106030057D01*
X119775714Y-106030057D02*
X119823333Y-106125295D01*
X119823333Y-106125295D02*
X119823333Y-106268152D01*
X119823333Y-106268152D02*
X119775714Y-106363390D01*
X119775714Y-106363390D02*
X119728095Y-106411009D01*
X119728095Y-106411009D02*
X119632857Y-106458628D01*
X119632857Y-106458628D02*
X119251905Y-106458628D01*
X120156667Y-105934819D02*
X120823333Y-105934819D01*
X120823333Y-105934819D02*
X120394762Y-106934819D01*
X119018095Y-82294819D02*
X119018095Y-83104342D01*
X119018095Y-83104342D02*
X119065714Y-83199580D01*
X119065714Y-83199580D02*
X119113333Y-83247200D01*
X119113333Y-83247200D02*
X119208571Y-83294819D01*
X119208571Y-83294819D02*
X119399047Y-83294819D01*
X119399047Y-83294819D02*
X119494285Y-83247200D01*
X119494285Y-83247200D02*
X119541904Y-83199580D01*
X119541904Y-83199580D02*
X119589523Y-83104342D01*
X119589523Y-83104342D02*
X119589523Y-82294819D01*
X120494285Y-82628152D02*
X120494285Y-83294819D01*
X120256190Y-82247200D02*
X120018095Y-82961485D01*
X120018095Y-82961485D02*
X120637142Y-82961485D01*
X126173333Y-91724819D02*
X125840000Y-91248628D01*
X125601905Y-91724819D02*
X125601905Y-90724819D01*
X125601905Y-90724819D02*
X125982857Y-90724819D01*
X125982857Y-90724819D02*
X126078095Y-90772438D01*
X126078095Y-90772438D02*
X126125714Y-90820057D01*
X126125714Y-90820057D02*
X126173333Y-90915295D01*
X126173333Y-90915295D02*
X126173333Y-91058152D01*
X126173333Y-91058152D02*
X126125714Y-91153390D01*
X126125714Y-91153390D02*
X126078095Y-91201009D01*
X126078095Y-91201009D02*
X125982857Y-91248628D01*
X125982857Y-91248628D02*
X125601905Y-91248628D01*
X127030476Y-90724819D02*
X126840000Y-90724819D01*
X126840000Y-90724819D02*
X126744762Y-90772438D01*
X126744762Y-90772438D02*
X126697143Y-90820057D01*
X126697143Y-90820057D02*
X126601905Y-90962914D01*
X126601905Y-90962914D02*
X126554286Y-91153390D01*
X126554286Y-91153390D02*
X126554286Y-91534342D01*
X126554286Y-91534342D02*
X126601905Y-91629580D01*
X126601905Y-91629580D02*
X126649524Y-91677200D01*
X126649524Y-91677200D02*
X126744762Y-91724819D01*
X126744762Y-91724819D02*
X126935238Y-91724819D01*
X126935238Y-91724819D02*
X127030476Y-91677200D01*
X127030476Y-91677200D02*
X127078095Y-91629580D01*
X127078095Y-91629580D02*
X127125714Y-91534342D01*
X127125714Y-91534342D02*
X127125714Y-91296247D01*
X127125714Y-91296247D02*
X127078095Y-91201009D01*
X127078095Y-91201009D02*
X127030476Y-91153390D01*
X127030476Y-91153390D02*
X126935238Y-91105771D01*
X126935238Y-91105771D02*
X126744762Y-91105771D01*
X126744762Y-91105771D02*
X126649524Y-91153390D01*
X126649524Y-91153390D02*
X126601905Y-91201009D01*
X126601905Y-91201009D02*
X126554286Y-91296247D01*
X123166666Y-83339819D02*
X123166666Y-84054104D01*
X123166666Y-84054104D02*
X123119047Y-84196961D01*
X123119047Y-84196961D02*
X123023809Y-84292200D01*
X123023809Y-84292200D02*
X122880952Y-84339819D01*
X122880952Y-84339819D02*
X122785714Y-84339819D01*
X124166666Y-84339819D02*
X123595238Y-84339819D01*
X123880952Y-84339819D02*
X123880952Y-83339819D01*
X123880952Y-83339819D02*
X123785714Y-83482676D01*
X123785714Y-83482676D02*
X123690476Y-83577914D01*
X123690476Y-83577914D02*
X123595238Y-83625533D01*
X119224819Y-82316666D02*
X118748628Y-82649999D01*
X119224819Y-82888094D02*
X118224819Y-82888094D01*
X118224819Y-82888094D02*
X118224819Y-82507142D01*
X118224819Y-82507142D02*
X118272438Y-82411904D01*
X118272438Y-82411904D02*
X118320057Y-82364285D01*
X118320057Y-82364285D02*
X118415295Y-82316666D01*
X118415295Y-82316666D02*
X118558152Y-82316666D01*
X118558152Y-82316666D02*
X118653390Y-82364285D01*
X118653390Y-82364285D02*
X118701009Y-82411904D01*
X118701009Y-82411904D02*
X118748628Y-82507142D01*
X118748628Y-82507142D02*
X118748628Y-82888094D01*
X118320057Y-81935713D02*
X118272438Y-81888094D01*
X118272438Y-81888094D02*
X118224819Y-81792856D01*
X118224819Y-81792856D02*
X118224819Y-81554761D01*
X118224819Y-81554761D02*
X118272438Y-81459523D01*
X118272438Y-81459523D02*
X118320057Y-81411904D01*
X118320057Y-81411904D02*
X118415295Y-81364285D01*
X118415295Y-81364285D02*
X118510533Y-81364285D01*
X118510533Y-81364285D02*
X118653390Y-81411904D01*
X118653390Y-81411904D02*
X119224819Y-81983332D01*
X119224819Y-81983332D02*
X119224819Y-81364285D01*
X123175595Y-89399819D02*
X123175595Y-90209342D01*
X123175595Y-90209342D02*
X123223214Y-90304580D01*
X123223214Y-90304580D02*
X123270833Y-90352200D01*
X123270833Y-90352200D02*
X123366071Y-90399819D01*
X123366071Y-90399819D02*
X123556547Y-90399819D01*
X123556547Y-90399819D02*
X123651785Y-90352200D01*
X123651785Y-90352200D02*
X123699404Y-90304580D01*
X123699404Y-90304580D02*
X123747023Y-90209342D01*
X123747023Y-90209342D02*
X123747023Y-89399819D01*
X124127976Y-89399819D02*
X124747023Y-89399819D01*
X124747023Y-89399819D02*
X124413690Y-89780771D01*
X124413690Y-89780771D02*
X124556547Y-89780771D01*
X124556547Y-89780771D02*
X124651785Y-89828390D01*
X124651785Y-89828390D02*
X124699404Y-89876009D01*
X124699404Y-89876009D02*
X124747023Y-89971247D01*
X124747023Y-89971247D02*
X124747023Y-90209342D01*
X124747023Y-90209342D02*
X124699404Y-90304580D01*
X124699404Y-90304580D02*
X124651785Y-90352200D01*
X124651785Y-90352200D02*
X124556547Y-90399819D01*
X124556547Y-90399819D02*
X124270833Y-90399819D01*
X124270833Y-90399819D02*
X124175595Y-90352200D01*
X124175595Y-90352200D02*
X124127976Y-90304580D01*
X126024819Y-106906666D02*
X125548628Y-107239999D01*
X126024819Y-107478094D02*
X125024819Y-107478094D01*
X125024819Y-107478094D02*
X125024819Y-107097142D01*
X125024819Y-107097142D02*
X125072438Y-107001904D01*
X125072438Y-107001904D02*
X125120057Y-106954285D01*
X125120057Y-106954285D02*
X125215295Y-106906666D01*
X125215295Y-106906666D02*
X125358152Y-106906666D01*
X125358152Y-106906666D02*
X125453390Y-106954285D01*
X125453390Y-106954285D02*
X125501009Y-107001904D01*
X125501009Y-107001904D02*
X125548628Y-107097142D01*
X125548628Y-107097142D02*
X125548628Y-107478094D01*
X125358152Y-106049523D02*
X126024819Y-106049523D01*
X124977200Y-106287618D02*
X125691485Y-106525713D01*
X125691485Y-106525713D02*
X125691485Y-105906666D01*
X118454819Y-128633333D02*
X119169104Y-128633333D01*
X119169104Y-128633333D02*
X119311961Y-128680952D01*
X119311961Y-128680952D02*
X119407200Y-128776190D01*
X119407200Y-128776190D02*
X119454819Y-128919047D01*
X119454819Y-128919047D02*
X119454819Y-129014285D01*
X118788152Y-127728571D02*
X119454819Y-127728571D01*
X118407200Y-127966666D02*
X119121485Y-128204761D01*
X119121485Y-128204761D02*
X119121485Y-127585714D01*
X132516666Y-74744819D02*
X132516666Y-75459104D01*
X132516666Y-75459104D02*
X132469047Y-75601961D01*
X132469047Y-75601961D02*
X132373809Y-75697200D01*
X132373809Y-75697200D02*
X132230952Y-75744819D01*
X132230952Y-75744819D02*
X132135714Y-75744819D01*
X132897619Y-74744819D02*
X133516666Y-74744819D01*
X133516666Y-74744819D02*
X133183333Y-75125771D01*
X133183333Y-75125771D02*
X133326190Y-75125771D01*
X133326190Y-75125771D02*
X133421428Y-75173390D01*
X133421428Y-75173390D02*
X133469047Y-75221009D01*
X133469047Y-75221009D02*
X133516666Y-75316247D01*
X133516666Y-75316247D02*
X133516666Y-75554342D01*
X133516666Y-75554342D02*
X133469047Y-75649580D01*
X133469047Y-75649580D02*
X133421428Y-75697200D01*
X133421428Y-75697200D02*
X133326190Y-75744819D01*
X133326190Y-75744819D02*
X133040476Y-75744819D01*
X133040476Y-75744819D02*
X132945238Y-75697200D01*
X132945238Y-75697200D02*
X132897619Y-75649580D01*
X117507142Y-94169580D02*
X117459523Y-94217200D01*
X117459523Y-94217200D02*
X117316666Y-94264819D01*
X117316666Y-94264819D02*
X117221428Y-94264819D01*
X117221428Y-94264819D02*
X117078571Y-94217200D01*
X117078571Y-94217200D02*
X116983333Y-94121961D01*
X116983333Y-94121961D02*
X116935714Y-94026723D01*
X116935714Y-94026723D02*
X116888095Y-93836247D01*
X116888095Y-93836247D02*
X116888095Y-93693390D01*
X116888095Y-93693390D02*
X116935714Y-93502914D01*
X116935714Y-93502914D02*
X116983333Y-93407676D01*
X116983333Y-93407676D02*
X117078571Y-93312438D01*
X117078571Y-93312438D02*
X117221428Y-93264819D01*
X117221428Y-93264819D02*
X117316666Y-93264819D01*
X117316666Y-93264819D02*
X117459523Y-93312438D01*
X117459523Y-93312438D02*
X117507142Y-93360057D01*
X118459523Y-94264819D02*
X117888095Y-94264819D01*
X118173809Y-94264819D02*
X118173809Y-93264819D01*
X118173809Y-93264819D02*
X118078571Y-93407676D01*
X118078571Y-93407676D02*
X117983333Y-93502914D01*
X117983333Y-93502914D02*
X117888095Y-93550533D01*
X118792857Y-93264819D02*
X119459523Y-93264819D01*
X119459523Y-93264819D02*
X119030952Y-94264819D01*
X113616666Y-74654819D02*
X113616666Y-75369104D01*
X113616666Y-75369104D02*
X113569047Y-75511961D01*
X113569047Y-75511961D02*
X113473809Y-75607200D01*
X113473809Y-75607200D02*
X113330952Y-75654819D01*
X113330952Y-75654819D02*
X113235714Y-75654819D01*
X114045238Y-74750057D02*
X114092857Y-74702438D01*
X114092857Y-74702438D02*
X114188095Y-74654819D01*
X114188095Y-74654819D02*
X114426190Y-74654819D01*
X114426190Y-74654819D02*
X114521428Y-74702438D01*
X114521428Y-74702438D02*
X114569047Y-74750057D01*
X114569047Y-74750057D02*
X114616666Y-74845295D01*
X114616666Y-74845295D02*
X114616666Y-74940533D01*
X114616666Y-74940533D02*
X114569047Y-75083390D01*
X114569047Y-75083390D02*
X113997619Y-75654819D01*
X113997619Y-75654819D02*
X114616666Y-75654819D01*
X123150595Y-106524819D02*
X123150595Y-107334342D01*
X123150595Y-107334342D02*
X123198214Y-107429580D01*
X123198214Y-107429580D02*
X123245833Y-107477200D01*
X123245833Y-107477200D02*
X123341071Y-107524819D01*
X123341071Y-107524819D02*
X123531547Y-107524819D01*
X123531547Y-107524819D02*
X123626785Y-107477200D01*
X123626785Y-107477200D02*
X123674404Y-107429580D01*
X123674404Y-107429580D02*
X123722023Y-107334342D01*
X123722023Y-107334342D02*
X123722023Y-106524819D01*
X124722023Y-107524819D02*
X124150595Y-107524819D01*
X124436309Y-107524819D02*
X124436309Y-106524819D01*
X124436309Y-106524819D02*
X124341071Y-106667676D01*
X124341071Y-106667676D02*
X124245833Y-106762914D01*
X124245833Y-106762914D02*
X124150595Y-106810533D01*
%TO.C,C16*%
D12*
X123390000Y-121037836D02*
X123390000Y-120822164D01*
X124110000Y-121037836D02*
X124110000Y-120822164D01*
%TO.C,R7*%
X119836359Y-107270000D02*
X120143641Y-107270000D01*
X119836359Y-108030000D02*
X120143641Y-108030000D01*
%TO.C,U4*%
X117980000Y-88250000D02*
X121580000Y-88250000D01*
X117941522Y-88238478D02*
G75*
G02*
X119780000Y-83799999I1838478J1838478D01*
G01*
X119780000Y-83800000D02*
G75*
G02*
X121618478Y-88238478I0J-2600000D01*
G01*
%TO.C,C10*%
X127190000Y-123812164D02*
X127190000Y-124027836D01*
X127910000Y-123812164D02*
X127910000Y-124027836D01*
%TO.C,C8*%
X119912164Y-96240000D02*
X120127836Y-96240000D01*
X119912164Y-96960000D02*
X120127836Y-96960000D01*
%TO.C,R6*%
X126493641Y-89720000D02*
X126186359Y-89720000D01*
X126493641Y-90480000D02*
X126186359Y-90480000D01*
%TO.C,C9*%
X118340000Y-95022164D02*
X118340000Y-95237836D01*
X119060000Y-95022164D02*
X119060000Y-95237836D01*
%TO.C,J1*%
X118800000Y-76240000D02*
X118800000Y-74340000D01*
X118800000Y-80140000D02*
X118800000Y-78140000D01*
X128200000Y-74340000D02*
X118800000Y-74340000D01*
X128200000Y-76240000D02*
X128200000Y-74340000D01*
X128200000Y-80140000D02*
X128200000Y-78140000D01*
%TO.C,R5*%
X123370000Y-118856359D02*
X123370000Y-119163641D01*
X124130000Y-118856359D02*
X124130000Y-119163641D01*
%TO.C,R2*%
X117220000Y-81996359D02*
X117220000Y-82303641D01*
X117980000Y-81996359D02*
X117980000Y-82303641D01*
%TO.C,R3*%
X125020000Y-106586359D02*
X125020000Y-106893641D01*
X125780000Y-106586359D02*
X125780000Y-106893641D01*
%TO.C,U3*%
X121177500Y-90785000D02*
X126697500Y-90785000D01*
X121177500Y-91055000D02*
X121177500Y-90785000D01*
X121177500Y-96305000D02*
X121177500Y-96035000D01*
X126697500Y-90785000D02*
X126697500Y-91055000D01*
X126697500Y-96035000D02*
X126697500Y-96305000D01*
X126697500Y-96305000D02*
X121177500Y-96305000D01*
X120347500Y-91045000D02*
X120007500Y-90575000D01*
X120687500Y-90575000D01*
X120347500Y-91045000D01*
G36*
X120347500Y-91045000D02*
G01*
X120007500Y-90575000D01*
X120687500Y-90575000D01*
X120347500Y-91045000D01*
G37*
%TO.C,C3*%
X127860000Y-104857836D02*
X127860000Y-104642164D01*
X127140000Y-104857836D02*
X127140000Y-104642164D01*
%TO.C,C12*%
X129190000Y-123812164D02*
X129190000Y-124027836D01*
X129910000Y-123812164D02*
X129910000Y-124027836D01*
%TO.C,R4*%
X124020000Y-106586359D02*
X124020000Y-106893641D01*
X124780000Y-106586359D02*
X124780000Y-106893641D01*
%TO.C,C4*%
X122740000Y-85857836D02*
X122740000Y-85642164D01*
X123460000Y-85857836D02*
X123460000Y-85642164D01*
%TO.C,C1*%
X127577836Y-105890000D02*
X127362164Y-105890000D01*
X127577836Y-106610000D02*
X127362164Y-106610000D01*
%TO.C,C6*%
X117882164Y-122990000D02*
X118097836Y-122990000D01*
X117882164Y-123710000D02*
X118097836Y-123710000D01*
%TO.C,C15*%
X120692164Y-117390000D02*
X120907836Y-117390000D01*
X120692164Y-118110000D02*
X120907836Y-118110000D01*
%TO.C,J4*%
X120130000Y-128880000D02*
X120130000Y-127500000D01*
X121510000Y-128880000D02*
X120130000Y-128880000D01*
X122780000Y-126120000D02*
X127970000Y-126120000D01*
X122780000Y-128880000D02*
X122780000Y-126120000D01*
X122780000Y-128880000D02*
X127970000Y-128880000D01*
X127970000Y-128880000D02*
X127970000Y-126120000D01*
%TO.C,C5*%
X126087836Y-85240000D02*
X125872164Y-85240000D01*
X126087836Y-85960000D02*
X125872164Y-85960000D01*
%TO.C,C11*%
X128190000Y-123822164D02*
X128190000Y-124037836D01*
X128910000Y-123822164D02*
X128910000Y-124037836D01*
%TO.C,SW1*%
X119650000Y-122230000D02*
X123790000Y-122230000D01*
X119650000Y-122530000D02*
X119650000Y-122230000D01*
X119650000Y-125370000D02*
X119650000Y-125070000D01*
X123790000Y-122230000D02*
X123790000Y-122530000D01*
X123790000Y-125070000D02*
X123790000Y-125370000D01*
X123790000Y-125370000D02*
X119650000Y-125370000D01*
%TO.C,J3*%
X131470000Y-76290000D02*
X132850000Y-76290000D01*
X131470000Y-77670000D02*
X131470000Y-76290000D01*
X131470000Y-78940000D02*
X131470000Y-127310000D01*
X131470000Y-78940000D02*
X134230000Y-78940000D01*
X131470000Y-127310000D02*
X134230000Y-127310000D01*
X134230000Y-78940000D02*
X134230000Y-127310000D01*
%TO.C,R1*%
X126163641Y-84170000D02*
X125856359Y-84170000D01*
X126163641Y-84930000D02*
X125856359Y-84930000D01*
%TO.C,C17*%
X118257836Y-92290000D02*
X118042164Y-92290000D01*
X118257836Y-93010000D02*
X118042164Y-93010000D01*
%TO.C,C13*%
X117862164Y-88640000D02*
X118077836Y-88640000D01*
X117862164Y-89360000D02*
X118077836Y-89360000D01*
%TO.C,Y1*%
X118990000Y-118340000D02*
X118990000Y-121760000D01*
X118990000Y-121760000D02*
X123110000Y-121760000D01*
%TO.C,J2*%
X112570000Y-76200000D02*
X113950000Y-76200000D01*
X112570000Y-77580000D02*
X112570000Y-76200000D01*
X112570000Y-78850000D02*
X112570000Y-127220000D01*
X112570000Y-78850000D02*
X115330000Y-78850000D01*
X112570000Y-127220000D02*
X115330000Y-127220000D01*
X115330000Y-78850000D02*
X115330000Y-127220000D01*
%TO.C,C2*%
X127627836Y-106890000D02*
X127412164Y-106890000D01*
X127627836Y-107610000D02*
X127412164Y-107610000D01*
%TO.C,C14*%
X121512164Y-88640000D02*
X121727836Y-88640000D01*
X121512164Y-89360000D02*
X121727836Y-89360000D01*
%TO.C,C7*%
X117882164Y-123990000D02*
X118097836Y-123990000D01*
X117882164Y-124710000D02*
X118097836Y-124710000D01*
%TO.C,U1*%
X120302500Y-108290000D02*
X120952500Y-108290000D01*
X120302500Y-108940000D02*
X120302500Y-108290000D01*
X120302500Y-115510000D02*
X120302500Y-114860000D01*
X120952500Y-115510000D02*
X120302500Y-115510000D01*
X126872500Y-108290000D02*
X127522500Y-108290000D01*
X127522500Y-108290000D02*
X127522500Y-108940000D01*
X127522500Y-114860000D02*
X127522500Y-115510000D01*
X127522500Y-115510000D02*
X126872500Y-115510000D01*
X119772500Y-109300000D02*
X119442500Y-109540000D01*
X119442500Y-109060000D01*
X119772500Y-109300000D01*
G36*
X119772500Y-109300000D02*
G01*
X119442500Y-109540000D01*
X119442500Y-109060000D01*
X119772500Y-109300000D01*
G37*
%TD*%
M02*
