%TF.GenerationSoftware,KiCad,Pcbnew,10.0.1*%
%TF.CreationDate,2026-06-08T15:33:48+02:00*%
%TF.ProjectId,devboard,64657662-6f61-4726-942e-6b696361645f,rev?*%
%TF.SameCoordinates,Original*%
%TF.FileFunction,Soldermask,Top*%
%TF.FilePolarity,Negative*%
%FSLAX46Y46*%
G04 Gerber Fmt 4.6, Leading zero omitted, Abs format (unit mm)*
G04 Created by KiCad (PCBNEW 10.0.1) date 2026-06-08 15:33:48*
%MOMM*%
%LPD*%
G01*
G04 APERTURE LIST*
G04 Aperture macros list*
%AMRoundRect*
0 Rectangle with rounded corners*
0 $1 Rounding radius*
0 $2 $3 $4 $5 $6 $7 $8 $9 X,Y pos of 4 corners*
0 Add a 4 corners polygon primitive as box body*
4,1,4,$2,$3,$4,$5,$6,$7,$8,$9,$2,$3,0*
0 Add four circle primitives for the rounded corners*
1,1,$1+$1,$2,$3*
1,1,$1+$1,$4,$5*
1,1,$1+$1,$6,$7*
1,1,$1+$1,$8,$9*
0 Add four rect primitives between the rounded corners*
20,1,$1+$1,$2,$3,$4,$5,0*
20,1,$1+$1,$4,$5,$6,$7,0*
20,1,$1+$1,$6,$7,$8,$9,0*
20,1,$1+$1,$8,$9,$2,$3,0*%
G04 Aperture macros list end*
%ADD10RoundRect,0.140000X0.170000X-0.140000X0.170000X0.140000X-0.170000X0.140000X-0.170000X-0.140000X0*%
%ADD11RoundRect,0.135000X0.185000X-0.135000X0.185000X0.135000X-0.185000X0.135000X-0.185000X-0.135000X0*%
%ADD12R,1.050000X1.500000*%
%ADD13O,1.050000X1.500000*%
%ADD14RoundRect,0.140000X-0.170000X0.140000X-0.170000X-0.140000X0.170000X-0.140000X0.170000X0.140000X0*%
%ADD15RoundRect,0.140000X-0.140000X-0.170000X0.140000X-0.170000X0.140000X0.170000X-0.140000X0.170000X0*%
%ADD16RoundRect,0.135000X-0.185000X0.135000X-0.185000X-0.135000X0.185000X-0.135000X0.185000X0.135000X0*%
%ADD17RoundRect,0.140000X0.140000X0.170000X-0.140000X0.170000X-0.140000X-0.170000X0.140000X-0.170000X0*%
%ADD18C,0.650000*%
%ADD19RoundRect,0.150000X0.150000X0.575000X-0.150000X0.575000X-0.150000X-0.575000X0.150000X-0.575000X0*%
%ADD20RoundRect,0.075000X0.075000X0.650000X-0.075000X0.650000X-0.075000X-0.650000X0.075000X-0.650000X0*%
%ADD21O,1.000000X2.100000*%
%ADD22O,1.000000X1.600000*%
%ADD23RoundRect,0.135000X-0.135000X-0.185000X0.135000X-0.185000X0.135000X0.185000X-0.135000X0.185000X0*%
%ADD24RoundRect,0.162500X-0.650000X-0.162500X0.650000X-0.162500X0.650000X0.162500X-0.650000X0.162500X0*%
%ADD25RoundRect,0.050000X-0.387500X-0.050000X0.387500X-0.050000X0.387500X0.050000X-0.387500X0.050000X0*%
%ADD26RoundRect,0.050000X-0.050000X-0.387500X0.050000X-0.387500X0.050000X0.387500X-0.050000X0.387500X0*%
%ADD27R,3.200000X3.200000*%
%ADD28R,1.700000X1.700000*%
%ADD29C,1.700000*%
%ADD30RoundRect,0.200000X-0.200000X-0.800000X0.200000X-0.800000X0.200000X0.800000X-0.200000X0.800000X0*%
%ADD31RoundRect,0.135000X0.135000X0.185000X-0.135000X0.185000X-0.135000X-0.185000X0.135000X-0.185000X0*%
%ADD32RoundRect,0.250000X-0.450000X-0.350000X0.450000X-0.350000X0.450000X0.350000X-0.450000X0.350000X0*%
G04 APERTURE END LIST*
D10*
%TO.C,C16*%
X125900000Y-120460000D03*
X125900000Y-119500000D03*
%TD*%
D11*
%TO.C,R7*%
X118450000Y-91960000D03*
X118450000Y-90940000D03*
%TD*%
D12*
%TO.C,U4*%
X119630000Y-86360000D03*
D13*
X120900000Y-86360000D03*
X122170000Y-86360000D03*
%TD*%
D14*
%TO.C,C10*%
X125100000Y-117170000D03*
X125100000Y-118130000D03*
%TD*%
D15*
%TO.C,C18*%
X129490000Y-77850000D03*
X130450000Y-77850000D03*
%TD*%
D10*
%TO.C,C8*%
X126950000Y-87030000D03*
X126950000Y-86070000D03*
%TD*%
D16*
%TO.C,R6*%
X118500000Y-88950000D03*
X118500000Y-89970000D03*
%TD*%
D17*
%TO.C,C9*%
X130450000Y-86500000D03*
X129490000Y-86500000D03*
%TD*%
D18*
%TO.C,J1*%
X126390000Y-80840000D03*
X120610000Y-80840000D03*
D19*
X126750000Y-82285000D03*
X125950000Y-82285000D03*
D20*
X124750000Y-82285000D03*
X123750000Y-82285000D03*
X123250000Y-82285000D03*
X122250000Y-82285000D03*
D19*
X121050000Y-82285000D03*
X120250000Y-82285000D03*
X120250000Y-82285000D03*
X121050000Y-82285000D03*
D20*
X121750000Y-82285000D03*
X122750000Y-82285000D03*
X124250000Y-82285000D03*
X125250000Y-82285000D03*
D19*
X125950000Y-82285000D03*
X126750000Y-82285000D03*
D21*
X127820000Y-81370000D03*
D22*
X127820000Y-77190000D03*
D21*
X119180000Y-81370000D03*
D22*
X119180000Y-77190000D03*
%TD*%
D16*
%TO.C,R5*%
X124650000Y-119500000D03*
X124650000Y-120520000D03*
%TD*%
%TO.C,R2*%
X117600000Y-81640000D03*
X117600000Y-82660000D03*
%TD*%
D23*
%TO.C,R3*%
X123900000Y-94750000D03*
X124920000Y-94750000D03*
%TD*%
D24*
%TO.C,U3*%
X120212500Y-89480000D03*
X120212500Y-90750000D03*
X120212500Y-92020000D03*
X120212500Y-93290000D03*
X127387500Y-93290000D03*
X127387500Y-92020000D03*
X127387500Y-90750000D03*
X127387500Y-89480000D03*
%TD*%
D15*
%TO.C,C17*%
X129490000Y-76900000D03*
X130450000Y-76900000D03*
%TD*%
D10*
%TO.C,C3*%
X117050000Y-85630000D03*
X117050000Y-84670000D03*
%TD*%
D14*
%TO.C,C12*%
X126200000Y-104850000D03*
X126200000Y-105810000D03*
%TD*%
D23*
%TO.C,R4*%
X122680000Y-95850000D03*
X123700000Y-95850000D03*
%TD*%
D17*
%TO.C,C4*%
X130550000Y-84950000D03*
X129590000Y-84950000D03*
%TD*%
D25*
%TO.C,U1*%
X120475000Y-109300000D03*
X120475000Y-109700000D03*
X120475000Y-110100000D03*
X120475000Y-110500000D03*
X120475000Y-110900000D03*
X120475000Y-111300000D03*
X120475000Y-111700000D03*
X120475000Y-112100000D03*
X120475000Y-112500000D03*
X120475000Y-112900000D03*
X120475000Y-113300000D03*
X120475000Y-113700000D03*
X120475000Y-114100000D03*
X120475000Y-114500000D03*
D26*
X121312500Y-115337500D03*
X121712500Y-115337500D03*
X122112500Y-115337500D03*
X122512500Y-115337500D03*
X122912500Y-115337500D03*
X123312500Y-115337500D03*
X123712500Y-115337500D03*
X124112500Y-115337500D03*
X124512500Y-115337500D03*
X124912500Y-115337500D03*
X125312500Y-115337500D03*
X125712500Y-115337500D03*
X126112500Y-115337500D03*
X126512500Y-115337500D03*
D25*
X127350000Y-114500000D03*
X127350000Y-114100000D03*
X127350000Y-113700000D03*
X127350000Y-113300000D03*
X127350000Y-112900000D03*
X127350000Y-112500000D03*
X127350000Y-112100000D03*
X127350000Y-111700000D03*
X127350000Y-111300000D03*
X127350000Y-110900000D03*
X127350000Y-110500000D03*
X127350000Y-110100000D03*
X127350000Y-109700000D03*
X127350000Y-109300000D03*
D26*
X126512500Y-108462500D03*
X126112500Y-108462500D03*
X125712500Y-108462500D03*
X125312500Y-108462500D03*
X124912500Y-108462500D03*
X124512500Y-108462500D03*
X124112500Y-108462500D03*
X123712500Y-108462500D03*
X123312500Y-108462500D03*
X122912500Y-108462500D03*
X122512500Y-108462500D03*
X122112500Y-108462500D03*
X121712500Y-108462500D03*
X121312500Y-108462500D03*
D27*
X123912500Y-111900000D03*
%TD*%
D17*
%TO.C,C1*%
X124060000Y-117150000D03*
X123100000Y-117150000D03*
%TD*%
D10*
%TO.C,C6*%
X130450000Y-89280000D03*
X130450000Y-88320000D03*
%TD*%
D14*
%TO.C,C15*%
X117600000Y-118150000D03*
X117600000Y-119110000D03*
%TD*%
D28*
%TO.C,J4*%
X121510000Y-127500000D03*
D29*
X124050000Y-127500000D03*
X126590000Y-127500000D03*
%TD*%
D10*
%TO.C,C5*%
X117600000Y-117130000D03*
X117600000Y-116170000D03*
%TD*%
D14*
%TO.C,C11*%
X126200000Y-117200000D03*
X126200000Y-118160000D03*
%TD*%
D30*
%TO.C,SW1*%
X120400000Y-123800000D03*
X124600000Y-123800000D03*
%TD*%
D28*
%TO.C,J3*%
X132850000Y-77670000D03*
D29*
X132850000Y-80210000D03*
X132850000Y-82750000D03*
X132850000Y-85290000D03*
X132850000Y-87830000D03*
X132850000Y-90370000D03*
X132850000Y-92910000D03*
X132850000Y-95450000D03*
X132850000Y-97990000D03*
X132850000Y-100530000D03*
X132850000Y-103070000D03*
X132850000Y-105610000D03*
X132850000Y-108150000D03*
X132850000Y-110690000D03*
X132850000Y-113230000D03*
X132850000Y-115770000D03*
X132850000Y-118310000D03*
X132850000Y-120850000D03*
X132850000Y-123390000D03*
X132850000Y-125930000D03*
%TD*%
D31*
%TO.C,R1*%
X126520000Y-84550000D03*
X125500000Y-84550000D03*
%TD*%
D15*
%TO.C,C13*%
X116520000Y-83600000D03*
X117480000Y-83600000D03*
%TD*%
D32*
%TO.C,Y1*%
X119150000Y-119400000D03*
X121350000Y-119400000D03*
X121350000Y-117700000D03*
X119150000Y-117700000D03*
%TD*%
D28*
%TO.C,J2*%
X113950000Y-77580000D03*
D29*
X113950000Y-80120000D03*
X113950000Y-82660000D03*
X113950000Y-85200000D03*
X113950000Y-87740000D03*
X113950000Y-90280000D03*
X113950000Y-92820000D03*
X113950000Y-95360000D03*
X113950000Y-97900000D03*
X113950000Y-100440000D03*
X113950000Y-102980000D03*
X113950000Y-105520000D03*
X113950000Y-108060000D03*
X113950000Y-110600000D03*
X113950000Y-113140000D03*
X113950000Y-115680000D03*
X113950000Y-118220000D03*
X113950000Y-120760000D03*
X113950000Y-123300000D03*
X113950000Y-125840000D03*
%TD*%
D10*
%TO.C,C7*%
X127350000Y-106300000D03*
X127350000Y-105340000D03*
%TD*%
D17*
%TO.C,C2*%
X124060000Y-118200000D03*
X123100000Y-118200000D03*
%TD*%
%TO.C,C14*%
X125860000Y-85650000D03*
X124900000Y-85650000D03*
%TD*%
M02*
