%TF.GenerationSoftware,KiCad,Pcbnew,10.0.1*%
%TF.CreationDate,2026-06-01T06:34:56+02:00*%
%TF.ProjectId,devboard,64657662-6f61-4726-942e-6b696361645f,rev?*%
%TF.SameCoordinates,Original*%
%TF.FileFunction,Legend,Top*%
%TF.FilePolarity,Positive*%
%FSLAX46Y46*%
G04 Gerber Fmt 4.6, Leading zero omitted, Abs format (unit mm)*
G04 Created by KiCad (PCBNEW 10.0.1) date 2026-06-01 06:34:56*
%MOMM*%
%LPD*%
G01*
G04 APERTURE LIST*
%ADD10C,0.100000*%
%ADD11C,0.150000*%
%ADD12C,0.120000*%
G04 APERTURE END LIST*
D10*
X130933609Y-82950877D02*
X130433609Y-82950877D01*
X130909800Y-82950877D02*
X130933609Y-82998496D01*
X130933609Y-82998496D02*
X130933609Y-83093734D01*
X130933609Y-83093734D02*
X130909800Y-83141353D01*
X130909800Y-83141353D02*
X130885990Y-83165163D01*
X130885990Y-83165163D02*
X130838371Y-83188972D01*
X130838371Y-83188972D02*
X130695514Y-83188972D01*
X130695514Y-83188972D02*
X130647895Y-83165163D01*
X130647895Y-83165163D02*
X130624085Y-83141353D01*
X130624085Y-83141353D02*
X130600276Y-83093734D01*
X130600276Y-83093734D02*
X130600276Y-82998496D01*
X130600276Y-82998496D02*
X130624085Y-82950877D01*
X130909800Y-82522306D02*
X130933609Y-82569925D01*
X130933609Y-82569925D02*
X130933609Y-82665163D01*
X130933609Y-82665163D02*
X130909800Y-82712782D01*
X130909800Y-82712782D02*
X130862180Y-82736591D01*
X130862180Y-82736591D02*
X130671704Y-82736591D01*
X130671704Y-82736591D02*
X130624085Y-82712782D01*
X130624085Y-82712782D02*
X130600276Y-82665163D01*
X130600276Y-82665163D02*
X130600276Y-82569925D01*
X130600276Y-82569925D02*
X130624085Y-82522306D01*
X130624085Y-82522306D02*
X130671704Y-82498496D01*
X130671704Y-82498496D02*
X130719323Y-82498496D01*
X130719323Y-82498496D02*
X130766942Y-82736591D01*
X130600276Y-82331830D02*
X130933609Y-82212782D01*
X130933609Y-82212782D02*
X130600276Y-82093735D01*
X130933609Y-81903259D02*
X130433609Y-81903259D01*
X130624085Y-81903259D02*
X130600276Y-81855640D01*
X130600276Y-81855640D02*
X130600276Y-81760402D01*
X130600276Y-81760402D02*
X130624085Y-81712783D01*
X130624085Y-81712783D02*
X130647895Y-81688973D01*
X130647895Y-81688973D02*
X130695514Y-81665164D01*
X130695514Y-81665164D02*
X130838371Y-81665164D01*
X130838371Y-81665164D02*
X130885990Y-81688973D01*
X130885990Y-81688973D02*
X130909800Y-81712783D01*
X130909800Y-81712783D02*
X130933609Y-81760402D01*
X130933609Y-81760402D02*
X130933609Y-81855640D01*
X130933609Y-81855640D02*
X130909800Y-81903259D01*
X130933609Y-81379449D02*
X130909800Y-81427068D01*
X130909800Y-81427068D02*
X130885990Y-81450878D01*
X130885990Y-81450878D02*
X130838371Y-81474687D01*
X130838371Y-81474687D02*
X130695514Y-81474687D01*
X130695514Y-81474687D02*
X130647895Y-81450878D01*
X130647895Y-81450878D02*
X130624085Y-81427068D01*
X130624085Y-81427068D02*
X130600276Y-81379449D01*
X130600276Y-81379449D02*
X130600276Y-81308021D01*
X130600276Y-81308021D02*
X130624085Y-81260402D01*
X130624085Y-81260402D02*
X130647895Y-81236592D01*
X130647895Y-81236592D02*
X130695514Y-81212783D01*
X130695514Y-81212783D02*
X130838371Y-81212783D01*
X130838371Y-81212783D02*
X130885990Y-81236592D01*
X130885990Y-81236592D02*
X130909800Y-81260402D01*
X130909800Y-81260402D02*
X130933609Y-81308021D01*
X130933609Y-81308021D02*
X130933609Y-81379449D01*
X130933609Y-80784211D02*
X130671704Y-80784211D01*
X130671704Y-80784211D02*
X130624085Y-80808021D01*
X130624085Y-80808021D02*
X130600276Y-80855640D01*
X130600276Y-80855640D02*
X130600276Y-80950878D01*
X130600276Y-80950878D02*
X130624085Y-80998497D01*
X130909800Y-80784211D02*
X130933609Y-80831830D01*
X130933609Y-80831830D02*
X130933609Y-80950878D01*
X130933609Y-80950878D02*
X130909800Y-80998497D01*
X130909800Y-80998497D02*
X130862180Y-81022306D01*
X130862180Y-81022306D02*
X130814561Y-81022306D01*
X130814561Y-81022306D02*
X130766942Y-80998497D01*
X130766942Y-80998497D02*
X130743133Y-80950878D01*
X130743133Y-80950878D02*
X130743133Y-80831830D01*
X130743133Y-80831830D02*
X130719323Y-80784211D01*
X130933609Y-80546116D02*
X130600276Y-80546116D01*
X130695514Y-80546116D02*
X130647895Y-80522306D01*
X130647895Y-80522306D02*
X130624085Y-80498497D01*
X130624085Y-80498497D02*
X130600276Y-80450878D01*
X130600276Y-80450878D02*
X130600276Y-80403259D01*
X130933609Y-80022306D02*
X130433609Y-80022306D01*
X130909800Y-80022306D02*
X130933609Y-80069925D01*
X130933609Y-80069925D02*
X130933609Y-80165163D01*
X130933609Y-80165163D02*
X130909800Y-80212782D01*
X130909800Y-80212782D02*
X130885990Y-80236592D01*
X130885990Y-80236592D02*
X130838371Y-80260401D01*
X130838371Y-80260401D02*
X130695514Y-80260401D01*
X130695514Y-80260401D02*
X130647895Y-80236592D01*
X130647895Y-80236592D02*
X130624085Y-80212782D01*
X130624085Y-80212782D02*
X130600276Y-80165163D01*
X130600276Y-80165163D02*
X130600276Y-80069925D01*
X130600276Y-80069925D02*
X130624085Y-80022306D01*
X113396741Y-127822419D02*
X113396741Y-128060514D01*
X113158646Y-127965276D02*
X113396741Y-128060514D01*
X113396741Y-128060514D02*
X113634836Y-127965276D01*
X113253884Y-128250990D02*
X113396741Y-128060514D01*
X113396741Y-128060514D02*
X113539598Y-128250990D01*
X115911027Y-124641466D02*
X115958646Y-124593847D01*
X115958646Y-124593847D02*
X116053884Y-124546228D01*
X116053884Y-124546228D02*
X116244360Y-124641466D01*
X116244360Y-124641466D02*
X116339598Y-124593847D01*
X116339598Y-124593847D02*
X116387217Y-124546228D01*
X117468169Y-124424800D02*
X116611027Y-125710514D01*
X117468169Y-124377180D02*
X118325312Y-125662895D01*
X117258646Y-126855752D02*
X117496741Y-127522419D01*
X117496741Y-127522419D02*
X117734836Y-126855752D01*
X121703884Y-90077180D02*
X121751503Y-90124800D01*
X121751503Y-90124800D02*
X121703884Y-90172419D01*
X121703884Y-90172419D02*
X121656265Y-90124800D01*
X121656265Y-90124800D02*
X121703884Y-90077180D01*
X121703884Y-90077180D02*
X121703884Y-90172419D01*
X121703884Y-89791466D02*
X121656265Y-89220038D01*
X121656265Y-89220038D02*
X121703884Y-89172419D01*
X121703884Y-89172419D02*
X121751503Y-89220038D01*
X121751503Y-89220038D02*
X121703884Y-89791466D01*
X121703884Y-89791466D02*
X121703884Y-89172419D01*
X122180074Y-90077180D02*
X122227693Y-90124800D01*
X122227693Y-90124800D02*
X122180074Y-90172419D01*
X122180074Y-90172419D02*
X122132455Y-90124800D01*
X122132455Y-90124800D02*
X122180074Y-90077180D01*
X122180074Y-90077180D02*
X122180074Y-90172419D01*
X122180074Y-89791466D02*
X122132455Y-89220038D01*
X122132455Y-89220038D02*
X122180074Y-89172419D01*
X122180074Y-89172419D02*
X122227693Y-89220038D01*
X122227693Y-89220038D02*
X122180074Y-89791466D01*
X122180074Y-89791466D02*
X122180074Y-89172419D01*
X127229430Y-99255752D02*
X126467525Y-99541466D01*
X126467525Y-99541466D02*
X127229430Y-99827180D01*
X126653884Y-100177180D02*
X126701503Y-100224800D01*
X126701503Y-100224800D02*
X126653884Y-100272419D01*
X126653884Y-100272419D02*
X126606265Y-100224800D01*
X126606265Y-100224800D02*
X126653884Y-100177180D01*
X126653884Y-100177180D02*
X126653884Y-100272419D01*
X128151503Y-98224800D02*
X128151503Y-98272419D01*
X128151503Y-98272419D02*
X128103884Y-98367657D01*
X128103884Y-98367657D02*
X128056265Y-98415276D01*
X117705752Y-126841353D02*
X118372419Y-126603258D01*
X118372419Y-126603258D02*
X117705752Y-126365163D01*
X129722419Y-85203258D02*
X129674800Y-85298496D01*
X129674800Y-85298496D02*
X129627180Y-85346115D01*
X129627180Y-85346115D02*
X129531942Y-85393734D01*
X129531942Y-85393734D02*
X129246228Y-85393734D01*
X129246228Y-85393734D02*
X129150990Y-85346115D01*
X129150990Y-85346115D02*
X129103371Y-85298496D01*
X129103371Y-85298496D02*
X129055752Y-85203258D01*
X129055752Y-85203258D02*
X129055752Y-85060401D01*
X129055752Y-85060401D02*
X129103371Y-84965163D01*
X129103371Y-84965163D02*
X129150990Y-84917544D01*
X129150990Y-84917544D02*
X129246228Y-84869925D01*
X129246228Y-84869925D02*
X129531942Y-84869925D01*
X129531942Y-84869925D02*
X129627180Y-84917544D01*
X129627180Y-84917544D02*
X129674800Y-84965163D01*
X129674800Y-84965163D02*
X129722419Y-85060401D01*
X129722419Y-85060401D02*
X129722419Y-85203258D01*
X129055752Y-84441353D02*
X129722419Y-84441353D01*
X129150990Y-84441353D02*
X129103371Y-84393734D01*
X129103371Y-84393734D02*
X129055752Y-84298496D01*
X129055752Y-84298496D02*
X129055752Y-84155639D01*
X129055752Y-84155639D02*
X129103371Y-84060401D01*
X129103371Y-84060401D02*
X129198609Y-84012782D01*
X129198609Y-84012782D02*
X129722419Y-84012782D01*
X129722419Y-83393734D02*
X129674800Y-83488972D01*
X129674800Y-83488972D02*
X129579561Y-83536591D01*
X129579561Y-83536591D02*
X128722419Y-83536591D01*
X129055752Y-83108019D02*
X129722419Y-82869924D01*
X129055752Y-82631829D02*
X129722419Y-82869924D01*
X129722419Y-82869924D02*
X129960514Y-82965162D01*
X129960514Y-82965162D02*
X130008133Y-83012781D01*
X130008133Y-83012781D02*
X130055752Y-83108019D01*
X129055752Y-82393733D02*
X129055752Y-82012781D01*
X128722419Y-82250876D02*
X129579561Y-82250876D01*
X129579561Y-82250876D02*
X129674800Y-82203257D01*
X129674800Y-82203257D02*
X129722419Y-82108019D01*
X129722419Y-82108019D02*
X129722419Y-82012781D01*
X129722419Y-81679447D02*
X128722419Y-81679447D01*
X129722419Y-81250876D02*
X129198609Y-81250876D01*
X129198609Y-81250876D02*
X129103371Y-81298495D01*
X129103371Y-81298495D02*
X129055752Y-81393733D01*
X129055752Y-81393733D02*
X129055752Y-81536590D01*
X129055752Y-81536590D02*
X129103371Y-81631828D01*
X129103371Y-81631828D02*
X129150990Y-81679447D01*
X128722419Y-80869923D02*
X128722419Y-80250876D01*
X128722419Y-80250876D02*
X129103371Y-80584209D01*
X129103371Y-80584209D02*
X129103371Y-80441352D01*
X129103371Y-80441352D02*
X129150990Y-80346114D01*
X129150990Y-80346114D02*
X129198609Y-80298495D01*
X129198609Y-80298495D02*
X129293847Y-80250876D01*
X129293847Y-80250876D02*
X129531942Y-80250876D01*
X129531942Y-80250876D02*
X129627180Y-80298495D01*
X129627180Y-80298495D02*
X129674800Y-80346114D01*
X129674800Y-80346114D02*
X129722419Y-80441352D01*
X129722419Y-80441352D02*
X129722419Y-80727066D01*
X129722419Y-80727066D02*
X129674800Y-80822304D01*
X129674800Y-80822304D02*
X129627180Y-80869923D01*
X129722419Y-79822304D02*
X128722419Y-79822304D01*
X129103371Y-79822304D02*
X129055752Y-79727066D01*
X129055752Y-79727066D02*
X129055752Y-79536590D01*
X129055752Y-79536590D02*
X129103371Y-79441352D01*
X129103371Y-79441352D02*
X129150990Y-79393733D01*
X129150990Y-79393733D02*
X129246228Y-79346114D01*
X129246228Y-79346114D02*
X129531942Y-79346114D01*
X129531942Y-79346114D02*
X129627180Y-79393733D01*
X129627180Y-79393733D02*
X129674800Y-79441352D01*
X129674800Y-79441352D02*
X129722419Y-79536590D01*
X129722419Y-79536590D02*
X129722419Y-79727066D01*
X129722419Y-79727066D02*
X129674800Y-79822304D01*
X129674800Y-78536590D02*
X129722419Y-78631828D01*
X129722419Y-78631828D02*
X129722419Y-78822304D01*
X129722419Y-78822304D02*
X129674800Y-78917542D01*
X129674800Y-78917542D02*
X129579561Y-78965161D01*
X129579561Y-78965161D02*
X129198609Y-78965161D01*
X129198609Y-78965161D02*
X129103371Y-78917542D01*
X129103371Y-78917542D02*
X129055752Y-78822304D01*
X129055752Y-78822304D02*
X129055752Y-78631828D01*
X129055752Y-78631828D02*
X129103371Y-78536590D01*
X129103371Y-78536590D02*
X129198609Y-78488971D01*
X129198609Y-78488971D02*
X129293847Y-78488971D01*
X129293847Y-78488971D02*
X129389085Y-78965161D01*
X129674800Y-78108018D02*
X129722419Y-78012780D01*
X129722419Y-78012780D02*
X129722419Y-77822304D01*
X129722419Y-77822304D02*
X129674800Y-77727066D01*
X129674800Y-77727066D02*
X129579561Y-77679447D01*
X129579561Y-77679447D02*
X129531942Y-77679447D01*
X129531942Y-77679447D02*
X129436704Y-77727066D01*
X129436704Y-77727066D02*
X129389085Y-77822304D01*
X129389085Y-77822304D02*
X129389085Y-77965161D01*
X129389085Y-77965161D02*
X129341466Y-78060399D01*
X129341466Y-78060399D02*
X129246228Y-78108018D01*
X129246228Y-78108018D02*
X129198609Y-78108018D01*
X129198609Y-78108018D02*
X129103371Y-78060399D01*
X129103371Y-78060399D02*
X129055752Y-77965161D01*
X129055752Y-77965161D02*
X129055752Y-77822304D01*
X129055752Y-77822304D02*
X129103371Y-77727066D01*
X129055752Y-77393732D02*
X129055752Y-77012780D01*
X128722419Y-77250875D02*
X129579561Y-77250875D01*
X129579561Y-77250875D02*
X129674800Y-77203256D01*
X129674800Y-77203256D02*
X129722419Y-77108018D01*
X129722419Y-77108018D02*
X129722419Y-77012780D01*
X117691353Y-126344247D02*
X117453258Y-125677580D01*
X117453258Y-125677580D02*
X117215163Y-126344247D01*
X127784211Y-99844247D02*
X128546115Y-99558533D01*
X128546115Y-99558533D02*
X127784211Y-99272819D01*
X116125200Y-112951503D02*
X116077580Y-112951503D01*
X116077580Y-112951503D02*
X115982342Y-112903884D01*
X115982342Y-112903884D02*
X115934723Y-112856265D01*
X116696628Y-112903884D02*
X116649009Y-112951503D01*
X116649009Y-112951503D02*
X116601390Y-112903884D01*
X116601390Y-112903884D02*
X116649009Y-112856265D01*
X116649009Y-112856265D02*
X116696628Y-112903884D01*
X116696628Y-112903884D02*
X116601390Y-112903884D01*
X116077580Y-113380074D02*
X117077580Y-113380074D01*
X117077580Y-113380074D02*
X117077580Y-113618169D01*
X117077580Y-113618169D02*
X117029961Y-113761026D01*
X117029961Y-113761026D02*
X116934723Y-113856264D01*
X116934723Y-113856264D02*
X116839485Y-113903883D01*
X116839485Y-113903883D02*
X116649009Y-113951502D01*
X116649009Y-113951502D02*
X116506152Y-113951502D01*
X116506152Y-113951502D02*
X116315676Y-113903883D01*
X116315676Y-113903883D02*
X116220438Y-113856264D01*
X116220438Y-113856264D02*
X116125200Y-113761026D01*
X116125200Y-113761026D02*
X116077580Y-113618169D01*
X116077580Y-113618169D02*
X116077580Y-113380074D01*
X117194247Y-126358646D02*
X116527580Y-126596741D01*
X116527580Y-126596741D02*
X117194247Y-126834836D01*
X119625200Y-126568169D02*
X118339485Y-125711027D01*
X119672819Y-126568169D02*
X118387104Y-127425312D01*
X127794247Y-99265789D02*
X127508533Y-98503884D01*
X127508533Y-98503884D02*
X127222819Y-99265789D01*
X127794247Y-99853884D02*
X127508533Y-100615789D01*
X127508533Y-100615789D02*
X127222819Y-99853884D01*
X128627580Y-100506265D02*
X128437104Y-100506265D01*
X128627580Y-100887217D02*
X128437104Y-100887217D01*
D11*
X115322200Y-126598935D02*
X116607914Y-127456077D01*
X115274580Y-126598935D02*
X116560295Y-125741792D01*
X117498935Y-128727800D02*
X118356077Y-127442085D01*
X117498935Y-128775419D02*
X116641792Y-127489704D01*
X117734819Y-91616666D02*
X117258628Y-91949999D01*
X117734819Y-92188094D02*
X116734819Y-92188094D01*
X116734819Y-92188094D02*
X116734819Y-91807142D01*
X116734819Y-91807142D02*
X116782438Y-91711904D01*
X116782438Y-91711904D02*
X116830057Y-91664285D01*
X116830057Y-91664285D02*
X116925295Y-91616666D01*
X116925295Y-91616666D02*
X117068152Y-91616666D01*
X117068152Y-91616666D02*
X117163390Y-91664285D01*
X117163390Y-91664285D02*
X117211009Y-91711904D01*
X117211009Y-91711904D02*
X117258628Y-91807142D01*
X117258628Y-91807142D02*
X117258628Y-92188094D01*
X116734819Y-91283332D02*
X116734819Y-90616666D01*
X116734819Y-90616666D02*
X117734819Y-91045237D01*
X120138095Y-82254819D02*
X120138095Y-83064342D01*
X120138095Y-83064342D02*
X120185714Y-83159580D01*
X120185714Y-83159580D02*
X120233333Y-83207200D01*
X120233333Y-83207200D02*
X120328571Y-83254819D01*
X120328571Y-83254819D02*
X120519047Y-83254819D01*
X120519047Y-83254819D02*
X120614285Y-83207200D01*
X120614285Y-83207200D02*
X120661904Y-83159580D01*
X120661904Y-83159580D02*
X120709523Y-83064342D01*
X120709523Y-83064342D02*
X120709523Y-82254819D01*
X121614285Y-82588152D02*
X121614285Y-83254819D01*
X121376190Y-82207200D02*
X121138095Y-82921485D01*
X121138095Y-82921485D02*
X121757142Y-82921485D01*
X120124819Y-89626666D02*
X119648628Y-89959999D01*
X120124819Y-90198094D02*
X119124819Y-90198094D01*
X119124819Y-90198094D02*
X119124819Y-89817142D01*
X119124819Y-89817142D02*
X119172438Y-89721904D01*
X119172438Y-89721904D02*
X119220057Y-89674285D01*
X119220057Y-89674285D02*
X119315295Y-89626666D01*
X119315295Y-89626666D02*
X119458152Y-89626666D01*
X119458152Y-89626666D02*
X119553390Y-89674285D01*
X119553390Y-89674285D02*
X119601009Y-89721904D01*
X119601009Y-89721904D02*
X119648628Y-89817142D01*
X119648628Y-89817142D02*
X119648628Y-90198094D01*
X119124819Y-88769523D02*
X119124819Y-88959999D01*
X119124819Y-88959999D02*
X119172438Y-89055237D01*
X119172438Y-89055237D02*
X119220057Y-89102856D01*
X119220057Y-89102856D02*
X119362914Y-89198094D01*
X119362914Y-89198094D02*
X119553390Y-89245713D01*
X119553390Y-89245713D02*
X119934342Y-89245713D01*
X119934342Y-89245713D02*
X120029580Y-89198094D01*
X120029580Y-89198094D02*
X120077200Y-89150475D01*
X120077200Y-89150475D02*
X120124819Y-89055237D01*
X120124819Y-89055237D02*
X120124819Y-88864761D01*
X120124819Y-88864761D02*
X120077200Y-88769523D01*
X120077200Y-88769523D02*
X120029580Y-88721904D01*
X120029580Y-88721904D02*
X119934342Y-88674285D01*
X119934342Y-88674285D02*
X119696247Y-88674285D01*
X119696247Y-88674285D02*
X119601009Y-88721904D01*
X119601009Y-88721904D02*
X119553390Y-88769523D01*
X119553390Y-88769523D02*
X119505771Y-88864761D01*
X119505771Y-88864761D02*
X119505771Y-89055237D01*
X119505771Y-89055237D02*
X119553390Y-89150475D01*
X119553390Y-89150475D02*
X119601009Y-89198094D01*
X119601009Y-89198094D02*
X119696247Y-89245713D01*
X123166666Y-83339819D02*
X123166666Y-84054104D01*
X123166666Y-84054104D02*
X123119047Y-84196961D01*
X123119047Y-84196961D02*
X123023809Y-84292200D01*
X123023809Y-84292200D02*
X122880952Y-84339819D01*
X122880952Y-84339819D02*
X122785714Y-84339819D01*
X124166666Y-84339819D02*
X123595238Y-84339819D01*
X123880952Y-84339819D02*
X123880952Y-83339819D01*
X123880952Y-83339819D02*
X123785714Y-83482676D01*
X123785714Y-83482676D02*
X123690476Y-83577914D01*
X123690476Y-83577914D02*
X123595238Y-83625533D01*
X119224819Y-82316666D02*
X118748628Y-82649999D01*
X119224819Y-82888094D02*
X118224819Y-82888094D01*
X118224819Y-82888094D02*
X118224819Y-82507142D01*
X118224819Y-82507142D02*
X118272438Y-82411904D01*
X118272438Y-82411904D02*
X118320057Y-82364285D01*
X118320057Y-82364285D02*
X118415295Y-82316666D01*
X118415295Y-82316666D02*
X118558152Y-82316666D01*
X118558152Y-82316666D02*
X118653390Y-82364285D01*
X118653390Y-82364285D02*
X118701009Y-82411904D01*
X118701009Y-82411904D02*
X118748628Y-82507142D01*
X118748628Y-82507142D02*
X118748628Y-82888094D01*
X118320057Y-81935713D02*
X118272438Y-81888094D01*
X118272438Y-81888094D02*
X118224819Y-81792856D01*
X118224819Y-81792856D02*
X118224819Y-81554761D01*
X118224819Y-81554761D02*
X118272438Y-81459523D01*
X118272438Y-81459523D02*
X118320057Y-81411904D01*
X118320057Y-81411904D02*
X118415295Y-81364285D01*
X118415295Y-81364285D02*
X118510533Y-81364285D01*
X118510533Y-81364285D02*
X118653390Y-81411904D01*
X118653390Y-81411904D02*
X119224819Y-81983332D01*
X119224819Y-81983332D02*
X119224819Y-81364285D01*
X124243333Y-94034819D02*
X123910000Y-93558628D01*
X123671905Y-94034819D02*
X123671905Y-93034819D01*
X123671905Y-93034819D02*
X124052857Y-93034819D01*
X124052857Y-93034819D02*
X124148095Y-93082438D01*
X124148095Y-93082438D02*
X124195714Y-93130057D01*
X124195714Y-93130057D02*
X124243333Y-93225295D01*
X124243333Y-93225295D02*
X124243333Y-93368152D01*
X124243333Y-93368152D02*
X124195714Y-93463390D01*
X124195714Y-93463390D02*
X124148095Y-93511009D01*
X124148095Y-93511009D02*
X124052857Y-93558628D01*
X124052857Y-93558628D02*
X123671905Y-93558628D01*
X124576667Y-93034819D02*
X125195714Y-93034819D01*
X125195714Y-93034819D02*
X124862381Y-93415771D01*
X124862381Y-93415771D02*
X125005238Y-93415771D01*
X125005238Y-93415771D02*
X125100476Y-93463390D01*
X125100476Y-93463390D02*
X125148095Y-93511009D01*
X125148095Y-93511009D02*
X125195714Y-93606247D01*
X125195714Y-93606247D02*
X125195714Y-93844342D01*
X125195714Y-93844342D02*
X125148095Y-93939580D01*
X125148095Y-93939580D02*
X125100476Y-93987200D01*
X125100476Y-93987200D02*
X125005238Y-94034819D01*
X125005238Y-94034819D02*
X124719524Y-94034819D01*
X124719524Y-94034819D02*
X124624286Y-93987200D01*
X124624286Y-93987200D02*
X124576667Y-93939580D01*
X123038095Y-87239819D02*
X123038095Y-88049342D01*
X123038095Y-88049342D02*
X123085714Y-88144580D01*
X123085714Y-88144580D02*
X123133333Y-88192200D01*
X123133333Y-88192200D02*
X123228571Y-88239819D01*
X123228571Y-88239819D02*
X123419047Y-88239819D01*
X123419047Y-88239819D02*
X123514285Y-88192200D01*
X123514285Y-88192200D02*
X123561904Y-88144580D01*
X123561904Y-88144580D02*
X123609523Y-88049342D01*
X123609523Y-88049342D02*
X123609523Y-87239819D01*
X123990476Y-87239819D02*
X124609523Y-87239819D01*
X124609523Y-87239819D02*
X124276190Y-87620771D01*
X124276190Y-87620771D02*
X124419047Y-87620771D01*
X124419047Y-87620771D02*
X124514285Y-87668390D01*
X124514285Y-87668390D02*
X124561904Y-87716009D01*
X124561904Y-87716009D02*
X124609523Y-87811247D01*
X124609523Y-87811247D02*
X124609523Y-88049342D01*
X124609523Y-88049342D02*
X124561904Y-88144580D01*
X124561904Y-88144580D02*
X124514285Y-88192200D01*
X124514285Y-88192200D02*
X124419047Y-88239819D01*
X124419047Y-88239819D02*
X124133333Y-88239819D01*
X124133333Y-88239819D02*
X124038095Y-88192200D01*
X124038095Y-88192200D02*
X123990476Y-88144580D01*
X123023333Y-95134819D02*
X122690000Y-94658628D01*
X122451905Y-95134819D02*
X122451905Y-94134819D01*
X122451905Y-94134819D02*
X122832857Y-94134819D01*
X122832857Y-94134819D02*
X122928095Y-94182438D01*
X122928095Y-94182438D02*
X122975714Y-94230057D01*
X122975714Y-94230057D02*
X123023333Y-94325295D01*
X123023333Y-94325295D02*
X123023333Y-94468152D01*
X123023333Y-94468152D02*
X122975714Y-94563390D01*
X122975714Y-94563390D02*
X122928095Y-94611009D01*
X122928095Y-94611009D02*
X122832857Y-94658628D01*
X122832857Y-94658628D02*
X122451905Y-94658628D01*
X123880476Y-94468152D02*
X123880476Y-95134819D01*
X123642381Y-94087200D02*
X123404286Y-94801485D01*
X123404286Y-94801485D02*
X124023333Y-94801485D01*
X123150595Y-106524819D02*
X123150595Y-107334342D01*
X123150595Y-107334342D02*
X123198214Y-107429580D01*
X123198214Y-107429580D02*
X123245833Y-107477200D01*
X123245833Y-107477200D02*
X123341071Y-107524819D01*
X123341071Y-107524819D02*
X123531547Y-107524819D01*
X123531547Y-107524819D02*
X123626785Y-107477200D01*
X123626785Y-107477200D02*
X123674404Y-107429580D01*
X123674404Y-107429580D02*
X123722023Y-107334342D01*
X123722023Y-107334342D02*
X123722023Y-106524819D01*
X124722023Y-107524819D02*
X124150595Y-107524819D01*
X124436309Y-107524819D02*
X124436309Y-106524819D01*
X124436309Y-106524819D02*
X124341071Y-106667676D01*
X124341071Y-106667676D02*
X124245833Y-106762914D01*
X124245833Y-106762914D02*
X124150595Y-106810533D01*
X118454819Y-128633333D02*
X119169104Y-128633333D01*
X119169104Y-128633333D02*
X119311961Y-128680952D01*
X119311961Y-128680952D02*
X119407200Y-128776190D01*
X119407200Y-128776190D02*
X119454819Y-128919047D01*
X119454819Y-128919047D02*
X119454819Y-129014285D01*
X118788152Y-127728571D02*
X119454819Y-127728571D01*
X118407200Y-127966666D02*
X119121485Y-128204761D01*
X119121485Y-128204761D02*
X119121485Y-127585714D01*
X132516666Y-74744819D02*
X132516666Y-75459104D01*
X132516666Y-75459104D02*
X132469047Y-75601961D01*
X132469047Y-75601961D02*
X132373809Y-75697200D01*
X132373809Y-75697200D02*
X132230952Y-75744819D01*
X132230952Y-75744819D02*
X132135714Y-75744819D01*
X132897619Y-74744819D02*
X133516666Y-74744819D01*
X133516666Y-74744819D02*
X133183333Y-75125771D01*
X133183333Y-75125771D02*
X133326190Y-75125771D01*
X133326190Y-75125771D02*
X133421428Y-75173390D01*
X133421428Y-75173390D02*
X133469047Y-75221009D01*
X133469047Y-75221009D02*
X133516666Y-75316247D01*
X133516666Y-75316247D02*
X133516666Y-75554342D01*
X133516666Y-75554342D02*
X133469047Y-75649580D01*
X133469047Y-75649580D02*
X133421428Y-75697200D01*
X133421428Y-75697200D02*
X133326190Y-75744819D01*
X133326190Y-75744819D02*
X133040476Y-75744819D01*
X133040476Y-75744819D02*
X132945238Y-75697200D01*
X132945238Y-75697200D02*
X132897619Y-75649580D01*
X113616666Y-74654819D02*
X113616666Y-75369104D01*
X113616666Y-75369104D02*
X113569047Y-75511961D01*
X113569047Y-75511961D02*
X113473809Y-75607200D01*
X113473809Y-75607200D02*
X113330952Y-75654819D01*
X113330952Y-75654819D02*
X113235714Y-75654819D01*
X114045238Y-74750057D02*
X114092857Y-74702438D01*
X114092857Y-74702438D02*
X114188095Y-74654819D01*
X114188095Y-74654819D02*
X114426190Y-74654819D01*
X114426190Y-74654819D02*
X114521428Y-74702438D01*
X114521428Y-74702438D02*
X114569047Y-74750057D01*
X114569047Y-74750057D02*
X114616666Y-74845295D01*
X114616666Y-74845295D02*
X114616666Y-74940533D01*
X114616666Y-74940533D02*
X114569047Y-75083390D01*
X114569047Y-75083390D02*
X113997619Y-75654819D01*
X113997619Y-75654819D02*
X114616666Y-75654819D01*
%TO.C,C12*%
D12*
X128610000Y-118312164D02*
X128610000Y-118527836D01*
X127890000Y-118312164D02*
X127890000Y-118527836D01*
%TO.C,C13*%
X116190000Y-82822164D02*
X116190000Y-83037836D01*
X116910000Y-82822164D02*
X116910000Y-83037836D01*
%TO.C,C16*%
X116560000Y-120507836D02*
X116560000Y-120292164D01*
X115840000Y-120507836D02*
X115840000Y-120292164D01*
%TO.C,R7*%
X118070000Y-91603641D02*
X118070000Y-91296359D01*
X118830000Y-91603641D02*
X118830000Y-91296359D01*
%TO.C,U4*%
X119100000Y-88210000D02*
X122700000Y-88210000D01*
X119061522Y-88198478D02*
G75*
G02*
X120900000Y-83759999I1838478J1838478D01*
G01*
X120900000Y-83760000D02*
G75*
G02*
X122738478Y-88198478I0J-2600000D01*
G01*
%TO.C,C10*%
X124740000Y-117542164D02*
X124740000Y-117757836D01*
X125460000Y-117542164D02*
X125460000Y-117757836D01*
%TO.C,C8*%
X127310000Y-86657836D02*
X127310000Y-86442164D01*
X126590000Y-86657836D02*
X126590000Y-86442164D01*
%TO.C,R6*%
X118120000Y-89306359D02*
X118120000Y-89613641D01*
X118880000Y-89306359D02*
X118880000Y-89613641D01*
%TO.C,C9*%
X130077836Y-86140000D02*
X129862164Y-86140000D01*
X130077836Y-86860000D02*
X129862164Y-86860000D01*
%TO.C,J1*%
X118800000Y-76240000D02*
X118800000Y-74340000D01*
X118800000Y-80140000D02*
X118800000Y-78140000D01*
X128200000Y-74340000D02*
X118800000Y-74340000D01*
X128200000Y-76240000D02*
X128200000Y-74340000D01*
X128200000Y-80140000D02*
X128200000Y-78140000D01*
%TO.C,R5*%
X120063641Y-115820000D02*
X119756359Y-115820000D01*
X120063641Y-116580000D02*
X119756359Y-116580000D01*
%TO.C,R2*%
X117220000Y-81996359D02*
X117220000Y-82303641D01*
X117980000Y-81996359D02*
X117980000Y-82303641D01*
%TO.C,R3*%
X124256359Y-94370000D02*
X124563641Y-94370000D01*
X124256359Y-95130000D02*
X124563641Y-95130000D01*
%TO.C,U3*%
X121040000Y-88625000D02*
X126560000Y-88625000D01*
X121040000Y-88895000D02*
X121040000Y-88625000D01*
X121040000Y-94145000D02*
X121040000Y-93875000D01*
X126560000Y-88625000D02*
X126560000Y-88895000D01*
X126560000Y-93875000D02*
X126560000Y-94145000D01*
X126560000Y-94145000D02*
X121040000Y-94145000D01*
X120210000Y-88885000D02*
X119870000Y-88415000D01*
X120550000Y-88415000D01*
X120210000Y-88885000D01*
G36*
X120210000Y-88885000D02*
G01*
X119870000Y-88415000D01*
X120550000Y-88415000D01*
X120210000Y-88885000D01*
G37*
%TO.C,C3*%
X117410000Y-85257836D02*
X117410000Y-85042164D01*
X116690000Y-85257836D02*
X116690000Y-85042164D01*
%TO.C,R4*%
X123036359Y-95470000D02*
X123343641Y-95470000D01*
X123036359Y-96230000D02*
X123343641Y-96230000D01*
%TO.C,C4*%
X130177836Y-84590000D02*
X129962164Y-84590000D01*
X130177836Y-85310000D02*
X129962164Y-85310000D01*
%TO.C,U1*%
X120302500Y-108290000D02*
X120952500Y-108290000D01*
X120302500Y-108940000D02*
X120302500Y-108290000D01*
X120302500Y-115510000D02*
X120302500Y-114860000D01*
X120952500Y-115510000D02*
X120302500Y-115510000D01*
X126872500Y-108290000D02*
X127522500Y-108290000D01*
X127522500Y-108290000D02*
X127522500Y-108940000D01*
X127522500Y-114860000D02*
X127522500Y-115510000D01*
X127522500Y-115510000D02*
X126872500Y-115510000D01*
X119772500Y-109300000D02*
X119442500Y-109540000D01*
X119442500Y-109060000D01*
X119772500Y-109300000D01*
G36*
X119772500Y-109300000D02*
G01*
X119442500Y-109540000D01*
X119442500Y-109060000D01*
X119772500Y-109300000D01*
G37*
%TO.C,C1*%
X123687836Y-116790000D02*
X123472164Y-116790000D01*
X123687836Y-117510000D02*
X123472164Y-117510000D01*
%TO.C,C6*%
X130810000Y-88907836D02*
X130810000Y-88692164D01*
X130090000Y-88907836D02*
X130090000Y-88692164D01*
%TO.C,C15*%
X117240000Y-118522164D02*
X117240000Y-118737836D01*
X117960000Y-118522164D02*
X117960000Y-118737836D01*
%TO.C,J4*%
X120130000Y-128880000D02*
X120130000Y-127500000D01*
X121510000Y-128880000D02*
X120130000Y-128880000D01*
X122780000Y-126120000D02*
X127970000Y-126120000D01*
X122780000Y-128880000D02*
X122780000Y-126120000D01*
X122780000Y-128880000D02*
X127970000Y-128880000D01*
X127970000Y-128880000D02*
X127970000Y-126120000D01*
%TO.C,C5*%
X117240000Y-116757836D02*
X117240000Y-116542164D01*
X117960000Y-116757836D02*
X117960000Y-116542164D01*
%TO.C,C11*%
X125840000Y-117572164D02*
X125840000Y-117787836D01*
X126560000Y-117572164D02*
X126560000Y-117787836D01*
%TO.C,SW1*%
X117680000Y-120680000D02*
X121820000Y-120680000D01*
X117680000Y-120980000D02*
X117680000Y-120680000D01*
X117680000Y-123820000D02*
X117680000Y-123520000D01*
X121820000Y-120680000D02*
X121820000Y-120980000D01*
X121820000Y-123520000D02*
X121820000Y-123820000D01*
X121820000Y-123820000D02*
X117680000Y-123820000D01*
%TO.C,J3*%
X131470000Y-76290000D02*
X132850000Y-76290000D01*
X131470000Y-77670000D02*
X131470000Y-76290000D01*
X131470000Y-78940000D02*
X131470000Y-127310000D01*
X131470000Y-78940000D02*
X134230000Y-78940000D01*
X131470000Y-127310000D02*
X134230000Y-127310000D01*
X134230000Y-78940000D02*
X134230000Y-127310000D01*
%TO.C,R1*%
X126163641Y-84170000D02*
X125856359Y-84170000D01*
X126163641Y-84930000D02*
X125856359Y-84930000D01*
%TO.C,Y1*%
X118190000Y-116840000D02*
X118190000Y-120260000D01*
X118190000Y-120260000D02*
X122310000Y-120260000D01*
%TO.C,J2*%
X112570000Y-76200000D02*
X113950000Y-76200000D01*
X112570000Y-77580000D02*
X112570000Y-76200000D01*
X112570000Y-78850000D02*
X112570000Y-127220000D01*
X112570000Y-78850000D02*
X115330000Y-78850000D01*
X112570000Y-127220000D02*
X115330000Y-127220000D01*
X115330000Y-78850000D02*
X115330000Y-127220000D01*
%TO.C,C7*%
X123977836Y-119040000D02*
X123762164Y-119040000D01*
X123977836Y-119760000D02*
X123762164Y-119760000D01*
%TO.C,C2*%
X123687836Y-117840000D02*
X123472164Y-117840000D01*
X123687836Y-118560000D02*
X123472164Y-118560000D01*
%TO.C,C14*%
X125487836Y-85290000D02*
X125272164Y-85290000D01*
X125487836Y-86010000D02*
X125272164Y-86010000D01*
%TD*%
M02*
