%TF.GenerationSoftware,KiCad,Pcbnew,10.0.1*%
%TF.CreationDate,2026-06-01T06:34:55+02:00*%
%TF.ProjectId,devboard,64657662-6f61-4726-942e-6b696361645f,rev?*%
%TF.SameCoordinates,Original*%
%TF.FileFunction,Copper,L1,Top*%
%TF.FilePolarity,Positive*%
%FSLAX46Y46*%
G04 Gerber Fmt 4.6, Leading zero omitted, Abs format (unit mm)*
G04 Created by KiCad (PCBNEW 10.0.1) date 2026-06-01 06:34:55*
%MOMM*%
%LPD*%
G01*
G04 APERTURE LIST*
G04 Aperture macros list*
%AMRoundRect*
0 Rectangle with rounded corners*
0 $1 Rounding radius*
0 $2 $3 $4 $5 $6 $7 $8 $9 X,Y pos of 4 corners*
0 Add a 4 corners polygon primitive as box body*
4,1,4,$2,$3,$4,$5,$6,$7,$8,$9,$2,$3,0*
0 Add four circle primitives for the rounded corners*
1,1,$1+$1,$2,$3*
1,1,$1+$1,$4,$5*
1,1,$1+$1,$6,$7*
1,1,$1+$1,$8,$9*
0 Add four rect primitives between the rounded corners*
20,1,$1+$1,$2,$3,$4,$5,0*
20,1,$1+$1,$4,$5,$6,$7,0*
20,1,$1+$1,$6,$7,$8,$9,0*
20,1,$1+$1,$8,$9,$2,$3,0*%
G04 Aperture macros list end*
%TA.AperFunction,SMDPad,CuDef*%
%ADD10RoundRect,0.140000X-0.170000X0.140000X-0.170000X-0.140000X0.170000X-0.140000X0.170000X0.140000X0*%
%TD*%
%TA.AperFunction,SMDPad,CuDef*%
%ADD11RoundRect,0.140000X0.170000X-0.140000X0.170000X0.140000X-0.170000X0.140000X-0.170000X-0.140000X0*%
%TD*%
%TA.AperFunction,SMDPad,CuDef*%
%ADD12RoundRect,0.135000X0.185000X-0.135000X0.185000X0.135000X-0.185000X0.135000X-0.185000X-0.135000X0*%
%TD*%
%TA.AperFunction,ComponentPad*%
%ADD13R,1.050000X1.500000*%
%TD*%
%TA.AperFunction,ComponentPad*%
%ADD14O,1.050000X1.500000*%
%TD*%
%TA.AperFunction,SMDPad,CuDef*%
%ADD15RoundRect,0.135000X-0.185000X0.135000X-0.185000X-0.135000X0.185000X-0.135000X0.185000X0.135000X0*%
%TD*%
%TA.AperFunction,SMDPad,CuDef*%
%ADD16RoundRect,0.140000X0.140000X0.170000X-0.140000X0.170000X-0.140000X-0.170000X0.140000X-0.170000X0*%
%TD*%
%TA.AperFunction,SMDPad,CuDef*%
%ADD17RoundRect,0.150000X0.150000X0.575000X-0.150000X0.575000X-0.150000X-0.575000X0.150000X-0.575000X0*%
%TD*%
%TA.AperFunction,SMDPad,CuDef*%
%ADD18RoundRect,0.075000X0.075000X0.650000X-0.075000X0.650000X-0.075000X-0.650000X0.075000X-0.650000X0*%
%TD*%
%TA.AperFunction,ComponentPad*%
%ADD19O,1.000000X2.100000*%
%TD*%
%TA.AperFunction,ComponentPad*%
%ADD20O,1.000000X1.600000*%
%TD*%
%TA.AperFunction,SMDPad,CuDef*%
%ADD21RoundRect,0.135000X0.135000X0.185000X-0.135000X0.185000X-0.135000X-0.185000X0.135000X-0.185000X0*%
%TD*%
%TA.AperFunction,SMDPad,CuDef*%
%ADD22RoundRect,0.135000X-0.135000X-0.185000X0.135000X-0.185000X0.135000X0.185000X-0.135000X0.185000X0*%
%TD*%
%TA.AperFunction,SMDPad,CuDef*%
%ADD23RoundRect,0.162500X-0.650000X-0.162500X0.650000X-0.162500X0.650000X0.162500X-0.650000X0.162500X0*%
%TD*%
%TA.AperFunction,SMDPad,CuDef*%
%ADD24RoundRect,0.050000X-0.387500X-0.050000X0.387500X-0.050000X0.387500X0.050000X-0.387500X0.050000X0*%
%TD*%
%TA.AperFunction,SMDPad,CuDef*%
%ADD25RoundRect,0.050000X-0.050000X-0.387500X0.050000X-0.387500X0.050000X0.387500X-0.050000X0.387500X0*%
%TD*%
%TA.AperFunction,HeatsinkPad*%
%ADD26R,3.200000X3.200000*%
%TD*%
%TA.AperFunction,ComponentPad*%
%ADD27R,1.700000X1.700000*%
%TD*%
%TA.AperFunction,ComponentPad*%
%ADD28C,1.700000*%
%TD*%
%TA.AperFunction,SMDPad,CuDef*%
%ADD29RoundRect,0.200000X-0.200000X-0.800000X0.200000X-0.800000X0.200000X0.800000X-0.200000X0.800000X0*%
%TD*%
%TA.AperFunction,SMDPad,CuDef*%
%ADD30RoundRect,0.250000X-0.450000X-0.350000X0.450000X-0.350000X0.450000X0.350000X-0.450000X0.350000X0*%
%TD*%
%TA.AperFunction,ViaPad*%
%ADD31C,0.600000*%
%TD*%
%TA.AperFunction,Conductor*%
%ADD32C,0.200000*%
%TD*%
G04 APERTURE END LIST*
D10*
%TO.P,C12,2*%
%TO.N,GND*%
X128250000Y-118900000D03*
%TO.P,C12,1*%
%TO.N,+1V1*%
X128250000Y-117940000D03*
%TD*%
%TO.P,C13,2*%
%TO.N,VBUS*%
X116550000Y-83410000D03*
%TO.P,C13,1*%
%TO.N,GND*%
X116550000Y-82450000D03*
%TD*%
D11*
%TO.P,C16,1*%
%TO.N,GND*%
X116200000Y-120880000D03*
%TO.P,C16,2*%
%TO.N,Net-(C16-Pad2)*%
X116200000Y-119920000D03*
%TD*%
D12*
%TO.P,R7,1*%
%TO.N,Net-(R7-Pad1)*%
X118450000Y-91960000D03*
%TO.P,R7,2*%
%TO.N,QSPI_SCLK*%
X118450000Y-90940000D03*
%TD*%
D13*
%TO.P,U4,1,GND_1*%
%TO.N,GND*%
X119630000Y-86360000D03*
D14*
%TO.P,U4,2,VI_2*%
%TO.N,VBUS*%
X120900000Y-86360000D03*
%TO.P,U4,3,VO_3*%
%TO.N,+3V3*%
X122170000Y-86360000D03*
%TD*%
D10*
%TO.P,C10,1*%
%TO.N,+1V1*%
X125100000Y-117170000D03*
%TO.P,C10,2*%
%TO.N,GND*%
X125100000Y-118130000D03*
%TD*%
D11*
%TO.P,C8,1*%
%TO.N,+3V3*%
X126950000Y-87030000D03*
%TO.P,C8,2*%
%TO.N,GND*%
X126950000Y-86070000D03*
%TD*%
D15*
%TO.P,R6,1*%
%TO.N,+3V3*%
X118500000Y-88950000D03*
%TO.P,R6,2*%
%TO.N,QSPI_SCLK*%
X118500000Y-89970000D03*
%TD*%
D16*
%TO.P,C9,1*%
%TO.N,+3V3*%
X130450000Y-86500000D03*
%TO.P,C9,2*%
%TO.N,GND*%
X129490000Y-86500000D03*
%TD*%
D17*
%TO.P,J1,A1,GND_A1*%
%TO.N,GND*%
X126750000Y-82285000D03*
%TO.P,J1,A4,VBUS_A4*%
%TO.N,VBUS*%
X125950000Y-82285000D03*
D18*
%TO.P,J1,A5,CC1_A5*%
%TO.N,Net-(J1-CC1)*%
X124750000Y-82285000D03*
%TO.P,J1,A6,D+_A6*%
%TO.N,USB_D+*%
X123750000Y-82285000D03*
%TO.P,J1,A7,D-_A7*%
%TO.N,USB_D-*%
X123250000Y-82285000D03*
%TO.P,J1,A8,SBU1_A8*%
%TO.N,unconnected-(J1-SBU1-PadA8)*%
X122250000Y-82285000D03*
D17*
%TO.P,J1,A9,VBUS_A9*%
%TO.N,VBUS*%
X121050000Y-82285000D03*
%TO.P,J1,A12,GND_A12*%
%TO.N,GND*%
X120250000Y-82285000D03*
%TO.P,J1,B1,GND_B1*%
X120250000Y-82285000D03*
%TO.P,J1,B4,VBUS_B4*%
%TO.N,VBUS*%
X121050000Y-82285000D03*
D18*
%TO.P,J1,B5,CC2_B5*%
%TO.N,Net-(J1-CC2)*%
X121750000Y-82285000D03*
%TO.P,J1,B6,D+_B6*%
%TO.N,USB_D+*%
X122750000Y-82285000D03*
%TO.P,J1,B7,D-_B7*%
%TO.N,USB_D-*%
X124250000Y-82285000D03*
%TO.P,J1,B8,SBU2_B8*%
%TO.N,unconnected-(J1-SBU2-PadB8)*%
X125250000Y-82285000D03*
D17*
%TO.P,J1,B9,VBUS_B9*%
%TO.N,VBUS*%
X125950000Y-82285000D03*
%TO.P,J1,B12,GND_B12*%
%TO.N,GND*%
X126750000Y-82285000D03*
D19*
%TO.P,J1,SH,SHIELD_SH*%
X127820000Y-81370000D03*
D20*
X127820000Y-77190000D03*
D19*
X119180000Y-81370000D03*
D20*
X119180000Y-77190000D03*
%TD*%
D21*
%TO.P,R5,1*%
%TO.N,XOUT*%
X120420000Y-116200000D03*
%TO.P,R5,2*%
%TO.N,Net-(C16-Pad2)*%
X119400000Y-116200000D03*
%TD*%
D15*
%TO.P,R2,1*%
%TO.N,GND*%
X117600000Y-81640000D03*
%TO.P,R2,2*%
%TO.N,Net-(J1-CC2)*%
X117600000Y-82660000D03*
%TD*%
D22*
%TO.P,R3,1*%
%TO.N,USB_D-*%
X123900000Y-94750000D03*
%TO.P,R3,2*%
%TO.N,Net-(U1-USB_DM)*%
X124920000Y-94750000D03*
%TD*%
D23*
%TO.P,U3,1,~{CS}_1*%
%TO.N,QSPI_SCLK*%
X120212500Y-89480000D03*
%TO.P,U3,2,DO/IO_{1}_2*%
%TO.N,QSPI_SD1*%
X120212500Y-90750000D03*
%TO.P,U3,3,~{WP}/IO_{2}_3*%
%TO.N,QSPI_SD2*%
X120212500Y-92020000D03*
%TO.P,U3,4,GND_4*%
%TO.N,GND*%
X120212500Y-93290000D03*
%TO.P,U3,5,DI/IO_{0}_5*%
%TO.N,QSPI_SD0*%
X127387500Y-93290000D03*
%TO.P,U3,6,CLK_6*%
%TO.N,QSPI_SS*%
X127387500Y-92020000D03*
%TO.P,U3,7,~{HOLD}/~{RESET}/IO_{3}_7*%
%TO.N,QSPI_SD3*%
X127387500Y-90750000D03*
%TO.P,U3,8,VCC_8*%
%TO.N,+3V3*%
X127387500Y-89480000D03*
%TD*%
D11*
%TO.P,C3,1*%
%TO.N,+3V3*%
X117050000Y-85630000D03*
%TO.P,C3,2*%
%TO.N,GND*%
X117050000Y-84670000D03*
%TD*%
D22*
%TO.P,R4,1*%
%TO.N,USB_D+*%
X122680000Y-95850000D03*
%TO.P,R4,2*%
%TO.N,Net-(U1-USB_DP)*%
X123700000Y-95850000D03*
%TD*%
D16*
%TO.P,C4,1*%
%TO.N,+3V3*%
X130550000Y-84950000D03*
%TO.P,C4,2*%
%TO.N,GND*%
X129590000Y-84950000D03*
%TD*%
D24*
%TO.P,U1,1,IOVDD_1*%
%TO.N,+3V3*%
X120475000Y-109300000D03*
%TO.P,U1,2,GPIO0_2*%
%TO.N,GPIO_0*%
X120475000Y-109700000D03*
%TO.P,U1,3,GPIO1_3*%
%TO.N,GPIO_1*%
X120475000Y-110100000D03*
%TO.P,U1,4,GPIO2_4*%
%TO.N,GPIO_2*%
X120475000Y-110500000D03*
%TO.P,U1,5,GPIO3_5*%
%TO.N,GPIO_3*%
X120475000Y-110900000D03*
%TO.P,U1,6,GPIO4_6*%
%TO.N,GPIO_4*%
X120475000Y-111300000D03*
%TO.P,U1,7,GPIO5_7*%
%TO.N,GPIO_5*%
X120475000Y-111700000D03*
%TO.P,U1,8,GPIO6_8*%
%TO.N,GPIO_6*%
X120475000Y-112100000D03*
%TO.P,U1,9,GPIO7_9*%
%TO.N,GPIO_7*%
X120475000Y-112500000D03*
%TO.P,U1,10,IOVDD_10*%
%TO.N,+3V3*%
X120475000Y-112900000D03*
%TO.P,U1,11,GPIO8_11*%
%TO.N,GPIO_8*%
X120475000Y-113300000D03*
%TO.P,U1,12,GPIO9_12*%
%TO.N,GPIO_13*%
X120475000Y-113700000D03*
%TO.P,U1,13,GPIO10_13*%
%TO.N,GPIO_10*%
X120475000Y-114100000D03*
%TO.P,U1,14,GPIO11_14*%
%TO.N,GPIO_11*%
X120475000Y-114500000D03*
D25*
%TO.P,U1,15,GPIO12_15*%
%TO.N,GPIO_12*%
X121312500Y-115337500D03*
%TO.P,U1,16,GPIO13_16*%
%TO.N,GPIO_13*%
X121712500Y-115337500D03*
%TO.P,U1,17,GPIO14_17*%
X122112500Y-115337500D03*
%TO.P,U1,18,GPIO15_18*%
X122512500Y-115337500D03*
%TO.P,U1,19,TESTEN_19*%
%TO.N,GND*%
X122912500Y-115337500D03*
%TO.P,U1,20,XIN_20*%
%TO.N,XIN*%
X123312500Y-115337500D03*
%TO.P,U1,21,XOUT_21*%
%TO.N,XOUT*%
X123712500Y-115337500D03*
%TO.P,U1,22,IOVDD_22*%
%TO.N,+3V3*%
X124112500Y-115337500D03*
%TO.P,U1,23,DVDD_23*%
%TO.N,+1V1*%
X124512500Y-115337500D03*
%TO.P,U1,24,SWCLK_24*%
%TO.N,SWCLK*%
X124912500Y-115337500D03*
%TO.P,U1,25,SWDIO_25*%
%TO.N,SWD*%
X125312500Y-115337500D03*
%TO.P,U1,26,RUN_26*%
%TO.N,RUN*%
X125712500Y-115337500D03*
%TO.P,U1,27,GPIO16_27*%
%TO.N,GPIO_16*%
X126112500Y-115337500D03*
%TO.P,U1,28,GPIO17_28*%
%TO.N,GPIO_17*%
X126512500Y-115337500D03*
D24*
%TO.P,U1,29,GPIO18_29*%
%TO.N,GPIO_18*%
X127350000Y-114500000D03*
%TO.P,U1,30,GPIO19_30*%
%TO.N,GPIO_19*%
X127350000Y-114100000D03*
%TO.P,U1,31,GPIO20_31*%
%TO.N,GPIO_20*%
X127350000Y-113700000D03*
%TO.P,U1,32,GPIO21_32*%
%TO.N,GPIO_21*%
X127350000Y-113300000D03*
%TO.P,U1,33,IOVDD_33*%
%TO.N,+3V3*%
X127350000Y-112900000D03*
%TO.P,U1,34,GPIO22_34*%
%TO.N,GPIO_22*%
X127350000Y-112500000D03*
%TO.P,U1,35,GPIO23_35*%
%TO.N,GPIO_23*%
X127350000Y-112100000D03*
%TO.P,U1,36,GPIO24_36*%
%TO.N,GPIO_24*%
X127350000Y-111700000D03*
%TO.P,U1,37,GPIO25_37*%
%TO.N,unconnected-(U1-GPIO25-Pad37)*%
X127350000Y-111300000D03*
%TO.P,U1,38,GPIO26/ADC0_38*%
%TO.N,GPIO_26{slash}ADC_0*%
X127350000Y-110900000D03*
%TO.P,U1,39,GPIO27/ADC1_39*%
%TO.N,GPIO_27{slash}ADC_1*%
X127350000Y-110500000D03*
%TO.P,U1,40,GPIO28/ADC2_40*%
%TO.N,GPIO_28{slash}ADC_2*%
X127350000Y-110100000D03*
%TO.P,U1,41,GPIO29/ADC3_41*%
%TO.N,GPIO_29{slash}ADC_3*%
X127350000Y-109700000D03*
%TO.P,U1,42,IOVDD_42*%
%TO.N,+3V3*%
X127350000Y-109300000D03*
D25*
%TO.P,U1,43,ADC_AVDD_43*%
X126512500Y-108462500D03*
%TO.P,U1,44,VREG_VIN_44*%
X126112500Y-108462500D03*
%TO.P,U1,45,VREG_VOUT_45*%
%TO.N,+1V1*%
X125712500Y-108462500D03*
%TO.P,U1,46,USB_DM_46*%
%TO.N,Net-(U1-USB_DM)*%
X125312500Y-108462500D03*
%TO.P,U1,47,USB_DP_47*%
%TO.N,Net-(U1-USB_DP)*%
X124912500Y-108462500D03*
%TO.P,U1,48,USB_VDD_48*%
%TO.N,+3V3*%
X124512500Y-108462500D03*
%TO.P,U1,49,IOVDD_49*%
X124112500Y-108462500D03*
%TO.P,U1,50,DVDD_50*%
%TO.N,+1V1*%
X123712500Y-108462500D03*
%TO.P,U1,51,QSPI_SD3_51*%
%TO.N,QSPI_SD3*%
X123312500Y-108462500D03*
%TO.P,U1,52,QSPI_SCLK_52*%
%TO.N,QSPI_SCLK*%
X122912500Y-108462500D03*
%TO.P,U1,53,QSPI_SD0_53*%
%TO.N,QSPI_SD0*%
X122512500Y-108462500D03*
%TO.P,U1,54,QSPI_SD2_54*%
%TO.N,QSPI_SD2*%
X122112500Y-108462500D03*
%TO.P,U1,55,QSPI_SD1_55*%
%TO.N,QSPI_SD1*%
X121712500Y-108462500D03*
%TO.P,U1,56,~{QSPI_SS}_56*%
%TO.N,QSPI_SS*%
X121312500Y-108462500D03*
D26*
%TO.P,U1,57,GND_57*%
%TO.N,GND*%
X123912500Y-111900000D03*
%TD*%
D16*
%TO.P,C1,1*%
%TO.N,+3V3*%
X124060000Y-117150000D03*
%TO.P,C1,2*%
%TO.N,GND*%
X123100000Y-117150000D03*
%TD*%
D11*
%TO.P,C6,1*%
%TO.N,+3V3*%
X130450000Y-89280000D03*
%TO.P,C6,2*%
%TO.N,GND*%
X130450000Y-88320000D03*
%TD*%
D10*
%TO.P,C15,1*%
%TO.N,GND*%
X117600000Y-118150000D03*
%TO.P,C15,2*%
%TO.N,XIN*%
X117600000Y-119110000D03*
%TD*%
D27*
%TO.P,J4,1,Pin_1_1*%
%TO.N,unconnected-(J4-Pin_1-Pad1)*%
X121510000Y-127500000D03*
D28*
%TO.P,J4,2,Pin_2_2*%
%TO.N,GND*%
X124050000Y-127500000D03*
%TO.P,J4,3,Pin_3_3*%
%TO.N,SWCLK*%
X126590000Y-127500000D03*
%TD*%
D11*
%TO.P,C5,1*%
%TO.N,+3V3*%
X117600000Y-117130000D03*
%TO.P,C5,2*%
%TO.N,GND*%
X117600000Y-116170000D03*
%TD*%
D10*
%TO.P,C11,1*%
%TO.N,+1V1*%
X126200000Y-117200000D03*
%TO.P,C11,2*%
%TO.N,GND*%
X126200000Y-118160000D03*
%TD*%
D29*
%TO.P,SW1,1,1_1*%
%TO.N,GND*%
X117650000Y-122250000D03*
%TO.P,SW1,2,2_2*%
%TO.N,Net-(R7-Pad1)*%
X121850000Y-122250000D03*
%TD*%
D27*
%TO.P,J3,1,Pin_1_1*%
%TO.N,VBUS*%
X132850000Y-77670000D03*
D28*
%TO.P,J3,2,Pin_2_2*%
%TO.N,GPIO_29{slash}ADC_3*%
X132850000Y-80210000D03*
%TO.P,J3,3,Pin_3_3*%
%TO.N,GND*%
X132850000Y-82750000D03*
%TO.P,J3,4,Pin_4_4*%
%TO.N,GPIO_28{slash}ADC_2*%
X132850000Y-85290000D03*
%TO.P,J3,5,Pin_5_5*%
%TO.N,+3V3*%
X132850000Y-87830000D03*
%TO.P,J3,6,Pin_6_6*%
%TO.N,GPIO_27{slash}ADC_1*%
X132850000Y-90370000D03*
%TO.P,J3,7,Pin_7_7*%
%TO.N,GPIO_26{slash}ADC_0*%
X132850000Y-92910000D03*
%TO.P,J3,8,Pin_8_8*%
%TO.N,GND*%
X132850000Y-95450000D03*
%TO.P,J3,9,Pin_9_9*%
%TO.N,GPIO_24*%
X132850000Y-97990000D03*
%TO.P,J3,10,Pin_10_10*%
%TO.N,GPIO_23*%
X132850000Y-100530000D03*
%TO.P,J3,11,Pin_11_11*%
%TO.N,RUN*%
X132850000Y-103070000D03*
%TO.P,J3,12,Pin_12_12*%
%TO.N,GPIO_22*%
X132850000Y-105610000D03*
%TO.P,J3,13,Pin_13_13*%
%TO.N,GND*%
X132850000Y-108150000D03*
%TO.P,J3,14,Pin_14_14*%
%TO.N,GPIO_18*%
X132850000Y-110690000D03*
%TO.P,J3,15,Pin_15_15*%
%TO.N,GPIO_19*%
X132850000Y-113230000D03*
%TO.P,J3,16,Pin_16_16*%
%TO.N,GPIO_20*%
X132850000Y-115770000D03*
%TO.P,J3,17,Pin_17_17*%
%TO.N,GPIO_21*%
X132850000Y-118310000D03*
%TO.P,J3,18,Pin_18_18*%
%TO.N,GND*%
X132850000Y-120850000D03*
%TO.P,J3,19,Pin_19_19*%
%TO.N,GPIO_17*%
X132850000Y-123390000D03*
%TO.P,J3,20,Pin_20_20*%
%TO.N,GPIO_16*%
X132850000Y-125930000D03*
%TD*%
D21*
%TO.P,R1,1*%
%TO.N,GND*%
X126520000Y-84550000D03*
%TO.P,R1,2*%
%TO.N,Net-(J1-CC1)*%
X125500000Y-84550000D03*
%TD*%
D30*
%TO.P,Y1,1,1_1*%
%TO.N,Net-(C16-Pad2)*%
X119150000Y-119400000D03*
%TO.P,Y1,2,G_2*%
%TO.N,GND*%
X121350000Y-119400000D03*
%TO.P,Y1,3,3_3*%
%TO.N,XIN*%
X121350000Y-117700000D03*
%TO.P,Y1,4,G_4*%
%TO.N,GND*%
X119150000Y-117700000D03*
%TD*%
D27*
%TO.P,J2,1,Pin_1_1*%
%TO.N,GPIO_0*%
X113950000Y-77580000D03*
D28*
%TO.P,J2,2,Pin_2_2*%
%TO.N,GPIO_1*%
X113950000Y-80120000D03*
%TO.P,J2,3,Pin_3_3*%
%TO.N,GPIO_13*%
X113950000Y-82660000D03*
%TO.P,J2,4,Pin_4_4*%
%TO.N,GPIO_2*%
X113950000Y-85200000D03*
%TO.P,J2,5,Pin_5_5*%
%TO.N,GPIO_3*%
X113950000Y-87740000D03*
%TO.P,J2,6,Pin_6_6*%
%TO.N,GPIO_4*%
X113950000Y-90280000D03*
%TO.P,J2,7,Pin_7_7*%
%TO.N,GPIO_5*%
X113950000Y-92820000D03*
%TO.P,J2,8,Pin_8_8*%
%TO.N,GPIO_13*%
X113950000Y-95360000D03*
%TO.P,J2,9,Pin_9_9*%
%TO.N,GPIO_6*%
X113950000Y-97900000D03*
%TO.P,J2,10,Pin_10_10*%
%TO.N,unconnected-(J2-Pin_10-Pad10)*%
X113950000Y-100440000D03*
%TO.P,J2,11,Pin_11_11*%
%TO.N,GPIO_8*%
X113950000Y-102980000D03*
%TO.P,J2,12,Pin_12_12*%
%TO.N,GPIO_13*%
X113950000Y-105520000D03*
%TO.P,J2,13,Pin_13_13*%
X113950000Y-108060000D03*
%TO.P,J2,14,Pin_14_14*%
%TO.N,GPIO_10*%
X113950000Y-110600000D03*
%TO.P,J2,15,Pin_15_15*%
%TO.N,GPIO_11*%
X113950000Y-113140000D03*
%TO.P,J2,16,Pin_16_16*%
%TO.N,GPIO_12*%
X113950000Y-115680000D03*
%TO.P,J2,17,Pin_17_17*%
%TO.N,GPIO_13*%
X113950000Y-118220000D03*
%TO.P,J2,18,Pin_18_18*%
X113950000Y-120760000D03*
%TO.P,J2,19,Pin_19_19*%
X113950000Y-123300000D03*
%TO.P,J2,20,Pin_20_20*%
X113950000Y-125840000D03*
%TD*%
D16*
%TO.P,C7,1*%
%TO.N,+3V3*%
X124350000Y-119400000D03*
%TO.P,C7,2*%
%TO.N,GND*%
X123390000Y-119400000D03*
%TD*%
%TO.P,C2,1*%
%TO.N,+3V3*%
X124060000Y-118200000D03*
%TO.P,C2,2*%
%TO.N,GND*%
X123100000Y-118200000D03*
%TD*%
%TO.P,C14,1*%
%TO.N,GND*%
X125860000Y-85650000D03*
%TO.P,C14,2*%
%TO.N,+3V3*%
X124900000Y-85650000D03*
%TD*%
D31*
%TO.N,GND*%
X129940000Y-119450000D03*
X128250000Y-118900000D03*
%TO.N,XIN*%
X123326860Y-114369470D03*
X121350000Y-117994097D03*
%TO.N,+3V3*%
X131880000Y-88800000D03*
%TO.N,GND*%
X129500000Y-87100000D03*
X131044265Y-87944265D03*
X127600000Y-85000000D03*
X129550000Y-85700000D03*
%TO.N,+3V3*%
X130550000Y-84950000D03*
X117745735Y-87395735D03*
X118500000Y-88950000D03*
%TO.N,GND*%
X116300000Y-84600000D03*
X116400000Y-81800000D03*
%TO.N,VBUS*%
X117450000Y-83430000D03*
X121050000Y-82285000D03*
%TO.N,GND*%
X119450000Y-82710000D03*
X128296305Y-108046305D03*
X126600476Y-107526093D03*
X127212286Y-80470837D03*
X123906985Y-110105515D03*
X122500000Y-80000000D03*
%TO.N,Net-(C16-Pad2)*%
X116390000Y-117374314D03*
X118550000Y-116280000D03*
X119150000Y-119400000D03*
X115850735Y-118699265D03*
%TO.N,Net-(R7-Pad1)*%
X118949803Y-92550197D03*
X121111422Y-121838578D03*
X113050000Y-117213769D03*
X115817158Y-110650000D03*
%TO.N,QSPI_SCLK*%
X122107545Y-98192849D03*
X122711536Y-109442307D03*
%TO.N,+3V3*%
X128300000Y-94828823D03*
X126412500Y-112900000D03*
X124467612Y-113999999D03*
X127550000Y-88800000D03*
X125112500Y-109400000D03*
X126100000Y-89500000D03*
X121301349Y-112917723D03*
X117950000Y-117394097D03*
X123978468Y-107568114D03*
X124467612Y-113999999D03*
X126312500Y-109494485D03*
X121812498Y-110350000D03*
%TO.N,USB_D+*%
X123195000Y-86960000D03*
X123200000Y-83950000D03*
%TO.N,USB_D-*%
X124251092Y-92948908D03*
X124102203Y-85760000D03*
%TO.N,XOUT*%
X123512500Y-116254770D03*
X120450000Y-116500000D03*
%TO.N,Net-(U1-USB_DM)*%
X124825197Y-95475197D03*
X125350000Y-97800000D03*
%TO.N,QSPI_SD1*%
X121913156Y-109391392D03*
X121350000Y-98450000D03*
%TO.N,QSPI_SD2*%
X121912500Y-102911027D03*
X120500000Y-92465000D03*
%TO.N,Net-(U1-USB_DP)*%
X124712500Y-107250000D03*
X123775197Y-96525197D03*
%TO.N,GPIO_10*%
X118650000Y-114400000D03*
%TO.N,GPIO_11*%
X117938527Y-115080000D03*
%TO.N,GPIO_12*%
X121050000Y-115400000D03*
%TO.N,SWCLK*%
X125112500Y-116285735D03*
%TO.N,RUN*%
X131550000Y-103200000D03*
X125738079Y-114437500D03*
%TO.N,GPIO_18*%
X130900000Y-112369059D03*
X128121020Y-114758905D03*
%TO.N,GPIO_19*%
X130550000Y-114100000D03*
%TO.N,GPIO_20*%
X128479468Y-113569059D03*
%TD*%
%TO.N,+3V3*%
D32*
X124060000Y-118200000D02*
X124060000Y-119110000D01*
X124060000Y-119110000D02*
X124350000Y-119400000D01*
%TO.N,GND*%
X123390000Y-119400000D02*
X123390000Y-118490000D01*
X123390000Y-118490000D02*
X123100000Y-118200000D01*
%TO.N,+1V1*%
X126200000Y-117200000D02*
X127510000Y-117200000D01*
X127510000Y-117200000D02*
X128250000Y-117940000D01*
%TO.N,GND*%
X131450000Y-119450000D02*
X129940000Y-119450000D01*
X132850000Y-120850000D02*
X131450000Y-119450000D01*
%TO.N,+3V3*%
X124060000Y-117150000D02*
X124060000Y-118200000D01*
%TO.N,XIN*%
X123312500Y-114383830D02*
X123326860Y-114369470D01*
X123312500Y-115337500D02*
X123312500Y-114383830D01*
%TO.N,+3V3*%
X130450000Y-89280000D02*
X131400000Y-89280000D01*
X131400000Y-89280000D02*
X131880000Y-88800000D01*
%TO.N,GND*%
X130450000Y-88320000D02*
X130668530Y-88320000D01*
X130668530Y-88320000D02*
X131044265Y-87944265D01*
X129500000Y-87100000D02*
X129500000Y-86510000D01*
X129500000Y-86510000D02*
X129490000Y-86500000D01*
%TO.N,+3V3*%
X124900000Y-85650000D02*
X124900000Y-85959999D01*
X124900000Y-85959999D02*
X124499999Y-86360000D01*
X124499999Y-86360000D02*
X124267500Y-86360000D01*
%TO.N,GND*%
X126950000Y-86070000D02*
X126280000Y-86070000D01*
X126280000Y-86070000D02*
X125860000Y-85650000D01*
%TO.N,+3V3*%
X130450000Y-86500000D02*
X130450000Y-85050000D01*
X130450000Y-85050000D02*
X130550000Y-84950000D01*
%TO.N,GND*%
X129550000Y-85700000D02*
X129550000Y-86440000D01*
X129550000Y-86440000D02*
X129490000Y-86500000D01*
X129590000Y-85660000D02*
X129550000Y-85700000D01*
X127600000Y-85000000D02*
X126970000Y-85000000D01*
X129590000Y-84950000D02*
X129590000Y-85660000D01*
X126970000Y-85000000D02*
X126520000Y-84550000D01*
%TO.N,+3V3*%
X117745735Y-86325735D02*
X117745735Y-87395735D01*
X117050000Y-85630000D02*
X117745735Y-86325735D01*
%TO.N,GND*%
X116980000Y-84600000D02*
X117050000Y-84670000D01*
X116300000Y-84600000D02*
X116980000Y-84600000D01*
X116550000Y-82450000D02*
X116550000Y-81950000D01*
X116550000Y-81950000D02*
X116400000Y-81800000D01*
%TO.N,+3V3*%
X126950000Y-87030000D02*
X126950000Y-88200000D01*
X126950000Y-88200000D02*
X127550000Y-88800000D01*
%TO.N,GND*%
X126950000Y-86070000D02*
X126950000Y-84980000D01*
X126950000Y-84980000D02*
X126520000Y-84550000D01*
X116200000Y-120880000D02*
X116280000Y-120880000D01*
X116280000Y-120880000D02*
X116800000Y-121400000D01*
X116800000Y-121350000D02*
X116800000Y-121400000D01*
X116800000Y-121400000D02*
X117650000Y-122250000D01*
X116200000Y-120880000D02*
X116330000Y-120880000D01*
%TO.N,Net-(C16-Pad2)*%
X116200000Y-119920000D02*
X116200000Y-119048530D01*
X116200000Y-119048530D02*
X115850735Y-118699265D01*
%TO.N,GND*%
X116810000Y-121340000D02*
X116800000Y-121350000D01*
X116810000Y-118940000D02*
X116810000Y-121340000D01*
X117600000Y-118150000D02*
X116810000Y-118940000D01*
%TO.N,VBUS*%
X117430000Y-83410000D02*
X117450000Y-83430000D01*
X116550000Y-83410000D02*
X117430000Y-83410000D01*
%TO.N,GND*%
X117600000Y-81640000D02*
X117360000Y-81640000D01*
X117360000Y-81640000D02*
X116550000Y-82450000D01*
%TO.N,GPIO_0*%
X115650000Y-79280000D02*
X115650000Y-85650000D01*
X113950000Y-77580000D02*
X115650000Y-79280000D01*
X115650000Y-85650000D02*
X116800000Y-86800000D01*
X116800000Y-86800000D02*
X116800000Y-92700000D01*
%TO.N,GPIO_1*%
X115232843Y-81402843D02*
X115232843Y-85917157D01*
X113950000Y-80120000D02*
X115232843Y-81402843D01*
X115232843Y-85917157D02*
X116400000Y-87084314D01*
X116400000Y-87084314D02*
X116400000Y-92865686D01*
%TO.N,GND*%
X117600000Y-78770000D02*
X119180000Y-77190000D01*
X127212286Y-81822714D02*
X127212286Y-80470837D01*
X134000000Y-79733654D02*
X134000000Y-94300000D01*
X121350000Y-119400000D02*
X121350000Y-118933789D01*
X120900000Y-79350000D02*
X119935000Y-80315000D01*
X126600476Y-107526093D02*
X127776093Y-107526093D01*
X117830000Y-88160000D02*
X117830000Y-92278924D01*
X119180000Y-81370000D02*
X119180000Y-82440000D01*
X126230000Y-118130000D02*
X126200000Y-118160000D01*
X122500000Y-80000000D02*
X121850000Y-79350000D01*
X122912500Y-115337500D02*
X122912500Y-114803640D01*
X133326346Y-79060000D02*
X134000000Y-79733654D01*
X117600000Y-118150000D02*
X116990000Y-117540000D01*
X126750000Y-84320000D02*
X126750000Y-82285000D01*
X134000000Y-107000000D02*
X134000000Y-96600000D01*
X134000000Y-94300000D02*
X132850000Y-95450000D01*
X119630000Y-86360000D02*
X117830000Y-88160000D01*
X123906985Y-110105515D02*
X123912500Y-110111030D01*
X118910000Y-81640000D02*
X119180000Y-81370000D01*
X132010000Y-79060000D02*
X133326346Y-79060000D01*
X134000000Y-96600000D02*
X132850000Y-95450000D01*
X122912500Y-114803640D02*
X121901349Y-113792489D01*
X119150000Y-117700000D02*
X120850000Y-119400000D01*
X122762500Y-113050000D02*
X123912500Y-111900000D01*
X121850000Y-79350000D02*
X120900000Y-79350000D01*
X119935000Y-80315000D02*
X119935000Y-81970000D01*
X126520000Y-84550000D02*
X126750000Y-84320000D01*
X119180000Y-81370000D02*
X119180000Y-77190000D01*
X119875000Y-82285000D02*
X119450000Y-82710000D01*
X126520000Y-84550000D02*
X132010000Y-79060000D01*
X119150000Y-117700000D02*
X118700000Y-118150000D01*
X120250000Y-82285000D02*
X119875000Y-82285000D01*
X117600000Y-81640000D02*
X117600000Y-78770000D01*
X123912500Y-110111030D02*
X123912500Y-111900000D01*
X121901349Y-113792489D02*
X121901349Y-113050000D01*
X123100000Y-117150000D02*
X122912500Y-116962500D01*
X122912500Y-116962500D02*
X122912500Y-115337500D01*
X117600000Y-81640000D02*
X118910000Y-81640000D01*
X120850000Y-119400000D02*
X121350000Y-119400000D01*
X117830000Y-92278924D02*
X118841076Y-93290000D01*
X116990000Y-116780000D02*
X117600000Y-116170000D01*
X119180000Y-82440000D02*
X119450000Y-82710000D01*
X116990000Y-117540000D02*
X116990000Y-116780000D01*
X121901349Y-113050000D02*
X122762500Y-113050000D01*
X125130000Y-118160000D02*
X125100000Y-118130000D01*
X132850000Y-108150000D02*
X134000000Y-107000000D01*
X118841076Y-93290000D02*
X120212500Y-93290000D01*
X119935000Y-81970000D02*
X120250000Y-82285000D01*
X118700000Y-118150000D02*
X117600000Y-118150000D01*
X127776093Y-107526093D02*
X128296305Y-108046305D01*
X126750000Y-82285000D02*
X127212286Y-81822714D01*
%TO.N,Net-(C16-Pad2)*%
X119320000Y-116280000D02*
X119400000Y-116200000D01*
X118550000Y-116280000D02*
X119320000Y-116280000D01*
X115850735Y-118699265D02*
X115850735Y-117913579D01*
X115850735Y-117913579D02*
X116390000Y-117374314D01*
%TO.N,Net-(R7-Pad1)*%
X115817158Y-110650000D02*
X115817158Y-115439188D01*
X113433769Y-116830000D02*
X113050000Y-117213769D01*
X121111422Y-121838578D02*
X121438578Y-121838578D01*
X118450000Y-91960000D02*
X118450000Y-92050394D01*
X121438578Y-121838578D02*
X121850000Y-122250000D01*
X118450000Y-92050394D02*
X118949803Y-92550197D01*
X115817158Y-115439188D02*
X114426346Y-116830000D01*
X114426346Y-116830000D02*
X113433769Y-116830000D01*
%TO.N,QSPI_SCLK*%
X122107545Y-91173969D02*
X122107545Y-98192849D01*
X122912500Y-109241343D02*
X122912500Y-108462500D01*
X119722500Y-89970000D02*
X120212500Y-89480000D01*
X118450000Y-90940000D02*
X119265000Y-90125000D01*
X119265000Y-90125000D02*
X121058576Y-90125000D01*
X118500000Y-90890000D02*
X118450000Y-90940000D01*
X122711536Y-109442307D02*
X122912500Y-109241343D01*
X121058576Y-90125000D02*
X122107545Y-91173969D01*
X118500000Y-89970000D02*
X119722500Y-89970000D01*
X118500000Y-89970000D02*
X118500000Y-90890000D01*
%TO.N,VBUS*%
X125200000Y-79950000D02*
X125715000Y-80465000D01*
X121050000Y-82285000D02*
X121050000Y-81354594D01*
X124500000Y-80800000D02*
X125200000Y-80100000D01*
X121285000Y-81119594D02*
X121285000Y-80385000D01*
X126669594Y-80165000D02*
X126110406Y-80165000D01*
X126110406Y-80165000D02*
X125715000Y-80560406D01*
X129164594Y-77670000D02*
X126669594Y-80165000D01*
X125950000Y-82285000D02*
X125950000Y-81727590D01*
X125715000Y-82050000D02*
X125715000Y-80650000D01*
X121050000Y-82285000D02*
X121050000Y-82702854D01*
X125715000Y-80650000D02*
X125715000Y-80560406D01*
X125715000Y-80465000D02*
X125715000Y-80650000D01*
X122200000Y-80800000D02*
X124500000Y-80800000D01*
X121000000Y-80100000D02*
X121150000Y-79950000D01*
X121150000Y-79950000D02*
X121350000Y-79950000D01*
X121350000Y-79950000D02*
X122200000Y-80800000D01*
X121285000Y-80385000D02*
X121000000Y-80100000D01*
X132850000Y-77670000D02*
X129164594Y-77670000D01*
X121050000Y-81354594D02*
X121285000Y-81119594D01*
X125200000Y-80100000D02*
X125200000Y-79950000D01*
X125950000Y-82285000D02*
X125715000Y-82050000D01*
%TO.N,+3V3*%
X124112500Y-114355110D02*
X124112500Y-115337500D01*
X127367500Y-89500000D02*
X127387500Y-89480000D01*
X124112500Y-108462500D02*
X124512500Y-108462500D01*
X127550000Y-88800000D02*
X127550000Y-89317500D01*
X126100000Y-89500000D02*
X127367500Y-89500000D01*
X121812498Y-110350000D02*
X121812498Y-110211149D01*
X124916140Y-109400000D02*
X125112500Y-109400000D01*
X126512500Y-108462500D02*
X126512500Y-108286646D01*
X124060000Y-117150000D02*
X124112500Y-117097500D01*
X122170000Y-86360000D02*
X122170000Y-86585000D01*
X126000476Y-97128347D02*
X128300000Y-94828823D01*
X117864097Y-117394097D02*
X117600000Y-117130000D01*
X121812498Y-110211149D02*
X121301349Y-109700000D01*
X127387500Y-89480000D02*
X124267500Y-86360000D01*
X124112500Y-117097500D02*
X124112500Y-115337500D01*
X124112500Y-107702146D02*
X123978468Y-107568114D01*
X120475000Y-109300000D02*
X121008860Y-109300000D01*
X127350000Y-112900000D02*
X126412500Y-112900000D01*
X118595000Y-88855000D02*
X118500000Y-88950000D01*
X127550000Y-89317500D02*
X127387500Y-89480000D01*
X126312500Y-109494485D02*
X126506985Y-109300000D01*
X124467612Y-113999999D02*
X124112500Y-114355110D01*
X121301349Y-109700000D02*
X121301349Y-112917723D01*
X126506985Y-109300000D02*
X127350000Y-109300000D01*
X127350000Y-109300000D02*
X126512500Y-108462500D01*
X126000476Y-107774622D02*
X126000476Y-97128347D01*
X119900000Y-88855000D02*
X118595000Y-88855000D01*
X117950000Y-117394097D02*
X117864097Y-117394097D01*
X126512500Y-108286646D02*
X126000476Y-107774622D01*
X121283626Y-112900000D02*
X121301349Y-112917723D01*
X124512500Y-108996360D02*
X124916140Y-109400000D01*
X124512500Y-108462500D02*
X124512500Y-108996360D01*
X124267500Y-86360000D02*
X122170000Y-86360000D01*
X124112500Y-108462500D02*
X124112500Y-107702146D01*
X120475000Y-112900000D02*
X121283626Y-112900000D01*
X121008860Y-109300000D02*
X121301349Y-109592489D01*
X122170000Y-86585000D02*
X119900000Y-88855000D01*
X121301349Y-109592489D02*
X121301349Y-109700000D01*
%TO.N,+1V1*%
X125775000Y-113837500D02*
X125812500Y-113800000D01*
X124650000Y-110000000D02*
X123712500Y-109062500D01*
X125775000Y-113837500D02*
X125478640Y-113837500D01*
X126230000Y-117170000D02*
X126200000Y-117200000D01*
X124512500Y-116582500D02*
X124512500Y-115337500D01*
X125100000Y-117170000D02*
X124512500Y-116582500D01*
X125712500Y-108462500D02*
X125712500Y-109900000D01*
X125812500Y-110000000D02*
X124650000Y-110000000D01*
X125478640Y-113837500D02*
X124512500Y-114803640D01*
X125712500Y-109900000D02*
X125812500Y-110000000D01*
X123712500Y-109062500D02*
X123712500Y-108462500D01*
X124512500Y-114803640D02*
X124512500Y-115337500D01*
X125130000Y-117200000D02*
X125100000Y-117170000D01*
X126200000Y-117200000D02*
X125130000Y-117200000D01*
X125812500Y-113800000D02*
X125812500Y-110000000D01*
%TO.N,Net-(J1-CC1)*%
X125500000Y-84550000D02*
X124750000Y-83800000D01*
X124750000Y-83800000D02*
X124750000Y-82285000D01*
%TO.N,USB_D+*%
X123750000Y-82285000D02*
X123750000Y-83042410D01*
X122750000Y-83042410D02*
X122750000Y-82285000D01*
X123017590Y-83310000D02*
X122750000Y-83042410D01*
X122680000Y-87475000D02*
X123195000Y-86960000D01*
X123200000Y-83492410D02*
X123017590Y-83310000D01*
X123750000Y-83042410D02*
X123482410Y-83310000D01*
X123200000Y-83950000D02*
X123200000Y-83492410D01*
X122680000Y-95850000D02*
X122680000Y-87475000D01*
X123482410Y-83310000D02*
X123017590Y-83310000D01*
%TO.N,USB_D-*%
X124250000Y-82285000D02*
X124250000Y-85612203D01*
X124250000Y-82285000D02*
X124250000Y-81527590D01*
X124250000Y-85612203D02*
X124102203Y-85760000D01*
X124251092Y-94398908D02*
X123900000Y-94750000D01*
X123250000Y-81500000D02*
X123250000Y-82285000D01*
X123972410Y-81250000D02*
X123500000Y-81250000D01*
X124250000Y-81527590D02*
X123972410Y-81250000D01*
X124251092Y-92948908D02*
X124251092Y-94398908D01*
X123500000Y-81250000D02*
X123250000Y-81500000D01*
%TO.N,Net-(J1-CC2)*%
X118250000Y-83310000D02*
X117600000Y-82660000D01*
X121750000Y-82950552D02*
X121390552Y-83310000D01*
X121390552Y-83310000D02*
X118250000Y-83310000D01*
X121750000Y-82285000D02*
X121750000Y-82950552D01*
%TO.N,XOUT*%
X123512500Y-116254770D02*
X123712500Y-116054770D01*
X123712500Y-116054770D02*
X123712500Y-115337500D01*
X120420000Y-116200000D02*
X120420000Y-116470000D01*
X120420000Y-116470000D02*
X120450000Y-116500000D01*
%TO.N,Net-(U1-USB_DM)*%
X125312500Y-97837500D02*
X125350000Y-97800000D01*
X125312500Y-108462500D02*
X125312500Y-97837500D01*
X124920000Y-95380394D02*
X124825197Y-95475197D01*
X124920000Y-94750000D02*
X124920000Y-95380394D01*
%TO.N,QSPI_SD1*%
X121024999Y-90750000D02*
X121350000Y-91075001D01*
X120212500Y-90750000D02*
X121024999Y-90750000D01*
X121350000Y-91075001D02*
X121350000Y-98450000D01*
X121913156Y-109391392D02*
X121712500Y-109190736D01*
X121712500Y-109190736D02*
X121712500Y-108462500D01*
%TO.N,QSPI_SD2*%
X122112500Y-108462500D02*
X122112500Y-103111027D01*
X120500000Y-92465000D02*
X120500000Y-92307500D01*
X120500000Y-92307500D02*
X120212500Y-92020000D01*
X122112500Y-103111027D02*
X121912500Y-102911027D01*
%TO.N,QSPI_SD0*%
X123600000Y-105834314D02*
X122512500Y-106921814D01*
X122512500Y-102262500D02*
X123600000Y-103350000D01*
X122512500Y-99202110D02*
X127387500Y-94327110D01*
X127387500Y-94327110D02*
X127387500Y-93290000D01*
X122512500Y-99202110D02*
X122512500Y-102262500D01*
X122512500Y-106921814D02*
X122512500Y-108462500D01*
X123600000Y-103350000D02*
X123600000Y-105834314D01*
%TO.N,QSPI_SS*%
X121312500Y-108462500D02*
X121312500Y-99836424D01*
X121312500Y-99836424D02*
X126275000Y-94873924D01*
X126275000Y-94873924D02*
X126275000Y-92320001D01*
X126575001Y-92020000D02*
X127387500Y-92020000D01*
X126275000Y-92320001D02*
X126575001Y-92020000D01*
%TO.N,QSPI_SD3*%
X123312500Y-98967796D02*
X123312500Y-102312500D01*
X124000000Y-106000000D02*
X123300000Y-106700000D01*
X128500000Y-91661424D02*
X128500000Y-93780295D01*
X123300000Y-106700000D02*
X123312500Y-106712500D01*
X123312500Y-106712500D02*
X123312500Y-108462500D01*
X123312500Y-102312500D02*
X124000000Y-103000000D01*
X127387500Y-90750000D02*
X127588576Y-90750000D01*
X128500000Y-93780295D02*
X123312500Y-98967796D01*
X127588576Y-90750000D02*
X128500000Y-91661424D01*
X124000000Y-103000000D02*
X124000000Y-106000000D01*
%TO.N,Net-(U1-USB_DP)*%
X124712500Y-107250000D02*
X124912500Y-107450000D01*
X123700000Y-96450000D02*
X123775197Y-96525197D01*
X124912500Y-107450000D02*
X124912500Y-108462500D01*
X123700000Y-95850000D02*
X123700000Y-96450000D01*
%TO.N,GPIO_0*%
X119941140Y-109700000D02*
X120475000Y-109700000D01*
X119900000Y-108800000D02*
X119737500Y-108962500D01*
X119737500Y-108962500D02*
X119737500Y-109496360D01*
X116800000Y-92700000D02*
X119900000Y-95800000D01*
X119900000Y-95800000D02*
X119900000Y-108800000D01*
X119737500Y-109496360D02*
X119941140Y-109700000D01*
%TO.N,GPIO_1*%
X116400000Y-92865686D02*
X119217157Y-95682843D01*
X119217157Y-95682843D02*
X119217157Y-109541702D01*
X119217157Y-109541702D02*
X119775455Y-110100000D01*
X119775455Y-110100000D02*
X120475000Y-110100000D01*
%TO.N,GPIO_2*%
X119609770Y-110500000D02*
X120475000Y-110500000D01*
X116000000Y-93082843D02*
X118817157Y-95900000D01*
X116000000Y-87250000D02*
X116000000Y-93082843D01*
X113950000Y-85200000D02*
X116000000Y-87250000D01*
X118817157Y-109707388D02*
X119609770Y-110500000D01*
X118817157Y-95900000D02*
X118817157Y-109707388D01*
%TO.N,GPIO_3*%
X115600000Y-88950000D02*
X115600000Y-93248529D01*
X113950000Y-87740000D02*
X114390000Y-87740000D01*
X118417157Y-96065686D02*
X118417157Y-109873074D01*
X119444085Y-110900000D02*
X120475000Y-110900000D01*
X114390000Y-87740000D02*
X115600000Y-88950000D01*
X118417157Y-109873074D02*
X119444085Y-110900000D01*
X115600000Y-93248529D02*
X118417157Y-96065686D01*
%TO.N,GPIO_4*%
X113950000Y-90280000D02*
X115200000Y-91530000D01*
X119278400Y-111300000D02*
X120475000Y-111300000D01*
X115200000Y-93414215D02*
X118017157Y-96231371D01*
X118017157Y-96231371D02*
X118017158Y-110038760D01*
X118017158Y-110038760D02*
X119278400Y-111300000D01*
X115200000Y-91530000D02*
X115200000Y-93414215D01*
%TO.N,GPIO_5*%
X117617157Y-96450000D02*
X117580000Y-96450000D01*
X119112715Y-111700000D02*
X117617158Y-110204445D01*
X117580000Y-96450000D02*
X113950000Y-92820000D01*
X117617158Y-110204445D02*
X117617157Y-96450000D01*
X120475000Y-111700000D02*
X119112715Y-111700000D01*
%TO.N,GPIO_6*%
X117217158Y-110370131D02*
X118947029Y-112100000D01*
X117217157Y-101167157D02*
X117217158Y-110370131D01*
X113950000Y-97900000D02*
X117217157Y-101167157D01*
X118947029Y-112100000D02*
X120475000Y-112100000D01*
%TO.N,GPIO_8*%
X116817158Y-110567158D02*
X119550000Y-113300000D01*
X113950000Y-102980000D02*
X116817158Y-105847158D01*
X116817158Y-105847158D02*
X116817158Y-110567158D01*
X119550000Y-113300000D02*
X120475000Y-113300000D01*
%TO.N,GPIO_13*%
X113950000Y-125840000D02*
X113950000Y-123300000D01*
X121008860Y-113700000D02*
X121712500Y-114403640D01*
X119384314Y-113700000D02*
X118470000Y-113700000D01*
X116417158Y-108600000D02*
X116417158Y-110732844D01*
X120475000Y-113700000D02*
X121008860Y-113700000D01*
X121712500Y-115337500D02*
X122112500Y-115337500D01*
X121712500Y-114403640D02*
X121712500Y-115337500D01*
X119384314Y-113700000D02*
X120475000Y-113700000D01*
X113950000Y-123300000D02*
X113950000Y-120760000D01*
X113950000Y-108060000D02*
X115877158Y-108060000D01*
X118470000Y-113700000D02*
X113950000Y-118220000D01*
X116417158Y-110732844D02*
X119384314Y-113700000D01*
X113950000Y-120760000D02*
X113950000Y-118220000D01*
X115877158Y-108060000D02*
X116417158Y-108600000D01*
X122112500Y-115337500D02*
X122512500Y-115337500D01*
%TO.N,GPIO_10*%
X118950000Y-114100000D02*
X118650000Y-114400000D01*
X120475000Y-114100000D02*
X118950000Y-114100000D01*
%TO.N,GPIO_11*%
X117938527Y-115080000D02*
X119086334Y-115080000D01*
X119086334Y-115080000D02*
X119666334Y-114500000D01*
X119666334Y-114500000D02*
X120475000Y-114500000D01*
%TO.N,GPIO_12*%
X121050000Y-115400000D02*
X121250000Y-115400000D01*
X121250000Y-115400000D02*
X121312500Y-115337500D01*
%TO.N,XIN*%
X122034744Y-120300000D02*
X118465256Y-120300000D01*
X121350000Y-117700000D02*
X122350000Y-118700000D01*
X117600000Y-119434744D02*
X117600000Y-119110000D01*
X122350000Y-118700000D02*
X122350000Y-119984744D01*
X118465256Y-120300000D02*
X117600000Y-119434744D01*
X122350000Y-119984744D02*
X122034744Y-120300000D01*
%TO.N,SWCLK*%
X124912500Y-116085735D02*
X124912500Y-115337500D01*
X125112500Y-116285735D02*
X124912500Y-116085735D01*
%TO.N,RUN*%
X125738079Y-114437500D02*
X125712500Y-114463079D01*
X131680000Y-103070000D02*
X131550000Y-103200000D01*
X125712500Y-114463079D02*
X125712500Y-115337500D01*
X132850000Y-103070000D02*
X131680000Y-103070000D01*
%TO.N,GPIO_16*%
X126316140Y-116075000D02*
X126112500Y-115871360D01*
X128940000Y-117923866D02*
X127091134Y-116075000D01*
X126112500Y-115871360D02*
X126112500Y-115337500D01*
X128940000Y-122020000D02*
X128940000Y-117923866D01*
X127091134Y-116075000D02*
X126316140Y-116075000D01*
X132850000Y-125930000D02*
X128940000Y-122020000D01*
%TO.N,GPIO_17*%
X126919320Y-115337500D02*
X129340000Y-117758181D01*
X129340000Y-121854314D02*
X130875686Y-123390000D01*
X129340000Y-117758181D02*
X129340000Y-121854314D01*
X126512500Y-115337500D02*
X126919320Y-115337500D01*
X130875686Y-123390000D02*
X132850000Y-123390000D01*
%TO.N,GPIO_18*%
X132850000Y-110690000D02*
X132850000Y-110700000D01*
X128121020Y-114758905D02*
X128110866Y-114769059D01*
X128110866Y-114769059D02*
X127619059Y-114769059D01*
X127619059Y-114769059D02*
X127350000Y-114500000D01*
X131170941Y-112369059D02*
X132850000Y-110690000D01*
X130900000Y-112369059D02*
X131170941Y-112369059D01*
%TO.N,GPIO_19*%
X128161880Y-114100000D02*
X128230939Y-114169059D01*
X128797056Y-114100000D02*
X130550000Y-114100000D01*
X127350000Y-114100000D02*
X128161880Y-114100000D01*
X128230939Y-114169059D02*
X128727997Y-114169059D01*
X128727997Y-114169059D02*
X128797056Y-114100000D01*
%TO.N,GPIO_20*%
X128348527Y-113700000D02*
X127350000Y-113700000D01*
X128479468Y-113569059D02*
X128348527Y-113700000D01*
%TO.N,GPIO_21*%
X128230941Y-112969059D02*
X127900000Y-113300000D01*
X131150000Y-113851471D02*
X130267588Y-112969059D01*
X131150000Y-116610000D02*
X131150000Y-113851471D01*
X127350000Y-113300000D02*
X127900000Y-113300000D01*
X132850000Y-118310000D02*
X131150000Y-116610000D01*
X130267588Y-112969059D02*
X128230941Y-112969059D01*
%TO.N,GPIO_22*%
X131700000Y-109277974D02*
X131700000Y-106760000D01*
X127350000Y-112500000D02*
X128477974Y-112500000D01*
X128477974Y-112500000D02*
X131700000Y-109277974D01*
X131700000Y-106760000D02*
X132850000Y-105610000D01*
%TO.N,GPIO_23*%
X128312288Y-112100000D02*
X127350000Y-112100000D01*
X130900000Y-102480000D02*
X130900000Y-109512288D01*
X132850000Y-100530000D02*
X130900000Y-102480000D01*
X130900000Y-109512288D02*
X128312288Y-112100000D01*
%TO.N,GPIO_24*%
X132850000Y-97990000D02*
X130500000Y-100340000D01*
X128146602Y-111700000D02*
X127350000Y-111700000D01*
X130500000Y-100340000D02*
X130500000Y-109346602D01*
X130500000Y-109346602D02*
X128146602Y-111700000D01*
%TO.N,GPIO_26{slash}ADC_0*%
X132850000Y-92910000D02*
X130100000Y-95660000D01*
X130100000Y-109180916D02*
X128380915Y-110900000D01*
X128380915Y-110900000D02*
X127350000Y-110900000D01*
X130100000Y-95660000D02*
X130100000Y-109180916D01*
%TO.N,GPIO_27{slash}ADC_1*%
X132850000Y-90370000D02*
X129700000Y-93520000D01*
X128215230Y-110500000D02*
X127350000Y-110500000D01*
X129700000Y-93520000D02*
X129700000Y-109015230D01*
X129700000Y-109015230D02*
X128215230Y-110500000D01*
%TO.N,GPIO_28{slash}ADC_2*%
X128049545Y-110100000D02*
X127350000Y-110100000D01*
X132850000Y-85290000D02*
X129300000Y-88840000D01*
X129300000Y-88840000D02*
X129300000Y-108456826D01*
X129300000Y-108456826D02*
X128487500Y-109269326D01*
X128487500Y-109269326D02*
X128487500Y-109662046D01*
X128487500Y-109662046D02*
X128049545Y-110100000D01*
%TO.N,GPIO_29{slash}ADC_3*%
X128087500Y-109103640D02*
X128087500Y-109496360D01*
X128900000Y-108291140D02*
X128087500Y-109103640D01*
X128900000Y-84160000D02*
X128900000Y-108291140D01*
X128087500Y-109496360D02*
X127883860Y-109700000D01*
X132850000Y-80210000D02*
X128900000Y-84160000D01*
X127883860Y-109700000D02*
X127350000Y-109700000D01*
%TD*%
%TA.AperFunction,Conductor*%
%TO.N,GND*%
G36*
X124179410Y-127982962D02*
G01*
X124179408Y-127982962D01*
X124242993Y-127965925D01*
X124179410Y-127982962D01*
G37*
%TD.AperFunction*%
%TA.AperFunction,Conductor*%
G36*
X124532962Y-127629410D02*
G01*
X124515925Y-127692993D01*
X124532962Y-127629408D01*
X124532962Y-127629410D01*
G37*
%TD.AperFunction*%
%TA.AperFunction,Conductor*%
G36*
X132979410Y-121332962D02*
G01*
X132979408Y-121332962D01*
X133042993Y-121315925D01*
X132979410Y-121332962D01*
G37*
%TD.AperFunction*%
%TA.AperFunction,Conductor*%
G36*
X121692539Y-119169685D02*
G01*
X121738294Y-119222489D01*
X121749500Y-119274000D01*
X121749500Y-119526000D01*
X121746949Y-119534685D01*
X121748238Y-119543647D01*
X121737259Y-119567687D01*
X121729815Y-119593039D01*
X121722974Y-119598966D01*
X121719213Y-119607203D01*
X121696978Y-119621492D01*
X121677011Y-119638794D01*
X121666496Y-119641081D01*
X121660435Y-119644977D01*
X121625500Y-119650000D01*
X121474000Y-119650000D01*
X121406961Y-119630315D01*
X121361206Y-119577511D01*
X121350000Y-119526000D01*
X121350000Y-119274000D01*
X121369685Y-119206961D01*
X121422489Y-119161206D01*
X121474000Y-119150000D01*
X121625500Y-119150000D01*
X121692539Y-119169685D01*
G37*
%TD.AperFunction*%
%TA.AperFunction,Conductor*%
G36*
X123333039Y-119169685D02*
G01*
X123378794Y-119222489D01*
X123390000Y-119274000D01*
X123390000Y-119400000D01*
X123264000Y-119400000D01*
X123212489Y-119411206D01*
X123159685Y-119456961D01*
X123140000Y-119524000D01*
X123140000Y-119650000D01*
X123074500Y-119650000D01*
X123007461Y-119630315D01*
X122961706Y-119577511D01*
X122950500Y-119526000D01*
X122950500Y-119274000D01*
X122953050Y-119265314D01*
X122951762Y-119256353D01*
X122962740Y-119232312D01*
X122970185Y-119206961D01*
X122977025Y-119201033D01*
X122980787Y-119192797D01*
X123003021Y-119178507D01*
X123022989Y-119161206D01*
X123033503Y-119158918D01*
X123039565Y-119155023D01*
X123074500Y-119150000D01*
X123266000Y-119150000D01*
X123333039Y-119169685D01*
G37*
%TD.AperFunction*%
%TA.AperFunction,Conductor*%
G36*
X128292232Y-118900000D02*
G01*
X128250000Y-118900000D01*
X128250000Y-118815299D01*
X128292232Y-118900000D01*
G37*
%TD.AperFunction*%
%TA.AperFunction,Conductor*%
G36*
X125474323Y-118390315D02*
G01*
X125541362Y-118410000D01*
X125350000Y-118410000D01*
X125350000Y-118380000D01*
X125461523Y-118380000D01*
X125474323Y-118390315D01*
G37*
%TD.AperFunction*%
%TA.AperFunction,Conductor*%
G36*
X132979410Y-95932962D02*
G01*
X132979408Y-95932962D01*
X133042993Y-95915925D01*
X132979410Y-95932962D01*
G37*
%TD.AperFunction*%
%TA.AperFunction,Conductor*%
G36*
X132979410Y-83232962D02*
G01*
X132979408Y-83232962D01*
X133042993Y-83215925D01*
X132979410Y-83232962D01*
G37*
%TD.AperFunction*%
%TA.AperFunction,Conductor*%
G36*
X116802721Y-81872786D02*
G01*
X116802724Y-81872787D01*
X116851916Y-81890000D01*
X116800000Y-81890000D01*
X116800000Y-81872530D01*
X116802721Y-81872786D01*
G37*
%TD.AperFunction*%
%TA.AperFunction,Conductor*%
G36*
X117511371Y-81884348D02*
G01*
X117482958Y-81888486D01*
X117516117Y-81881272D01*
X117511371Y-81884348D01*
G37*
%TD.AperFunction*%
%TA.AperFunction,Conductor*%
G36*
X117570010Y-81846359D02*
G01*
X117549935Y-81859362D01*
X117573274Y-81839139D01*
X117570010Y-81846359D01*
G37*
%TD.AperFunction*%
%TA.AperFunction,Conductor*%
G36*
X117598802Y-81782697D02*
G01*
X117588241Y-81806046D01*
X117597563Y-81774298D01*
X117598802Y-81782697D01*
G37*
%TD.AperFunction*%
%TA.AperFunction,Conductor*%
G36*
X120251523Y-80384596D02*
G01*
X120256632Y-80379487D01*
X120256635Y-80379485D01*
X120251523Y-80384596D01*
G37*
%TD.AperFunction*%
%TD*%
%TA.AperFunction,Conductor*%
%TO.N,GND*%
G36*
X127359784Y-117620185D02*
G01*
X127380426Y-117636819D01*
X127603181Y-117859574D01*
X127636666Y-117920897D01*
X127639500Y-117947255D01*
X127639500Y-118133070D01*
X127642289Y-118162814D01*
X127642291Y-118162826D01*
X127681894Y-118276000D01*
X127686148Y-118288157D01*
X127717433Y-118330547D01*
X127729419Y-118346787D01*
X127753390Y-118412416D01*
X127738074Y-118480587D01*
X127729419Y-118494055D01*
X127686596Y-118552077D01*
X127652332Y-118650000D01*
X128126000Y-118650000D01*
X128193039Y-118669685D01*
X128238794Y-118722489D01*
X128250000Y-118774000D01*
X128250000Y-118900000D01*
X128376000Y-118900000D01*
X128443039Y-118919685D01*
X128488794Y-118972489D01*
X128500000Y-119024000D01*
X128500000Y-119478204D01*
X128535305Y-119536248D01*
X128539500Y-119568229D01*
X128539500Y-121967273D01*
X128539500Y-122072727D01*
X128543194Y-122086513D01*
X128566793Y-122174589D01*
X128588560Y-122212289D01*
X128619520Y-122265913D01*
X128619522Y-122265915D01*
X131744325Y-125390718D01*
X131777810Y-125452041D01*
X131774575Y-125516716D01*
X131727829Y-125660587D01*
X131699500Y-125839448D01*
X131699500Y-126020551D01*
X131727829Y-126199410D01*
X131783787Y-126371636D01*
X131783788Y-126371639D01*
X131820146Y-126442994D01*
X131863415Y-126527913D01*
X131866006Y-126532997D01*
X131972441Y-126679494D01*
X131972445Y-126679499D01*
X132100500Y-126807554D01*
X132100505Y-126807558D01*
X132202232Y-126881466D01*
X132247006Y-126913996D01*
X132341552Y-126962170D01*
X132408360Y-126996211D01*
X132408363Y-126996212D01*
X132494476Y-127024191D01*
X132580591Y-127052171D01*
X132663429Y-127065291D01*
X132759449Y-127080500D01*
X132759454Y-127080500D01*
X132940551Y-127080500D01*
X133027259Y-127066765D01*
X133119409Y-127052171D01*
X133291639Y-126996211D01*
X133452994Y-126913996D01*
X133599501Y-126807553D01*
X133727553Y-126679501D01*
X133833996Y-126532994D01*
X133916211Y-126371639D01*
X133945119Y-126282669D01*
X133957569Y-126244351D01*
X133997006Y-126186676D01*
X134061364Y-126159477D01*
X134130211Y-126171391D01*
X134181687Y-126218635D01*
X134199500Y-126282669D01*
X134199500Y-128675500D01*
X134179815Y-128742539D01*
X134127011Y-128788294D01*
X134075500Y-128799500D01*
X127090282Y-128799500D01*
X127023243Y-128779815D01*
X126977488Y-128727011D01*
X126967544Y-128657853D01*
X126996569Y-128594297D01*
X127033987Y-128565015D01*
X127066167Y-128548617D01*
X127192994Y-128483996D01*
X127339501Y-128377553D01*
X127467553Y-128249501D01*
X127573996Y-128102994D01*
X127656211Y-127941639D01*
X127712171Y-127769409D01*
X127726765Y-127677259D01*
X127740500Y-127590551D01*
X127740500Y-127409448D01*
X127712189Y-127230706D01*
X127712171Y-127230591D01*
X127669708Y-127099901D01*
X127656212Y-127058363D01*
X127656211Y-127058360D01*
X127607199Y-126962170D01*
X127573996Y-126897006D01*
X127560396Y-126878287D01*
X127467558Y-126750505D01*
X127467554Y-126750500D01*
X127339499Y-126622445D01*
X127339494Y-126622441D01*
X127192997Y-126516006D01*
X127192996Y-126516005D01*
X127192994Y-126516004D01*
X127116906Y-126477235D01*
X127031639Y-126433788D01*
X127031636Y-126433787D01*
X126859410Y-126377829D01*
X126680551Y-126349500D01*
X126680546Y-126349500D01*
X126499454Y-126349500D01*
X126499449Y-126349500D01*
X126320589Y-126377829D01*
X126148363Y-126433787D01*
X126148360Y-126433788D01*
X125987002Y-126516006D01*
X125840505Y-126622441D01*
X125840500Y-126622445D01*
X125712445Y-126750500D01*
X125712441Y-126750505D01*
X125606006Y-126897002D01*
X125523788Y-127058360D01*
X125523787Y-127058363D01*
X125467829Y-127230589D01*
X125442219Y-127392280D01*
X125412289Y-127455414D01*
X125352978Y-127492345D01*
X125283115Y-127491347D01*
X125224883Y-127452737D01*
X125197273Y-127392279D01*
X125171682Y-127230706D01*
X125115748Y-127058555D01*
X125115747Y-127058552D01*
X125033571Y-126897275D01*
X125033566Y-126897267D01*
X125022085Y-126881466D01*
X124532962Y-127370589D01*
X124515925Y-127307007D01*
X124450099Y-127192993D01*
X124357007Y-127099901D01*
X124242993Y-127034075D01*
X124179409Y-127017037D01*
X124668533Y-126527913D01*
X124652730Y-126516431D01*
X124491447Y-126434252D01*
X124491444Y-126434251D01*
X124319293Y-126378317D01*
X124140506Y-126350000D01*
X123959494Y-126350000D01*
X123780706Y-126378317D01*
X123608555Y-126434251D01*
X123608547Y-126434254D01*
X123447269Y-126516432D01*
X123431466Y-126527912D01*
X123431466Y-126527913D01*
X123920591Y-127017037D01*
X123857007Y-127034075D01*
X123742993Y-127099901D01*
X123649901Y-127192993D01*
X123584075Y-127307007D01*
X123567037Y-127370590D01*
X123077912Y-126881466D01*
X123066432Y-126897269D01*
X122984254Y-127058547D01*
X122984251Y-127058555D01*
X122928317Y-127230706D01*
X122906972Y-127365471D01*
X122877043Y-127428606D01*
X122817731Y-127465537D01*
X122747868Y-127464539D01*
X122689636Y-127425929D01*
X122661522Y-127361965D01*
X122660499Y-127346073D01*
X122660499Y-126605143D01*
X122660499Y-126605136D01*
X122657585Y-126580009D01*
X122612206Y-126477235D01*
X122532765Y-126397794D01*
X122488654Y-126378317D01*
X122429992Y-126352415D01*
X122404865Y-126349500D01*
X120615143Y-126349500D01*
X120615117Y-126349502D01*
X120590012Y-126352413D01*
X120590008Y-126352415D01*
X120487235Y-126397793D01*
X120407794Y-126477234D01*
X120362415Y-126580006D01*
X120362415Y-126580008D01*
X120359500Y-126605131D01*
X120359500Y-128394856D01*
X120359502Y-128394882D01*
X120362413Y-128419987D01*
X120362415Y-128419991D01*
X120407793Y-128522764D01*
X120472848Y-128587819D01*
X120506333Y-128649142D01*
X120501349Y-128718834D01*
X120459477Y-128774767D01*
X120394013Y-128799184D01*
X120385167Y-128799500D01*
X112874500Y-128799500D01*
X112807461Y-128779815D01*
X112761706Y-128727011D01*
X112750500Y-128675500D01*
X112750500Y-126528011D01*
X112770185Y-126460972D01*
X112822989Y-126415217D01*
X112892147Y-126405273D01*
X112955703Y-126434298D01*
X112974815Y-126455122D01*
X113031395Y-126532997D01*
X113072447Y-126589501D01*
X113200500Y-126717554D01*
X113200505Y-126717558D01*
X113324374Y-126807553D01*
X113347006Y-126823996D01*
X113452484Y-126877740D01*
X113508360Y-126906211D01*
X113508363Y-126906212D01*
X113594476Y-126934191D01*
X113680591Y-126962171D01*
X113763429Y-126975291D01*
X113859449Y-126990500D01*
X113859454Y-126990500D01*
X114040551Y-126990500D01*
X114127259Y-126976765D01*
X114219409Y-126962171D01*
X114391639Y-126906211D01*
X114552994Y-126823996D01*
X114699501Y-126717553D01*
X114827553Y-126589501D01*
X114933996Y-126442994D01*
X115016211Y-126281639D01*
X115072171Y-126109409D01*
X115086765Y-126017259D01*
X115100500Y-125930551D01*
X115100500Y-125749448D01*
X115073238Y-125577330D01*
X115072171Y-125570591D01*
X115044191Y-125484476D01*
X115016212Y-125398363D01*
X115016211Y-125398360D01*
X114987740Y-125342484D01*
X114933996Y-125237006D01*
X114892942Y-125180500D01*
X114827558Y-125090505D01*
X114827554Y-125090500D01*
X114699499Y-124962445D01*
X114699494Y-124962441D01*
X114552997Y-124856006D01*
X114552996Y-124856005D01*
X114552994Y-124856004D01*
X114418205Y-124787325D01*
X114407140Y-124776875D01*
X114393297Y-124770553D01*
X114382255Y-124753372D01*
X114367409Y-124739350D01*
X114363167Y-124723670D01*
X114355523Y-124711775D01*
X114350500Y-124676840D01*
X114350500Y-124463159D01*
X114370185Y-124396120D01*
X114418202Y-124352675D01*
X114552994Y-124283996D01*
X114699501Y-124177553D01*
X114827553Y-124049501D01*
X114933996Y-123902994D01*
X115016211Y-123741639D01*
X115072171Y-123569409D01*
X115086765Y-123477259D01*
X115100500Y-123390551D01*
X115100500Y-123209448D01*
X115082823Y-123097844D01*
X116950000Y-123097844D01*
X116956401Y-123157372D01*
X116956403Y-123157379D01*
X117006645Y-123292086D01*
X117006649Y-123292093D01*
X117092809Y-123407187D01*
X117092812Y-123407190D01*
X117207906Y-123493350D01*
X117207913Y-123493354D01*
X117342624Y-123543598D01*
X117400000Y-123549765D01*
X117900000Y-123549765D01*
X117957375Y-123543598D01*
X118092086Y-123493354D01*
X118092093Y-123493350D01*
X118207187Y-123407190D01*
X118207190Y-123407187D01*
X118293350Y-123292093D01*
X118293354Y-123292086D01*
X118343596Y-123157379D01*
X118343598Y-123157372D01*
X118349999Y-123097844D01*
X118350000Y-123097827D01*
X118350000Y-122500000D01*
X117900000Y-122500000D01*
X117900000Y-123549765D01*
X117400000Y-123549765D01*
X117400000Y-122500000D01*
X116950000Y-122500000D01*
X116950000Y-123097844D01*
X115082823Y-123097844D01*
X115073238Y-123037330D01*
X115072171Y-123030591D01*
X115016211Y-122858361D01*
X115016211Y-122858360D01*
X114987740Y-122802484D01*
X114933996Y-122697006D01*
X114892942Y-122640500D01*
X114827558Y-122550505D01*
X114827554Y-122550500D01*
X114699499Y-122422445D01*
X114699494Y-122422441D01*
X114552997Y-122316006D01*
X114552996Y-122316005D01*
X114552994Y-122316004D01*
X114418205Y-122247325D01*
X114407140Y-122236875D01*
X114393297Y-122230553D01*
X114382255Y-122213372D01*
X114367409Y-122199350D01*
X114363167Y-122183670D01*
X114355523Y-122171775D01*
X114350500Y-122136840D01*
X114350500Y-121923159D01*
X114370185Y-121856120D01*
X114418202Y-121812675D01*
X114552994Y-121743996D01*
X114699501Y-121637553D01*
X114827553Y-121509501D01*
X114933996Y-121362994D01*
X115016211Y-121201639D01*
X115024175Y-121177129D01*
X115039488Y-121130000D01*
X115602332Y-121130000D01*
X115636596Y-121227922D01*
X115715358Y-121334641D01*
X115822080Y-121413405D01*
X115947271Y-121457212D01*
X115947269Y-121457212D01*
X115950000Y-121457467D01*
X115950000Y-121130000D01*
X116450000Y-121130000D01*
X116450000Y-121457467D01*
X116452729Y-121457212D01*
X116577919Y-121413405D01*
X116684640Y-121334641D01*
X116731715Y-121270857D01*
X116787363Y-121228606D01*
X116857019Y-121223147D01*
X116918568Y-121256214D01*
X116952470Y-121317308D01*
X116954776Y-121357744D01*
X116950000Y-121402169D01*
X116950000Y-122000000D01*
X117400000Y-122000000D01*
X117900000Y-122000000D01*
X118350000Y-122000000D01*
X118350000Y-121759521D01*
X120510922Y-121759521D01*
X120510922Y-121917635D01*
X120540281Y-122027202D01*
X120551845Y-122070361D01*
X120551848Y-122070368D01*
X120630897Y-122207287D01*
X120630901Y-122207292D01*
X120630902Y-122207294D01*
X120742706Y-122319098D01*
X120742708Y-122319099D01*
X120742712Y-122319102D01*
X120879631Y-122398151D01*
X120879638Y-122398155D01*
X121032365Y-122439078D01*
X121032373Y-122439078D01*
X121040425Y-122440139D01*
X121040003Y-122443336D01*
X121092540Y-122458763D01*
X121138295Y-122511567D01*
X121149501Y-122563078D01*
X121149501Y-123097876D01*
X121155908Y-123157483D01*
X121206202Y-123292328D01*
X121206206Y-123292335D01*
X121292452Y-123407544D01*
X121292455Y-123407547D01*
X121407664Y-123493793D01*
X121407671Y-123493797D01*
X121452618Y-123510561D01*
X121542517Y-123544091D01*
X121602127Y-123550500D01*
X122097872Y-123550499D01*
X122157483Y-123544091D01*
X122292331Y-123493796D01*
X122407546Y-123407546D01*
X122493796Y-123292331D01*
X122544091Y-123157483D01*
X122550500Y-123097873D01*
X122550499Y-121402128D01*
X122544091Y-121342517D01*
X122541368Y-121335217D01*
X122493797Y-121207671D01*
X122493793Y-121207664D01*
X122407547Y-121092455D01*
X122407544Y-121092452D01*
X122292335Y-121006206D01*
X122292328Y-121006202D01*
X122157486Y-120955910D01*
X122157485Y-120955909D01*
X122157483Y-120955909D01*
X122097873Y-120949500D01*
X122097863Y-120949500D01*
X121602129Y-120949500D01*
X121602123Y-120949501D01*
X121542516Y-120955908D01*
X121407671Y-121006202D01*
X121407664Y-121006206D01*
X121292455Y-121092452D01*
X121292452Y-121092455D01*
X121220636Y-121188389D01*
X121164702Y-121230260D01*
X121121370Y-121238078D01*
X121032365Y-121238078D01*
X120879638Y-121279001D01*
X120879631Y-121279004D01*
X120742712Y-121358053D01*
X120742704Y-121358059D01*
X120630903Y-121469860D01*
X120630897Y-121469868D01*
X120551848Y-121606787D01*
X120551845Y-121606794D01*
X120510922Y-121759521D01*
X118350000Y-121759521D01*
X118350000Y-121402172D01*
X118349999Y-121402155D01*
X118343598Y-121342627D01*
X118343596Y-121342620D01*
X118293354Y-121207913D01*
X118293350Y-121207906D01*
X118207190Y-121092812D01*
X118207187Y-121092809D01*
X118092093Y-121006649D01*
X118092086Y-121006645D01*
X117957380Y-120956403D01*
X117957373Y-120956401D01*
X117900000Y-120950232D01*
X117900000Y-122000000D01*
X117400000Y-122000000D01*
X117400000Y-120950233D01*
X117399999Y-120950232D01*
X117342626Y-120956401D01*
X117342619Y-120956403D01*
X117207913Y-121006645D01*
X117207906Y-121006649D01*
X117092812Y-121092809D01*
X117029690Y-121177129D01*
X116973756Y-121218999D01*
X116904064Y-121223983D01*
X116842742Y-121190497D01*
X116829294Y-121174572D01*
X116797669Y-121130000D01*
X116450000Y-121130000D01*
X115950000Y-121130000D01*
X115602332Y-121130000D01*
X115039488Y-121130000D01*
X115058277Y-121072172D01*
X115058277Y-121072171D01*
X115072171Y-121029409D01*
X115100500Y-120850551D01*
X115100500Y-120669448D01*
X115080933Y-120545913D01*
X115072171Y-120490591D01*
X115040273Y-120392416D01*
X115016212Y-120318363D01*
X115016211Y-120318360D01*
X114979991Y-120247275D01*
X114933996Y-120157006D01*
X114872227Y-120071988D01*
X114827558Y-120010505D01*
X114827554Y-120010500D01*
X114699499Y-119882445D01*
X114699494Y-119882441D01*
X114552997Y-119776006D01*
X114552996Y-119776005D01*
X114552994Y-119776004D01*
X114418205Y-119707325D01*
X114407140Y-119696875D01*
X114393297Y-119690553D01*
X114382255Y-119673372D01*
X114367409Y-119659350D01*
X114363167Y-119643670D01*
X114355523Y-119631775D01*
X114350500Y-119596840D01*
X114350500Y-119383159D01*
X114370185Y-119316120D01*
X114418202Y-119272675D01*
X114552994Y-119203996D01*
X114699501Y-119097553D01*
X114827553Y-118969501D01*
X114933996Y-118822994D01*
X115015750Y-118662544D01*
X115063725Y-118611748D01*
X115131546Y-118594953D01*
X115197681Y-118617491D01*
X115241132Y-118672206D01*
X115250235Y-118718839D01*
X115250235Y-118778322D01*
X115287779Y-118918436D01*
X115291158Y-118931048D01*
X115291161Y-118931055D01*
X115370210Y-119067974D01*
X115370214Y-119067979D01*
X115370215Y-119067981D01*
X115482019Y-119179785D01*
X115482021Y-119179786D01*
X115482025Y-119179789D01*
X115600037Y-119247922D01*
X115618951Y-119258842D01*
X115650497Y-119267294D01*
X115710157Y-119303659D01*
X115740686Y-119366506D01*
X115732391Y-119435881D01*
X115718173Y-119460703D01*
X115636147Y-119571844D01*
X115592291Y-119697173D01*
X115592289Y-119697185D01*
X115589500Y-119726929D01*
X115589500Y-120113070D01*
X115592289Y-120142814D01*
X115592291Y-120142826D01*
X115636147Y-120268155D01*
X115679419Y-120326787D01*
X115703390Y-120392416D01*
X115688074Y-120460587D01*
X115679419Y-120474055D01*
X115636596Y-120532077D01*
X115602332Y-120630000D01*
X116797668Y-120630000D01*
X116763403Y-120532077D01*
X116720581Y-120474056D01*
X116696609Y-120408427D01*
X116711924Y-120340257D01*
X116720572Y-120326798D01*
X116763852Y-120268157D01*
X116802747Y-120157002D01*
X116807708Y-120142826D01*
X116807708Y-120142823D01*
X116807710Y-120142819D01*
X116810500Y-120113066D01*
X116810500Y-119726934D01*
X116807710Y-119697181D01*
X116807708Y-119697177D01*
X116807708Y-119697173D01*
X116763852Y-119571844D01*
X116763852Y-119571843D01*
X116684999Y-119465001D01*
X116679176Y-119460703D01*
X116650866Y-119439809D01*
X116608615Y-119384161D01*
X116600500Y-119340039D01*
X116600500Y-118995804D01*
X116600499Y-118995800D01*
X116595161Y-118975877D01*
X116595161Y-118975878D01*
X116573207Y-118893942D01*
X116520480Y-118802617D01*
X116487554Y-118769691D01*
X116454069Y-118708368D01*
X116451235Y-118682010D01*
X116451235Y-118620210D01*
X116451235Y-118620208D01*
X116410312Y-118467481D01*
X116401413Y-118452067D01*
X116331259Y-118330555D01*
X116331253Y-118330547D01*
X116287554Y-118286848D01*
X116272850Y-118259920D01*
X116256258Y-118234102D01*
X116255366Y-118227901D01*
X116254069Y-118225525D01*
X116251235Y-118199167D01*
X116251235Y-118130834D01*
X116270920Y-118063795D01*
X116287554Y-118043153D01*
X116319574Y-118011133D01*
X116380897Y-117977648D01*
X116407255Y-117974814D01*
X116469055Y-117974814D01*
X116469057Y-117974814D01*
X116621784Y-117933891D01*
X116758716Y-117854834D01*
X116778639Y-117834910D01*
X116839958Y-117801427D01*
X116909649Y-117806410D01*
X116965584Y-117848281D01*
X116967447Y-117850837D01*
X117002330Y-117900000D01*
X117476000Y-117900000D01*
X117543039Y-117919685D01*
X117588794Y-117972489D01*
X117600000Y-118024000D01*
X117600000Y-118276000D01*
X117580315Y-118343039D01*
X117527511Y-118388794D01*
X117476000Y-118400000D01*
X117002332Y-118400000D01*
X117036596Y-118497922D01*
X117079419Y-118555945D01*
X117103390Y-118621574D01*
X117088075Y-118689744D01*
X117079419Y-118703213D01*
X117036147Y-118761844D01*
X116992291Y-118887173D01*
X116992289Y-118887185D01*
X116989500Y-118916929D01*
X116989500Y-119303070D01*
X116992289Y-119332814D01*
X116992291Y-119332826D01*
X117035729Y-119456961D01*
X117036148Y-119458157D01*
X117115001Y-119564999D01*
X117221843Y-119643852D01*
X117227232Y-119645737D01*
X117273961Y-119675099D01*
X117925651Y-120326787D01*
X118144774Y-120545910D01*
X118144776Y-120545913D01*
X118219343Y-120620480D01*
X118265006Y-120646843D01*
X118310668Y-120673207D01*
X118412529Y-120700500D01*
X118412531Y-120700500D01*
X122087469Y-120700500D01*
X122087471Y-120700500D01*
X122189332Y-120673207D01*
X122280657Y-120620480D01*
X122670480Y-120230657D01*
X122713002Y-120157006D01*
X122723207Y-120139331D01*
X122750500Y-120037471D01*
X122750500Y-119979150D01*
X122753933Y-119964865D01*
X122764313Y-119946794D01*
X122770185Y-119926800D01*
X122781366Y-119917111D01*
X122788737Y-119904281D01*
X122807240Y-119894691D01*
X122822989Y-119881045D01*
X122837634Y-119878939D01*
X122850771Y-119872131D01*
X122871519Y-119874066D01*
X122892147Y-119871101D01*
X122907578Y-119877431D01*
X122920338Y-119878622D01*
X122931188Y-119887117D01*
X122948134Y-119894069D01*
X123042077Y-119963403D01*
X123140000Y-119997668D01*
X123140000Y-119524000D01*
X123159685Y-119456961D01*
X123212489Y-119411206D01*
X123264000Y-119400000D01*
X123516000Y-119400000D01*
X123583039Y-119419685D01*
X123628794Y-119472489D01*
X123640000Y-119524000D01*
X123640000Y-119997667D01*
X123737922Y-119963403D01*
X123795943Y-119920581D01*
X123861571Y-119896609D01*
X123929742Y-119911923D01*
X123943208Y-119920577D01*
X124001843Y-119963852D01*
X124040003Y-119977204D01*
X124127173Y-120007708D01*
X124127177Y-120007708D01*
X124127181Y-120007710D01*
X124142057Y-120009105D01*
X124156930Y-120010500D01*
X124156934Y-120010500D01*
X124543070Y-120010500D01*
X124556289Y-120009260D01*
X124572819Y-120007710D01*
X124572823Y-120007708D01*
X124572826Y-120007708D01*
X124621836Y-119990557D01*
X124698157Y-119963852D01*
X124804999Y-119884999D01*
X124883852Y-119778157D01*
X124920518Y-119673372D01*
X124927708Y-119652826D01*
X124927708Y-119652823D01*
X124927710Y-119652819D01*
X124930500Y-119623066D01*
X124930500Y-119176934D01*
X124930500Y-119176928D01*
X124927975Y-119150000D01*
X127652332Y-119150000D01*
X127686596Y-119247922D01*
X127765358Y-119354641D01*
X127872080Y-119433405D01*
X127997271Y-119477212D01*
X127997269Y-119477212D01*
X128000000Y-119477467D01*
X128000000Y-119150000D01*
X127652332Y-119150000D01*
X124927975Y-119150000D01*
X124927711Y-119147187D01*
X124927708Y-119147173D01*
X124896250Y-119057273D01*
X124883852Y-119021843D01*
X124804999Y-118915001D01*
X124804997Y-118915000D01*
X124799481Y-118907525D01*
X124802028Y-118905645D01*
X124776223Y-118858387D01*
X124781207Y-118788695D01*
X124813893Y-118740354D01*
X124850000Y-118707468D01*
X124850000Y-118707467D01*
X125350000Y-118707467D01*
X125352729Y-118707212D01*
X125477920Y-118663405D01*
X125556729Y-118605240D01*
X125622357Y-118581268D01*
X125690528Y-118596583D01*
X125707624Y-118609471D01*
X125707882Y-118609123D01*
X125822080Y-118693405D01*
X125947271Y-118737212D01*
X125947269Y-118737212D01*
X125950000Y-118737467D01*
X126450000Y-118737467D01*
X126452729Y-118737212D01*
X126577919Y-118693405D01*
X126684641Y-118614641D01*
X126763403Y-118507922D01*
X126797668Y-118410000D01*
X126450000Y-118410000D01*
X126450000Y-118737467D01*
X125950000Y-118737467D01*
X125950000Y-118410000D01*
X125541362Y-118410000D01*
X125474323Y-118390315D01*
X125461523Y-118380000D01*
X125350000Y-118380000D01*
X125350000Y-118707467D01*
X124850000Y-118707467D01*
X124850000Y-118254000D01*
X124869685Y-118186961D01*
X124922489Y-118141206D01*
X124974000Y-118130000D01*
X125100000Y-118130000D01*
X125100000Y-118004000D01*
X125119685Y-117936961D01*
X125172489Y-117891206D01*
X125224000Y-117880000D01*
X125758638Y-117880000D01*
X125825677Y-117899685D01*
X125838477Y-117910000D01*
X126797668Y-117910000D01*
X126763402Y-117812075D01*
X126753113Y-117798133D01*
X126729142Y-117732504D01*
X126744458Y-117664334D01*
X126794198Y-117615266D01*
X126852883Y-117600500D01*
X127292745Y-117600500D01*
X127359784Y-117620185D01*
G37*
%TD.AperFunction*%
%TA.AperFunction,Conductor*%
G36*
X122865702Y-127560214D02*
G01*
X122903476Y-127618992D01*
X122906972Y-127634529D01*
X122928317Y-127769293D01*
X122984251Y-127941444D01*
X122984252Y-127941447D01*
X123066431Y-128102730D01*
X123077913Y-128118532D01*
X123077913Y-128118533D01*
X123567037Y-127629409D01*
X123584075Y-127692993D01*
X123649901Y-127807007D01*
X123742993Y-127900099D01*
X123857007Y-127965925D01*
X123920590Y-127982962D01*
X123431466Y-128472085D01*
X123431466Y-128472086D01*
X123447267Y-128483566D01*
X123447275Y-128483571D01*
X123607116Y-128565015D01*
X123657912Y-128612990D01*
X123674707Y-128680811D01*
X123652169Y-128746946D01*
X123597454Y-128790397D01*
X123550821Y-128799500D01*
X122634833Y-128799500D01*
X122567794Y-128779815D01*
X122522039Y-128727011D01*
X122512095Y-128657853D01*
X122541120Y-128594297D01*
X122547152Y-128587819D01*
X122569956Y-128565015D01*
X122612206Y-128522765D01*
X122657585Y-128419991D01*
X122660500Y-128394865D01*
X122660499Y-127653925D01*
X122680183Y-127586888D01*
X122732987Y-127541133D01*
X122802146Y-127531189D01*
X122865702Y-127560214D01*
G37*
%TD.AperFunction*%
%TA.AperFunction,Conductor*%
G36*
X125356376Y-127508652D02*
G01*
X125414609Y-127547261D01*
X125442219Y-127607720D01*
X125467828Y-127769410D01*
X125523787Y-127941636D01*
X125523788Y-127941639D01*
X125579664Y-128051300D01*
X125605869Y-128102730D01*
X125606006Y-128102997D01*
X125712441Y-128249494D01*
X125712445Y-128249499D01*
X125840500Y-128377554D01*
X125840505Y-128377558D01*
X125968287Y-128470396D01*
X125987006Y-128483996D01*
X126101552Y-128542360D01*
X126146013Y-128565015D01*
X126196809Y-128612990D01*
X126213604Y-128680811D01*
X126191066Y-128746946D01*
X126136351Y-128790397D01*
X126089718Y-128799500D01*
X124549179Y-128799500D01*
X124482140Y-128779815D01*
X124436385Y-128727011D01*
X124426441Y-128657853D01*
X124455466Y-128594297D01*
X124492883Y-128565016D01*
X124652730Y-128483568D01*
X124668532Y-128472085D01*
X124668533Y-128472085D01*
X124179410Y-127982962D01*
X124242993Y-127965925D01*
X124357007Y-127900099D01*
X124450099Y-127807007D01*
X124515925Y-127692993D01*
X124532962Y-127629410D01*
X125022085Y-128118533D01*
X125022085Y-128118532D01*
X125033568Y-128102730D01*
X125115745Y-127941452D01*
X125115748Y-127941444D01*
X125171683Y-127769292D01*
X125197273Y-127607721D01*
X125227202Y-127544586D01*
X125286513Y-127507654D01*
X125356376Y-127508652D01*
G37*
%TD.AperFunction*%
%TA.AperFunction,Conductor*%
G36*
X133822085Y-121468532D02*
G01*
X133833568Y-121452730D01*
X133915745Y-121291452D01*
X133915748Y-121291444D01*
X133957569Y-121162731D01*
X133997006Y-121105056D01*
X134061364Y-121077857D01*
X134130211Y-121089771D01*
X134181687Y-121137015D01*
X134199500Y-121201049D01*
X134199500Y-123037330D01*
X134179815Y-123104369D01*
X134127011Y-123150124D01*
X134057853Y-123160068D01*
X133994297Y-123131043D01*
X133957569Y-123075648D01*
X133916212Y-122948363D01*
X133916211Y-122948360D01*
X133870353Y-122858360D01*
X133833996Y-122787006D01*
X133768605Y-122697002D01*
X133727558Y-122640505D01*
X133727554Y-122640500D01*
X133599499Y-122512445D01*
X133599494Y-122512441D01*
X133452997Y-122406006D01*
X133452996Y-122406005D01*
X133452994Y-122406004D01*
X133401300Y-122379664D01*
X133291639Y-122323788D01*
X133291636Y-122323787D01*
X133119410Y-122267828D01*
X132957720Y-122242219D01*
X132894585Y-122212289D01*
X132857654Y-122152978D01*
X132858652Y-122083115D01*
X132897262Y-122024883D01*
X132957721Y-121997273D01*
X133119292Y-121971683D01*
X133291444Y-121915748D01*
X133291452Y-121915745D01*
X133452730Y-121833568D01*
X133468532Y-121822085D01*
X133468533Y-121822085D01*
X132979410Y-121332962D01*
X133042993Y-121315925D01*
X133157007Y-121250099D01*
X133250099Y-121157007D01*
X133315925Y-121042993D01*
X133332962Y-120979409D01*
X133822085Y-121468532D01*
G37*
%TD.AperFunction*%
%TA.AperFunction,Conductor*%
G36*
X130079342Y-114509144D02*
G01*
X130109329Y-114515668D01*
X130114344Y-114519422D01*
X130116941Y-114520185D01*
X130137583Y-114536819D01*
X130181284Y-114580520D01*
X130181286Y-114580521D01*
X130181290Y-114580524D01*
X130318209Y-114659573D01*
X130318216Y-114659577D01*
X130470943Y-114700500D01*
X130470945Y-114700500D01*
X130625500Y-114700500D01*
X130692539Y-114720185D01*
X130738294Y-114772989D01*
X130749500Y-114824500D01*
X130749500Y-116557273D01*
X130749500Y-116662727D01*
X130760781Y-116704829D01*
X130776793Y-116764589D01*
X130785584Y-116779815D01*
X130829520Y-116855913D01*
X130829522Y-116855915D01*
X131744325Y-117770718D01*
X131777810Y-117832041D01*
X131774575Y-117896716D01*
X131727829Y-118040587D01*
X131699500Y-118219448D01*
X131699500Y-118400551D01*
X131727829Y-118579410D01*
X131783787Y-118751636D01*
X131783788Y-118751639D01*
X131838180Y-118858387D01*
X131863217Y-118907525D01*
X131866006Y-118912997D01*
X131972441Y-119059494D01*
X131972445Y-119059499D01*
X132100500Y-119187554D01*
X132100505Y-119187558D01*
X132183590Y-119247922D01*
X132247006Y-119293996D01*
X132323200Y-119332819D01*
X132408360Y-119376211D01*
X132408363Y-119376212D01*
X132481577Y-119400000D01*
X132580591Y-119432171D01*
X132700038Y-119451089D01*
X132742279Y-119457780D01*
X132805414Y-119487709D01*
X132842345Y-119547021D01*
X132841347Y-119616883D01*
X132802737Y-119675116D01*
X132742279Y-119702726D01*
X132580706Y-119728317D01*
X132408555Y-119784251D01*
X132408547Y-119784254D01*
X132247269Y-119866432D01*
X132231466Y-119877912D01*
X132231466Y-119877913D01*
X132720591Y-120367037D01*
X132657007Y-120384075D01*
X132542993Y-120449901D01*
X132449901Y-120542993D01*
X132384075Y-120657007D01*
X132367037Y-120720590D01*
X131877912Y-120231466D01*
X131866432Y-120247269D01*
X131784254Y-120408547D01*
X131784251Y-120408555D01*
X131728317Y-120580706D01*
X131700000Y-120759493D01*
X131700000Y-120940506D01*
X131728317Y-121119293D01*
X131784251Y-121291444D01*
X131784252Y-121291447D01*
X131866431Y-121452730D01*
X131877913Y-121468532D01*
X131877913Y-121468533D01*
X132367037Y-120979409D01*
X132384075Y-121042993D01*
X132449901Y-121157007D01*
X132542993Y-121250099D01*
X132657007Y-121315925D01*
X132720590Y-121332962D01*
X132231466Y-121822085D01*
X132231466Y-121822086D01*
X132247267Y-121833566D01*
X132247275Y-121833571D01*
X132408552Y-121915747D01*
X132408555Y-121915748D01*
X132580706Y-121971682D01*
X132742279Y-121997273D01*
X132805413Y-122027202D01*
X132842345Y-122086513D01*
X132841347Y-122156376D01*
X132802738Y-122214609D01*
X132742280Y-122242219D01*
X132580589Y-122267829D01*
X132408363Y-122323787D01*
X132408360Y-122323788D01*
X132247002Y-122406006D01*
X132100505Y-122512441D01*
X132100500Y-122512445D01*
X131972445Y-122640500D01*
X131972441Y-122640505D01*
X131866006Y-122787002D01*
X131797325Y-122921795D01*
X131749350Y-122972591D01*
X131686840Y-122989500D01*
X131092941Y-122989500D01*
X131025902Y-122969815D01*
X131005260Y-122953181D01*
X129776819Y-121724740D01*
X129743334Y-121663417D01*
X129740500Y-121637059D01*
X129740500Y-117705455D01*
X129740500Y-117705454D01*
X129733131Y-117677953D01*
X129733131Y-117677952D01*
X129733131Y-117677951D01*
X129713208Y-117603595D01*
X129711421Y-117600500D01*
X129660480Y-117512268D01*
X128596419Y-116448207D01*
X127529453Y-115381240D01*
X127518840Y-115361803D01*
X127504340Y-115345070D01*
X127502423Y-115331738D01*
X127495968Y-115319917D01*
X127497547Y-115297830D01*
X127494396Y-115275912D01*
X127499991Y-115263660D01*
X127500952Y-115250225D01*
X127514222Y-115232498D01*
X127523421Y-115212356D01*
X127534752Y-115205073D01*
X127542824Y-115194292D01*
X127563569Y-115186554D01*
X127582199Y-115174582D01*
X127604117Y-115171430D01*
X127608288Y-115169875D01*
X127617134Y-115169559D01*
X127631076Y-115169559D01*
X127698115Y-115189244D01*
X127718757Y-115205878D01*
X127752304Y-115239425D01*
X127752306Y-115239426D01*
X127752310Y-115239429D01*
X127838121Y-115288971D01*
X127889236Y-115318482D01*
X128041963Y-115359405D01*
X128041965Y-115359405D01*
X128200075Y-115359405D01*
X128200077Y-115359405D01*
X128352804Y-115318482D01*
X128489736Y-115239425D01*
X128601540Y-115127621D01*
X128680597Y-114990689D01*
X128721520Y-114837962D01*
X128721520Y-114680571D01*
X128741205Y-114613532D01*
X128794009Y-114567777D01*
X128813422Y-114560797D01*
X128882585Y-114542266D01*
X128899547Y-114532473D01*
X128926152Y-114517113D01*
X128988152Y-114500500D01*
X130049902Y-114500500D01*
X130079342Y-114509144D01*
G37*
%TD.AperFunction*%
%TA.AperFunction,Conductor*%
G36*
X134130211Y-118551391D02*
G01*
X134181687Y-118598635D01*
X134199500Y-118662669D01*
X134199500Y-120498950D01*
X134179815Y-120565989D01*
X134127011Y-120611744D01*
X134057853Y-120621688D01*
X133994297Y-120592663D01*
X133957569Y-120537268D01*
X133915748Y-120408555D01*
X133915747Y-120408552D01*
X133833571Y-120247275D01*
X133833566Y-120247267D01*
X133822085Y-120231466D01*
X133332962Y-120720589D01*
X133315925Y-120657007D01*
X133250099Y-120542993D01*
X133157007Y-120449901D01*
X133042993Y-120384075D01*
X132979409Y-120367037D01*
X133468533Y-119877913D01*
X133452730Y-119866431D01*
X133291447Y-119784252D01*
X133291444Y-119784251D01*
X133119293Y-119728317D01*
X132957720Y-119702726D01*
X132894585Y-119672797D01*
X132857654Y-119613485D01*
X132858652Y-119543623D01*
X132897262Y-119485390D01*
X132957720Y-119457780D01*
X132972270Y-119455475D01*
X133119409Y-119432171D01*
X133291639Y-119376211D01*
X133452994Y-119293996D01*
X133599501Y-119187553D01*
X133727553Y-119059501D01*
X133833996Y-118912994D01*
X133916211Y-118751639D01*
X133937863Y-118684999D01*
X133957569Y-118624351D01*
X133997006Y-118566676D01*
X134061364Y-118539477D01*
X134130211Y-118551391D01*
G37*
%TD.AperFunction*%
%TA.AperFunction,Conductor*%
G36*
X120311174Y-118131930D02*
G01*
X120359651Y-118182247D01*
X120365079Y-118194132D01*
X120391023Y-118259920D01*
X120415639Y-118322343D01*
X120506808Y-118442566D01*
X120507078Y-118442922D01*
X120518401Y-118451508D01*
X120559924Y-118507698D01*
X120564478Y-118577420D01*
X120530615Y-118638535D01*
X120518406Y-118649114D01*
X120507437Y-118657432D01*
X120416078Y-118777906D01*
X120365622Y-118905853D01*
X120322716Y-118960996D01*
X120256808Y-118984189D01*
X120188824Y-118968068D01*
X120140348Y-118917751D01*
X120134920Y-118905868D01*
X120094204Y-118802617D01*
X120084361Y-118777657D01*
X119992921Y-118657076D01*
X119981599Y-118648491D01*
X119940074Y-118592300D01*
X119935521Y-118522578D01*
X119969385Y-118461464D01*
X119981600Y-118450880D01*
X119992563Y-118442566D01*
X120083920Y-118322095D01*
X120134376Y-118194147D01*
X120177282Y-118139003D01*
X120243190Y-118115810D01*
X120311174Y-118131930D01*
G37*
%TD.AperFunction*%
%TA.AperFunction,Conductor*%
G36*
X122722942Y-116057165D02*
G01*
X122727453Y-116056394D01*
X122731594Y-116057610D01*
X122736997Y-116057888D01*
X122811929Y-116072625D01*
X122840301Y-116087388D01*
X122869378Y-116100733D01*
X122871090Y-116103408D01*
X122873910Y-116104876D01*
X122889804Y-116132648D01*
X122907042Y-116159582D01*
X122907036Y-116162758D01*
X122908615Y-116165517D01*
X122912000Y-116194294D01*
X122912000Y-116333827D01*
X122919827Y-116363039D01*
X122930436Y-116402631D01*
X122928773Y-116472481D01*
X122889610Y-116530343D01*
X122851616Y-116551765D01*
X122752080Y-116586594D01*
X122645358Y-116665358D01*
X122566594Y-116772080D01*
X122522787Y-116897272D01*
X122522786Y-116897274D01*
X122522530Y-116899999D01*
X122522531Y-116900000D01*
X122976000Y-116900000D01*
X123043039Y-116919685D01*
X123088794Y-116972489D01*
X123100000Y-117024000D01*
X123100000Y-117150000D01*
X123226000Y-117150000D01*
X123293039Y-117169685D01*
X123338794Y-117222489D01*
X123350000Y-117274000D01*
X123350000Y-118076000D01*
X123330315Y-118143039D01*
X123277511Y-118188794D01*
X123226000Y-118200000D01*
X122974000Y-118200000D01*
X122906961Y-118180315D01*
X122861206Y-118127511D01*
X122850000Y-118076000D01*
X122850000Y-117400000D01*
X122471680Y-117400000D01*
X122404641Y-117380315D01*
X122358886Y-117327511D01*
X122348565Y-117290788D01*
X122339877Y-117218436D01*
X122284361Y-117077658D01*
X122284360Y-117077657D01*
X122284360Y-117077656D01*
X122192922Y-116957077D01*
X122072343Y-116865639D01*
X121957878Y-116820500D01*
X121931564Y-116810123D01*
X121931563Y-116810122D01*
X121931561Y-116810122D01*
X121885926Y-116804642D01*
X121843102Y-116799500D01*
X121843097Y-116799500D01*
X121153032Y-116799500D01*
X121085993Y-116779815D01*
X121040238Y-116727011D01*
X121030294Y-116657853D01*
X121033254Y-116643418D01*
X121050500Y-116579057D01*
X121050500Y-116420943D01*
X121009577Y-116268216D01*
X121009574Y-116268210D01*
X121007111Y-116263943D01*
X121002961Y-116248455D01*
X120995522Y-116236880D01*
X120990499Y-116201945D01*
X120990499Y-116180812D01*
X121010184Y-116113773D01*
X121062988Y-116068018D01*
X121132146Y-116058074D01*
X121151500Y-116064038D01*
X121151905Y-116062730D01*
X121161107Y-116065573D01*
X121229239Y-116075500D01*
X121229240Y-116075500D01*
X121395755Y-116075500D01*
X121395760Y-116075500D01*
X121463893Y-116065573D01*
X121463896Y-116065571D01*
X121463899Y-116065571D01*
X121473096Y-116062730D01*
X121474016Y-116065709D01*
X121526890Y-116056673D01*
X121551539Y-116063910D01*
X121551904Y-116062730D01*
X121561100Y-116065571D01*
X121561104Y-116065571D01*
X121561107Y-116065573D01*
X121629240Y-116075500D01*
X121629245Y-116075500D01*
X121795755Y-116075500D01*
X121795760Y-116075500D01*
X121863893Y-116065573D01*
X121863896Y-116065571D01*
X121863899Y-116065571D01*
X121873096Y-116062730D01*
X121874016Y-116065709D01*
X121926890Y-116056673D01*
X121951539Y-116063910D01*
X121951904Y-116062730D01*
X121961100Y-116065571D01*
X121961104Y-116065571D01*
X121961107Y-116065573D01*
X122029240Y-116075500D01*
X122029245Y-116075500D01*
X122195755Y-116075500D01*
X122195760Y-116075500D01*
X122263893Y-116065573D01*
X122263896Y-116065571D01*
X122263899Y-116065571D01*
X122273096Y-116062730D01*
X122274016Y-116065709D01*
X122326890Y-116056673D01*
X122351539Y-116063910D01*
X122351904Y-116062730D01*
X122361100Y-116065571D01*
X122361104Y-116065571D01*
X122361107Y-116065573D01*
X122429240Y-116075500D01*
X122429245Y-116075500D01*
X122595755Y-116075500D01*
X122595760Y-116075500D01*
X122663893Y-116065573D01*
X122663896Y-116065571D01*
X122663899Y-116065571D01*
X122673096Y-116062730D01*
X122673963Y-116065539D01*
X122680796Y-116064370D01*
X122701749Y-116056075D01*
X122722942Y-116057165D01*
G37*
%TD.AperFunction*%
%TA.AperFunction,Conductor*%
G36*
X116952337Y-115886568D02*
G01*
X116996996Y-115920000D01*
X117476000Y-115920000D01*
X117543039Y-115939685D01*
X117588794Y-115992489D01*
X117600000Y-116044000D01*
X117600000Y-116296000D01*
X117580315Y-116363039D01*
X117527511Y-116408794D01*
X117476000Y-116420000D01*
X117002332Y-116420000D01*
X117036596Y-116517922D01*
X117079419Y-116575945D01*
X117103390Y-116641574D01*
X117090660Y-116704829D01*
X117085841Y-116714510D01*
X117036148Y-116781843D01*
X116997829Y-116891349D01*
X116994362Y-116898317D01*
X116975683Y-116918471D01*
X116959669Y-116940799D01*
X116952274Y-116943729D01*
X116946869Y-116949563D01*
X116920260Y-116956419D01*
X116894716Y-116966545D01*
X116886912Y-116965013D01*
X116879210Y-116966998D01*
X116853118Y-116958380D01*
X116826155Y-116953088D01*
X116817178Y-116946509D01*
X116812865Y-116945085D01*
X116809408Y-116940815D01*
X116795670Y-116930748D01*
X116758717Y-116893795D01*
X116758709Y-116893789D01*
X116621790Y-116814740D01*
X116621786Y-116814738D01*
X116621784Y-116814737D01*
X116469057Y-116773814D01*
X116310943Y-116773814D01*
X116310941Y-116773814D01*
X116282070Y-116781550D01*
X116212220Y-116779886D01*
X116154358Y-116740723D01*
X116126855Y-116676494D01*
X116138442Y-116607592D01*
X116162294Y-116574097D01*
X116821324Y-115915067D01*
X116882645Y-115881584D01*
X116952337Y-115886568D01*
G37*
%TD.AperFunction*%
%TA.AperFunction,Conductor*%
G36*
X123517239Y-109434078D02*
G01*
X123523717Y-109440110D01*
X124404087Y-110320480D01*
X124495412Y-110373207D01*
X124597273Y-110400500D01*
X125288000Y-110400500D01*
X125355039Y-110420185D01*
X125400794Y-110472989D01*
X125412000Y-110524500D01*
X125412000Y-113345578D01*
X125392315Y-113412617D01*
X125339511Y-113458372D01*
X125330675Y-113461549D01*
X125324052Y-113464292D01*
X125232727Y-113517020D01*
X125232723Y-113517023D01*
X125120977Y-113628768D01*
X125059654Y-113662252D01*
X124989962Y-113657267D01*
X124945616Y-113628767D01*
X124836329Y-113519480D01*
X124836321Y-113519474D01*
X124699402Y-113440425D01*
X124699398Y-113440423D01*
X124699396Y-113440422D01*
X124546669Y-113399499D01*
X124388555Y-113399499D01*
X124235828Y-113440422D01*
X124235821Y-113440425D01*
X124098902Y-113519474D01*
X124098894Y-113519480D01*
X123987093Y-113631281D01*
X123987087Y-113631289D01*
X123908038Y-113768208D01*
X123908035Y-113768213D01*
X123893000Y-113824327D01*
X123856634Y-113883987D01*
X123793787Y-113914516D01*
X123724412Y-113906221D01*
X123697742Y-113890611D01*
X123695575Y-113888949D01*
X123558650Y-113809896D01*
X123558646Y-113809894D01*
X123558644Y-113809893D01*
X123405917Y-113768970D01*
X123247803Y-113768970D01*
X123095076Y-113809893D01*
X123095069Y-113809896D01*
X122958150Y-113888945D01*
X122958142Y-113888951D01*
X122846341Y-114000752D01*
X122846335Y-114000760D01*
X122767286Y-114137679D01*
X122767283Y-114137686D01*
X122726360Y-114290413D01*
X122726360Y-114448525D01*
X122727421Y-114456583D01*
X122724778Y-114456930D01*
X122723414Y-114513653D01*
X122684236Y-114571506D01*
X122620001Y-114598994D01*
X122600247Y-114599452D01*
X122600247Y-114599500D01*
X122598201Y-114599500D01*
X122596348Y-114599543D01*
X122595764Y-114599500D01*
X122595760Y-114599500D01*
X122429240Y-114599500D01*
X122429239Y-114599500D01*
X122361111Y-114609425D01*
X122351908Y-114612270D01*
X122350988Y-114609294D01*
X122298075Y-114618323D01*
X122288389Y-114616798D01*
X122272547Y-114613657D01*
X122263893Y-114609427D01*
X122216005Y-114602449D01*
X122212889Y-114601832D01*
X122184613Y-114587065D01*
X122155620Y-114573758D01*
X122153856Y-114571002D01*
X122150957Y-114569488D01*
X122135154Y-114541780D01*
X122117957Y-114514909D01*
X122117331Y-114510530D01*
X122116342Y-114508795D01*
X122116542Y-114505005D01*
X122113000Y-114480199D01*
X122113000Y-114350912D01*
X122109836Y-114339105D01*
X122109835Y-114339101D01*
X122085708Y-114249053D01*
X122060973Y-114206212D01*
X122032980Y-114157727D01*
X121532918Y-113657665D01*
X121499433Y-113596342D01*
X121504417Y-113526650D01*
X121546289Y-113470717D01*
X121558590Y-113462602D01*
X121670065Y-113398243D01*
X121781869Y-113286439D01*
X121860926Y-113149507D01*
X121901849Y-112996780D01*
X121901849Y-112838666D01*
X121860926Y-112685939D01*
X121840981Y-112651393D01*
X121781873Y-112549013D01*
X121781867Y-112549005D01*
X121738168Y-112505306D01*
X121704683Y-112443983D01*
X121701849Y-112417625D01*
X121701849Y-111074500D01*
X121721534Y-111007461D01*
X121774338Y-110961706D01*
X121825849Y-110950500D01*
X121891553Y-110950500D01*
X121891555Y-110950500D01*
X122044282Y-110909577D01*
X122181214Y-110830520D01*
X122293018Y-110718716D01*
X122372075Y-110581784D01*
X122412998Y-110429057D01*
X122412998Y-110270943D01*
X122385751Y-110169255D01*
X122387414Y-110099408D01*
X122426576Y-110041545D01*
X122490805Y-110014041D01*
X122537617Y-110017388D01*
X122632479Y-110042807D01*
X122632481Y-110042807D01*
X122790591Y-110042807D01*
X122790593Y-110042807D01*
X122943320Y-110001884D01*
X123080252Y-109922827D01*
X123192056Y-109811023D01*
X123271113Y-109674091D01*
X123312036Y-109521364D01*
X123312036Y-109521355D01*
X123313097Y-109513304D01*
X123316171Y-109513708D01*
X123331721Y-109460752D01*
X123384525Y-109414997D01*
X123453683Y-109405053D01*
X123517239Y-109434078D01*
G37*
%TD.AperFunction*%
%TA.AperFunction,Conductor*%
G36*
X133822085Y-108768532D02*
G01*
X133833568Y-108752730D01*
X133915745Y-108591452D01*
X133915748Y-108591444D01*
X133957569Y-108462731D01*
X133997006Y-108405056D01*
X134061364Y-108377857D01*
X134130211Y-108389771D01*
X134181687Y-108437015D01*
X134199500Y-108501049D01*
X134199500Y-110337330D01*
X134179815Y-110404369D01*
X134127011Y-110450124D01*
X134057853Y-110460068D01*
X133994297Y-110431043D01*
X133957569Y-110375648D01*
X133916212Y-110248363D01*
X133916211Y-110248360D01*
X133870353Y-110158360D01*
X133833996Y-110087006D01*
X133810061Y-110054062D01*
X133727558Y-109940505D01*
X133727554Y-109940500D01*
X133599499Y-109812445D01*
X133599494Y-109812441D01*
X133452997Y-109706006D01*
X133452996Y-109706005D01*
X133452994Y-109706004D01*
X133401300Y-109679664D01*
X133291639Y-109623788D01*
X133291636Y-109623787D01*
X133119410Y-109567828D01*
X132957720Y-109542219D01*
X132894585Y-109512289D01*
X132857654Y-109452978D01*
X132858652Y-109383115D01*
X132897262Y-109324883D01*
X132957721Y-109297273D01*
X133119292Y-109271683D01*
X133291444Y-109215748D01*
X133291452Y-109215745D01*
X133452730Y-109133568D01*
X133468532Y-109122085D01*
X132979409Y-108632962D01*
X133042993Y-108615925D01*
X133157007Y-108550099D01*
X133250099Y-108457007D01*
X133315925Y-108342993D01*
X133332962Y-108279409D01*
X133822085Y-108768532D01*
G37*
%TD.AperFunction*%
%TA.AperFunction,Conductor*%
G36*
X122061950Y-83298498D02*
G01*
X122066371Y-83299864D01*
X122066375Y-83299866D01*
X122139364Y-83310500D01*
X122139370Y-83310500D01*
X122360629Y-83310500D01*
X122360636Y-83310500D01*
X122378551Y-83307889D01*
X122383188Y-83308547D01*
X122387582Y-83306909D01*
X122417452Y-83313406D01*
X122447723Y-83317700D01*
X122452544Y-83321040D01*
X122455855Y-83321761D01*
X122484109Y-83342912D01*
X122653298Y-83512101D01*
X122686783Y-83573424D01*
X122681799Y-83643116D01*
X122673005Y-83661781D01*
X122640423Y-83718215D01*
X122640423Y-83718216D01*
X122599500Y-83870943D01*
X122599500Y-84029057D01*
X122638766Y-84175598D01*
X122640423Y-84181783D01*
X122640426Y-84181790D01*
X122719475Y-84318709D01*
X122719479Y-84318714D01*
X122719480Y-84318716D01*
X122831284Y-84430520D01*
X122831286Y-84430521D01*
X122831290Y-84430524D01*
X122950270Y-84499216D01*
X122968216Y-84509577D01*
X123120943Y-84550500D01*
X123120945Y-84550500D01*
X123279055Y-84550500D01*
X123279057Y-84550500D01*
X123431784Y-84509577D01*
X123568716Y-84430520D01*
X123637819Y-84361417D01*
X123699142Y-84327932D01*
X123768834Y-84332916D01*
X123824767Y-84374788D01*
X123849184Y-84440252D01*
X123849500Y-84449098D01*
X123849500Y-85140908D01*
X123829815Y-85207947D01*
X123787500Y-85248295D01*
X123733490Y-85279477D01*
X123733485Y-85279481D01*
X123621684Y-85391282D01*
X123621678Y-85391290D01*
X123542629Y-85528209D01*
X123542626Y-85528216D01*
X123501703Y-85680943D01*
X123501703Y-85835500D01*
X123482018Y-85902539D01*
X123429214Y-85948294D01*
X123377703Y-85959500D01*
X123073674Y-85959500D01*
X123006635Y-85939815D01*
X122960880Y-85887011D01*
X122959113Y-85882953D01*
X122901547Y-85743976D01*
X122811211Y-85608779D01*
X122811205Y-85608771D01*
X122696228Y-85493794D01*
X122696220Y-85493788D01*
X122561023Y-85403452D01*
X122561019Y-85403450D01*
X122410793Y-85341225D01*
X122410783Y-85341222D01*
X122251307Y-85309500D01*
X122251305Y-85309500D01*
X122088695Y-85309500D01*
X122088693Y-85309500D01*
X121929216Y-85341222D01*
X121929206Y-85341225D01*
X121778980Y-85403450D01*
X121778976Y-85403452D01*
X121643779Y-85493788D01*
X121643771Y-85493794D01*
X121622681Y-85514885D01*
X121561358Y-85548370D01*
X121491666Y-85543386D01*
X121447319Y-85514885D01*
X121426228Y-85493794D01*
X121426220Y-85493788D01*
X121291023Y-85403452D01*
X121291019Y-85403450D01*
X121140793Y-85341225D01*
X121140783Y-85341222D01*
X120981307Y-85309500D01*
X120981305Y-85309500D01*
X120818695Y-85309500D01*
X120818693Y-85309500D01*
X120659216Y-85341222D01*
X120659206Y-85341225D01*
X120508980Y-85403450D01*
X120503609Y-85406322D01*
X120502592Y-85404421D01*
X120445182Y-85422372D01*
X120377809Y-85403860D01*
X120355337Y-85386072D01*
X120327479Y-85358214D01*
X120327474Y-85358211D01*
X120224876Y-85312910D01*
X120199794Y-85310000D01*
X119880000Y-85310000D01*
X119880000Y-86079670D01*
X119860255Y-86059925D01*
X119774745Y-86010556D01*
X119679370Y-85985000D01*
X119580630Y-85985000D01*
X119485255Y-86010556D01*
X119399745Y-86059925D01*
X119380000Y-86079670D01*
X119380000Y-85310000D01*
X119060214Y-85310000D01*
X119060191Y-85310002D01*
X119035130Y-85312908D01*
X119035126Y-85312909D01*
X118932525Y-85358211D01*
X118932520Y-85358214D01*
X118853214Y-85437520D01*
X118853211Y-85437525D01*
X118807910Y-85540122D01*
X118807910Y-85540124D01*
X118805000Y-85565205D01*
X118805000Y-86110000D01*
X119349670Y-86110000D01*
X119329925Y-86129745D01*
X119280556Y-86215255D01*
X119255000Y-86310630D01*
X119255000Y-86409370D01*
X119280556Y-86504745D01*
X119329925Y-86590255D01*
X119349670Y-86610000D01*
X118805001Y-86610000D01*
X118805001Y-87154785D01*
X118805002Y-87154808D01*
X118807908Y-87179869D01*
X118807909Y-87179873D01*
X118853211Y-87282474D01*
X118853214Y-87282479D01*
X118932520Y-87361785D01*
X118932525Y-87361788D01*
X119035123Y-87407089D01*
X119060206Y-87409999D01*
X119379999Y-87409999D01*
X119380000Y-87409998D01*
X119380000Y-86640330D01*
X119399745Y-86660075D01*
X119485255Y-86709444D01*
X119580630Y-86735000D01*
X119679370Y-86735000D01*
X119774745Y-86709444D01*
X119860255Y-86660075D01*
X119880000Y-86640330D01*
X119880000Y-87409999D01*
X120199786Y-87409999D01*
X120199808Y-87409997D01*
X120224869Y-87407091D01*
X120224873Y-87407090D01*
X120327474Y-87361788D01*
X120327478Y-87361786D01*
X120355336Y-87333928D01*
X120416658Y-87300442D01*
X120486350Y-87305426D01*
X120492183Y-87307771D01*
X120502533Y-87312241D01*
X120508979Y-87316548D01*
X120595149Y-87352241D01*
X120595974Y-87352597D01*
X120622159Y-87374354D01*
X120648665Y-87395713D01*
X120648970Y-87396631D01*
X120649714Y-87397249D01*
X120659971Y-87429683D01*
X120670730Y-87462007D01*
X120670490Y-87462944D01*
X120670782Y-87463866D01*
X120661874Y-87496702D01*
X120653451Y-87529707D01*
X120652637Y-87530753D01*
X120652490Y-87531299D01*
X120651565Y-87532134D01*
X120634490Y-87554115D01*
X119770426Y-88418181D01*
X119709103Y-88451666D01*
X119682745Y-88454500D01*
X118970730Y-88454500D01*
X118903691Y-88434815D01*
X118897098Y-88430271D01*
X118890794Y-88425619D01*
X118766880Y-88382258D01*
X118737461Y-88379500D01*
X118737457Y-88379500D01*
X118707344Y-88379500D01*
X118675251Y-88375275D01*
X118621871Y-88360972D01*
X118579057Y-88349500D01*
X118420943Y-88349500D01*
X118420941Y-88349500D01*
X118324744Y-88375275D01*
X118292656Y-88379500D01*
X118262546Y-88379500D01*
X118233124Y-88382258D01*
X118233115Y-88382260D01*
X118109207Y-88425618D01*
X118003576Y-88503576D01*
X117925618Y-88609207D01*
X117882258Y-88733118D01*
X117882258Y-88733120D01*
X117879500Y-88762534D01*
X117879500Y-89137453D01*
X117882258Y-89166874D01*
X117882260Y-89166884D01*
X117925619Y-89290794D01*
X117925619Y-89290795D01*
X117996154Y-89386367D01*
X118020125Y-89451996D01*
X118004809Y-89520166D01*
X117996154Y-89533633D01*
X117925619Y-89629204D01*
X117925619Y-89629205D01*
X117882258Y-89753118D01*
X117882258Y-89753120D01*
X117879500Y-89782538D01*
X117879500Y-90157453D01*
X117882258Y-90186874D01*
X117882260Y-90186884D01*
X117925618Y-90310792D01*
X117925619Y-90310794D01*
X117952704Y-90347493D01*
X117976675Y-90413121D01*
X117961360Y-90481291D01*
X117952704Y-90494758D01*
X117948504Y-90500451D01*
X117875618Y-90599207D01*
X117832258Y-90723118D01*
X117832258Y-90723120D01*
X117829500Y-90752538D01*
X117829500Y-91127453D01*
X117832258Y-91156874D01*
X117832260Y-91156884D01*
X117875619Y-91280794D01*
X117875619Y-91280795D01*
X117946154Y-91376367D01*
X117970125Y-91441996D01*
X117954809Y-91510166D01*
X117946154Y-91523633D01*
X117875619Y-91619204D01*
X117875619Y-91619205D01*
X117832258Y-91743118D01*
X117832258Y-91743120D01*
X117829500Y-91772538D01*
X117829500Y-92147453D01*
X117832258Y-92176874D01*
X117832260Y-92176884D01*
X117875618Y-92300792D01*
X117953576Y-92406423D01*
X118006391Y-92445402D01*
X118059206Y-92484381D01*
X118100511Y-92498834D01*
X118183119Y-92527741D01*
X118196707Y-92529015D01*
X118212543Y-92530500D01*
X118227689Y-92530499D01*
X118294727Y-92550180D01*
X118340485Y-92602981D01*
X118347468Y-92622405D01*
X118390226Y-92781982D01*
X118390229Y-92781987D01*
X118469278Y-92918906D01*
X118469282Y-92918911D01*
X118469283Y-92918913D01*
X118581087Y-93030717D01*
X118581089Y-93030718D01*
X118581093Y-93030721D01*
X118641333Y-93065500D01*
X118718019Y-93109774D01*
X118870746Y-93150697D01*
X118870748Y-93150697D01*
X119028858Y-93150697D01*
X119028860Y-93150697D01*
X119181587Y-93109774D01*
X119273665Y-93056612D01*
X119335665Y-93040000D01*
X120088500Y-93040000D01*
X120155539Y-93059685D01*
X120201294Y-93112489D01*
X120212500Y-93164000D01*
X120212500Y-93290000D01*
X120338500Y-93290000D01*
X120405539Y-93309685D01*
X120451294Y-93362489D01*
X120462500Y-93414000D01*
X120462500Y-93914999D01*
X120825500Y-93914999D01*
X120892539Y-93934684D01*
X120938294Y-93987488D01*
X120949500Y-94038999D01*
X120949500Y-97949902D01*
X120929815Y-98016941D01*
X120913181Y-98037583D01*
X120869481Y-98081282D01*
X120869475Y-98081290D01*
X120790426Y-98218209D01*
X120790423Y-98218216D01*
X120749500Y-98370943D01*
X120749500Y-98529056D01*
X120790423Y-98681783D01*
X120790426Y-98681790D01*
X120869475Y-98818709D01*
X120869479Y-98818714D01*
X120869480Y-98818716D01*
X120981284Y-98930520D01*
X120981286Y-98930521D01*
X120981290Y-98930524D01*
X121111456Y-99005674D01*
X121118216Y-99009577D01*
X121269401Y-99050086D01*
X121329061Y-99086451D01*
X121359590Y-99149298D01*
X121351295Y-99218673D01*
X121324988Y-99257542D01*
X120992022Y-99590508D01*
X120992020Y-99590511D01*
X120939293Y-99681835D01*
X120918279Y-99760263D01*
X120912000Y-99783695D01*
X120912000Y-108775500D01*
X120892315Y-108842539D01*
X120839511Y-108888294D01*
X120788000Y-108899500D01*
X120424501Y-108899500D01*
X120415815Y-108896949D01*
X120406857Y-108898238D01*
X120382817Y-108887260D01*
X120357462Y-108879815D01*
X120351535Y-108872975D01*
X120343301Y-108869215D01*
X120329011Y-108846981D01*
X120311707Y-108827011D01*
X120309419Y-108816498D01*
X120305525Y-108810438D01*
X120300501Y-108775500D01*
X120300501Y-108764049D01*
X120300501Y-108752730D01*
X120300501Y-108747273D01*
X120300500Y-108747269D01*
X120300500Y-95747273D01*
X120278505Y-95665186D01*
X120273207Y-95645412D01*
X120220480Y-95554087D01*
X118206393Y-93540000D01*
X119103121Y-93540000D01*
X119148977Y-93671052D01*
X119231769Y-93783230D01*
X119343948Y-93866022D01*
X119475537Y-93912068D01*
X119475549Y-93912070D01*
X119506786Y-93914999D01*
X119962499Y-93914999D01*
X119962500Y-93914998D01*
X119962500Y-93540000D01*
X119103121Y-93540000D01*
X118206393Y-93540000D01*
X117236819Y-92570426D01*
X117203334Y-92509103D01*
X117200500Y-92482745D01*
X117200500Y-87989116D01*
X117220185Y-87922077D01*
X117272989Y-87876322D01*
X117342147Y-87866378D01*
X117386499Y-87881729D01*
X117513944Y-87955309D01*
X117513947Y-87955310D01*
X117513951Y-87955312D01*
X117666678Y-87996235D01*
X117666680Y-87996235D01*
X117824790Y-87996235D01*
X117824792Y-87996235D01*
X117977519Y-87955312D01*
X118114451Y-87876255D01*
X118226255Y-87764451D01*
X118305312Y-87627519D01*
X118346235Y-87474792D01*
X118346235Y-87316678D01*
X118305312Y-87163951D01*
X118290970Y-87139109D01*
X118226259Y-87027025D01*
X118226253Y-87027017D01*
X118182554Y-86983318D01*
X118149069Y-86921995D01*
X118146235Y-86895637D01*
X118146235Y-86273010D01*
X118146234Y-86273006D01*
X118144413Y-86266211D01*
X118137530Y-86240520D01*
X118118942Y-86171147D01*
X118066215Y-86079822D01*
X117696819Y-85710426D01*
X117682115Y-85683498D01*
X117665523Y-85657680D01*
X117664631Y-85651479D01*
X117663334Y-85649103D01*
X117660500Y-85622745D01*
X117660500Y-85436929D01*
X117657710Y-85407185D01*
X117657710Y-85407181D01*
X117657708Y-85407177D01*
X117657708Y-85407173D01*
X117624723Y-85312910D01*
X117613852Y-85281843D01*
X117570579Y-85223211D01*
X117546609Y-85157583D01*
X117561924Y-85089413D01*
X117570581Y-85075943D01*
X117613403Y-85017922D01*
X117647668Y-84920000D01*
X116452332Y-84920000D01*
X116486596Y-85017922D01*
X116529419Y-85075945D01*
X116553390Y-85141574D01*
X116538075Y-85209744D01*
X116529419Y-85223213D01*
X116486147Y-85281844D01*
X116442291Y-85407173D01*
X116442289Y-85407185D01*
X116439500Y-85436929D01*
X116439500Y-85573745D01*
X116433261Y-85594990D01*
X116431682Y-85617079D01*
X116423609Y-85627862D01*
X116419815Y-85640784D01*
X116403081Y-85655283D01*
X116389810Y-85673012D01*
X116377189Y-85677719D01*
X116367011Y-85686539D01*
X116345093Y-85689690D01*
X116324346Y-85697429D01*
X116311185Y-85694566D01*
X116297853Y-85696483D01*
X116277709Y-85687283D01*
X116256073Y-85682577D01*
X116238347Y-85669308D01*
X116234297Y-85667458D01*
X116227819Y-85661426D01*
X116086819Y-85520426D01*
X116053334Y-85459103D01*
X116050500Y-85432745D01*
X116050500Y-84076154D01*
X116070185Y-84009115D01*
X116122989Y-83963360D01*
X116192147Y-83953416D01*
X116215455Y-83959113D01*
X116297173Y-83987708D01*
X116297177Y-83987708D01*
X116297181Y-83987710D01*
X116312057Y-83989105D01*
X116326930Y-83990500D01*
X116493200Y-83990500D01*
X116560239Y-84010185D01*
X116605994Y-84062989D01*
X116615938Y-84132147D01*
X116586913Y-84195703D01*
X116566835Y-84214269D01*
X116565359Y-84215358D01*
X116486596Y-84322077D01*
X116452332Y-84420000D01*
X117647668Y-84420000D01*
X117613403Y-84322077D01*
X117529123Y-84207882D01*
X117531730Y-84205957D01*
X117506051Y-84158930D01*
X117511035Y-84089238D01*
X117552907Y-84033305D01*
X117595122Y-84012797D01*
X117681784Y-83989577D01*
X117818716Y-83910520D01*
X117930520Y-83798716D01*
X117962791Y-83742819D01*
X118013356Y-83694604D01*
X118081963Y-83681380D01*
X118102261Y-83685042D01*
X118197273Y-83710500D01*
X118197275Y-83710500D01*
X121443277Y-83710500D01*
X121443279Y-83710500D01*
X121545140Y-83683207D01*
X121636465Y-83630480D01*
X121937658Y-83329285D01*
X121950237Y-83322417D01*
X121959778Y-83311716D01*
X121980291Y-83306006D01*
X121998978Y-83295803D01*
X122014555Y-83296469D01*
X122027089Y-83292981D01*
X122061950Y-83298498D01*
G37*
%TD.AperFunction*%
%TA.AperFunction,Conductor*%
G36*
X128442539Y-95449008D02*
G01*
X128488294Y-95501812D01*
X128499500Y-95553323D01*
X128499500Y-108073885D01*
X128479815Y-108140924D01*
X128463181Y-108161566D01*
X127761566Y-108863181D01*
X127700243Y-108896666D01*
X127673885Y-108899500D01*
X127567255Y-108899500D01*
X127500216Y-108879815D01*
X127479574Y-108863181D01*
X126949319Y-108332926D01*
X126915834Y-108271603D01*
X126913000Y-108245245D01*
X126913000Y-108041739D01*
X126903073Y-107973608D01*
X126903073Y-107973607D01*
X126851698Y-107868517D01*
X126851696Y-107868515D01*
X126851696Y-107868514D01*
X126768985Y-107785803D01*
X126663891Y-107734426D01*
X126595761Y-107724500D01*
X126595760Y-107724500D01*
X126568109Y-107724500D01*
X126538668Y-107715855D01*
X126508682Y-107709332D01*
X126503666Y-107705577D01*
X126501070Y-107704815D01*
X126480428Y-107688181D01*
X126437295Y-107645048D01*
X126403810Y-107583725D01*
X126400976Y-107557367D01*
X126400976Y-97345602D01*
X126420661Y-97278563D01*
X126437295Y-97257921D01*
X128229574Y-95465642D01*
X128290897Y-95432157D01*
X128317255Y-95429323D01*
X128375500Y-95429323D01*
X128442539Y-95449008D01*
G37*
%TD.AperFunction*%
%TA.AperFunction,Conductor*%
G36*
X134130211Y-105851391D02*
G01*
X134181687Y-105898635D01*
X134199500Y-105962669D01*
X134199500Y-107798950D01*
X134179815Y-107865989D01*
X134127011Y-107911744D01*
X134057853Y-107921688D01*
X133994297Y-107892663D01*
X133957569Y-107837268D01*
X133915748Y-107708555D01*
X133915747Y-107708552D01*
X133833571Y-107547275D01*
X133833566Y-107547267D01*
X133822085Y-107531466D01*
X133332962Y-108020589D01*
X133315925Y-107957007D01*
X133250099Y-107842993D01*
X133157007Y-107749901D01*
X133042993Y-107684075D01*
X132979408Y-107667037D01*
X133468533Y-107177913D01*
X133452730Y-107166431D01*
X133291447Y-107084252D01*
X133291444Y-107084251D01*
X133119293Y-107028317D01*
X132957720Y-107002726D01*
X132894585Y-106972797D01*
X132857654Y-106913485D01*
X132858652Y-106843623D01*
X132897262Y-106785390D01*
X132957720Y-106757780D01*
X132985563Y-106753370D01*
X133119409Y-106732171D01*
X133291639Y-106676211D01*
X133452994Y-106593996D01*
X133599501Y-106487553D01*
X133727553Y-106359501D01*
X133833996Y-106212994D01*
X133916211Y-106051639D01*
X133945119Y-105962669D01*
X133957569Y-105924351D01*
X133997006Y-105866676D01*
X134061364Y-105839477D01*
X134130211Y-105851391D01*
G37*
%TD.AperFunction*%
%TA.AperFunction,Conductor*%
G36*
X134130211Y-103311391D02*
G01*
X134181687Y-103358635D01*
X134199500Y-103422669D01*
X134199500Y-105257330D01*
X134179815Y-105324369D01*
X134127011Y-105370124D01*
X134057853Y-105380068D01*
X133994297Y-105351043D01*
X133957569Y-105295648D01*
X133916212Y-105168363D01*
X133916211Y-105168360D01*
X133870353Y-105078360D01*
X133833996Y-105007006D01*
X133768605Y-104917002D01*
X133727558Y-104860505D01*
X133727554Y-104860500D01*
X133599499Y-104732445D01*
X133599494Y-104732441D01*
X133452997Y-104626006D01*
X133452996Y-104626005D01*
X133452994Y-104626004D01*
X133392742Y-104595304D01*
X133291639Y-104543788D01*
X133291636Y-104543787D01*
X133119410Y-104487829D01*
X132959321Y-104462473D01*
X132896186Y-104432544D01*
X132859255Y-104373232D01*
X132860253Y-104303370D01*
X132898863Y-104245137D01*
X132959321Y-104217527D01*
X133029425Y-104206422D01*
X133119409Y-104192171D01*
X133291639Y-104136211D01*
X133452994Y-104053996D01*
X133599501Y-103947553D01*
X133727553Y-103819501D01*
X133833996Y-103672994D01*
X133916211Y-103511639D01*
X133945119Y-103422669D01*
X133957569Y-103384351D01*
X133997006Y-103326676D01*
X134061364Y-103299477D01*
X134130211Y-103311391D01*
G37*
%TD.AperFunction*%
%TA.AperFunction,Conductor*%
G36*
X134130211Y-100771391D02*
G01*
X134181687Y-100818635D01*
X134199500Y-100882669D01*
X134199500Y-102717330D01*
X134179815Y-102784369D01*
X134127011Y-102830124D01*
X134057853Y-102840068D01*
X133994297Y-102811043D01*
X133957569Y-102755648D01*
X133916212Y-102628363D01*
X133916211Y-102628360D01*
X133870353Y-102538360D01*
X133833996Y-102467006D01*
X133768605Y-102377002D01*
X133727558Y-102320505D01*
X133727554Y-102320500D01*
X133599499Y-102192445D01*
X133599494Y-102192441D01*
X133452997Y-102086006D01*
X133452996Y-102086005D01*
X133452994Y-102086004D01*
X133401300Y-102059664D01*
X133291639Y-102003788D01*
X133291636Y-102003787D01*
X133119410Y-101947829D01*
X132959321Y-101922473D01*
X132896186Y-101892544D01*
X132859255Y-101833232D01*
X132860253Y-101763370D01*
X132898863Y-101705137D01*
X132959321Y-101677527D01*
X133029425Y-101666422D01*
X133119409Y-101652171D01*
X133291639Y-101596211D01*
X133452994Y-101513996D01*
X133599501Y-101407553D01*
X133727553Y-101279501D01*
X133833996Y-101132994D01*
X133916211Y-100971639D01*
X133945119Y-100882669D01*
X133957569Y-100844351D01*
X133997006Y-100786676D01*
X134061364Y-100759477D01*
X134130211Y-100771391D01*
G37*
%TD.AperFunction*%
%TA.AperFunction,Conductor*%
G36*
X134130211Y-98231391D02*
G01*
X134181687Y-98278635D01*
X134199500Y-98342669D01*
X134199500Y-100177330D01*
X134179815Y-100244369D01*
X134127011Y-100290124D01*
X134057853Y-100300068D01*
X133994297Y-100271043D01*
X133957569Y-100215648D01*
X133916212Y-100088363D01*
X133916211Y-100088360D01*
X133864381Y-99986640D01*
X133833996Y-99927006D01*
X133820396Y-99908287D01*
X133727558Y-99780505D01*
X133727554Y-99780500D01*
X133599499Y-99652445D01*
X133599494Y-99652441D01*
X133452997Y-99546006D01*
X133452996Y-99546005D01*
X133452994Y-99546004D01*
X133401300Y-99519664D01*
X133291639Y-99463788D01*
X133291636Y-99463787D01*
X133119410Y-99407829D01*
X132959321Y-99382473D01*
X132896186Y-99352544D01*
X132859255Y-99293232D01*
X132860253Y-99223370D01*
X132898863Y-99165137D01*
X132959321Y-99137527D01*
X133029425Y-99126422D01*
X133119409Y-99112171D01*
X133291639Y-99056211D01*
X133452994Y-98973996D01*
X133599501Y-98867553D01*
X133727553Y-98739501D01*
X133833996Y-98592994D01*
X133916211Y-98431639D01*
X133945119Y-98342669D01*
X133957569Y-98304351D01*
X133997006Y-98246676D01*
X134061364Y-98219477D01*
X134130211Y-98231391D01*
G37*
%TD.AperFunction*%
%TA.AperFunction,Conductor*%
G36*
X132436716Y-93985424D02*
G01*
X132455740Y-93991605D01*
X132580591Y-94032171D01*
X132700038Y-94051089D01*
X132742279Y-94057780D01*
X132805414Y-94087709D01*
X132842345Y-94147021D01*
X132841347Y-94216883D01*
X132802737Y-94275116D01*
X132742279Y-94302726D01*
X132580706Y-94328317D01*
X132408555Y-94384251D01*
X132408547Y-94384254D01*
X132247269Y-94466432D01*
X132231466Y-94477912D01*
X132231466Y-94477913D01*
X132720591Y-94967037D01*
X132657007Y-94984075D01*
X132542993Y-95049901D01*
X132449901Y-95142993D01*
X132384075Y-95257007D01*
X132367037Y-95320590D01*
X131877912Y-94831466D01*
X131866432Y-94847269D01*
X131784254Y-95008547D01*
X131784251Y-95008555D01*
X131728317Y-95180706D01*
X131700000Y-95359493D01*
X131700000Y-95540506D01*
X131728317Y-95719293D01*
X131784251Y-95891444D01*
X131784252Y-95891447D01*
X131866431Y-96052730D01*
X131877913Y-96068532D01*
X131877913Y-96068533D01*
X132367037Y-95579409D01*
X132384075Y-95642993D01*
X132449901Y-95757007D01*
X132542993Y-95850099D01*
X132657007Y-95915925D01*
X132720590Y-95932962D01*
X132231466Y-96422085D01*
X132231466Y-96422086D01*
X132247267Y-96433566D01*
X132247275Y-96433571D01*
X132408552Y-96515747D01*
X132408555Y-96515748D01*
X132580706Y-96571682D01*
X132742279Y-96597273D01*
X132805413Y-96627202D01*
X132842345Y-96686513D01*
X132841347Y-96756376D01*
X132802738Y-96814609D01*
X132742280Y-96842219D01*
X132580589Y-96867829D01*
X132408363Y-96923787D01*
X132408360Y-96923788D01*
X132247002Y-97006006D01*
X132100505Y-97112441D01*
X132100500Y-97112445D01*
X131972445Y-97240500D01*
X131972441Y-97240505D01*
X131866006Y-97387002D01*
X131783788Y-97548360D01*
X131783787Y-97548363D01*
X131727829Y-97720589D01*
X131699500Y-97899448D01*
X131699500Y-98080551D01*
X131727829Y-98259410D01*
X131774575Y-98403281D01*
X131776570Y-98473122D01*
X131744325Y-98529280D01*
X130712181Y-99561425D01*
X130650858Y-99594910D01*
X130581166Y-99589926D01*
X130525233Y-99548054D01*
X130500816Y-99482590D01*
X130500500Y-99473744D01*
X130500500Y-95877254D01*
X130520185Y-95810215D01*
X130536814Y-95789578D01*
X132310719Y-94015672D01*
X132372040Y-93982189D01*
X132436716Y-93985424D01*
G37*
%TD.AperFunction*%
%TA.AperFunction,Conductor*%
G36*
X133822085Y-96068532D02*
G01*
X133833568Y-96052730D01*
X133915745Y-95891452D01*
X133915748Y-95891444D01*
X133957569Y-95762731D01*
X133997006Y-95705056D01*
X134061364Y-95677857D01*
X134130211Y-95689771D01*
X134181687Y-95737015D01*
X134199500Y-95801049D01*
X134199500Y-97637330D01*
X134179815Y-97704369D01*
X134127011Y-97750124D01*
X134057853Y-97760068D01*
X133994297Y-97731043D01*
X133957569Y-97675648D01*
X133916212Y-97548363D01*
X133916211Y-97548360D01*
X133870353Y-97458360D01*
X133833996Y-97387006D01*
X133820396Y-97368287D01*
X133727558Y-97240505D01*
X133727554Y-97240500D01*
X133599499Y-97112445D01*
X133599494Y-97112441D01*
X133452997Y-97006006D01*
X133452996Y-97006005D01*
X133452994Y-97006004D01*
X133401300Y-96979664D01*
X133291639Y-96923788D01*
X133291636Y-96923787D01*
X133119410Y-96867828D01*
X132957720Y-96842219D01*
X132894585Y-96812289D01*
X132857654Y-96752978D01*
X132858652Y-96683115D01*
X132897262Y-96624883D01*
X132957721Y-96597273D01*
X133119292Y-96571683D01*
X133291444Y-96515748D01*
X133291452Y-96515745D01*
X133452730Y-96433568D01*
X133468532Y-96422085D01*
X133468533Y-96422085D01*
X132979410Y-95932962D01*
X133042993Y-95915925D01*
X133157007Y-95850099D01*
X133250099Y-95757007D01*
X133315925Y-95642993D01*
X133332962Y-95579409D01*
X133822085Y-96068532D01*
G37*
%TD.AperFunction*%
%TA.AperFunction,Conductor*%
G36*
X134130211Y-93151391D02*
G01*
X134181687Y-93198635D01*
X134199500Y-93262669D01*
X134199500Y-95098950D01*
X134179815Y-95165989D01*
X134127011Y-95211744D01*
X134057853Y-95221688D01*
X133994297Y-95192663D01*
X133957569Y-95137268D01*
X133915748Y-95008555D01*
X133915747Y-95008552D01*
X133833571Y-94847275D01*
X133833566Y-94847267D01*
X133822085Y-94831466D01*
X133332962Y-95320589D01*
X133315925Y-95257007D01*
X133250099Y-95142993D01*
X133157007Y-95049901D01*
X133042993Y-94984075D01*
X132979409Y-94967037D01*
X133468533Y-94477913D01*
X133452730Y-94466431D01*
X133291447Y-94384252D01*
X133291444Y-94384251D01*
X133119293Y-94328317D01*
X132957720Y-94302726D01*
X132894585Y-94272797D01*
X132857654Y-94213485D01*
X132858652Y-94143623D01*
X132897262Y-94085390D01*
X132957720Y-94057780D01*
X132985563Y-94053370D01*
X133119409Y-94032171D01*
X133291639Y-93976211D01*
X133452994Y-93893996D01*
X133599501Y-93787553D01*
X133727553Y-93659501D01*
X133833996Y-93512994D01*
X133916211Y-93351639D01*
X133927265Y-93317617D01*
X133957569Y-93224351D01*
X133997006Y-93166676D01*
X134061364Y-93139477D01*
X134130211Y-93151391D01*
G37*
%TD.AperFunction*%
%TA.AperFunction,Conductor*%
G36*
X134130211Y-90611391D02*
G01*
X134181687Y-90658635D01*
X134199500Y-90722669D01*
X134199500Y-92557330D01*
X134179815Y-92624369D01*
X134127011Y-92670124D01*
X134057853Y-92680068D01*
X133994297Y-92651043D01*
X133957569Y-92595648D01*
X133916212Y-92468363D01*
X133916211Y-92468360D01*
X133870353Y-92378361D01*
X133833996Y-92307006D01*
X133768608Y-92217006D01*
X133727558Y-92160505D01*
X133727554Y-92160500D01*
X133599499Y-92032445D01*
X133599494Y-92032441D01*
X133452997Y-91926006D01*
X133452996Y-91926005D01*
X133452994Y-91926004D01*
X133391113Y-91894474D01*
X133291639Y-91843788D01*
X133291636Y-91843787D01*
X133119410Y-91787829D01*
X132959321Y-91762473D01*
X132896186Y-91732544D01*
X132859255Y-91673232D01*
X132860253Y-91603370D01*
X132898863Y-91545137D01*
X132959321Y-91517527D01*
X133029425Y-91506422D01*
X133119409Y-91492171D01*
X133291639Y-91436211D01*
X133452994Y-91353996D01*
X133599501Y-91247553D01*
X133727553Y-91119501D01*
X133833996Y-90972994D01*
X133916211Y-90811639D01*
X133945119Y-90722669D01*
X133957569Y-90684351D01*
X133997006Y-90626676D01*
X134061364Y-90599477D01*
X134130211Y-90611391D01*
G37*
%TD.AperFunction*%
%TA.AperFunction,Conductor*%
G36*
X134130211Y-88071391D02*
G01*
X134181687Y-88118635D01*
X134199500Y-88182669D01*
X134199500Y-90017330D01*
X134179815Y-90084369D01*
X134127011Y-90130124D01*
X134057853Y-90140068D01*
X133994297Y-90111043D01*
X133957569Y-90055648D01*
X133916212Y-89928363D01*
X133916211Y-89928360D01*
X133853110Y-89804520D01*
X133833996Y-89767006D01*
X133771146Y-89680500D01*
X133727558Y-89620505D01*
X133727554Y-89620500D01*
X133599499Y-89492445D01*
X133599494Y-89492441D01*
X133452997Y-89386006D01*
X133452996Y-89386005D01*
X133452994Y-89386004D01*
X133401128Y-89359577D01*
X133291639Y-89303788D01*
X133291636Y-89303787D01*
X133119410Y-89247829D01*
X132959321Y-89222473D01*
X132896186Y-89192544D01*
X132859255Y-89133232D01*
X132860253Y-89063370D01*
X132898863Y-89005137D01*
X132959321Y-88977527D01*
X133029425Y-88966422D01*
X133119409Y-88952171D01*
X133291639Y-88896211D01*
X133452994Y-88813996D01*
X133599501Y-88707553D01*
X133727553Y-88579501D01*
X133833996Y-88432994D01*
X133916211Y-88271639D01*
X133942459Y-88190855D01*
X133957569Y-88144351D01*
X133997006Y-88086676D01*
X134061364Y-88059477D01*
X134130211Y-88071391D01*
G37*
%TD.AperFunction*%
%TA.AperFunction,Conductor*%
G36*
X131642540Y-78090185D02*
G01*
X131688295Y-78142989D01*
X131699501Y-78194500D01*
X131699501Y-78564856D01*
X131699502Y-78564882D01*
X131702413Y-78589987D01*
X131702415Y-78589991D01*
X131747793Y-78692764D01*
X131747794Y-78692765D01*
X131827235Y-78772206D01*
X131930009Y-78817585D01*
X131955135Y-78820500D01*
X132692873Y-78820499D01*
X132759910Y-78840183D01*
X132805665Y-78892987D01*
X132815609Y-78962146D01*
X132786584Y-79025702D01*
X132727806Y-79063476D01*
X132712270Y-79066972D01*
X132580589Y-79087829D01*
X132408363Y-79143787D01*
X132408360Y-79143788D01*
X132247002Y-79226006D01*
X132100505Y-79332441D01*
X132100500Y-79332445D01*
X131972445Y-79460500D01*
X131972441Y-79460505D01*
X131866006Y-79607002D01*
X131783788Y-79768360D01*
X131783787Y-79768363D01*
X131727829Y-79940589D01*
X131699500Y-80119448D01*
X131699500Y-80300551D01*
X131727829Y-80479412D01*
X131774575Y-80623283D01*
X131776570Y-80693124D01*
X131744325Y-80749281D01*
X128579522Y-83914084D01*
X128579520Y-83914087D01*
X128535403Y-83990500D01*
X128526793Y-84005412D01*
X128509370Y-84070436D01*
X128507389Y-84077830D01*
X128499500Y-84107270D01*
X128499500Y-88837398D01*
X128497716Y-88843471D01*
X128498889Y-88849692D01*
X128487990Y-88876594D01*
X128479815Y-88904437D01*
X128475032Y-88908580D01*
X128472655Y-88914450D01*
X128448936Y-88931193D01*
X128427011Y-88950192D01*
X128420747Y-88951092D01*
X128415575Y-88954744D01*
X128386575Y-88956006D01*
X128357853Y-88960136D01*
X128350504Y-88957575D01*
X128345771Y-88957782D01*
X128330451Y-88950589D01*
X128313059Y-88944530D01*
X128307268Y-88941155D01*
X128256289Y-88903531D01*
X128222323Y-88891645D01*
X128212059Y-88885663D01*
X128195889Y-88868564D01*
X128176768Y-88854850D01*
X128172328Y-88843650D01*
X128164052Y-88834898D01*
X128159693Y-88811774D01*
X128151022Y-88789897D01*
X128150500Y-88778531D01*
X128150500Y-88720945D01*
X128150500Y-88720943D01*
X128109577Y-88568216D01*
X128072258Y-88503577D01*
X128030524Y-88431290D01*
X128030518Y-88431282D01*
X127918717Y-88319481D01*
X127918709Y-88319475D01*
X127781790Y-88240426D01*
X127781786Y-88240424D01*
X127781784Y-88240423D01*
X127629057Y-88199500D01*
X127629056Y-88199500D01*
X127567255Y-88199500D01*
X127537814Y-88190855D01*
X127507828Y-88184332D01*
X127502812Y-88180577D01*
X127500216Y-88179815D01*
X127479574Y-88163181D01*
X127386819Y-88070426D01*
X127353334Y-88009103D01*
X127350500Y-87982745D01*
X127350500Y-87609960D01*
X127370185Y-87542921D01*
X127400866Y-87510190D01*
X127434999Y-87484999D01*
X127513852Y-87378157D01*
X127545749Y-87287001D01*
X127557708Y-87252826D01*
X127557708Y-87252823D01*
X127557710Y-87252819D01*
X127560131Y-87227002D01*
X127560500Y-87223070D01*
X127560500Y-86836929D01*
X127557710Y-86807185D01*
X127557710Y-86807181D01*
X127557708Y-86807177D01*
X127557708Y-86807173D01*
X127513852Y-86681844D01*
X127513852Y-86681843D01*
X127470579Y-86623211D01*
X127446609Y-86557583D01*
X127461924Y-86489413D01*
X127470581Y-86475943D01*
X127513403Y-86417922D01*
X127547668Y-86320000D01*
X127074000Y-86320000D01*
X127006961Y-86300315D01*
X126961206Y-86247511D01*
X126950000Y-86196000D01*
X126950000Y-86070000D01*
X126824000Y-86070000D01*
X126756961Y-86050315D01*
X126711206Y-85997511D01*
X126700000Y-85946000D01*
X126700000Y-85820000D01*
X127200000Y-85820000D01*
X127547668Y-85820000D01*
X127513403Y-85722077D01*
X127434641Y-85615358D01*
X127327919Y-85536594D01*
X127202727Y-85492787D01*
X127202725Y-85492786D01*
X127200000Y-85492530D01*
X127200000Y-85820000D01*
X126700000Y-85820000D01*
X126700000Y-85492531D01*
X126699999Y-85492530D01*
X126697275Y-85492786D01*
X126603759Y-85525509D01*
X126533980Y-85529070D01*
X126473353Y-85494341D01*
X126441126Y-85432347D01*
X126439346Y-85420035D01*
X126437213Y-85397279D01*
X126403174Y-85300000D01*
X126394000Y-85300000D01*
X126326961Y-85280315D01*
X126281206Y-85227511D01*
X126270000Y-85176000D01*
X126270000Y-85155620D01*
X126770000Y-85155620D01*
X126860557Y-85123934D01*
X126966065Y-85046065D01*
X127043933Y-84940559D01*
X127043934Y-84940557D01*
X127087244Y-84816787D01*
X127087244Y-84816785D01*
X127088818Y-84800000D01*
X126770000Y-84800000D01*
X126770000Y-85155620D01*
X126270000Y-85155620D01*
X126270000Y-84300000D01*
X126770000Y-84300000D01*
X127088818Y-84300000D01*
X127088818Y-84299999D01*
X127087244Y-84283214D01*
X127087244Y-84283212D01*
X127043934Y-84159442D01*
X127043933Y-84159440D01*
X126966065Y-84053934D01*
X126860559Y-83976066D01*
X126860557Y-83976065D01*
X126770000Y-83944378D01*
X126770000Y-84300000D01*
X126270000Y-84300000D01*
X126270000Y-83944378D01*
X126269999Y-83944378D01*
X126179442Y-83976065D01*
X126179440Y-83976066D01*
X126084055Y-84046465D01*
X126018426Y-84070436D01*
X125950256Y-84055121D01*
X125936788Y-84046465D01*
X125840794Y-83975619D01*
X125716880Y-83932258D01*
X125687461Y-83929500D01*
X125687457Y-83929500D01*
X125497255Y-83929500D01*
X125430216Y-83909815D01*
X125409574Y-83893181D01*
X125186819Y-83670426D01*
X125172115Y-83643498D01*
X125155523Y-83617680D01*
X125154631Y-83611479D01*
X125153334Y-83609103D01*
X125150500Y-83582745D01*
X125150500Y-83434500D01*
X125170185Y-83367461D01*
X125222989Y-83321706D01*
X125274500Y-83310500D01*
X125360630Y-83310500D01*
X125360636Y-83310500D01*
X125433625Y-83299866D01*
X125495326Y-83269701D01*
X125564199Y-83257942D01*
X125590742Y-83264061D01*
X125715299Y-83307646D01*
X125745730Y-83310500D01*
X125745734Y-83310500D01*
X126154270Y-83310500D01*
X126184699Y-83307646D01*
X126184701Y-83307646D01*
X126309801Y-83263871D01*
X126379580Y-83260309D01*
X126391710Y-83263870D01*
X126500000Y-83301761D01*
X126500000Y-83101932D01*
X126506959Y-83060977D01*
X126531875Y-82989771D01*
X126547646Y-82944699D01*
X126550500Y-82914266D01*
X126550500Y-82409000D01*
X126553050Y-82400314D01*
X126551762Y-82391353D01*
X126562740Y-82367312D01*
X126570185Y-82341961D01*
X126577025Y-82336033D01*
X126580787Y-82327797D01*
X126603021Y-82313507D01*
X126622989Y-82296206D01*
X126633503Y-82293918D01*
X126639565Y-82290023D01*
X126674500Y-82285000D01*
X126876000Y-82285000D01*
X126943039Y-82304685D01*
X126988794Y-82357489D01*
X127000000Y-82409000D01*
X127000000Y-83301760D01*
X127112645Y-83262346D01*
X127221792Y-83181792D01*
X127302346Y-83072645D01*
X127347149Y-82944604D01*
X127347149Y-82944600D01*
X127349999Y-82914207D01*
X127349999Y-82776813D01*
X127369683Y-82709773D01*
X127422487Y-82664018D01*
X127491645Y-82654074D01*
X127521451Y-82662251D01*
X127569999Y-82682360D01*
X127570000Y-82682360D01*
X127570000Y-82086988D01*
X127579940Y-82104205D01*
X127635795Y-82160060D01*
X127704204Y-82199556D01*
X127780504Y-82220000D01*
X127859496Y-82220000D01*
X127935796Y-82199556D01*
X128004205Y-82160060D01*
X128060060Y-82104205D01*
X128070000Y-82086988D01*
X128070000Y-82682360D01*
X128198934Y-82628954D01*
X128198952Y-82628944D01*
X128329965Y-82541404D01*
X128329973Y-82541398D01*
X128441398Y-82429973D01*
X128441401Y-82429969D01*
X128528947Y-82298948D01*
X128528952Y-82298939D01*
X128589256Y-82153351D01*
X128589258Y-82153343D01*
X128619999Y-81998797D01*
X128620000Y-81998794D01*
X128620000Y-81620000D01*
X128120000Y-81620000D01*
X128120000Y-81120000D01*
X128620000Y-81120000D01*
X128620000Y-80741206D01*
X128619999Y-80741202D01*
X128589258Y-80586656D01*
X128589256Y-80586648D01*
X128528952Y-80441060D01*
X128528947Y-80441051D01*
X128441401Y-80310030D01*
X128441398Y-80310026D01*
X128329973Y-80198601D01*
X128329969Y-80198598D01*
X128198948Y-80111052D01*
X128198938Y-80111047D01*
X128070000Y-80057639D01*
X128070000Y-80653011D01*
X128060060Y-80635795D01*
X128004205Y-80579940D01*
X127935796Y-80540444D01*
X127859496Y-80520000D01*
X127780504Y-80520000D01*
X127704204Y-80540444D01*
X127635795Y-80579940D01*
X127579940Y-80635795D01*
X127570000Y-80653011D01*
X127570000Y-80057638D01*
X127559763Y-80050799D01*
X127514957Y-79997187D01*
X127506248Y-79927862D01*
X127536402Y-79864835D01*
X127540952Y-79860034D01*
X129294168Y-78106819D01*
X129355491Y-78073334D01*
X129381849Y-78070500D01*
X131575501Y-78070500D01*
X131642540Y-78090185D01*
G37*
%TD.AperFunction*%
%TA.AperFunction,Conductor*%
G36*
X132436716Y-86365424D02*
G01*
X132576201Y-86410745D01*
X132576203Y-86410745D01*
X132580591Y-86412171D01*
X132740786Y-86437543D01*
X132741208Y-86437612D01*
X132772464Y-86452595D01*
X132803813Y-86467456D01*
X132803960Y-86467693D01*
X132804212Y-86467814D01*
X132822403Y-86497312D01*
X132840744Y-86526768D01*
X132840740Y-86527046D01*
X132840887Y-86527285D01*
X132840239Y-86562063D01*
X132839746Y-86596631D01*
X132839592Y-86596862D01*
X132839587Y-86597143D01*
X132820251Y-86626033D01*
X132801136Y-86654863D01*
X132800876Y-86654981D01*
X132800725Y-86655208D01*
X132793672Y-86658271D01*
X132740678Y-86682473D01*
X132580589Y-86707829D01*
X132408363Y-86763787D01*
X132408360Y-86763788D01*
X132247006Y-86846003D01*
X132107856Y-86947101D01*
X132042049Y-86970580D01*
X131973995Y-86954754D01*
X131969630Y-86950262D01*
X131974984Y-86964617D01*
X131987559Y-86986884D01*
X131986991Y-86996809D01*
X131990466Y-87006125D01*
X131985030Y-87031111D01*
X131983571Y-87056640D01*
X131976604Y-87069843D01*
X131975614Y-87074398D01*
X131967101Y-87087856D01*
X131866003Y-87227006D01*
X131783788Y-87388360D01*
X131783787Y-87388363D01*
X131727829Y-87560589D01*
X131699500Y-87739448D01*
X131699500Y-87920551D01*
X131728591Y-88104221D01*
X131726517Y-88104549D01*
X131722702Y-88165895D01*
X131681351Y-88222214D01*
X131653583Y-88238199D01*
X131648215Y-88240422D01*
X131511290Y-88319475D01*
X131511282Y-88319481D01*
X131399481Y-88431282D01*
X131399475Y-88431290D01*
X131320426Y-88568209D01*
X131320423Y-88568216D01*
X131279500Y-88720943D01*
X131279500Y-88755500D01*
X131276949Y-88764185D01*
X131278238Y-88773147D01*
X131267259Y-88797187D01*
X131259815Y-88822539D01*
X131252974Y-88828466D01*
X131249213Y-88836703D01*
X131226978Y-88850992D01*
X131207011Y-88868294D01*
X131196496Y-88870581D01*
X131190435Y-88874477D01*
X131155500Y-88879500D01*
X131102883Y-88879500D01*
X131035844Y-88859815D01*
X130990089Y-88807011D01*
X130980145Y-88737853D01*
X131003113Y-88681867D01*
X131013402Y-88667924D01*
X131047668Y-88570000D01*
X130574000Y-88570000D01*
X130565314Y-88567449D01*
X130556353Y-88568738D01*
X130532312Y-88557759D01*
X130506961Y-88550315D01*
X130501033Y-88543474D01*
X130492797Y-88539713D01*
X130478507Y-88517478D01*
X130461206Y-88497511D01*
X130458918Y-88486996D01*
X130455023Y-88480935D01*
X130450000Y-88446000D01*
X130450000Y-88307754D01*
X130469685Y-88240715D01*
X130486311Y-88220080D01*
X130600075Y-88106317D01*
X130661397Y-88072834D01*
X130687755Y-88070000D01*
X131047668Y-88070000D01*
X131013403Y-87972077D01*
X130958258Y-87897359D01*
X130934287Y-87831731D01*
X130949602Y-87763560D01*
X130970342Y-87736050D01*
X131779103Y-86927288D01*
X131801540Y-86915037D01*
X131821793Y-86899420D01*
X131831699Y-86898569D01*
X131840424Y-86893805D01*
X131865930Y-86895629D01*
X131891406Y-86893441D01*
X131900197Y-86898079D01*
X131910116Y-86898789D01*
X131930587Y-86914113D01*
X131938617Y-86918351D01*
X131925301Y-86904648D01*
X131911426Y-86836170D01*
X131936776Y-86771061D01*
X131947281Y-86759110D01*
X132310719Y-86395672D01*
X132372040Y-86362189D01*
X132436716Y-86365424D01*
G37*
%TD.AperFunction*%
%TA.AperFunction,Conductor*%
G36*
X132436712Y-81285422D02*
G01*
X132580591Y-81332171D01*
X132706214Y-81352067D01*
X132742279Y-81357780D01*
X132805414Y-81387709D01*
X132842345Y-81447021D01*
X132841347Y-81516883D01*
X132802737Y-81575116D01*
X132742279Y-81602726D01*
X132580706Y-81628317D01*
X132408555Y-81684251D01*
X132408547Y-81684254D01*
X132247269Y-81766432D01*
X132231466Y-81777912D01*
X132231466Y-81777913D01*
X132720591Y-82267037D01*
X132657007Y-82284075D01*
X132542993Y-82349901D01*
X132449901Y-82442993D01*
X132384075Y-82557007D01*
X132367037Y-82620590D01*
X131877912Y-82131466D01*
X131866432Y-82147269D01*
X131784254Y-82308547D01*
X131784251Y-82308555D01*
X131728317Y-82480706D01*
X131700000Y-82659493D01*
X131700000Y-82840506D01*
X131728317Y-83019293D01*
X131784251Y-83191444D01*
X131784252Y-83191447D01*
X131866431Y-83352730D01*
X131877913Y-83368532D01*
X131877913Y-83368533D01*
X132367037Y-82879409D01*
X132384075Y-82942993D01*
X132449901Y-83057007D01*
X132542993Y-83150099D01*
X132657007Y-83215925D01*
X132720590Y-83232962D01*
X132231466Y-83722085D01*
X132231466Y-83722086D01*
X132247267Y-83733566D01*
X132247275Y-83733571D01*
X132408552Y-83815747D01*
X132408555Y-83815748D01*
X132580706Y-83871682D01*
X132742279Y-83897273D01*
X132805413Y-83927202D01*
X132842345Y-83986513D01*
X132841347Y-84056376D01*
X132802738Y-84114609D01*
X132742280Y-84142219D01*
X132580589Y-84167829D01*
X132408363Y-84223787D01*
X132408360Y-84223788D01*
X132247002Y-84306006D01*
X132100505Y-84412441D01*
X132100500Y-84412445D01*
X131972445Y-84540500D01*
X131972441Y-84540505D01*
X131866006Y-84687002D01*
X131783788Y-84848360D01*
X131783787Y-84848363D01*
X131727829Y-85020589D01*
X131699500Y-85199448D01*
X131699500Y-85380551D01*
X131727829Y-85559412D01*
X131774575Y-85703283D01*
X131776570Y-85773124D01*
X131744325Y-85829281D01*
X131239832Y-86333773D01*
X131178509Y-86367258D01*
X131108817Y-86362274D01*
X131052884Y-86320402D01*
X131028693Y-86257666D01*
X131027710Y-86247181D01*
X131027709Y-86247178D01*
X131027708Y-86247173D01*
X130992518Y-86146609D01*
X130983852Y-86121843D01*
X130904999Y-86015001D01*
X130900864Y-86011949D01*
X130858615Y-85956301D01*
X130850500Y-85912181D01*
X130850500Y-85611622D01*
X130870185Y-85544583D01*
X130900863Y-85511854D01*
X131004999Y-85434999D01*
X131083852Y-85328157D01*
X131120574Y-85223212D01*
X131127708Y-85202826D01*
X131127708Y-85202823D01*
X131127710Y-85202819D01*
X131130500Y-85173066D01*
X131130500Y-85120023D01*
X131134725Y-85087930D01*
X131137937Y-85075943D01*
X131150500Y-85029057D01*
X131150500Y-84870943D01*
X131136014Y-84816879D01*
X131134725Y-84812068D01*
X131130500Y-84779976D01*
X131130500Y-84726929D01*
X131127710Y-84697185D01*
X131127710Y-84697181D01*
X131127708Y-84697177D01*
X131127708Y-84697173D01*
X131083852Y-84571844D01*
X131083852Y-84571843D01*
X131004999Y-84465001D01*
X130898157Y-84386148D01*
X130898155Y-84386147D01*
X130772826Y-84342291D01*
X130772814Y-84342289D01*
X130743070Y-84339500D01*
X130743066Y-84339500D01*
X130356934Y-84339500D01*
X130356930Y-84339500D01*
X130327185Y-84342289D01*
X130327173Y-84342291D01*
X130201844Y-84386147D01*
X130143213Y-84429419D01*
X130077584Y-84453390D01*
X130009413Y-84438074D01*
X129995945Y-84429419D01*
X129937920Y-84386594D01*
X129840000Y-84352330D01*
X129840000Y-85547667D01*
X129884545Y-85532081D01*
X129913979Y-85530578D01*
X129943147Y-85526385D01*
X129948475Y-85528818D01*
X129954324Y-85528520D01*
X129979891Y-85543165D01*
X130006703Y-85555410D01*
X130009869Y-85560337D01*
X130014952Y-85563249D01*
X130028545Y-85589397D01*
X130044477Y-85614188D01*
X130045640Y-85622283D01*
X130047179Y-85625242D01*
X130049500Y-85649123D01*
X130049500Y-85847116D01*
X130029815Y-85914155D01*
X129977011Y-85959910D01*
X129907853Y-85969854D01*
X129851868Y-85946887D01*
X129837922Y-85936595D01*
X129740000Y-85902330D01*
X129740000Y-87097667D01*
X129837922Y-87063403D01*
X129895943Y-87020581D01*
X129961571Y-86996609D01*
X130023951Y-87008907D01*
X130034113Y-87013865D01*
X130101843Y-87063852D01*
X130224617Y-87106813D01*
X130231166Y-87110008D01*
X130251813Y-87128843D01*
X130274524Y-87145132D01*
X130277273Y-87152068D01*
X130282785Y-87157096D01*
X130289972Y-87184103D01*
X130300271Y-87210085D01*
X130298834Y-87217405D01*
X130300753Y-87224616D01*
X130292196Y-87251224D01*
X130286814Y-87278646D01*
X130280690Y-87287001D01*
X130279363Y-87291131D01*
X130275086Y-87294649D01*
X130264474Y-87309132D01*
X129512181Y-88061426D01*
X129450858Y-88094911D01*
X129381167Y-88089927D01*
X129325233Y-88048055D01*
X129300816Y-87982591D01*
X129300500Y-87973745D01*
X129300500Y-85639755D01*
X129320185Y-85572716D01*
X129340000Y-85551969D01*
X129340000Y-84337753D01*
X129359685Y-84270714D01*
X129376314Y-84250077D01*
X132310719Y-81315671D01*
X132372040Y-81282188D01*
X132436712Y-81285422D01*
G37*
%TD.AperFunction*%
%TA.AperFunction,Conductor*%
G36*
X126053039Y-85669685D02*
G01*
X126098794Y-85722489D01*
X126110000Y-85774000D01*
X126110000Y-86247667D01*
X126186305Y-86220968D01*
X126188146Y-86220873D01*
X126189678Y-86219841D01*
X126222914Y-86219099D01*
X126256084Y-86217406D01*
X126257685Y-86218323D01*
X126259530Y-86218282D01*
X126287869Y-86235613D01*
X126316711Y-86252134D01*
X126318064Y-86254078D01*
X126319137Y-86254735D01*
X126322761Y-86260830D01*
X126338876Y-86283992D01*
X126441265Y-86495562D01*
X126445192Y-86519130D01*
X126453390Y-86541574D01*
X126450830Y-86552965D01*
X126452750Y-86564482D01*
X126443312Y-86586431D01*
X126438075Y-86609744D01*
X126429419Y-86623213D01*
X126386147Y-86681844D01*
X126342291Y-86807173D01*
X126342289Y-86807185D01*
X126339500Y-86836929D01*
X126339500Y-87223070D01*
X126342289Y-87252814D01*
X126342291Y-87252826D01*
X126370671Y-87333928D01*
X126386148Y-87378157D01*
X126465001Y-87484999D01*
X126499134Y-87510190D01*
X126541385Y-87565838D01*
X126549500Y-87609960D01*
X126549500Y-87776245D01*
X126529815Y-87843284D01*
X126477011Y-87889039D01*
X126407853Y-87898983D01*
X126344297Y-87869958D01*
X126337819Y-87863926D01*
X125037823Y-86563930D01*
X125033485Y-86555985D01*
X125026237Y-86550560D01*
X125017000Y-86525797D01*
X125004338Y-86502607D01*
X125004983Y-86493578D01*
X125001820Y-86485096D01*
X125007436Y-86459276D01*
X125009322Y-86432915D01*
X125015141Y-86423860D01*
X125016672Y-86416823D01*
X125037819Y-86388571D01*
X125173358Y-86253032D01*
X125220080Y-86223676D01*
X125248157Y-86213852D01*
X125306789Y-86170578D01*
X125372415Y-86146609D01*
X125440586Y-86161924D01*
X125454056Y-86170581D01*
X125512077Y-86213403D01*
X125610000Y-86247668D01*
X125610000Y-85774000D01*
X125629685Y-85706961D01*
X125682489Y-85661206D01*
X125734000Y-85650000D01*
X125986000Y-85650000D01*
X126053039Y-85669685D01*
G37*
%TD.AperFunction*%
%TA.AperFunction,Conductor*%
G36*
X134130211Y-85531391D02*
G01*
X134181687Y-85578635D01*
X134199500Y-85642669D01*
X134199500Y-87477330D01*
X134179815Y-87544369D01*
X134127011Y-87590124D01*
X134057853Y-87600068D01*
X133994297Y-87571043D01*
X133957569Y-87515648D01*
X133916212Y-87388363D01*
X133916211Y-87388360D01*
X133879620Y-87316548D01*
X133833996Y-87227006D01*
X133783204Y-87157096D01*
X133727558Y-87080505D01*
X133727554Y-87080500D01*
X133599499Y-86952445D01*
X133599494Y-86952441D01*
X133452997Y-86846006D01*
X133452996Y-86846005D01*
X133452994Y-86846004D01*
X133396976Y-86817461D01*
X133291639Y-86763788D01*
X133291636Y-86763787D01*
X133119410Y-86707829D01*
X132959321Y-86682473D01*
X132896186Y-86652544D01*
X132859255Y-86593232D01*
X132860253Y-86523370D01*
X132898863Y-86465137D01*
X132959321Y-86437527D01*
X133029425Y-86426422D01*
X133119409Y-86412171D01*
X133291639Y-86356211D01*
X133452994Y-86273996D01*
X133599501Y-86167553D01*
X133727553Y-86039501D01*
X133833996Y-85892994D01*
X133916211Y-85731639D01*
X133932683Y-85680943D01*
X133957569Y-85604351D01*
X133997006Y-85546676D01*
X134061364Y-85519477D01*
X134130211Y-85531391D01*
G37*
%TD.AperFunction*%
%TA.AperFunction,Conductor*%
G36*
X133822085Y-83368532D02*
G01*
X133833568Y-83352730D01*
X133915745Y-83191452D01*
X133915748Y-83191444D01*
X133957569Y-83062731D01*
X133997006Y-83005056D01*
X134061364Y-82977857D01*
X134130211Y-82989771D01*
X134181687Y-83037015D01*
X134199500Y-83101049D01*
X134199500Y-84937330D01*
X134179815Y-85004369D01*
X134127011Y-85050124D01*
X134057853Y-85060068D01*
X133994297Y-85031043D01*
X133957569Y-84975648D01*
X133916212Y-84848363D01*
X133916211Y-84848360D01*
X133854340Y-84726934D01*
X133833996Y-84687006D01*
X133768608Y-84597006D01*
X133727558Y-84540505D01*
X133727554Y-84540500D01*
X133599499Y-84412445D01*
X133599494Y-84412441D01*
X133452997Y-84306006D01*
X133452996Y-84306005D01*
X133452994Y-84306004D01*
X133376235Y-84266893D01*
X133291639Y-84223788D01*
X133291636Y-84223787D01*
X133119410Y-84167828D01*
X132957720Y-84142219D01*
X132894585Y-84112289D01*
X132857654Y-84052978D01*
X132858652Y-83983115D01*
X132897262Y-83924883D01*
X132957721Y-83897273D01*
X133119292Y-83871683D01*
X133291444Y-83815748D01*
X133291452Y-83815745D01*
X133452730Y-83733568D01*
X133468532Y-83722085D01*
X133468533Y-83722085D01*
X132979410Y-83232962D01*
X133042993Y-83215925D01*
X133157007Y-83150099D01*
X133250099Y-83057007D01*
X133315925Y-82942993D01*
X133332962Y-82879409D01*
X133822085Y-83368532D01*
G37*
%TD.AperFunction*%
%TA.AperFunction,Conductor*%
G36*
X134130211Y-80451391D02*
G01*
X134181687Y-80498635D01*
X134199500Y-80562669D01*
X134199500Y-82398950D01*
X134179815Y-82465989D01*
X134127011Y-82511744D01*
X134057853Y-82521688D01*
X133994297Y-82492663D01*
X133957569Y-82437268D01*
X133915748Y-82308555D01*
X133915747Y-82308552D01*
X133833571Y-82147275D01*
X133833566Y-82147267D01*
X133822085Y-82131466D01*
X133332962Y-82620589D01*
X133315925Y-82557007D01*
X133250099Y-82442993D01*
X133157007Y-82349901D01*
X133042993Y-82284075D01*
X132979409Y-82267037D01*
X133468533Y-81777913D01*
X133452730Y-81766431D01*
X133291447Y-81684252D01*
X133291444Y-81684251D01*
X133119293Y-81628317D01*
X132957720Y-81602726D01*
X132894585Y-81572797D01*
X132857654Y-81513485D01*
X132858652Y-81443623D01*
X132897262Y-81385390D01*
X132957720Y-81357780D01*
X132985563Y-81353370D01*
X133119409Y-81332171D01*
X133291639Y-81276211D01*
X133452994Y-81193996D01*
X133599501Y-81087553D01*
X133727553Y-80959501D01*
X133833996Y-80812994D01*
X133916211Y-80651639D01*
X133945119Y-80562669D01*
X133957569Y-80524351D01*
X133997006Y-80466676D01*
X134061364Y-80439477D01*
X134130211Y-80451391D01*
G37*
%TD.AperFunction*%
%TA.AperFunction,Conductor*%
G36*
X118555805Y-76170185D02*
G01*
X118601560Y-76222989D01*
X118611504Y-76292147D01*
X118582479Y-76355703D01*
X118576447Y-76362181D01*
X118558601Y-76380026D01*
X118558598Y-76380030D01*
X118471052Y-76511051D01*
X118471047Y-76511060D01*
X118410743Y-76656648D01*
X118410741Y-76656656D01*
X118380000Y-76811202D01*
X118380000Y-76940000D01*
X118880000Y-76940000D01*
X118880000Y-77440000D01*
X118380000Y-77440000D01*
X118380000Y-77568797D01*
X118410741Y-77723343D01*
X118410743Y-77723351D01*
X118471047Y-77868939D01*
X118471052Y-77868948D01*
X118558598Y-77999969D01*
X118558601Y-77999973D01*
X118670026Y-78111398D01*
X118670034Y-78111404D01*
X118801047Y-78198944D01*
X118801065Y-78198954D01*
X118929999Y-78252360D01*
X118930000Y-78252360D01*
X118930000Y-77656988D01*
X118939940Y-77674205D01*
X118995795Y-77730060D01*
X119064204Y-77769556D01*
X119140504Y-77790000D01*
X119219496Y-77790000D01*
X119295796Y-77769556D01*
X119364205Y-77730060D01*
X119420060Y-77674205D01*
X119430000Y-77656988D01*
X119430000Y-78252360D01*
X119558934Y-78198954D01*
X119558952Y-78198944D01*
X119689965Y-78111404D01*
X119689973Y-78111398D01*
X119801398Y-77999973D01*
X119801401Y-77999969D01*
X119888947Y-77868948D01*
X119888952Y-77868939D01*
X119949256Y-77723351D01*
X119949258Y-77723343D01*
X119979999Y-77568797D01*
X119980000Y-77568794D01*
X119980000Y-77440000D01*
X119480000Y-77440000D01*
X119480000Y-76940000D01*
X119980000Y-76940000D01*
X119980000Y-76811206D01*
X119979999Y-76811202D01*
X119949258Y-76656656D01*
X119949256Y-76656648D01*
X119888952Y-76511060D01*
X119888947Y-76511051D01*
X119801401Y-76380030D01*
X119801398Y-76380026D01*
X119783553Y-76362181D01*
X119750068Y-76300858D01*
X119755052Y-76231166D01*
X119796924Y-76175233D01*
X119862388Y-76150816D01*
X119871234Y-76150500D01*
X127128766Y-76150500D01*
X127195805Y-76170185D01*
X127241560Y-76222989D01*
X127251504Y-76292147D01*
X127222479Y-76355703D01*
X127216447Y-76362181D01*
X127198601Y-76380026D01*
X127198598Y-76380030D01*
X127111052Y-76511051D01*
X127111047Y-76511060D01*
X127050743Y-76656648D01*
X127050741Y-76656656D01*
X127020000Y-76811202D01*
X127020000Y-76940000D01*
X127520000Y-76940000D01*
X127520000Y-77440000D01*
X127020000Y-77440000D01*
X127020000Y-77568797D01*
X127050741Y-77723343D01*
X127050743Y-77723351D01*
X127111047Y-77868939D01*
X127111052Y-77868948D01*
X127198598Y-77999969D01*
X127198601Y-77999973D01*
X127310026Y-78111398D01*
X127310034Y-78111404D01*
X127441047Y-78198944D01*
X127441065Y-78198954D01*
X127569999Y-78252360D01*
X127570000Y-78252360D01*
X127570000Y-77656988D01*
X127579940Y-77674205D01*
X127635795Y-77730060D01*
X127704204Y-77769556D01*
X127780504Y-77790000D01*
X127859496Y-77790000D01*
X127935796Y-77769556D01*
X128004205Y-77730060D01*
X128060060Y-77674205D01*
X128070000Y-77656988D01*
X128070000Y-78146839D01*
X128050315Y-78213878D01*
X128033681Y-78234520D01*
X126540020Y-79728181D01*
X126478697Y-79761666D01*
X126452339Y-79764500D01*
X126170745Y-79764500D01*
X126170729Y-79764499D01*
X126163133Y-79764499D01*
X126057680Y-79764499D01*
X125955819Y-79791793D01*
X125955817Y-79791793D01*
X125955817Y-79791794D01*
X125864490Y-79844522D01*
X125850384Y-79858629D01*
X125789061Y-79892114D01*
X125719369Y-79887130D01*
X125675022Y-79858629D01*
X125445915Y-79629522D01*
X125445913Y-79629520D01*
X125400250Y-79603156D01*
X125354589Y-79576793D01*
X125303657Y-79563146D01*
X125252727Y-79549500D01*
X125147273Y-79549500D01*
X125045410Y-79576793D01*
X124954087Y-79629520D01*
X124954084Y-79629522D01*
X124879522Y-79704084D01*
X124879520Y-79704087D01*
X124826793Y-79795412D01*
X124811071Y-79854088D01*
X124811071Y-79854089D01*
X124811070Y-79854088D01*
X124799498Y-79897278D01*
X124799407Y-79897973D01*
X124799167Y-79898514D01*
X124797397Y-79905122D01*
X124796365Y-79904845D01*
X124771134Y-79961866D01*
X124764151Y-79969455D01*
X124370426Y-80363181D01*
X124309103Y-80396666D01*
X124282745Y-80399500D01*
X122417254Y-80399500D01*
X122350215Y-80379815D01*
X122329573Y-80363181D01*
X121963579Y-79997187D01*
X121595913Y-79629520D01*
X121550250Y-79603156D01*
X121504589Y-79576793D01*
X121453657Y-79563146D01*
X121402727Y-79549500D01*
X121202727Y-79549500D01*
X121097273Y-79549500D01*
X120995410Y-79576793D01*
X120904087Y-79629520D01*
X120904084Y-79629522D01*
X120679522Y-79854084D01*
X120679521Y-79854086D01*
X120679520Y-79854087D01*
X120673315Y-79864835D01*
X120626793Y-79945410D01*
X120599500Y-80047273D01*
X120599500Y-80151863D01*
X120579815Y-80218902D01*
X120527011Y-80264657D01*
X120507593Y-80271638D01*
X120387865Y-80303719D01*
X120387863Y-80303719D01*
X120387863Y-80303720D01*
X120256635Y-80379485D01*
X120256632Y-80379487D01*
X120149487Y-80486632D01*
X120149481Y-80486641D01*
X120134499Y-80512589D01*
X120083931Y-80560803D01*
X120015324Y-80574024D01*
X119950460Y-80548054D01*
X119912553Y-80498038D01*
X119888954Y-80441064D01*
X119888947Y-80441051D01*
X119801401Y-80310030D01*
X119801398Y-80310026D01*
X119689973Y-80198601D01*
X119689969Y-80198598D01*
X119558948Y-80111052D01*
X119558938Y-80111047D01*
X119430000Y-80057639D01*
X119430000Y-80653011D01*
X119420060Y-80635795D01*
X119364205Y-80579940D01*
X119295796Y-80540444D01*
X119219496Y-80520000D01*
X119140504Y-80520000D01*
X119064204Y-80540444D01*
X118995795Y-80579940D01*
X118939940Y-80635795D01*
X118930000Y-80653011D01*
X118930000Y-80057639D01*
X118929999Y-80057639D01*
X118801061Y-80111047D01*
X118801051Y-80111052D01*
X118670030Y-80198598D01*
X118670026Y-80198601D01*
X118558601Y-80310026D01*
X118558598Y-80310030D01*
X118471052Y-80441051D01*
X118471047Y-80441060D01*
X118410743Y-80586648D01*
X118410741Y-80586656D01*
X118380000Y-80741202D01*
X118380000Y-81201819D01*
X118360315Y-81268858D01*
X118307511Y-81314613D01*
X118238353Y-81324557D01*
X118174797Y-81295532D01*
X118156231Y-81275454D01*
X118096065Y-81193935D01*
X117990559Y-81116066D01*
X117990557Y-81116065D01*
X117866786Y-81072755D01*
X117850000Y-81071181D01*
X117850000Y-81516000D01*
X117830315Y-81583039D01*
X117777511Y-81628794D01*
X117726000Y-81640000D01*
X117600000Y-81640000D01*
X117600000Y-81766000D01*
X117580315Y-81833039D01*
X117527511Y-81878794D01*
X117476000Y-81890000D01*
X116974204Y-81890000D01*
X116965191Y-81897112D01*
X116895649Y-81903869D01*
X116877960Y-81899113D01*
X116802724Y-81872787D01*
X116802721Y-81872786D01*
X116800000Y-81872530D01*
X116800000Y-82326000D01*
X116780315Y-82393039D01*
X116727511Y-82438794D01*
X116676000Y-82450000D01*
X116424000Y-82450000D01*
X116356961Y-82430315D01*
X116311206Y-82377511D01*
X116300000Y-82326000D01*
X116300000Y-81872531D01*
X116299999Y-81872530D01*
X116297275Y-81872786D01*
X116215454Y-81901417D01*
X116145675Y-81904978D01*
X116085048Y-81870249D01*
X116052821Y-81808256D01*
X116050500Y-81784375D01*
X116050500Y-81389999D01*
X116994378Y-81389999D01*
X116994378Y-81390000D01*
X117350000Y-81390000D01*
X117350000Y-81071182D01*
X117349999Y-81071181D01*
X117333214Y-81072755D01*
X117333212Y-81072755D01*
X117209442Y-81116065D01*
X117209440Y-81116066D01*
X117103934Y-81193934D01*
X117026066Y-81299440D01*
X117026065Y-81299442D01*
X116994378Y-81389999D01*
X116050500Y-81389999D01*
X116050500Y-79227275D01*
X116050500Y-79227273D01*
X116023207Y-79125413D01*
X116023207Y-79125412D01*
X115970480Y-79034087D01*
X115136818Y-78200425D01*
X115103333Y-78139102D01*
X115100499Y-78112744D01*
X115100499Y-76685143D01*
X115100499Y-76685136D01*
X115100497Y-76685117D01*
X115097586Y-76660012D01*
X115097585Y-76660010D01*
X115097585Y-76660009D01*
X115052206Y-76557235D01*
X114972765Y-76477794D01*
X114928414Y-76458211D01*
X114869992Y-76432415D01*
X114844865Y-76429500D01*
X113055143Y-76429500D01*
X113055117Y-76429502D01*
X113030013Y-76432413D01*
X112988232Y-76450861D01*
X112927235Y-76477794D01*
X112927234Y-76477794D01*
X112924586Y-76478964D01*
X112855307Y-76488035D01*
X112792123Y-76458211D01*
X112755092Y-76398962D01*
X112750500Y-76365529D01*
X112750500Y-76274500D01*
X112770185Y-76207461D01*
X112822989Y-76161706D01*
X112874500Y-76150500D01*
X118488766Y-76150500D01*
X118555805Y-76170185D01*
G37*
%TD.AperFunction*%
%TA.AperFunction,Conductor*%
G36*
X134141219Y-78615368D02*
G01*
X134187636Y-78667591D01*
X134199500Y-78720520D01*
X134199500Y-79857330D01*
X134179815Y-79924369D01*
X134127011Y-79970124D01*
X134057853Y-79980068D01*
X133994297Y-79951043D01*
X133957569Y-79895648D01*
X133916212Y-79768363D01*
X133916211Y-79768360D01*
X133887740Y-79712484D01*
X133833996Y-79607006D01*
X133768605Y-79517002D01*
X133727558Y-79460505D01*
X133727554Y-79460500D01*
X133599499Y-79332445D01*
X133599494Y-79332441D01*
X133452997Y-79226006D01*
X133452996Y-79226005D01*
X133452994Y-79226004D01*
X133392744Y-79195305D01*
X133291639Y-79143788D01*
X133291636Y-79143787D01*
X133119410Y-79087829D01*
X132987728Y-79066972D01*
X132924594Y-79037042D01*
X132887663Y-78977731D01*
X132888661Y-78907868D01*
X132927271Y-78849636D01*
X132991235Y-78821522D01*
X133007120Y-78820499D01*
X133744864Y-78820499D01*
X133744879Y-78820497D01*
X133744882Y-78820497D01*
X133769987Y-78817586D01*
X133769988Y-78817585D01*
X133769991Y-78817585D01*
X133872765Y-78772206D01*
X133952206Y-78692765D01*
X133962067Y-78670431D01*
X134007151Y-78617058D01*
X134073937Y-78596530D01*
X134141219Y-78615368D01*
G37*
%TD.AperFunction*%
%TA.AperFunction,Conductor*%
G36*
X134142539Y-76170185D02*
G01*
X134188294Y-76222989D01*
X134199500Y-76274500D01*
X134199500Y-76619479D01*
X134179815Y-76686518D01*
X134127011Y-76732273D01*
X134057853Y-76742217D01*
X133994297Y-76713192D01*
X133962066Y-76669566D01*
X133952206Y-76647235D01*
X133872765Y-76567794D01*
X133848851Y-76557235D01*
X133769992Y-76522415D01*
X133744865Y-76519500D01*
X131955143Y-76519500D01*
X131955117Y-76519502D01*
X131930012Y-76522413D01*
X131930008Y-76522415D01*
X131827235Y-76567793D01*
X131747794Y-76647234D01*
X131702415Y-76750006D01*
X131702415Y-76750008D01*
X131699500Y-76775131D01*
X131699500Y-77145500D01*
X131679815Y-77212539D01*
X131627011Y-77258294D01*
X131575500Y-77269500D01*
X129111867Y-77269500D01*
X129010004Y-77296793D01*
X128918681Y-77349519D01*
X128811781Y-77456420D01*
X128750458Y-77489904D01*
X128680766Y-77484920D01*
X128636419Y-77456419D01*
X128620000Y-77440000D01*
X128120000Y-77440000D01*
X128120000Y-76940000D01*
X128620000Y-76940000D01*
X128620000Y-76811206D01*
X128619999Y-76811202D01*
X128589258Y-76656656D01*
X128589256Y-76656648D01*
X128528952Y-76511060D01*
X128528947Y-76511051D01*
X128441401Y-76380030D01*
X128441398Y-76380026D01*
X128423553Y-76362181D01*
X128390068Y-76300858D01*
X128395052Y-76231166D01*
X128436924Y-76175233D01*
X128502388Y-76150816D01*
X128511234Y-76150500D01*
X134075500Y-76150500D01*
X134142539Y-76170185D01*
G37*
%TD.AperFunction*%
%TD*%
M02*
