%TF.GenerationSoftware,KiCad,Pcbnew,10.0.1*%
%TF.CreationDate,2026-06-21T01:56:21+02:00*%
%TF.ProjectId,devboard,64657662-6f61-4726-942e-6b696361645f,rev?*%
%TF.SameCoordinates,Original*%
%TF.FileFunction,Copper,L2,Bot*%
%TF.FilePolarity,Positive*%
%FSLAX46Y46*%
G04 Gerber Fmt 4.6, Leading zero omitted, Abs format (unit mm)*
G04 Created by KiCad (PCBNEW 10.0.1) date 2026-06-21 01:56:21*
%MOMM*%
%LPD*%
G01*
G04 APERTURE LIST*
%TA.AperFunction,ComponentPad*%
%ADD10R,1.050000X1.500000*%
%TD*%
%TA.AperFunction,ComponentPad*%
%ADD11O,1.050000X1.500000*%
%TD*%
%TA.AperFunction,ComponentPad*%
%ADD12O,1.000000X2.100000*%
%TD*%
%TA.AperFunction,ComponentPad*%
%ADD13O,1.000000X1.600000*%
%TD*%
%TA.AperFunction,ComponentPad*%
%ADD14R,1.700000X1.700000*%
%TD*%
%TA.AperFunction,ComponentPad*%
%ADD15C,1.700000*%
%TD*%
%TA.AperFunction,ViaPad*%
%ADD16C,0.600000*%
%TD*%
%TA.AperFunction,Conductor*%
%ADD17C,0.200000*%
%TD*%
G04 APERTURE END LIST*
D10*
%TO.P,U4,1,GND_1*%
%TO.N,GND*%
X118510000Y-86400000D03*
D11*
%TO.P,U4,2,VI_2*%
%TO.N,VBUS*%
X119780000Y-86400000D03*
%TO.P,U4,3,VO_3*%
%TO.N,+3V3*%
X121050000Y-86400000D03*
%TD*%
D12*
%TO.P,J1,SH,SHIELD_SH*%
%TO.N,GND*%
X127820000Y-81370000D03*
D13*
X127820000Y-77190000D03*
D12*
X119180000Y-81370000D03*
D13*
X119180000Y-77190000D03*
%TD*%
D14*
%TO.P,J4,1,Pin_1_1*%
%TO.N,SWD*%
X121510000Y-127500000D03*
D15*
%TO.P,J4,2,Pin_2_2*%
%TO.N,GND*%
X124050000Y-127500000D03*
%TO.P,J4,3,Pin_3_3*%
%TO.N,SWCLK*%
X126590000Y-127500000D03*
%TD*%
D14*
%TO.P,J3,1,Pin_1_1*%
%TO.N,VBUS*%
X132850000Y-77670000D03*
D15*
%TO.P,J3,2,Pin_2_2*%
%TO.N,GPIO_29{slash}ADC_3*%
X132850000Y-80210000D03*
%TO.P,J3,3,Pin_3_3*%
%TO.N,GND*%
X132850000Y-82750000D03*
%TO.P,J3,4,Pin_4_4*%
%TO.N,GPIO_28{slash}ADC_2*%
X132850000Y-85290000D03*
%TO.P,J3,5,Pin_5_5*%
%TO.N,+3V3*%
X132850000Y-87830000D03*
%TO.P,J3,6,Pin_6_6*%
%TO.N,GPIO_27{slash}ADC_1*%
X132850000Y-90370000D03*
%TO.P,J3,7,Pin_7_7*%
%TO.N,GPIO_26{slash}ADC_0*%
X132850000Y-92910000D03*
%TO.P,J3,8,Pin_8_8*%
%TO.N,GND*%
X132850000Y-95450000D03*
%TO.P,J3,9,Pin_9_9*%
%TO.N,GPIO_24*%
X132850000Y-97990000D03*
%TO.P,J3,10,Pin_10_10*%
%TO.N,GPIO_23*%
X132850000Y-100530000D03*
%TO.P,J3,11,Pin_11_11*%
%TO.N,RUN*%
X132850000Y-103070000D03*
%TO.P,J3,12,Pin_12_12*%
%TO.N,GPIO_22*%
X132850000Y-105610000D03*
%TO.P,J3,13,Pin_13_13*%
%TO.N,GND*%
X132850000Y-108150000D03*
%TO.P,J3,14,Pin_14_14*%
%TO.N,GPIO_18*%
X132850000Y-110690000D03*
%TO.P,J3,15,Pin_15_15*%
%TO.N,GPIO_19*%
X132850000Y-113230000D03*
%TO.P,J3,16,Pin_16_16*%
%TO.N,GPIO_20*%
X132850000Y-115770000D03*
%TO.P,J3,17,Pin_17_17*%
%TO.N,GPIO_21*%
X132850000Y-118310000D03*
%TO.P,J3,18,Pin_18_18*%
%TO.N,GND*%
X132850000Y-120850000D03*
%TO.P,J3,19,Pin_19_19*%
%TO.N,GPIO_17*%
X132850000Y-123390000D03*
%TO.P,J3,20,Pin_20_20*%
%TO.N,GPIO_16*%
X132850000Y-125930000D03*
%TD*%
D14*
%TO.P,J2,1,Pin_1_1*%
%TO.N,GPIO_0*%
X113950000Y-77580000D03*
D15*
%TO.P,J2,2,Pin_2_2*%
%TO.N,GPIO_1*%
X113950000Y-80120000D03*
%TO.P,J2,3,Pin_3_3*%
%TO.N,GPIO_13*%
X113950000Y-82660000D03*
%TO.P,J2,4,Pin_4_4*%
%TO.N,GPIO_2*%
X113950000Y-85200000D03*
%TO.P,J2,5,Pin_5_5*%
%TO.N,GPIO_3*%
X113950000Y-87740000D03*
%TO.P,J2,6,Pin_6_6*%
%TO.N,GPIO_4*%
X113950000Y-90280000D03*
%TO.P,J2,7,Pin_7_7*%
%TO.N,GPIO_5*%
X113950000Y-92820000D03*
%TO.P,J2,8,Pin_8_8*%
%TO.N,GPIO_13*%
X113950000Y-95360000D03*
%TO.P,J2,9,Pin_9_9*%
%TO.N,GPIO_6*%
X113950000Y-97900000D03*
%TO.P,J2,10,Pin_10_10*%
%TO.N,GPIO_7*%
X113950000Y-100440000D03*
%TO.P,J2,11,Pin_11_11*%
%TO.N,GPIO_8*%
X113950000Y-102980000D03*
%TO.P,J2,12,Pin_12_12*%
%TO.N,GPIO_13*%
X113950000Y-105520000D03*
%TO.P,J2,13,Pin_13_13*%
X113950000Y-108060000D03*
%TO.P,J2,14,Pin_14_14*%
%TO.N,GPIO_10*%
X113950000Y-110600000D03*
%TO.P,J2,15,Pin_15_15*%
%TO.N,GPIO_11*%
X113950000Y-113140000D03*
%TO.P,J2,16,Pin_16_16*%
%TO.N,GPIO_12*%
X113950000Y-115680000D03*
%TO.P,J2,17,Pin_17_17*%
%TO.N,GPIO_13*%
X113950000Y-118220000D03*
%TO.P,J2,18,Pin_18_18*%
X113950000Y-120760000D03*
%TO.P,J2,19,Pin_19_19*%
X113950000Y-123300000D03*
%TO.P,J2,20,Pin_20_20*%
X113950000Y-125840000D03*
%TD*%
D16*
%TO.N,GND*%
X126550000Y-105300000D03*
X127300000Y-107800000D03*
%TO.N,+3V3*%
X120850000Y-97950000D03*
X123300000Y-96000000D03*
%TO.N,GND*%
X118050000Y-90950000D03*
X119550000Y-89800000D03*
X121950000Y-85150000D03*
X117800000Y-79750000D03*
X119250000Y-84400000D03*
X128150000Y-84100000D03*
X124450000Y-122050000D03*
%TO.N,GPIO_13*%
X113050000Y-101973768D03*
X113050000Y-99433769D03*
%TO.N,GPIO_7*%
X121394294Y-111892275D03*
X121394294Y-111892275D03*
%TO.N,GND*%
X122581644Y-116619826D03*
X118700000Y-122200000D03*
X122300000Y-109850000D03*
%TO.N,+3V3*%
X122700000Y-114000002D03*
X121250000Y-116400000D03*
%TO.N,Net-(J1-CC2)*%
X117650000Y-83400000D03*
X121750000Y-83750000D03*
%TO.N,+3V3*%
X126095872Y-110152657D03*
X127600000Y-90050000D03*
X124964668Y-109400000D03*
%TO.N,Net-(C16-Pad2)*%
X120950000Y-120706922D03*
X124450000Y-120450000D03*
%TO.N,Net-(R7-Pad1)*%
X123000000Y-123800000D03*
X118800000Y-106450000D03*
%TO.N,QSPI_SCLK*%
X121500000Y-91600000D03*
X123261765Y-100561765D03*
X123625735Y-105025735D03*
X120512500Y-106800000D03*
%TO.N,+1V1*%
X123700000Y-109799998D03*
X127550000Y-122800000D03*
X123700000Y-114000000D03*
X125990000Y-123450000D03*
%TO.N,USB_D+*%
X123750000Y-83650000D03*
X124750000Y-99300000D03*
%TO.N,USB_D-*%
X125350000Y-98732254D03*
X124450000Y-84750000D03*
%TO.N,QSPI_SS*%
X121112500Y-101400000D03*
X122712500Y-99413972D03*
%TO.N,QSPI_SD3*%
X127525000Y-92910000D03*
X123699197Y-101231584D03*
%TO.N,GPIO_13*%
X118050000Y-113500000D03*
%TO.N,SWD*%
X124800000Y-114076928D03*
%TO.N,RUN*%
X125512500Y-117695049D03*
%TO.N,GPIO_18*%
X127350000Y-115000000D03*
%TO.N,GPIO_19*%
X126000000Y-114100000D03*
%TO.N,GPIO_20*%
X126416353Y-113416883D03*
%TD*%
%TO.N,Net-(C16-Pad2)*%
D17*
X123350000Y-120900000D02*
X124000000Y-120900000D01*
X124000000Y-120900000D02*
X124450000Y-120450000D01*
X123350000Y-120900000D02*
X123150735Y-120700735D01*
X123150735Y-120700735D02*
X120956187Y-120700735D01*
X120956187Y-120700735D02*
X120950000Y-120706922D01*
%TO.N,GND*%
X123800000Y-108350000D02*
X122300000Y-109850000D01*
X127300000Y-107800000D02*
X126750000Y-108350000D01*
X126750000Y-108350000D02*
X123800000Y-108350000D01*
%TO.N,+3V3*%
X123300000Y-96000000D02*
X122800000Y-96000000D01*
X122800000Y-96000000D02*
X120850000Y-97950000D01*
%TO.N,QSPI_SCLK*%
X121500000Y-91600000D02*
X121500000Y-92790000D01*
X121500000Y-92790000D02*
X123950000Y-95240000D01*
X123950000Y-95240000D02*
X123950000Y-99873530D01*
X123950000Y-99873530D02*
X123261765Y-100561765D01*
%TO.N,GND*%
X118500000Y-90950000D02*
X118600000Y-91050000D01*
X118050000Y-90950000D02*
X118500000Y-90950000D01*
X119750000Y-89800000D02*
X120100000Y-90150000D01*
X119550000Y-89800000D02*
X119750000Y-89800000D01*
X121950000Y-84850000D02*
X122200000Y-84600000D01*
X121950000Y-85150000D02*
X121950000Y-84850000D01*
X118250000Y-79750000D02*
X118300000Y-79800000D01*
X117800000Y-79750000D02*
X118250000Y-79750000D01*
X119550000Y-84700000D02*
X119800000Y-84700000D01*
X119250000Y-84400000D02*
X119550000Y-84700000D01*
X128500000Y-84450000D02*
X128600000Y-84450000D01*
X128150000Y-84100000D02*
X128500000Y-84450000D01*
X124450000Y-122050000D02*
X124650000Y-122250000D01*
X124650000Y-122250000D02*
X124650000Y-122300000D01*
%TO.N,GPIO_13*%
X114426346Y-101830000D02*
X115100000Y-102503654D01*
X115100000Y-98376346D02*
X114297210Y-99179136D01*
X115100000Y-104370000D02*
X113950000Y-105520000D01*
X113950000Y-95360000D02*
X115100000Y-96510000D01*
X115100000Y-96510000D02*
X115100000Y-98376346D01*
X114297210Y-99179136D02*
X113304634Y-99179136D01*
X115100000Y-102503654D02*
X115100000Y-104370000D01*
X113304634Y-99179136D02*
X113050000Y-99433769D01*
X113050000Y-101973768D02*
X113193768Y-101830000D01*
X113193768Y-101830000D02*
X114426346Y-101830000D01*
%TO.N,GPIO_7*%
X113950000Y-100440000D02*
X119400000Y-105890000D01*
X119400000Y-105890000D02*
X119400000Y-109897981D01*
X119400000Y-109897981D02*
X121394294Y-111892275D01*
%TO.N,Net-(R7-Pad1)*%
X118800000Y-106450000D02*
X118800000Y-107400000D01*
X118800000Y-107400000D02*
X118300000Y-107900000D01*
X118300000Y-107900000D02*
X118300000Y-112901471D01*
X118300000Y-112901471D02*
X118650000Y-113251471D01*
X118650000Y-113251471D02*
X118650000Y-113748529D01*
X118650000Y-113748529D02*
X118300000Y-114098529D01*
X118300000Y-114098529D02*
X118300000Y-120950000D01*
X118300000Y-120950000D02*
X121150000Y-123800000D01*
X121150000Y-123800000D02*
X123000000Y-123800000D01*
%TO.N,GND*%
X122581644Y-116868356D02*
X122450000Y-117000000D01*
X122581644Y-116619826D02*
X122581644Y-116868356D01*
%TO.N,+3V3*%
X121250000Y-115450002D02*
X122700000Y-114000002D01*
X121250000Y-116400000D02*
X121250000Y-115450002D01*
%TO.N,USB_D-*%
X124450000Y-84750000D02*
X124450000Y-86684314D01*
X124450000Y-86684314D02*
X125350000Y-87584314D01*
X125350000Y-87584314D02*
X125350000Y-98732254D01*
%TO.N,Net-(J1-CC2)*%
X121400000Y-83400000D02*
X117650000Y-83400000D01*
X121750000Y-83750000D02*
X121400000Y-83400000D01*
%TO.N,+3V3*%
X132850000Y-87830000D02*
X130630000Y-90050000D01*
X130630000Y-90050000D02*
X127600000Y-90050000D01*
X125343215Y-109400000D02*
X126095872Y-110152657D01*
X124964668Y-109400000D02*
X125343215Y-109400000D01*
%TO.N,QSPI_SCLK*%
X122774265Y-105025735D02*
X122750000Y-105050000D01*
X122750000Y-105050000D02*
X122262502Y-105050000D01*
X122262502Y-105050000D02*
X120512500Y-106800000D01*
X123625735Y-105025735D02*
X122774265Y-105025735D01*
%TO.N,+1V1*%
X123700000Y-112600000D02*
X124500000Y-111800000D01*
X123700000Y-114000000D02*
X123700000Y-112600000D01*
X124500000Y-111800000D02*
X124500000Y-110250000D01*
X126900000Y-123450000D02*
X125990000Y-123450000D01*
X124500000Y-110250000D02*
X124049998Y-109799998D01*
X124049998Y-109799998D02*
X123700000Y-109799998D01*
X127550000Y-122800000D02*
X126900000Y-123450000D01*
%TO.N,USB_D+*%
X123850000Y-83750000D02*
X123750000Y-83650000D01*
X124750000Y-87550000D02*
X123850000Y-86650000D01*
X123850000Y-86650000D02*
X123850000Y-83750000D01*
X124750000Y-99300000D02*
X124750000Y-87550000D01*
%TO.N,QSPI_SS*%
X121112500Y-101013972D02*
X122712500Y-99413972D01*
X121112500Y-101400000D02*
X121112500Y-101013972D01*
%TO.N,QSPI_SD3*%
X123699197Y-101231584D02*
X127525000Y-97405781D01*
X127525000Y-97405781D02*
X127525000Y-92910000D01*
%TO.N,GPIO_13*%
X115100000Y-83810000D02*
X113950000Y-82660000D01*
X113950000Y-95360000D02*
X115100000Y-94210000D01*
X115800000Y-115750000D02*
X115800000Y-116370000D01*
X118050000Y-113500000D02*
X115800000Y-115750000D01*
X115800000Y-116370000D02*
X113950000Y-118220000D01*
X115100000Y-94210000D02*
X115100000Y-83810000D01*
%TO.N,SWD*%
X125050000Y-123960000D02*
X121510000Y-127500000D01*
X124800000Y-117831078D02*
X125050000Y-118081078D01*
X125050000Y-118081078D02*
X125050000Y-123960000D01*
X124800000Y-114076928D02*
X124800000Y-117831078D01*
%TO.N,RUN*%
X134000000Y-116246346D02*
X134000000Y-104220000D01*
X126257549Y-116950000D02*
X133296346Y-116950000D01*
X133296346Y-116950000D02*
X134000000Y-116246346D01*
X125512500Y-117695049D02*
X126257549Y-116950000D01*
X134000000Y-104220000D02*
X132850000Y-103070000D01*
%TO.N,GPIO_18*%
X126051471Y-115000000D02*
X125400000Y-114348529D01*
X125600000Y-112819021D02*
X125600000Y-112485785D01*
X125418363Y-113833108D02*
X125416353Y-113831097D01*
X125600000Y-112485785D02*
X127395785Y-110690000D01*
X125400000Y-114348529D02*
X125400000Y-113851471D01*
X125416353Y-113831097D02*
X125416353Y-113002668D01*
X125416353Y-113002668D02*
X125600000Y-112819021D01*
X125400000Y-113851471D02*
X125418363Y-113833108D01*
X127350000Y-115000000D02*
X126051471Y-115000000D01*
X127395785Y-110690000D02*
X132850000Y-110690000D01*
%TO.N,GPIO_19*%
X126000000Y-114100000D02*
X126000000Y-113849059D01*
X125816353Y-113168354D02*
X126167824Y-112816883D01*
X126000000Y-113849059D02*
X125816353Y-113665412D01*
X125816353Y-113665412D02*
X125816353Y-113168354D01*
X126167824Y-112816883D02*
X126183117Y-112816883D01*
X132220000Y-112600000D02*
X132850000Y-113230000D01*
X126183117Y-112816883D02*
X126400000Y-112600000D01*
X126400000Y-112600000D02*
X132220000Y-112600000D01*
%TO.N,GPIO_20*%
X126516883Y-113416883D02*
X126799800Y-113699800D01*
X126799800Y-113699800D02*
X130779800Y-113699800D01*
X130779800Y-113699800D02*
X132850000Y-115770000D01*
X126416353Y-113416883D02*
X126516883Y-113416883D01*
%TD*%
%TA.AperFunction,Conductor*%
%TO.N,GND*%
G36*
X117618834Y-114882915D02*
G01*
X117674767Y-114924787D01*
X117699184Y-114990251D01*
X117699500Y-114999097D01*
X117699500Y-120863330D01*
X117699499Y-120863348D01*
X117699499Y-121029054D01*
X117699498Y-121029054D01*
X117733783Y-121157007D01*
X117740423Y-121181785D01*
X117762335Y-121219737D01*
X117809869Y-121302069D01*
X117819479Y-121318714D01*
X117819481Y-121318717D01*
X117938349Y-121437585D01*
X117938354Y-121437589D01*
X120781284Y-124280520D01*
X120781286Y-124280521D01*
X120781290Y-124280524D01*
X120867175Y-124330109D01*
X120918216Y-124359577D01*
X121070943Y-124400501D01*
X121070945Y-124400501D01*
X121236654Y-124400501D01*
X121236670Y-124400500D01*
X122420234Y-124400500D01*
X122487273Y-124420185D01*
X122489125Y-124421398D01*
X122620814Y-124509390D01*
X122620827Y-124509397D01*
X122754323Y-124564692D01*
X122766503Y-124569737D01*
X122906031Y-124597491D01*
X122921153Y-124600499D01*
X122921156Y-124600500D01*
X122921158Y-124600500D01*
X123078844Y-124600500D01*
X123078845Y-124600499D01*
X123233497Y-124569737D01*
X123267902Y-124555485D01*
X123337370Y-124548016D01*
X123399849Y-124579290D01*
X123435503Y-124639378D01*
X123433010Y-124709203D01*
X123403036Y-124757727D01*
X122047582Y-126113181D01*
X121986259Y-126146666D01*
X121959901Y-126149500D01*
X120612129Y-126149500D01*
X120612123Y-126149501D01*
X120552516Y-126155908D01*
X120417671Y-126206202D01*
X120417664Y-126206206D01*
X120302455Y-126292452D01*
X120302452Y-126292455D01*
X120216206Y-126407664D01*
X120216202Y-126407671D01*
X120165908Y-126542517D01*
X120159501Y-126602116D01*
X120159500Y-126602135D01*
X120159500Y-128397870D01*
X120159501Y-128397876D01*
X120165908Y-128457483D01*
X120216202Y-128592328D01*
X120216206Y-128592334D01*
X120222835Y-128601190D01*
X120247252Y-128666654D01*
X120232400Y-128734927D01*
X120182995Y-128784332D01*
X120123568Y-128799500D01*
X112874500Y-128799500D01*
X112807461Y-128779815D01*
X112761706Y-128727011D01*
X112750500Y-128675500D01*
X112750500Y-126849758D01*
X112770185Y-126782719D01*
X112822989Y-126736964D01*
X112892147Y-126727020D01*
X112955703Y-126756045D01*
X112962181Y-126762077D01*
X113070213Y-126870109D01*
X113242179Y-126995048D01*
X113242181Y-126995049D01*
X113242184Y-126995051D01*
X113431588Y-127091557D01*
X113633757Y-127157246D01*
X113843713Y-127190500D01*
X113843714Y-127190500D01*
X114056286Y-127190500D01*
X114056287Y-127190500D01*
X114266243Y-127157246D01*
X114468412Y-127091557D01*
X114657816Y-126995051D01*
X114705917Y-126960104D01*
X114829786Y-126870109D01*
X114829788Y-126870106D01*
X114829792Y-126870104D01*
X114980104Y-126719792D01*
X114980106Y-126719788D01*
X114980109Y-126719786D01*
X115105048Y-126547820D01*
X115105047Y-126547820D01*
X115105051Y-126547816D01*
X115201557Y-126358412D01*
X115267246Y-126156243D01*
X115300500Y-125946287D01*
X115300500Y-125733713D01*
X115267246Y-125523757D01*
X115201557Y-125321588D01*
X115105051Y-125132184D01*
X115105049Y-125132181D01*
X115105048Y-125132179D01*
X114980109Y-124960213D01*
X114829786Y-124809890D01*
X114657820Y-124684951D01*
X114657115Y-124684591D01*
X114649054Y-124680485D01*
X114598259Y-124632512D01*
X114581463Y-124564692D01*
X114603999Y-124498556D01*
X114649054Y-124459515D01*
X114657816Y-124455051D01*
X114789226Y-124359577D01*
X114829786Y-124330109D01*
X114829788Y-124330106D01*
X114829792Y-124330104D01*
X114980104Y-124179792D01*
X114980106Y-124179788D01*
X114980109Y-124179786D01*
X115089086Y-124029789D01*
X115105051Y-124007816D01*
X115201557Y-123818412D01*
X115267246Y-123616243D01*
X115300500Y-123406287D01*
X115300500Y-123193713D01*
X115267246Y-122983757D01*
X115201557Y-122781588D01*
X115105051Y-122592184D01*
X115105049Y-122592181D01*
X115105048Y-122592179D01*
X114980109Y-122420213D01*
X114829786Y-122269890D01*
X114657820Y-122144951D01*
X114657115Y-122144591D01*
X114649054Y-122140485D01*
X114598259Y-122092512D01*
X114581463Y-122024692D01*
X114603999Y-121958556D01*
X114649054Y-121919515D01*
X114657816Y-121915051D01*
X114679789Y-121899086D01*
X114829786Y-121790109D01*
X114829788Y-121790106D01*
X114829792Y-121790104D01*
X114980104Y-121639792D01*
X114980106Y-121639788D01*
X114980109Y-121639786D01*
X115089086Y-121489789D01*
X115105051Y-121467816D01*
X115201557Y-121278412D01*
X115267246Y-121076243D01*
X115300500Y-120866287D01*
X115300500Y-120653713D01*
X115267246Y-120443757D01*
X115201557Y-120241588D01*
X115105051Y-120052184D01*
X115105049Y-120052181D01*
X115105048Y-120052179D01*
X114980109Y-119880213D01*
X114829786Y-119729890D01*
X114657820Y-119604951D01*
X114657115Y-119604591D01*
X114649054Y-119600485D01*
X114598259Y-119552512D01*
X114581463Y-119484692D01*
X114603999Y-119418556D01*
X114649054Y-119379515D01*
X114657816Y-119375051D01*
X114705917Y-119340104D01*
X114829786Y-119250109D01*
X114829788Y-119250106D01*
X114829792Y-119250104D01*
X114980104Y-119099792D01*
X114980106Y-119099788D01*
X114980109Y-119099786D01*
X115105048Y-118927820D01*
X115105047Y-118927820D01*
X115105051Y-118927816D01*
X115201557Y-118738412D01*
X115267246Y-118536243D01*
X115300500Y-118326287D01*
X115300500Y-118113713D01*
X115267246Y-117903757D01*
X115253506Y-117861473D01*
X115251512Y-117791635D01*
X115283755Y-117735478D01*
X116158506Y-116860728D01*
X116158511Y-116860724D01*
X116168714Y-116850520D01*
X116168716Y-116850520D01*
X116280520Y-116738716D01*
X116351911Y-116615062D01*
X116359577Y-116601785D01*
X116400500Y-116449057D01*
X116400500Y-116290943D01*
X116400500Y-116050097D01*
X116420185Y-115983058D01*
X116436819Y-115962416D01*
X117487819Y-114911416D01*
X117549142Y-114877931D01*
X117618834Y-114882915D01*
G37*
%TD.AperFunction*%
%TA.AperFunction,Conductor*%
G36*
X123584075Y-127692993D02*
G01*
X123649901Y-127807007D01*
X123742993Y-127900099D01*
X123857007Y-127965925D01*
X123920590Y-127982962D01*
X123288282Y-128615269D01*
X123292257Y-128665771D01*
X123277893Y-128734148D01*
X123228842Y-128783905D01*
X123168639Y-128799500D01*
X122896432Y-128799500D01*
X122829393Y-128779815D01*
X122783638Y-128727011D01*
X122773694Y-128657853D01*
X122797165Y-128601190D01*
X122802324Y-128594297D01*
X122803796Y-128592331D01*
X122854091Y-128457483D01*
X122860500Y-128397873D01*
X122860499Y-128387312D01*
X122880179Y-128320275D01*
X122896818Y-128299626D01*
X123567037Y-127629408D01*
X123584075Y-127692993D01*
G37*
%TD.AperFunction*%
%TA.AperFunction,Conductor*%
G36*
X125165270Y-128261717D02*
G01*
X125165270Y-128261716D01*
X125204622Y-128207555D01*
X125209232Y-128198507D01*
X125257205Y-128147709D01*
X125325025Y-128130912D01*
X125391161Y-128153447D01*
X125430204Y-128198504D01*
X125434949Y-128207817D01*
X125559890Y-128379786D01*
X125710207Y-128530103D01*
X125772252Y-128575181D01*
X125814918Y-128630511D01*
X125820897Y-128700124D01*
X125788292Y-128761920D01*
X125727453Y-128796277D01*
X125699367Y-128799500D01*
X124931361Y-128799500D01*
X124864322Y-128779815D01*
X124818567Y-128727011D01*
X124807743Y-128665772D01*
X124811717Y-128615270D01*
X124179408Y-127982962D01*
X124242993Y-127965925D01*
X124357007Y-127900099D01*
X124450099Y-127807007D01*
X124515925Y-127692993D01*
X124532962Y-127629408D01*
X125165270Y-128261717D01*
G37*
%TD.AperFunction*%
%TA.AperFunction,Conductor*%
G36*
X131521573Y-117551275D02*
G01*
X131524243Y-117550614D01*
X131554902Y-117561061D01*
X131585972Y-117570185D01*
X131587772Y-117572263D01*
X131590378Y-117573151D01*
X131610528Y-117598525D01*
X131631727Y-117622989D01*
X131632118Y-117625710D01*
X131633830Y-117627866D01*
X131637063Y-117660100D01*
X131641671Y-117692147D01*
X131640612Y-117695486D01*
X131640803Y-117697387D01*
X131629418Y-117730794D01*
X131598445Y-117791582D01*
X131532753Y-117993760D01*
X131499500Y-118203713D01*
X131499500Y-118416286D01*
X131532753Y-118626239D01*
X131598444Y-118828414D01*
X131694951Y-119017820D01*
X131819890Y-119189786D01*
X131970213Y-119340109D01*
X132142179Y-119465048D01*
X132142181Y-119465049D01*
X132142184Y-119465051D01*
X132151493Y-119469794D01*
X132202290Y-119517766D01*
X132219087Y-119585587D01*
X132196552Y-119651722D01*
X132151505Y-119690760D01*
X132142446Y-119695376D01*
X132142440Y-119695380D01*
X132088282Y-119734727D01*
X132088282Y-119734728D01*
X132720591Y-120367037D01*
X132657007Y-120384075D01*
X132542993Y-120449901D01*
X132449901Y-120542993D01*
X132384075Y-120657007D01*
X132367037Y-120720591D01*
X131734728Y-120088282D01*
X131734727Y-120088282D01*
X131695380Y-120142439D01*
X131598904Y-120331782D01*
X131533242Y-120533869D01*
X131533242Y-120533872D01*
X131500000Y-120743753D01*
X131500000Y-120956246D01*
X131533242Y-121166127D01*
X131533242Y-121166130D01*
X131598904Y-121368217D01*
X131695375Y-121557550D01*
X131734728Y-121611716D01*
X132367037Y-120979408D01*
X132384075Y-121042993D01*
X132449901Y-121157007D01*
X132542993Y-121250099D01*
X132657007Y-121315925D01*
X132720590Y-121332962D01*
X132088282Y-121965269D01*
X132088282Y-121965270D01*
X132142452Y-122004626D01*
X132142451Y-122004626D01*
X132151495Y-122009234D01*
X132202292Y-122057208D01*
X132219087Y-122125029D01*
X132196550Y-122191164D01*
X132151499Y-122230202D01*
X132142182Y-122234949D01*
X131970213Y-122359890D01*
X131819890Y-122510213D01*
X131694951Y-122682179D01*
X131598444Y-122871585D01*
X131532753Y-123073760D01*
X131512841Y-123199480D01*
X131499500Y-123283713D01*
X131499500Y-123496287D01*
X131509534Y-123559644D01*
X131521402Y-123634574D01*
X131532754Y-123706243D01*
X131588836Y-123878846D01*
X131598444Y-123908414D01*
X131694951Y-124097820D01*
X131819890Y-124269786D01*
X131970213Y-124420109D01*
X132142182Y-124545050D01*
X132150946Y-124549516D01*
X132201742Y-124597491D01*
X132218536Y-124665312D01*
X132195998Y-124731447D01*
X132150946Y-124770484D01*
X132142182Y-124774949D01*
X131970213Y-124899890D01*
X131819890Y-125050213D01*
X131694951Y-125222179D01*
X131598444Y-125411585D01*
X131532753Y-125613760D01*
X131499500Y-125823713D01*
X131499500Y-126036286D01*
X131526412Y-126206206D01*
X131532754Y-126246243D01*
X131585205Y-126407671D01*
X131598444Y-126448414D01*
X131694951Y-126637820D01*
X131819890Y-126809786D01*
X131970213Y-126960109D01*
X132142179Y-127085048D01*
X132142181Y-127085049D01*
X132142184Y-127085051D01*
X132331588Y-127181557D01*
X132533757Y-127247246D01*
X132743713Y-127280500D01*
X132743714Y-127280500D01*
X132956286Y-127280500D01*
X132956287Y-127280500D01*
X133166243Y-127247246D01*
X133368412Y-127181557D01*
X133557816Y-127085051D01*
X133627979Y-127034075D01*
X133729786Y-126960109D01*
X133729788Y-126960106D01*
X133729792Y-126960104D01*
X133880104Y-126809792D01*
X133975182Y-126678926D01*
X134030511Y-126636262D01*
X134100124Y-126630283D01*
X134161920Y-126662888D01*
X134196277Y-126723727D01*
X134199500Y-126751813D01*
X134199500Y-128675500D01*
X134179815Y-128742539D01*
X134127011Y-128788294D01*
X134075500Y-128799500D01*
X127480633Y-128799500D01*
X127413594Y-128779815D01*
X127367839Y-128727011D01*
X127357895Y-128657853D01*
X127386920Y-128594297D01*
X127407748Y-128575181D01*
X127469792Y-128530104D01*
X127620104Y-128379792D01*
X127620106Y-128379788D01*
X127620109Y-128379786D01*
X127745048Y-128207820D01*
X127745050Y-128207817D01*
X127745051Y-128207816D01*
X127841557Y-128018412D01*
X127907246Y-127816243D01*
X127940500Y-127606287D01*
X127940500Y-127393713D01*
X127907246Y-127183757D01*
X127841557Y-126981588D01*
X127745051Y-126792184D01*
X127745049Y-126792181D01*
X127745048Y-126792179D01*
X127620109Y-126620213D01*
X127469786Y-126469890D01*
X127297820Y-126344951D01*
X127108414Y-126248444D01*
X127108413Y-126248443D01*
X127108412Y-126248443D01*
X126906243Y-126182754D01*
X126906241Y-126182753D01*
X126906240Y-126182753D01*
X126738835Y-126156239D01*
X126696287Y-126149500D01*
X126483713Y-126149500D01*
X126441165Y-126156239D01*
X126273760Y-126182753D01*
X126071585Y-126248444D01*
X125882179Y-126344951D01*
X125710213Y-126469890D01*
X125559890Y-126620213D01*
X125434949Y-126792182D01*
X125430202Y-126801499D01*
X125382227Y-126852293D01*
X125314405Y-126869087D01*
X125248271Y-126846548D01*
X125209234Y-126801495D01*
X125204626Y-126792452D01*
X125165270Y-126738282D01*
X125165269Y-126738282D01*
X124532962Y-127370590D01*
X124515925Y-127307007D01*
X124450099Y-127192993D01*
X124357007Y-127099901D01*
X124242993Y-127034075D01*
X124179408Y-127017037D01*
X124811716Y-126384728D01*
X124757550Y-126345375D01*
X124568217Y-126248904D01*
X124366129Y-126183242D01*
X124156246Y-126150000D01*
X124008595Y-126150000D01*
X123941556Y-126130315D01*
X123895801Y-126077511D01*
X123885857Y-126008353D01*
X123914882Y-125944797D01*
X123920900Y-125938333D01*
X125418713Y-124440521D01*
X125418716Y-124440520D01*
X125530520Y-124328716D01*
X125570535Y-124259404D01*
X125621100Y-124211190D01*
X125689706Y-124197965D01*
X125725373Y-124206842D01*
X125756503Y-124219737D01*
X125756506Y-124219737D01*
X125756511Y-124219739D01*
X125911153Y-124250499D01*
X125911156Y-124250500D01*
X125911158Y-124250500D01*
X126068844Y-124250500D01*
X126068845Y-124250499D01*
X126223497Y-124219737D01*
X126369179Y-124159394D01*
X126369185Y-124159390D01*
X126500875Y-124071398D01*
X126518921Y-124065747D01*
X126534831Y-124055523D01*
X126565792Y-124051071D01*
X126567553Y-124050520D01*
X126569766Y-124050500D01*
X126813331Y-124050500D01*
X126813347Y-124050501D01*
X126820943Y-124050501D01*
X126979054Y-124050501D01*
X126979057Y-124050501D01*
X127131785Y-124009577D01*
X127181904Y-123980639D01*
X127268716Y-123930520D01*
X127380520Y-123818716D01*
X127380520Y-123818714D01*
X127390728Y-123808507D01*
X127390729Y-123808504D01*
X127564661Y-123634572D01*
X127625983Y-123601089D01*
X127628150Y-123600638D01*
X127686085Y-123589113D01*
X127783497Y-123569737D01*
X127929179Y-123509394D01*
X128060289Y-123421789D01*
X128171789Y-123310289D01*
X128259394Y-123179179D01*
X128319737Y-123033497D01*
X128350500Y-122878842D01*
X128350500Y-122721158D01*
X128350500Y-122721155D01*
X128350499Y-122721153D01*
X128344486Y-122690924D01*
X128319737Y-122566503D01*
X128296421Y-122510213D01*
X128259397Y-122420827D01*
X128259390Y-122420814D01*
X128171789Y-122289711D01*
X128171786Y-122289707D01*
X128060292Y-122178213D01*
X128060288Y-122178210D01*
X127929185Y-122090609D01*
X127929172Y-122090602D01*
X127783501Y-122030264D01*
X127783489Y-122030261D01*
X127628845Y-121999500D01*
X127628842Y-121999500D01*
X127471158Y-121999500D01*
X127471155Y-121999500D01*
X127316510Y-122030261D01*
X127316498Y-122030264D01*
X127170827Y-122090602D01*
X127170814Y-122090609D01*
X127039711Y-122178210D01*
X127039707Y-122178213D01*
X126928213Y-122289707D01*
X126928210Y-122289711D01*
X126840609Y-122420814D01*
X126840602Y-122420827D01*
X126780264Y-122566498D01*
X126780261Y-122566508D01*
X126749361Y-122721850D01*
X126740596Y-122738605D01*
X126736577Y-122757083D01*
X126717831Y-122782126D01*
X126716976Y-122783761D01*
X126715427Y-122785338D01*
X126687583Y-122813181D01*
X126626263Y-122846666D01*
X126599903Y-122849500D01*
X126569766Y-122849500D01*
X126502727Y-122829815D01*
X126500875Y-122828602D01*
X126369185Y-122740609D01*
X126369172Y-122740602D01*
X126223501Y-122680264D01*
X126223489Y-122680261D01*
X126068845Y-122649500D01*
X126068842Y-122649500D01*
X125911158Y-122649500D01*
X125911153Y-122649500D01*
X125798691Y-122671870D01*
X125729099Y-122665643D01*
X125673922Y-122622779D01*
X125650678Y-122556890D01*
X125650500Y-122550253D01*
X125650500Y-118585545D01*
X125670185Y-118518506D01*
X125722989Y-118472751D01*
X125740344Y-118467149D01*
X125740164Y-118466555D01*
X125745986Y-118464788D01*
X125745997Y-118464786D01*
X125891679Y-118404443D01*
X126022789Y-118316838D01*
X126134289Y-118205338D01*
X126221894Y-118074228D01*
X126226228Y-118063766D01*
X126282235Y-117928550D01*
X126282237Y-117928546D01*
X126301613Y-117831134D01*
X126313138Y-117773199D01*
X126345523Y-117711288D01*
X126346967Y-117709816D01*
X126469967Y-117586816D01*
X126531288Y-117553334D01*
X126557646Y-117550500D01*
X131518933Y-117550500D01*
X131521573Y-117551275D01*
G37*
%TD.AperFunction*%
%TA.AperFunction,Conductor*%
G36*
X118306479Y-76170185D02*
G01*
X118352234Y-76222989D01*
X118362178Y-76292147D01*
X118342542Y-76343391D01*
X118293814Y-76416316D01*
X118293807Y-76416328D01*
X118218430Y-76598306D01*
X118218427Y-76598318D01*
X118180000Y-76791504D01*
X118180000Y-76940000D01*
X118880000Y-76940000D01*
X118880000Y-77440000D01*
X118180000Y-77440000D01*
X118180000Y-77588495D01*
X118218427Y-77781681D01*
X118218430Y-77781693D01*
X118293807Y-77963671D01*
X118293814Y-77963684D01*
X118403248Y-78127462D01*
X118403251Y-78127466D01*
X118542533Y-78266748D01*
X118542537Y-78266751D01*
X118706315Y-78376185D01*
X118706328Y-78376192D01*
X118888308Y-78451569D01*
X118930000Y-78459862D01*
X118930000Y-77656988D01*
X118939940Y-77674205D01*
X118995795Y-77730060D01*
X119064204Y-77769556D01*
X119140504Y-77790000D01*
X119219496Y-77790000D01*
X119295796Y-77769556D01*
X119364205Y-77730060D01*
X119420060Y-77674205D01*
X119430000Y-77656988D01*
X119430000Y-78459862D01*
X119471690Y-78451569D01*
X119471692Y-78451569D01*
X119653671Y-78376192D01*
X119653684Y-78376185D01*
X119817462Y-78266751D01*
X119817466Y-78266748D01*
X119956748Y-78127466D01*
X119956751Y-78127462D01*
X120066185Y-77963684D01*
X120066192Y-77963671D01*
X120141569Y-77781693D01*
X120141572Y-77781681D01*
X120179999Y-77588495D01*
X120180000Y-77588492D01*
X120180000Y-77440000D01*
X119480000Y-77440000D01*
X119480000Y-76940000D01*
X120180000Y-76940000D01*
X120180000Y-76791508D01*
X120179999Y-76791504D01*
X120141572Y-76598318D01*
X120141569Y-76598306D01*
X120066192Y-76416328D01*
X120066185Y-76416316D01*
X120017458Y-76343391D01*
X119996580Y-76276714D01*
X120015064Y-76209334D01*
X120067043Y-76162643D01*
X120120560Y-76150500D01*
X126879440Y-76150500D01*
X126946479Y-76170185D01*
X126992234Y-76222989D01*
X127002178Y-76292147D01*
X126982542Y-76343391D01*
X126933814Y-76416316D01*
X126933807Y-76416328D01*
X126858430Y-76598306D01*
X126858427Y-76598318D01*
X126820000Y-76791504D01*
X126820000Y-76940000D01*
X127520000Y-76940000D01*
X127520000Y-77440000D01*
X126820000Y-77440000D01*
X126820000Y-77588495D01*
X126858427Y-77781681D01*
X126858430Y-77781693D01*
X126933807Y-77963671D01*
X126933814Y-77963684D01*
X127043248Y-78127462D01*
X127043251Y-78127466D01*
X127182533Y-78266748D01*
X127182537Y-78266751D01*
X127346315Y-78376185D01*
X127346328Y-78376192D01*
X127528308Y-78451569D01*
X127570000Y-78459862D01*
X127570000Y-77656988D01*
X127579940Y-77674205D01*
X127635795Y-77730060D01*
X127704204Y-77769556D01*
X127780504Y-77790000D01*
X127859496Y-77790000D01*
X127935796Y-77769556D01*
X128004205Y-77730060D01*
X128060060Y-77674205D01*
X128070000Y-77656988D01*
X128070000Y-78459862D01*
X128111690Y-78451569D01*
X128111692Y-78451569D01*
X128293671Y-78376192D01*
X128293684Y-78376185D01*
X128457462Y-78266751D01*
X128457466Y-78266748D01*
X128596748Y-78127466D01*
X128596751Y-78127462D01*
X128706185Y-77963684D01*
X128706192Y-77963671D01*
X128781569Y-77781693D01*
X128781572Y-77781681D01*
X128819999Y-77588495D01*
X128820000Y-77588492D01*
X128820000Y-77440000D01*
X128120000Y-77440000D01*
X128120000Y-76940000D01*
X128820000Y-76940000D01*
X128820000Y-76791508D01*
X128819999Y-76791504D01*
X128781572Y-76598318D01*
X128781569Y-76598306D01*
X128706192Y-76416328D01*
X128706185Y-76416316D01*
X128657458Y-76343391D01*
X128636580Y-76276714D01*
X128655064Y-76209334D01*
X128707043Y-76162643D01*
X128760560Y-76150500D01*
X131686614Y-76150500D01*
X131753653Y-76170185D01*
X131799408Y-76222989D01*
X131809352Y-76292147D01*
X131780327Y-76355703D01*
X131760925Y-76373767D01*
X131757670Y-76376203D01*
X131757669Y-76376204D01*
X131642454Y-76462454D01*
X131642453Y-76462455D01*
X131642452Y-76462456D01*
X131556206Y-76577664D01*
X131556202Y-76577671D01*
X131505908Y-76712517D01*
X131499501Y-76772116D01*
X131499500Y-76772135D01*
X131499500Y-78567870D01*
X131499501Y-78567876D01*
X131505908Y-78627483D01*
X131556202Y-78762328D01*
X131556206Y-78762335D01*
X131642452Y-78877544D01*
X131642455Y-78877547D01*
X131757664Y-78963793D01*
X131757671Y-78963797D01*
X131889082Y-79012810D01*
X131945016Y-79054681D01*
X131969433Y-79120145D01*
X131954582Y-79188418D01*
X131933431Y-79216673D01*
X131819889Y-79330215D01*
X131694951Y-79502179D01*
X131598444Y-79691585D01*
X131532753Y-79893760D01*
X131499500Y-80103713D01*
X131499500Y-80316286D01*
X131526480Y-80486635D01*
X131532754Y-80526243D01*
X131596198Y-80721504D01*
X131598444Y-80728414D01*
X131694951Y-80917820D01*
X131819890Y-81089786D01*
X131970213Y-81240109D01*
X132142179Y-81365048D01*
X132142181Y-81365049D01*
X132142184Y-81365051D01*
X132151493Y-81369794D01*
X132202290Y-81417766D01*
X132219087Y-81485587D01*
X132196552Y-81551722D01*
X132151505Y-81590760D01*
X132142446Y-81595376D01*
X132142440Y-81595380D01*
X132088282Y-81634727D01*
X132088282Y-81634728D01*
X132720591Y-82267037D01*
X132657007Y-82284075D01*
X132542993Y-82349901D01*
X132449901Y-82442993D01*
X132384075Y-82557007D01*
X132367037Y-82620591D01*
X131734728Y-81988282D01*
X131734727Y-81988282D01*
X131695380Y-82042439D01*
X131598904Y-82231782D01*
X131533242Y-82433869D01*
X131533242Y-82433872D01*
X131500000Y-82643753D01*
X131500000Y-82856246D01*
X131533242Y-83066127D01*
X131533242Y-83066130D01*
X131598904Y-83268217D01*
X131695375Y-83457550D01*
X131734728Y-83511716D01*
X132367037Y-82879408D01*
X132384075Y-82942993D01*
X132449901Y-83057007D01*
X132542993Y-83150099D01*
X132657007Y-83215925D01*
X132720590Y-83232962D01*
X132088282Y-83865269D01*
X132088282Y-83865270D01*
X132142452Y-83904626D01*
X132142451Y-83904626D01*
X132151495Y-83909234D01*
X132202292Y-83957208D01*
X132219087Y-84025029D01*
X132196550Y-84091164D01*
X132151499Y-84130202D01*
X132142182Y-84134949D01*
X131970213Y-84259890D01*
X131819890Y-84410213D01*
X131694951Y-84582179D01*
X131598444Y-84771585D01*
X131532753Y-84973760D01*
X131500500Y-85177399D01*
X131499500Y-85183713D01*
X131499500Y-85396287D01*
X131509534Y-85459644D01*
X131532753Y-85606239D01*
X131598444Y-85808414D01*
X131694951Y-85997820D01*
X131819890Y-86169786D01*
X131970213Y-86320109D01*
X132142182Y-86445050D01*
X132150946Y-86449516D01*
X132201742Y-86497491D01*
X132218536Y-86565312D01*
X132195998Y-86631447D01*
X132150946Y-86670484D01*
X132142182Y-86674949D01*
X131970213Y-86799890D01*
X131819890Y-86950213D01*
X131694951Y-87122179D01*
X131598444Y-87311585D01*
X131532753Y-87513760D01*
X131499500Y-87723713D01*
X131499500Y-87936286D01*
X131532754Y-88146244D01*
X131532754Y-88146247D01*
X131546491Y-88188523D01*
X131548486Y-88258364D01*
X131516241Y-88314522D01*
X130417584Y-89413181D01*
X130356261Y-89446666D01*
X130329903Y-89449500D01*
X128179766Y-89449500D01*
X128112727Y-89429815D01*
X128110875Y-89428602D01*
X127979185Y-89340609D01*
X127979172Y-89340602D01*
X127833501Y-89280264D01*
X127833489Y-89280261D01*
X127678845Y-89249500D01*
X127678842Y-89249500D01*
X127521158Y-89249500D01*
X127521155Y-89249500D01*
X127366510Y-89280261D01*
X127366498Y-89280264D01*
X127220827Y-89340602D01*
X127220814Y-89340609D01*
X127089711Y-89428210D01*
X127089707Y-89428213D01*
X126978213Y-89539707D01*
X126978210Y-89539711D01*
X126890609Y-89670814D01*
X126890602Y-89670827D01*
X126830264Y-89816498D01*
X126830261Y-89816510D01*
X126799500Y-89971153D01*
X126799500Y-90128846D01*
X126830261Y-90283489D01*
X126830264Y-90283501D01*
X126890602Y-90429172D01*
X126890609Y-90429185D01*
X126978210Y-90560288D01*
X126978213Y-90560292D01*
X127089707Y-90671786D01*
X127089711Y-90671789D01*
X127220814Y-90759390D01*
X127220827Y-90759397D01*
X127317646Y-90799500D01*
X127366503Y-90819737D01*
X127521153Y-90850499D01*
X127521156Y-90850500D01*
X127521158Y-90850500D01*
X127678844Y-90850500D01*
X127678845Y-90850499D01*
X127833497Y-90819737D01*
X127979179Y-90759394D01*
X127979185Y-90759390D01*
X128110875Y-90671398D01*
X128177553Y-90650520D01*
X128179766Y-90650500D01*
X130543331Y-90650500D01*
X130543347Y-90650501D01*
X130550943Y-90650501D01*
X130709054Y-90650501D01*
X130709057Y-90650501D01*
X130861785Y-90609577D01*
X130911904Y-90580639D01*
X130998716Y-90530520D01*
X131110520Y-90418716D01*
X131110521Y-90418713D01*
X131287821Y-90241412D01*
X131349142Y-90207930D01*
X131418834Y-90212914D01*
X131474767Y-90254786D01*
X131499184Y-90320250D01*
X131499500Y-90329096D01*
X131499500Y-90476286D01*
X131530464Y-90671789D01*
X131532754Y-90686243D01*
X131586124Y-90850499D01*
X131598444Y-90888414D01*
X131694951Y-91077820D01*
X131819890Y-91249786D01*
X131970213Y-91400109D01*
X132142182Y-91525050D01*
X132150946Y-91529516D01*
X132201742Y-91577491D01*
X132218536Y-91645312D01*
X132195998Y-91711447D01*
X132150946Y-91750484D01*
X132142182Y-91754949D01*
X131970213Y-91879890D01*
X131819890Y-92030213D01*
X131694951Y-92202179D01*
X131598444Y-92391585D01*
X131532753Y-92593760D01*
X131519649Y-92676498D01*
X131499500Y-92803713D01*
X131499500Y-93016287D01*
X131532754Y-93226243D01*
X131596595Y-93422726D01*
X131598444Y-93428414D01*
X131694951Y-93617820D01*
X131819890Y-93789786D01*
X131970213Y-93940109D01*
X132142179Y-94065048D01*
X132142181Y-94065049D01*
X132142184Y-94065051D01*
X132151493Y-94069794D01*
X132202290Y-94117766D01*
X132219087Y-94185587D01*
X132196552Y-94251722D01*
X132151505Y-94290760D01*
X132142446Y-94295376D01*
X132142440Y-94295380D01*
X132088282Y-94334727D01*
X132088282Y-94334728D01*
X132720591Y-94967037D01*
X132657007Y-94984075D01*
X132542993Y-95049901D01*
X132449901Y-95142993D01*
X132384075Y-95257007D01*
X132367037Y-95320591D01*
X131734728Y-94688282D01*
X131734727Y-94688282D01*
X131695380Y-94742439D01*
X131598904Y-94931782D01*
X131533242Y-95133869D01*
X131533242Y-95133872D01*
X131500000Y-95343753D01*
X131500000Y-95556246D01*
X131533242Y-95766127D01*
X131533242Y-95766130D01*
X131598904Y-95968217D01*
X131695375Y-96157550D01*
X131734728Y-96211716D01*
X132367037Y-95579408D01*
X132384075Y-95642993D01*
X132449901Y-95757007D01*
X132542993Y-95850099D01*
X132657007Y-95915925D01*
X132720590Y-95932962D01*
X132088282Y-96565269D01*
X132088282Y-96565270D01*
X132142452Y-96604626D01*
X132142451Y-96604626D01*
X132151495Y-96609234D01*
X132202292Y-96657208D01*
X132219087Y-96725029D01*
X132196550Y-96791164D01*
X132151499Y-96830202D01*
X132142182Y-96834949D01*
X131970213Y-96959890D01*
X131819890Y-97110213D01*
X131694951Y-97282179D01*
X131598444Y-97471585D01*
X131532753Y-97673760D01*
X131499500Y-97883713D01*
X131499500Y-98096286D01*
X131531335Y-98297288D01*
X131532754Y-98306243D01*
X131582806Y-98460288D01*
X131598444Y-98508414D01*
X131694951Y-98697820D01*
X131819890Y-98869786D01*
X131970213Y-99020109D01*
X132142182Y-99145050D01*
X132150946Y-99149516D01*
X132201742Y-99197491D01*
X132218536Y-99265312D01*
X132195998Y-99331447D01*
X132150946Y-99370484D01*
X132142182Y-99374949D01*
X131970213Y-99499890D01*
X131819890Y-99650213D01*
X131694951Y-99822179D01*
X131598444Y-100011585D01*
X131532753Y-100213760D01*
X131499500Y-100423713D01*
X131499500Y-100636286D01*
X131530459Y-100831758D01*
X131532754Y-100846243D01*
X131563526Y-100940950D01*
X131598444Y-101048414D01*
X131694951Y-101237820D01*
X131819890Y-101409786D01*
X131970213Y-101560109D01*
X132142182Y-101685050D01*
X132150946Y-101689516D01*
X132201742Y-101737491D01*
X132218536Y-101805312D01*
X132195998Y-101871447D01*
X132150946Y-101910484D01*
X132142182Y-101914949D01*
X131970213Y-102039890D01*
X131819890Y-102190213D01*
X131694951Y-102362179D01*
X131598444Y-102551585D01*
X131532753Y-102753760D01*
X131500500Y-102957399D01*
X131499500Y-102963713D01*
X131499500Y-103176287D01*
X131532754Y-103386243D01*
X131592546Y-103570264D01*
X131598444Y-103588414D01*
X131694951Y-103777820D01*
X131819890Y-103949786D01*
X131970213Y-104100109D01*
X132142182Y-104225050D01*
X132150946Y-104229516D01*
X132201742Y-104277491D01*
X132218536Y-104345312D01*
X132195998Y-104411447D01*
X132150946Y-104450484D01*
X132142182Y-104454949D01*
X131970213Y-104579890D01*
X131819890Y-104730213D01*
X131694951Y-104902179D01*
X131598444Y-105091585D01*
X131532753Y-105293760D01*
X131499500Y-105503713D01*
X131499500Y-105716286D01*
X131517226Y-105828207D01*
X131532754Y-105926243D01*
X131579732Y-106070827D01*
X131598444Y-106128414D01*
X131694951Y-106317820D01*
X131819890Y-106489786D01*
X131970213Y-106640109D01*
X132142179Y-106765048D01*
X132142181Y-106765049D01*
X132142184Y-106765051D01*
X132151493Y-106769794D01*
X132202290Y-106817766D01*
X132219087Y-106885587D01*
X132196552Y-106951722D01*
X132151505Y-106990760D01*
X132142446Y-106995376D01*
X132142440Y-106995380D01*
X132088282Y-107034727D01*
X132088282Y-107034728D01*
X132720591Y-107667037D01*
X132657007Y-107684075D01*
X132542993Y-107749901D01*
X132449901Y-107842993D01*
X132384075Y-107957007D01*
X132367037Y-108020591D01*
X131734728Y-107388282D01*
X131734727Y-107388282D01*
X131695380Y-107442439D01*
X131598904Y-107631782D01*
X131533242Y-107833869D01*
X131533242Y-107833872D01*
X131500000Y-108043753D01*
X131500000Y-108256246D01*
X131533242Y-108466127D01*
X131533242Y-108466130D01*
X131598904Y-108668217D01*
X131695375Y-108857550D01*
X131734728Y-108911716D01*
X132367037Y-108279408D01*
X132384075Y-108342993D01*
X132449901Y-108457007D01*
X132542993Y-108550099D01*
X132657007Y-108615925D01*
X132720589Y-108632962D01*
X132088282Y-109265269D01*
X132088282Y-109265270D01*
X132142452Y-109304626D01*
X132142451Y-109304626D01*
X132151495Y-109309234D01*
X132202292Y-109357208D01*
X132219087Y-109425029D01*
X132196550Y-109491164D01*
X132151499Y-109530202D01*
X132142182Y-109534949D01*
X131970213Y-109659890D01*
X131819890Y-109810213D01*
X131694948Y-109982184D01*
X131694947Y-109982185D01*
X131674765Y-110021795D01*
X131626791Y-110072591D01*
X131564281Y-110089500D01*
X127482455Y-110089500D01*
X127482439Y-110089499D01*
X127474843Y-110089499D01*
X127316728Y-110089499D01*
X127216902Y-110116248D01*
X127164000Y-110130423D01*
X127082371Y-110177551D01*
X127014470Y-110194022D01*
X126948444Y-110171170D01*
X126905254Y-110116248D01*
X126898220Y-110079751D01*
X126896969Y-110079875D01*
X126896372Y-110073820D01*
X126896372Y-110073815D01*
X126865609Y-109919160D01*
X126820480Y-109810208D01*
X126805269Y-109773484D01*
X126805262Y-109773471D01*
X126717661Y-109642368D01*
X126717658Y-109642364D01*
X126606164Y-109530870D01*
X126606160Y-109530867D01*
X126475057Y-109443266D01*
X126475044Y-109443259D01*
X126329373Y-109382921D01*
X126329361Y-109382918D01*
X126174023Y-109352019D01*
X126112112Y-109319634D01*
X126110583Y-109318132D01*
X125830804Y-109038354D01*
X125830803Y-109038352D01*
X125711932Y-108919481D01*
X125711931Y-108919480D01*
X125625119Y-108869360D01*
X125575000Y-108840423D01*
X125544872Y-108832349D01*
X125534989Y-108827729D01*
X125520734Y-108815152D01*
X125499827Y-108803081D01*
X125474957Y-108778211D01*
X125474956Y-108778210D01*
X125474955Y-108778209D01*
X125343853Y-108690609D01*
X125343840Y-108690602D01*
X125198169Y-108630264D01*
X125198157Y-108630261D01*
X125043513Y-108599500D01*
X125043510Y-108599500D01*
X124885826Y-108599500D01*
X124885823Y-108599500D01*
X124731178Y-108630261D01*
X124731166Y-108630264D01*
X124585495Y-108690602D01*
X124585482Y-108690609D01*
X124454379Y-108778210D01*
X124454375Y-108778213D01*
X124342881Y-108889707D01*
X124342878Y-108889711D01*
X124255277Y-109020814D01*
X124255271Y-109020826D01*
X124252041Y-109028624D01*
X124208197Y-109083026D01*
X124141902Y-109105087D01*
X124085212Y-109091955D01*
X124084807Y-109092935D01*
X123933501Y-109030262D01*
X123933489Y-109030259D01*
X123778845Y-108999498D01*
X123778842Y-108999498D01*
X123621158Y-108999498D01*
X123621155Y-108999498D01*
X123466510Y-109030259D01*
X123466498Y-109030262D01*
X123320827Y-109090600D01*
X123320814Y-109090607D01*
X123189711Y-109178208D01*
X123189707Y-109178211D01*
X123078213Y-109289705D01*
X123078210Y-109289709D01*
X122990609Y-109420812D01*
X122990602Y-109420825D01*
X122930264Y-109566496D01*
X122930261Y-109566508D01*
X122899500Y-109721151D01*
X122899500Y-109878844D01*
X122930261Y-110033487D01*
X122930264Y-110033499D01*
X122990602Y-110179170D01*
X122990609Y-110179183D01*
X123078210Y-110310286D01*
X123078213Y-110310290D01*
X123189707Y-110421784D01*
X123189711Y-110421787D01*
X123320814Y-110509388D01*
X123320827Y-110509395D01*
X123466498Y-110569733D01*
X123466503Y-110569735D01*
X123621153Y-110600497D01*
X123621156Y-110600498D01*
X123775500Y-110600498D01*
X123842539Y-110620183D01*
X123888294Y-110672987D01*
X123899500Y-110724498D01*
X123899500Y-111499902D01*
X123879815Y-111566941D01*
X123863181Y-111587583D01*
X123219481Y-112231282D01*
X123219479Y-112231284D01*
X123206365Y-112254000D01*
X123191054Y-112280520D01*
X123140423Y-112368215D01*
X123099499Y-112520943D01*
X123099499Y-112520945D01*
X123099499Y-112689046D01*
X123099500Y-112689059D01*
X123099500Y-113113446D01*
X123079815Y-113180485D01*
X123027011Y-113226240D01*
X122957853Y-113236184D01*
X122939575Y-113231204D01*
X122939324Y-113232033D01*
X122933500Y-113230266D01*
X122933497Y-113230265D01*
X122933492Y-113230264D01*
X122933489Y-113230263D01*
X122778845Y-113199502D01*
X122778842Y-113199502D01*
X122621158Y-113199502D01*
X122621155Y-113199502D01*
X122466510Y-113230263D01*
X122466498Y-113230266D01*
X122320827Y-113290604D01*
X122320814Y-113290611D01*
X122189711Y-113378212D01*
X122189707Y-113378215D01*
X122078213Y-113489709D01*
X122078210Y-113489713D01*
X121990609Y-113620816D01*
X121990602Y-113620829D01*
X121930264Y-113766500D01*
X121930261Y-113766510D01*
X121899362Y-113921850D01*
X121866977Y-113983761D01*
X121865426Y-113985339D01*
X120884731Y-114966034D01*
X120884725Y-114966040D01*
X120881286Y-114969480D01*
X120881284Y-114969482D01*
X120769480Y-115081286D01*
X120740075Y-115132218D01*
X120734381Y-115142079D01*
X120734380Y-115142081D01*
X120723118Y-115161588D01*
X120690423Y-115218217D01*
X120649499Y-115370945D01*
X120649499Y-115370947D01*
X120649499Y-115539048D01*
X120649500Y-115539061D01*
X120649500Y-115820234D01*
X120629815Y-115887273D01*
X120628602Y-115889125D01*
X120540609Y-116020814D01*
X120540602Y-116020827D01*
X120480264Y-116166498D01*
X120480261Y-116166510D01*
X120449500Y-116321153D01*
X120449500Y-116478846D01*
X120480261Y-116633489D01*
X120480264Y-116633501D01*
X120540602Y-116779172D01*
X120540609Y-116779185D01*
X120628210Y-116910288D01*
X120628213Y-116910292D01*
X120739707Y-117021786D01*
X120739711Y-117021789D01*
X120870814Y-117109390D01*
X120870827Y-117109397D01*
X121016498Y-117169735D01*
X121016503Y-117169737D01*
X121145730Y-117195442D01*
X121171153Y-117200499D01*
X121171156Y-117200500D01*
X121171158Y-117200500D01*
X121328844Y-117200500D01*
X121328845Y-117200499D01*
X121483497Y-117169737D01*
X121629179Y-117109394D01*
X121760289Y-117021789D01*
X121871789Y-116910289D01*
X121959394Y-116779179D01*
X122019737Y-116633497D01*
X122050500Y-116478842D01*
X122050500Y-116321158D01*
X122050500Y-116321155D01*
X122050499Y-116321153D01*
X122049644Y-116316855D01*
X122019737Y-116166503D01*
X122019735Y-116166498D01*
X121959397Y-116020827D01*
X121959390Y-116020814D01*
X121871398Y-115889125D01*
X121865747Y-115871078D01*
X121855523Y-115855169D01*
X121851071Y-115824207D01*
X121850520Y-115822447D01*
X121850500Y-115820234D01*
X121850500Y-115750099D01*
X121870185Y-115683060D01*
X121886819Y-115662418D01*
X122289293Y-115259944D01*
X122714664Y-114834573D01*
X122775985Y-114801090D01*
X122778152Y-114800639D01*
X122778841Y-114800502D01*
X122778842Y-114800502D01*
X122933497Y-114769739D01*
X123079179Y-114709396D01*
X123131112Y-114674694D01*
X123197785Y-114653817D01*
X123265166Y-114672300D01*
X123268832Y-114674656D01*
X123320821Y-114709394D01*
X123320824Y-114709395D01*
X123320827Y-114709397D01*
X123429425Y-114754379D01*
X123466503Y-114769737D01*
X123575450Y-114791408D01*
X123621153Y-114800499D01*
X123621156Y-114800500D01*
X123621158Y-114800500D01*
X123778844Y-114800500D01*
X123778845Y-114800499D01*
X123933497Y-114769737D01*
X124028048Y-114730572D01*
X124097517Y-114723104D01*
X124159996Y-114754379D01*
X124195648Y-114814468D01*
X124199500Y-114845134D01*
X124199500Y-117744408D01*
X124199499Y-117744426D01*
X124199499Y-117752021D01*
X124199499Y-117910135D01*
X124221906Y-117993757D01*
X124240422Y-118062861D01*
X124240945Y-118063766D01*
X124240956Y-118063786D01*
X124319477Y-118199790D01*
X124319481Y-118199795D01*
X124413181Y-118293495D01*
X124446666Y-118354818D01*
X124449500Y-118381176D01*
X124449500Y-119532152D01*
X124429815Y-119599191D01*
X124377011Y-119644946D01*
X124349692Y-119653769D01*
X124216508Y-119680261D01*
X124216498Y-119680264D01*
X124070827Y-119740602D01*
X124070814Y-119740609D01*
X123939711Y-119828210D01*
X123939707Y-119828213D01*
X123828213Y-119939707D01*
X123828210Y-119939711D01*
X123740609Y-120070814D01*
X123740602Y-120070827D01*
X123702096Y-120163792D01*
X123691364Y-120177109D01*
X123685007Y-120192990D01*
X123669894Y-120203751D01*
X123658255Y-120218196D01*
X123642026Y-120223597D01*
X123628093Y-120233520D01*
X123609561Y-120234402D01*
X123591961Y-120240261D01*
X123575033Y-120236047D01*
X123558303Y-120236845D01*
X123525536Y-120223728D01*
X123515954Y-120218196D01*
X123472295Y-120192990D01*
X123432639Y-120170095D01*
X123382520Y-120141158D01*
X123229792Y-120100234D01*
X123071678Y-120100234D01*
X123064082Y-120100234D01*
X123064066Y-120100235D01*
X121520506Y-120100235D01*
X121453467Y-120080550D01*
X121451615Y-120079337D01*
X121329185Y-119997531D01*
X121329172Y-119997524D01*
X121183501Y-119937186D01*
X121183489Y-119937183D01*
X121028845Y-119906422D01*
X121028842Y-119906422D01*
X120871158Y-119906422D01*
X120871155Y-119906422D01*
X120716510Y-119937183D01*
X120716498Y-119937186D01*
X120570827Y-119997524D01*
X120570814Y-119997531D01*
X120439711Y-120085132D01*
X120439707Y-120085135D01*
X120328213Y-120196629D01*
X120328210Y-120196633D01*
X120240609Y-120327736D01*
X120240602Y-120327749D01*
X120180264Y-120473420D01*
X120180261Y-120473432D01*
X120149500Y-120628075D01*
X120149500Y-120785768D01*
X120180261Y-120940411D01*
X120180264Y-120940423D01*
X120240602Y-121086094D01*
X120240609Y-121086107D01*
X120328210Y-121217210D01*
X120328213Y-121217214D01*
X120439707Y-121328708D01*
X120439711Y-121328711D01*
X120570814Y-121416312D01*
X120570827Y-121416319D01*
X120716498Y-121476657D01*
X120716503Y-121476659D01*
X120871153Y-121507421D01*
X120871156Y-121507422D01*
X120871158Y-121507422D01*
X121028844Y-121507422D01*
X121028845Y-121507421D01*
X121183497Y-121476659D01*
X121329179Y-121416316D01*
X121382663Y-121380579D01*
X121465354Y-121325327D01*
X121466164Y-121326539D01*
X121523784Y-121302069D01*
X121538137Y-121301235D01*
X122850637Y-121301235D01*
X122917676Y-121320920D01*
X122923470Y-121324879D01*
X122931393Y-121330629D01*
X122981284Y-121380520D01*
X123067887Y-121430520D01*
X123118215Y-121459577D01*
X123270942Y-121500500D01*
X123270943Y-121500500D01*
X123913331Y-121500500D01*
X123913347Y-121500501D01*
X123920943Y-121500501D01*
X124079054Y-121500501D01*
X124079057Y-121500501D01*
X124231785Y-121459577D01*
X124263499Y-121441266D01*
X124331398Y-121424793D01*
X124397425Y-121447644D01*
X124440617Y-121502565D01*
X124449500Y-121548653D01*
X124449500Y-123659902D01*
X124429815Y-123726941D01*
X124413181Y-123747583D01*
X123957727Y-124203037D01*
X123896404Y-124236522D01*
X123826712Y-124231538D01*
X123770779Y-124189666D01*
X123746362Y-124124202D01*
X123755484Y-124067906D01*
X123769737Y-124033497D01*
X123800500Y-123878842D01*
X123800500Y-123721158D01*
X123800500Y-123721155D01*
X123800499Y-123721153D01*
X123779630Y-123616239D01*
X123769737Y-123566503D01*
X123740653Y-123496287D01*
X123709397Y-123420827D01*
X123709390Y-123420814D01*
X123621789Y-123289711D01*
X123621786Y-123289707D01*
X123510292Y-123178213D01*
X123510288Y-123178210D01*
X123379185Y-123090609D01*
X123379172Y-123090602D01*
X123233501Y-123030264D01*
X123233489Y-123030261D01*
X123078845Y-122999500D01*
X123078842Y-122999500D01*
X122921158Y-122999500D01*
X122921155Y-122999500D01*
X122766510Y-123030261D01*
X122766498Y-123030264D01*
X122620827Y-123090602D01*
X122620814Y-123090609D01*
X122489125Y-123178602D01*
X122422447Y-123199480D01*
X122420234Y-123199500D01*
X121450098Y-123199500D01*
X121383059Y-123179815D01*
X121362417Y-123163181D01*
X118936819Y-120737583D01*
X118903334Y-120676260D01*
X118900500Y-120649902D01*
X118900500Y-114398626D01*
X118920185Y-114331587D01*
X118936819Y-114310945D01*
X118952716Y-114295048D01*
X119130520Y-114117245D01*
X119209577Y-113980313D01*
X119250501Y-113827586D01*
X119250501Y-113669471D01*
X119250501Y-113661876D01*
X119250500Y-113661858D01*
X119250500Y-113340531D01*
X119250501Y-113340518D01*
X119250501Y-113172415D01*
X119236676Y-113120821D01*
X119209577Y-113019687D01*
X119192268Y-112989707D01*
X119130524Y-112882761D01*
X119130518Y-112882753D01*
X118936819Y-112689054D01*
X118903334Y-112627731D01*
X118900500Y-112601373D01*
X118900500Y-110547078D01*
X118920185Y-110480039D01*
X118972989Y-110434284D01*
X119042147Y-110424340D01*
X119105703Y-110453365D01*
X119112181Y-110459397D01*
X120559719Y-111906935D01*
X120593204Y-111968258D01*
X120593655Y-111970424D01*
X120624555Y-112125766D01*
X120624558Y-112125776D01*
X120684896Y-112271447D01*
X120684903Y-112271460D01*
X120772504Y-112402563D01*
X120772507Y-112402567D01*
X120884001Y-112514061D01*
X120884005Y-112514064D01*
X121015108Y-112601665D01*
X121015121Y-112601672D01*
X121138400Y-112652735D01*
X121160797Y-112662012D01*
X121296771Y-112689059D01*
X121315447Y-112692774D01*
X121315450Y-112692775D01*
X121315452Y-112692775D01*
X121473138Y-112692775D01*
X121473139Y-112692774D01*
X121627791Y-112662012D01*
X121740460Y-112615342D01*
X121773466Y-112601672D01*
X121773466Y-112601671D01*
X121773473Y-112601669D01*
X121904583Y-112514064D01*
X122016083Y-112402564D01*
X122103688Y-112271454D01*
X122164031Y-112125772D01*
X122194794Y-111971117D01*
X122194794Y-111813433D01*
X122194794Y-111813430D01*
X122194793Y-111813428D01*
X122176396Y-111720943D01*
X122164031Y-111658778D01*
X122152154Y-111630104D01*
X122103691Y-111513102D01*
X122103684Y-111513089D01*
X122016083Y-111381986D01*
X122016080Y-111381982D01*
X121904586Y-111270488D01*
X121904582Y-111270485D01*
X121773479Y-111182884D01*
X121773466Y-111182877D01*
X121627795Y-111122539D01*
X121627785Y-111122536D01*
X121472445Y-111091637D01*
X121410535Y-111059252D01*
X121408956Y-111057701D01*
X120036819Y-109685564D01*
X120003334Y-109624241D01*
X120000500Y-109597883D01*
X120000500Y-107639956D01*
X120020185Y-107572917D01*
X120072989Y-107527162D01*
X120142147Y-107517218D01*
X120171947Y-107525393D01*
X120279003Y-107569737D01*
X120433653Y-107600499D01*
X120433656Y-107600500D01*
X120433658Y-107600500D01*
X120591344Y-107600500D01*
X120591345Y-107600499D01*
X120745997Y-107569737D01*
X120891679Y-107509394D01*
X121022789Y-107421789D01*
X121134289Y-107310289D01*
X121221894Y-107179179D01*
X121282237Y-107033497D01*
X121313000Y-106878842D01*
X121313000Y-106878840D01*
X121313137Y-106878152D01*
X121345521Y-106816241D01*
X121347013Y-106814722D01*
X122474918Y-105686819D01*
X122501845Y-105672115D01*
X122527664Y-105655523D01*
X122533864Y-105654631D01*
X122536241Y-105653334D01*
X122562599Y-105650500D01*
X122663331Y-105650500D01*
X122663347Y-105650501D01*
X122670943Y-105650501D01*
X122829055Y-105650501D01*
X122829057Y-105650501D01*
X122903849Y-105630459D01*
X122935943Y-105626235D01*
X123045969Y-105626235D01*
X123113008Y-105645920D01*
X123114860Y-105647133D01*
X123246549Y-105735125D01*
X123246562Y-105735132D01*
X123337174Y-105772664D01*
X123392238Y-105795472D01*
X123541559Y-105825174D01*
X123546888Y-105826234D01*
X123546891Y-105826235D01*
X123546893Y-105826235D01*
X123704579Y-105826235D01*
X123704580Y-105826234D01*
X123859232Y-105795472D01*
X124004914Y-105735129D01*
X124136024Y-105647524D01*
X124247524Y-105536024D01*
X124335129Y-105404914D01*
X124395472Y-105259232D01*
X124426235Y-105104577D01*
X124426235Y-104946893D01*
X124426235Y-104946890D01*
X124426234Y-104946888D01*
X124416792Y-104899420D01*
X124395472Y-104792238D01*
X124349514Y-104681284D01*
X124335132Y-104646562D01*
X124335125Y-104646549D01*
X124247524Y-104515446D01*
X124247521Y-104515442D01*
X124136027Y-104403948D01*
X124136023Y-104403945D01*
X124004920Y-104316344D01*
X124004907Y-104316337D01*
X123859236Y-104255999D01*
X123859224Y-104255996D01*
X123704580Y-104225235D01*
X123704577Y-104225235D01*
X123546893Y-104225235D01*
X123546890Y-104225235D01*
X123392245Y-104255996D01*
X123392233Y-104255999D01*
X123246562Y-104316337D01*
X123246549Y-104316344D01*
X123114860Y-104404337D01*
X123096813Y-104409987D01*
X123080904Y-104420212D01*
X123049942Y-104424663D01*
X123048182Y-104425215D01*
X123045969Y-104425235D01*
X122860934Y-104425235D01*
X122860918Y-104425234D01*
X122853322Y-104425234D01*
X122695208Y-104425234D01*
X122620416Y-104445275D01*
X122588322Y-104449500D01*
X122183445Y-104449500D01*
X122030718Y-104490423D01*
X122030711Y-104490426D01*
X121893792Y-104569475D01*
X121893784Y-104569481D01*
X121781980Y-104681286D01*
X120497839Y-105965425D01*
X120436516Y-105998910D01*
X120434350Y-105999361D01*
X120279008Y-106030261D01*
X120279007Y-106030262D01*
X120279006Y-106030262D01*
X120279003Y-106030263D01*
X120229432Y-106050796D01*
X120171953Y-106074604D01*
X120102483Y-106082072D01*
X120040004Y-106050796D01*
X120004352Y-105990707D01*
X120000501Y-105960042D01*
X120000501Y-105810945D01*
X120000501Y-105810943D01*
X119959577Y-105658215D01*
X119917486Y-105585312D01*
X119880520Y-105521284D01*
X119768716Y-105409480D01*
X119768715Y-105409479D01*
X119764385Y-105405149D01*
X119764374Y-105405139D01*
X115283757Y-100924522D01*
X115250272Y-100863199D01*
X115253507Y-100798523D01*
X115267246Y-100756243D01*
X115300500Y-100546287D01*
X115300500Y-100333713D01*
X115267246Y-100123757D01*
X115201557Y-99921588D01*
X115105051Y-99732184D01*
X115105049Y-99732181D01*
X115105048Y-99732179D01*
X114980109Y-99560213D01*
X114960419Y-99540523D01*
X114926934Y-99479200D01*
X114931918Y-99409508D01*
X114960419Y-99365161D01*
X115047137Y-99278443D01*
X115580520Y-98745062D01*
X115659577Y-98608130D01*
X115700501Y-98455403D01*
X115700501Y-98297288D01*
X115700501Y-98289693D01*
X115700500Y-98289675D01*
X115700500Y-97871153D01*
X120049500Y-97871153D01*
X120049500Y-98028846D01*
X120080261Y-98183489D01*
X120080264Y-98183501D01*
X120140602Y-98329172D01*
X120140609Y-98329185D01*
X120228210Y-98460288D01*
X120228213Y-98460292D01*
X120339707Y-98571786D01*
X120339711Y-98571789D01*
X120470814Y-98659390D01*
X120470827Y-98659397D01*
X120597580Y-98711899D01*
X120616503Y-98719737D01*
X120743820Y-98745062D01*
X120771153Y-98750499D01*
X120771156Y-98750500D01*
X120771158Y-98750500D01*
X120928844Y-98750500D01*
X120928845Y-98750499D01*
X121083497Y-98719737D01*
X121229179Y-98659394D01*
X121360289Y-98571789D01*
X121471789Y-98460289D01*
X121559394Y-98329179D01*
X121619737Y-98183497D01*
X121639113Y-98086085D01*
X121650638Y-98028150D01*
X121683023Y-97966239D01*
X121684520Y-97964714D01*
X122875685Y-96773548D01*
X122937006Y-96740065D01*
X123006698Y-96745049D01*
X123010798Y-96746663D01*
X123035706Y-96756980D01*
X123066497Y-96769735D01*
X123066499Y-96769735D01*
X123066503Y-96769737D01*
X123221153Y-96800499D01*
X123221156Y-96800500D01*
X123221158Y-96800500D01*
X123225500Y-96800500D01*
X123292539Y-96820185D01*
X123338294Y-96872989D01*
X123349500Y-96924500D01*
X123349500Y-98644860D01*
X123329815Y-98711899D01*
X123277011Y-98757654D01*
X123207853Y-98767598D01*
X123156609Y-98747962D01*
X123091685Y-98704581D01*
X123091672Y-98704574D01*
X122946001Y-98644236D01*
X122945989Y-98644233D01*
X122791345Y-98613472D01*
X122791342Y-98613472D01*
X122633658Y-98613472D01*
X122633655Y-98613472D01*
X122479010Y-98644233D01*
X122478998Y-98644236D01*
X122333327Y-98704574D01*
X122333314Y-98704581D01*
X122202211Y-98792182D01*
X122202207Y-98792185D01*
X122090713Y-98903679D01*
X122090710Y-98903683D01*
X122003109Y-99034786D01*
X122003102Y-99034799D01*
X121942764Y-99180470D01*
X121942761Y-99180480D01*
X121911862Y-99335820D01*
X121879477Y-99397731D01*
X121877926Y-99399309D01*
X120743786Y-100533450D01*
X120631981Y-100645254D01*
X120631975Y-100645262D01*
X120590938Y-100716340D01*
X120590931Y-100716355D01*
X120588079Y-100721295D01*
X120552923Y-100782187D01*
X120542207Y-100822177D01*
X120537796Y-100831758D01*
X120525155Y-100846254D01*
X120512845Y-100867577D01*
X120490708Y-100889714D01*
X120403109Y-101020814D01*
X120403102Y-101020827D01*
X120342764Y-101166498D01*
X120342761Y-101166510D01*
X120312000Y-101321153D01*
X120312000Y-101478846D01*
X120342761Y-101633489D01*
X120342764Y-101633501D01*
X120403102Y-101779172D01*
X120403109Y-101779185D01*
X120490710Y-101910288D01*
X120490713Y-101910292D01*
X120602207Y-102021786D01*
X120602211Y-102021789D01*
X120733314Y-102109390D01*
X120733327Y-102109397D01*
X120878998Y-102169735D01*
X120879003Y-102169737D01*
X121033653Y-102200499D01*
X121033656Y-102200500D01*
X121033658Y-102200500D01*
X121191344Y-102200500D01*
X121191345Y-102200499D01*
X121345997Y-102169737D01*
X121491679Y-102109394D01*
X121622789Y-102021789D01*
X121734289Y-101910289D01*
X121821894Y-101779179D01*
X121882237Y-101633497D01*
X121913000Y-101478842D01*
X121913000Y-101321158D01*
X121913000Y-101321155D01*
X121889035Y-101200678D01*
X121883050Y-101170590D01*
X121889277Y-101101000D01*
X121916983Y-101058722D01*
X122276295Y-100699410D01*
X122337615Y-100665928D01*
X122407307Y-100670912D01*
X122463240Y-100712784D01*
X122485590Y-100762900D01*
X122492027Y-100795259D01*
X122492029Y-100795266D01*
X122552367Y-100940937D01*
X122552374Y-100940950D01*
X122639975Y-101072053D01*
X122639978Y-101072057D01*
X122751473Y-101183552D01*
X122751476Y-101183554D01*
X122849452Y-101249019D01*
X122894257Y-101302630D01*
X122902178Y-101327929D01*
X122929458Y-101465075D01*
X122929461Y-101465085D01*
X122989799Y-101610756D01*
X122989806Y-101610769D01*
X123077407Y-101741872D01*
X123077410Y-101741876D01*
X123188904Y-101853370D01*
X123188908Y-101853373D01*
X123320011Y-101940974D01*
X123320024Y-101940981D01*
X123465695Y-102001319D01*
X123465700Y-102001321D01*
X123620350Y-102032083D01*
X123620353Y-102032084D01*
X123620355Y-102032084D01*
X123778041Y-102032084D01*
X123778042Y-102032083D01*
X123932694Y-102001321D01*
X124078376Y-101940978D01*
X124209486Y-101853373D01*
X124320986Y-101741873D01*
X124408591Y-101610763D01*
X124468934Y-101465081D01*
X124491465Y-101351813D01*
X124499835Y-101309734D01*
X124532220Y-101247823D01*
X124533716Y-101246299D01*
X127883506Y-97896508D01*
X127883511Y-97896505D01*
X127893714Y-97886301D01*
X127893716Y-97886301D01*
X128005520Y-97774497D01*
X128084577Y-97637565D01*
X128125500Y-97484838D01*
X128125500Y-93489765D01*
X128145185Y-93422726D01*
X128146398Y-93420874D01*
X128234390Y-93289185D01*
X128234390Y-93289184D01*
X128234394Y-93289179D01*
X128294737Y-93143497D01*
X128325500Y-92988842D01*
X128325500Y-92831158D01*
X128325500Y-92831155D01*
X128325499Y-92831153D01*
X128318785Y-92797399D01*
X128294737Y-92676503D01*
X128238720Y-92541265D01*
X128234397Y-92530827D01*
X128234390Y-92530814D01*
X128146789Y-92399711D01*
X128146786Y-92399707D01*
X128035292Y-92288213D01*
X128035288Y-92288210D01*
X127904185Y-92200609D01*
X127904172Y-92200602D01*
X127758501Y-92140264D01*
X127758489Y-92140261D01*
X127603845Y-92109500D01*
X127603842Y-92109500D01*
X127446158Y-92109500D01*
X127446155Y-92109500D01*
X127291510Y-92140261D01*
X127291498Y-92140264D01*
X127145827Y-92200602D01*
X127145814Y-92200609D01*
X127014711Y-92288210D01*
X127014707Y-92288213D01*
X126903213Y-92399707D01*
X126903210Y-92399711D01*
X126815609Y-92530814D01*
X126815602Y-92530827D01*
X126755264Y-92676498D01*
X126755261Y-92676510D01*
X126724500Y-92831153D01*
X126724500Y-92988846D01*
X126755261Y-93143489D01*
X126755264Y-93143501D01*
X126815602Y-93289172D01*
X126815609Y-93289185D01*
X126903602Y-93420874D01*
X126924480Y-93487551D01*
X126924500Y-93489765D01*
X126924500Y-97105684D01*
X126904815Y-97172723D01*
X126888181Y-97193365D01*
X126162181Y-97919365D01*
X126100858Y-97952850D01*
X126031166Y-97947866D01*
X125975233Y-97905994D01*
X125950816Y-97840530D01*
X125950500Y-97831684D01*
X125950500Y-87505258D01*
X125950499Y-87505251D01*
X125941306Y-87470942D01*
X125909577Y-87352529D01*
X125880639Y-87302409D01*
X125830520Y-87215598D01*
X125718716Y-87103794D01*
X125718715Y-87103793D01*
X125714385Y-87099463D01*
X125714374Y-87099453D01*
X125086819Y-86471898D01*
X125053334Y-86410575D01*
X125050500Y-86384217D01*
X125050500Y-85329765D01*
X125070185Y-85262726D01*
X125071398Y-85260874D01*
X125122956Y-85183713D01*
X125159394Y-85129179D01*
X125219737Y-84983497D01*
X125250500Y-84828842D01*
X125250500Y-84671158D01*
X125250500Y-84671155D01*
X125250499Y-84671153D01*
X125219738Y-84516510D01*
X125219737Y-84516503D01*
X125159794Y-84371786D01*
X125159397Y-84370827D01*
X125159390Y-84370814D01*
X125071789Y-84239711D01*
X125071786Y-84239707D01*
X124960292Y-84128213D01*
X124960288Y-84128210D01*
X124829185Y-84040609D01*
X124829172Y-84040602D01*
X124683501Y-83980264D01*
X124683492Y-83980262D01*
X124629070Y-83969436D01*
X124567160Y-83937050D01*
X124532586Y-83876334D01*
X124531646Y-83823627D01*
X124550500Y-83728844D01*
X124550500Y-83571155D01*
X124550499Y-83571153D01*
X124535963Y-83498076D01*
X124519737Y-83416503D01*
X124500812Y-83370814D01*
X124459397Y-83270827D01*
X124459390Y-83270814D01*
X124371789Y-83139711D01*
X124371786Y-83139707D01*
X124260292Y-83028213D01*
X124260288Y-83028210D01*
X124129185Y-82940609D01*
X124129172Y-82940602D01*
X123983501Y-82880264D01*
X123983489Y-82880261D01*
X123828845Y-82849500D01*
X123828842Y-82849500D01*
X123671158Y-82849500D01*
X123671155Y-82849500D01*
X123516510Y-82880261D01*
X123516498Y-82880264D01*
X123370827Y-82940602D01*
X123370814Y-82940609D01*
X123239711Y-83028210D01*
X123239707Y-83028213D01*
X123128213Y-83139707D01*
X123128210Y-83139711D01*
X123040609Y-83270814D01*
X123040602Y-83270827D01*
X122980264Y-83416498D01*
X122980261Y-83416510D01*
X122949500Y-83571153D01*
X122949500Y-83728846D01*
X122980261Y-83883489D01*
X122980264Y-83883501D01*
X123040602Y-84029172D01*
X123040609Y-84029185D01*
X123128209Y-84160287D01*
X123128210Y-84160288D01*
X123128211Y-84160289D01*
X123213182Y-84245260D01*
X123246666Y-84306581D01*
X123249500Y-84332940D01*
X123249500Y-86563330D01*
X123249499Y-86563348D01*
X123249499Y-86729054D01*
X123249498Y-86729054D01*
X123290423Y-86881785D01*
X123319358Y-86931900D01*
X123319359Y-86931904D01*
X123319360Y-86931904D01*
X123369479Y-87018714D01*
X123369481Y-87018717D01*
X123488349Y-87137585D01*
X123488355Y-87137590D01*
X124113181Y-87762416D01*
X124146666Y-87823739D01*
X124149500Y-87850097D01*
X124149500Y-94290903D01*
X124129815Y-94357942D01*
X124077011Y-94403697D01*
X124007853Y-94413641D01*
X123944297Y-94384616D01*
X123937819Y-94378584D01*
X122136819Y-92577584D01*
X122103334Y-92516261D01*
X122100500Y-92489903D01*
X122100500Y-92179765D01*
X122120185Y-92112726D01*
X122121398Y-92110874D01*
X122209390Y-91979185D01*
X122209390Y-91979184D01*
X122209394Y-91979179D01*
X122269737Y-91833497D01*
X122300500Y-91678842D01*
X122300500Y-91521158D01*
X122300500Y-91521155D01*
X122300499Y-91521153D01*
X122269737Y-91366503D01*
X122246376Y-91310104D01*
X122209397Y-91220827D01*
X122209390Y-91220814D01*
X122121789Y-91089711D01*
X122121786Y-91089707D01*
X122010292Y-90978213D01*
X122010288Y-90978210D01*
X121879185Y-90890609D01*
X121879172Y-90890602D01*
X121733501Y-90830264D01*
X121733489Y-90830261D01*
X121578845Y-90799500D01*
X121578842Y-90799500D01*
X121421158Y-90799500D01*
X121421155Y-90799500D01*
X121266510Y-90830261D01*
X121266498Y-90830264D01*
X121120827Y-90890602D01*
X121120814Y-90890609D01*
X120989711Y-90978210D01*
X120989707Y-90978213D01*
X120878213Y-91089707D01*
X120878210Y-91089711D01*
X120790609Y-91220814D01*
X120790602Y-91220827D01*
X120730264Y-91366498D01*
X120730261Y-91366510D01*
X120699500Y-91521153D01*
X120699500Y-91678846D01*
X120730261Y-91833489D01*
X120730264Y-91833501D01*
X120790602Y-91979172D01*
X120790609Y-91979185D01*
X120878602Y-92110874D01*
X120899480Y-92177551D01*
X120899500Y-92179765D01*
X120899500Y-92703330D01*
X120899499Y-92703348D01*
X120899499Y-92869054D01*
X120899498Y-92869054D01*
X120940423Y-93021785D01*
X120969358Y-93071900D01*
X120969359Y-93071904D01*
X120969360Y-93071904D01*
X121010693Y-93143497D01*
X121019479Y-93158714D01*
X121019481Y-93158717D01*
X121138349Y-93277585D01*
X121138355Y-93277590D01*
X122952839Y-95092074D01*
X122963086Y-95110839D01*
X122977293Y-95126823D01*
X122979498Y-95140896D01*
X122986324Y-95153397D01*
X122984798Y-95174724D01*
X122988109Y-95195850D01*
X122982356Y-95208880D01*
X122981340Y-95223089D01*
X122968525Y-95240207D01*
X122959889Y-95259768D01*
X122944657Y-95272089D01*
X122939468Y-95279022D01*
X122933510Y-95283215D01*
X122924846Y-95288938D01*
X122920821Y-95290606D01*
X122789711Y-95378211D01*
X122789694Y-95378227D01*
X122788586Y-95378960D01*
X122755486Y-95389134D01*
X122728874Y-95397467D01*
X122729002Y-95398439D01*
X122723427Y-95399173D01*
X122722447Y-95399480D01*
X122721813Y-95399485D01*
X122721800Y-95399490D01*
X122721785Y-95399485D01*
X122720996Y-95399493D01*
X122720940Y-95399500D01*
X122680019Y-95410464D01*
X122680019Y-95410465D01*
X122642751Y-95420451D01*
X122568214Y-95440423D01*
X122568209Y-95440426D01*
X122431290Y-95519475D01*
X122431282Y-95519481D01*
X120835339Y-97115425D01*
X120774016Y-97148910D01*
X120771850Y-97149361D01*
X120616508Y-97180261D01*
X120616498Y-97180264D01*
X120470827Y-97240602D01*
X120470814Y-97240609D01*
X120339711Y-97328210D01*
X120339707Y-97328213D01*
X120228213Y-97439707D01*
X120228210Y-97439711D01*
X120140609Y-97570814D01*
X120140602Y-97570827D01*
X120080264Y-97716498D01*
X120080261Y-97716510D01*
X120049500Y-97871153D01*
X115700500Y-97871153D01*
X115700500Y-96599060D01*
X115700501Y-96599047D01*
X115700501Y-96430944D01*
X115684106Y-96369758D01*
X115659577Y-96278216D01*
X115604049Y-96182037D01*
X115580524Y-96141290D01*
X115580518Y-96141282D01*
X115507052Y-96067816D01*
X115283756Y-95844521D01*
X115250272Y-95783199D01*
X115253507Y-95718523D01*
X115267246Y-95676243D01*
X115300500Y-95466287D01*
X115300500Y-95253713D01*
X115267246Y-95043757D01*
X115253506Y-95001473D01*
X115251512Y-94931635D01*
X115283753Y-94875480D01*
X115580520Y-94578716D01*
X115659577Y-94441784D01*
X115700501Y-94289057D01*
X115700501Y-94130942D01*
X115700501Y-94123347D01*
X115700500Y-94123329D01*
X115700500Y-85602155D01*
X117485000Y-85602155D01*
X117485000Y-86150000D01*
X118229670Y-86150000D01*
X118209925Y-86169745D01*
X118160556Y-86255255D01*
X118135000Y-86350630D01*
X118135000Y-86449370D01*
X118160556Y-86544745D01*
X118209925Y-86630255D01*
X118229670Y-86650000D01*
X117485000Y-86650000D01*
X117485000Y-87197844D01*
X117491401Y-87257372D01*
X117491403Y-87257379D01*
X117541645Y-87392086D01*
X117541649Y-87392093D01*
X117627809Y-87507187D01*
X117627812Y-87507190D01*
X117742906Y-87593350D01*
X117742913Y-87593354D01*
X117877620Y-87643596D01*
X117877627Y-87643598D01*
X117937155Y-87649999D01*
X117937172Y-87650000D01*
X118260000Y-87650000D01*
X118260000Y-86680330D01*
X118279745Y-86700075D01*
X118365255Y-86749444D01*
X118460630Y-86775000D01*
X118559370Y-86775000D01*
X118654745Y-86749444D01*
X118740255Y-86700075D01*
X118754500Y-86685830D01*
X118754500Y-86726003D01*
X118755107Y-86729057D01*
X118757617Y-86741671D01*
X118760000Y-86765865D01*
X118760000Y-87650000D01*
X119082828Y-87650000D01*
X119082844Y-87649999D01*
X119142372Y-87643598D01*
X119142376Y-87643597D01*
X119277089Y-87593352D01*
X119277896Y-87592748D01*
X119278845Y-87592393D01*
X119284876Y-87589101D01*
X119285349Y-87589967D01*
X119343360Y-87568329D01*
X119399661Y-87577451D01*
X119480873Y-87611091D01*
X119644288Y-87643596D01*
X119678992Y-87650499D01*
X119678996Y-87650500D01*
X119678997Y-87650500D01*
X119881004Y-87650500D01*
X119881005Y-87650499D01*
X120079127Y-87611091D01*
X120265756Y-87533786D01*
X120346110Y-87480094D01*
X120412786Y-87459217D01*
X120480166Y-87477701D01*
X120483865Y-87480078D01*
X120564244Y-87533786D01*
X120750873Y-87611091D01*
X120914288Y-87643596D01*
X120948992Y-87650499D01*
X120948996Y-87650500D01*
X120948997Y-87650500D01*
X121151004Y-87650500D01*
X121151005Y-87650499D01*
X121349127Y-87611091D01*
X121535756Y-87533786D01*
X121703718Y-87421558D01*
X121846558Y-87278718D01*
X121958786Y-87110756D01*
X122036091Y-86924127D01*
X122075500Y-86726003D01*
X122075500Y-86073997D01*
X122036091Y-85875873D01*
X121958786Y-85689244D01*
X121958784Y-85689241D01*
X121958782Y-85689237D01*
X121846558Y-85521281D01*
X121703718Y-85378441D01*
X121535762Y-85266217D01*
X121535752Y-85266212D01*
X121349127Y-85188909D01*
X121349119Y-85188907D01*
X121151007Y-85149500D01*
X121151003Y-85149500D01*
X120948997Y-85149500D01*
X120948992Y-85149500D01*
X120750880Y-85188907D01*
X120750872Y-85188909D01*
X120564244Y-85266213D01*
X120483891Y-85319904D01*
X120417213Y-85340782D01*
X120349833Y-85322297D01*
X120346109Y-85319904D01*
X120265755Y-85266213D01*
X120079127Y-85188909D01*
X120079119Y-85188907D01*
X119881007Y-85149500D01*
X119881003Y-85149500D01*
X119678997Y-85149500D01*
X119678992Y-85149500D01*
X119480880Y-85188907D01*
X119480868Y-85188910D01*
X119399661Y-85222547D01*
X119330191Y-85230016D01*
X119285140Y-85210405D01*
X119284872Y-85210897D01*
X119279374Y-85207894D01*
X119277895Y-85207251D01*
X119277086Y-85206645D01*
X119142379Y-85156403D01*
X119142372Y-85156401D01*
X119082844Y-85150000D01*
X118760000Y-85150000D01*
X118760000Y-86034134D01*
X118757617Y-86058326D01*
X118754500Y-86073997D01*
X118754500Y-86114170D01*
X118740255Y-86099925D01*
X118654745Y-86050556D01*
X118559370Y-86025000D01*
X118460630Y-86025000D01*
X118365255Y-86050556D01*
X118279745Y-86099925D01*
X118260000Y-86119670D01*
X118260000Y-85150000D01*
X117937155Y-85150000D01*
X117877627Y-85156401D01*
X117877620Y-85156403D01*
X117742913Y-85206645D01*
X117742906Y-85206649D01*
X117627812Y-85292809D01*
X117627809Y-85292812D01*
X117541649Y-85407906D01*
X117541645Y-85407913D01*
X117491403Y-85542620D01*
X117491401Y-85542627D01*
X117485000Y-85602155D01*
X115700500Y-85602155D01*
X115700500Y-83899060D01*
X115700501Y-83899047D01*
X115700501Y-83730944D01*
X115699939Y-83728846D01*
X115659577Y-83578216D01*
X115646877Y-83556219D01*
X115580524Y-83441290D01*
X115580518Y-83441282D01*
X115541983Y-83402747D01*
X115460389Y-83321153D01*
X116849500Y-83321153D01*
X116849500Y-83478846D01*
X116880261Y-83633489D01*
X116880264Y-83633501D01*
X116940602Y-83779172D01*
X116940609Y-83779185D01*
X117028210Y-83910288D01*
X117028213Y-83910292D01*
X117139707Y-84021786D01*
X117139711Y-84021789D01*
X117270814Y-84109390D01*
X117270827Y-84109397D01*
X117393693Y-84160289D01*
X117416503Y-84169737D01*
X117571153Y-84200499D01*
X117571156Y-84200500D01*
X117571158Y-84200500D01*
X117728844Y-84200500D01*
X117728845Y-84200499D01*
X117883497Y-84169737D01*
X118029179Y-84109394D01*
X118125628Y-84044949D01*
X118160875Y-84021398D01*
X118227553Y-84000520D01*
X118229766Y-84000500D01*
X120904452Y-84000500D01*
X120971491Y-84020185D01*
X121017246Y-84072989D01*
X121019013Y-84077048D01*
X121040606Y-84129179D01*
X121040607Y-84129182D01*
X121128210Y-84260288D01*
X121128213Y-84260292D01*
X121239707Y-84371786D01*
X121239711Y-84371789D01*
X121370814Y-84459390D01*
X121370827Y-84459397D01*
X121508683Y-84516498D01*
X121516503Y-84519737D01*
X121623756Y-84541071D01*
X121671153Y-84550499D01*
X121671156Y-84550500D01*
X121671158Y-84550500D01*
X121828844Y-84550500D01*
X121828845Y-84550499D01*
X121983497Y-84519737D01*
X122129179Y-84459394D01*
X122260289Y-84371789D01*
X122371789Y-84260289D01*
X122459394Y-84129179D01*
X122519737Y-83983497D01*
X122550500Y-83828842D01*
X122550500Y-83671158D01*
X122550500Y-83671155D01*
X122550499Y-83671153D01*
X122545995Y-83648512D01*
X122519737Y-83516503D01*
X122504139Y-83478846D01*
X122459397Y-83370827D01*
X122459390Y-83370814D01*
X122371789Y-83239711D01*
X122371786Y-83239707D01*
X122260292Y-83128213D01*
X122260288Y-83128210D01*
X122129185Y-83040609D01*
X122129172Y-83040602D01*
X121983501Y-82980264D01*
X121983491Y-82980261D01*
X121828151Y-82949362D01*
X121788037Y-82933767D01*
X121775243Y-82926007D01*
X121768716Y-82919480D01*
X121681904Y-82869360D01*
X121631785Y-82840423D01*
X121479057Y-82799499D01*
X121320943Y-82799499D01*
X121313347Y-82799499D01*
X121313331Y-82799500D01*
X120014077Y-82799500D01*
X119947038Y-82779815D01*
X119901283Y-82727011D01*
X119891339Y-82657853D01*
X119920364Y-82594297D01*
X119926396Y-82587819D01*
X119956748Y-82557466D01*
X119956751Y-82557462D01*
X120066185Y-82393684D01*
X120066192Y-82393671D01*
X120141569Y-82211693D01*
X120141572Y-82211681D01*
X120179999Y-82018495D01*
X120180000Y-82018492D01*
X120180000Y-81620000D01*
X119480000Y-81620000D01*
X119480000Y-81120000D01*
X120035536Y-81120000D01*
X120102575Y-81139685D01*
X120142923Y-81182000D01*
X120149482Y-81193361D01*
X120149484Y-81193364D01*
X120149485Y-81193365D01*
X120256635Y-81300515D01*
X120368409Y-81365048D01*
X120376627Y-81369793D01*
X120387865Y-81376281D01*
X120534234Y-81415500D01*
X120534236Y-81415500D01*
X120685764Y-81415500D01*
X120685766Y-81415500D01*
X120832135Y-81376281D01*
X120963365Y-81300515D01*
X121070515Y-81193365D01*
X121146281Y-81062135D01*
X121185500Y-80915766D01*
X121185500Y-80764234D01*
X125814500Y-80764234D01*
X125814500Y-80915766D01*
X125821767Y-80942888D01*
X125853719Y-81062136D01*
X125891602Y-81127750D01*
X125929485Y-81193365D01*
X126036635Y-81300515D01*
X126148409Y-81365048D01*
X126156627Y-81369793D01*
X126167865Y-81376281D01*
X126314234Y-81415500D01*
X126314236Y-81415500D01*
X126465764Y-81415500D01*
X126465766Y-81415500D01*
X126612135Y-81376281D01*
X126743365Y-81300515D01*
X126850515Y-81193365D01*
X126857077Y-81182000D01*
X126907644Y-81133784D01*
X126964464Y-81120000D01*
X127520000Y-81120000D01*
X127520000Y-81620000D01*
X126820000Y-81620000D01*
X126820000Y-82018495D01*
X126858427Y-82211681D01*
X126858430Y-82211693D01*
X126933807Y-82393671D01*
X126933814Y-82393684D01*
X127043248Y-82557462D01*
X127043251Y-82557466D01*
X127182533Y-82696748D01*
X127182537Y-82696751D01*
X127346315Y-82806185D01*
X127346328Y-82806192D01*
X127528308Y-82881569D01*
X127570000Y-82889862D01*
X127570000Y-82086988D01*
X127579940Y-82104205D01*
X127635795Y-82160060D01*
X127704204Y-82199556D01*
X127780504Y-82220000D01*
X127859496Y-82220000D01*
X127935796Y-82199556D01*
X128004205Y-82160060D01*
X128060060Y-82104205D01*
X128070000Y-82086988D01*
X128070000Y-82889862D01*
X128111690Y-82881569D01*
X128111692Y-82881569D01*
X128293671Y-82806192D01*
X128293684Y-82806185D01*
X128457462Y-82696751D01*
X128457466Y-82696748D01*
X128596751Y-82557463D01*
X128706185Y-82393684D01*
X128706192Y-82393671D01*
X128781569Y-82211693D01*
X128781572Y-82211681D01*
X128819999Y-82018495D01*
X128820000Y-82018492D01*
X128820000Y-81620000D01*
X128120000Y-81620000D01*
X128120000Y-81120000D01*
X128820000Y-81120000D01*
X128820000Y-80721508D01*
X128819999Y-80721504D01*
X128781572Y-80528318D01*
X128781569Y-80528306D01*
X128706192Y-80346328D01*
X128706185Y-80346315D01*
X128596751Y-80182537D01*
X128596748Y-80182533D01*
X128457466Y-80043251D01*
X128457462Y-80043248D01*
X128293684Y-79933814D01*
X128293671Y-79933807D01*
X128111691Y-79858429D01*
X128111683Y-79858427D01*
X128070000Y-79850135D01*
X128070000Y-80653011D01*
X128060060Y-80635795D01*
X128004205Y-80579940D01*
X127935796Y-80540444D01*
X127859496Y-80520000D01*
X127780504Y-80520000D01*
X127704204Y-80540444D01*
X127635795Y-80579940D01*
X127579940Y-80635795D01*
X127570000Y-80653011D01*
X127570000Y-79850136D01*
X127569999Y-79850135D01*
X127528316Y-79858427D01*
X127528308Y-79858429D01*
X127346328Y-79933807D01*
X127346315Y-79933814D01*
X127182537Y-80043248D01*
X127182533Y-80043251D01*
X127043248Y-80182536D01*
X126930427Y-80351387D01*
X126929003Y-80350435D01*
X126885742Y-80394451D01*
X126817600Y-80409892D01*
X126751927Y-80386041D01*
X126749907Y-80384306D01*
X126749811Y-80384432D01*
X126743367Y-80379487D01*
X126743365Y-80379485D01*
X126644838Y-80322600D01*
X126612136Y-80303719D01*
X126538950Y-80284109D01*
X126465766Y-80264500D01*
X126314234Y-80264500D01*
X126167863Y-80303719D01*
X126036635Y-80379485D01*
X126036632Y-80379487D01*
X125929487Y-80486632D01*
X125929485Y-80486635D01*
X125853719Y-80617863D01*
X125842664Y-80659122D01*
X125814500Y-80764234D01*
X121185500Y-80764234D01*
X121146281Y-80617865D01*
X121070515Y-80486635D01*
X120963365Y-80379485D01*
X120864838Y-80322600D01*
X120832136Y-80303719D01*
X120758950Y-80284109D01*
X120685766Y-80264500D01*
X120534234Y-80264500D01*
X120387863Y-80303719D01*
X120256635Y-80379485D01*
X120250189Y-80384432D01*
X120248099Y-80381709D01*
X120200217Y-80407466D01*
X120130558Y-80402043D01*
X120074888Y-80359821D01*
X120069299Y-80350976D01*
X119956751Y-80182537D01*
X119956748Y-80182533D01*
X119817466Y-80043251D01*
X119817462Y-80043248D01*
X119653684Y-79933814D01*
X119653671Y-79933807D01*
X119471691Y-79858429D01*
X119471683Y-79858427D01*
X119430000Y-79850135D01*
X119430000Y-80653011D01*
X119420060Y-80635795D01*
X119364205Y-80579940D01*
X119295796Y-80540444D01*
X119219496Y-80520000D01*
X119140504Y-80520000D01*
X119064204Y-80540444D01*
X118995795Y-80579940D01*
X118939940Y-80635795D01*
X118930000Y-80653011D01*
X118930000Y-79850136D01*
X118929999Y-79850135D01*
X118888316Y-79858427D01*
X118888308Y-79858429D01*
X118706328Y-79933807D01*
X118706315Y-79933814D01*
X118542537Y-80043248D01*
X118542533Y-80043251D01*
X118403251Y-80182533D01*
X118403248Y-80182537D01*
X118293814Y-80346315D01*
X118293807Y-80346328D01*
X118218430Y-80528306D01*
X118218427Y-80528318D01*
X118180000Y-80721504D01*
X118180000Y-81120000D01*
X118880000Y-81120000D01*
X118880000Y-81620000D01*
X118180000Y-81620000D01*
X118180000Y-82018495D01*
X118218427Y-82211681D01*
X118218430Y-82211693D01*
X118293807Y-82393671D01*
X118293814Y-82393684D01*
X118403248Y-82557462D01*
X118403251Y-82557466D01*
X118433604Y-82587819D01*
X118444216Y-82607255D01*
X118458717Y-82623989D01*
X118460633Y-82637320D01*
X118467089Y-82649142D01*
X118465509Y-82671228D01*
X118468661Y-82693147D01*
X118463065Y-82705398D01*
X118462105Y-82718834D01*
X118448834Y-82736560D01*
X118439636Y-82756703D01*
X118428304Y-82763985D01*
X118420233Y-82774767D01*
X118399487Y-82782504D01*
X118380858Y-82794477D01*
X118358939Y-82797628D01*
X118354769Y-82799184D01*
X118345923Y-82799500D01*
X118229766Y-82799500D01*
X118162727Y-82779815D01*
X118160875Y-82778602D01*
X118029185Y-82690609D01*
X118029172Y-82690602D01*
X117883501Y-82630264D01*
X117883489Y-82630261D01*
X117728845Y-82599500D01*
X117728842Y-82599500D01*
X117571158Y-82599500D01*
X117571155Y-82599500D01*
X117416510Y-82630261D01*
X117416498Y-82630264D01*
X117270827Y-82690602D01*
X117270814Y-82690609D01*
X117139711Y-82778210D01*
X117139707Y-82778213D01*
X117028213Y-82889707D01*
X117028210Y-82889711D01*
X116940609Y-83020814D01*
X116940602Y-83020827D01*
X116880264Y-83166498D01*
X116880261Y-83166510D01*
X116849500Y-83321153D01*
X115460389Y-83321153D01*
X115419815Y-83280579D01*
X115283756Y-83144521D01*
X115250272Y-83083199D01*
X115253507Y-83018523D01*
X115267246Y-82976243D01*
X115300500Y-82766287D01*
X115300500Y-82553713D01*
X115267246Y-82343757D01*
X115201557Y-82141588D01*
X115105051Y-81952184D01*
X115105049Y-81952181D01*
X115105048Y-81952179D01*
X114980109Y-81780213D01*
X114829786Y-81629890D01*
X114657820Y-81504951D01*
X114657115Y-81504591D01*
X114649054Y-81500485D01*
X114598259Y-81452512D01*
X114581463Y-81384692D01*
X114603999Y-81318556D01*
X114649054Y-81279515D01*
X114657816Y-81275051D01*
X114705917Y-81240104D01*
X114829786Y-81150109D01*
X114829788Y-81150106D01*
X114829792Y-81150104D01*
X114980104Y-80999792D01*
X114980106Y-80999788D01*
X114980109Y-80999786D01*
X115045136Y-80910283D01*
X115105051Y-80827816D01*
X115201557Y-80638412D01*
X115267246Y-80436243D01*
X115300500Y-80226287D01*
X115300500Y-80013713D01*
X115267246Y-79803757D01*
X115201557Y-79601588D01*
X115105051Y-79412184D01*
X115105049Y-79412181D01*
X115105048Y-79412179D01*
X114980109Y-79240213D01*
X114866569Y-79126673D01*
X114833084Y-79065350D01*
X114838068Y-78995658D01*
X114879940Y-78939725D01*
X114910915Y-78922810D01*
X115042331Y-78873796D01*
X115157546Y-78787546D01*
X115243796Y-78672331D01*
X115294091Y-78537483D01*
X115300500Y-78477873D01*
X115300499Y-76682128D01*
X115294091Y-76622517D01*
X115285065Y-76598318D01*
X115243797Y-76487671D01*
X115243793Y-76487664D01*
X115157547Y-76372455D01*
X115151275Y-76366183D01*
X115152617Y-76364840D01*
X115117428Y-76317833D01*
X115112444Y-76248141D01*
X115145929Y-76186818D01*
X115207252Y-76153334D01*
X115233610Y-76150500D01*
X118239440Y-76150500D01*
X118306479Y-76170185D01*
G37*
%TD.AperFunction*%
%TA.AperFunction,Conductor*%
G36*
X133965270Y-121611717D02*
G01*
X133965271Y-121611716D01*
X133975182Y-121598076D01*
X134030512Y-121555410D01*
X134100125Y-121549431D01*
X134161920Y-121582037D01*
X134196278Y-121642876D01*
X134199500Y-121670961D01*
X134199500Y-122568186D01*
X134179815Y-122635225D01*
X134127011Y-122680980D01*
X134057853Y-122690924D01*
X133994297Y-122661899D01*
X133975182Y-122641071D01*
X133880109Y-122510214D01*
X133880105Y-122510209D01*
X133729786Y-122359890D01*
X133557817Y-122234949D01*
X133548504Y-122230204D01*
X133497707Y-122182230D01*
X133480912Y-122114409D01*
X133503449Y-122048274D01*
X133548507Y-122009232D01*
X133557555Y-122004622D01*
X133611716Y-121965270D01*
X133611717Y-121965270D01*
X132979408Y-121332962D01*
X133042993Y-121315925D01*
X133157007Y-121250099D01*
X133250099Y-121157007D01*
X133315925Y-121042993D01*
X133332962Y-120979409D01*
X133965270Y-121611717D01*
G37*
%TD.AperFunction*%
%TA.AperFunction,Conductor*%
G36*
X134161920Y-119042888D02*
G01*
X134196277Y-119103727D01*
X134199500Y-119131813D01*
X134199500Y-120029038D01*
X134179815Y-120096077D01*
X134127011Y-120141832D01*
X134057853Y-120151776D01*
X133994297Y-120122751D01*
X133975182Y-120101923D01*
X133965271Y-120088282D01*
X133965269Y-120088282D01*
X133332962Y-120720590D01*
X133315925Y-120657007D01*
X133250099Y-120542993D01*
X133157007Y-120449901D01*
X133042993Y-120384075D01*
X132979409Y-120367037D01*
X133611716Y-119734728D01*
X133557547Y-119695373D01*
X133557547Y-119695372D01*
X133548500Y-119690763D01*
X133497706Y-119642788D01*
X133480912Y-119574966D01*
X133503451Y-119508832D01*
X133548508Y-119469793D01*
X133557816Y-119465051D01*
X133675546Y-119379516D01*
X133729786Y-119340109D01*
X133729788Y-119340106D01*
X133729792Y-119340104D01*
X133880104Y-119189792D01*
X133975182Y-119058926D01*
X134030511Y-119016262D01*
X134100124Y-119010283D01*
X134161920Y-119042888D01*
G37*
%TD.AperFunction*%
%TA.AperFunction,Conductor*%
G36*
X133965270Y-96211717D02*
G01*
X133965271Y-96211716D01*
X133975182Y-96198076D01*
X134030512Y-96155410D01*
X134100125Y-96149431D01*
X134161920Y-96182037D01*
X134196278Y-96242876D01*
X134199500Y-96270961D01*
X134199500Y-97168186D01*
X134179815Y-97235225D01*
X134127011Y-97280980D01*
X134057853Y-97290924D01*
X133994297Y-97261899D01*
X133975182Y-97241071D01*
X133880109Y-97110214D01*
X133880105Y-97110209D01*
X133729786Y-96959890D01*
X133557817Y-96834949D01*
X133548504Y-96830204D01*
X133497707Y-96782230D01*
X133480912Y-96714409D01*
X133503449Y-96648274D01*
X133548507Y-96609232D01*
X133557555Y-96604622D01*
X133611716Y-96565270D01*
X133611717Y-96565270D01*
X132979408Y-95932962D01*
X133042993Y-95915925D01*
X133157007Y-95850099D01*
X133250099Y-95757007D01*
X133315925Y-95642993D01*
X133332962Y-95579409D01*
X133965270Y-96211717D01*
G37*
%TD.AperFunction*%
%TA.AperFunction,Conductor*%
G36*
X134161920Y-93642888D02*
G01*
X134196277Y-93703727D01*
X134199500Y-93731813D01*
X134199500Y-94629038D01*
X134179815Y-94696077D01*
X134127011Y-94741832D01*
X134057853Y-94751776D01*
X133994297Y-94722751D01*
X133975182Y-94701923D01*
X133965271Y-94688282D01*
X133965269Y-94688282D01*
X133332962Y-95320590D01*
X133315925Y-95257007D01*
X133250099Y-95142993D01*
X133157007Y-95049901D01*
X133042993Y-94984075D01*
X132979409Y-94967037D01*
X133611716Y-94334728D01*
X133557547Y-94295373D01*
X133557547Y-94295372D01*
X133548500Y-94290763D01*
X133497706Y-94242788D01*
X133480912Y-94174966D01*
X133503451Y-94108832D01*
X133548508Y-94069793D01*
X133557816Y-94065051D01*
X133675546Y-93979516D01*
X133729786Y-93940109D01*
X133729788Y-93940106D01*
X133729792Y-93940104D01*
X133880104Y-93789792D01*
X133975182Y-93658926D01*
X134030511Y-93616262D01*
X134100124Y-93610283D01*
X134161920Y-93642888D01*
G37*
%TD.AperFunction*%
%TA.AperFunction,Conductor*%
G36*
X133965270Y-83511717D02*
G01*
X133965271Y-83511716D01*
X133975182Y-83498076D01*
X134030512Y-83455410D01*
X134100125Y-83449431D01*
X134161920Y-83482037D01*
X134196278Y-83542876D01*
X134199500Y-83570961D01*
X134199500Y-84468186D01*
X134179815Y-84535225D01*
X134127011Y-84580980D01*
X134057853Y-84590924D01*
X133994297Y-84561899D01*
X133975182Y-84541071D01*
X133880109Y-84410214D01*
X133880105Y-84410209D01*
X133729786Y-84259890D01*
X133557817Y-84134949D01*
X133548504Y-84130204D01*
X133497707Y-84082230D01*
X133480912Y-84014409D01*
X133503449Y-83948274D01*
X133548507Y-83909232D01*
X133557555Y-83904622D01*
X133611716Y-83865270D01*
X133611717Y-83865270D01*
X132979408Y-83232962D01*
X133042993Y-83215925D01*
X133157007Y-83150099D01*
X133250099Y-83057007D01*
X133315925Y-82942993D01*
X133332962Y-82879409D01*
X133965270Y-83511717D01*
G37*
%TD.AperFunction*%
%TA.AperFunction,Conductor*%
G36*
X134161920Y-80942888D02*
G01*
X134196277Y-81003727D01*
X134199500Y-81031813D01*
X134199500Y-81929038D01*
X134179815Y-81996077D01*
X134127011Y-82041832D01*
X134057853Y-82051776D01*
X133994297Y-82022751D01*
X133975182Y-82001923D01*
X133965271Y-81988282D01*
X133965269Y-81988282D01*
X133332962Y-82620590D01*
X133315925Y-82557007D01*
X133250099Y-82442993D01*
X133157007Y-82349901D01*
X133042993Y-82284075D01*
X132979409Y-82267037D01*
X133611716Y-81634728D01*
X133557547Y-81595373D01*
X133557547Y-81595372D01*
X133548500Y-81590763D01*
X133497706Y-81542788D01*
X133480912Y-81474966D01*
X133503451Y-81408832D01*
X133548508Y-81369793D01*
X133557816Y-81365051D01*
X133675546Y-81279516D01*
X133729786Y-81240109D01*
X133729788Y-81240106D01*
X133729792Y-81240104D01*
X133880104Y-81089792D01*
X133975182Y-80958926D01*
X134030511Y-80916262D01*
X134100124Y-80910283D01*
X134161920Y-80942888D01*
G37*
%TD.AperFunction*%
%TD*%
M02*
