%TF.GenerationSoftware,KiCad,Pcbnew,10.0.1*%
%TF.CreationDate,2026-06-21T01:56:21+02:00*%
%TF.ProjectId,devboard,64657662-6f61-4726-942e-6b696361645f,rev?*%
%TF.SameCoordinates,Original*%
%TF.FileFunction,Soldermask,Top*%
%TF.FilePolarity,Negative*%
%FSLAX46Y46*%
G04 Gerber Fmt 4.6, Leading zero omitted, Abs format (unit mm)*
G04 Created by KiCad (PCBNEW 10.0.1) date 2026-06-21 01:56:21*
%MOMM*%
%LPD*%
G01*
G04 APERTURE LIST*
G04 Aperture macros list*
%AMRoundRect*
0 Rectangle with rounded corners*
0 $1 Rounding radius*
0 $2 $3 $4 $5 $6 $7 $8 $9 X,Y pos of 4 corners*
0 Add a 4 corners polygon primitive as box body*
4,1,4,$2,$3,$4,$5,$6,$7,$8,$9,$2,$3,0*
0 Add four circle primitives for the rounded corners*
1,1,$1+$1,$2,$3*
1,1,$1+$1,$4,$5*
1,1,$1+$1,$6,$7*
1,1,$1+$1,$8,$9*
0 Add four rect primitives between the rounded corners*
20,1,$1+$1,$2,$3,$4,$5,0*
20,1,$1+$1,$4,$5,$6,$7,0*
20,1,$1+$1,$6,$7,$8,$9,0*
20,1,$1+$1,$8,$9,$2,$3,0*%
G04 Aperture macros list end*
%ADD10RoundRect,0.140000X0.170000X-0.140000X0.170000X0.140000X-0.170000X0.140000X-0.170000X-0.140000X0*%
%ADD11RoundRect,0.135000X-0.135000X-0.185000X0.135000X-0.185000X0.135000X0.185000X-0.135000X0.185000X0*%
%ADD12R,1.050000X1.500000*%
%ADD13O,1.050000X1.500000*%
%ADD14RoundRect,0.140000X-0.170000X0.140000X-0.170000X-0.140000X0.170000X-0.140000X0.170000X0.140000X0*%
%ADD15RoundRect,0.140000X-0.140000X-0.170000X0.140000X-0.170000X0.140000X0.170000X-0.140000X0.170000X0*%
%ADD16RoundRect,0.135000X0.135000X0.185000X-0.135000X0.185000X-0.135000X-0.185000X0.135000X-0.185000X0*%
%ADD17C,0.650000*%
%ADD18RoundRect,0.150000X0.150000X0.575000X-0.150000X0.575000X-0.150000X-0.575000X0.150000X-0.575000X0*%
%ADD19RoundRect,0.075000X0.075000X0.650000X-0.075000X0.650000X-0.075000X-0.650000X0.075000X-0.650000X0*%
%ADD20O,1.000000X2.100000*%
%ADD21O,1.000000X1.600000*%
%ADD22RoundRect,0.135000X-0.185000X0.135000X-0.185000X-0.135000X0.185000X-0.135000X0.185000X0.135000X0*%
%ADD23RoundRect,0.162500X-0.650000X-0.162500X0.650000X-0.162500X0.650000X0.162500X-0.650000X0.162500X0*%
%ADD24RoundRect,0.140000X0.140000X0.170000X-0.140000X0.170000X-0.140000X-0.170000X0.140000X-0.170000X0*%
%ADD25R,1.700000X1.700000*%
%ADD26C,1.700000*%
%ADD27RoundRect,0.200000X-0.200000X-0.800000X0.200000X-0.800000X0.200000X0.800000X-0.200000X0.800000X0*%
%ADD28RoundRect,0.250000X-0.450000X-0.350000X0.450000X-0.350000X0.450000X0.350000X-0.450000X0.350000X0*%
%ADD29RoundRect,0.050000X-0.387500X-0.050000X0.387500X-0.050000X0.387500X0.050000X-0.387500X0.050000X0*%
%ADD30RoundRect,0.050000X-0.050000X-0.387500X0.050000X-0.387500X0.050000X0.387500X-0.050000X0.387500X0*%
%ADD31R,3.200000X3.200000*%
G04 APERTURE END LIST*
D10*
%TO.C,C16*%
X123750000Y-121410000D03*
X123750000Y-120450000D03*
%TD*%
D11*
%TO.C,R7*%
X119480000Y-107650000D03*
X120500000Y-107650000D03*
%TD*%
D12*
%TO.C,U4*%
X118510000Y-86400000D03*
D13*
X119780000Y-86400000D03*
X121050000Y-86400000D03*
%TD*%
D14*
%TO.C,C10*%
X127550000Y-123440000D03*
X127550000Y-124400000D03*
%TD*%
D15*
%TO.C,C8*%
X119540000Y-96600000D03*
X120500000Y-96600000D03*
%TD*%
D16*
%TO.C,R6*%
X126850000Y-90100000D03*
X125830000Y-90100000D03*
%TD*%
D14*
%TO.C,C9*%
X118700000Y-94650000D03*
X118700000Y-95610000D03*
%TD*%
D17*
%TO.C,J1*%
X126390000Y-80840000D03*
X120610000Y-80840000D03*
D18*
X126750000Y-82285000D03*
X125950000Y-82285000D03*
D19*
X124750000Y-82285000D03*
X123750000Y-82285000D03*
X123250000Y-82285000D03*
X122250000Y-82285000D03*
D18*
X121050000Y-82285000D03*
X120250000Y-82285000D03*
X120250000Y-82285000D03*
X121050000Y-82285000D03*
D19*
X121750000Y-82285000D03*
X122750000Y-82285000D03*
X124250000Y-82285000D03*
X125250000Y-82285000D03*
D18*
X125950000Y-82285000D03*
X126750000Y-82285000D03*
D20*
X127820000Y-81370000D03*
D21*
X127820000Y-77190000D03*
D20*
X119180000Y-81370000D03*
D21*
X119180000Y-77190000D03*
%TD*%
D22*
%TO.C,R5*%
X123750000Y-118500000D03*
X123750000Y-119520000D03*
%TD*%
%TO.C,R2*%
X117600000Y-81640000D03*
X117600000Y-82660000D03*
%TD*%
%TO.C,R3*%
X125400000Y-106230000D03*
X125400000Y-107250000D03*
%TD*%
D23*
%TO.C,U3*%
X120350000Y-91640000D03*
X120350000Y-92910000D03*
X120350000Y-94180000D03*
X120350000Y-95450000D03*
X127525000Y-95450000D03*
X127525000Y-94180000D03*
X127525000Y-92910000D03*
X127525000Y-91640000D03*
%TD*%
D10*
%TO.C,C3*%
X127500000Y-105230000D03*
X127500000Y-104270000D03*
%TD*%
D14*
%TO.C,C12*%
X129550000Y-123440000D03*
X129550000Y-124400000D03*
%TD*%
D22*
%TO.C,R4*%
X124400000Y-106230000D03*
X124400000Y-107250000D03*
%TD*%
D10*
%TO.C,C4*%
X123100000Y-86230000D03*
X123100000Y-85270000D03*
%TD*%
D24*
%TO.C,C1*%
X127950000Y-106250000D03*
X126990000Y-106250000D03*
%TD*%
D15*
%TO.C,C6*%
X117510000Y-123350000D03*
X118470000Y-123350000D03*
%TD*%
%TO.C,C15*%
X120320000Y-117750000D03*
X121280000Y-117750000D03*
%TD*%
D25*
%TO.C,J4*%
X121510000Y-127500000D03*
D26*
X124050000Y-127500000D03*
X126590000Y-127500000D03*
%TD*%
D24*
%TO.C,C5*%
X126460000Y-85600000D03*
X125500000Y-85600000D03*
%TD*%
D14*
%TO.C,C11*%
X128550000Y-123450000D03*
X128550000Y-124410000D03*
%TD*%
D27*
%TO.C,SW1*%
X119620000Y-123800000D03*
X123820000Y-123800000D03*
%TD*%
D25*
%TO.C,J3*%
X132850000Y-77670000D03*
D26*
X132850000Y-80210000D03*
X132850000Y-82750000D03*
X132850000Y-85290000D03*
X132850000Y-87830000D03*
X132850000Y-90370000D03*
X132850000Y-92910000D03*
X132850000Y-95450000D03*
X132850000Y-97990000D03*
X132850000Y-100530000D03*
X132850000Y-103070000D03*
X132850000Y-105610000D03*
X132850000Y-108150000D03*
X132850000Y-110690000D03*
X132850000Y-113230000D03*
X132850000Y-115770000D03*
X132850000Y-118310000D03*
X132850000Y-120850000D03*
X132850000Y-123390000D03*
X132850000Y-125930000D03*
%TD*%
D16*
%TO.C,R1*%
X126520000Y-84550000D03*
X125500000Y-84550000D03*
%TD*%
D24*
%TO.C,C17*%
X118630000Y-92650000D03*
X117670000Y-92650000D03*
%TD*%
D15*
%TO.C,C13*%
X117490000Y-89000000D03*
X118450000Y-89000000D03*
%TD*%
D28*
%TO.C,Y1*%
X119950000Y-120900000D03*
X122150000Y-120900000D03*
X122150000Y-119200000D03*
X119950000Y-119200000D03*
%TD*%
D25*
%TO.C,J2*%
X113950000Y-77580000D03*
D26*
X113950000Y-80120000D03*
X113950000Y-82660000D03*
X113950000Y-85200000D03*
X113950000Y-87740000D03*
X113950000Y-90280000D03*
X113950000Y-92820000D03*
X113950000Y-95360000D03*
X113950000Y-97900000D03*
X113950000Y-100440000D03*
X113950000Y-102980000D03*
X113950000Y-105520000D03*
X113950000Y-108060000D03*
X113950000Y-110600000D03*
X113950000Y-113140000D03*
X113950000Y-115680000D03*
X113950000Y-118220000D03*
X113950000Y-120760000D03*
X113950000Y-123300000D03*
X113950000Y-125840000D03*
%TD*%
D24*
%TO.C,C2*%
X128000000Y-107250000D03*
X127040000Y-107250000D03*
%TD*%
D15*
%TO.C,C14*%
X121140000Y-89000000D03*
X122100000Y-89000000D03*
%TD*%
%TO.C,C7*%
X117510000Y-124350000D03*
X118470000Y-124350000D03*
%TD*%
D29*
%TO.C,U1*%
X120475000Y-109300000D03*
X120475000Y-109700000D03*
X120475000Y-110100000D03*
X120475000Y-110500000D03*
X120475000Y-110900000D03*
X120475000Y-111300000D03*
X120475000Y-111700000D03*
X120475000Y-112100000D03*
X120475000Y-112500000D03*
X120475000Y-112900000D03*
X120475000Y-113300000D03*
X120475000Y-113700000D03*
X120475000Y-114100000D03*
X120475000Y-114500000D03*
D30*
X121312500Y-115337500D03*
X121712500Y-115337500D03*
X122112500Y-115337500D03*
X122512500Y-115337500D03*
X122912500Y-115337500D03*
X123312500Y-115337500D03*
X123712500Y-115337500D03*
X124112500Y-115337500D03*
X124512500Y-115337500D03*
X124912500Y-115337500D03*
X125312500Y-115337500D03*
X125712500Y-115337500D03*
X126112500Y-115337500D03*
X126512500Y-115337500D03*
D29*
X127350000Y-114500000D03*
X127350000Y-114100000D03*
X127350000Y-113700000D03*
X127350000Y-113300000D03*
X127350000Y-112900000D03*
X127350000Y-112500000D03*
X127350000Y-112100000D03*
X127350000Y-111700000D03*
X127350000Y-111300000D03*
X127350000Y-110900000D03*
X127350000Y-110500000D03*
X127350000Y-110100000D03*
X127350000Y-109700000D03*
X127350000Y-109300000D03*
D30*
X126512500Y-108462500D03*
X126112500Y-108462500D03*
X125712500Y-108462500D03*
X125312500Y-108462500D03*
X124912500Y-108462500D03*
X124512500Y-108462500D03*
X124112500Y-108462500D03*
X123712500Y-108462500D03*
X123312500Y-108462500D03*
X122912500Y-108462500D03*
X122512500Y-108462500D03*
X122112500Y-108462500D03*
X121712500Y-108462500D03*
X121312500Y-108462500D03*
D31*
X123912500Y-111900000D03*
%TD*%
M02*
