%TF.GenerationSoftware,KiCad,Pcbnew,10.0.1*%
%TF.CreationDate,2026-06-01T06:34:55+02:00*%
%TF.ProjectId,devboard,64657662-6f61-4726-942e-6b696361645f,rev?*%
%TF.SameCoordinates,Original*%
%TF.FileFunction,Copper,L2,Bot*%
%TF.FilePolarity,Positive*%
%FSLAX46Y46*%
G04 Gerber Fmt 4.6, Leading zero omitted, Abs format (unit mm)*
G04 Created by KiCad (PCBNEW 10.0.1) date 2026-06-01 06:34:55*
%MOMM*%
%LPD*%
G01*
G04 APERTURE LIST*
%TA.AperFunction,ComponentPad*%
%ADD10R,1.050000X1.500000*%
%TD*%
%TA.AperFunction,ComponentPad*%
%ADD11O,1.050000X1.500000*%
%TD*%
%TA.AperFunction,ComponentPad*%
%ADD12O,1.000000X2.100000*%
%TD*%
%TA.AperFunction,ComponentPad*%
%ADD13O,1.000000X1.600000*%
%TD*%
%TA.AperFunction,ComponentPad*%
%ADD14R,1.700000X1.700000*%
%TD*%
%TA.AperFunction,ComponentPad*%
%ADD15C,1.700000*%
%TD*%
%TA.AperFunction,ViaPad*%
%ADD16C,0.600000*%
%TD*%
%TA.AperFunction,Conductor*%
%ADD17C,0.200000*%
%TD*%
G04 APERTURE END LIST*
D10*
%TO.P,U4,1,GND_1*%
%TO.N,GND*%
X119630000Y-86360000D03*
D11*
%TO.P,U4,2,VI_2*%
%TO.N,VBUS*%
X120900000Y-86360000D03*
%TO.P,U4,3,VO_3*%
%TO.N,+3V3*%
X122170000Y-86360000D03*
%TD*%
D12*
%TO.P,J1,SH,SHIELD_SH*%
%TO.N,GND*%
X127820000Y-81370000D03*
D13*
X127820000Y-77190000D03*
D12*
X119180000Y-81370000D03*
D13*
X119180000Y-77190000D03*
%TD*%
D14*
%TO.P,J4,1,Pin_1_1*%
%TO.N,unconnected-(J4-Pin_1-Pad1)*%
X121510000Y-127500000D03*
D15*
%TO.P,J4,2,Pin_2_2*%
%TO.N,GND*%
X124050000Y-127500000D03*
%TO.P,J4,3,Pin_3_3*%
%TO.N,SWCLK*%
X126590000Y-127500000D03*
%TD*%
D14*
%TO.P,J3,1,Pin_1_1*%
%TO.N,VBUS*%
X132850000Y-77670000D03*
D15*
%TO.P,J3,2,Pin_2_2*%
%TO.N,GPIO_29{slash}ADC_3*%
X132850000Y-80210000D03*
%TO.P,J3,3,Pin_3_3*%
%TO.N,GND*%
X132850000Y-82750000D03*
%TO.P,J3,4,Pin_4_4*%
%TO.N,GPIO_28{slash}ADC_2*%
X132850000Y-85290000D03*
%TO.P,J3,5,Pin_5_5*%
%TO.N,+3V3*%
X132850000Y-87830000D03*
%TO.P,J3,6,Pin_6_6*%
%TO.N,GPIO_27{slash}ADC_1*%
X132850000Y-90370000D03*
%TO.P,J3,7,Pin_7_7*%
%TO.N,GPIO_26{slash}ADC_0*%
X132850000Y-92910000D03*
%TO.P,J3,8,Pin_8_8*%
%TO.N,GND*%
X132850000Y-95450000D03*
%TO.P,J3,9,Pin_9_9*%
%TO.N,GPIO_24*%
X132850000Y-97990000D03*
%TO.P,J3,10,Pin_10_10*%
%TO.N,GPIO_23*%
X132850000Y-100530000D03*
%TO.P,J3,11,Pin_11_11*%
%TO.N,RUN*%
X132850000Y-103070000D03*
%TO.P,J3,12,Pin_12_12*%
%TO.N,GPIO_22*%
X132850000Y-105610000D03*
%TO.P,J3,13,Pin_13_13*%
%TO.N,GND*%
X132850000Y-108150000D03*
%TO.P,J3,14,Pin_14_14*%
%TO.N,GPIO_18*%
X132850000Y-110690000D03*
%TO.P,J3,15,Pin_15_15*%
%TO.N,GPIO_19*%
X132850000Y-113230000D03*
%TO.P,J3,16,Pin_16_16*%
%TO.N,GPIO_20*%
X132850000Y-115770000D03*
%TO.P,J3,17,Pin_17_17*%
%TO.N,GPIO_21*%
X132850000Y-118310000D03*
%TO.P,J3,18,Pin_18_18*%
%TO.N,GND*%
X132850000Y-120850000D03*
%TO.P,J3,19,Pin_19_19*%
%TO.N,GPIO_17*%
X132850000Y-123390000D03*
%TO.P,J3,20,Pin_20_20*%
%TO.N,GPIO_16*%
X132850000Y-125930000D03*
%TD*%
D14*
%TO.P,J2,1,Pin_1_1*%
%TO.N,GPIO_0*%
X113950000Y-77580000D03*
D15*
%TO.P,J2,2,Pin_2_2*%
%TO.N,GPIO_1*%
X113950000Y-80120000D03*
%TO.P,J2,3,Pin_3_3*%
%TO.N,GPIO_13*%
X113950000Y-82660000D03*
%TO.P,J2,4,Pin_4_4*%
%TO.N,GPIO_2*%
X113950000Y-85200000D03*
%TO.P,J2,5,Pin_5_5*%
%TO.N,GPIO_3*%
X113950000Y-87740000D03*
%TO.P,J2,6,Pin_6_6*%
%TO.N,GPIO_4*%
X113950000Y-90280000D03*
%TO.P,J2,7,Pin_7_7*%
%TO.N,GPIO_5*%
X113950000Y-92820000D03*
%TO.P,J2,8,Pin_8_8*%
%TO.N,GPIO_13*%
X113950000Y-95360000D03*
%TO.P,J2,9,Pin_9_9*%
%TO.N,GPIO_6*%
X113950000Y-97900000D03*
%TO.P,J2,10,Pin_10_10*%
%TO.N,unconnected-(J2-Pin_10-Pad10)*%
X113950000Y-100440000D03*
%TO.P,J2,11,Pin_11_11*%
%TO.N,GPIO_8*%
X113950000Y-102980000D03*
%TO.P,J2,12,Pin_12_12*%
%TO.N,GPIO_13*%
X113950000Y-105520000D03*
%TO.P,J2,13,Pin_13_13*%
X113950000Y-108060000D03*
%TO.P,J2,14,Pin_14_14*%
%TO.N,GPIO_10*%
X113950000Y-110600000D03*
%TO.P,J2,15,Pin_15_15*%
%TO.N,GPIO_11*%
X113950000Y-113140000D03*
%TO.P,J2,16,Pin_16_16*%
%TO.N,GPIO_12*%
X113950000Y-115680000D03*
%TO.P,J2,17,Pin_17_17*%
%TO.N,GPIO_13*%
X113950000Y-118220000D03*
%TO.P,J2,18,Pin_18_18*%
X113950000Y-120760000D03*
%TO.P,J2,19,Pin_19_19*%
X113950000Y-123300000D03*
%TO.P,J2,20,Pin_20_20*%
X113950000Y-125840000D03*
%TD*%
D16*
%TO.N,GND*%
X129940000Y-119450000D03*
X128250000Y-118900000D03*
%TO.N,XIN*%
X123326860Y-114369470D03*
X121350000Y-117994097D03*
%TO.N,+3V3*%
X131880000Y-88800000D03*
%TO.N,GND*%
X129500000Y-87100000D03*
X131044265Y-87944265D03*
X127600000Y-85000000D03*
X129550000Y-85700000D03*
%TO.N,+3V3*%
X130550000Y-84950000D03*
X117745735Y-87395735D03*
X118500000Y-88950000D03*
%TO.N,GND*%
X116300000Y-84600000D03*
X116400000Y-81800000D03*
%TO.N,VBUS*%
X117450000Y-83430000D03*
X121050000Y-82285000D03*
%TO.N,GND*%
X119450000Y-82710000D03*
X128296305Y-108046305D03*
X126600476Y-107526093D03*
X127212286Y-80470837D03*
X123906985Y-110105515D03*
X122500000Y-80000000D03*
%TO.N,Net-(C16-Pad2)*%
X116390000Y-117374314D03*
X118550000Y-116280000D03*
X119150000Y-119400000D03*
X115850735Y-118699265D03*
%TO.N,Net-(R7-Pad1)*%
X118949803Y-92550197D03*
X121111422Y-121838578D03*
X113050000Y-117213769D03*
X115817158Y-110650000D03*
%TO.N,QSPI_SCLK*%
X122107545Y-98192849D03*
X122711536Y-109442307D03*
%TO.N,+3V3*%
X128300000Y-94828823D03*
X126412500Y-112900000D03*
X124467612Y-113999999D03*
X127550000Y-88800000D03*
X125112500Y-109400000D03*
X126100000Y-89500000D03*
X121301349Y-112917723D03*
X117950000Y-117394097D03*
X123978468Y-107568114D03*
X124467612Y-113999999D03*
X126312500Y-109494485D03*
X121812498Y-110350000D03*
%TO.N,USB_D+*%
X123195000Y-86960000D03*
X123200000Y-83950000D03*
%TO.N,USB_D-*%
X124251092Y-92948908D03*
X124102203Y-85760000D03*
%TO.N,XOUT*%
X123512500Y-116254770D03*
X120450000Y-116500000D03*
%TO.N,Net-(U1-USB_DM)*%
X124825197Y-95475197D03*
X125350000Y-97800000D03*
%TO.N,QSPI_SD1*%
X121913156Y-109391392D03*
X121350000Y-98450000D03*
%TO.N,QSPI_SD2*%
X121912500Y-102911027D03*
X120500000Y-92465000D03*
%TO.N,Net-(U1-USB_DP)*%
X124712500Y-107250000D03*
X123775197Y-96525197D03*
%TO.N,GPIO_10*%
X118650000Y-114400000D03*
%TO.N,GPIO_11*%
X117938527Y-115080000D03*
%TO.N,GPIO_12*%
X121050000Y-115400000D03*
%TO.N,SWCLK*%
X125112500Y-116285735D03*
%TO.N,RUN*%
X131550000Y-103200000D03*
X125738079Y-114437500D03*
%TO.N,GPIO_18*%
X130900000Y-112369059D03*
X128121020Y-114758905D03*
%TO.N,GPIO_19*%
X130550000Y-114100000D03*
%TO.N,GPIO_20*%
X128479468Y-113569059D03*
%TD*%
%TO.N,GND*%
D17*
X129940000Y-119450000D02*
X128800000Y-119450000D01*
X128800000Y-119450000D02*
X128250000Y-118900000D01*
%TO.N,XIN*%
X123326860Y-114369470D02*
X124512500Y-115555110D01*
X124512500Y-115555110D02*
X124512500Y-116668985D01*
X124512500Y-116668985D02*
X123187388Y-117994097D01*
X123187388Y-117994097D02*
X121350000Y-117994097D01*
%TO.N,GND*%
X131044265Y-87944265D02*
X130344265Y-87944265D01*
X130344265Y-87944265D02*
X129500000Y-87100000D01*
X128300000Y-85700000D02*
X127600000Y-85000000D01*
X129550000Y-85700000D02*
X128300000Y-85700000D01*
%TO.N,+3V3*%
X132850000Y-87830000D02*
X130550000Y-85530000D01*
X130550000Y-85530000D02*
X130550000Y-84950000D01*
X117745735Y-87395735D02*
X117745735Y-88195735D01*
X117745735Y-88195735D02*
X118500000Y-88950000D01*
%TO.N,GND*%
X116400000Y-84500000D02*
X116300000Y-84600000D01*
X116400000Y-81800000D02*
X116400000Y-84500000D01*
%TO.N,VBUS*%
X117450000Y-81418629D02*
X118848629Y-80020000D01*
X121285000Y-82050000D02*
X121050000Y-82285000D01*
X120744594Y-80020000D02*
X121285000Y-80560406D01*
X117450000Y-83430000D02*
X117450000Y-81418629D01*
X118848629Y-80020000D02*
X120744594Y-80020000D01*
X121285000Y-80560406D02*
X121285000Y-82050000D01*
%TO.N,GND*%
X122500000Y-80000000D02*
X123050000Y-79450000D01*
X123906985Y-109293015D02*
X125673907Y-107526093D01*
X128296305Y-108046305D02*
X128400000Y-108150000D01*
X119630000Y-82890000D02*
X119630000Y-86360000D01*
X131470000Y-81370000D02*
X132850000Y-82750000D01*
X119180000Y-77830000D02*
X119180000Y-77190000D01*
X127820000Y-81370000D02*
X131470000Y-81370000D01*
X127820000Y-77821449D02*
X126191449Y-79450000D01*
X128400000Y-108150000D02*
X132850000Y-108150000D01*
X123050000Y-79450000D02*
X126191449Y-79450000D01*
X122500000Y-80000000D02*
X121850000Y-79350000D01*
X127820000Y-77190000D02*
X127820000Y-77821449D01*
X120700000Y-79350000D02*
X119180000Y-77830000D01*
X121850000Y-79350000D02*
X120700000Y-79350000D01*
X123906985Y-110105515D02*
X123906985Y-109293015D01*
X127212286Y-80470837D02*
X126191449Y-79450000D01*
X119450000Y-82710000D02*
X119630000Y-82890000D01*
X125673907Y-107526093D02*
X126600476Y-107526093D01*
%TO.N,Net-(C16-Pad2)*%
X117051470Y-119900000D02*
X115850735Y-118699265D01*
X116390000Y-117374314D02*
X117484314Y-116280000D01*
X119150000Y-119900000D02*
X117051470Y-119900000D01*
X119150000Y-119400000D02*
X119150000Y-119900000D01*
X117484314Y-116280000D02*
X118550000Y-116280000D01*
%TO.N,Net-(R7-Pad1)*%
X118949803Y-107517355D02*
X115817158Y-110650000D01*
X118949803Y-92550197D02*
X118949803Y-107517355D01*
X121111422Y-120512893D02*
X121111422Y-121838578D01*
X116800000Y-118800000D02*
X119398529Y-118800000D01*
X119398529Y-118800000D02*
X121111422Y-120512893D01*
X113050000Y-117213769D02*
X113193769Y-117070000D01*
X113193769Y-117070000D02*
X115070000Y-117070000D01*
X115070000Y-117070000D02*
X116800000Y-118800000D01*
%TO.N,QSPI_SCLK*%
X122850000Y-102200000D02*
X123800000Y-103150000D01*
X122850000Y-109303843D02*
X122711536Y-109442307D01*
X123800000Y-103150000D02*
X123800000Y-105800000D01*
X123800000Y-105800000D02*
X123850000Y-105850000D01*
X122107545Y-98192849D02*
X122850000Y-98935304D01*
X122711536Y-106988464D02*
X122711536Y-109442307D01*
X122850000Y-98935304D02*
X122850000Y-102200000D01*
X123850000Y-105850000D02*
X122711536Y-106988464D01*
%TO.N,+3V3*%
X123385336Y-112917723D02*
X124467612Y-113999999D01*
X123311536Y-108235046D02*
X123311536Y-109690836D01*
X125112500Y-109400000D02*
X126218015Y-109400000D01*
X123311536Y-109690836D02*
X122652372Y-110350000D01*
X121301349Y-112917723D02*
X123385336Y-112917723D01*
X126218015Y-109400000D02*
X126312500Y-109494485D01*
X128300000Y-91700000D02*
X126100000Y-89500000D01*
X132850000Y-87830000D02*
X131880000Y-88800000D01*
X123221702Y-117394097D02*
X117950000Y-117394097D01*
X123978468Y-107568114D02*
X123311536Y-108235046D01*
X125567610Y-112900000D02*
X126412500Y-112900000D01*
X131880000Y-88800000D02*
X127550000Y-88800000D01*
X124112500Y-116503299D02*
X123221702Y-117394097D01*
X128300000Y-94828823D02*
X128300000Y-91700000D01*
X122652372Y-110350000D02*
X121812498Y-110350000D01*
X124112500Y-115728874D02*
X124112500Y-116503299D01*
X124467612Y-113999999D02*
X125567610Y-112900000D01*
%TO.N,USB_D+*%
X123195000Y-86960000D02*
X123195000Y-83955000D01*
X123195000Y-83955000D02*
X123200000Y-83950000D01*
%TO.N,USB_D-*%
X124102203Y-92800019D02*
X124251092Y-92948908D01*
X124102203Y-85760000D02*
X124102203Y-92800019D01*
%TO.N,XOUT*%
X120450000Y-116500000D02*
X123267270Y-116500000D01*
X123267270Y-116500000D02*
X123512500Y-116254770D01*
%TO.N,Net-(U1-USB_DM)*%
X124825197Y-95475197D02*
X125350000Y-96000000D01*
X125350000Y-96000000D02*
X125350000Y-97800000D01*
%TO.N,QSPI_SD1*%
X121700000Y-101850000D02*
X121700000Y-98800000D01*
X121700000Y-107434314D02*
X123400000Y-105734314D01*
X121913156Y-109391392D02*
X121700000Y-109178236D01*
X123400000Y-103550000D02*
X121700000Y-101850000D01*
X121700000Y-109178236D02*
X121700000Y-107434314D01*
X121700000Y-98800000D02*
X121350000Y-98450000D01*
X123400000Y-105734314D02*
X123400000Y-103550000D01*
%TO.N,QSPI_SD2*%
X121912500Y-102911027D02*
X120500000Y-101498527D01*
X120500000Y-101498527D02*
X120500000Y-92465000D01*
%TO.N,Net-(U1-USB_DP)*%
X124712500Y-97462500D02*
X124712500Y-107250000D01*
X123775197Y-96525197D02*
X124712500Y-97462500D01*
%TO.N,GPIO_13*%
X113950000Y-105520000D02*
X113950000Y-108060000D01*
X115100000Y-96510000D02*
X115100000Y-104370000D01*
X115100000Y-94210000D02*
X113950000Y-95360000D01*
X115100000Y-104370000D02*
X113950000Y-105520000D01*
X113950000Y-82660000D02*
X115100000Y-83810000D01*
X113950000Y-95360000D02*
X115100000Y-96510000D01*
X115100000Y-83810000D02*
X115100000Y-94210000D01*
%TO.N,GPIO_10*%
X114850000Y-110600000D02*
X113950000Y-110600000D01*
X118650000Y-114400000D02*
X114850000Y-110600000D01*
%TO.N,GPIO_11*%
X117340953Y-114482426D02*
X115292426Y-114482426D01*
X115292426Y-114482426D02*
X113950000Y-113140000D01*
X117938527Y-115080000D02*
X117340953Y-114482426D01*
%TO.N,GPIO_12*%
X120770000Y-115680000D02*
X121050000Y-115400000D01*
X113950000Y-115680000D02*
X120770000Y-115680000D01*
%TO.N,SWCLK*%
X125112500Y-126122500D02*
X125112500Y-116285735D01*
X126540000Y-127550000D02*
X125112500Y-126122500D01*
%TO.N,RUN*%
X127200000Y-107550000D02*
X127200000Y-112975579D01*
X127200000Y-112975579D02*
X125738079Y-114437500D01*
X131550000Y-103200000D02*
X127200000Y-107550000D01*
%TO.N,GPIO_18*%
X128230939Y-112969059D02*
X130869059Y-112969059D01*
X130900000Y-113000000D02*
X130900000Y-112369059D01*
X127879468Y-113320530D02*
X128230939Y-112969059D01*
X128121020Y-114263544D02*
X128121020Y-114758905D01*
X127879468Y-114021992D02*
X128121020Y-114263544D01*
X130869059Y-112969059D02*
X130900000Y-113000000D01*
X127879468Y-113320530D02*
X127879468Y-114021992D01*
%TO.N,GPIO_19*%
X130550000Y-114100000D02*
X131980000Y-114100000D01*
X131980000Y-114100000D02*
X132850000Y-113230000D01*
%TO.N,GPIO_20*%
X130680409Y-115770000D02*
X132850000Y-115770000D01*
X128479468Y-113569059D02*
X130680409Y-115770000D01*
%TD*%
%TA.AperFunction,Conductor*%
%TO.N,GND*%
G36*
X125022085Y-128118532D02*
G01*
X124532962Y-127629409D01*
X124515925Y-127692993D01*
X124532962Y-127629408D01*
X125022085Y-128118532D01*
G37*
%TD.AperFunction*%
%TA.AperFunction,Conductor*%
G36*
X124179410Y-127982962D02*
G01*
X124179408Y-127982962D01*
X124242993Y-127965925D01*
X124179410Y-127982962D01*
G37*
%TD.AperFunction*%
%TA.AperFunction,Conductor*%
G36*
X132979410Y-121332962D02*
G01*
X132979408Y-121332962D01*
X133042993Y-121315925D01*
X132979410Y-121332962D01*
G37*
%TD.AperFunction*%
%TA.AperFunction,Conductor*%
G36*
X132979410Y-108632962D02*
G01*
X132979408Y-108632962D01*
X133042993Y-108615925D01*
X132979410Y-108632962D01*
G37*
%TD.AperFunction*%
%TA.AperFunction,Conductor*%
G36*
X132979410Y-95932962D02*
G01*
X132979408Y-95932962D01*
X133042993Y-95915925D01*
X132979410Y-95932962D01*
G37*
%TD.AperFunction*%
%TA.AperFunction,Conductor*%
G36*
X132979410Y-83232962D02*
G01*
X132979408Y-83232962D01*
X133042993Y-83215925D01*
X132979410Y-83232962D01*
G37*
%TD.AperFunction*%
%TA.AperFunction,Conductor*%
G36*
X120102575Y-81139685D02*
G01*
X120117141Y-81154961D01*
X120092949Y-81136858D01*
X120102575Y-81139685D01*
G37*
%TD.AperFunction*%
%TA.AperFunction,Conductor*%
G36*
X120045351Y-81122882D02*
G01*
X120031362Y-81121884D01*
X120031362Y-81120000D01*
X120035536Y-81120000D01*
X120045351Y-81122882D01*
G37*
%TD.AperFunction*%
%TA.AperFunction,Conductor*%
G36*
X126954835Y-81122335D02*
G01*
X126964464Y-81120000D01*
X126966953Y-81120000D01*
X126954835Y-81122335D01*
G37*
%TD.AperFunction*%
%TD*%
%TA.AperFunction,Conductor*%
%TO.N,GND*%
G36*
X117275475Y-117157743D02*
G01*
X117331409Y-117199614D01*
X117355826Y-117265078D01*
X117351918Y-117306013D01*
X117349500Y-117315035D01*
X117349500Y-117315040D01*
X117349500Y-117473154D01*
X117372905Y-117560500D01*
X117390423Y-117625880D01*
X117390426Y-117625887D01*
X117469475Y-117762806D01*
X117469479Y-117762811D01*
X117469480Y-117762813D01*
X117581284Y-117874617D01*
X117581286Y-117874618D01*
X117581290Y-117874621D01*
X117712876Y-117950591D01*
X117718216Y-117953674D01*
X117870943Y-117994597D01*
X117870945Y-117994597D01*
X118029055Y-117994597D01*
X118029057Y-117994597D01*
X118181784Y-117953674D01*
X118318716Y-117874617D01*
X118362417Y-117830916D01*
X118423740Y-117797431D01*
X118450098Y-117794597D01*
X120625500Y-117794597D01*
X120692539Y-117814282D01*
X120738294Y-117867086D01*
X120749500Y-117918597D01*
X120749500Y-118073154D01*
X120788700Y-118219448D01*
X120790423Y-118225880D01*
X120790426Y-118225887D01*
X120869475Y-118362806D01*
X120869479Y-118362811D01*
X120869480Y-118362813D01*
X120981284Y-118474617D01*
X120981286Y-118474618D01*
X120981290Y-118474621D01*
X121093626Y-118539477D01*
X121118216Y-118553674D01*
X121270943Y-118594597D01*
X121270945Y-118594597D01*
X121429055Y-118594597D01*
X121429057Y-118594597D01*
X121581784Y-118553674D01*
X121718716Y-118474617D01*
X121762417Y-118430916D01*
X121823740Y-118397431D01*
X121850098Y-118394597D01*
X123240113Y-118394597D01*
X123240115Y-118394597D01*
X123341976Y-118367304D01*
X123433301Y-118314577D01*
X124500319Y-117247559D01*
X124561642Y-117214074D01*
X124631334Y-117219058D01*
X124687267Y-117260930D01*
X124711684Y-117326394D01*
X124712000Y-117335240D01*
X124712000Y-126069773D01*
X124712000Y-126175227D01*
X124739293Y-126277088D01*
X124739294Y-126277091D01*
X124761839Y-126316140D01*
X124778312Y-126384040D01*
X124755459Y-126450067D01*
X124700538Y-126493258D01*
X124630985Y-126499899D01*
X124598157Y-126488625D01*
X124491447Y-126434252D01*
X124491444Y-126434251D01*
X124319293Y-126378317D01*
X124140506Y-126350000D01*
X123959494Y-126350000D01*
X123780706Y-126378317D01*
X123608555Y-126434251D01*
X123608547Y-126434254D01*
X123447269Y-126516432D01*
X123431466Y-126527912D01*
X123431466Y-126527913D01*
X123920590Y-127017037D01*
X123857007Y-127034075D01*
X123742993Y-127099901D01*
X123649901Y-127192993D01*
X123584075Y-127307007D01*
X123567037Y-127370590D01*
X123077912Y-126881466D01*
X123066432Y-126897269D01*
X122984254Y-127058547D01*
X122984251Y-127058555D01*
X122928317Y-127230706D01*
X122906972Y-127365471D01*
X122877043Y-127428606D01*
X122817731Y-127465537D01*
X122747868Y-127464539D01*
X122689636Y-127425929D01*
X122661522Y-127361965D01*
X122660499Y-127346073D01*
X122660499Y-126605143D01*
X122660499Y-126605136D01*
X122658685Y-126589494D01*
X122657586Y-126580012D01*
X122657585Y-126580010D01*
X122657585Y-126580009D01*
X122612206Y-126477235D01*
X122532765Y-126397794D01*
X122488654Y-126378317D01*
X122429992Y-126352415D01*
X122404865Y-126349500D01*
X120615143Y-126349500D01*
X120615117Y-126349502D01*
X120590012Y-126352413D01*
X120590008Y-126352415D01*
X120487235Y-126397793D01*
X120407794Y-126477234D01*
X120362415Y-126580006D01*
X120362415Y-126580008D01*
X120359500Y-126605131D01*
X120359500Y-128394856D01*
X120359502Y-128394882D01*
X120362413Y-128419987D01*
X120362415Y-128419991D01*
X120407793Y-128522764D01*
X120472848Y-128587819D01*
X120506333Y-128649142D01*
X120501349Y-128718834D01*
X120459477Y-128774767D01*
X120394013Y-128799184D01*
X120385167Y-128799500D01*
X112874500Y-128799500D01*
X112807461Y-128779815D01*
X112761706Y-128727011D01*
X112750500Y-128675500D01*
X112750500Y-126528011D01*
X112770185Y-126460972D01*
X112822989Y-126415217D01*
X112892147Y-126405273D01*
X112955703Y-126434298D01*
X112974815Y-126455122D01*
X113031395Y-126532997D01*
X113072447Y-126589501D01*
X113200500Y-126717554D01*
X113200505Y-126717558D01*
X113324374Y-126807553D01*
X113347006Y-126823996D01*
X113427659Y-126865091D01*
X113508360Y-126906211D01*
X113508363Y-126906212D01*
X113594476Y-126934191D01*
X113680591Y-126962171D01*
X113763429Y-126975291D01*
X113859449Y-126990500D01*
X113859454Y-126990500D01*
X114040551Y-126990500D01*
X114127259Y-126976765D01*
X114219409Y-126962171D01*
X114391639Y-126906211D01*
X114552994Y-126823996D01*
X114699501Y-126717553D01*
X114827553Y-126589501D01*
X114933996Y-126442994D01*
X115016211Y-126281639D01*
X115072171Y-126109409D01*
X115090620Y-125992926D01*
X115100500Y-125930551D01*
X115100500Y-125749448D01*
X115073238Y-125577330D01*
X115072171Y-125570591D01*
X115016211Y-125398361D01*
X115016211Y-125398360D01*
X114987740Y-125342484D01*
X114933996Y-125237006D01*
X114892942Y-125180500D01*
X114827558Y-125090505D01*
X114827554Y-125090500D01*
X114699499Y-124962445D01*
X114699494Y-124962441D01*
X114552997Y-124856006D01*
X114552996Y-124856005D01*
X114552994Y-124856004D01*
X114501300Y-124829664D01*
X114391639Y-124773788D01*
X114391636Y-124773787D01*
X114219410Y-124717829D01*
X114059321Y-124692473D01*
X113996186Y-124662544D01*
X113959255Y-124603232D01*
X113960253Y-124533370D01*
X113998863Y-124475137D01*
X114059321Y-124447527D01*
X114129425Y-124436422D01*
X114219409Y-124422171D01*
X114391639Y-124366211D01*
X114552994Y-124283996D01*
X114699501Y-124177553D01*
X114827553Y-124049501D01*
X114933996Y-123902994D01*
X115016211Y-123741639D01*
X115072171Y-123569409D01*
X115086765Y-123477259D01*
X115100500Y-123390551D01*
X115100500Y-123209448D01*
X115073238Y-123037330D01*
X115072171Y-123030591D01*
X115016211Y-122858361D01*
X115016211Y-122858360D01*
X114987740Y-122802484D01*
X114933996Y-122697006D01*
X114892942Y-122640500D01*
X114827558Y-122550505D01*
X114827554Y-122550500D01*
X114699499Y-122422445D01*
X114699494Y-122422441D01*
X114552997Y-122316006D01*
X114552996Y-122316005D01*
X114552994Y-122316004D01*
X114501300Y-122289664D01*
X114391639Y-122233788D01*
X114391636Y-122233787D01*
X114219410Y-122177829D01*
X114059321Y-122152473D01*
X113996186Y-122122544D01*
X113959255Y-122063232D01*
X113960253Y-121993370D01*
X113998863Y-121935137D01*
X114059321Y-121907527D01*
X114129425Y-121896422D01*
X114219409Y-121882171D01*
X114391639Y-121826211D01*
X114552994Y-121743996D01*
X114699501Y-121637553D01*
X114827553Y-121509501D01*
X114933996Y-121362994D01*
X115016211Y-121201639D01*
X115072171Y-121029409D01*
X115090161Y-120915826D01*
X115100500Y-120850551D01*
X115100500Y-120669448D01*
X115084019Y-120565397D01*
X115072171Y-120490591D01*
X115045514Y-120408547D01*
X115016212Y-120318362D01*
X115016211Y-120318360D01*
X114979991Y-120247275D01*
X114933996Y-120157006D01*
X114872227Y-120071988D01*
X114827558Y-120010505D01*
X114827554Y-120010500D01*
X114699499Y-119882445D01*
X114699494Y-119882441D01*
X114552997Y-119776006D01*
X114552996Y-119776005D01*
X114552994Y-119776004D01*
X114459404Y-119728317D01*
X114391639Y-119693788D01*
X114391636Y-119693787D01*
X114219410Y-119637829D01*
X114059321Y-119612473D01*
X113996186Y-119582544D01*
X113959255Y-119523232D01*
X113960253Y-119453370D01*
X113998863Y-119395137D01*
X114059321Y-119367527D01*
X114129425Y-119356422D01*
X114219409Y-119342171D01*
X114391639Y-119286211D01*
X114552994Y-119203996D01*
X114699501Y-119097553D01*
X114827553Y-118969501D01*
X114933996Y-118822994D01*
X115015750Y-118662544D01*
X115063725Y-118611748D01*
X115131546Y-118594953D01*
X115197681Y-118617491D01*
X115241132Y-118672206D01*
X115250235Y-118718839D01*
X115250235Y-118778321D01*
X115291158Y-118931048D01*
X115291161Y-118931055D01*
X115370210Y-119067974D01*
X115370214Y-119067979D01*
X115370215Y-119067981D01*
X115482019Y-119179785D01*
X115482021Y-119179786D01*
X115482025Y-119179789D01*
X115551994Y-119220185D01*
X115618951Y-119258842D01*
X115771678Y-119299765D01*
X115833480Y-119299765D01*
X115900519Y-119319450D01*
X115921161Y-119336084D01*
X116322823Y-119737745D01*
X116730988Y-120145910D01*
X116730990Y-120145913D01*
X116805557Y-120220480D01*
X116856187Y-120249711D01*
X116865092Y-120254852D01*
X116865093Y-120254853D01*
X116896877Y-120273204D01*
X116896880Y-120273206D01*
X116896882Y-120273206D01*
X116896883Y-120273207D01*
X116998743Y-120300501D01*
X116998745Y-120300501D01*
X117111793Y-120300501D01*
X117111809Y-120300500D01*
X119202725Y-120300500D01*
X119202727Y-120300500D01*
X119304587Y-120273207D01*
X119395913Y-120220480D01*
X119470480Y-120145913D01*
X119523207Y-120054587D01*
X119550500Y-119952727D01*
X119550500Y-119900098D01*
X119559143Y-119870660D01*
X119565667Y-119840672D01*
X119569422Y-119835655D01*
X119570185Y-119833059D01*
X119586818Y-119812418D01*
X119628006Y-119771229D01*
X119689326Y-119737745D01*
X119759018Y-119742729D01*
X119803364Y-119771228D01*
X120216759Y-120184622D01*
X120674603Y-120642466D01*
X120708088Y-120703789D01*
X120710922Y-120730147D01*
X120710922Y-121338480D01*
X120691237Y-121405519D01*
X120674603Y-121426161D01*
X120630903Y-121469860D01*
X120630897Y-121469868D01*
X120551848Y-121606787D01*
X120551845Y-121606794D01*
X120510922Y-121759521D01*
X120510922Y-121917635D01*
X120550846Y-122066631D01*
X120551845Y-122070361D01*
X120551848Y-122070368D01*
X120630897Y-122207287D01*
X120630901Y-122207292D01*
X120630902Y-122207294D01*
X120742706Y-122319098D01*
X120742708Y-122319099D01*
X120742712Y-122319102D01*
X120879631Y-122398151D01*
X120879638Y-122398155D01*
X121032365Y-122439078D01*
X121032367Y-122439078D01*
X121190477Y-122439078D01*
X121190479Y-122439078D01*
X121343206Y-122398155D01*
X121480138Y-122319098D01*
X121591942Y-122207294D01*
X121670999Y-122070362D01*
X121711922Y-121917635D01*
X121711922Y-121759521D01*
X121670999Y-121606794D01*
X121670995Y-121606787D01*
X121591946Y-121469868D01*
X121591940Y-121469860D01*
X121548241Y-121426161D01*
X121514756Y-121364838D01*
X121511922Y-121338480D01*
X121511922Y-120575622D01*
X121511923Y-120575609D01*
X121511923Y-120460169D01*
X121511923Y-120460167D01*
X121484629Y-120358306D01*
X121451255Y-120300501D01*
X121431902Y-120266980D01*
X121357335Y-120192413D01*
X121357332Y-120192411D01*
X119644442Y-118479520D01*
X119594492Y-118450681D01*
X119553118Y-118426793D01*
X119502186Y-118413146D01*
X119451256Y-118399500D01*
X119451255Y-118399500D01*
X117017255Y-118399500D01*
X116950216Y-118379815D01*
X116929574Y-118363181D01*
X116659024Y-118092631D01*
X116625539Y-118031308D01*
X116630523Y-117961616D01*
X116672395Y-117905683D01*
X116684698Y-117897567D01*
X116758716Y-117854834D01*
X116870520Y-117743030D01*
X116949577Y-117606098D01*
X116990500Y-117453371D01*
X116990500Y-117391568D01*
X116999145Y-117362124D01*
X117005668Y-117332142D01*
X117009422Y-117327126D01*
X117010185Y-117324529D01*
X117026813Y-117303892D01*
X117144464Y-117186241D01*
X117205783Y-117152759D01*
X117275475Y-117157743D01*
G37*
%TD.AperFunction*%
%TA.AperFunction,Conductor*%
G36*
X122865702Y-127560214D02*
G01*
X122903476Y-127618992D01*
X122906972Y-127634529D01*
X122928317Y-127769293D01*
X122984251Y-127941444D01*
X122984252Y-127941447D01*
X123066431Y-128102730D01*
X123077913Y-128118532D01*
X123077913Y-128118533D01*
X123567037Y-127629409D01*
X123584075Y-127692993D01*
X123649901Y-127807007D01*
X123742993Y-127900099D01*
X123857007Y-127965925D01*
X123920590Y-127982962D01*
X123431466Y-128472085D01*
X123431466Y-128472086D01*
X123447267Y-128483566D01*
X123447275Y-128483571D01*
X123607116Y-128565015D01*
X123657912Y-128612990D01*
X123674707Y-128680811D01*
X123652169Y-128746946D01*
X123597454Y-128790397D01*
X123550821Y-128799500D01*
X122634833Y-128799500D01*
X122567794Y-128779815D01*
X122522039Y-128727011D01*
X122512095Y-128657853D01*
X122541120Y-128594297D01*
X122547152Y-128587819D01*
X122569956Y-128565015D01*
X122612206Y-128522765D01*
X122657585Y-128419991D01*
X122660500Y-128394865D01*
X122660499Y-127653925D01*
X122680183Y-127586888D01*
X122732987Y-127541133D01*
X122802146Y-127531189D01*
X122865702Y-127560214D01*
G37*
%TD.AperFunction*%
%TA.AperFunction,Conductor*%
G36*
X125356376Y-127508652D02*
G01*
X125414609Y-127547261D01*
X125442219Y-127607720D01*
X125467828Y-127769410D01*
X125523787Y-127941636D01*
X125523788Y-127941639D01*
X125579664Y-128051300D01*
X125605869Y-128102730D01*
X125606006Y-128102997D01*
X125712441Y-128249494D01*
X125712445Y-128249499D01*
X125840500Y-128377554D01*
X125840505Y-128377558D01*
X125968287Y-128470396D01*
X125987006Y-128483996D01*
X126101552Y-128542360D01*
X126146013Y-128565015D01*
X126196809Y-128612990D01*
X126213604Y-128680811D01*
X126191066Y-128746946D01*
X126136351Y-128790397D01*
X126089718Y-128799500D01*
X124549179Y-128799500D01*
X124482140Y-128779815D01*
X124436385Y-128727011D01*
X124426441Y-128657853D01*
X124455466Y-128594297D01*
X124492883Y-128565016D01*
X124652730Y-128483568D01*
X124668532Y-128472085D01*
X124668533Y-128472085D01*
X124179410Y-127982962D01*
X124242993Y-127965925D01*
X124357007Y-127900099D01*
X124450099Y-127807007D01*
X124515925Y-127692993D01*
X124532962Y-127629409D01*
X125022085Y-128118532D01*
X125033568Y-128102730D01*
X125115745Y-127941452D01*
X125115748Y-127941444D01*
X125171683Y-127769292D01*
X125197273Y-127607721D01*
X125227202Y-127544586D01*
X125286513Y-127507654D01*
X125356376Y-127508652D01*
G37*
%TD.AperFunction*%
%TA.AperFunction,Conductor*%
G36*
X127398302Y-113446182D02*
G01*
X127454235Y-113488054D01*
X127478652Y-113553518D01*
X127478968Y-113562364D01*
X127478968Y-113969265D01*
X127478968Y-114074719D01*
X127486323Y-114102168D01*
X127506261Y-114176581D01*
X127523369Y-114206212D01*
X127558988Y-114267905D01*
X127558990Y-114267907D01*
X127588143Y-114297060D01*
X127621628Y-114358383D01*
X127616644Y-114428075D01*
X127607850Y-114446740D01*
X127561443Y-114527120D01*
X127561443Y-114527121D01*
X127520520Y-114679848D01*
X127520520Y-114837962D01*
X127555892Y-114969970D01*
X127561443Y-114990688D01*
X127561446Y-114990695D01*
X127640495Y-115127614D01*
X127640499Y-115127619D01*
X127640500Y-115127621D01*
X127752304Y-115239425D01*
X127752306Y-115239426D01*
X127752310Y-115239429D01*
X127873154Y-115309197D01*
X127889236Y-115318482D01*
X128041963Y-115359405D01*
X128041965Y-115359405D01*
X128200075Y-115359405D01*
X128200077Y-115359405D01*
X128352804Y-115318482D01*
X128489736Y-115239425D01*
X128601540Y-115127621D01*
X128680597Y-114990689D01*
X128721520Y-114837962D01*
X128721520Y-114679848D01*
X128721520Y-114676865D01*
X128741205Y-114609826D01*
X128794009Y-114564071D01*
X128863167Y-114554127D01*
X128926723Y-114583152D01*
X128933189Y-114589173D01*
X130359927Y-116015910D01*
X130359929Y-116015913D01*
X130434496Y-116090480D01*
X130488465Y-116121639D01*
X130525822Y-116143207D01*
X130627682Y-116170501D01*
X130627684Y-116170501D01*
X130740732Y-116170501D01*
X130740748Y-116170500D01*
X131686840Y-116170500D01*
X131753879Y-116190185D01*
X131797325Y-116238205D01*
X131861824Y-116364791D01*
X131866006Y-116372997D01*
X131972441Y-116519494D01*
X131972445Y-116519499D01*
X132100500Y-116647554D01*
X132100505Y-116647558D01*
X132168272Y-116696793D01*
X132247006Y-116753996D01*
X132324727Y-116793597D01*
X132408360Y-116836211D01*
X132408363Y-116836212D01*
X132456801Y-116851950D01*
X132580591Y-116892171D01*
X132653639Y-116903740D01*
X132740678Y-116917527D01*
X132803813Y-116947456D01*
X132840744Y-117006768D01*
X132839746Y-117076631D01*
X132801136Y-117134863D01*
X132740678Y-117162473D01*
X132580589Y-117187829D01*
X132408363Y-117243787D01*
X132408360Y-117243788D01*
X132247002Y-117326006D01*
X132100505Y-117432441D01*
X132100500Y-117432445D01*
X131972445Y-117560500D01*
X131972441Y-117560505D01*
X131866006Y-117707002D01*
X131783788Y-117868360D01*
X131783787Y-117868363D01*
X131727829Y-118040589D01*
X131699500Y-118219448D01*
X131699500Y-118400551D01*
X131727829Y-118579410D01*
X131783787Y-118751636D01*
X131783788Y-118751639D01*
X131866006Y-118912997D01*
X131972441Y-119059494D01*
X131972445Y-119059499D01*
X132100500Y-119187554D01*
X132100505Y-119187558D01*
X132145413Y-119220185D01*
X132247006Y-119293996D01*
X132329608Y-119336084D01*
X132408360Y-119376211D01*
X132408363Y-119376212D01*
X132466610Y-119395137D01*
X132580591Y-119432171D01*
X132700038Y-119451089D01*
X132742279Y-119457780D01*
X132805414Y-119487709D01*
X132842345Y-119547021D01*
X132841347Y-119616883D01*
X132802737Y-119675116D01*
X132742279Y-119702726D01*
X132580706Y-119728317D01*
X132408555Y-119784251D01*
X132408547Y-119784254D01*
X132247269Y-119866432D01*
X132231466Y-119877912D01*
X132231466Y-119877913D01*
X132720591Y-120367037D01*
X132657007Y-120384075D01*
X132542993Y-120449901D01*
X132449901Y-120542993D01*
X132384075Y-120657007D01*
X132367037Y-120720590D01*
X131877912Y-120231466D01*
X131866432Y-120247269D01*
X131784254Y-120408547D01*
X131784251Y-120408555D01*
X131728317Y-120580706D01*
X131700000Y-120759493D01*
X131700000Y-120940506D01*
X131728317Y-121119293D01*
X131784251Y-121291444D01*
X131784252Y-121291447D01*
X131866431Y-121452730D01*
X131877913Y-121468532D01*
X131877913Y-121468533D01*
X132367037Y-120979409D01*
X132384075Y-121042993D01*
X132449901Y-121157007D01*
X132542993Y-121250099D01*
X132657007Y-121315925D01*
X132720590Y-121332962D01*
X132231466Y-121822085D01*
X132231466Y-121822086D01*
X132247267Y-121833566D01*
X132247275Y-121833571D01*
X132408552Y-121915747D01*
X132408555Y-121915748D01*
X132580706Y-121971682D01*
X132742279Y-121997273D01*
X132805413Y-122027202D01*
X132842345Y-122086513D01*
X132841347Y-122156376D01*
X132802738Y-122214609D01*
X132742280Y-122242219D01*
X132580589Y-122267829D01*
X132408363Y-122323787D01*
X132408360Y-122323788D01*
X132247002Y-122406006D01*
X132100505Y-122512441D01*
X132100500Y-122512445D01*
X131972445Y-122640500D01*
X131972441Y-122640505D01*
X131866006Y-122787002D01*
X131783788Y-122948360D01*
X131783787Y-122948363D01*
X131727829Y-123120589D01*
X131699500Y-123299448D01*
X131699500Y-123480551D01*
X131727829Y-123659410D01*
X131783787Y-123831636D01*
X131783788Y-123831639D01*
X131866006Y-123992997D01*
X131972441Y-124139494D01*
X131972445Y-124139499D01*
X132100500Y-124267554D01*
X132100505Y-124267558D01*
X132228287Y-124360396D01*
X132247006Y-124373996D01*
X132341552Y-124422170D01*
X132408360Y-124456211D01*
X132408363Y-124456212D01*
X132466610Y-124475137D01*
X132580591Y-124512171D01*
X132653639Y-124523740D01*
X132740678Y-124537527D01*
X132803813Y-124567456D01*
X132840744Y-124626768D01*
X132839746Y-124696631D01*
X132801136Y-124754863D01*
X132740678Y-124782473D01*
X132580589Y-124807829D01*
X132408363Y-124863787D01*
X132408360Y-124863788D01*
X132247002Y-124946006D01*
X132100505Y-125052441D01*
X132100500Y-125052445D01*
X131972445Y-125180500D01*
X131972441Y-125180505D01*
X131866006Y-125327002D01*
X131783788Y-125488360D01*
X131783787Y-125488363D01*
X131727829Y-125660589D01*
X131699500Y-125839448D01*
X131699500Y-126020551D01*
X131727829Y-126199410D01*
X131783787Y-126371636D01*
X131783788Y-126371639D01*
X131829307Y-126460972D01*
X131863415Y-126527913D01*
X131866006Y-126532997D01*
X131972441Y-126679494D01*
X131972445Y-126679499D01*
X132100500Y-126807554D01*
X132100505Y-126807558D01*
X132223616Y-126897002D01*
X132247006Y-126913996D01*
X132336550Y-126959621D01*
X132408360Y-126996211D01*
X132408363Y-126996212D01*
X132447931Y-127009068D01*
X132580591Y-127052171D01*
X132663429Y-127065291D01*
X132759449Y-127080500D01*
X132759454Y-127080500D01*
X132940551Y-127080500D01*
X133027259Y-127066765D01*
X133119409Y-127052171D01*
X133291639Y-126996211D01*
X133452994Y-126913996D01*
X133599501Y-126807553D01*
X133727553Y-126679501D01*
X133833996Y-126532994D01*
X133916211Y-126371639D01*
X133923404Y-126349500D01*
X133957569Y-126244351D01*
X133997006Y-126186676D01*
X134061364Y-126159477D01*
X134130211Y-126171391D01*
X134181687Y-126218635D01*
X134199500Y-126282669D01*
X134199500Y-128675500D01*
X134179815Y-128742539D01*
X134127011Y-128788294D01*
X134075500Y-128799500D01*
X127090282Y-128799500D01*
X127023243Y-128779815D01*
X126977488Y-128727011D01*
X126967544Y-128657853D01*
X126996569Y-128594297D01*
X127033987Y-128565015D01*
X127066167Y-128548617D01*
X127192994Y-128483996D01*
X127339501Y-128377553D01*
X127467553Y-128249501D01*
X127573996Y-128102994D01*
X127656211Y-127941639D01*
X127712171Y-127769409D01*
X127726765Y-127677259D01*
X127740500Y-127590551D01*
X127740500Y-127409448D01*
X127712189Y-127230706D01*
X127712171Y-127230591D01*
X127666467Y-127089926D01*
X127656212Y-127058363D01*
X127656211Y-127058360D01*
X127621634Y-126990500D01*
X127573996Y-126897006D01*
X127537425Y-126846670D01*
X127467558Y-126750505D01*
X127467554Y-126750500D01*
X127339499Y-126622445D01*
X127339494Y-126622441D01*
X127192997Y-126516006D01*
X127192996Y-126516005D01*
X127192994Y-126516004D01*
X127116906Y-126477235D01*
X127031639Y-126433788D01*
X127031636Y-126433787D01*
X126859410Y-126377829D01*
X126680551Y-126349500D01*
X126680546Y-126349500D01*
X126499454Y-126349500D01*
X126499449Y-126349500D01*
X126320589Y-126377829D01*
X126148361Y-126433788D01*
X126148360Y-126433788D01*
X126123842Y-126446281D01*
X126055173Y-126459176D01*
X125990433Y-126432898D01*
X125979869Y-126423476D01*
X125549319Y-125992926D01*
X125515834Y-125931603D01*
X125513000Y-125905245D01*
X125513000Y-116785833D01*
X125532685Y-116718794D01*
X125549319Y-116698152D01*
X125566971Y-116680500D01*
X125593020Y-116654451D01*
X125672077Y-116517519D01*
X125713000Y-116364792D01*
X125713000Y-116206678D01*
X125672077Y-116053951D01*
X125645087Y-116007203D01*
X125593024Y-115917025D01*
X125593018Y-115917017D01*
X125481217Y-115805216D01*
X125481209Y-115805210D01*
X125344290Y-115726161D01*
X125344286Y-115726159D01*
X125344284Y-115726158D01*
X125191557Y-115685235D01*
X125037000Y-115685235D01*
X124969961Y-115665550D01*
X124924206Y-115612746D01*
X124913000Y-115561235D01*
X124913000Y-115502386D01*
X124913000Y-115502383D01*
X124906750Y-115479057D01*
X124885707Y-115400522D01*
X124832980Y-115309197D01*
X124335963Y-114812180D01*
X124302478Y-114750857D01*
X124307462Y-114681165D01*
X124349334Y-114625232D01*
X124414798Y-114600815D01*
X124423644Y-114600499D01*
X124546667Y-114600499D01*
X124546669Y-114600499D01*
X124699396Y-114559576D01*
X124836328Y-114480519D01*
X124925898Y-114390949D01*
X124987221Y-114357464D01*
X125056913Y-114362448D01*
X125112846Y-114404320D01*
X125137263Y-114469784D01*
X125137579Y-114478630D01*
X125137579Y-114516557D01*
X125166699Y-114625232D01*
X125178502Y-114669283D01*
X125178505Y-114669290D01*
X125257554Y-114806209D01*
X125257558Y-114806214D01*
X125257559Y-114806216D01*
X125369363Y-114918020D01*
X125369365Y-114918021D01*
X125369369Y-114918024D01*
X125506288Y-114997073D01*
X125506295Y-114997077D01*
X125659022Y-115038000D01*
X125659024Y-115038000D01*
X125817134Y-115038000D01*
X125817136Y-115038000D01*
X125969863Y-114997077D01*
X126106795Y-114918020D01*
X126218599Y-114806216D01*
X126297656Y-114669284D01*
X126338579Y-114516557D01*
X126338579Y-114454753D01*
X126358264Y-114387714D01*
X126374893Y-114367076D01*
X127267287Y-113474682D01*
X127328610Y-113441198D01*
X127398302Y-113446182D01*
G37*
%TD.AperFunction*%
%TA.AperFunction,Conductor*%
G36*
X133822085Y-121468532D02*
G01*
X133833568Y-121452730D01*
X133915745Y-121291452D01*
X133915748Y-121291444D01*
X133957569Y-121162731D01*
X133997006Y-121105056D01*
X134061364Y-121077857D01*
X134130211Y-121089771D01*
X134181687Y-121137015D01*
X134199500Y-121201049D01*
X134199500Y-123037330D01*
X134179815Y-123104369D01*
X134127011Y-123150124D01*
X134057853Y-123160068D01*
X133994297Y-123131043D01*
X133957569Y-123075648D01*
X133916212Y-122948363D01*
X133916211Y-122948360D01*
X133870353Y-122858360D01*
X133833996Y-122787006D01*
X133768605Y-122697002D01*
X133727558Y-122640505D01*
X133727554Y-122640500D01*
X133599499Y-122512445D01*
X133599494Y-122512441D01*
X133452997Y-122406006D01*
X133452996Y-122406005D01*
X133452994Y-122406004D01*
X133401300Y-122379664D01*
X133291639Y-122323788D01*
X133291636Y-122323787D01*
X133119410Y-122267828D01*
X132957720Y-122242219D01*
X132894585Y-122212289D01*
X132857654Y-122152978D01*
X132858652Y-122083115D01*
X132897262Y-122024883D01*
X132957721Y-121997273D01*
X133119292Y-121971683D01*
X133291444Y-121915748D01*
X133291452Y-121915745D01*
X133452730Y-121833568D01*
X133468532Y-121822085D01*
X133468533Y-121822085D01*
X132979410Y-121332962D01*
X133042993Y-121315925D01*
X133157007Y-121250099D01*
X133250099Y-121157007D01*
X133315925Y-121042993D01*
X133332962Y-120979409D01*
X133822085Y-121468532D01*
G37*
%TD.AperFunction*%
%TA.AperFunction,Conductor*%
G36*
X134130211Y-118551391D02*
G01*
X134181687Y-118598635D01*
X134199500Y-118662669D01*
X134199500Y-120498950D01*
X134179815Y-120565989D01*
X134127011Y-120611744D01*
X134057853Y-120621688D01*
X133994297Y-120592663D01*
X133957569Y-120537268D01*
X133915748Y-120408555D01*
X133915747Y-120408552D01*
X133833571Y-120247275D01*
X133833566Y-120247267D01*
X133822085Y-120231466D01*
X133332962Y-120720589D01*
X133315925Y-120657007D01*
X133250099Y-120542993D01*
X133157007Y-120449901D01*
X133042993Y-120384075D01*
X132979409Y-120367037D01*
X133468533Y-119877913D01*
X133452730Y-119866431D01*
X133291447Y-119784252D01*
X133291444Y-119784251D01*
X133119293Y-119728317D01*
X132957720Y-119702726D01*
X132894585Y-119672797D01*
X132857654Y-119613485D01*
X132858652Y-119543623D01*
X132897262Y-119485390D01*
X132957720Y-119457780D01*
X132985563Y-119453370D01*
X133119409Y-119432171D01*
X133291639Y-119376211D01*
X133452994Y-119293996D01*
X133599501Y-119187553D01*
X133727553Y-119059501D01*
X133833996Y-118912994D01*
X133916211Y-118751639D01*
X133945159Y-118662544D01*
X133957569Y-118624351D01*
X133997006Y-118566676D01*
X134061364Y-118539477D01*
X134130211Y-118551391D01*
G37*
%TD.AperFunction*%
%TA.AperFunction,Conductor*%
G36*
X118555805Y-76170185D02*
G01*
X118601560Y-76222989D01*
X118611504Y-76292147D01*
X118582479Y-76355703D01*
X118576447Y-76362181D01*
X118558601Y-76380026D01*
X118558598Y-76380030D01*
X118471052Y-76511051D01*
X118471047Y-76511060D01*
X118410743Y-76656648D01*
X118410741Y-76656656D01*
X118380000Y-76811202D01*
X118380000Y-76940000D01*
X118880000Y-76940000D01*
X118880000Y-77440000D01*
X118380000Y-77440000D01*
X118380000Y-77568797D01*
X118410741Y-77723343D01*
X118410743Y-77723351D01*
X118471047Y-77868939D01*
X118471052Y-77868948D01*
X118558598Y-77999969D01*
X118558601Y-77999973D01*
X118670026Y-78111398D01*
X118670034Y-78111404D01*
X118801047Y-78198944D01*
X118801065Y-78198954D01*
X118929999Y-78252360D01*
X118930000Y-78252360D01*
X118930000Y-77656988D01*
X118939940Y-77674205D01*
X118995795Y-77730060D01*
X119064204Y-77769556D01*
X119140504Y-77790000D01*
X119219496Y-77790000D01*
X119295796Y-77769556D01*
X119364205Y-77730060D01*
X119420060Y-77674205D01*
X119430000Y-77656988D01*
X119430000Y-78252360D01*
X119558934Y-78198954D01*
X119558952Y-78198944D01*
X119689965Y-78111404D01*
X119689973Y-78111398D01*
X119801398Y-77999973D01*
X119801401Y-77999969D01*
X119888947Y-77868948D01*
X119888952Y-77868939D01*
X119949256Y-77723351D01*
X119949258Y-77723343D01*
X119979999Y-77568797D01*
X119980000Y-77568794D01*
X119980000Y-77440000D01*
X119480000Y-77440000D01*
X119480000Y-76940000D01*
X119980000Y-76940000D01*
X119980000Y-76811206D01*
X119979999Y-76811202D01*
X119949258Y-76656656D01*
X119949256Y-76656648D01*
X119888952Y-76511060D01*
X119888947Y-76511051D01*
X119801401Y-76380030D01*
X119801398Y-76380026D01*
X119783553Y-76362181D01*
X119750068Y-76300858D01*
X119755052Y-76231166D01*
X119796924Y-76175233D01*
X119862388Y-76150816D01*
X119871234Y-76150500D01*
X127128766Y-76150500D01*
X127195805Y-76170185D01*
X127241560Y-76222989D01*
X127251504Y-76292147D01*
X127222479Y-76355703D01*
X127216447Y-76362181D01*
X127198601Y-76380026D01*
X127198598Y-76380030D01*
X127111052Y-76511051D01*
X127111047Y-76511060D01*
X127050743Y-76656648D01*
X127050741Y-76656656D01*
X127020000Y-76811202D01*
X127020000Y-76940000D01*
X127520000Y-76940000D01*
X127520000Y-77440000D01*
X127020000Y-77440000D01*
X127020000Y-77568797D01*
X127050741Y-77723343D01*
X127050743Y-77723351D01*
X127111047Y-77868939D01*
X127111052Y-77868948D01*
X127198598Y-77999969D01*
X127198601Y-77999973D01*
X127310026Y-78111398D01*
X127310034Y-78111404D01*
X127441047Y-78198944D01*
X127441065Y-78198954D01*
X127569999Y-78252360D01*
X127570000Y-78252360D01*
X127570000Y-77656988D01*
X127579940Y-77674205D01*
X127635795Y-77730060D01*
X127704204Y-77769556D01*
X127780504Y-77790000D01*
X127859496Y-77790000D01*
X127935796Y-77769556D01*
X128004205Y-77730060D01*
X128060060Y-77674205D01*
X128070000Y-77656988D01*
X128070000Y-78252360D01*
X128198934Y-78198954D01*
X128198952Y-78198944D01*
X128329965Y-78111404D01*
X128329973Y-78111398D01*
X128441398Y-77999973D01*
X128441401Y-77999969D01*
X128528947Y-77868948D01*
X128528952Y-77868939D01*
X128589256Y-77723351D01*
X128589258Y-77723343D01*
X128619999Y-77568797D01*
X128620000Y-77568794D01*
X128620000Y-77440000D01*
X128120000Y-77440000D01*
X128120000Y-76940000D01*
X128620000Y-76940000D01*
X128620000Y-76811206D01*
X128619999Y-76811202D01*
X128589258Y-76656656D01*
X128589256Y-76656648D01*
X128528952Y-76511060D01*
X128528947Y-76511051D01*
X128441401Y-76380030D01*
X128441398Y-76380026D01*
X128423553Y-76362181D01*
X128390068Y-76300858D01*
X128395052Y-76231166D01*
X128436924Y-76175233D01*
X128502388Y-76150816D01*
X128511234Y-76150500D01*
X134075500Y-76150500D01*
X134142539Y-76170185D01*
X134188294Y-76222989D01*
X134199500Y-76274500D01*
X134199500Y-76619479D01*
X134179815Y-76686518D01*
X134127011Y-76732273D01*
X134057853Y-76742217D01*
X133994297Y-76713192D01*
X133962066Y-76669566D01*
X133952206Y-76647235D01*
X133872765Y-76567794D01*
X133848851Y-76557235D01*
X133769992Y-76522415D01*
X133744865Y-76519500D01*
X131955143Y-76519500D01*
X131955117Y-76519502D01*
X131930012Y-76522413D01*
X131930008Y-76522415D01*
X131827235Y-76567793D01*
X131747794Y-76647234D01*
X131702415Y-76750006D01*
X131702415Y-76750008D01*
X131699500Y-76775131D01*
X131699500Y-78564856D01*
X131699502Y-78564882D01*
X131702413Y-78589987D01*
X131702415Y-78589991D01*
X131747793Y-78692764D01*
X131747794Y-78692765D01*
X131827235Y-78772206D01*
X131930009Y-78817585D01*
X131955135Y-78820500D01*
X132692873Y-78820499D01*
X132759910Y-78840183D01*
X132805665Y-78892987D01*
X132815609Y-78962146D01*
X132786584Y-79025702D01*
X132727806Y-79063476D01*
X132712270Y-79066972D01*
X132580589Y-79087829D01*
X132408363Y-79143787D01*
X132408360Y-79143788D01*
X132247002Y-79226006D01*
X132100505Y-79332441D01*
X132100500Y-79332445D01*
X131972445Y-79460500D01*
X131972441Y-79460505D01*
X131866006Y-79607002D01*
X131783788Y-79768360D01*
X131783787Y-79768363D01*
X131727829Y-79940589D01*
X131699500Y-80119448D01*
X131699500Y-80300551D01*
X131727829Y-80479410D01*
X131783787Y-80651636D01*
X131783788Y-80651639D01*
X131839664Y-80761300D01*
X131849449Y-80780504D01*
X131866006Y-80812997D01*
X131972441Y-80959494D01*
X131972445Y-80959499D01*
X132100500Y-81087554D01*
X132100505Y-81087558D01*
X132160490Y-81131139D01*
X132247006Y-81193996D01*
X132341552Y-81242170D01*
X132408360Y-81276211D01*
X132408363Y-81276212D01*
X132466610Y-81295137D01*
X132580591Y-81332171D01*
X132700038Y-81351089D01*
X132742279Y-81357780D01*
X132805414Y-81387709D01*
X132842345Y-81447021D01*
X132841347Y-81516883D01*
X132802737Y-81575116D01*
X132742279Y-81602726D01*
X132580706Y-81628317D01*
X132408555Y-81684251D01*
X132408547Y-81684254D01*
X132247269Y-81766432D01*
X132231466Y-81777912D01*
X132231466Y-81777913D01*
X132720591Y-82267037D01*
X132657007Y-82284075D01*
X132542993Y-82349901D01*
X132449901Y-82442993D01*
X132384075Y-82557007D01*
X132367037Y-82620590D01*
X131877912Y-82131466D01*
X131866432Y-82147269D01*
X131784254Y-82308547D01*
X131784251Y-82308555D01*
X131728317Y-82480706D01*
X131700000Y-82659493D01*
X131700000Y-82840506D01*
X131728317Y-83019293D01*
X131784251Y-83191444D01*
X131784252Y-83191447D01*
X131866431Y-83352730D01*
X131877913Y-83368532D01*
X131877913Y-83368533D01*
X132367037Y-82879409D01*
X132384075Y-82942993D01*
X132449901Y-83057007D01*
X132542993Y-83150099D01*
X132657007Y-83215925D01*
X132720590Y-83232962D01*
X132231466Y-83722085D01*
X132231466Y-83722086D01*
X132247267Y-83733566D01*
X132247275Y-83733571D01*
X132408552Y-83815747D01*
X132408555Y-83815748D01*
X132580706Y-83871682D01*
X132742279Y-83897273D01*
X132805413Y-83927202D01*
X132842345Y-83986513D01*
X132841347Y-84056376D01*
X132802738Y-84114609D01*
X132742280Y-84142219D01*
X132580589Y-84167829D01*
X132408363Y-84223787D01*
X132408360Y-84223788D01*
X132247002Y-84306006D01*
X132100505Y-84412441D01*
X132100500Y-84412445D01*
X131972445Y-84540500D01*
X131972441Y-84540505D01*
X131866006Y-84687002D01*
X131783788Y-84848360D01*
X131783787Y-84848363D01*
X131727829Y-85020589D01*
X131699500Y-85199448D01*
X131699500Y-85380551D01*
X131727829Y-85559410D01*
X131783787Y-85731636D01*
X131783788Y-85731639D01*
X131866006Y-85892997D01*
X131961361Y-86024244D01*
X131961365Y-86024248D01*
X131972447Y-86039501D01*
X132100499Y-86167553D01*
X132115751Y-86178634D01*
X132115755Y-86178638D01*
X132227877Y-86260098D01*
X132247006Y-86273996D01*
X132318904Y-86310630D01*
X132408360Y-86356211D01*
X132408363Y-86356212D01*
X132466610Y-86375137D01*
X132580591Y-86412171D01*
X132653639Y-86423740D01*
X132740678Y-86437527D01*
X132803813Y-86467456D01*
X132840744Y-86526768D01*
X132839746Y-86596631D01*
X132801136Y-86654863D01*
X132740678Y-86682473D01*
X132580587Y-86707829D01*
X132436716Y-86754575D01*
X132366875Y-86756570D01*
X132310718Y-86724325D01*
X131051896Y-85465503D01*
X131018411Y-85404180D01*
X131023395Y-85334488D01*
X131032186Y-85315829D01*
X131109577Y-85181784D01*
X131150500Y-85029057D01*
X131150500Y-84870943D01*
X131109577Y-84718216D01*
X131039597Y-84597006D01*
X131030524Y-84581290D01*
X131030518Y-84581282D01*
X130918717Y-84469481D01*
X130918709Y-84469475D01*
X130781790Y-84390426D01*
X130781786Y-84390424D01*
X130781784Y-84390423D01*
X130629057Y-84349500D01*
X130470943Y-84349500D01*
X130318216Y-84390423D01*
X130318209Y-84390426D01*
X130181290Y-84469475D01*
X130181282Y-84469481D01*
X130069481Y-84581282D01*
X130069475Y-84581290D01*
X129990426Y-84718209D01*
X129990423Y-84718216D01*
X129949500Y-84870943D01*
X129949500Y-85029057D01*
X129971043Y-85109454D01*
X129990423Y-85181783D01*
X129990426Y-85181790D01*
X130069475Y-85318709D01*
X130069481Y-85318717D01*
X130113181Y-85362417D01*
X130146666Y-85423740D01*
X130149500Y-85450098D01*
X130149500Y-85477273D01*
X130149500Y-85582727D01*
X130163146Y-85633657D01*
X130176793Y-85684589D01*
X130203156Y-85730250D01*
X130229520Y-85775913D01*
X130229522Y-85775915D01*
X131744325Y-87290718D01*
X131777810Y-87352041D01*
X131774575Y-87416716D01*
X131727829Y-87560587D01*
X131699500Y-87739448D01*
X131699500Y-87920551D01*
X131728591Y-88104221D01*
X131726517Y-88104549D01*
X131722702Y-88165895D01*
X131681351Y-88222214D01*
X131653583Y-88238199D01*
X131648215Y-88240422D01*
X131511290Y-88319475D01*
X131511282Y-88319481D01*
X131467583Y-88363181D01*
X131406260Y-88396666D01*
X131379902Y-88399500D01*
X128050098Y-88399500D01*
X127983059Y-88379815D01*
X127962417Y-88363181D01*
X127918717Y-88319481D01*
X127918709Y-88319475D01*
X127781790Y-88240426D01*
X127781786Y-88240424D01*
X127781784Y-88240423D01*
X127629057Y-88199500D01*
X127470943Y-88199500D01*
X127318216Y-88240423D01*
X127318209Y-88240426D01*
X127181290Y-88319475D01*
X127181282Y-88319481D01*
X127069481Y-88431282D01*
X127069475Y-88431290D01*
X126990426Y-88568209D01*
X126990423Y-88568216D01*
X126949500Y-88720943D01*
X126949500Y-88879057D01*
X126989693Y-89029057D01*
X126990423Y-89031783D01*
X126990426Y-89031790D01*
X127069475Y-89168709D01*
X127069479Y-89168714D01*
X127069480Y-89168716D01*
X127181284Y-89280520D01*
X127181286Y-89280521D01*
X127181290Y-89280524D01*
X127318209Y-89359573D01*
X127318216Y-89359577D01*
X127470943Y-89400500D01*
X127470945Y-89400500D01*
X127629055Y-89400500D01*
X127629057Y-89400500D01*
X127781784Y-89359577D01*
X127918716Y-89280520D01*
X127962417Y-89236819D01*
X128023740Y-89203334D01*
X128050098Y-89200500D01*
X131379902Y-89200500D01*
X131446941Y-89220185D01*
X131467583Y-89236819D01*
X131511284Y-89280520D01*
X131511286Y-89280521D01*
X131511290Y-89280524D01*
X131648209Y-89359573D01*
X131648216Y-89359577D01*
X131800943Y-89400500D01*
X131800945Y-89400500D01*
X131893084Y-89400500D01*
X131960123Y-89420185D01*
X132005878Y-89472989D01*
X132015822Y-89542147D01*
X131986797Y-89605703D01*
X131980765Y-89612181D01*
X131972445Y-89620500D01*
X131972441Y-89620505D01*
X131866006Y-89767002D01*
X131783788Y-89928360D01*
X131783787Y-89928363D01*
X131727829Y-90100589D01*
X131699500Y-90279448D01*
X131699500Y-90460551D01*
X131727829Y-90639410D01*
X131783787Y-90811636D01*
X131783788Y-90811639D01*
X131866006Y-90972997D01*
X131972441Y-91119494D01*
X131972445Y-91119499D01*
X132100500Y-91247554D01*
X132100505Y-91247558D01*
X132146828Y-91281213D01*
X132247006Y-91353996D01*
X132320998Y-91391697D01*
X132408360Y-91436211D01*
X132408363Y-91436212D01*
X132466610Y-91455137D01*
X132580591Y-91492171D01*
X132653639Y-91503740D01*
X132740678Y-91517527D01*
X132803813Y-91547456D01*
X132840744Y-91606768D01*
X132839746Y-91676631D01*
X132801136Y-91734863D01*
X132740678Y-91762473D01*
X132580589Y-91787829D01*
X132408363Y-91843787D01*
X132408360Y-91843788D01*
X132247002Y-91926006D01*
X132100505Y-92032441D01*
X132100500Y-92032445D01*
X131972445Y-92160500D01*
X131972441Y-92160505D01*
X131866006Y-92307002D01*
X131783788Y-92468360D01*
X131783787Y-92468363D01*
X131727829Y-92640589D01*
X131699500Y-92819448D01*
X131699500Y-93000551D01*
X131727829Y-93179410D01*
X131783787Y-93351636D01*
X131783788Y-93351639D01*
X131839664Y-93461300D01*
X131863704Y-93508481D01*
X131866006Y-93512997D01*
X131972441Y-93659494D01*
X131972445Y-93659499D01*
X132100500Y-93787554D01*
X132100505Y-93787558D01*
X132146828Y-93821213D01*
X132247006Y-93893996D01*
X132320998Y-93931697D01*
X132408360Y-93976211D01*
X132408363Y-93976212D01*
X132459248Y-93992745D01*
X132580591Y-94032171D01*
X132700038Y-94051089D01*
X132742279Y-94057780D01*
X132805414Y-94087709D01*
X132842345Y-94147021D01*
X132841347Y-94216883D01*
X132802737Y-94275116D01*
X132742279Y-94302726D01*
X132580706Y-94328317D01*
X132408555Y-94384251D01*
X132408547Y-94384254D01*
X132247269Y-94466432D01*
X132231466Y-94477912D01*
X132231466Y-94477913D01*
X132720591Y-94967037D01*
X132657007Y-94984075D01*
X132542993Y-95049901D01*
X132449901Y-95142993D01*
X132384075Y-95257007D01*
X132367037Y-95320590D01*
X131877912Y-94831466D01*
X131866432Y-94847269D01*
X131784254Y-95008547D01*
X131784251Y-95008555D01*
X131728317Y-95180706D01*
X131700000Y-95359493D01*
X131700000Y-95540506D01*
X131728317Y-95719293D01*
X131784251Y-95891444D01*
X131784252Y-95891447D01*
X131866431Y-96052730D01*
X131877913Y-96068532D01*
X131877913Y-96068533D01*
X132367037Y-95579409D01*
X132384075Y-95642993D01*
X132449901Y-95757007D01*
X132542993Y-95850099D01*
X132657007Y-95915925D01*
X132720590Y-95932962D01*
X132231466Y-96422085D01*
X132231466Y-96422086D01*
X132247267Y-96433566D01*
X132247275Y-96433571D01*
X132408552Y-96515747D01*
X132408555Y-96515748D01*
X132580706Y-96571682D01*
X132742279Y-96597273D01*
X132805413Y-96627202D01*
X132842345Y-96686513D01*
X132841347Y-96756376D01*
X132802738Y-96814609D01*
X132742280Y-96842219D01*
X132580589Y-96867829D01*
X132408363Y-96923787D01*
X132408360Y-96923788D01*
X132247002Y-97006006D01*
X132100505Y-97112441D01*
X132100500Y-97112445D01*
X131972445Y-97240500D01*
X131972441Y-97240505D01*
X131866006Y-97387002D01*
X131783788Y-97548360D01*
X131783787Y-97548363D01*
X131727829Y-97720589D01*
X131699500Y-97899448D01*
X131699500Y-98080551D01*
X131727829Y-98259410D01*
X131783787Y-98431636D01*
X131783788Y-98431639D01*
X131866006Y-98592997D01*
X131972441Y-98739494D01*
X131972445Y-98739499D01*
X132100500Y-98867554D01*
X132100505Y-98867558D01*
X132187166Y-98930520D01*
X132247006Y-98973996D01*
X132341552Y-99022170D01*
X132408360Y-99056211D01*
X132408363Y-99056212D01*
X132494476Y-99084191D01*
X132580591Y-99112171D01*
X132653639Y-99123740D01*
X132740678Y-99137527D01*
X132803813Y-99167456D01*
X132840744Y-99226768D01*
X132839746Y-99296631D01*
X132801136Y-99354863D01*
X132740678Y-99382473D01*
X132580589Y-99407829D01*
X132408363Y-99463787D01*
X132408360Y-99463788D01*
X132247002Y-99546006D01*
X132100505Y-99652441D01*
X132100500Y-99652445D01*
X131972445Y-99780500D01*
X131972441Y-99780505D01*
X131866006Y-99927002D01*
X131783788Y-100088360D01*
X131783787Y-100088363D01*
X131727829Y-100260589D01*
X131699500Y-100439448D01*
X131699500Y-100620551D01*
X131727829Y-100799410D01*
X131783787Y-100971636D01*
X131783788Y-100971639D01*
X131866006Y-101132997D01*
X131972441Y-101279494D01*
X131972445Y-101279499D01*
X132100500Y-101407554D01*
X132100505Y-101407558D01*
X132165243Y-101454592D01*
X132247006Y-101513996D01*
X132320998Y-101551697D01*
X132408360Y-101596211D01*
X132408363Y-101596212D01*
X132466610Y-101615137D01*
X132580591Y-101652171D01*
X132653639Y-101663740D01*
X132740678Y-101677527D01*
X132803813Y-101707456D01*
X132840744Y-101766768D01*
X132839746Y-101836631D01*
X132801136Y-101894863D01*
X132740678Y-101922473D01*
X132580589Y-101947829D01*
X132408363Y-102003787D01*
X132408360Y-102003788D01*
X132247002Y-102086006D01*
X132100505Y-102192441D01*
X132100500Y-102192445D01*
X131972445Y-102320500D01*
X131972441Y-102320505D01*
X131866004Y-102467004D01*
X131823726Y-102549979D01*
X131775752Y-102600774D01*
X131707931Y-102617569D01*
X131681149Y-102613458D01*
X131629057Y-102599500D01*
X131470943Y-102599500D01*
X131318216Y-102640423D01*
X131318209Y-102640426D01*
X131181290Y-102719475D01*
X131181282Y-102719481D01*
X131069481Y-102831282D01*
X131069475Y-102831290D01*
X130990426Y-102968209D01*
X130990423Y-102968216D01*
X130949500Y-103120943D01*
X130949500Y-103182745D01*
X130929815Y-103249784D01*
X130913181Y-103270426D01*
X126879522Y-107304084D01*
X126879518Y-107304090D01*
X126826792Y-107395412D01*
X126826793Y-107395413D01*
X126799500Y-107497273D01*
X126799500Y-108867482D01*
X126779815Y-108934521D01*
X126727011Y-108980276D01*
X126657853Y-108990220D01*
X126613501Y-108974870D01*
X126544284Y-108934908D01*
X126542840Y-108934521D01*
X126391557Y-108893985D01*
X126233443Y-108893985D01*
X126080716Y-108934908D01*
X126080713Y-108934909D01*
X126035961Y-108960746D01*
X125997611Y-108982887D01*
X125935614Y-108999500D01*
X125612598Y-108999500D01*
X125545559Y-108979815D01*
X125524917Y-108963181D01*
X125481217Y-108919481D01*
X125481209Y-108919475D01*
X125344290Y-108840426D01*
X125344286Y-108840424D01*
X125344284Y-108840423D01*
X125191557Y-108799500D01*
X125033443Y-108799500D01*
X124880716Y-108840423D01*
X124880709Y-108840426D01*
X124743790Y-108919475D01*
X124743782Y-108919481D01*
X124631981Y-109031282D01*
X124631975Y-109031290D01*
X124552926Y-109168209D01*
X124552923Y-109168216D01*
X124512000Y-109320943D01*
X124512000Y-109479057D01*
X124550781Y-109623788D01*
X124552923Y-109631783D01*
X124552926Y-109631790D01*
X124631975Y-109768709D01*
X124631979Y-109768714D01*
X124631980Y-109768716D01*
X124743784Y-109880520D01*
X124743786Y-109880521D01*
X124743790Y-109880524D01*
X124847673Y-109940500D01*
X124880716Y-109959577D01*
X125033443Y-110000500D01*
X125033445Y-110000500D01*
X125191555Y-110000500D01*
X125191557Y-110000500D01*
X125344284Y-109959577D01*
X125481216Y-109880520D01*
X125524917Y-109836819D01*
X125551844Y-109822115D01*
X125577663Y-109805523D01*
X125583863Y-109804631D01*
X125586240Y-109803334D01*
X125612598Y-109800500D01*
X125724188Y-109800500D01*
X125791227Y-109820185D01*
X125826488Y-109857165D01*
X125827030Y-109856750D01*
X125830895Y-109861787D01*
X125831575Y-109862500D01*
X125831980Y-109863201D01*
X125943784Y-109975005D01*
X125943786Y-109975006D01*
X125943790Y-109975009D01*
X126072814Y-110049500D01*
X126080716Y-110054062D01*
X126233443Y-110094985D01*
X126233445Y-110094985D01*
X126391555Y-110094985D01*
X126391557Y-110094985D01*
X126544284Y-110054062D01*
X126613501Y-110014099D01*
X126681400Y-109997627D01*
X126747427Y-110020479D01*
X126790618Y-110075401D01*
X126799500Y-110121487D01*
X126799500Y-112220413D01*
X126779815Y-112287452D01*
X126727011Y-112333207D01*
X126657853Y-112343151D01*
X126643407Y-112340188D01*
X126557700Y-112317223D01*
X126491557Y-112299500D01*
X126333443Y-112299500D01*
X126180716Y-112340423D01*
X126180709Y-112340426D01*
X126043790Y-112419475D01*
X126043782Y-112419481D01*
X126000083Y-112463181D01*
X125938760Y-112496666D01*
X125912402Y-112499500D01*
X125514883Y-112499500D01*
X125413020Y-112526793D01*
X125321697Y-112579520D01*
X125321694Y-112579522D01*
X124555292Y-113345924D01*
X124493969Y-113379409D01*
X124424277Y-113374425D01*
X124379930Y-113345924D01*
X123631251Y-112597245D01*
X123631249Y-112597243D01*
X123579801Y-112567539D01*
X123539925Y-112544516D01*
X123473779Y-112526793D01*
X123438063Y-112517223D01*
X123438062Y-112517223D01*
X121801447Y-112517223D01*
X121734408Y-112497538D01*
X121713766Y-112480904D01*
X121670066Y-112437204D01*
X121670058Y-112437198D01*
X121533139Y-112358149D01*
X121533135Y-112358147D01*
X121533133Y-112358146D01*
X121380406Y-112317223D01*
X121222292Y-112317223D01*
X121069565Y-112358146D01*
X121069558Y-112358149D01*
X120932639Y-112437198D01*
X120932631Y-112437204D01*
X120820830Y-112549005D01*
X120820824Y-112549013D01*
X120741775Y-112685932D01*
X120741772Y-112685939D01*
X120700849Y-112838666D01*
X120700849Y-112996780D01*
X120739079Y-113139454D01*
X120741772Y-113149506D01*
X120741775Y-113149513D01*
X120820824Y-113286432D01*
X120820828Y-113286437D01*
X120820829Y-113286439D01*
X120932633Y-113398243D01*
X120932635Y-113398244D01*
X120932639Y-113398247D01*
X121019146Y-113448191D01*
X121069565Y-113477300D01*
X121222292Y-113518223D01*
X121222294Y-113518223D01*
X121380404Y-113518223D01*
X121380406Y-113518223D01*
X121533133Y-113477300D01*
X121670065Y-113398243D01*
X121713766Y-113354542D01*
X121775089Y-113321057D01*
X121801447Y-113318223D01*
X123168081Y-113318223D01*
X123235120Y-113337908D01*
X123255762Y-113354542D01*
X123458509Y-113557289D01*
X123491994Y-113618612D01*
X123487010Y-113688304D01*
X123445138Y-113744237D01*
X123379674Y-113768654D01*
X123370828Y-113768970D01*
X123247803Y-113768970D01*
X123095076Y-113809893D01*
X123095069Y-113809896D01*
X122958150Y-113888945D01*
X122958142Y-113888951D01*
X122846341Y-114000752D01*
X122846335Y-114000760D01*
X122767286Y-114137679D01*
X122767283Y-114137686D01*
X122726360Y-114290413D01*
X122726360Y-114448527D01*
X122767166Y-114600815D01*
X122767283Y-114601253D01*
X122767286Y-114601260D01*
X122846335Y-114738179D01*
X122846339Y-114738184D01*
X122846340Y-114738186D01*
X122958144Y-114849990D01*
X122958146Y-114849991D01*
X122958150Y-114849994D01*
X123078505Y-114919480D01*
X123095076Y-114929047D01*
X123247803Y-114969970D01*
X123309605Y-114969970D01*
X123376644Y-114989655D01*
X123397286Y-115006289D01*
X123754731Y-115363734D01*
X123767445Y-115387019D01*
X123783310Y-115408291D01*
X123783931Y-115417211D01*
X123788216Y-115425057D01*
X123786323Y-115451519D01*
X123788169Y-115477991D01*
X123783584Y-115489816D01*
X123783232Y-115494749D01*
X123775775Y-115511038D01*
X123775116Y-115512238D01*
X123739293Y-115574287D01*
X123737575Y-115580696D01*
X123730492Y-115593614D01*
X123710336Y-115613697D01*
X123692484Y-115635849D01*
X123685908Y-115638037D01*
X123680998Y-115642930D01*
X123653183Y-115648928D01*
X123626189Y-115657912D01*
X123616583Y-115656821D01*
X123612698Y-115657659D01*
X123607806Y-115655824D01*
X123599669Y-115654900D01*
X123599613Y-115655331D01*
X123591558Y-115654270D01*
X123591557Y-115654270D01*
X123433443Y-115654270D01*
X123280716Y-115695193D01*
X123280709Y-115695196D01*
X123143790Y-115774245D01*
X123143782Y-115774251D01*
X123031981Y-115886052D01*
X123031975Y-115886060D01*
X122948859Y-116030024D01*
X122947752Y-116029385D01*
X122909099Y-116077354D01*
X122842805Y-116099421D01*
X122838376Y-116099500D01*
X121498628Y-116099500D01*
X121431589Y-116079815D01*
X121385834Y-116027011D01*
X121375890Y-115957853D01*
X121404915Y-115894297D01*
X121413195Y-115886493D01*
X121412969Y-115886267D01*
X121438690Y-115860546D01*
X121530520Y-115768716D01*
X121609577Y-115631784D01*
X121650500Y-115479057D01*
X121650500Y-115320943D01*
X121609577Y-115168216D01*
X121604289Y-115159057D01*
X121530524Y-115031290D01*
X121530518Y-115031282D01*
X121418717Y-114919481D01*
X121418709Y-114919475D01*
X121281790Y-114840426D01*
X121281786Y-114840424D01*
X121281784Y-114840423D01*
X121129057Y-114799500D01*
X120970943Y-114799500D01*
X120818216Y-114840423D01*
X120818209Y-114840426D01*
X120681290Y-114919475D01*
X120681282Y-114919481D01*
X120569481Y-115031282D01*
X120569475Y-115031290D01*
X120490426Y-115168209D01*
X120490421Y-115168220D01*
X120485230Y-115187595D01*
X120448865Y-115247255D01*
X120386018Y-115277783D01*
X120365456Y-115279500D01*
X118663027Y-115279500D01*
X118654341Y-115276949D01*
X118645380Y-115278238D01*
X118621339Y-115267259D01*
X118595988Y-115259815D01*
X118590060Y-115252974D01*
X118581824Y-115249213D01*
X118567534Y-115226978D01*
X118550233Y-115207011D01*
X118547945Y-115196496D01*
X118544050Y-115190435D01*
X118539027Y-115155500D01*
X118539027Y-115124500D01*
X118558712Y-115057461D01*
X118611516Y-115011706D01*
X118663027Y-115000500D01*
X118729055Y-115000500D01*
X118729057Y-115000500D01*
X118881784Y-114959577D01*
X119018716Y-114880520D01*
X119130520Y-114768716D01*
X119209577Y-114631784D01*
X119250500Y-114479057D01*
X119250500Y-114320943D01*
X119209577Y-114168216D01*
X119191947Y-114137679D01*
X119130524Y-114031290D01*
X119130518Y-114031282D01*
X119018717Y-113919481D01*
X119018709Y-113919475D01*
X118881790Y-113840426D01*
X118881786Y-113840424D01*
X118881784Y-113840423D01*
X118729057Y-113799500D01*
X118729056Y-113799500D01*
X118667254Y-113799500D01*
X118600215Y-113779815D01*
X118579573Y-113763181D01*
X116148647Y-111332254D01*
X116115162Y-111270931D01*
X116120146Y-111201239D01*
X116162018Y-111145306D01*
X116174330Y-111137185D01*
X116177740Y-111135215D01*
X116185874Y-111130520D01*
X116297678Y-111018716D01*
X116376735Y-110881784D01*
X116417658Y-110729057D01*
X116417658Y-110667255D01*
X116437343Y-110600216D01*
X116453977Y-110579574D01*
X117851381Y-109182170D01*
X119270283Y-107763268D01*
X119323010Y-107671943D01*
X119350303Y-107570082D01*
X119350303Y-107464628D01*
X119350303Y-93050295D01*
X119369988Y-92983256D01*
X119386622Y-92962614D01*
X119430323Y-92918913D01*
X119509380Y-92781981D01*
X119550303Y-92629254D01*
X119550303Y-92471140D01*
X119527475Y-92385943D01*
X119899500Y-92385943D01*
X119899500Y-92544057D01*
X119933280Y-92670124D01*
X119940423Y-92696783D01*
X119940426Y-92696790D01*
X120019475Y-92833709D01*
X120019481Y-92833717D01*
X120063181Y-92877417D01*
X120096666Y-92938740D01*
X120099500Y-92965098D01*
X120099500Y-101445800D01*
X120099500Y-101551254D01*
X120102425Y-101562170D01*
X120126793Y-101653116D01*
X120130250Y-101659103D01*
X120179520Y-101744440D01*
X120179521Y-101744441D01*
X120179522Y-101744442D01*
X121275681Y-102840600D01*
X121309166Y-102901923D01*
X121312000Y-102928281D01*
X121312000Y-102990084D01*
X121347064Y-103120943D01*
X121352923Y-103142810D01*
X121352926Y-103142817D01*
X121431975Y-103279736D01*
X121431979Y-103279741D01*
X121431980Y-103279743D01*
X121543784Y-103391547D01*
X121543786Y-103391548D01*
X121543790Y-103391551D01*
X121595905Y-103421639D01*
X121680716Y-103470604D01*
X121833443Y-103511527D01*
X121833445Y-103511527D01*
X121991555Y-103511527D01*
X121991557Y-103511527D01*
X122144284Y-103470604D01*
X122281216Y-103391547D01*
X122390504Y-103282259D01*
X122451827Y-103248774D01*
X122521519Y-103253758D01*
X122565866Y-103282259D01*
X122963181Y-103679574D01*
X122996666Y-103740897D01*
X122999500Y-103767255D01*
X122999500Y-105517059D01*
X122979815Y-105584098D01*
X122963181Y-105604740D01*
X121379522Y-107188398D01*
X121379518Y-107188404D01*
X121326792Y-107279727D01*
X121326791Y-107279729D01*
X121318548Y-107310496D01*
X121318548Y-107310498D01*
X121299500Y-107381587D01*
X121299500Y-109230965D01*
X121309121Y-109266871D01*
X121311570Y-109304209D01*
X121312656Y-109304209D01*
X121312656Y-109312335D01*
X121312656Y-109470449D01*
X121351658Y-109616004D01*
X121353579Y-109623175D01*
X121353582Y-109623182D01*
X121429174Y-109754113D01*
X121445647Y-109822013D01*
X121422794Y-109888040D01*
X121409469Y-109903793D01*
X121331976Y-109981286D01*
X121331973Y-109981290D01*
X121252924Y-110118209D01*
X121252921Y-110118216D01*
X121211998Y-110270943D01*
X121211998Y-110429057D01*
X121233541Y-110509454D01*
X121252921Y-110581783D01*
X121252924Y-110581790D01*
X121331973Y-110718709D01*
X121331977Y-110718714D01*
X121331978Y-110718716D01*
X121443782Y-110830520D01*
X121443784Y-110830521D01*
X121443788Y-110830524D01*
X121532585Y-110881790D01*
X121580714Y-110909577D01*
X121733441Y-110950500D01*
X121733443Y-110950500D01*
X121891553Y-110950500D01*
X121891555Y-110950500D01*
X122044282Y-110909577D01*
X122181214Y-110830520D01*
X122224915Y-110786819D01*
X122286238Y-110753334D01*
X122312596Y-110750500D01*
X122705097Y-110750500D01*
X122705099Y-110750500D01*
X122806960Y-110723207D01*
X122898285Y-110670480D01*
X123547242Y-110021520D01*
X123547247Y-110021517D01*
X123557447Y-110011316D01*
X123557449Y-110011316D01*
X123632016Y-109936749D01*
X123684743Y-109845423D01*
X123689368Y-109828162D01*
X123693580Y-109812446D01*
X123701380Y-109783332D01*
X123712037Y-109743563D01*
X123712037Y-109638109D01*
X123712037Y-109630514D01*
X123712036Y-109630496D01*
X123712036Y-108452301D01*
X123720680Y-108422860D01*
X123727204Y-108392874D01*
X123730958Y-108387858D01*
X123731721Y-108385262D01*
X123748355Y-108364620D01*
X123908042Y-108204933D01*
X123969365Y-108171448D01*
X123995723Y-108168614D01*
X124057523Y-108168614D01*
X124057525Y-108168614D01*
X124210252Y-108127691D01*
X124347184Y-108048634D01*
X124458988Y-107936830D01*
X124477950Y-107903986D01*
X124528516Y-107855770D01*
X124597123Y-107842545D01*
X124617422Y-107846207D01*
X124633443Y-107850500D01*
X124633446Y-107850500D01*
X124791555Y-107850500D01*
X124791557Y-107850500D01*
X124944284Y-107809577D01*
X125081216Y-107730520D01*
X125193020Y-107618716D01*
X125272077Y-107481784D01*
X125313000Y-107329057D01*
X125313000Y-107170943D01*
X125272077Y-107018216D01*
X125247454Y-106975567D01*
X125193024Y-106881290D01*
X125193021Y-106881286D01*
X125193020Y-106881284D01*
X125149319Y-106837583D01*
X125115834Y-106776260D01*
X125113000Y-106749902D01*
X125113000Y-98519778D01*
X125132685Y-98452739D01*
X125185489Y-98406984D01*
X125254647Y-98397040D01*
X125269084Y-98400001D01*
X125270943Y-98400500D01*
X125270947Y-98400500D01*
X125429055Y-98400500D01*
X125429057Y-98400500D01*
X125581784Y-98359577D01*
X125718716Y-98280520D01*
X125830520Y-98168716D01*
X125909577Y-98031784D01*
X125950500Y-97879057D01*
X125950500Y-97720943D01*
X125909577Y-97568216D01*
X125846153Y-97458361D01*
X125830524Y-97431290D01*
X125830518Y-97431282D01*
X125786819Y-97387583D01*
X125753334Y-97326260D01*
X125750500Y-97299902D01*
X125750500Y-96062729D01*
X125750501Y-96062716D01*
X125750501Y-95947276D01*
X125750501Y-95947274D01*
X125723207Y-95845413D01*
X125697934Y-95801639D01*
X125670480Y-95754087D01*
X125595913Y-95679520D01*
X125595910Y-95679518D01*
X125462014Y-95545621D01*
X125428531Y-95484300D01*
X125425697Y-95457942D01*
X125425697Y-95396142D01*
X125425697Y-95396140D01*
X125384774Y-95243413D01*
X125366490Y-95211744D01*
X125305721Y-95106487D01*
X125305715Y-95106479D01*
X125193914Y-94994678D01*
X125193906Y-94994672D01*
X125056987Y-94915623D01*
X125056983Y-94915621D01*
X125056981Y-94915620D01*
X124904254Y-94874697D01*
X124746140Y-94874697D01*
X124593413Y-94915620D01*
X124593406Y-94915623D01*
X124456487Y-94994672D01*
X124456479Y-94994678D01*
X124344678Y-95106479D01*
X124344672Y-95106487D01*
X124265623Y-95243406D01*
X124265620Y-95243413D01*
X124224697Y-95396140D01*
X124224697Y-95554254D01*
X124258262Y-95679518D01*
X124265620Y-95706980D01*
X124265623Y-95706987D01*
X124344672Y-95843906D01*
X124344676Y-95843911D01*
X124344677Y-95843913D01*
X124456481Y-95955717D01*
X124456483Y-95955718D01*
X124456487Y-95955721D01*
X124563935Y-96017755D01*
X124593413Y-96034774D01*
X124746140Y-96075697D01*
X124807943Y-96075697D01*
X124837383Y-96084341D01*
X124867370Y-96090865D01*
X124872385Y-96094619D01*
X124874982Y-96095382D01*
X124895624Y-96112016D01*
X124913181Y-96129573D01*
X124946666Y-96190896D01*
X124949500Y-96217254D01*
X124949500Y-96833745D01*
X124929815Y-96900784D01*
X124877011Y-96946539D01*
X124807853Y-96956483D01*
X124744297Y-96927458D01*
X124737819Y-96921426D01*
X124412016Y-96595623D01*
X124378531Y-96534300D01*
X124375697Y-96507942D01*
X124375697Y-96446142D01*
X124375697Y-96446140D01*
X124334774Y-96293413D01*
X124317843Y-96264087D01*
X124255721Y-96156487D01*
X124255715Y-96156479D01*
X124143914Y-96044678D01*
X124143906Y-96044672D01*
X124006987Y-95965623D01*
X124006983Y-95965621D01*
X124006981Y-95965620D01*
X123854254Y-95924697D01*
X123696140Y-95924697D01*
X123543413Y-95965620D01*
X123543406Y-95965623D01*
X123406487Y-96044672D01*
X123406479Y-96044678D01*
X123294678Y-96156479D01*
X123294672Y-96156487D01*
X123215623Y-96293406D01*
X123215620Y-96293411D01*
X123215620Y-96293413D01*
X123174697Y-96446140D01*
X123174697Y-96604254D01*
X123214548Y-96752978D01*
X123215620Y-96756980D01*
X123215623Y-96756987D01*
X123294672Y-96893906D01*
X123294676Y-96893911D01*
X123294677Y-96893913D01*
X123406481Y-97005717D01*
X123406483Y-97005718D01*
X123406487Y-97005721D01*
X123435458Y-97022447D01*
X123543413Y-97084774D01*
X123696140Y-97125697D01*
X123757942Y-97125697D01*
X123824981Y-97145382D01*
X123845623Y-97162016D01*
X124275681Y-97592073D01*
X124309166Y-97653396D01*
X124312000Y-97679754D01*
X124312000Y-102796245D01*
X124292315Y-102863284D01*
X124239511Y-102909039D01*
X124170353Y-102918983D01*
X124106797Y-102889958D01*
X124100319Y-102883926D01*
X123286819Y-102070426D01*
X123253334Y-102009103D01*
X123250500Y-101982745D01*
X123250500Y-98882579D01*
X123250499Y-98882575D01*
X123246475Y-98867558D01*
X123226592Y-98793349D01*
X123226592Y-98793348D01*
X123226592Y-98793347D01*
X123223207Y-98780717D01*
X123223207Y-98780716D01*
X123199407Y-98739494D01*
X123170480Y-98689391D01*
X122744364Y-98263275D01*
X122710879Y-98201952D01*
X122708045Y-98175594D01*
X122708045Y-98113794D01*
X122708045Y-98113792D01*
X122667122Y-97961065D01*
X122667118Y-97961058D01*
X122588069Y-97824139D01*
X122588063Y-97824131D01*
X122476262Y-97712330D01*
X122476254Y-97712324D01*
X122339335Y-97633275D01*
X122339331Y-97633273D01*
X122339329Y-97633272D01*
X122186602Y-97592349D01*
X122028488Y-97592349D01*
X121875761Y-97633272D01*
X121875754Y-97633275D01*
X121738835Y-97712324D01*
X121738827Y-97712330D01*
X121621278Y-97829880D01*
X121620206Y-97828808D01*
X121571119Y-97864646D01*
X121501372Y-97868795D01*
X121497089Y-97867728D01*
X121429058Y-97849500D01*
X121429057Y-97849500D01*
X121270943Y-97849500D01*
X121118216Y-97890423D01*
X121118213Y-97890424D01*
X121086497Y-97908735D01*
X121018597Y-97925205D01*
X120952571Y-97902352D01*
X120909381Y-97847429D01*
X120900500Y-97801346D01*
X120900500Y-92965098D01*
X120920185Y-92898059D01*
X120936819Y-92877417D01*
X120944385Y-92869851D01*
X120980520Y-92833716D01*
X121059577Y-92696784D01*
X121100500Y-92544057D01*
X121100500Y-92385943D01*
X121059577Y-92233216D01*
X121017595Y-92160500D01*
X120980524Y-92096290D01*
X120980518Y-92096282D01*
X120868717Y-91984481D01*
X120868709Y-91984475D01*
X120731790Y-91905426D01*
X120731786Y-91905424D01*
X120731784Y-91905423D01*
X120579057Y-91864500D01*
X120420943Y-91864500D01*
X120268216Y-91905423D01*
X120268209Y-91905426D01*
X120131290Y-91984475D01*
X120131282Y-91984481D01*
X120019481Y-92096282D01*
X120019475Y-92096290D01*
X119940426Y-92233209D01*
X119940423Y-92233216D01*
X119899500Y-92385943D01*
X119527475Y-92385943D01*
X119509380Y-92318413D01*
X119471913Y-92253518D01*
X119430327Y-92181487D01*
X119430321Y-92181479D01*
X119318520Y-92069678D01*
X119318512Y-92069672D01*
X119181593Y-91990623D01*
X119181589Y-91990621D01*
X119181587Y-91990620D01*
X119028860Y-91949697D01*
X118870746Y-91949697D01*
X118718019Y-91990620D01*
X118718012Y-91990623D01*
X118581093Y-92069672D01*
X118581085Y-92069678D01*
X118469284Y-92181479D01*
X118469278Y-92181487D01*
X118390229Y-92318406D01*
X118390227Y-92318411D01*
X118390226Y-92318413D01*
X118349303Y-92471140D01*
X118349303Y-92629254D01*
X118376152Y-92729454D01*
X118390226Y-92781980D01*
X118390229Y-92781987D01*
X118469278Y-92918906D01*
X118469284Y-92918914D01*
X118512984Y-92962614D01*
X118546469Y-93023937D01*
X118549303Y-93050295D01*
X118549303Y-107300100D01*
X118529618Y-107367139D01*
X118512984Y-107387781D01*
X115887584Y-110013181D01*
X115826261Y-110046666D01*
X115799903Y-110049500D01*
X115738101Y-110049500D01*
X115585374Y-110090423D01*
X115585367Y-110090426D01*
X115448448Y-110169475D01*
X115448440Y-110169481D01*
X115336639Y-110281282D01*
X115336633Y-110281290D01*
X115329968Y-110292834D01*
X115314907Y-110307193D01*
X115303625Y-110324682D01*
X115290128Y-110330817D01*
X115279399Y-110341047D01*
X115258964Y-110344984D01*
X115240019Y-110353597D01*
X115225349Y-110351461D01*
X115210792Y-110354267D01*
X115191471Y-110346531D01*
X115170878Y-110343534D01*
X115153099Y-110331167D01*
X115145928Y-110328296D01*
X115141220Y-110324402D01*
X115137962Y-110321569D01*
X115095913Y-110279520D01*
X115077136Y-110268678D01*
X115068121Y-110260840D01*
X115055466Y-110241073D01*
X115039269Y-110224086D01*
X115031555Y-110205588D01*
X115016211Y-110158361D01*
X115016211Y-110158360D01*
X114981595Y-110090423D01*
X114933996Y-109997006D01*
X114906802Y-109959576D01*
X114827558Y-109850505D01*
X114827554Y-109850500D01*
X114699499Y-109722445D01*
X114699494Y-109722441D01*
X114552997Y-109616006D01*
X114552996Y-109616005D01*
X114552994Y-109616004D01*
X114501300Y-109589664D01*
X114391639Y-109533788D01*
X114391636Y-109533787D01*
X114219410Y-109477829D01*
X114059321Y-109452473D01*
X113996186Y-109422544D01*
X113959255Y-109363232D01*
X113960253Y-109293370D01*
X113998863Y-109235137D01*
X114059321Y-109207527D01*
X114129425Y-109196422D01*
X114219409Y-109182171D01*
X114391639Y-109126211D01*
X114552994Y-109043996D01*
X114699501Y-108937553D01*
X114827553Y-108809501D01*
X114933996Y-108662994D01*
X115016211Y-108501639D01*
X115072171Y-108329409D01*
X115091886Y-108204933D01*
X115100500Y-108150551D01*
X115100500Y-107969448D01*
X115082494Y-107855770D01*
X115072171Y-107790591D01*
X115037854Y-107684973D01*
X115016212Y-107618363D01*
X115016211Y-107618360D01*
X114979991Y-107547275D01*
X114933996Y-107457006D01*
X114892633Y-107400074D01*
X114827558Y-107310505D01*
X114827552Y-107310498D01*
X114699499Y-107182445D01*
X114699494Y-107182441D01*
X114552997Y-107076006D01*
X114552996Y-107076005D01*
X114552994Y-107076004D01*
X114439566Y-107018209D01*
X114418205Y-107007325D01*
X114407140Y-106996875D01*
X114393297Y-106990553D01*
X114382255Y-106973372D01*
X114367409Y-106959350D01*
X114363167Y-106943670D01*
X114355523Y-106931775D01*
X114350500Y-106896840D01*
X114350500Y-106683159D01*
X114370185Y-106616120D01*
X114418202Y-106572675D01*
X114552994Y-106503996D01*
X114699501Y-106397553D01*
X114827553Y-106269501D01*
X114933996Y-106122994D01*
X115016211Y-105961639D01*
X115072171Y-105789409D01*
X115093288Y-105656083D01*
X115100500Y-105610551D01*
X115100500Y-105429448D01*
X115072171Y-105250590D01*
X115045453Y-105168360D01*
X115025422Y-105106712D01*
X115023428Y-105036875D01*
X115055671Y-104980719D01*
X115335703Y-104700688D01*
X115335708Y-104700684D01*
X115345911Y-104690480D01*
X115345913Y-104690480D01*
X115420480Y-104615913D01*
X115473207Y-104524587D01*
X115500501Y-104422727D01*
X115500501Y-104317273D01*
X115500501Y-104309678D01*
X115500500Y-104309660D01*
X115500500Y-96572729D01*
X115500501Y-96572716D01*
X115500501Y-96457274D01*
X115494149Y-96433568D01*
X115473207Y-96355413D01*
X115437411Y-96293413D01*
X115420480Y-96264087D01*
X115345913Y-96189520D01*
X115345910Y-96189518D01*
X115055674Y-95899282D01*
X115022189Y-95837959D01*
X115025424Y-95773283D01*
X115030713Y-95757007D01*
X115072171Y-95629409D01*
X115100500Y-95450551D01*
X115100500Y-95269448D01*
X115072171Y-95090590D01*
X115045515Y-95008552D01*
X115025422Y-94946712D01*
X115023428Y-94876875D01*
X115055671Y-94820719D01*
X115335703Y-94540688D01*
X115335708Y-94540684D01*
X115345911Y-94530480D01*
X115345913Y-94530480D01*
X115420480Y-94455913D01*
X115473207Y-94364587D01*
X115477570Y-94348303D01*
X115500501Y-94262727D01*
X115500501Y-94157273D01*
X115500500Y-94157269D01*
X115500500Y-87316678D01*
X117145235Y-87316678D01*
X117145235Y-87474792D01*
X117171026Y-87571043D01*
X117186158Y-87627518D01*
X117186161Y-87627525D01*
X117265210Y-87764444D01*
X117265216Y-87764452D01*
X117308916Y-87808152D01*
X117342401Y-87869475D01*
X117345235Y-87895833D01*
X117345235Y-88248461D01*
X117372528Y-88350324D01*
X117389555Y-88379815D01*
X117425255Y-88441648D01*
X117425256Y-88441649D01*
X117425257Y-88441650D01*
X117863181Y-88879573D01*
X117896666Y-88940896D01*
X117899500Y-88967254D01*
X117899500Y-89029057D01*
X117936922Y-89168716D01*
X117940423Y-89181783D01*
X117940426Y-89181790D01*
X118019475Y-89318709D01*
X118019479Y-89318714D01*
X118019480Y-89318716D01*
X118131284Y-89430520D01*
X118131286Y-89430521D01*
X118131290Y-89430524D01*
X118267395Y-89509103D01*
X118268216Y-89509577D01*
X118420943Y-89550500D01*
X118420945Y-89550500D01*
X118579055Y-89550500D01*
X118579057Y-89550500D01*
X118731784Y-89509577D01*
X118868716Y-89430520D01*
X118980520Y-89318716D01*
X119059577Y-89181784D01*
X119100500Y-89029057D01*
X119100500Y-88870943D01*
X119059577Y-88718216D01*
X119001463Y-88617558D01*
X118980524Y-88581290D01*
X118980518Y-88581282D01*
X118868717Y-88469481D01*
X118868709Y-88469475D01*
X118731790Y-88390426D01*
X118731786Y-88390424D01*
X118731784Y-88390423D01*
X118579057Y-88349500D01*
X118579056Y-88349500D01*
X118517254Y-88349500D01*
X118450215Y-88329815D01*
X118429573Y-88313181D01*
X118182554Y-88066161D01*
X118167850Y-88039233D01*
X118151258Y-88013415D01*
X118150366Y-88007214D01*
X118149069Y-88004838D01*
X118146235Y-87978480D01*
X118146235Y-87895833D01*
X118165920Y-87828794D01*
X118182554Y-87808152D01*
X118226255Y-87764451D01*
X118305312Y-87627519D01*
X118346235Y-87474792D01*
X118346235Y-87316678D01*
X118305312Y-87163951D01*
X118292011Y-87140913D01*
X118226259Y-87027025D01*
X118226253Y-87027017D01*
X118114452Y-86915216D01*
X118114444Y-86915210D01*
X117977525Y-86836161D01*
X117977521Y-86836159D01*
X117977519Y-86836158D01*
X117824792Y-86795235D01*
X117666678Y-86795235D01*
X117513951Y-86836158D01*
X117513944Y-86836161D01*
X117377025Y-86915210D01*
X117377017Y-86915216D01*
X117265216Y-87027017D01*
X117265210Y-87027025D01*
X117186161Y-87163944D01*
X117186158Y-87163951D01*
X117145235Y-87316678D01*
X115500500Y-87316678D01*
X115500500Y-85565205D01*
X118805000Y-85565205D01*
X118805000Y-86110000D01*
X119349670Y-86110000D01*
X119329925Y-86129745D01*
X119280556Y-86215255D01*
X119255000Y-86310630D01*
X119255000Y-86409370D01*
X119280556Y-86504745D01*
X119329925Y-86590255D01*
X119349670Y-86610000D01*
X118805001Y-86610000D01*
X118805001Y-87154785D01*
X118805002Y-87154808D01*
X118807908Y-87179869D01*
X118807909Y-87179873D01*
X118853211Y-87282474D01*
X118853214Y-87282479D01*
X118932520Y-87361785D01*
X118932525Y-87361788D01*
X119035123Y-87407089D01*
X119060206Y-87409999D01*
X119379999Y-87409999D01*
X119380000Y-87409998D01*
X119380000Y-86640330D01*
X119399745Y-86660075D01*
X119485255Y-86709444D01*
X119580630Y-86735000D01*
X119679370Y-86735000D01*
X119774745Y-86709444D01*
X119860255Y-86660075D01*
X119880000Y-86640330D01*
X119880000Y-87409999D01*
X120199786Y-87409999D01*
X120199808Y-87409997D01*
X120224869Y-87407091D01*
X120224873Y-87407090D01*
X120327474Y-87361788D01*
X120327478Y-87361786D01*
X120355336Y-87333928D01*
X120416658Y-87300442D01*
X120486350Y-87305426D01*
X120503359Y-87314132D01*
X120503604Y-87313675D01*
X120508985Y-87316551D01*
X120618191Y-87361785D01*
X120659211Y-87378776D01*
X120659215Y-87378776D01*
X120659216Y-87378777D01*
X120818692Y-87410500D01*
X120818695Y-87410500D01*
X120981307Y-87410500D01*
X121092608Y-87388360D01*
X121140789Y-87378776D01*
X121261645Y-87328716D01*
X121291019Y-87316549D01*
X121291023Y-87316547D01*
X121396692Y-87245941D01*
X121426225Y-87226208D01*
X121447319Y-87205113D01*
X121508640Y-87171629D01*
X121578331Y-87176612D01*
X121622680Y-87205113D01*
X121643775Y-87226208D01*
X121643777Y-87226210D01*
X121643779Y-87226211D01*
X121778976Y-87316547D01*
X121778980Y-87316549D01*
X121888193Y-87361786D01*
X121929211Y-87378776D01*
X121929215Y-87378776D01*
X121929216Y-87378777D01*
X122088692Y-87410500D01*
X122088695Y-87410500D01*
X122251307Y-87410500D01*
X122362608Y-87388360D01*
X122410789Y-87378776D01*
X122561021Y-87316548D01*
X122561092Y-87316500D01*
X122561135Y-87316486D01*
X122566388Y-87313679D01*
X122566920Y-87314674D01*
X122627761Y-87295613D01*
X122695145Y-87314087D01*
X122717676Y-87331912D01*
X122826284Y-87440520D01*
X122826286Y-87440521D01*
X122826290Y-87440524D01*
X122885645Y-87474792D01*
X122963216Y-87519577D01*
X123115943Y-87560500D01*
X123115945Y-87560500D01*
X123274055Y-87560500D01*
X123274057Y-87560500D01*
X123426784Y-87519577D01*
X123515703Y-87468239D01*
X123583604Y-87451767D01*
X123649630Y-87474620D01*
X123692821Y-87529541D01*
X123701703Y-87575627D01*
X123701703Y-92667862D01*
X123693475Y-92709236D01*
X123693619Y-92709275D01*
X123693032Y-92711461D01*
X123692269Y-92715304D01*
X123691516Y-92717120D01*
X123691515Y-92717124D01*
X123650592Y-92869851D01*
X123650592Y-93027965D01*
X123691172Y-93179410D01*
X123691515Y-93180691D01*
X123691518Y-93180698D01*
X123770567Y-93317617D01*
X123770571Y-93317622D01*
X123770572Y-93317624D01*
X123882376Y-93429428D01*
X123882378Y-93429429D01*
X123882382Y-93429432D01*
X124018487Y-93508011D01*
X124019308Y-93508485D01*
X124172035Y-93549408D01*
X124172037Y-93549408D01*
X124330147Y-93549408D01*
X124330149Y-93549408D01*
X124482876Y-93508485D01*
X124619808Y-93429428D01*
X124731612Y-93317624D01*
X124810669Y-93180692D01*
X124851592Y-93027965D01*
X124851592Y-92869851D01*
X124810669Y-92717124D01*
X124809618Y-92715304D01*
X124731616Y-92580198D01*
X124731610Y-92580190D01*
X124619809Y-92468389D01*
X124619804Y-92468385D01*
X124564703Y-92436573D01*
X124516488Y-92386006D01*
X124502703Y-92329186D01*
X124502703Y-89420943D01*
X125499500Y-89420943D01*
X125499500Y-89579057D01*
X125525746Y-89677006D01*
X125540423Y-89731783D01*
X125540426Y-89731790D01*
X125619475Y-89868709D01*
X125619479Y-89868714D01*
X125619480Y-89868716D01*
X125731284Y-89980520D01*
X125731286Y-89980521D01*
X125731290Y-89980524D01*
X125795041Y-90017330D01*
X125868216Y-90059577D01*
X126020943Y-90100500D01*
X126082745Y-90100500D01*
X126149784Y-90120185D01*
X126170426Y-90136819D01*
X127863181Y-91829574D01*
X127896666Y-91890897D01*
X127899500Y-91917255D01*
X127899500Y-94328725D01*
X127879815Y-94395764D01*
X127863181Y-94416406D01*
X127819481Y-94460105D01*
X127819475Y-94460113D01*
X127740426Y-94597032D01*
X127740423Y-94597039D01*
X127699500Y-94749766D01*
X127699500Y-94907880D01*
X127737555Y-95049901D01*
X127740423Y-95060606D01*
X127740426Y-95060613D01*
X127819475Y-95197532D01*
X127819479Y-95197537D01*
X127819480Y-95197539D01*
X127931284Y-95309343D01*
X127931286Y-95309344D01*
X127931290Y-95309347D01*
X128018147Y-95359493D01*
X128068216Y-95388400D01*
X128220943Y-95429323D01*
X128220945Y-95429323D01*
X128379055Y-95429323D01*
X128379057Y-95429323D01*
X128531784Y-95388400D01*
X128668716Y-95309343D01*
X128780520Y-95197539D01*
X128859577Y-95060607D01*
X128900500Y-94907880D01*
X128900500Y-94749766D01*
X128859577Y-94597039D01*
X128859573Y-94597032D01*
X128780524Y-94460113D01*
X128780518Y-94460105D01*
X128736819Y-94416406D01*
X128703334Y-94355083D01*
X128700500Y-94328725D01*
X128700500Y-91647275D01*
X128700500Y-91647273D01*
X128673207Y-91545413D01*
X128673207Y-91545412D01*
X128620480Y-91454087D01*
X126736819Y-89570426D01*
X126703334Y-89509103D01*
X126700500Y-89482745D01*
X126700500Y-89420945D01*
X126700500Y-89420943D01*
X126659577Y-89268216D01*
X126628154Y-89213789D01*
X126580524Y-89131290D01*
X126580518Y-89131282D01*
X126468717Y-89019481D01*
X126468709Y-89019475D01*
X126331790Y-88940426D01*
X126331786Y-88940424D01*
X126331784Y-88940423D01*
X126179057Y-88899500D01*
X126020943Y-88899500D01*
X125868216Y-88940423D01*
X125868209Y-88940426D01*
X125731290Y-89019475D01*
X125731282Y-89019481D01*
X125619481Y-89131282D01*
X125619475Y-89131290D01*
X125540426Y-89268209D01*
X125540423Y-89268216D01*
X125499500Y-89420943D01*
X124502703Y-89420943D01*
X124502703Y-86260098D01*
X124522388Y-86193059D01*
X124539022Y-86172417D01*
X124543886Y-86167553D01*
X124582723Y-86128716D01*
X124661780Y-85991784D01*
X124702703Y-85839057D01*
X124702703Y-85680943D01*
X124661780Y-85528216D01*
X124656735Y-85519477D01*
X124582727Y-85391290D01*
X124582721Y-85391282D01*
X124470920Y-85279481D01*
X124470912Y-85279475D01*
X124333993Y-85200426D01*
X124333989Y-85200424D01*
X124333987Y-85200423D01*
X124181260Y-85159500D01*
X124023146Y-85159500D01*
X123870419Y-85200423D01*
X123870418Y-85200423D01*
X123781499Y-85251760D01*
X123713599Y-85268231D01*
X123647572Y-85245379D01*
X123604382Y-85190457D01*
X123595500Y-85144372D01*
X123595500Y-84455098D01*
X123615185Y-84388059D01*
X123631819Y-84367417D01*
X123649736Y-84349500D01*
X123680520Y-84318716D01*
X123759577Y-84181784D01*
X123800500Y-84029057D01*
X123800500Y-83870943D01*
X123759577Y-83718216D01*
X123727000Y-83661790D01*
X123680524Y-83581290D01*
X123680518Y-83581282D01*
X123568717Y-83469481D01*
X123568709Y-83469475D01*
X123431790Y-83390426D01*
X123431786Y-83390424D01*
X123431784Y-83390423D01*
X123279057Y-83349500D01*
X123120943Y-83349500D01*
X122968216Y-83390423D01*
X122968209Y-83390426D01*
X122831290Y-83469475D01*
X122831282Y-83469481D01*
X122719481Y-83581282D01*
X122719475Y-83581290D01*
X122640426Y-83718209D01*
X122640423Y-83718216D01*
X122599500Y-83870943D01*
X122599500Y-84029057D01*
X122627563Y-84133787D01*
X122640423Y-84181783D01*
X122640426Y-84181790D01*
X122719475Y-84318709D01*
X122719481Y-84318717D01*
X122758181Y-84357417D01*
X122791666Y-84418740D01*
X122794500Y-84445098D01*
X122794500Y-85327469D01*
X122774815Y-85394508D01*
X122722011Y-85440263D01*
X122652853Y-85450207D01*
X122601611Y-85430572D01*
X122561021Y-85403451D01*
X122561019Y-85403450D01*
X122410793Y-85341225D01*
X122410783Y-85341222D01*
X122251307Y-85309500D01*
X122251305Y-85309500D01*
X122088695Y-85309500D01*
X122088693Y-85309500D01*
X121929216Y-85341222D01*
X121929206Y-85341225D01*
X121778980Y-85403450D01*
X121778976Y-85403452D01*
X121643779Y-85493788D01*
X121643771Y-85493794D01*
X121622681Y-85514885D01*
X121561358Y-85548370D01*
X121491666Y-85543386D01*
X121447319Y-85514885D01*
X121426228Y-85493794D01*
X121426220Y-85493788D01*
X121291023Y-85403452D01*
X121291019Y-85403450D01*
X121140793Y-85341225D01*
X121140783Y-85341222D01*
X120981307Y-85309500D01*
X120981305Y-85309500D01*
X120818695Y-85309500D01*
X120818693Y-85309500D01*
X120659216Y-85341222D01*
X120659206Y-85341225D01*
X120508980Y-85403450D01*
X120503609Y-85406322D01*
X120502592Y-85404421D01*
X120445182Y-85422372D01*
X120377809Y-85403860D01*
X120355337Y-85386072D01*
X120327479Y-85358214D01*
X120327474Y-85358211D01*
X120224876Y-85312910D01*
X120199794Y-85310000D01*
X119880000Y-85310000D01*
X119880000Y-86079670D01*
X119860255Y-86059925D01*
X119774745Y-86010556D01*
X119679370Y-85985000D01*
X119580630Y-85985000D01*
X119485255Y-86010556D01*
X119399745Y-86059925D01*
X119380000Y-86079670D01*
X119380000Y-85310000D01*
X119060214Y-85310000D01*
X119060191Y-85310002D01*
X119035130Y-85312908D01*
X119035126Y-85312909D01*
X118932525Y-85358211D01*
X118932520Y-85358214D01*
X118853214Y-85437520D01*
X118853211Y-85437525D01*
X118807910Y-85540122D01*
X118807910Y-85540124D01*
X118805000Y-85565205D01*
X115500500Y-85565205D01*
X115500500Y-83872729D01*
X115500501Y-83872716D01*
X115500501Y-83757274D01*
X115494646Y-83735424D01*
X115473207Y-83655413D01*
X115443458Y-83603886D01*
X115420480Y-83564087D01*
X115345913Y-83489520D01*
X115345912Y-83489519D01*
X115341582Y-83485189D01*
X115341571Y-83485179D01*
X115207335Y-83350943D01*
X116849500Y-83350943D01*
X116849500Y-83509057D01*
X116874910Y-83603886D01*
X116890423Y-83661783D01*
X116890426Y-83661790D01*
X116969475Y-83798709D01*
X116969479Y-83798714D01*
X116969480Y-83798716D01*
X117081284Y-83910520D01*
X117081286Y-83910521D01*
X117081290Y-83910524D01*
X117207023Y-83983115D01*
X117218216Y-83989577D01*
X117370943Y-84030500D01*
X117370945Y-84030500D01*
X117529055Y-84030500D01*
X117529057Y-84030500D01*
X117681784Y-83989577D01*
X117818716Y-83910520D01*
X117930520Y-83798716D01*
X118009577Y-83661784D01*
X118050500Y-83509057D01*
X118050500Y-83350943D01*
X118009577Y-83198216D01*
X117953819Y-83101639D01*
X117930524Y-83061290D01*
X117930518Y-83061282D01*
X117886819Y-83017583D01*
X117853334Y-82956260D01*
X117850500Y-82929902D01*
X117850500Y-81635884D01*
X117859144Y-81606443D01*
X117865668Y-81576457D01*
X117869422Y-81571441D01*
X117870185Y-81568845D01*
X117886819Y-81548203D01*
X118278703Y-81156319D01*
X118340026Y-81122834D01*
X118366384Y-81120000D01*
X118880000Y-81120000D01*
X118880000Y-81620000D01*
X118380000Y-81620000D01*
X118380000Y-81998797D01*
X118410741Y-82153343D01*
X118410743Y-82153351D01*
X118471047Y-82298939D01*
X118471052Y-82298948D01*
X118558598Y-82429969D01*
X118558601Y-82429973D01*
X118670026Y-82541398D01*
X118670034Y-82541404D01*
X118801047Y-82628944D01*
X118801065Y-82628954D01*
X118929999Y-82682360D01*
X118930000Y-82682360D01*
X118930000Y-82086988D01*
X118939940Y-82104205D01*
X118995795Y-82160060D01*
X119064204Y-82199556D01*
X119140504Y-82220000D01*
X119219496Y-82220000D01*
X119295796Y-82199556D01*
X119364205Y-82160060D01*
X119420060Y-82104205D01*
X119430000Y-82086988D01*
X119430000Y-82682360D01*
X119558934Y-82628954D01*
X119558952Y-82628944D01*
X119689965Y-82541404D01*
X119689973Y-82541398D01*
X119801398Y-82429973D01*
X119801401Y-82429969D01*
X119888947Y-82298948D01*
X119888952Y-82298939D01*
X119949256Y-82153351D01*
X119949258Y-82153343D01*
X119979999Y-81998797D01*
X119980000Y-81998794D01*
X119980000Y-81620000D01*
X119480000Y-81620000D01*
X119480000Y-81120000D01*
X120031362Y-81120000D01*
X120031362Y-81121884D01*
X120077320Y-81125163D01*
X120133261Y-81167024D01*
X120141391Y-81179346D01*
X120149485Y-81193365D01*
X120256635Y-81300515D01*
X120387865Y-81376281D01*
X120534234Y-81415500D01*
X120534236Y-81415500D01*
X120685763Y-81415500D01*
X120685766Y-81415500D01*
X120728408Y-81404074D01*
X120753401Y-81404669D01*
X120778147Y-81401111D01*
X120787727Y-81405486D01*
X120798256Y-81405737D01*
X120818960Y-81419749D01*
X120841703Y-81430136D01*
X120847396Y-81438995D01*
X120856119Y-81444899D01*
X120865960Y-81467882D01*
X120879477Y-81488914D01*
X120881756Y-81504769D01*
X120883623Y-81509128D01*
X120884500Y-81523849D01*
X120884500Y-81615562D01*
X120864815Y-81682601D01*
X120822500Y-81722949D01*
X120681287Y-81804477D01*
X120681282Y-81804481D01*
X120569481Y-81916282D01*
X120569475Y-81916290D01*
X120490426Y-82053209D01*
X120490423Y-82053216D01*
X120449500Y-82205943D01*
X120449500Y-82364056D01*
X120490423Y-82516783D01*
X120490426Y-82516790D01*
X120569475Y-82653709D01*
X120569479Y-82653714D01*
X120569480Y-82653716D01*
X120681284Y-82765520D01*
X120681286Y-82765521D01*
X120681290Y-82765524D01*
X120768417Y-82815826D01*
X120818216Y-82844577D01*
X120970943Y-82885500D01*
X120970945Y-82885500D01*
X121129055Y-82885500D01*
X121129057Y-82885500D01*
X121281784Y-82844577D01*
X121418716Y-82765520D01*
X121530520Y-82653716D01*
X121609577Y-82516784D01*
X121650500Y-82364057D01*
X121650500Y-82247859D01*
X121657472Y-82212805D01*
X121656103Y-82212439D01*
X121659555Y-82199556D01*
X121685500Y-82102727D01*
X121685500Y-81997273D01*
X121685500Y-80764234D01*
X125814500Y-80764234D01*
X125814500Y-80915765D01*
X125853719Y-81062136D01*
X125888215Y-81121884D01*
X125929485Y-81193365D01*
X126036635Y-81300515D01*
X126167865Y-81376281D01*
X126314234Y-81415500D01*
X126314236Y-81415500D01*
X126465764Y-81415500D01*
X126465766Y-81415500D01*
X126612135Y-81376281D01*
X126743365Y-81300515D01*
X126850515Y-81193365D01*
X126858604Y-81179353D01*
X126909168Y-81131139D01*
X126977774Y-81117914D01*
X126982985Y-81120000D01*
X127520000Y-81120000D01*
X127520000Y-81620000D01*
X127020000Y-81620000D01*
X127020000Y-81998797D01*
X127050741Y-82153343D01*
X127050743Y-82153351D01*
X127111047Y-82298939D01*
X127111052Y-82298948D01*
X127198598Y-82429969D01*
X127198601Y-82429973D01*
X127310026Y-82541398D01*
X127310034Y-82541404D01*
X127441047Y-82628944D01*
X127441065Y-82628954D01*
X127569999Y-82682360D01*
X127570000Y-82682360D01*
X127570000Y-82086988D01*
X127579940Y-82104205D01*
X127635795Y-82160060D01*
X127704204Y-82199556D01*
X127780504Y-82220000D01*
X127859496Y-82220000D01*
X127935796Y-82199556D01*
X128004205Y-82160060D01*
X128060060Y-82104205D01*
X128070000Y-82086988D01*
X128070000Y-82682360D01*
X128198934Y-82628954D01*
X128198952Y-82628944D01*
X128314824Y-82551521D01*
X128314828Y-82551519D01*
X128329969Y-82541401D01*
X128329973Y-82541398D01*
X128441398Y-82429973D01*
X128441401Y-82429969D01*
X128528947Y-82298948D01*
X128528952Y-82298939D01*
X128589256Y-82153351D01*
X128589258Y-82153343D01*
X128619999Y-81998797D01*
X128620000Y-81998794D01*
X128620000Y-81620000D01*
X128120000Y-81620000D01*
X128120000Y-81120000D01*
X128620000Y-81120000D01*
X128620000Y-80741206D01*
X128619999Y-80741202D01*
X128589258Y-80586656D01*
X128589256Y-80586648D01*
X128528952Y-80441060D01*
X128528947Y-80441051D01*
X128441401Y-80310030D01*
X128441398Y-80310026D01*
X128329973Y-80198601D01*
X128329969Y-80198598D01*
X128198948Y-80111052D01*
X128198938Y-80111047D01*
X128070000Y-80057639D01*
X128070000Y-80653011D01*
X128060060Y-80635795D01*
X128004205Y-80579940D01*
X127935796Y-80540444D01*
X127859496Y-80520000D01*
X127780504Y-80520000D01*
X127704204Y-80540444D01*
X127635795Y-80579940D01*
X127579940Y-80635795D01*
X127570000Y-80653011D01*
X127570000Y-80057639D01*
X127569999Y-80057639D01*
X127441061Y-80111047D01*
X127441051Y-80111052D01*
X127310030Y-80198598D01*
X127310026Y-80198601D01*
X127198601Y-80310026D01*
X127198598Y-80310030D01*
X127111052Y-80441051D01*
X127111049Y-80441057D01*
X127087446Y-80498040D01*
X127043604Y-80552443D01*
X126977310Y-80574507D01*
X126909611Y-80557227D01*
X126865498Y-80512587D01*
X126850515Y-80486635D01*
X126743365Y-80379485D01*
X126677750Y-80341602D01*
X126612136Y-80303719D01*
X126538950Y-80284109D01*
X126465766Y-80264500D01*
X126314234Y-80264500D01*
X126167863Y-80303719D01*
X126036635Y-80379485D01*
X126036632Y-80379487D01*
X125929487Y-80486632D01*
X125929485Y-80486635D01*
X125853719Y-80617863D01*
X125814500Y-80764234D01*
X121685500Y-80764234D01*
X121685500Y-80507679D01*
X121658207Y-80405819D01*
X121605480Y-80314493D01*
X121530913Y-80239926D01*
X120990507Y-79699520D01*
X120944844Y-79673156D01*
X120899183Y-79646793D01*
X120848251Y-79633146D01*
X120797321Y-79619500D01*
X118901356Y-79619500D01*
X118795902Y-79619500D01*
X118694039Y-79646793D01*
X118602716Y-79699520D01*
X118602713Y-79699522D01*
X117129522Y-81172713D01*
X117129520Y-81172716D01*
X117076793Y-81264040D01*
X117076793Y-81264041D01*
X117073532Y-81276211D01*
X117073532Y-81276212D01*
X117073531Y-81276211D01*
X117049500Y-81365900D01*
X117049500Y-82929902D01*
X117029815Y-82996941D01*
X117013181Y-83017583D01*
X116969481Y-83061282D01*
X116969475Y-83061290D01*
X116890426Y-83198209D01*
X116890423Y-83198216D01*
X116849500Y-83350943D01*
X115207335Y-83350943D01*
X115055674Y-83199282D01*
X115022189Y-83137959D01*
X115025424Y-83073283D01*
X115029324Y-83061282D01*
X115072171Y-82929409D01*
X115100500Y-82750551D01*
X115100500Y-82569448D01*
X115084019Y-82465397D01*
X115072171Y-82390591D01*
X115042392Y-82298939D01*
X115016212Y-82218363D01*
X115016211Y-82218360D01*
X114986505Y-82160060D01*
X114933996Y-82057006D01*
X114872227Y-81971988D01*
X114827558Y-81910505D01*
X114827554Y-81910500D01*
X114699499Y-81782445D01*
X114699494Y-81782441D01*
X114552997Y-81676006D01*
X114552996Y-81676005D01*
X114552994Y-81676004D01*
X114459404Y-81628317D01*
X114391639Y-81593788D01*
X114391636Y-81593787D01*
X114219410Y-81537829D01*
X114059321Y-81512473D01*
X113996186Y-81482544D01*
X113959255Y-81423232D01*
X113960253Y-81353370D01*
X113998863Y-81295137D01*
X114059321Y-81267527D01*
X114129425Y-81256422D01*
X114219409Y-81242171D01*
X114391639Y-81186211D01*
X114552994Y-81103996D01*
X114699501Y-80997553D01*
X114827553Y-80869501D01*
X114933996Y-80722994D01*
X115016211Y-80561639D01*
X115072171Y-80389409D01*
X115095847Y-80239926D01*
X115100500Y-80210551D01*
X115100500Y-80029448D01*
X115073238Y-79857330D01*
X115072171Y-79850591D01*
X115016211Y-79678361D01*
X115016211Y-79678360D01*
X114986220Y-79619500D01*
X114933996Y-79517006D01*
X114892942Y-79460500D01*
X114827558Y-79370505D01*
X114827554Y-79370500D01*
X114699499Y-79242445D01*
X114699494Y-79242441D01*
X114552997Y-79136006D01*
X114552996Y-79136005D01*
X114552994Y-79136004D01*
X114501300Y-79109664D01*
X114391639Y-79053788D01*
X114391636Y-79053787D01*
X114219410Y-78997829D01*
X114087728Y-78976972D01*
X114024594Y-78947042D01*
X113987663Y-78887731D01*
X113988661Y-78817868D01*
X114027271Y-78759636D01*
X114091235Y-78731522D01*
X114107120Y-78730499D01*
X114844864Y-78730499D01*
X114844879Y-78730497D01*
X114844882Y-78730497D01*
X114869987Y-78727586D01*
X114869988Y-78727585D01*
X114869991Y-78727585D01*
X114972765Y-78682206D01*
X115052206Y-78602765D01*
X115097585Y-78499991D01*
X115100500Y-78474865D01*
X115100499Y-76685136D01*
X115100497Y-76685117D01*
X115097586Y-76660012D01*
X115097585Y-76660010D01*
X115097585Y-76660009D01*
X115052206Y-76557235D01*
X114972765Y-76477794D01*
X114928414Y-76458211D01*
X114869992Y-76432415D01*
X114844865Y-76429500D01*
X113055143Y-76429500D01*
X113055117Y-76429502D01*
X113030013Y-76432413D01*
X112988232Y-76450861D01*
X112927235Y-76477794D01*
X112927234Y-76477794D01*
X112924586Y-76478964D01*
X112855307Y-76488035D01*
X112792123Y-76458211D01*
X112755092Y-76398962D01*
X112750500Y-76365529D01*
X112750500Y-76274500D01*
X112770185Y-76207461D01*
X112822989Y-76161706D01*
X112874500Y-76150500D01*
X118488766Y-76150500D01*
X118555805Y-76170185D01*
G37*
%TD.AperFunction*%
%TA.AperFunction,Conductor*%
G36*
X131922659Y-103761934D02*
G01*
X131951056Y-103790059D01*
X131972447Y-103819501D01*
X131972449Y-103819503D01*
X132100500Y-103947554D01*
X132100505Y-103947558D01*
X132146828Y-103981213D01*
X132247006Y-104053996D01*
X132320998Y-104091697D01*
X132408360Y-104136211D01*
X132408363Y-104136212D01*
X132459248Y-104152745D01*
X132580591Y-104192171D01*
X132653639Y-104203740D01*
X132740678Y-104217527D01*
X132803813Y-104247456D01*
X132840744Y-104306768D01*
X132839746Y-104376631D01*
X132801136Y-104434863D01*
X132740678Y-104462473D01*
X132580589Y-104487829D01*
X132408363Y-104543787D01*
X132408360Y-104543788D01*
X132247002Y-104626006D01*
X132100505Y-104732441D01*
X132100500Y-104732445D01*
X131972445Y-104860500D01*
X131972441Y-104860505D01*
X131866006Y-105007002D01*
X131783788Y-105168360D01*
X131783787Y-105168363D01*
X131727829Y-105340589D01*
X131699500Y-105519448D01*
X131699500Y-105700551D01*
X131727829Y-105879410D01*
X131783787Y-106051636D01*
X131783788Y-106051639D01*
X131866006Y-106212997D01*
X131972441Y-106359494D01*
X131972445Y-106359499D01*
X132100500Y-106487554D01*
X132100505Y-106487558D01*
X132217659Y-106572674D01*
X132247006Y-106593996D01*
X132330089Y-106636329D01*
X132408360Y-106676211D01*
X132408363Y-106676212D01*
X132494476Y-106704191D01*
X132580591Y-106732171D01*
X132692541Y-106749902D01*
X132742279Y-106757780D01*
X132805414Y-106787709D01*
X132842345Y-106847021D01*
X132841347Y-106916883D01*
X132802737Y-106975116D01*
X132742279Y-107002726D01*
X132580706Y-107028317D01*
X132408555Y-107084251D01*
X132408547Y-107084254D01*
X132247269Y-107166432D01*
X132231466Y-107177912D01*
X132231466Y-107177913D01*
X132720591Y-107667037D01*
X132657007Y-107684075D01*
X132542993Y-107749901D01*
X132449901Y-107842993D01*
X132384075Y-107957007D01*
X132367037Y-108020590D01*
X131877912Y-107531466D01*
X131866432Y-107547269D01*
X131784254Y-107708547D01*
X131784251Y-107708555D01*
X131728317Y-107880706D01*
X131700000Y-108059493D01*
X131700000Y-108240506D01*
X131728317Y-108419293D01*
X131784251Y-108591444D01*
X131784252Y-108591447D01*
X131866431Y-108752730D01*
X131877913Y-108768532D01*
X131877913Y-108768533D01*
X132367037Y-108279409D01*
X132384075Y-108342993D01*
X132449901Y-108457007D01*
X132542993Y-108550099D01*
X132657007Y-108615925D01*
X132720590Y-108632962D01*
X132231466Y-109122085D01*
X132231466Y-109122086D01*
X132247267Y-109133566D01*
X132247275Y-109133571D01*
X132408552Y-109215747D01*
X132408555Y-109215748D01*
X132580706Y-109271682D01*
X132742279Y-109297273D01*
X132805413Y-109327202D01*
X132842345Y-109386513D01*
X132841347Y-109456376D01*
X132802738Y-109514609D01*
X132742280Y-109542219D01*
X132580589Y-109567829D01*
X132408363Y-109623787D01*
X132408360Y-109623788D01*
X132247002Y-109706006D01*
X132100505Y-109812441D01*
X132100500Y-109812445D01*
X131972445Y-109940500D01*
X131972441Y-109940505D01*
X131866006Y-110087002D01*
X131783788Y-110248360D01*
X131783787Y-110248363D01*
X131727829Y-110420589D01*
X131699500Y-110599448D01*
X131699500Y-110780551D01*
X131727829Y-110959410D01*
X131783787Y-111131636D01*
X131783788Y-111131639D01*
X131825974Y-111214431D01*
X131854762Y-111270931D01*
X131866006Y-111292997D01*
X131972441Y-111439494D01*
X131972445Y-111439499D01*
X132100500Y-111567554D01*
X132100505Y-111567558D01*
X132228287Y-111660396D01*
X132247006Y-111673996D01*
X132341552Y-111722170D01*
X132408360Y-111756211D01*
X132408363Y-111756212D01*
X132466610Y-111775137D01*
X132580591Y-111812171D01*
X132653639Y-111823740D01*
X132740678Y-111837527D01*
X132803813Y-111867456D01*
X132840744Y-111926768D01*
X132839746Y-111996631D01*
X132801136Y-112054863D01*
X132740678Y-112082473D01*
X132580589Y-112107829D01*
X132408363Y-112163787D01*
X132408360Y-112163788D01*
X132247002Y-112246006D01*
X132100505Y-112352441D01*
X132100500Y-112352445D01*
X131972445Y-112480500D01*
X131972441Y-112480505D01*
X131866006Y-112627002D01*
X131783788Y-112788360D01*
X131783787Y-112788363D01*
X131727829Y-112960589D01*
X131699500Y-113139448D01*
X131699500Y-113320551D01*
X131727828Y-113499409D01*
X131740102Y-113537182D01*
X131742097Y-113607023D01*
X131706017Y-113666856D01*
X131643316Y-113697684D01*
X131622171Y-113699500D01*
X131050098Y-113699500D01*
X131021766Y-113691180D01*
X130992795Y-113685465D01*
X130986450Y-113680810D01*
X130983059Y-113679815D01*
X130964135Y-113664867D01*
X130963294Y-113664058D01*
X130918716Y-113619480D01*
X130914300Y-113616930D01*
X130905009Y-113607993D01*
X130890967Y-113583424D01*
X130874283Y-113560575D01*
X130873861Y-113553491D01*
X130870340Y-113547331D01*
X130871810Y-113519072D01*
X130870128Y-113490829D01*
X130873602Y-113484642D01*
X130873971Y-113477556D01*
X130890483Y-113454580D01*
X130904339Y-113429909D01*
X130910902Y-113426171D01*
X130914749Y-113420820D01*
X130932895Y-113413647D01*
X130958876Y-113398852D01*
X131054588Y-113373207D01*
X131145913Y-113320480D01*
X131220480Y-113245913D01*
X131273207Y-113154588D01*
X131300500Y-113052727D01*
X131300500Y-112947273D01*
X131300500Y-112869157D01*
X131320185Y-112802118D01*
X131336819Y-112781476D01*
X131380520Y-112737775D01*
X131459577Y-112600843D01*
X131500500Y-112448116D01*
X131500500Y-112290002D01*
X131459577Y-112137275D01*
X131442577Y-112107829D01*
X131380524Y-112000349D01*
X131380518Y-112000341D01*
X131268717Y-111888540D01*
X131268709Y-111888534D01*
X131131790Y-111809485D01*
X131131786Y-111809483D01*
X131131784Y-111809482D01*
X130979057Y-111768559D01*
X130820943Y-111768559D01*
X130668216Y-111809482D01*
X130668209Y-111809485D01*
X130531290Y-111888534D01*
X130531282Y-111888540D01*
X130419481Y-112000341D01*
X130419475Y-112000349D01*
X130340426Y-112137268D01*
X130340423Y-112137275D01*
X130299500Y-112290002D01*
X130299500Y-112444559D01*
X130279815Y-112511598D01*
X130227011Y-112557353D01*
X130175500Y-112568559D01*
X128178212Y-112568559D01*
X128076349Y-112595852D01*
X127985026Y-112648579D01*
X127985023Y-112648581D01*
X127812181Y-112821423D01*
X127750858Y-112854908D01*
X127681166Y-112849924D01*
X127625233Y-112808052D01*
X127600816Y-112742588D01*
X127600500Y-112733742D01*
X127600500Y-107767255D01*
X127620185Y-107700216D01*
X127636819Y-107679574D01*
X131479574Y-103836819D01*
X131540897Y-103803334D01*
X131567255Y-103800500D01*
X131629055Y-103800500D01*
X131629057Y-103800500D01*
X131781784Y-103759577D01*
X131788734Y-103755564D01*
X131856630Y-103739087D01*
X131922659Y-103761934D01*
G37*
%TD.AperFunction*%
%TA.AperFunction,Conductor*%
G36*
X133822085Y-108768532D02*
G01*
X133833568Y-108752730D01*
X133915745Y-108591452D01*
X133915748Y-108591444D01*
X133957569Y-108462731D01*
X133997006Y-108405056D01*
X134061364Y-108377857D01*
X134130211Y-108389771D01*
X134181687Y-108437015D01*
X134199500Y-108501049D01*
X134199500Y-110337330D01*
X134179815Y-110404369D01*
X134127011Y-110450124D01*
X134057853Y-110460068D01*
X133994297Y-110431043D01*
X133957569Y-110375648D01*
X133916212Y-110248363D01*
X133916211Y-110248360D01*
X133870353Y-110158360D01*
X133833996Y-110087006D01*
X133810060Y-110054061D01*
X133727558Y-109940505D01*
X133727554Y-109940500D01*
X133599499Y-109812445D01*
X133599494Y-109812441D01*
X133452997Y-109706006D01*
X133452996Y-109706005D01*
X133452994Y-109706004D01*
X133401300Y-109679664D01*
X133291639Y-109623788D01*
X133291636Y-109623787D01*
X133119410Y-109567828D01*
X132957720Y-109542219D01*
X132894585Y-109512289D01*
X132857654Y-109452978D01*
X132858652Y-109383115D01*
X132897262Y-109324883D01*
X132957721Y-109297273D01*
X133119292Y-109271683D01*
X133291444Y-109215748D01*
X133291452Y-109215745D01*
X133452730Y-109133568D01*
X133468532Y-109122085D01*
X133468533Y-109122085D01*
X132979410Y-108632962D01*
X133042993Y-108615925D01*
X133157007Y-108550099D01*
X133250099Y-108457007D01*
X133315925Y-108342993D01*
X133332962Y-108279409D01*
X133822085Y-108768532D01*
G37*
%TD.AperFunction*%
%TA.AperFunction,Conductor*%
G36*
X134130211Y-105851391D02*
G01*
X134181687Y-105898635D01*
X134199500Y-105962669D01*
X134199500Y-107798950D01*
X134179815Y-107865989D01*
X134127011Y-107911744D01*
X134057853Y-107921688D01*
X133994297Y-107892663D01*
X133957569Y-107837268D01*
X133915748Y-107708555D01*
X133915747Y-107708552D01*
X133833571Y-107547275D01*
X133833566Y-107547267D01*
X133822085Y-107531466D01*
X133332962Y-108020589D01*
X133315925Y-107957007D01*
X133250099Y-107842993D01*
X133157007Y-107749901D01*
X133042993Y-107684075D01*
X132979409Y-107667037D01*
X133468533Y-107177913D01*
X133452730Y-107166431D01*
X133291447Y-107084252D01*
X133291444Y-107084251D01*
X133119293Y-107028317D01*
X132957720Y-107002726D01*
X132894585Y-106972797D01*
X132857654Y-106913485D01*
X132858652Y-106843623D01*
X132897262Y-106785390D01*
X132957720Y-106757780D01*
X132972270Y-106755475D01*
X133119409Y-106732171D01*
X133291639Y-106676211D01*
X133452994Y-106593996D01*
X133599501Y-106487553D01*
X133727553Y-106359501D01*
X133833996Y-106212994D01*
X133916211Y-106051639D01*
X133945119Y-105962669D01*
X133957569Y-105924351D01*
X133997006Y-105866676D01*
X134061364Y-105839477D01*
X134130211Y-105851391D01*
G37*
%TD.AperFunction*%
%TA.AperFunction,Conductor*%
G36*
X133822085Y-96068532D02*
G01*
X133833568Y-96052730D01*
X133915745Y-95891452D01*
X133915748Y-95891444D01*
X133957569Y-95762731D01*
X133997006Y-95705056D01*
X134061364Y-95677857D01*
X134130211Y-95689771D01*
X134181687Y-95737015D01*
X134199500Y-95801049D01*
X134199500Y-97637330D01*
X134179815Y-97704369D01*
X134127011Y-97750124D01*
X134057853Y-97760068D01*
X133994297Y-97731043D01*
X133957569Y-97675648D01*
X133916212Y-97548363D01*
X133916211Y-97548360D01*
X133870353Y-97458361D01*
X133833996Y-97387006D01*
X133768608Y-97297006D01*
X133727558Y-97240505D01*
X133727554Y-97240500D01*
X133599499Y-97112445D01*
X133599494Y-97112441D01*
X133452997Y-97006006D01*
X133452996Y-97006005D01*
X133452994Y-97006004D01*
X133401300Y-96979664D01*
X133291639Y-96923788D01*
X133291636Y-96923787D01*
X133119410Y-96867828D01*
X132957720Y-96842219D01*
X132894585Y-96812289D01*
X132857654Y-96752978D01*
X132858652Y-96683115D01*
X132897262Y-96624883D01*
X132957721Y-96597273D01*
X133119292Y-96571683D01*
X133291444Y-96515748D01*
X133291452Y-96515745D01*
X133452730Y-96433568D01*
X133468532Y-96422085D01*
X133468533Y-96422085D01*
X132979410Y-95932962D01*
X133042993Y-95915925D01*
X133157007Y-95850099D01*
X133250099Y-95757007D01*
X133315925Y-95642993D01*
X133332962Y-95579409D01*
X133822085Y-96068532D01*
G37*
%TD.AperFunction*%
%TA.AperFunction,Conductor*%
G36*
X134130211Y-93151391D02*
G01*
X134181687Y-93198635D01*
X134199500Y-93262669D01*
X134199500Y-95098950D01*
X134179815Y-95165989D01*
X134127011Y-95211744D01*
X134057853Y-95221688D01*
X133994297Y-95192663D01*
X133957569Y-95137268D01*
X133915748Y-95008555D01*
X133915747Y-95008552D01*
X133833571Y-94847275D01*
X133833566Y-94847267D01*
X133822085Y-94831466D01*
X133332962Y-95320589D01*
X133315925Y-95257007D01*
X133250099Y-95142993D01*
X133157007Y-95049901D01*
X133042993Y-94984075D01*
X132979409Y-94967037D01*
X133468533Y-94477913D01*
X133452730Y-94466431D01*
X133291447Y-94384252D01*
X133291444Y-94384251D01*
X133119293Y-94328317D01*
X132957720Y-94302726D01*
X132894585Y-94272797D01*
X132857654Y-94213485D01*
X132858652Y-94143623D01*
X132897262Y-94085390D01*
X132957720Y-94057780D01*
X132985563Y-94053370D01*
X133119409Y-94032171D01*
X133291639Y-93976211D01*
X133452994Y-93893996D01*
X133599501Y-93787553D01*
X133727553Y-93659501D01*
X133833996Y-93512994D01*
X133916211Y-93351639D01*
X133945119Y-93262669D01*
X133957569Y-93224351D01*
X133997006Y-93166676D01*
X134061364Y-93139477D01*
X134130211Y-93151391D01*
G37*
%TD.AperFunction*%
%TA.AperFunction,Conductor*%
G36*
X133822085Y-83368532D02*
G01*
X133833568Y-83352730D01*
X133915745Y-83191452D01*
X133915748Y-83191444D01*
X133957569Y-83062731D01*
X133997006Y-83005056D01*
X134061364Y-82977857D01*
X134130211Y-82989771D01*
X134181687Y-83037015D01*
X134199500Y-83101049D01*
X134199500Y-84937330D01*
X134179815Y-85004369D01*
X134127011Y-85050124D01*
X134057853Y-85060068D01*
X133994297Y-85031043D01*
X133957569Y-84975648D01*
X133916212Y-84848363D01*
X133916211Y-84848360D01*
X133849898Y-84718216D01*
X133833996Y-84687006D01*
X133768608Y-84597006D01*
X133727558Y-84540505D01*
X133727554Y-84540500D01*
X133599499Y-84412445D01*
X133599494Y-84412441D01*
X133452997Y-84306006D01*
X133452996Y-84306005D01*
X133452994Y-84306004D01*
X133401300Y-84279664D01*
X133291639Y-84223788D01*
X133291636Y-84223787D01*
X133119410Y-84167828D01*
X132957720Y-84142219D01*
X132894585Y-84112289D01*
X132857654Y-84052978D01*
X132858652Y-83983115D01*
X132897262Y-83924883D01*
X132957721Y-83897273D01*
X133119292Y-83871683D01*
X133291444Y-83815748D01*
X133291452Y-83815745D01*
X133452730Y-83733568D01*
X133468532Y-83722085D01*
X133468533Y-83722085D01*
X132979410Y-83232962D01*
X133042993Y-83215925D01*
X133157007Y-83150099D01*
X133250099Y-83057007D01*
X133315925Y-82942993D01*
X133332962Y-82879409D01*
X133822085Y-83368532D01*
G37*
%TD.AperFunction*%
%TA.AperFunction,Conductor*%
G36*
X134130211Y-80451391D02*
G01*
X134181687Y-80498635D01*
X134199500Y-80562669D01*
X134199500Y-82398950D01*
X134179815Y-82465989D01*
X134127011Y-82511744D01*
X134057853Y-82521688D01*
X133994297Y-82492663D01*
X133957569Y-82437268D01*
X133915748Y-82308555D01*
X133915747Y-82308552D01*
X133833571Y-82147275D01*
X133833566Y-82147267D01*
X133822085Y-82131466D01*
X133332962Y-82620589D01*
X133315925Y-82557007D01*
X133250099Y-82442993D01*
X133157007Y-82349901D01*
X133042993Y-82284075D01*
X132979409Y-82267037D01*
X133468533Y-81777913D01*
X133452730Y-81766431D01*
X133291447Y-81684252D01*
X133291444Y-81684251D01*
X133119293Y-81628317D01*
X132957720Y-81602726D01*
X132894585Y-81572797D01*
X132857654Y-81513485D01*
X132858652Y-81443623D01*
X132897262Y-81385390D01*
X132957720Y-81357780D01*
X132985563Y-81353370D01*
X133119409Y-81332171D01*
X133291639Y-81276211D01*
X133452994Y-81193996D01*
X133599501Y-81087553D01*
X133727553Y-80959501D01*
X133833996Y-80812994D01*
X133916211Y-80651639D01*
X133945119Y-80562669D01*
X133957569Y-80524351D01*
X133997006Y-80466676D01*
X134061364Y-80439477D01*
X134130211Y-80451391D01*
G37*
%TD.AperFunction*%
%TD*%
M02*
