%TF.GenerationSoftware,KiCad,Pcbnew,10.0.1*%
%TF.CreationDate,2026-05-06T17:45:41+02:00*%
%TF.ProjectId,devboard,64657662-6f61-4726-942e-6b696361645f,rev?*%
%TF.SameCoordinates,Original*%
%TF.FileFunction,Paste,Top*%
%TF.FilePolarity,Positive*%
%FSLAX46Y46*%
G04 Gerber Fmt 4.6, Leading zero omitted, Abs format (unit mm)*
G04 Created by KiCad (PCBNEW 10.0.1) date 2026-05-06 17:45:41*
%MOMM*%
%LPD*%
G01*
G04 APERTURE LIST*
G04 Aperture macros list*
%AMRoundRect*
0 Rectangle with rounded corners*
0 $1 Rounding radius*
0 $2 $3 $4 $5 $6 $7 $8 $9 X,Y pos of 4 corners*
0 Add a 4 corners polygon primitive as box body*
4,1,4,$2,$3,$4,$5,$6,$7,$8,$9,$2,$3,0*
0 Add four circle primitives for the rounded corners*
1,1,$1+$1,$2,$3*
1,1,$1+$1,$4,$5*
1,1,$1+$1,$6,$7*
1,1,$1+$1,$8,$9*
0 Add four rect primitives between the rounded corners*
20,1,$1+$1,$2,$3,$4,$5,0*
20,1,$1+$1,$4,$5,$6,$7,0*
20,1,$1+$1,$6,$7,$8,$9,0*
20,1,$1+$1,$8,$9,$2,$3,0*%
G04 Aperture macros list end*
%ADD10RoundRect,0.140000X0.140000X0.170000X-0.140000X0.170000X-0.140000X-0.170000X0.140000X-0.170000X0*%
%ADD11RoundRect,0.135000X0.185000X-0.135000X0.185000X0.135000X-0.185000X0.135000X-0.185000X-0.135000X0*%
%ADD12RoundRect,0.140000X-0.170000X0.140000X-0.170000X-0.140000X0.170000X-0.140000X0.170000X0.140000X0*%
%ADD13RoundRect,0.135000X-0.185000X0.135000X-0.185000X-0.135000X0.185000X-0.135000X0.185000X0.135000X0*%
%ADD14RoundRect,0.150000X0.150000X0.575000X-0.150000X0.575000X-0.150000X-0.575000X0.150000X-0.575000X0*%
%ADD15RoundRect,0.075000X0.075000X0.650000X-0.075000X0.650000X-0.075000X-0.650000X0.075000X-0.650000X0*%
%ADD16RoundRect,0.135000X0.135000X0.185000X-0.135000X0.185000X-0.135000X-0.185000X0.135000X-0.185000X0*%
%ADD17RoundRect,0.135000X-0.135000X-0.185000X0.135000X-0.185000X0.135000X0.185000X-0.135000X0.185000X0*%
%ADD18RoundRect,0.162500X-0.650000X-0.162500X0.650000X-0.162500X0.650000X0.162500X-0.650000X0.162500X0*%
%ADD19RoundRect,0.249999X-0.395001X-0.395001X0.395001X-0.395001X0.395001X0.395001X-0.395001X0.395001X0*%
%ADD20RoundRect,0.050000X-0.387500X-0.050000X0.387500X-0.050000X0.387500X0.050000X-0.387500X0.050000X0*%
%ADD21RoundRect,0.050000X-0.050000X-0.387500X0.050000X-0.387500X0.050000X0.387500X-0.050000X0.387500X0*%
%ADD22RoundRect,0.140000X0.170000X-0.140000X0.170000X0.140000X-0.170000X0.140000X-0.170000X-0.140000X0*%
%ADD23RoundRect,0.200000X-0.200000X-0.800000X0.200000X-0.800000X0.200000X0.800000X-0.200000X0.800000X0*%
%ADD24RoundRect,0.140000X-0.140000X-0.170000X0.140000X-0.170000X0.140000X0.170000X-0.140000X0.170000X0*%
%ADD25RoundRect,0.250000X-0.450000X-0.350000X0.450000X-0.350000X0.450000X0.350000X-0.450000X0.350000X0*%
G04 APERTURE END LIST*
D10*
%TO.C,C16*%
X128200000Y-121200000D03*
X127240000Y-121200000D03*
%TD*%
D11*
%TO.C,R7*%
X118450000Y-91960000D03*
X118450000Y-90940000D03*
%TD*%
D12*
%TO.C,C10*%
X125100000Y-117170000D03*
X125100000Y-118130000D03*
%TD*%
%TO.C,C8*%
X125200000Y-123420000D03*
X125200000Y-124380000D03*
%TD*%
D13*
%TO.C,R6*%
X118500000Y-88950000D03*
X118500000Y-89970000D03*
%TD*%
D10*
%TO.C,C9*%
X124030000Y-121350000D03*
X123070000Y-121350000D03*
%TD*%
D14*
%TO.C,J1*%
X126750000Y-82285000D03*
X125950000Y-82285000D03*
D15*
X124750000Y-82285000D03*
X123750000Y-82285000D03*
X123250000Y-82285000D03*
X122250000Y-82285000D03*
D14*
X121050000Y-82285000D03*
X120250000Y-82285000D03*
X120250000Y-82285000D03*
X121050000Y-82285000D03*
D15*
X121750000Y-82285000D03*
X122750000Y-82285000D03*
X124250000Y-82285000D03*
X125250000Y-82285000D03*
D14*
X125950000Y-82285000D03*
X126750000Y-82285000D03*
%TD*%
D16*
%TO.C,R5*%
X120420000Y-116200000D03*
X119400000Y-116200000D03*
%TD*%
D13*
%TO.C,R2*%
X117600000Y-81640000D03*
X117600000Y-82660000D03*
%TD*%
D17*
%TO.C,R3*%
X123900000Y-94750000D03*
X124920000Y-94750000D03*
%TD*%
D18*
%TO.C,U3*%
X120212500Y-89480000D03*
X120212500Y-90750000D03*
X120212500Y-92020000D03*
X120212500Y-93290000D03*
X127387500Y-93290000D03*
X127387500Y-92020000D03*
X127387500Y-90750000D03*
X127387500Y-89480000D03*
%TD*%
D10*
%TO.C,C3*%
X124050000Y-119250000D03*
X123090000Y-119250000D03*
%TD*%
D12*
%TO.C,C12*%
X127250000Y-117170000D03*
X127250000Y-118130000D03*
%TD*%
D17*
%TO.C,R4*%
X122680000Y-95850000D03*
X123700000Y-95850000D03*
%TD*%
D10*
%TO.C,C4*%
X124050000Y-120300000D03*
X123090000Y-120300000D03*
%TD*%
D19*
%TO.C,U1*%
X123112500Y-111100000D03*
X123112500Y-112700000D03*
X124712500Y-111100000D03*
X124712500Y-112700000D03*
D20*
X120475000Y-109300000D03*
X120475000Y-109700000D03*
X120475000Y-110100000D03*
X120475000Y-110500000D03*
X120475000Y-110900000D03*
X120475000Y-111300000D03*
X120475000Y-111700000D03*
X120475000Y-112100000D03*
X120475000Y-112500000D03*
X120475000Y-112900000D03*
X120475000Y-113300000D03*
X120475000Y-113700000D03*
X120475000Y-114100000D03*
X120475000Y-114500000D03*
D21*
X121312500Y-115337500D03*
X121712500Y-115337500D03*
X122112500Y-115337500D03*
X122512500Y-115337500D03*
X122912500Y-115337500D03*
X123312500Y-115337500D03*
X123712500Y-115337500D03*
X124112500Y-115337500D03*
X124512500Y-115337500D03*
X124912500Y-115337500D03*
X125312500Y-115337500D03*
X125712500Y-115337500D03*
X126112500Y-115337500D03*
X126512500Y-115337500D03*
D20*
X127350000Y-114500000D03*
X127350000Y-114100000D03*
X127350000Y-113700000D03*
X127350000Y-113300000D03*
X127350000Y-112900000D03*
X127350000Y-112500000D03*
X127350000Y-112100000D03*
X127350000Y-111700000D03*
X127350000Y-111300000D03*
X127350000Y-110900000D03*
X127350000Y-110500000D03*
X127350000Y-110100000D03*
X127350000Y-109700000D03*
X127350000Y-109300000D03*
D21*
X126512500Y-108462500D03*
X126112500Y-108462500D03*
X125712500Y-108462500D03*
X125312500Y-108462500D03*
X124912500Y-108462500D03*
X124512500Y-108462500D03*
X124112500Y-108462500D03*
X123712500Y-108462500D03*
X123312500Y-108462500D03*
X122912500Y-108462500D03*
X122512500Y-108462500D03*
X122112500Y-108462500D03*
X121712500Y-108462500D03*
X121312500Y-108462500D03*
%TD*%
D10*
%TO.C,C1*%
X124060000Y-117150000D03*
X123100000Y-117150000D03*
%TD*%
%TO.C,C6*%
X124010000Y-122400000D03*
X123050000Y-122400000D03*
%TD*%
D12*
%TO.C,C15*%
X117600000Y-118150000D03*
X117600000Y-119110000D03*
%TD*%
D22*
%TO.C,C5*%
X117600000Y-117130000D03*
X117600000Y-116170000D03*
%TD*%
D12*
%TO.C,C11*%
X126200000Y-117200000D03*
X126200000Y-118160000D03*
%TD*%
D23*
%TO.C,SW1*%
X117650000Y-122250000D03*
X121850000Y-122250000D03*
%TD*%
D16*
%TO.C,R1*%
X126520000Y-84550000D03*
X125500000Y-84550000D03*
%TD*%
D24*
%TO.C,C13*%
X127250000Y-119150000D03*
X128210000Y-119150000D03*
%TD*%
D25*
%TO.C,Y1*%
X119150000Y-119400000D03*
X121350000Y-119400000D03*
X121350000Y-117700000D03*
X119150000Y-117700000D03*
%TD*%
D10*
%TO.C,C7*%
X124030000Y-123400000D03*
X123070000Y-123400000D03*
%TD*%
%TO.C,C2*%
X124060000Y-118200000D03*
X123100000Y-118200000D03*
%TD*%
%TO.C,C14*%
X128210000Y-120200000D03*
X127250000Y-120200000D03*
%TD*%
M02*
