%TF.GenerationSoftware,KiCad,Pcbnew,10.0.1*%
%TF.CreationDate,2026-06-25T09:50:18+02:00*%
%TF.ProjectId,devboard,64657662-6f61-4726-942e-6b696361645f,rev?*%
%TF.SameCoordinates,Original*%
%TF.FileFunction,Copper,L1,Top*%
%TF.FilePolarity,Positive*%
%FSLAX46Y46*%
G04 Gerber Fmt 4.6, Leading zero omitted, Abs format (unit mm)*
G04 Created by KiCad (PCBNEW 10.0.1) date 2026-06-25 09:50:18*
%MOMM*%
%LPD*%
G01*
G04 APERTURE LIST*
G04 Aperture macros list*
%AMRoundRect*
0 Rectangle with rounded corners*
0 $1 Rounding radius*
0 $2 $3 $4 $5 $6 $7 $8 $9 X,Y pos of 4 corners*
0 Add a 4 corners polygon primitive as box body*
4,1,4,$2,$3,$4,$5,$6,$7,$8,$9,$2,$3,0*
0 Add four circle primitives for the rounded corners*
1,1,$1+$1,$2,$3*
1,1,$1+$1,$4,$5*
1,1,$1+$1,$6,$7*
1,1,$1+$1,$8,$9*
0 Add four rect primitives between the rounded corners*
20,1,$1+$1,$2,$3,$4,$5,0*
20,1,$1+$1,$4,$5,$6,$7,0*
20,1,$1+$1,$6,$7,$8,$9,0*
20,1,$1+$1,$8,$9,$2,$3,0*%
G04 Aperture macros list end*
%TA.AperFunction,ComponentPad*%
%ADD10O,1.050000X1.500000*%
%TD*%
%TA.AperFunction,ComponentPad*%
%ADD11R,1.050000X1.500000*%
%TD*%
%TA.AperFunction,ComponentPad*%
%ADD12O,1.000000X1.600000*%
%TD*%
%TA.AperFunction,ComponentPad*%
%ADD13O,1.000000X2.100000*%
%TD*%
%TA.AperFunction,SMDPad,CuDef*%
%ADD14RoundRect,0.150000X0.150000X0.575000X-0.150000X0.575000X-0.150000X-0.575000X0.150000X-0.575000X0*%
%TD*%
%TA.AperFunction,SMDPad,CuDef*%
%ADD15RoundRect,0.075000X0.075000X0.650000X-0.075000X0.650000X-0.075000X-0.650000X0.075000X-0.650000X0*%
%TD*%
%TA.AperFunction,SMDPad,CuDef*%
%ADD16RoundRect,0.140000X0.170000X-0.140000X0.170000X0.140000X-0.170000X0.140000X-0.170000X-0.140000X0*%
%TD*%
%TA.AperFunction,SMDPad,CuDef*%
%ADD17RoundRect,0.135000X-0.185000X0.135000X-0.185000X-0.135000X0.185000X-0.135000X0.185000X0.135000X0*%
%TD*%
%TA.AperFunction,SMDPad,CuDef*%
%ADD18RoundRect,0.140000X0.140000X0.170000X-0.140000X0.170000X-0.140000X-0.170000X0.140000X-0.170000X0*%
%TD*%
%TA.AperFunction,SMDPad,CuDef*%
%ADD19RoundRect,0.135000X-0.135000X-0.185000X0.135000X-0.185000X0.135000X0.185000X-0.135000X0.185000X0*%
%TD*%
%TA.AperFunction,SMDPad,CuDef*%
%ADD20RoundRect,0.135000X0.185000X-0.135000X0.185000X0.135000X-0.185000X0.135000X-0.185000X-0.135000X0*%
%TD*%
%TA.AperFunction,SMDPad,CuDef*%
%ADD21RoundRect,0.162500X-0.650000X-0.162500X0.650000X-0.162500X0.650000X0.162500X-0.650000X0.162500X0*%
%TD*%
%TA.AperFunction,SMDPad,CuDef*%
%ADD22RoundRect,0.140000X0.021213X-0.219203X0.219203X-0.021213X-0.021213X0.219203X-0.219203X0.021213X0*%
%TD*%
%TA.AperFunction,SMDPad,CuDef*%
%ADD23RoundRect,0.140000X-0.170000X0.140000X-0.170000X-0.140000X0.170000X-0.140000X0.170000X0.140000X0*%
%TD*%
%TA.AperFunction,SMDPad,CuDef*%
%ADD24RoundRect,0.050000X-0.387500X-0.050000X0.387500X-0.050000X0.387500X0.050000X-0.387500X0.050000X0*%
%TD*%
%TA.AperFunction,SMDPad,CuDef*%
%ADD25RoundRect,0.050000X-0.050000X-0.387500X0.050000X-0.387500X0.050000X0.387500X-0.050000X0.387500X0*%
%TD*%
%TA.AperFunction,HeatsinkPad*%
%ADD26R,3.200000X3.200000*%
%TD*%
%TA.AperFunction,SMDPad,CuDef*%
%ADD27RoundRect,0.140000X-0.140000X-0.170000X0.140000X-0.170000X0.140000X0.170000X-0.140000X0.170000X0*%
%TD*%
%TA.AperFunction,ComponentPad*%
%ADD28R,1.700000X1.700000*%
%TD*%
%TA.AperFunction,ComponentPad*%
%ADD29C,1.700000*%
%TD*%
%TA.AperFunction,SMDPad,CuDef*%
%ADD30RoundRect,0.200000X-0.200000X-0.800000X0.200000X-0.800000X0.200000X0.800000X-0.200000X0.800000X0*%
%TD*%
%TA.AperFunction,SMDPad,CuDef*%
%ADD31RoundRect,0.250000X-0.450000X-0.350000X0.450000X-0.350000X0.450000X0.350000X-0.450000X0.350000X0*%
%TD*%
%TA.AperFunction,ViaPad*%
%ADD32C,0.600000*%
%TD*%
%TA.AperFunction,Conductor*%
%ADD33C,0.200000*%
%TD*%
G04 APERTURE END LIST*
D10*
%TO.P,U4,3,VO_3*%
%TO.N,+3V3*%
X120670000Y-86800000D03*
%TO.P,U4,2,VI_2*%
%TO.N,VBUS*%
X119400000Y-86800000D03*
D11*
%TO.P,U4,1,GND_1*%
%TO.N,GND*%
X118130000Y-86800000D03*
%TD*%
D12*
%TO.P,J1,SH,SHIELD_SH*%
%TO.N,GND*%
X119180000Y-77190000D03*
D13*
X119180000Y-81370000D03*
D12*
X127820000Y-77190000D03*
D13*
X127820000Y-81370000D03*
D14*
%TO.P,J1,B12,GND_B12*%
X126750000Y-82285000D03*
%TO.P,J1,B9,VBUS_B9*%
%TO.N,VBUS*%
X125950000Y-82285000D03*
D15*
%TO.P,J1,B8,SBU2_B8*%
%TO.N,unconnected-(J1-SBU2-PadB8)*%
X125250000Y-82285000D03*
%TO.P,J1,B7,D-_B7*%
%TO.N,D-*%
X124250000Y-82285000D03*
%TO.P,J1,B6,D+_B6*%
%TO.N,D+*%
X122750000Y-82285000D03*
%TO.P,J1,B5,CC2_B5*%
%TO.N,Net-(J1-CC2)*%
X121750000Y-82285000D03*
D14*
%TO.P,J1,B4,VBUS_B4*%
%TO.N,VBUS*%
X121050000Y-82285000D03*
%TO.P,J1,B1,GND_B1*%
%TO.N,GND*%
X120250000Y-82285000D03*
%TO.P,J1,A12,GND_A12*%
X120250000Y-82285000D03*
%TO.P,J1,A9,VBUS_A9*%
%TO.N,VBUS*%
X121050000Y-82285000D03*
D15*
%TO.P,J1,A8,SBU1_A8*%
%TO.N,unconnected-(J1-SBU1-PadA8)*%
X122250000Y-82285000D03*
%TO.P,J1,A7,D-_A7*%
%TO.N,D-*%
X123250000Y-82285000D03*
%TO.P,J1,A6,D+_A6*%
%TO.N,D+*%
X123750000Y-82285000D03*
%TO.P,J1,A5,CC1_A5*%
%TO.N,Net-(J1-CC1)*%
X124750000Y-82285000D03*
D14*
%TO.P,J1,A4,VBUS_A4*%
%TO.N,VBUS*%
X125950000Y-82285000D03*
%TO.P,J1,A1,GND_A1*%
%TO.N,GND*%
X126750000Y-82285000D03*
%TD*%
D16*
%TO.P,C16,1*%
%TO.N,GND*%
X118400000Y-121860000D03*
%TO.P,C16,2*%
%TO.N,Net-(C16-Pad2)*%
X118400000Y-120900000D03*
%TD*%
D17*
%TO.P,R7,1*%
%TO.N,Net-(R7-Pad1)*%
X118700000Y-91490000D03*
%TO.P,R7,2*%
%TO.N,QSPI_SCLK*%
X118700000Y-92510000D03*
%TD*%
D16*
%TO.P,C10,1*%
%TO.N,+1V1*%
X126550000Y-105060000D03*
%TO.P,C10,2*%
%TO.N,GND*%
X126550000Y-104100000D03*
%TD*%
D18*
%TO.P,C8,1*%
%TO.N,+3V3*%
X118500000Y-90400000D03*
%TO.P,C8,2*%
%TO.N,GND*%
X117540000Y-90400000D03*
%TD*%
D19*
%TO.P,R6,1*%
%TO.N,+3V3*%
X119450000Y-90500000D03*
%TO.P,R6,2*%
%TO.N,QSPI_SCLK*%
X120470000Y-90500000D03*
%TD*%
D18*
%TO.P,C9,1*%
%TO.N,+3V3*%
X130460000Y-88950000D03*
%TO.P,C9,2*%
%TO.N,GND*%
X129500000Y-88950000D03*
%TD*%
D17*
%TO.P,R5,1*%
%TO.N,XOUT*%
X118400000Y-118940000D03*
%TO.P,R5,2*%
%TO.N,Net-(C16-Pad2)*%
X118400000Y-119960000D03*
%TD*%
D20*
%TO.P,R2,1*%
%TO.N,GND*%
X122750000Y-85020000D03*
%TO.P,R2,2*%
%TO.N,Net-(J1-CC2)*%
X122750000Y-84000000D03*
%TD*%
D17*
%TO.P,R3,1*%
%TO.N,D-*%
X125500000Y-104080000D03*
%TO.P,R3,2*%
%TO.N,Net-(U1-USB_DM)*%
X125500000Y-105100000D03*
%TD*%
D21*
%TO.P,U3,1,~{CS}_1*%
%TO.N,QSPI_SCLK*%
X120350000Y-91640000D03*
%TO.P,U3,2,DO/IO_{1}_2*%
%TO.N,QSPI_SD1*%
X120350000Y-92910000D03*
%TO.P,U3,3,~{WP}/IO_{2}_3*%
%TO.N,QSPI_SD2*%
X120350000Y-94180000D03*
%TO.P,U3,4,GND_4*%
%TO.N,GND*%
X120350000Y-95450000D03*
%TO.P,U3,5,DI/IO_{0}_5*%
%TO.N,QSPI_SD0*%
X127525000Y-95450000D03*
%TO.P,U3,6,CLK_6*%
%TO.N,QSPI_SS*%
X127525000Y-94180000D03*
%TO.P,U3,7,~{HOLD}/~{RESET}/IO_{3}_7*%
%TO.N,QSPI_SD3*%
X127525000Y-92910000D03*
%TO.P,U3,8,VCC_8*%
%TO.N,+3V3*%
X127525000Y-91640000D03*
%TD*%
D22*
%TO.P,C3,1*%
%TO.N,+3V3*%
X126521178Y-106778822D03*
%TO.P,C3,2*%
%TO.N,GND*%
X127200000Y-106100000D03*
%TD*%
D23*
%TO.P,C12,1*%
%TO.N,+1V1*%
X125000000Y-119020000D03*
%TO.P,C12,2*%
%TO.N,GND*%
X125000000Y-119980000D03*
%TD*%
D17*
%TO.P,R4,1*%
%TO.N,D+*%
X124450000Y-104100000D03*
%TO.P,R4,2*%
%TO.N,Net-(U1-USB_DP)*%
X124450000Y-105120000D03*
%TD*%
D22*
%TO.P,C4,1*%
%TO.N,+3V3*%
X127400000Y-107400000D03*
%TO.P,C4,2*%
%TO.N,GND*%
X128078822Y-106721178D03*
%TD*%
D24*
%TO.P,U1,1,IOVDD_1*%
%TO.N,+3V3*%
X120475000Y-109300000D03*
%TO.P,U1,2,GPIO0_2*%
%TO.N,GPIO_0*%
X120475000Y-109700000D03*
%TO.P,U1,3,GPIO1_3*%
%TO.N,GPIO_1*%
X120475000Y-110100000D03*
%TO.P,U1,4,GPIO2_4*%
%TO.N,GPIO_2*%
X120475000Y-110500000D03*
%TO.P,U1,5,GPIO3_5*%
%TO.N,GPIO_3*%
X120475000Y-110900000D03*
%TO.P,U1,6,GPIO4_6*%
%TO.N,GPIO_4*%
X120475000Y-111300000D03*
%TO.P,U1,7,GPIO5_7*%
%TO.N,GPIO_5*%
X120475000Y-111700000D03*
%TO.P,U1,8,GPIO6_8*%
%TO.N,GPIO_6*%
X120475000Y-112100000D03*
%TO.P,U1,9,GPIO7_9*%
%TO.N,GPIO_7*%
X120475000Y-112500000D03*
%TO.P,U1,10,IOVDD_10*%
%TO.N,+3V3*%
X120475000Y-112900000D03*
%TO.P,U1,11,GPIO8_11*%
%TO.N,GPIO_8*%
X120475000Y-113300000D03*
%TO.P,U1,12,GPIO9_12*%
%TO.N,GPIO_9*%
X120475000Y-113700000D03*
%TO.P,U1,13,GPIO10_13*%
%TO.N,GPIO_10*%
X120475000Y-114100000D03*
%TO.P,U1,14,GPIO11_14*%
%TO.N,GPIO_11*%
X120475000Y-114500000D03*
D25*
%TO.P,U1,15,GPIO12_15*%
%TO.N,GPIO_12*%
X121312500Y-115337500D03*
%TO.P,U1,16,GPIO13_16*%
%TO.N,GPIO_13*%
X121712500Y-115337500D03*
%TO.P,U1,17,GPIO14_17*%
%TO.N,GPIO_14*%
X122112500Y-115337500D03*
%TO.P,U1,18,GPIO15_18*%
%TO.N,GPIO_15*%
X122512500Y-115337500D03*
%TO.P,U1,19,TESTEN_19*%
%TO.N,GND*%
X122912500Y-115337500D03*
%TO.P,U1,20,XIN_20*%
%TO.N,XIN*%
X123312500Y-115337500D03*
%TO.P,U1,21,XOUT_21*%
%TO.N,XOUT*%
X123712500Y-115337500D03*
%TO.P,U1,22,IOVDD_22*%
%TO.N,+3V3*%
X124112500Y-115337500D03*
%TO.P,U1,23,DVDD_23*%
%TO.N,+1V1*%
X124512500Y-115337500D03*
%TO.P,U1,24,SWCLK_24*%
%TO.N,SWCLK*%
X124912500Y-115337500D03*
%TO.P,U1,25,SWDIO_25*%
%TO.N,SWD*%
X125312500Y-115337500D03*
%TO.P,U1,26,RUN_26*%
%TO.N,RUN*%
X125712500Y-115337500D03*
%TO.P,U1,27,GPIO16_27*%
%TO.N,GPIO_16*%
X126112500Y-115337500D03*
%TO.P,U1,28,GPIO17_28*%
%TO.N,GPIO_17*%
X126512500Y-115337500D03*
D24*
%TO.P,U1,29,GPIO18_29*%
%TO.N,GPIO_18*%
X127350000Y-114500000D03*
%TO.P,U1,30,GPIO19_30*%
%TO.N,GPIO_19*%
X127350000Y-114100000D03*
%TO.P,U1,31,GPIO20_31*%
%TO.N,GPIO_20*%
X127350000Y-113700000D03*
%TO.P,U1,32,GPIO21_32*%
%TO.N,GPIO_21*%
X127350000Y-113300000D03*
%TO.P,U1,33,IOVDD_33*%
%TO.N,+3V3*%
X127350000Y-112900000D03*
%TO.P,U1,34,GPIO22_34*%
%TO.N,GPIO_22*%
X127350000Y-112500000D03*
%TO.P,U1,35,GPIO23_35*%
%TO.N,GPIO_23*%
X127350000Y-112100000D03*
%TO.P,U1,36,GPIO24_36*%
%TO.N,GPIO_24*%
X127350000Y-111700000D03*
%TO.P,U1,37,GPIO25_37*%
%TO.N,unconnected-(U1-GPIO25-Pad37)*%
X127350000Y-111300000D03*
%TO.P,U1,38,GPIO26/ADC0_38*%
%TO.N,GPIO_26{slash}ADC_0*%
X127350000Y-110900000D03*
%TO.P,U1,39,GPIO27/ADC1_39*%
%TO.N,GPIO_27{slash}ADC_1*%
X127350000Y-110500000D03*
%TO.P,U1,40,GPIO28/ADC2_40*%
%TO.N,GPIO_28{slash}ADC_2*%
X127350000Y-110100000D03*
%TO.P,U1,41,GPIO29/ADC3_41*%
%TO.N,GPIO_29{slash}ADC_3*%
X127350000Y-109700000D03*
%TO.P,U1,42,IOVDD_42*%
%TO.N,+3V3*%
X127350000Y-109300000D03*
D25*
%TO.P,U1,43,ADC_AVDD_43*%
X126512500Y-108462500D03*
%TO.P,U1,44,VREG_VIN_44*%
X126112500Y-108462500D03*
%TO.P,U1,45,VREG_VOUT_45*%
%TO.N,+1V1*%
X125712500Y-108462500D03*
%TO.P,U1,46,USB_DM_46*%
%TO.N,Net-(U1-USB_DM)*%
X125312500Y-108462500D03*
%TO.P,U1,47,USB_DP_47*%
%TO.N,Net-(U1-USB_DP)*%
X124912500Y-108462500D03*
%TO.P,U1,48,USB_VDD_48*%
%TO.N,+3V3*%
X124512500Y-108462500D03*
%TO.P,U1,49,IOVDD_49*%
X124112500Y-108462500D03*
%TO.P,U1,50,DVDD_50*%
%TO.N,+1V1*%
X123712500Y-108462500D03*
%TO.P,U1,51,QSPI_SD3_51*%
%TO.N,QSPI_SD3*%
X123312500Y-108462500D03*
%TO.P,U1,52,QSPI_SCLK_52*%
%TO.N,QSPI_SCLK*%
X122912500Y-108462500D03*
%TO.P,U1,53,QSPI_SD0_53*%
%TO.N,QSPI_SD0*%
X122512500Y-108462500D03*
%TO.P,U1,54,QSPI_SD2_54*%
%TO.N,QSPI_SD2*%
X122112500Y-108462500D03*
%TO.P,U1,55,QSPI_SD1_55*%
%TO.N,QSPI_SD1*%
X121712500Y-108462500D03*
%TO.P,U1,56,~{QSPI_SS}_56*%
%TO.N,QSPI_SS*%
X121312500Y-108462500D03*
D26*
%TO.P,U1,57,GND_57*%
%TO.N,GND*%
X123912500Y-111900000D03*
%TD*%
D16*
%TO.P,C1,1*%
%TO.N,+3V3*%
X122750000Y-86920000D03*
%TO.P,C1,2*%
%TO.N,GND*%
X122750000Y-85960000D03*
%TD*%
%TO.P,C6,1*%
%TO.N,+3V3*%
X120400000Y-107580000D03*
%TO.P,C6,2*%
%TO.N,GND*%
X120400000Y-106620000D03*
%TD*%
D27*
%TO.P,C15,1*%
%TO.N,GND*%
X121740000Y-117750000D03*
%TO.P,C15,2*%
%TO.N,XIN*%
X122700000Y-117750000D03*
%TD*%
D28*
%TO.P,J4,1,Pin_1_1*%
%TO.N,SWD*%
X120910000Y-127500000D03*
D29*
%TO.P,J4,2,Pin_2_2*%
%TO.N,GND*%
X123450000Y-127500000D03*
%TO.P,J4,3,Pin_3_3*%
%TO.N,SWCLK*%
X125990000Y-127500000D03*
%TD*%
D16*
%TO.P,C5,1*%
%TO.N,+3V3*%
X124250000Y-107210000D03*
%TO.P,C5,2*%
%TO.N,GND*%
X124250000Y-106250000D03*
%TD*%
D23*
%TO.P,C11,1*%
%TO.N,+1V1*%
X124350000Y-116550000D03*
%TO.P,C11,2*%
%TO.N,GND*%
X124350000Y-117510000D03*
%TD*%
D30*
%TO.P,SW1,1,1_1*%
%TO.N,GND*%
X119620000Y-123800000D03*
%TO.P,SW1,2,2_2*%
%TO.N,Net-(R7-Pad1)*%
X123820000Y-123800000D03*
%TD*%
D28*
%TO.P,J3,1,Pin_1_1*%
%TO.N,VBUS*%
X132850000Y-77670000D03*
D29*
%TO.P,J3,2,Pin_2_2*%
%TO.N,GPIO_29{slash}ADC_3*%
X132850000Y-80210000D03*
%TO.P,J3,3,Pin_3_3*%
%TO.N,GND*%
X132850000Y-82750000D03*
%TO.P,J3,4,Pin_4_4*%
%TO.N,GPIO_28{slash}ADC_2*%
X132850000Y-85290000D03*
%TO.P,J3,5,Pin_5_5*%
%TO.N,+3V3*%
X132850000Y-87830000D03*
%TO.P,J3,6,Pin_6_6*%
%TO.N,GPIO_27{slash}ADC_1*%
X132850000Y-90370000D03*
%TO.P,J3,7,Pin_7_7*%
%TO.N,GPIO_26{slash}ADC_0*%
X132850000Y-92910000D03*
%TO.P,J3,8,Pin_8_8*%
%TO.N,GND*%
X132850000Y-95450000D03*
%TO.P,J3,9,Pin_9_9*%
%TO.N,GPIO_24*%
X132850000Y-97990000D03*
%TO.P,J3,10,Pin_10_10*%
%TO.N,GPIO_23*%
X132850000Y-100530000D03*
%TO.P,J3,11,Pin_11_11*%
%TO.N,RUN*%
X132850000Y-103070000D03*
%TO.P,J3,12,Pin_12_12*%
%TO.N,GPIO_22*%
X132850000Y-105610000D03*
%TO.P,J3,13,Pin_13_13*%
%TO.N,GND*%
X132850000Y-108150000D03*
%TO.P,J3,14,Pin_14_14*%
%TO.N,GPIO_18*%
X132850000Y-110690000D03*
%TO.P,J3,15,Pin_15_15*%
%TO.N,GPIO_19*%
X132850000Y-113230000D03*
%TO.P,J3,16,Pin_16_16*%
%TO.N,GPIO_20*%
X132850000Y-115770000D03*
%TO.P,J3,17,Pin_17_17*%
%TO.N,GPIO_21*%
X132850000Y-118310000D03*
%TO.P,J3,18,Pin_18_18*%
%TO.N,GND*%
X132850000Y-120850000D03*
%TO.P,J3,19,Pin_19_19*%
%TO.N,GPIO_17*%
X132850000Y-123390000D03*
%TO.P,J3,20,Pin_20_20*%
%TO.N,GPIO_16*%
X132850000Y-125930000D03*
%TD*%
D20*
%TO.P,R1,1*%
%TO.N,GND*%
X124900000Y-85020000D03*
%TO.P,R1,2*%
%TO.N,Net-(J1-CC1)*%
X124900000Y-84000000D03*
%TD*%
D16*
%TO.P,C17,1*%
%TO.N,+3V3*%
X127550000Y-90480000D03*
%TO.P,C17,2*%
%TO.N,GND*%
X127550000Y-89520000D03*
%TD*%
D27*
%TO.P,C13,1*%
%TO.N,GND*%
X118440000Y-89400000D03*
%TO.P,C13,2*%
%TO.N,VBUS*%
X119400000Y-89400000D03*
%TD*%
D31*
%TO.P,Y1,1,1_1*%
%TO.N,Net-(C16-Pad2)*%
X119950000Y-120900000D03*
%TO.P,Y1,2,G_2*%
%TO.N,GND*%
X122150000Y-120900000D03*
%TO.P,Y1,3,3_3*%
%TO.N,XIN*%
X122150000Y-119200000D03*
%TO.P,Y1,4,G_4*%
%TO.N,GND*%
X119950000Y-119200000D03*
%TD*%
D28*
%TO.P,J2,1,Pin_1_1*%
%TO.N,GPIO_0*%
X113950000Y-77580000D03*
D29*
%TO.P,J2,2,Pin_2_2*%
%TO.N,GPIO_1*%
X113950000Y-80120000D03*
%TO.P,J2,3,Pin_3_3*%
%TO.N,GND*%
X113950000Y-82660000D03*
%TO.P,J2,4,Pin_4_4*%
%TO.N,GPIO_2*%
X113950000Y-85200000D03*
%TO.P,J2,5,Pin_5_5*%
%TO.N,GPIO_3*%
X113950000Y-87740000D03*
%TO.P,J2,6,Pin_6_6*%
%TO.N,GPIO_4*%
X113950000Y-90280000D03*
%TO.P,J2,7,Pin_7_7*%
%TO.N,GPIO_5*%
X113950000Y-92820000D03*
%TO.P,J2,8,Pin_8_8*%
%TO.N,GND*%
X113950000Y-95360000D03*
%TO.P,J2,9,Pin_9_9*%
%TO.N,GPIO_6*%
X113950000Y-97900000D03*
%TO.P,J2,10,Pin_10_10*%
%TO.N,GPIO_7*%
X113950000Y-100440000D03*
%TO.P,J2,11,Pin_11_11*%
%TO.N,GPIO_8*%
X113950000Y-102980000D03*
%TO.P,J2,12,Pin_12_12*%
%TO.N,GPIO_9*%
X113950000Y-105520000D03*
%TO.P,J2,13,Pin_13_13*%
%TO.N,GND*%
X113950000Y-108060000D03*
%TO.P,J2,14,Pin_14_14*%
%TO.N,GPIO_10*%
X113950000Y-110600000D03*
%TO.P,J2,15,Pin_15_15*%
%TO.N,GPIO_11*%
X113950000Y-113140000D03*
%TO.P,J2,16,Pin_16_16*%
%TO.N,GPIO_12*%
X113950000Y-115680000D03*
%TO.P,J2,17,Pin_17_17*%
%TO.N,GPIO_13*%
X113950000Y-118220000D03*
%TO.P,J2,18,Pin_18_18*%
%TO.N,GND*%
X113950000Y-120760000D03*
%TO.P,J2,19,Pin_19_19*%
%TO.N,GPIO_14*%
X113950000Y-123300000D03*
%TO.P,J2,20,Pin_20_20*%
%TO.N,GPIO_15*%
X113950000Y-125840000D03*
%TD*%
D16*
%TO.P,C7,1*%
%TO.N,+3V3*%
X129150000Y-91660000D03*
%TO.P,C7,2*%
%TO.N,GND*%
X129150000Y-90700000D03*
%TD*%
D18*
%TO.P,C2,1*%
%TO.N,+3V3*%
X130480000Y-87900000D03*
%TO.P,C2,2*%
%TO.N,GND*%
X129520000Y-87900000D03*
%TD*%
%TO.P,C14,1*%
%TO.N,GND*%
X121360000Y-89400000D03*
%TO.P,C14,2*%
%TO.N,+3V3*%
X120400000Y-89400000D03*
%TD*%
D32*
%TO.N,GPIO_19*%
X130950000Y-113438526D03*
%TO.N,GPIO_20*%
X129150000Y-113500000D03*
%TO.N,GPIO_18*%
X130300000Y-114500000D03*
%TO.N,*%
X127750000Y-99350000D03*
X117000000Y-126450000D03*
X117000000Y-77950000D03*
X118900000Y-97300000D03*
X127350000Y-85850000D03*
%TO.N,GND*%
X119950000Y-117800000D03*
X122700000Y-89450000D03*
X123912499Y-105783176D03*
X130900000Y-120850000D03*
X120400000Y-105650000D03*
X121700000Y-85000000D03*
X129050000Y-124450000D03*
X122912500Y-114450000D03*
X128150000Y-107850000D03*
X132150000Y-104350000D03*
X127750000Y-105050000D03*
X117600000Y-88450000D03*
X124700000Y-120500000D03*
%TO.N,Net-(R7-Pad1)*%
X117800000Y-91500000D03*
X123800000Y-121400000D03*
%TO.N,QSPI_SCLK*%
X123112500Y-98081075D03*
X118700000Y-93200000D03*
%TO.N,+3V3*%
X126200000Y-112900000D03*
X123150000Y-87850000D03*
X121300000Y-112900000D03*
X124512500Y-109350000D03*
X126012502Y-111250000D03*
X126350000Y-90500000D03*
X123611060Y-114060106D03*
X126250000Y-112100000D03*
%TO.N,+1V1*%
X123100000Y-109799998D03*
X124600000Y-114200000D03*
%TO.N,XOUT*%
X123700000Y-118500000D03*
X117650000Y-118950000D03*
%TO.N,QSPI_SD1*%
X123150000Y-95200000D03*
X122219769Y-94281701D03*
%TO.N,QSPI_SD2*%
X122824265Y-96374265D03*
X121692892Y-95242892D03*
%TO.N,QSPI_SD0*%
X123175000Y-97093283D03*
X124825000Y-95450000D03*
%TO.N,QSPI_SS*%
X124825000Y-94150000D03*
X123150000Y-94200000D03*
%TO.N,QSPI_SD3*%
X126000000Y-92900000D03*
X123512500Y-103577425D03*
%TO.N,SWD*%
X125850000Y-114150000D03*
%TO.N,GPIO_16*%
X127006601Y-116050001D03*
%TO.N,GPIO_17*%
X128100000Y-115350000D03*
%TO.N,GPIO_21*%
X128350000Y-113100000D03*
%TO.N,GPIO_22*%
X129500000Y-112500000D03*
%TO.N,GPIO_28{slash}ADC_2*%
X131000000Y-90568236D03*
%TO.N,GPIO_29{slash}ADC_3*%
X130400000Y-91139265D03*
%TD*%
%TO.N,GPIO_21*%
D33*
X128150000Y-113300000D02*
X128350000Y-113100000D01*
%TO.N,RUN*%
X131550000Y-114600000D02*
X129500000Y-116650000D01*
%TO.N,GPIO_20*%
X128950000Y-113700000D02*
X129150000Y-113500000D01*
%TO.N,GPIO_19*%
X130488527Y-113900000D02*
X130051471Y-113900000D01*
X130051471Y-113900000D02*
X129851471Y-114100000D01*
X130950000Y-113438526D02*
X130488527Y-113900000D01*
%TO.N,GND*%
X124250000Y-106250000D02*
X124250000Y-106120677D01*
X132850000Y-120850000D02*
X130900000Y-120850000D01*
X125000000Y-119980000D02*
X125000000Y-120200000D01*
X128078822Y-107778822D02*
X128150000Y-107850000D01*
X121360000Y-89400000D02*
X122650000Y-89400000D01*
X122912500Y-114450000D02*
X122912500Y-115337500D01*
X124250000Y-106120677D02*
X123912499Y-105783176D01*
X127200000Y-105600000D02*
X127750000Y-105050000D01*
X120400000Y-106620000D02*
X120400000Y-105650000D01*
X122750000Y-85020000D02*
X121720000Y-85020000D01*
X120000000Y-117750000D02*
X119950000Y-117800000D01*
X132850000Y-108150000D02*
X132850000Y-108350000D01*
X125000000Y-120200000D02*
X124700000Y-120500000D01*
X124350000Y-119330000D02*
X125000000Y-119980000D01*
X122650000Y-89400000D02*
X122700000Y-89450000D01*
X121740000Y-117750000D02*
X120000000Y-117750000D01*
X127200000Y-106100000D02*
X127200000Y-105600000D01*
X124350000Y-117510000D02*
X124350000Y-119330000D01*
X118440000Y-89400000D02*
X118440000Y-89290000D01*
X121720000Y-85020000D02*
X121700000Y-85000000D01*
X128078822Y-106721178D02*
X128078822Y-107778822D01*
X118440000Y-89290000D02*
X117600000Y-88450000D01*
%TO.N,Net-(R7-Pad1)*%
X118690000Y-91500000D02*
X118700000Y-91490000D01*
X123820000Y-123800000D02*
X123820000Y-121420000D01*
X123820000Y-121420000D02*
X123800000Y-121400000D01*
X117800000Y-91500000D02*
X118690000Y-91500000D01*
%TO.N,QSPI_SCLK*%
X119160000Y-92050000D02*
X119940000Y-92050000D01*
X119940000Y-92050000D02*
X120350000Y-91640000D01*
X122912500Y-98281075D02*
X123112500Y-98081075D01*
X122912500Y-108462500D02*
X122912500Y-98281075D01*
X118700000Y-92510000D02*
X119160000Y-92050000D01*
X120350000Y-90620000D02*
X120470000Y-90500000D01*
X120350000Y-91640000D02*
X120350000Y-90620000D01*
X118700000Y-93200000D02*
X118700000Y-92510000D01*
%TO.N,VBUS*%
X125950000Y-82285000D02*
X125950000Y-81560001D01*
X125950000Y-81560001D02*
X125249999Y-80860000D01*
X132230000Y-78290000D02*
X132850000Y-77670000D01*
X121050000Y-83000000D02*
X119400000Y-84650000D01*
X125715000Y-82050000D02*
X125715000Y-80560406D01*
X121050000Y-82285000D02*
X121050000Y-83000000D01*
X119400000Y-89400000D02*
X119400000Y-86800000D01*
X119400000Y-84650000D02*
X119400000Y-86800000D01*
X121050000Y-81727590D02*
X121050000Y-82285000D01*
X125249999Y-80860000D02*
X121917590Y-80860000D01*
X125950000Y-82285000D02*
X125715000Y-82050000D01*
X121917590Y-80860000D02*
X121050000Y-81727590D01*
X125715000Y-80560406D02*
X127985406Y-78290000D01*
X127985406Y-78290000D02*
X132230000Y-78290000D01*
%TO.N,+3V3*%
X122750000Y-86920000D02*
X122750000Y-87450000D01*
X126512500Y-108462500D02*
X126512500Y-108287500D01*
X126012502Y-111250000D02*
X126012502Y-111137498D01*
X126250000Y-111650000D02*
X126450000Y-111450000D01*
X130480000Y-88930000D02*
X130460000Y-88950000D01*
X126512500Y-108900000D02*
X126512500Y-108462500D01*
X124512500Y-108462500D02*
X124512500Y-107472500D01*
X120400000Y-107580000D02*
X120400000Y-109225000D01*
X126550000Y-109300000D02*
X127350000Y-109300000D01*
X129800000Y-90880000D02*
X129800000Y-91650000D01*
X127350000Y-112900000D02*
X126200000Y-112900000D01*
X132780000Y-87900000D02*
X132850000Y-87830000D01*
X132850000Y-87830000D02*
X129800000Y-90880000D01*
X121300000Y-112900000D02*
X120475000Y-112900000D01*
X124512500Y-107472500D02*
X124250000Y-107210000D01*
X126512500Y-108462500D02*
X126112500Y-108462500D01*
X124512500Y-109350000D02*
X124512500Y-108462500D01*
X120670000Y-89130000D02*
X120400000Y-89400000D01*
X120400000Y-109225000D02*
X120475000Y-109300000D01*
X124112500Y-108462500D02*
X124512500Y-108462500D01*
X126112500Y-108462500D02*
X126112500Y-107187500D01*
X126250000Y-112100000D02*
X126250000Y-111650000D01*
X119450000Y-90500000D02*
X119450000Y-90350000D01*
X128750000Y-108268173D02*
X127718173Y-109300000D01*
X122750000Y-86920000D02*
X120790000Y-86920000D01*
X129800000Y-91650000D02*
X129800000Y-93300000D01*
X128750000Y-94350000D02*
X128750000Y-108268173D01*
X127718173Y-109300000D02*
X127350000Y-109300000D01*
X129800000Y-93300000D02*
X128750000Y-94350000D01*
X120670000Y-86800000D02*
X120670000Y-89130000D01*
X127545000Y-91660000D02*
X127525000Y-91640000D01*
X118600000Y-90500000D02*
X118500000Y-90400000D01*
X126112500Y-107187500D02*
X126521178Y-106778822D01*
X126512500Y-108287500D02*
X127400000Y-107400000D01*
X123611060Y-114060106D02*
X124112500Y-114561546D01*
X126350000Y-90500000D02*
X127530000Y-90500000D01*
X129790000Y-91660000D02*
X129800000Y-91650000D01*
X120790000Y-86920000D02*
X120670000Y-86800000D01*
X126150000Y-109262500D02*
X126512500Y-108900000D01*
X129150000Y-91660000D02*
X127545000Y-91660000D01*
X130480000Y-87900000D02*
X130480000Y-88930000D01*
X126012502Y-111137498D02*
X126150000Y-111000000D01*
X122750000Y-87450000D02*
X123150000Y-87850000D01*
X119450000Y-90350000D02*
X120400000Y-89400000D01*
X126450000Y-111450000D02*
X126450000Y-109400000D01*
X130480000Y-87900000D02*
X132780000Y-87900000D01*
X127550000Y-91615000D02*
X127525000Y-91640000D01*
X124112500Y-114561546D02*
X124112500Y-115337500D01*
X127550000Y-90480000D02*
X127550000Y-91615000D01*
X129150000Y-91660000D02*
X129790000Y-91660000D01*
X119450000Y-90500000D02*
X118600000Y-90500000D01*
X126150000Y-111000000D02*
X126150000Y-109262500D01*
X127530000Y-90500000D02*
X127550000Y-90480000D01*
X126450000Y-109400000D02*
X126550000Y-109300000D01*
%TO.N,+1V1*%
X124512500Y-116537500D02*
X124500000Y-116550000D01*
X124350000Y-116550000D02*
X125000000Y-117200000D01*
X123712500Y-109398529D02*
X123831986Y-109518014D01*
X123831986Y-109518014D02*
X124263971Y-109950000D01*
X124512500Y-115337500D02*
X124512500Y-114287500D01*
X123712500Y-108462500D02*
X123712500Y-109398529D01*
X126550000Y-105060000D02*
X125712500Y-105897500D01*
X124512500Y-114287500D02*
X124600000Y-114200000D01*
X125712500Y-105897500D02*
X125712500Y-108462500D01*
X124263971Y-109950000D02*
X124761029Y-109950000D01*
X125712500Y-108998529D02*
X125712500Y-108462500D01*
X124761029Y-109950000D02*
X125712500Y-108998529D01*
X124512500Y-116387500D02*
X124350000Y-116550000D01*
X123550002Y-109799998D02*
X123831986Y-109518014D01*
X125000000Y-117200000D02*
X125000000Y-119020000D01*
X124512500Y-115337500D02*
X124512500Y-116387500D01*
X123100000Y-109799998D02*
X123550002Y-109799998D01*
%TO.N,Net-(J1-CC1)*%
X124900000Y-84000000D02*
X124750000Y-83850000D01*
X124750000Y-83850000D02*
X124750000Y-82285000D01*
%TO.N,D+*%
X123482410Y-83310000D02*
X123017590Y-83310000D01*
X123750000Y-83042410D02*
X123482410Y-83310000D01*
X123750000Y-82285000D02*
X123750000Y-83372501D01*
X123017590Y-83310000D02*
X122750000Y-83042410D01*
X124450000Y-103666397D02*
X124450000Y-104100000D01*
X123775000Y-102991397D02*
X124450000Y-103666397D01*
X122750000Y-83042410D02*
X122750000Y-82285000D01*
X123775000Y-83397501D02*
X123775000Y-102991397D01*
X123750000Y-82285000D02*
X123750000Y-83042410D01*
X123750000Y-83372501D02*
X123775000Y-83397501D01*
%TO.N,D-*%
X124225000Y-83397501D02*
X124225000Y-102805000D01*
X123517590Y-81260000D02*
X123982410Y-81260000D01*
X123250000Y-82285000D02*
X123250000Y-81527590D01*
X124225000Y-102805000D02*
X125500000Y-104080000D01*
X124250000Y-81527590D02*
X124250000Y-82285000D01*
X124250000Y-82285000D02*
X124250000Y-83372501D01*
X123250000Y-81527590D02*
X123517590Y-81260000D01*
X123982410Y-81260000D02*
X124250000Y-81527590D01*
X124250000Y-83372501D02*
X124225000Y-83397501D01*
%TO.N,Net-(J1-CC2)*%
X122430001Y-84000000D02*
X121750000Y-83319999D01*
X122750000Y-84000000D02*
X122430001Y-84000000D01*
X121750000Y-83319999D02*
X121750000Y-82285000D01*
%TO.N,XOUT*%
X117650000Y-118950000D02*
X118390000Y-118950000D01*
X123712500Y-118487500D02*
X123700000Y-118500000D01*
X118390000Y-118950000D02*
X118400000Y-118940000D01*
X123712500Y-115337500D02*
X123712500Y-118487500D01*
%TO.N,Net-(U1-USB_DM)*%
X125312500Y-105287500D02*
X125312500Y-108462500D01*
X125500000Y-105100000D02*
X125312500Y-105287500D01*
%TO.N,QSPI_SD1*%
X121712500Y-96637500D02*
X123150000Y-95200000D01*
X120838068Y-92900000D02*
X120360000Y-92900000D01*
X122219769Y-94281701D02*
X120838068Y-92900000D01*
X120360000Y-92900000D02*
X120350000Y-92910000D01*
X121712500Y-108462500D02*
X121712500Y-96637500D01*
%TO.N,QSPI_SD2*%
X122112500Y-108462500D02*
X122112500Y-97086030D01*
X120986693Y-94180000D02*
X120350000Y-94180000D01*
X121692892Y-95242892D02*
X121692892Y-94886199D01*
X122112500Y-97086030D02*
X122824265Y-96374265D01*
X121692892Y-94886199D02*
X120986693Y-94180000D01*
%TO.N,QSPI_SD0*%
X124825000Y-95450000D02*
X127525000Y-95450000D01*
X122512500Y-97755783D02*
X123175000Y-97093283D01*
X122512500Y-108462500D02*
X122512500Y-97755783D01*
%TO.N,QSPI_SS*%
X124825000Y-94150000D02*
X127495000Y-94150000D01*
X122417157Y-94932843D02*
X122417157Y-95367157D01*
X122417157Y-95367157D02*
X121312500Y-96471814D01*
X123150000Y-94200000D02*
X122417157Y-94932843D01*
X121312500Y-108462500D02*
X121312500Y-96471814D01*
X127495000Y-94150000D02*
X127525000Y-94180000D01*
X123150000Y-94350000D02*
X123150000Y-94200000D01*
%TO.N,QSPI_SD3*%
X123312500Y-108462500D02*
X123312500Y-103777425D01*
X127515000Y-92900000D02*
X127525000Y-92910000D01*
X126000000Y-92900000D02*
X127515000Y-92900000D01*
X123312500Y-103777425D02*
X123512500Y-103577425D01*
%TO.N,Net-(U1-USB_DP)*%
X124450000Y-105120000D02*
X124470000Y-105120000D01*
X124912500Y-105562500D02*
X124912500Y-108462500D01*
X124470000Y-105120000D02*
X124912500Y-105562500D01*
%TO.N,GPIO_0*%
X116400000Y-90467258D02*
X117150000Y-91217260D01*
X113950000Y-77580000D02*
X116050000Y-79680000D01*
X116050000Y-79680000D02*
X116050000Y-81654314D01*
X118850000Y-99405890D02*
X118850000Y-108999998D01*
X118850000Y-108999998D02*
X119550000Y-109700000D01*
X117150000Y-91217260D02*
X117150000Y-97705887D01*
X117150000Y-97705887D02*
X118850000Y-99405890D01*
X119941140Y-109700000D02*
X120475000Y-109700000D01*
X119550000Y-109700000D02*
X119941140Y-109700000D01*
X116050000Y-81654314D02*
X116400000Y-82004315D01*
X116400000Y-82004315D02*
X116400000Y-90467258D01*
%TO.N,GPIO_1*%
X116750000Y-97871572D02*
X118450000Y-99571575D01*
X119775455Y-110100000D02*
X120475000Y-110100000D01*
X116000000Y-82170000D02*
X116000000Y-90632943D01*
X113950000Y-80120000D02*
X116000000Y-82170000D01*
X116750000Y-91382945D02*
X116750000Y-97871572D01*
X118450000Y-109165683D02*
X119384315Y-110100000D01*
X116000000Y-90632943D02*
X116750000Y-91382945D01*
X119384315Y-110100000D02*
X119775455Y-110100000D01*
X118450000Y-99571575D02*
X118450000Y-109165683D01*
%TO.N,GPIO_2*%
X119218630Y-110500000D02*
X119941140Y-110500000D01*
X116350000Y-91548630D02*
X116350000Y-98037257D01*
X113950000Y-85200000D02*
X115600000Y-86850000D01*
X118050000Y-109331367D02*
X119218630Y-110500000D01*
X115600000Y-90798628D02*
X116350000Y-91548630D01*
X115600000Y-86850000D02*
X115600000Y-90798628D01*
X116350000Y-98037257D02*
X118050000Y-99737260D01*
X119941140Y-110500000D02*
X120475000Y-110500000D01*
X118050000Y-99737260D02*
X118050000Y-109331367D01*
%TO.N,GPIO_3*%
X115200000Y-90964314D02*
X115950000Y-91714315D01*
X117650000Y-109497053D02*
X119052945Y-110900000D01*
X117650000Y-99902945D02*
X117650000Y-109497053D01*
X119941140Y-110900000D02*
X120475000Y-110900000D01*
X119052945Y-110900000D02*
X119941140Y-110900000D01*
X115950000Y-91714315D02*
X115950000Y-98202942D01*
X113950000Y-87740000D02*
X115200000Y-88990000D01*
X115950000Y-98202942D02*
X117650000Y-99902945D01*
X115200000Y-88990000D02*
X115200000Y-90964314D01*
%TO.N,GPIO_4*%
X115550000Y-91880000D02*
X115550000Y-98368628D01*
X113950000Y-90280000D02*
X115550000Y-91880000D01*
X117250000Y-100068630D02*
X117250000Y-109662739D01*
X115550000Y-98368628D02*
X117250000Y-100068630D01*
X118887260Y-111300000D02*
X119775455Y-111300000D01*
X117250000Y-109662739D02*
X118887260Y-111300000D01*
X119775455Y-111300000D02*
X120475000Y-111300000D01*
%TO.N,GPIO_5*%
X116850000Y-109828425D02*
X118721575Y-111700000D01*
X116850000Y-100234315D02*
X116850000Y-109828425D01*
X113950000Y-92820000D02*
X115150000Y-94020000D01*
X115150000Y-94020000D02*
X115150000Y-98534314D01*
X115150000Y-98534314D02*
X116850000Y-100234315D01*
X118721575Y-111700000D02*
X119941140Y-111700000D01*
X119941140Y-111700000D02*
X120475000Y-111700000D01*
%TO.N,GPIO_6*%
X116450000Y-100400000D02*
X113950000Y-97900000D01*
X118555889Y-112100000D02*
X116450000Y-109994111D01*
X116450000Y-109994111D02*
X116450000Y-100400000D01*
X120475000Y-112100000D02*
X118555889Y-112100000D01*
%TO.N,GPIO_7*%
X118390203Y-112500000D02*
X120475000Y-112500000D01*
X116050000Y-110159797D02*
X118390203Y-112500000D01*
X113950000Y-100440000D02*
X116050000Y-102540000D01*
X116050000Y-102540000D02*
X116050000Y-110159797D01*
%TO.N,GPIO_8*%
X113950000Y-102980000D02*
X115650000Y-104680000D01*
X115650000Y-110325484D02*
X118624516Y-113300000D01*
X118624516Y-113300000D02*
X120475000Y-113300000D01*
X115650000Y-104680000D02*
X115650000Y-110325484D01*
%TO.N,GPIO_9*%
X115250000Y-110491170D02*
X118458830Y-113700000D01*
X113950000Y-105520000D02*
X115250000Y-106820000D01*
X115250000Y-106820000D02*
X115250000Y-110491170D01*
X118458830Y-113700000D02*
X120475000Y-113700000D01*
%TO.N,GPIO_10*%
X113950000Y-110600000D02*
X114450000Y-111100000D01*
X115293144Y-111100000D02*
X118293145Y-114100000D01*
X114450000Y-111100000D02*
X115293144Y-111100000D01*
X118293145Y-114100000D02*
X120475000Y-114100000D01*
%TO.N,GPIO_11*%
X118127459Y-114500000D02*
X116767459Y-113140000D01*
X120475000Y-114500000D02*
X118127459Y-114500000D01*
X116767459Y-113140000D02*
X113950000Y-113140000D01*
%TO.N,GPIO_12*%
X121312500Y-115337500D02*
X120970000Y-115680000D01*
X120970000Y-115680000D02*
X113950000Y-115680000D01*
%TO.N,GPIO_13*%
X121135685Y-116080000D02*
X116120000Y-116080000D01*
X121712500Y-115337500D02*
X121712500Y-115871360D01*
X121712500Y-115871360D02*
X121508860Y-116075000D01*
X113980000Y-118220000D02*
X113950000Y-118220000D01*
X116120000Y-116080000D02*
X113980000Y-118220000D01*
X121140685Y-116075000D02*
X121135685Y-116080000D01*
X121508860Y-116075000D02*
X121140685Y-116075000D01*
%TO.N,GPIO_14*%
X121306371Y-116475000D02*
X121301370Y-116480000D01*
X122112500Y-115337500D02*
X122112500Y-116037046D01*
X121674545Y-116475000D02*
X121306371Y-116475000D01*
X121301370Y-116480000D02*
X116285686Y-116480000D01*
X116285686Y-116480000D02*
X115300000Y-117465686D01*
X115300000Y-121101076D02*
X113950000Y-122451076D01*
X122112500Y-116037046D02*
X121674545Y-116475000D01*
X115300000Y-117465686D02*
X115300000Y-121101076D01*
X113950000Y-122451076D02*
X113950000Y-123300000D01*
%TO.N,XIN*%
X123312500Y-115337500D02*
X123312500Y-117137500D01*
X122150000Y-118300000D02*
X122700000Y-117750000D01*
X122150000Y-119200000D02*
X122150000Y-118300000D01*
X123312500Y-117137500D02*
X122700000Y-117750000D01*
%TO.N,SWCLK*%
X125990000Y-127500000D02*
X125990000Y-117540000D01*
X124912500Y-115871360D02*
X124912500Y-115337500D01*
X125050000Y-116600000D02*
X125050000Y-116008860D01*
X126110000Y-127380000D02*
X125990000Y-127500000D01*
X125050000Y-116008860D02*
X124912500Y-115871360D01*
X125990000Y-117540000D02*
X125050000Y-116600000D01*
%TO.N,SWD*%
X125312500Y-114687500D02*
X125312500Y-115337500D01*
X125850000Y-114150000D02*
X125312500Y-114687500D01*
%TO.N,RUN*%
X126325000Y-116475000D02*
X126150454Y-116475000D01*
X127255131Y-116650000D02*
X127255130Y-116650001D01*
X125712500Y-116037045D02*
X125712500Y-115337500D01*
X131550000Y-103650000D02*
X131550000Y-114600000D01*
X127255130Y-116650001D02*
X126758072Y-116650001D01*
X132130000Y-103070000D02*
X131550000Y-103650000D01*
X129500000Y-116650000D02*
X127255131Y-116650000D01*
X132850000Y-103070000D02*
X132130000Y-103070000D01*
X126758071Y-116650000D02*
X126500000Y-116650000D01*
X126150454Y-116475000D02*
X125712500Y-116037045D01*
X126758072Y-116650001D02*
X126758071Y-116650000D01*
X126500000Y-116650000D02*
X126325000Y-116475000D01*
%TO.N,GPIO_16*%
X126112500Y-115337500D02*
X126112500Y-115871360D01*
X126981601Y-116075000D02*
X127006601Y-116050001D01*
X126316140Y-116075000D02*
X126981601Y-116075000D01*
X126112500Y-115871360D02*
X126316140Y-116075000D01*
%TO.N,GPIO_17*%
X126512500Y-115337500D02*
X128087500Y-115337500D01*
X128087500Y-115337500D02*
X128100000Y-115350000D01*
%TO.N,GPIO_18*%
X130300000Y-114500000D02*
X127350000Y-114500000D01*
%TO.N,GPIO_19*%
X129851471Y-114100000D02*
X127883860Y-114100000D01*
X127883860Y-114100000D02*
X127350000Y-114100000D01*
%TO.N,GPIO_20*%
X127350000Y-113700000D02*
X128950000Y-113700000D01*
%TO.N,GPIO_21*%
X127350000Y-113300000D02*
X128150000Y-113300000D01*
%TO.N,GPIO_22*%
X129500000Y-112500000D02*
X127350000Y-112500000D01*
%TO.N,GPIO_23*%
X127350000Y-112100000D02*
X128312288Y-112100000D01*
X131150000Y-109262285D02*
X131150000Y-102230000D01*
X131150000Y-102230000D02*
X132850000Y-100530000D01*
X128312288Y-112100000D02*
X131150000Y-109262285D01*
%TO.N,GPIO_24*%
X130750000Y-100090000D02*
X130750000Y-109096599D01*
X130750000Y-109096599D02*
X128146602Y-111700000D01*
X132850000Y-97990000D02*
X130750000Y-100090000D01*
X128146602Y-111700000D02*
X127350000Y-111700000D01*
%TO.N,GPIO_26{slash}ADC_0*%
X128380917Y-110900000D02*
X127350000Y-110900000D01*
X132850000Y-92910000D02*
X130350000Y-95410000D01*
X130350000Y-108930914D02*
X128380917Y-110900000D01*
X130350000Y-95410000D02*
X130350000Y-108930914D01*
%TO.N,GPIO_27{slash}ADC_1*%
X128215232Y-110500000D02*
X129950000Y-108765229D01*
X129950000Y-108765229D02*
X129950000Y-94847056D01*
X129950000Y-94847056D02*
X131000000Y-93797056D01*
X131000000Y-93797056D02*
X131000000Y-92220000D01*
X131000000Y-92220000D02*
X132850000Y-90370000D01*
X127350000Y-110500000D02*
X128215232Y-110500000D01*
%TO.N,GPIO_28{slash}ADC_2*%
X130838750Y-90729486D02*
X131000000Y-90568236D01*
X127350000Y-110100000D02*
X128049546Y-110100000D01*
X130600000Y-91787794D02*
X131000000Y-91387794D01*
X131000000Y-91387794D02*
X131000000Y-90890736D01*
X131000000Y-90890736D02*
X130838750Y-90729486D01*
X130600000Y-93631371D02*
X130600000Y-91787794D01*
X128049546Y-110100000D02*
X129550000Y-108599544D01*
X129550000Y-94681371D02*
X130600000Y-93631371D01*
X129550000Y-108599544D02*
X129550000Y-94681371D01*
%TO.N,GPIO_29{slash}ADC_3*%
X129150000Y-94515686D02*
X130200000Y-93465686D01*
X127350000Y-109700000D02*
X127883860Y-109700000D01*
X127883860Y-109700000D02*
X129150000Y-108433859D01*
X130200000Y-93465686D02*
X130200000Y-91339265D01*
X130200000Y-91339265D02*
X130400000Y-91139265D01*
X129150000Y-108433859D02*
X129150000Y-94515686D01*
%TO.N,GPIO_15*%
X121835231Y-116880000D02*
X116451372Y-116880000D01*
X116451372Y-116880000D02*
X115700000Y-117631372D01*
X122512500Y-115337500D02*
X122512499Y-116202732D01*
X122512499Y-116202732D02*
X121835231Y-116880000D01*
X115700000Y-117631372D02*
X115700000Y-124090000D01*
X115700000Y-124090000D02*
X113950000Y-125840000D01*
%TD*%
%TA.AperFunction,Conductor*%
%TO.N,GND*%
G36*
X120906051Y-117485523D02*
G01*
X120955353Y-117500000D01*
X120955354Y-117500000D01*
X121598171Y-117500000D01*
X121619609Y-117501867D01*
X121628935Y-117503504D01*
X121631769Y-117504905D01*
X121633102Y-117505022D01*
X121637472Y-117506305D01*
X121637187Y-117507274D01*
X121653299Y-117511387D01*
X121653556Y-117510699D01*
X121656402Y-117511761D01*
X121657249Y-117512395D01*
X121659019Y-117512847D01*
X121661727Y-117514084D01*
X121661160Y-117515323D01*
X121673080Y-117524246D01*
X121682805Y-117527099D01*
X121687438Y-117532443D01*
X121691562Y-117534483D01*
X121695479Y-117541014D01*
X121707566Y-117550063D01*
X121708592Y-117549175D01*
X121709507Y-117550231D01*
X121710398Y-117552183D01*
X121712310Y-117553614D01*
X121714137Y-117556054D01*
X121712669Y-117557153D01*
X121716911Y-117566438D01*
X121728574Y-117579891D01*
X121738526Y-117613752D01*
X121738733Y-117615189D01*
X121740000Y-117632869D01*
X121740000Y-117791572D01*
X121734976Y-117826511D01*
X121727564Y-117851751D01*
X121696269Y-117904493D01*
X121669478Y-117931283D01*
X121666692Y-117934915D01*
X121653888Y-117949169D01*
X121639084Y-117963285D01*
X121582755Y-117994046D01*
X121572630Y-117996503D01*
X121543388Y-118000000D01*
X120961209Y-118000000D01*
X120962852Y-118020906D01*
X120972511Y-118054151D01*
X120977434Y-118089096D01*
X120977402Y-118100403D01*
X120957527Y-118167386D01*
X120904594Y-118212992D01*
X120835408Y-118222739D01*
X120835397Y-118222738D01*
X120829605Y-118221888D01*
X120782513Y-118204741D01*
X120719129Y-118165645D01*
X120719114Y-118165639D01*
X120719113Y-118165638D01*
X120552699Y-118110494D01*
X120552694Y-118110493D01*
X120449991Y-118100000D01*
X120449986Y-118100000D01*
X120200000Y-118100000D01*
X120200000Y-119058170D01*
X120199999Y-119058176D01*
X120200000Y-119058179D01*
X120194975Y-119093114D01*
X120190570Y-119108112D01*
X120152827Y-119166855D01*
X120152792Y-119166885D01*
X120152791Y-119166887D01*
X120152789Y-119166887D01*
X120151458Y-119168042D01*
X120096597Y-119195518D01*
X120089039Y-119197163D01*
X120062668Y-119200000D01*
X119841830Y-119200000D01*
X119841825Y-119199999D01*
X119841823Y-119200000D01*
X119806889Y-119194975D01*
X119791890Y-119190570D01*
X119733144Y-119152827D01*
X119733115Y-119152793D01*
X119733114Y-119152793D01*
X119733113Y-119152791D01*
X119731957Y-119151458D01*
X119704477Y-119096583D01*
X119702832Y-119089021D01*
X119700000Y-119062668D01*
X119700000Y-118100000D01*
X119450029Y-118100000D01*
X119450019Y-118100000D01*
X119450006Y-118100001D01*
X119347304Y-118110493D01*
X119347302Y-118110494D01*
X119180887Y-118165638D01*
X119180877Y-118165642D01*
X119180876Y-118165642D01*
X119050034Y-118246347D01*
X119017665Y-118260411D01*
X119000785Y-118265030D01*
X118934223Y-118264722D01*
X118922094Y-118261282D01*
X118892808Y-118248720D01*
X118839391Y-118217130D01*
X118839382Y-118217126D01*
X118685226Y-118172339D01*
X118685211Y-118172336D01*
X118685212Y-118172336D01*
X118685208Y-118172335D01*
X118685202Y-118172334D01*
X118677997Y-118171767D01*
X118649189Y-118169500D01*
X118649181Y-118169500D01*
X118150830Y-118169500D01*
X118150814Y-118169500D01*
X118114797Y-118172334D01*
X118114796Y-118172334D01*
X118026533Y-118197974D01*
X118026532Y-118197976D01*
X117991583Y-118202898D01*
X117962254Y-118202814D01*
X117915159Y-118193377D01*
X117883507Y-118180267D01*
X117883499Y-118180264D01*
X117883497Y-118180263D01*
X117883488Y-118180260D01*
X117883483Y-118180258D01*
X117883476Y-118180256D01*
X117728849Y-118149500D01*
X117728845Y-118149500D01*
X117728842Y-118149500D01*
X117571158Y-118149500D01*
X117571155Y-118149500D01*
X117571153Y-118149500D01*
X117416527Y-118180257D01*
X117416496Y-118180264D01*
X117270833Y-118240598D01*
X117270824Y-118240603D01*
X117270807Y-118240613D01*
X117139708Y-118328211D01*
X117139707Y-118328212D01*
X117139701Y-118328217D01*
X117028217Y-118439701D01*
X117028212Y-118439707D01*
X117028211Y-118439708D01*
X116940613Y-118570807D01*
X116940603Y-118570824D01*
X116940598Y-118570833D01*
X116880264Y-118716496D01*
X116880257Y-118716527D01*
X116849500Y-118871150D01*
X116849500Y-118871153D01*
X116849500Y-119028846D01*
X116849500Y-119028848D01*
X116849499Y-119028848D01*
X116880257Y-119183471D01*
X116880264Y-119183502D01*
X116940598Y-119329165D01*
X116940603Y-119329174D01*
X116940613Y-119329191D01*
X117028211Y-119460290D01*
X117028212Y-119460291D01*
X117028217Y-119460297D01*
X117139701Y-119571781D01*
X117139707Y-119571786D01*
X117139711Y-119571789D01*
X117270814Y-119659390D01*
X117270827Y-119659397D01*
X117295542Y-119669634D01*
X117342025Y-119688888D01*
X117342031Y-119688890D01*
X117346546Y-119690760D01*
X117416503Y-119719737D01*
X117469379Y-119730254D01*
X117476320Y-119732509D01*
X117480241Y-119735190D01*
X117495489Y-119740569D01*
X117509341Y-119747815D01*
X117559613Y-119796320D01*
X117560366Y-119797642D01*
X117563248Y-119802703D01*
X117579500Y-119864072D01*
X117579500Y-120159182D01*
X117582334Y-120195202D01*
X117627129Y-120349389D01*
X117627130Y-120349391D01*
X117631515Y-120356806D01*
X117640243Y-120377965D01*
X117644973Y-120389431D01*
X117649429Y-120406995D01*
X117648215Y-120472421D01*
X117644364Y-120485537D01*
X117639080Y-120499106D01*
X117639274Y-120499184D01*
X117637505Y-120503605D01*
X117592358Y-120658995D01*
X117592357Y-120659001D01*
X117592356Y-120659002D01*
X117592356Y-120659004D01*
X117589500Y-120695294D01*
X117589500Y-121104704D01*
X117592356Y-121140994D01*
X117592356Y-121140996D01*
X117592357Y-121140997D01*
X117592358Y-121141003D01*
X117637502Y-121296385D01*
X117637506Y-121296396D01*
X117640834Y-121302022D01*
X117640835Y-121302025D01*
X117640836Y-121302026D01*
X117654295Y-121334653D01*
X117658751Y-121352218D01*
X117657536Y-121417640D01*
X117654276Y-121428744D01*
X117642034Y-121456927D01*
X117637970Y-121463798D01*
X117637968Y-121463803D01*
X117605884Y-121574243D01*
X117595496Y-121610000D01*
X117884994Y-121610000D01*
X117917713Y-121614394D01*
X117948701Y-121622872D01*
X117967445Y-121630808D01*
X117972617Y-121632223D01*
X117974465Y-121632744D01*
X118106006Y-121670961D01*
X118118208Y-121674506D01*
X118118215Y-121674508D01*
X118128997Y-121677641D01*
X118128999Y-121677641D01*
X118129002Y-121677642D01*
X118129005Y-121677642D01*
X118129007Y-121677643D01*
X118165310Y-121680500D01*
X118165318Y-121680500D01*
X118258171Y-121680500D01*
X118293106Y-121685523D01*
X118308104Y-121689927D01*
X118366855Y-121727672D01*
X118366879Y-121727700D01*
X118366882Y-121727702D01*
X118366883Y-121727704D01*
X118368042Y-121729041D01*
X118395518Y-121783902D01*
X118397163Y-121791460D01*
X118400000Y-121817831D01*
X118400000Y-121860000D01*
X118508171Y-121860000D01*
X118543106Y-121865023D01*
X118558104Y-121869427D01*
X118616855Y-121907172D01*
X118616879Y-121907200D01*
X118616882Y-121907202D01*
X118616883Y-121907204D01*
X118618042Y-121908541D01*
X118645518Y-121963402D01*
X118647163Y-121970960D01*
X118650000Y-121997331D01*
X118650000Y-122638790D01*
X118650001Y-122638791D01*
X118661919Y-122649809D01*
X118676859Y-122657524D01*
X118676599Y-122658026D01*
X118684696Y-122659728D01*
X118697387Y-122672240D01*
X118713093Y-122680671D01*
X118721751Y-122696261D01*
X118734451Y-122708782D01*
X118747010Y-122741741D01*
X118747016Y-122741752D01*
X118747018Y-122741762D01*
X118748220Y-122747105D01*
X118745630Y-122811210D01*
X118726409Y-122872894D01*
X118726409Y-122872896D01*
X118720000Y-122943427D01*
X118720000Y-123550000D01*
X119370000Y-123550000D01*
X119870000Y-123550000D01*
X120519999Y-123550000D01*
X120519999Y-122943417D01*
X120513591Y-122872897D01*
X120513590Y-122872892D01*
X120463018Y-122710603D01*
X120462891Y-122710393D01*
X120375076Y-122565127D01*
X120375075Y-122565126D01*
X120375073Y-122565124D01*
X120375072Y-122565122D01*
X120254877Y-122444927D01*
X120254876Y-122444926D01*
X120254875Y-122444925D01*
X120186422Y-122403544D01*
X120186418Y-122403542D01*
X120109395Y-122356980D01*
X120109396Y-122356980D01*
X120030938Y-122332532D01*
X120023796Y-122329270D01*
X120003306Y-122311515D01*
X119894381Y-122301618D01*
X119876572Y-122300000D01*
X119876571Y-122300000D01*
X119870000Y-122300000D01*
X119870000Y-123550000D01*
X119370000Y-123550000D01*
X119370000Y-122334204D01*
X119281368Y-122300563D01*
X119276938Y-122298468D01*
X119274888Y-122296643D01*
X119272034Y-122295363D01*
X119265760Y-122291126D01*
X119255070Y-122285209D01*
X119252054Y-122282924D01*
X119252582Y-122282226D01*
X119238733Y-122272875D01*
X119238616Y-122273013D01*
X119237404Y-122271977D01*
X119236815Y-122271579D01*
X119235836Y-122270637D01*
X119235832Y-122270633D01*
X119233204Y-122268105D01*
X119234007Y-122267270D01*
X119227632Y-122257869D01*
X119216114Y-122248716D01*
X119202604Y-122220956D01*
X119200476Y-122217818D01*
X119200418Y-122217840D01*
X119200331Y-122217603D01*
X119200101Y-122217264D01*
X119199224Y-122214690D01*
X119199153Y-122214388D01*
X119198714Y-122213191D01*
X119198263Y-122211865D01*
X119198241Y-122211361D01*
X119198092Y-122210864D01*
X119198218Y-122210825D01*
X119196836Y-122178343D01*
X119194630Y-122144868D01*
X119195300Y-122142255D01*
X119195292Y-122142058D01*
X119195397Y-122141877D01*
X119196561Y-122137341D01*
X119203490Y-122113493D01*
X119206682Y-122103970D01*
X119210096Y-122095006D01*
X119210097Y-122095007D01*
X119218872Y-122071970D01*
X119261127Y-122016333D01*
X119261990Y-122015697D01*
X119320228Y-121992452D01*
X119329223Y-121991329D01*
X119357177Y-121991018D01*
X119449991Y-122000500D01*
X120450008Y-122000499D01*
X120450016Y-122000498D01*
X120450019Y-122000498D01*
X120450027Y-122000497D01*
X120450317Y-122000479D01*
X120451333Y-122000363D01*
X120496459Y-121995753D01*
X120506303Y-121994748D01*
X120506303Y-121994747D01*
X120552797Y-121989999D01*
X120719334Y-121934814D01*
X120868656Y-121842712D01*
X120950074Y-121761292D01*
X120978321Y-121740148D01*
X120992041Y-121732656D01*
X121060298Y-121717806D01*
X121062108Y-121717935D01*
X121120308Y-121737303D01*
X121126821Y-121741489D01*
X121147461Y-121758122D01*
X121231654Y-121842315D01*
X121380875Y-121934356D01*
X121380880Y-121934358D01*
X121547299Y-121989504D01*
X121547300Y-121989504D01*
X121547302Y-121989505D01*
X121547309Y-121989506D01*
X121650019Y-121999999D01*
X121899999Y-121999999D01*
X121900000Y-121999998D01*
X121900000Y-121041828D01*
X121902612Y-121023665D01*
X121905023Y-121006893D01*
X121909427Y-120991895D01*
X121947172Y-120933144D01*
X121947200Y-120933119D01*
X121947199Y-120933119D01*
X121948541Y-120931956D01*
X122003420Y-120904477D01*
X122010979Y-120902833D01*
X122037332Y-120900000D01*
X122258171Y-120900000D01*
X122293106Y-120905023D01*
X122308104Y-120909427D01*
X122366855Y-120947172D01*
X122366879Y-120947200D01*
X122366882Y-120947202D01*
X122366883Y-120947204D01*
X122368042Y-120948541D01*
X122395518Y-121003402D01*
X122397163Y-121010960D01*
X122400000Y-121037331D01*
X122400000Y-121999999D01*
X122649960Y-121999999D01*
X122649972Y-121999999D01*
X122649986Y-121999998D01*
X122752697Y-121989505D01*
X122919119Y-121934358D01*
X122919130Y-121934353D01*
X122997039Y-121886297D01*
X122997042Y-121886297D01*
X123029403Y-121872234D01*
X123044116Y-121868208D01*
X123044143Y-121868199D01*
X123044562Y-121868085D01*
X123110720Y-121868277D01*
X123111159Y-121868400D01*
X123111169Y-121868403D01*
X123115944Y-121869740D01*
X123175195Y-121906766D01*
X123178372Y-121910485D01*
X123180532Y-121913117D01*
X123196813Y-121938849D01*
X123201597Y-121948984D01*
X123201600Y-121948990D01*
X123204328Y-121953985D01*
X123219500Y-122013419D01*
X123219500Y-122340650D01*
X123219499Y-122340652D01*
X123219500Y-122340654D01*
X123214476Y-122375589D01*
X123207064Y-122400829D01*
X123175770Y-122453571D01*
X123121943Y-122507397D01*
X123064531Y-122564810D01*
X123064530Y-122564811D01*
X123064529Y-122564811D01*
X123064529Y-122564812D01*
X122976522Y-122710392D01*
X122925911Y-122872811D01*
X122919500Y-122943377D01*
X122919500Y-124656620D01*
X122922444Y-124689017D01*
X122925913Y-124727192D01*
X122925913Y-124727194D01*
X122925914Y-124727196D01*
X122930645Y-124742379D01*
X122930647Y-124742388D01*
X122940793Y-124774948D01*
X122940793Y-124774949D01*
X122976520Y-124889602D01*
X122976521Y-124889604D01*
X122976522Y-124889606D01*
X123064530Y-125035188D01*
X123184811Y-125155469D01*
X123184813Y-125155470D01*
X123184815Y-125155472D01*
X123184822Y-125155476D01*
X123186154Y-125156436D01*
X123189056Y-125158035D01*
X123330394Y-125243478D01*
X123492804Y-125294086D01*
X123563384Y-125300500D01*
X123563387Y-125300500D01*
X124076613Y-125300500D01*
X124076616Y-125300500D01*
X124147196Y-125294086D01*
X124309606Y-125243478D01*
X124455185Y-125155472D01*
X124575472Y-125035185D01*
X124663478Y-124889606D01*
X124714086Y-124727196D01*
X124720500Y-124656616D01*
X124720500Y-122943384D01*
X124714086Y-122872804D01*
X124663478Y-122710394D01*
X124575472Y-122564815D01*
X124575470Y-122564813D01*
X124575469Y-122564811D01*
X124469421Y-122458763D01*
X124448274Y-122430512D01*
X124435667Y-122407423D01*
X124420500Y-122347998D01*
X124420500Y-121967662D01*
X124425522Y-121932729D01*
X124434864Y-121900913D01*
X124450743Y-121866955D01*
X124455391Y-121860000D01*
X124509394Y-121779179D01*
X124516801Y-121761298D01*
X124551451Y-121677643D01*
X124569737Y-121633497D01*
X124600500Y-121478842D01*
X124600500Y-121321158D01*
X124600500Y-121321155D01*
X124600500Y-121320971D01*
X124600064Y-121318966D01*
X124590872Y-121272754D01*
X124569737Y-121166503D01*
X124569735Y-121166498D01*
X124509397Y-121020827D01*
X124509390Y-121020814D01*
X124436541Y-120911788D01*
X124431756Y-120898565D01*
X124424999Y-120890150D01*
X124421313Y-120879963D01*
X124417928Y-120869155D01*
X124417763Y-120859896D01*
X124416331Y-120855937D01*
X124415152Y-120844785D01*
X124417285Y-120833078D01*
X124416683Y-120799298D01*
X124426270Y-120783778D01*
X124427679Y-120776047D01*
X124437615Y-120765412D01*
X124453403Y-120739855D01*
X124468037Y-120732852D01*
X124475380Y-120724994D01*
X124494675Y-120720105D01*
X124516408Y-120709706D01*
X124518616Y-120709348D01*
X124533933Y-120710159D01*
X124543110Y-120707835D01*
X124553085Y-120711174D01*
X124571146Y-120712132D01*
X124615030Y-120724122D01*
X124614996Y-120724244D01*
X124617056Y-120724597D01*
X124729089Y-120757145D01*
X124750000Y-120758789D01*
X124750000Y-120230000D01*
X124195496Y-120230000D01*
X124233772Y-120361757D01*
X124233775Y-120361762D01*
X124237968Y-120376195D01*
X124237968Y-120376196D01*
X124305840Y-120490962D01*
X124306598Y-120492320D01*
X124307136Y-120494692D01*
X124318498Y-120522234D01*
X124321279Y-120533197D01*
X124320518Y-120553648D01*
X124322064Y-120560457D01*
X124320060Y-120565980D01*
X124318683Y-120603019D01*
X124278750Y-120660353D01*
X124214168Y-120686995D01*
X124210756Y-120687357D01*
X124150222Y-120678611D01*
X124128585Y-120669649D01*
X124033501Y-120630264D01*
X124033489Y-120630261D01*
X124033481Y-120630259D01*
X124033471Y-120630257D01*
X123878847Y-120599500D01*
X123878845Y-120599500D01*
X123878842Y-120599500D01*
X123721158Y-120599500D01*
X123721155Y-120599500D01*
X123721152Y-120599500D01*
X123566516Y-120630258D01*
X123566506Y-120630261D01*
X123566500Y-120630263D01*
X123537918Y-120642102D01*
X123503720Y-120650829D01*
X123489921Y-120652312D01*
X123421162Y-120639904D01*
X123370027Y-120592291D01*
X123370019Y-120592279D01*
X123367347Y-120587774D01*
X123349999Y-120524517D01*
X123349999Y-120500032D01*
X123349999Y-120500028D01*
X123349998Y-120500013D01*
X123339505Y-120397302D01*
X123284358Y-120230880D01*
X123284353Y-120230869D01*
X123222591Y-120130738D01*
X123208533Y-120098383D01*
X123204076Y-120082094D01*
X123204701Y-120014442D01*
X123208541Y-120001363D01*
X123221977Y-119971207D01*
X123284814Y-119869334D01*
X123339999Y-119702797D01*
X123350500Y-119600009D01*
X123350499Y-119415583D01*
X123355521Y-119380651D01*
X123356238Y-119378209D01*
X123359431Y-119367334D01*
X123397203Y-119308558D01*
X123460758Y-119279532D01*
X123460757Y-119279532D01*
X123471662Y-119277964D01*
X123513495Y-119279084D01*
X123613518Y-119298980D01*
X123616246Y-119299703D01*
X123621155Y-119300500D01*
X123778844Y-119300500D01*
X123782964Y-119300500D01*
X123790814Y-119298118D01*
X123933497Y-119269737D01*
X124022451Y-119232891D01*
X124045520Y-119225874D01*
X124051036Y-119224767D01*
X124051071Y-119224764D01*
X124051080Y-119224758D01*
X124057044Y-119223563D01*
X124059897Y-119223813D01*
X124062731Y-119223509D01*
X124062765Y-119223832D01*
X124080177Y-119221148D01*
X124083853Y-119221111D01*
X124108539Y-119228089D01*
X124126645Y-119229681D01*
X124133818Y-119235235D01*
X124151080Y-119240115D01*
X124153120Y-119241397D01*
X124179116Y-119270310D01*
X124181889Y-119272458D01*
X124182437Y-119274005D01*
X124196164Y-119289272D01*
X124196798Y-119288912D01*
X124197070Y-119289390D01*
X124197780Y-119291069D01*
X124198532Y-119291906D01*
X124200416Y-119295758D01*
X124199874Y-119296022D01*
X124208373Y-119316122D01*
X124237503Y-119416389D01*
X124237505Y-119416393D01*
X124237506Y-119416395D01*
X124244354Y-119427974D01*
X124247594Y-119437611D01*
X124251819Y-119442773D01*
X124257367Y-119466677D01*
X124260806Y-119476904D01*
X124261224Y-119480537D01*
X124261327Y-119482371D01*
X124261526Y-119483155D01*
X124262031Y-119487539D01*
X124260521Y-119496285D01*
X124257821Y-119536669D01*
X124254271Y-119548757D01*
X124242033Y-119576929D01*
X124237969Y-119583800D01*
X124237968Y-119583803D01*
X124213033Y-119669634D01*
X124195496Y-119730000D01*
X124484994Y-119730000D01*
X124517713Y-119734394D01*
X124548701Y-119742872D01*
X124567445Y-119750808D01*
X124572617Y-119752223D01*
X124574465Y-119752744D01*
X124615582Y-119764690D01*
X124718208Y-119794506D01*
X124718215Y-119794508D01*
X124728997Y-119797641D01*
X124728999Y-119797641D01*
X124729002Y-119797642D01*
X124729005Y-119797642D01*
X124729007Y-119797643D01*
X124765310Y-119800500D01*
X124765318Y-119800500D01*
X124858171Y-119800500D01*
X124893106Y-119805523D01*
X124908104Y-119809927D01*
X124966855Y-119847672D01*
X124966879Y-119847700D01*
X124966882Y-119847702D01*
X124966883Y-119847704D01*
X124968042Y-119849041D01*
X124995518Y-119903902D01*
X124997163Y-119911460D01*
X125000000Y-119937831D01*
X125000000Y-119980000D01*
X125108171Y-119980000D01*
X125143106Y-119985023D01*
X125158104Y-119989427D01*
X125216855Y-120027172D01*
X125216879Y-120027200D01*
X125216882Y-120027202D01*
X125216883Y-120027204D01*
X125218042Y-120028541D01*
X125245518Y-120083402D01*
X125247163Y-120090960D01*
X125250000Y-120117331D01*
X125250000Y-120758788D01*
X125251995Y-120760633D01*
X125273224Y-120762001D01*
X125288080Y-120765123D01*
X125349638Y-120798174D01*
X125382614Y-120855371D01*
X125385537Y-120866656D01*
X125389500Y-120897750D01*
X125389500Y-126196451D01*
X125384476Y-126231390D01*
X125379666Y-126247769D01*
X125370574Y-126262254D01*
X125366418Y-126277619D01*
X125343882Y-126304781D01*
X125334014Y-126313709D01*
X125307117Y-126332243D01*
X125282185Y-126344946D01*
X125282186Y-126344946D01*
X125282184Y-126344948D01*
X125110210Y-126469892D01*
X124959886Y-126620216D01*
X124834943Y-126792187D01*
X124834188Y-126793421D01*
X124818613Y-126813768D01*
X124809070Y-126823872D01*
X124748728Y-126859094D01*
X124678922Y-126856100D01*
X124625211Y-126819934D01*
X124619107Y-126812890D01*
X124607086Y-126796467D01*
X124604628Y-126792457D01*
X124604626Y-126792452D01*
X124565270Y-126738282D01*
X124565268Y-126738282D01*
X124059702Y-127243849D01*
X123998379Y-127277334D01*
X123928687Y-127272350D01*
X123872754Y-127230478D01*
X123864634Y-127218169D01*
X123850099Y-127192993D01*
X123757007Y-127099901D01*
X123757004Y-127099899D01*
X123757000Y-127099896D01*
X123731828Y-127085363D01*
X123683613Y-127034796D01*
X123670391Y-126966189D01*
X123696359Y-126901324D01*
X123706135Y-126890310D01*
X124211716Y-126384728D01*
X124157550Y-126345375D01*
X124070070Y-126300801D01*
X123968214Y-126248902D01*
X123766130Y-126183242D01*
X123556251Y-126150000D01*
X123556246Y-126150000D01*
X123343754Y-126150000D01*
X123343749Y-126150000D01*
X123143513Y-126181715D01*
X123143505Y-126181715D01*
X123143506Y-126181716D01*
X123133865Y-126183242D01*
X122931784Y-126248903D01*
X122742438Y-126345380D01*
X122688282Y-126384727D01*
X122688282Y-126384728D01*
X123193850Y-126890296D01*
X123227335Y-126951619D01*
X123222351Y-127021311D01*
X123180479Y-127077244D01*
X123168173Y-127085362D01*
X123142996Y-127099898D01*
X123142990Y-127099903D01*
X123049903Y-127192990D01*
X123049898Y-127192996D01*
X123035362Y-127218173D01*
X122984793Y-127266387D01*
X122916185Y-127279607D01*
X122851322Y-127253637D01*
X122840296Y-127243850D01*
X122309425Y-126712979D01*
X122309420Y-126712974D01*
X122288273Y-126684723D01*
X122275666Y-126661634D01*
X122261313Y-126605401D01*
X122260900Y-126605423D01*
X122260854Y-126605429D01*
X122260853Y-126605426D01*
X122260676Y-126605436D01*
X122260504Y-126602230D01*
X122260499Y-126602209D01*
X122260499Y-126602129D01*
X122260498Y-126602123D01*
X122260497Y-126602116D01*
X122254091Y-126542517D01*
X122248991Y-126528844D01*
X122218992Y-126448412D01*
X122218991Y-126448409D01*
X122203799Y-126407675D01*
X122203795Y-126407667D01*
X122203786Y-126407654D01*
X122117555Y-126292465D01*
X122117545Y-126292453D01*
X122117542Y-126292450D01*
X122016099Y-126216510D01*
X122002335Y-126206206D01*
X122002332Y-126206204D01*
X122002330Y-126206203D01*
X122002328Y-126206202D01*
X121867482Y-126155908D01*
X121867483Y-126155908D01*
X121807883Y-126149501D01*
X121807881Y-126149500D01*
X121807873Y-126149500D01*
X121807864Y-126149500D01*
X121806841Y-126149500D01*
X120012123Y-126149500D01*
X120010192Y-126149659D01*
X120008545Y-126149885D01*
X119952516Y-126155908D01*
X119817666Y-126206204D01*
X119817665Y-126206205D01*
X119702456Y-126292450D01*
X119702453Y-126292453D01*
X119702452Y-126292455D01*
X119616205Y-126407665D01*
X119616203Y-126407668D01*
X119565907Y-126542516D01*
X119559501Y-126602116D01*
X119559500Y-126602139D01*
X119559500Y-128397876D01*
X119559659Y-128399806D01*
X119559885Y-128401454D01*
X119565907Y-128457482D01*
X119565908Y-128457484D01*
X119616202Y-128592329D01*
X119619464Y-128598711D01*
X119619385Y-128598751D01*
X119628781Y-128617135D01*
X119633499Y-128629784D01*
X119638485Y-128699476D01*
X119605000Y-128760799D01*
X119547998Y-128793264D01*
X119543618Y-128794382D01*
X119538669Y-128795645D01*
X119507994Y-128799500D01*
X112892330Y-128799500D01*
X112857389Y-128794475D01*
X112842390Y-128790070D01*
X112827402Y-128780440D01*
X112810324Y-128775432D01*
X112783644Y-128752327D01*
X112782457Y-128750958D01*
X112754977Y-128696083D01*
X112753332Y-128688521D01*
X112750500Y-128662168D01*
X112750500Y-126867587D01*
X112755521Y-126832660D01*
X112758707Y-126821807D01*
X112768345Y-126806806D01*
X112773368Y-126789699D01*
X112786839Y-126778025D01*
X112796477Y-126763026D01*
X112812697Y-126755617D01*
X112826170Y-126743942D01*
X112843814Y-126741404D01*
X112860031Y-126733997D01*
X112877679Y-126736533D01*
X112895328Y-126733995D01*
X112929183Y-126743933D01*
X112936172Y-126747125D01*
X112972342Y-126772238D01*
X113070216Y-126870112D01*
X113242169Y-126995042D01*
X113242177Y-126995047D01*
X113242179Y-126995048D01*
X113242181Y-126995049D01*
X113242182Y-126995050D01*
X113242200Y-126995060D01*
X113242442Y-126995182D01*
X113431588Y-127091557D01*
X113633757Y-127157246D01*
X113843713Y-127190500D01*
X113843714Y-127190500D01*
X114056286Y-127190500D01*
X114056287Y-127190500D01*
X114266243Y-127157246D01*
X114468412Y-127091557D01*
X114657816Y-126995051D01*
X114697542Y-126966189D01*
X114705916Y-126960105D01*
X114724005Y-126946962D01*
X114829786Y-126870109D01*
X114829788Y-126870106D01*
X114829792Y-126870104D01*
X114829795Y-126870100D01*
X114829847Y-126870063D01*
X114830592Y-126869303D01*
X114980104Y-126719792D01*
X114980106Y-126719788D01*
X114980109Y-126719786D01*
X115105048Y-126547820D01*
X115105047Y-126547820D01*
X115105051Y-126547816D01*
X115105052Y-126547812D01*
X115118831Y-126528848D01*
X116199499Y-126528848D01*
X116230257Y-126683471D01*
X116230264Y-126683502D01*
X116290598Y-126829165D01*
X116290603Y-126829174D01*
X116290613Y-126829191D01*
X116378211Y-126960290D01*
X116378212Y-126960291D01*
X116378217Y-126960297D01*
X116489701Y-127071781D01*
X116489707Y-127071786D01*
X116489711Y-127071789D01*
X116620814Y-127159390D01*
X116620827Y-127159397D01*
X116766498Y-127219735D01*
X116766503Y-127219737D01*
X116904799Y-127247246D01*
X116921153Y-127250499D01*
X116921156Y-127250500D01*
X116921158Y-127250500D01*
X117078844Y-127250500D01*
X117078845Y-127250499D01*
X117233497Y-127219737D01*
X117379179Y-127159394D01*
X117510289Y-127071789D01*
X117621789Y-126960289D01*
X117709394Y-126829179D01*
X117769737Y-126683497D01*
X117800500Y-126528842D01*
X117800500Y-126371158D01*
X117800500Y-126371155D01*
X117800500Y-126370971D01*
X117800064Y-126368966D01*
X117784845Y-126292455D01*
X117781729Y-126276791D01*
X117769737Y-126216503D01*
X117744775Y-126156239D01*
X117709397Y-126070827D01*
X117709390Y-126070814D01*
X117621789Y-125939711D01*
X117621786Y-125939707D01*
X117621781Y-125939701D01*
X117510297Y-125828217D01*
X117510291Y-125828212D01*
X117510290Y-125828211D01*
X117379191Y-125740613D01*
X117379190Y-125740612D01*
X117379185Y-125740609D01*
X117379172Y-125740602D01*
X117379165Y-125740598D01*
X117233502Y-125680264D01*
X117233471Y-125680257D01*
X117078847Y-125649500D01*
X117078845Y-125649500D01*
X117078842Y-125649500D01*
X116921158Y-125649500D01*
X116921155Y-125649500D01*
X116921153Y-125649500D01*
X116766527Y-125680257D01*
X116766496Y-125680264D01*
X116620833Y-125740598D01*
X116620824Y-125740603D01*
X116620807Y-125740613D01*
X116489708Y-125828211D01*
X116489707Y-125828212D01*
X116489701Y-125828217D01*
X116378217Y-125939701D01*
X116378212Y-125939707D01*
X116378211Y-125939708D01*
X116290613Y-126070807D01*
X116290603Y-126070824D01*
X116290598Y-126070833D01*
X116230264Y-126216496D01*
X116230261Y-126216510D01*
X116199500Y-126371150D01*
X116199500Y-126371153D01*
X116199500Y-126528846D01*
X116199500Y-126528848D01*
X116199499Y-126528848D01*
X115118831Y-126528848D01*
X115123993Y-126521743D01*
X115128258Y-126508507D01*
X115131914Y-126495244D01*
X115132777Y-126493399D01*
X115201557Y-126358412D01*
X115267246Y-126156243D01*
X115267246Y-126156241D01*
X115267247Y-126156239D01*
X115300500Y-125946286D01*
X115300500Y-125733713D01*
X115267246Y-125523760D01*
X115267245Y-125523754D01*
X115259016Y-125498429D01*
X115259015Y-125498426D01*
X115259014Y-125498424D01*
X115252997Y-125463647D01*
X115252510Y-125446589D01*
X115268920Y-125381314D01*
X115275554Y-125369760D01*
X115295400Y-125343832D01*
X115982645Y-124656590D01*
X118720001Y-124656590D01*
X118726406Y-124727087D01*
X118726407Y-124727099D01*
X118726409Y-124727108D01*
X118726412Y-124727118D01*
X118776979Y-124889391D01*
X118776981Y-124889397D01*
X118864922Y-125034871D01*
X118864923Y-125034872D01*
X118864925Y-125034874D01*
X118864927Y-125034877D01*
X118938236Y-125108186D01*
X118985123Y-125155073D01*
X119014461Y-125172808D01*
X119130604Y-125243019D01*
X119130603Y-125243019D01*
X119209067Y-125267469D01*
X119216201Y-125270727D01*
X119236691Y-125288482D01*
X119292891Y-125293589D01*
X119292894Y-125293590D01*
X119292893Y-125293590D01*
X119363408Y-125299998D01*
X119363426Y-125299999D01*
X119870000Y-125299999D01*
X119876580Y-125299999D01*
X119876581Y-125299999D01*
X119894185Y-125298399D01*
X119947094Y-125293592D01*
X119947095Y-125293591D01*
X119947102Y-125293591D01*
X119947107Y-125293590D01*
X120109396Y-125243018D01*
X120186424Y-125196453D01*
X120254871Y-125155076D01*
X120254872Y-125155075D01*
X120254871Y-125155075D01*
X120254877Y-125155072D01*
X120375072Y-125034877D01*
X120463019Y-124889395D01*
X120513590Y-124727106D01*
X120520000Y-124656572D01*
X120520000Y-124050000D01*
X119870000Y-124050000D01*
X119870000Y-125299999D01*
X119363426Y-125299999D01*
X119369999Y-125299998D01*
X119370000Y-125299998D01*
X119370000Y-124050000D01*
X118720001Y-124050000D01*
X118720001Y-124656590D01*
X115982645Y-124656590D01*
X116180520Y-124458716D01*
X116259577Y-124321784D01*
X116300501Y-124169057D01*
X116300501Y-124010942D01*
X116300501Y-124003347D01*
X116300501Y-124001663D01*
X116300500Y-124001589D01*
X116300500Y-122110000D01*
X117595496Y-122110000D01*
X117637968Y-122256195D01*
X117712559Y-122382323D01*
X117720278Y-122395374D01*
X117720285Y-122395383D01*
X117834616Y-122509714D01*
X117834625Y-122509721D01*
X117973804Y-122592031D01*
X118129086Y-122637144D01*
X118129089Y-122637145D01*
X118150000Y-122638789D01*
X118150000Y-122110000D01*
X117595496Y-122110000D01*
X116300500Y-122110000D01*
X116300500Y-117949298D01*
X116305522Y-117914365D01*
X116308421Y-117904493D01*
X116312934Y-117889120D01*
X116344228Y-117836378D01*
X116651183Y-117529423D01*
X116679433Y-117508275D01*
X116702525Y-117495667D01*
X116761950Y-117480500D01*
X120871115Y-117480500D01*
X120906051Y-117485523D01*
G37*
%TD.AperFunction*%
%TA.AperFunction,Conductor*%
G36*
X122971311Y-127727647D02*
G01*
X123027244Y-127769519D01*
X123035363Y-127781828D01*
X123049896Y-127807000D01*
X123049899Y-127807004D01*
X123049901Y-127807007D01*
X123142993Y-127900099D01*
X123168169Y-127914634D01*
X123216384Y-127965202D01*
X123229606Y-128033809D01*
X123203638Y-128098673D01*
X123193849Y-128109702D01*
X122688281Y-128615269D01*
X122690858Y-128647999D01*
X122688592Y-128683216D01*
X122685471Y-128698069D01*
X122652427Y-128759629D01*
X122595221Y-128792614D01*
X122592712Y-128793264D01*
X122583936Y-128795537D01*
X122552839Y-128799500D01*
X122314262Y-128799500D01*
X122279322Y-128794475D01*
X122267142Y-128790898D01*
X122253974Y-128782434D01*
X122238806Y-128778563D01*
X122225183Y-128763930D01*
X122208365Y-128753121D01*
X122201862Y-128738881D01*
X122191197Y-128727425D01*
X122187648Y-128707751D01*
X122179343Y-128689564D01*
X122181405Y-128673147D01*
X122178793Y-128658665D01*
X122187520Y-128624472D01*
X122191207Y-128615573D01*
X122199899Y-128600313D01*
X122199543Y-128600119D01*
X122203789Y-128592339D01*
X122203796Y-128592331D01*
X122254091Y-128457483D01*
X122255037Y-128448682D01*
X122260856Y-128394568D01*
X122261241Y-128394609D01*
X122265260Y-128371092D01*
X122272930Y-128344965D01*
X122304225Y-128292218D01*
X122840297Y-127756147D01*
X122901619Y-127722663D01*
X122971311Y-127727647D01*
G37*
%TD.AperFunction*%
%TA.AperFunction,Conductor*%
G36*
X124048671Y-127746358D02*
G01*
X124059702Y-127756149D01*
X124565269Y-128261717D01*
X124565269Y-128261716D01*
X124565270Y-128261717D01*
X124565270Y-128261716D01*
X124573859Y-128258158D01*
X124583710Y-128239207D01*
X124584955Y-128234968D01*
X124588057Y-128230369D01*
X124588474Y-128229779D01*
X124604622Y-128207555D01*
X124605694Y-128205450D01*
X124609676Y-128199825D01*
X124611521Y-128198365D01*
X124620733Y-128186327D01*
X124630363Y-128176131D01*
X124690703Y-128140907D01*
X124760508Y-128143897D01*
X124814227Y-128180066D01*
X124820297Y-128187071D01*
X124831752Y-128204056D01*
X124832401Y-128203659D01*
X124834944Y-128207809D01*
X124834947Y-128207813D01*
X124834949Y-128207817D01*
X124959890Y-128379786D01*
X124959892Y-128379788D01*
X125110210Y-128530106D01*
X125157825Y-128564699D01*
X125168576Y-128578487D01*
X125182319Y-128588249D01*
X125183135Y-128589295D01*
X125190043Y-128598253D01*
X125196082Y-128613765D01*
X125200003Y-128618793D01*
X125204214Y-128629275D01*
X125204905Y-128636423D01*
X125215394Y-128663362D01*
X125210057Y-128689702D01*
X125210939Y-128698821D01*
X125206434Y-128707585D01*
X125201520Y-128731840D01*
X125185481Y-128748347D01*
X125178998Y-128760962D01*
X125165806Y-128768599D01*
X125152852Y-128781933D01*
X125150155Y-128783457D01*
X125131809Y-128788281D01*
X125118531Y-128795969D01*
X125104971Y-128795339D01*
X125089152Y-128799500D01*
X124349191Y-128799500D01*
X124314249Y-128794475D01*
X124299686Y-128790198D01*
X124240910Y-128752420D01*
X124212521Y-128692807D01*
X124212018Y-128689960D01*
X124210492Y-128681329D01*
X124208982Y-128650022D01*
X124211717Y-128615270D01*
X124211716Y-128615269D01*
X124211715Y-128615267D01*
X123706149Y-128109702D01*
X123672664Y-128048379D01*
X123677648Y-127978688D01*
X123719519Y-127922754D01*
X123731822Y-127914639D01*
X123757007Y-127900099D01*
X123850099Y-127807007D01*
X123864634Y-127781830D01*
X123915199Y-127733616D01*
X123983805Y-127720391D01*
X124048671Y-127746358D01*
G37*
%TD.AperFunction*%
%TA.AperFunction,Conductor*%
G36*
X131386667Y-115685997D02*
G01*
X131404483Y-115685355D01*
X131419820Y-115694447D01*
X131437098Y-115698851D01*
X131449250Y-115711894D01*
X131464585Y-115720985D01*
X131478107Y-115740446D01*
X131478906Y-115739933D01*
X131479811Y-115741341D01*
X131480602Y-115744036D01*
X131484725Y-115749969D01*
X131485459Y-115751434D01*
X131489755Y-115775201D01*
X131499500Y-115808379D01*
X131499500Y-115876291D01*
X131532752Y-116086239D01*
X131598445Y-116288418D01*
X131691111Y-116470283D01*
X131694951Y-116477820D01*
X131819890Y-116649786D01*
X131970213Y-116800109D01*
X132142182Y-116925050D01*
X132142190Y-116925054D01*
X132142693Y-116925363D01*
X132144174Y-116926496D01*
X132146122Y-116927912D01*
X132146086Y-116927960D01*
X132163034Y-116940934D01*
X132173315Y-116950643D01*
X132208541Y-117010983D01*
X132205552Y-117080789D01*
X132169383Y-117134507D01*
X132162227Y-117140708D01*
X132145814Y-117152723D01*
X132142190Y-117154943D01*
X131970210Y-117279892D01*
X131819892Y-117430210D01*
X131797563Y-117460944D01*
X131725657Y-117559916D01*
X131694949Y-117602182D01*
X131598445Y-117791580D01*
X131532753Y-117993759D01*
X131514264Y-118110493D01*
X131505602Y-118165186D01*
X131505254Y-118167386D01*
X131499621Y-118202950D01*
X131499500Y-118203713D01*
X131499500Y-118416287D01*
X131503210Y-118439708D01*
X131532754Y-118626244D01*
X131532754Y-118626247D01*
X131589207Y-118799989D01*
X131598442Y-118828411D01*
X131687733Y-119003653D01*
X131694951Y-119017820D01*
X131819890Y-119189786D01*
X131819892Y-119189788D01*
X131970216Y-119340112D01*
X132142178Y-119465048D01*
X132143031Y-119465567D01*
X132143303Y-119465865D01*
X132143902Y-119466300D01*
X132144387Y-119466520D01*
X132145225Y-119467079D01*
X132145142Y-119467202D01*
X132146311Y-119468051D01*
X132146195Y-119468209D01*
X132163741Y-119481361D01*
X132173865Y-119490921D01*
X132187665Y-119514560D01*
X132190085Y-119517216D01*
X132190439Y-119519312D01*
X132209091Y-119551259D01*
X132206105Y-119621065D01*
X132169938Y-119674785D01*
X132162614Y-119681132D01*
X132144059Y-119694432D01*
X132142440Y-119695379D01*
X132088282Y-119734726D01*
X132088281Y-119734727D01*
X132593850Y-120240296D01*
X132627335Y-120301619D01*
X132622351Y-120371311D01*
X132580479Y-120427244D01*
X132568173Y-120435362D01*
X132542996Y-120449898D01*
X132542990Y-120449903D01*
X132449903Y-120542990D01*
X132449898Y-120542996D01*
X132435362Y-120568173D01*
X132384793Y-120616387D01*
X132316185Y-120629607D01*
X132251322Y-120603637D01*
X132240296Y-120593850D01*
X131734728Y-120088282D01*
X131734727Y-120088282D01*
X131695380Y-120142438D01*
X131598903Y-120331784D01*
X131533242Y-120533865D01*
X131531798Y-120542990D01*
X131500000Y-120743753D01*
X131500000Y-120956246D01*
X131525860Y-121119519D01*
X131531715Y-121156485D01*
X131531716Y-121156493D01*
X131533242Y-121166133D01*
X131586060Y-121328688D01*
X131598904Y-121368217D01*
X131647608Y-121463803D01*
X131695374Y-121557548D01*
X131695375Y-121557550D01*
X131716905Y-121587185D01*
X131734728Y-121611716D01*
X132240297Y-121106147D01*
X132301619Y-121072663D01*
X132371311Y-121077647D01*
X132427244Y-121119519D01*
X132435363Y-121131828D01*
X132449896Y-121157000D01*
X132449899Y-121157004D01*
X132449901Y-121157007D01*
X132542993Y-121250099D01*
X132568169Y-121264634D01*
X132616384Y-121315202D01*
X132629606Y-121383809D01*
X132603638Y-121448673D01*
X132593849Y-121459702D01*
X132088321Y-121965229D01*
X132088282Y-121965269D01*
X132088282Y-121965270D01*
X132142452Y-122004626D01*
X132142451Y-122004626D01*
X132144115Y-122005474D01*
X132151857Y-122011058D01*
X132154490Y-122014448D01*
X132164450Y-122021469D01*
X132173868Y-122030363D01*
X132209092Y-122090700D01*
X132206104Y-122160505D01*
X132169932Y-122214229D01*
X132162929Y-122220297D01*
X132145944Y-122231776D01*
X132146331Y-122232407D01*
X132142172Y-122234955D01*
X131970216Y-122359886D01*
X131819892Y-122510210D01*
X131819890Y-122510213D01*
X131711263Y-122659728D01*
X131694949Y-122682182D01*
X131598445Y-122871580D01*
X131532752Y-123073759D01*
X131499500Y-123283707D01*
X131499500Y-123496291D01*
X131532752Y-123706239D01*
X131598445Y-123908418D01*
X131691111Y-124090283D01*
X131694951Y-124097820D01*
X131819890Y-124269786D01*
X131970213Y-124420109D01*
X132142182Y-124545050D01*
X132142190Y-124545054D01*
X132142693Y-124545363D01*
X132144174Y-124546496D01*
X132146122Y-124547912D01*
X132146086Y-124547960D01*
X132163034Y-124560934D01*
X132173315Y-124570643D01*
X132208541Y-124630983D01*
X132205552Y-124700789D01*
X132169383Y-124754507D01*
X132162227Y-124760708D01*
X132145814Y-124772723D01*
X132142190Y-124774943D01*
X131970210Y-124899892D01*
X131819892Y-125050210D01*
X131819890Y-125050213D01*
X131725657Y-125179916D01*
X131694949Y-125222182D01*
X131598445Y-125411580D01*
X131532752Y-125613759D01*
X131499500Y-125823707D01*
X131499500Y-126036291D01*
X131528044Y-126216510D01*
X131532752Y-126246234D01*
X131532753Y-126246240D01*
X131532754Y-126246243D01*
X131550481Y-126300801D01*
X131585204Y-126407669D01*
X131585205Y-126407673D01*
X131598444Y-126448414D01*
X131609387Y-126469890D01*
X131693913Y-126635784D01*
X131694951Y-126637820D01*
X131819890Y-126809786D01*
X131819892Y-126809788D01*
X131970216Y-126960112D01*
X132142169Y-127085042D01*
X132142200Y-127085060D01*
X132142442Y-127085182D01*
X132331588Y-127181557D01*
X132533757Y-127247246D01*
X132743713Y-127280500D01*
X132743714Y-127280500D01*
X132956286Y-127280500D01*
X132956287Y-127280500D01*
X133166243Y-127247246D01*
X133368412Y-127181557D01*
X133557816Y-127085051D01*
X133627979Y-127034075D01*
X133729786Y-126960109D01*
X133729788Y-126960106D01*
X133729792Y-126960104D01*
X133729798Y-126960098D01*
X133729847Y-126960063D01*
X133730558Y-126959337D01*
X133880104Y-126809792D01*
X133964703Y-126693349D01*
X133978496Y-126682596D01*
X133988274Y-126668838D01*
X133989140Y-126668162D01*
X133998261Y-126661129D01*
X134013789Y-126655084D01*
X134018823Y-126651161D01*
X134029302Y-126646954D01*
X134036445Y-126646264D01*
X134063368Y-126635784D01*
X134089724Y-126641125D01*
X134098849Y-126640245D01*
X134107606Y-126644748D01*
X134131845Y-126649661D01*
X134148359Y-126665709D01*
X134160982Y-126672201D01*
X134168615Y-126685392D01*
X134181942Y-126698343D01*
X134183466Y-126701041D01*
X134188291Y-126719396D01*
X134195976Y-126732676D01*
X134195344Y-126746220D01*
X134199500Y-126762027D01*
X134199500Y-128657670D01*
X134194475Y-128692614D01*
X134190070Y-128707612D01*
X134152327Y-128766355D01*
X134150958Y-128767542D01*
X134096097Y-128795018D01*
X134088539Y-128796663D01*
X134062168Y-128799500D01*
X126898463Y-128799500D01*
X126881662Y-128794665D01*
X126864815Y-128794847D01*
X126863528Y-128794477D01*
X126852674Y-128791290D01*
X126838677Y-128782295D01*
X126832554Y-128780533D01*
X126822986Y-128774529D01*
X126818221Y-128769148D01*
X126793896Y-128753516D01*
X126782736Y-128729080D01*
X126776663Y-128722222D01*
X126775154Y-128712477D01*
X126764871Y-128689960D01*
X126768143Y-128667188D01*
X126765974Y-128653175D01*
X126772160Y-128639231D01*
X126774806Y-128620822D01*
X126776098Y-128617993D01*
X126788093Y-128603321D01*
X126794311Y-128589310D01*
X126805651Y-128581847D01*
X126816009Y-128569178D01*
X126869792Y-128530104D01*
X127020104Y-128379792D01*
X127020106Y-128379788D01*
X127020109Y-128379786D01*
X127026432Y-128371084D01*
X127078348Y-128299626D01*
X127145048Y-128207820D01*
X127145050Y-128207817D01*
X127145051Y-128207816D01*
X127241557Y-128018412D01*
X127307246Y-127816243D01*
X127340500Y-127606287D01*
X127340500Y-127393713D01*
X127307246Y-127183757D01*
X127241557Y-126981588D01*
X127145051Y-126792184D01*
X127145049Y-126792181D01*
X127145048Y-126792179D01*
X127144702Y-126791703D01*
X127144700Y-126791699D01*
X127020112Y-126620216D01*
X126869788Y-126469892D01*
X126869786Y-126469890D01*
X126697815Y-126344948D01*
X126697814Y-126344947D01*
X126674087Y-126332857D01*
X126645242Y-126312522D01*
X126632832Y-126300801D01*
X126598277Y-126243030D01*
X126594802Y-126230183D01*
X126590500Y-126197806D01*
X126590500Y-117631452D01*
X126590501Y-117631401D01*
X126590501Y-117460944D01*
X126582265Y-117430209D01*
X126580547Y-117423796D01*
X126580547Y-117423775D01*
X126576362Y-117388772D01*
X126576692Y-117374895D01*
X126582126Y-117357896D01*
X126582221Y-117353946D01*
X126584433Y-117350677D01*
X126597965Y-117308346D01*
X126651840Y-117263861D01*
X126657442Y-117261462D01*
X126659679Y-117260505D01*
X126708474Y-117250501D01*
X127168460Y-117250501D01*
X127176069Y-117250501D01*
X127176073Y-117250502D01*
X127334187Y-117250502D01*
X127334192Y-117250500D01*
X127344194Y-117250500D01*
X129411380Y-117250500D01*
X129411443Y-117250501D01*
X129413347Y-117250501D01*
X129420943Y-117250501D01*
X129579054Y-117250501D01*
X129579057Y-117250501D01*
X129731785Y-117209577D01*
X129818387Y-117159577D01*
X129826414Y-117154943D01*
X129868709Y-117130524D01*
X129868708Y-117130524D01*
X129868716Y-117130520D01*
X129980520Y-117018716D01*
X129980520Y-117018715D01*
X129997956Y-117001279D01*
X129997960Y-117001272D01*
X131275213Y-115724019D01*
X131303478Y-115702863D01*
X131307255Y-115700802D01*
X131307255Y-115700801D01*
X131313101Y-115697611D01*
X131314366Y-115699929D01*
X131320019Y-115698046D01*
X131334659Y-115687874D01*
X131352477Y-115687231D01*
X131369393Y-115681595D01*
X131386667Y-115685997D01*
G37*
%TD.AperFunction*%
%TA.AperFunction,Conductor*%
G36*
X133448671Y-121096358D02*
G01*
X133459702Y-121106149D01*
X133965269Y-121611716D01*
X133965270Y-121611717D01*
X133965271Y-121611716D01*
X133965282Y-121611700D01*
X133968438Y-121608008D01*
X133969409Y-121608837D01*
X133978472Y-121601769D01*
X133988243Y-121588012D01*
X133989240Y-121587235D01*
X133995982Y-121582037D01*
X133998265Y-121580277D01*
X134013765Y-121574243D01*
X134018787Y-121570327D01*
X134029270Y-121566115D01*
X134036427Y-121565422D01*
X134063376Y-121554933D01*
X134089698Y-121560268D01*
X134098815Y-121559387D01*
X134107585Y-121563894D01*
X134131853Y-121568814D01*
X134148349Y-121584845D01*
X134160957Y-121591325D01*
X134168599Y-121604523D01*
X134181941Y-121617489D01*
X134183464Y-121620185D01*
X134188285Y-121638521D01*
X134195968Y-121651790D01*
X134195339Y-121665349D01*
X134199500Y-121681175D01*
X134199500Y-122550356D01*
X134194476Y-122585294D01*
X134191289Y-122596147D01*
X134153514Y-122654924D01*
X134089957Y-122683947D01*
X134020819Y-122674011D01*
X134017996Y-122672722D01*
X133969180Y-122632811D01*
X133880109Y-122510214D01*
X133880105Y-122510209D01*
X133729786Y-122359890D01*
X133557817Y-122234949D01*
X133557812Y-122234946D01*
X133556584Y-122234194D01*
X133536242Y-122218624D01*
X133526127Y-122209071D01*
X133490906Y-122148734D01*
X133493896Y-122078929D01*
X133530066Y-122025210D01*
X133537122Y-122019096D01*
X133553537Y-122007083D01*
X133557542Y-122004628D01*
X133557555Y-122004622D01*
X133579119Y-121988953D01*
X133605858Y-121979412D01*
X133611717Y-121965269D01*
X133106149Y-121459702D01*
X133072664Y-121398379D01*
X133077648Y-121328688D01*
X133119519Y-121272754D01*
X133131822Y-121264639D01*
X133157007Y-121250099D01*
X133250099Y-121157007D01*
X133264634Y-121131830D01*
X133315199Y-121083616D01*
X133383805Y-121070391D01*
X133448671Y-121096358D01*
G37*
%TD.AperFunction*%
%TA.AperFunction,Conductor*%
G36*
X113471311Y-120987647D02*
G01*
X113527244Y-121029519D01*
X113535363Y-121041828D01*
X113549896Y-121067000D01*
X113549899Y-121067004D01*
X113549901Y-121067007D01*
X113642993Y-121160099D01*
X113668167Y-121174633D01*
X113716383Y-121225198D01*
X113729607Y-121293805D01*
X113703640Y-121358670D01*
X113693849Y-121369701D01*
X113188321Y-121875229D01*
X113188282Y-121875269D01*
X113188282Y-121875270D01*
X113242452Y-121914626D01*
X113242451Y-121914626D01*
X113244115Y-121915474D01*
X113251857Y-121921058D01*
X113254490Y-121924448D01*
X113264450Y-121931469D01*
X113273868Y-121940363D01*
X113309092Y-122000700D01*
X113306104Y-122070505D01*
X113269932Y-122124229D01*
X113262929Y-122130297D01*
X113245944Y-122141776D01*
X113246331Y-122142407D01*
X113242172Y-122144955D01*
X113070216Y-122269886D01*
X113070211Y-122269891D01*
X113070210Y-122269893D01*
X113070209Y-122269894D01*
X113020916Y-122319187D01*
X112974785Y-122365318D01*
X112946532Y-122386468D01*
X112936608Y-122391887D01*
X112919183Y-122395677D01*
X112913461Y-122398802D01*
X112906958Y-122398336D01*
X112868335Y-122406739D01*
X112802870Y-122382323D01*
X112760999Y-122326389D01*
X112760997Y-122326385D01*
X112758313Y-122319187D01*
X112750500Y-122275867D01*
X112750500Y-121667059D01*
X112755522Y-121632127D01*
X112756949Y-121627267D01*
X112759927Y-121617125D01*
X112797697Y-121558350D01*
X112800665Y-121555779D01*
X113340297Y-121016147D01*
X113401619Y-120982663D01*
X113471311Y-120987647D01*
G37*
%TD.AperFunction*%
%TA.AperFunction,Conductor*%
G36*
X134131845Y-119029661D02*
G01*
X134181942Y-119078343D01*
X134183466Y-119081041D01*
X134199500Y-119142027D01*
X134199500Y-120011208D01*
X134194664Y-120028008D01*
X134194846Y-120044862D01*
X134194476Y-120046146D01*
X134191289Y-120056999D01*
X134182292Y-120070996D01*
X134180530Y-120077122D01*
X134174526Y-120086689D01*
X134169145Y-120091453D01*
X134153514Y-120115776D01*
X134129075Y-120126935D01*
X134122217Y-120133009D01*
X134112473Y-120134516D01*
X134089957Y-120144799D01*
X134067182Y-120141526D01*
X134053169Y-120143695D01*
X134039228Y-120137508D01*
X134020819Y-120134863D01*
X134017996Y-120133574D01*
X134003319Y-120121573D01*
X133989305Y-120115355D01*
X133981844Y-120104016D01*
X133969178Y-120093660D01*
X133965271Y-120088282D01*
X133965269Y-120088282D01*
X133965268Y-120088282D01*
X133459702Y-120593849D01*
X133398379Y-120627334D01*
X133328687Y-120622350D01*
X133272754Y-120580478D01*
X133264634Y-120568169D01*
X133263963Y-120567007D01*
X133250099Y-120542993D01*
X133157007Y-120449901D01*
X133157004Y-120449899D01*
X133157000Y-120449896D01*
X133131828Y-120435363D01*
X133083613Y-120384796D01*
X133070391Y-120316189D01*
X133096359Y-120251324D01*
X133106135Y-120240310D01*
X133611716Y-119734728D01*
X133611715Y-119734727D01*
X133577934Y-119710184D01*
X133577888Y-119710151D01*
X133557547Y-119695373D01*
X133557547Y-119695372D01*
X133556190Y-119694681D01*
X133548690Y-119689333D01*
X133545977Y-119685878D01*
X133535539Y-119678521D01*
X133526129Y-119669634D01*
X133505612Y-119634486D01*
X133505533Y-119634386D01*
X133505529Y-119634344D01*
X133490905Y-119609292D01*
X133493897Y-119539487D01*
X133530070Y-119485767D01*
X133537084Y-119479690D01*
X133554077Y-119468286D01*
X133553657Y-119467600D01*
X133557813Y-119465053D01*
X133564368Y-119460291D01*
X133581725Y-119447680D01*
X133650439Y-119397758D01*
X133678731Y-119377202D01*
X133729786Y-119340109D01*
X133729788Y-119340106D01*
X133729792Y-119340104D01*
X133729798Y-119340097D01*
X133729847Y-119340062D01*
X133730539Y-119339356D01*
X133880104Y-119189792D01*
X133964704Y-119073347D01*
X133989297Y-119048041D01*
X133998261Y-119041129D01*
X134063368Y-119015784D01*
X134131845Y-119029661D01*
G37*
%TD.AperFunction*%
%TA.AperFunction,Conductor*%
G36*
X112905699Y-119115240D02*
G01*
X112905794Y-119114805D01*
X112907426Y-119115160D01*
X112908131Y-119115545D01*
X112910645Y-119115860D01*
X112913835Y-119116734D01*
X112915563Y-119117738D01*
X112917011Y-119117790D01*
X112917069Y-119117809D01*
X112918627Y-119118328D01*
X112918294Y-119119325D01*
X112968737Y-119148638D01*
X112968749Y-119148645D01*
X113070216Y-119250112D01*
X113242178Y-119375048D01*
X113243031Y-119375567D01*
X113243303Y-119375865D01*
X113243902Y-119376300D01*
X113244387Y-119376520D01*
X113245225Y-119377079D01*
X113245142Y-119377202D01*
X113246311Y-119378051D01*
X113246195Y-119378209D01*
X113263741Y-119391361D01*
X113273865Y-119400921D01*
X113287665Y-119424560D01*
X113290085Y-119427216D01*
X113290439Y-119429312D01*
X113309091Y-119461259D01*
X113306105Y-119531065D01*
X113269938Y-119584785D01*
X113262614Y-119591132D01*
X113244059Y-119604432D01*
X113242440Y-119605379D01*
X113188282Y-119644726D01*
X113188281Y-119644727D01*
X113693850Y-120150296D01*
X113727335Y-120211619D01*
X113722351Y-120281311D01*
X113680479Y-120337244D01*
X113668173Y-120345362D01*
X113642996Y-120359898D01*
X113642990Y-120359903D01*
X113549903Y-120452990D01*
X113549898Y-120452996D01*
X113535362Y-120478173D01*
X113484793Y-120526387D01*
X113416185Y-120539607D01*
X113351322Y-120513637D01*
X113340296Y-120503850D01*
X112805814Y-119969368D01*
X112802722Y-119967079D01*
X112790486Y-119955016D01*
X112757502Y-119897801D01*
X112754460Y-119886056D01*
X112750500Y-119854970D01*
X112750500Y-119247585D01*
X112755523Y-119212651D01*
X112758611Y-119202134D01*
X112761140Y-119202876D01*
X112762357Y-119200444D01*
X112764167Y-119186001D01*
X112777675Y-119169826D01*
X112787105Y-119150978D01*
X112799622Y-119143547D01*
X112808954Y-119132374D01*
X112829064Y-119126069D01*
X112847186Y-119115312D01*
X112861732Y-119115828D01*
X112875625Y-119111473D01*
X112905699Y-119115240D01*
G37*
%TD.AperFunction*%
%TA.AperFunction,Conductor*%
G36*
X125426834Y-110235944D02*
G01*
X125482767Y-110277816D01*
X125507183Y-110343281D01*
X125507499Y-110352125D01*
X125507499Y-110571562D01*
X125487814Y-110638601D01*
X125471180Y-110659243D01*
X125390711Y-110739711D01*
X125390708Y-110739714D01*
X125303115Y-110870807D01*
X125303105Y-110870824D01*
X125303100Y-110870833D01*
X125242766Y-111016496D01*
X125242759Y-111016527D01*
X125212002Y-111171150D01*
X125212002Y-111171153D01*
X125212002Y-111328846D01*
X125212002Y-111328848D01*
X125212001Y-111328848D01*
X125242759Y-111483471D01*
X125242766Y-111483502D01*
X125303100Y-111629165D01*
X125303105Y-111629174D01*
X125303115Y-111629191D01*
X125390713Y-111760290D01*
X125390714Y-111760291D01*
X125390718Y-111760296D01*
X125411066Y-111780643D01*
X125423555Y-111793132D01*
X125444701Y-111821379D01*
X125454759Y-111839799D01*
X125469922Y-111898118D01*
X125469982Y-111904838D01*
X125467604Y-111930136D01*
X125449500Y-112021149D01*
X125449500Y-112178850D01*
X125480259Y-112333490D01*
X125480261Y-112333493D01*
X125498060Y-112376465D01*
X125499686Y-112384641D01*
X125502476Y-112388982D01*
X125507499Y-112423917D01*
X125507499Y-112458336D01*
X125491787Y-112516857D01*
X125492125Y-112517025D01*
X125492169Y-112517043D01*
X125492167Y-112517045D01*
X125492411Y-112517166D01*
X125490863Y-112520298D01*
X125490825Y-112520442D01*
X125490603Y-112520824D01*
X125490597Y-112520836D01*
X125430264Y-112666496D01*
X125430257Y-112666527D01*
X125399500Y-112821150D01*
X125399500Y-112821153D01*
X125399500Y-112978846D01*
X125399500Y-112978848D01*
X125399499Y-112978848D01*
X125430257Y-113133471D01*
X125430264Y-113133502D01*
X125480256Y-113254195D01*
X125483355Y-113262506D01*
X125499100Y-113309836D01*
X125499303Y-113315549D01*
X125502131Y-113320521D01*
X125501237Y-113369934D01*
X125501584Y-113379661D01*
X125501045Y-113380567D01*
X125501024Y-113381775D01*
X125500329Y-113384309D01*
X125472851Y-113434532D01*
X125472522Y-113434897D01*
X125449309Y-113454977D01*
X125339713Y-113528209D01*
X125339708Y-113528212D01*
X125296566Y-113571354D01*
X125289421Y-113576109D01*
X125286352Y-113580497D01*
X125259427Y-113596074D01*
X125255935Y-113598399D01*
X125255009Y-113598778D01*
X125250450Y-113600569D01*
X125249866Y-113600887D01*
X125246293Y-113602353D01*
X125214486Y-113605658D01*
X125182656Y-113610510D01*
X125180530Y-113610223D01*
X125178337Y-113609415D01*
X125176797Y-113609576D01*
X125171486Y-113606894D01*
X125130079Y-113591653D01*
X125120813Y-113585698D01*
X125113457Y-113580586D01*
X125110296Y-113578215D01*
X125110290Y-113578211D01*
X124979191Y-113490613D01*
X124979190Y-113490612D01*
X124979185Y-113490609D01*
X124979172Y-113490602D01*
X124979165Y-113490598D01*
X124833502Y-113430264D01*
X124833471Y-113430257D01*
X124678847Y-113399500D01*
X124678845Y-113399500D01*
X124678842Y-113399500D01*
X124521158Y-113399500D01*
X124521155Y-113399500D01*
X124521150Y-113399500D01*
X124379157Y-113427743D01*
X124379144Y-113427747D01*
X124366510Y-113430261D01*
X124366507Y-113430262D01*
X124366506Y-113430262D01*
X124366503Y-113430263D01*
X124283281Y-113464734D01*
X124281889Y-113465310D01*
X124281875Y-113465316D01*
X124280445Y-113465908D01*
X124246278Y-113474624D01*
X124230735Y-113476295D01*
X124161976Y-113463889D01*
X124149577Y-113457682D01*
X124123837Y-113440474D01*
X124121351Y-113438318D01*
X124121350Y-113438317D01*
X123990251Y-113350719D01*
X123990250Y-113350718D01*
X123990245Y-113350715D01*
X123990232Y-113350708D01*
X123990225Y-113350704D01*
X123844562Y-113290370D01*
X123844531Y-113290363D01*
X123689907Y-113259606D01*
X123689905Y-113259606D01*
X123689902Y-113259606D01*
X123532218Y-113259606D01*
X123532215Y-113259606D01*
X123532213Y-113259606D01*
X123377587Y-113290363D01*
X123377556Y-113290370D01*
X123231893Y-113350704D01*
X123231884Y-113350709D01*
X123231867Y-113350719D01*
X123100768Y-113438317D01*
X123100767Y-113438318D01*
X123100761Y-113438323D01*
X122989277Y-113549807D01*
X122989272Y-113549813D01*
X122989271Y-113549814D01*
X122901673Y-113680913D01*
X122901663Y-113680930D01*
X122901658Y-113680939D01*
X122854286Y-113795308D01*
X122844458Y-113807503D01*
X122838981Y-113822182D01*
X122822981Y-113834155D01*
X122810445Y-113849712D01*
X122795582Y-113854658D01*
X122783041Y-113864044D01*
X122763111Y-113865466D01*
X122744151Y-113871777D01*
X122728972Y-113867902D01*
X122713348Y-113869018D01*
X122695812Y-113859439D01*
X122676452Y-113854498D01*
X122664960Y-113842587D01*
X122652030Y-113835524D01*
X122630884Y-113807266D01*
X122629735Y-113805161D01*
X122624954Y-113795410D01*
X122602222Y-113743399D01*
X122602220Y-113743394D01*
X122592289Y-113731547D01*
X122578489Y-113711319D01*
X122571086Y-113697761D01*
X122530938Y-113657614D01*
X122523865Y-113649920D01*
X122523839Y-113649889D01*
X122509790Y-113633129D01*
X122509383Y-113632764D01*
X122509381Y-113632762D01*
X122480352Y-113606765D01*
X122480349Y-113606762D01*
X122477807Y-113604485D01*
X122469345Y-113596024D01*
X122463348Y-113591536D01*
X122459289Y-113587900D01*
X122459288Y-113587898D01*
X122459275Y-113587888D01*
X122457760Y-113586531D01*
X122457758Y-113586529D01*
X122450646Y-113581791D01*
X122445099Y-113577872D01*
X122413398Y-113554143D01*
X122413391Y-113554139D01*
X122394573Y-113543864D01*
X122385249Y-113538228D01*
X122372751Y-113529902D01*
X122327873Y-113476352D01*
X122317500Y-113426705D01*
X122317500Y-110448940D01*
X122337185Y-110381901D01*
X122389989Y-110336146D01*
X122459147Y-110326202D01*
X122522703Y-110355227D01*
X122529181Y-110361259D01*
X122589701Y-110421779D01*
X122589707Y-110421784D01*
X122589711Y-110421787D01*
X122720814Y-110509388D01*
X122720827Y-110509395D01*
X122866498Y-110569733D01*
X122866503Y-110569735D01*
X123001632Y-110596614D01*
X123021153Y-110600497D01*
X123021156Y-110600498D01*
X123021158Y-110600498D01*
X123178844Y-110600498D01*
X123178845Y-110600497D01*
X123333497Y-110569735D01*
X123446166Y-110523065D01*
X123472634Y-110512102D01*
X123475425Y-110511129D01*
X123476868Y-110510462D01*
X123481528Y-110508419D01*
X123490787Y-110504583D01*
X123499671Y-110495699D01*
X123600997Y-110427995D01*
X123602307Y-110427134D01*
X123615522Y-110418558D01*
X123615941Y-110419069D01*
X123622881Y-110415062D01*
X123625716Y-110411943D01*
X123636373Y-110405028D01*
X123640544Y-110403783D01*
X123655012Y-110395078D01*
X123656404Y-110394481D01*
X123673145Y-110388685D01*
X123728956Y-110373730D01*
X123763996Y-110369541D01*
X123782806Y-110369989D01*
X123798190Y-110374506D01*
X123811947Y-110374179D01*
X123844391Y-110388073D01*
X123853288Y-110393496D01*
X123876431Y-110411696D01*
X123895255Y-110430520D01*
X123961413Y-110468716D01*
X124032186Y-110509577D01*
X124184913Y-110550501D01*
X124184915Y-110550501D01*
X124350624Y-110550501D01*
X124352528Y-110550501D01*
X124352591Y-110550500D01*
X124672409Y-110550500D01*
X124672472Y-110550501D01*
X124674376Y-110550501D01*
X124681972Y-110550501D01*
X124840083Y-110550501D01*
X124840086Y-110550501D01*
X124992814Y-110509577D01*
X125063587Y-110468716D01*
X125129745Y-110430520D01*
X125241549Y-110318716D01*
X125241549Y-110318715D01*
X125258981Y-110301283D01*
X125258989Y-110301273D01*
X125295819Y-110264443D01*
X125357143Y-110230958D01*
X125426834Y-110235944D01*
G37*
%TD.AperFunction*%
%TA.AperFunction,Conductor*%
G36*
X133448671Y-108396358D02*
G01*
X133459702Y-108406149D01*
X133965269Y-108911716D01*
X133965270Y-108911717D01*
X133965271Y-108911716D01*
X133965282Y-108911700D01*
X133968438Y-108908008D01*
X133969409Y-108908837D01*
X133978472Y-108901769D01*
X133988243Y-108888012D01*
X133989240Y-108887235D01*
X133995982Y-108882037D01*
X133998265Y-108880277D01*
X134013765Y-108874243D01*
X134018787Y-108870327D01*
X134029270Y-108866115D01*
X134036427Y-108865422D01*
X134063376Y-108854933D01*
X134089698Y-108860268D01*
X134098815Y-108859387D01*
X134107585Y-108863894D01*
X134131853Y-108868814D01*
X134148349Y-108884845D01*
X134160957Y-108891325D01*
X134168599Y-108904523D01*
X134181941Y-108917489D01*
X134183464Y-108920185D01*
X134188285Y-108938521D01*
X134195968Y-108951790D01*
X134195339Y-108965349D01*
X134199500Y-108981175D01*
X134199500Y-109850356D01*
X134194476Y-109885294D01*
X134191289Y-109896147D01*
X134153514Y-109954924D01*
X134089957Y-109983947D01*
X134020819Y-109974011D01*
X134017996Y-109972722D01*
X133969180Y-109932811D01*
X133880109Y-109810214D01*
X133880105Y-109810209D01*
X133729786Y-109659890D01*
X133557817Y-109534949D01*
X133557812Y-109534946D01*
X133556584Y-109534194D01*
X133536242Y-109518624D01*
X133526127Y-109509071D01*
X133490906Y-109448734D01*
X133493896Y-109378929D01*
X133530066Y-109325210D01*
X133537122Y-109319096D01*
X133553537Y-109307083D01*
X133557542Y-109304628D01*
X133557555Y-109304622D01*
X133579119Y-109288953D01*
X133605858Y-109279412D01*
X133611717Y-109265269D01*
X133106149Y-108759702D01*
X133072664Y-108698379D01*
X133077648Y-108628688D01*
X133119519Y-108572754D01*
X133131822Y-108564639D01*
X133157007Y-108550099D01*
X133250099Y-108457007D01*
X133264634Y-108431830D01*
X133315199Y-108383616D01*
X133383805Y-108370391D01*
X133448671Y-108396358D01*
G37*
%TD.AperFunction*%
%TA.AperFunction,Conductor*%
G36*
X113471311Y-108287647D02*
G01*
X113527244Y-108329519D01*
X113535363Y-108341828D01*
X113549896Y-108367000D01*
X113549899Y-108367004D01*
X113549901Y-108367007D01*
X113642993Y-108460099D01*
X113668167Y-108474633D01*
X113716383Y-108525198D01*
X113729607Y-108593805D01*
X113703640Y-108658670D01*
X113693849Y-108669701D01*
X113188321Y-109175229D01*
X113188282Y-109175269D01*
X113188282Y-109175270D01*
X113242452Y-109214626D01*
X113242451Y-109214626D01*
X113244115Y-109215474D01*
X113251857Y-109221058D01*
X113254490Y-109224448D01*
X113264450Y-109231469D01*
X113273868Y-109240363D01*
X113309092Y-109300700D01*
X113306104Y-109370505D01*
X113269932Y-109424229D01*
X113262929Y-109430297D01*
X113245944Y-109441776D01*
X113246331Y-109442407D01*
X113242172Y-109444955D01*
X113070216Y-109569886D01*
X113070211Y-109569891D01*
X113070210Y-109569893D01*
X113070209Y-109569894D01*
X113020916Y-109619187D01*
X112974785Y-109665318D01*
X112946532Y-109686468D01*
X112936608Y-109691887D01*
X112919183Y-109695677D01*
X112913461Y-109698802D01*
X112906958Y-109698336D01*
X112868335Y-109706739D01*
X112802870Y-109682323D01*
X112760999Y-109626389D01*
X112760997Y-109626385D01*
X112758313Y-109619187D01*
X112750500Y-109575867D01*
X112750500Y-108967059D01*
X112755522Y-108932127D01*
X112759927Y-108917125D01*
X112797697Y-108858350D01*
X112800665Y-108855779D01*
X113340297Y-108316147D01*
X113401619Y-108282663D01*
X113471311Y-108287647D01*
G37*
%TD.AperFunction*%
%TA.AperFunction,Conductor*%
G36*
X134131845Y-106329661D02*
G01*
X134181942Y-106378343D01*
X134183466Y-106381041D01*
X134199500Y-106442027D01*
X134199500Y-107311208D01*
X134194664Y-107328008D01*
X134194846Y-107344862D01*
X134194476Y-107346146D01*
X134191289Y-107356999D01*
X134182292Y-107370996D01*
X134180530Y-107377122D01*
X134174526Y-107386689D01*
X134169145Y-107391453D01*
X134153514Y-107415776D01*
X134129075Y-107426935D01*
X134122217Y-107433009D01*
X134112473Y-107434516D01*
X134089957Y-107444799D01*
X134067182Y-107441526D01*
X134053169Y-107443695D01*
X134039228Y-107437508D01*
X134020819Y-107434863D01*
X134017996Y-107433574D01*
X134003319Y-107421573D01*
X133989305Y-107415355D01*
X133981844Y-107404016D01*
X133969178Y-107393660D01*
X133965271Y-107388282D01*
X133965269Y-107388282D01*
X133965268Y-107388282D01*
X133459702Y-107893849D01*
X133398379Y-107927334D01*
X133328687Y-107922350D01*
X133272754Y-107880478D01*
X133264634Y-107868169D01*
X133263963Y-107867007D01*
X133250099Y-107842993D01*
X133157007Y-107749901D01*
X133157005Y-107749900D01*
X133157003Y-107749898D01*
X133131826Y-107735362D01*
X133083611Y-107684794D01*
X133070390Y-107616186D01*
X133096359Y-107551322D01*
X133106137Y-107540305D01*
X133611716Y-107034728D01*
X133611715Y-107034727D01*
X133577934Y-107010184D01*
X133577888Y-107010151D01*
X133557547Y-106995373D01*
X133557547Y-106995372D01*
X133556190Y-106994681D01*
X133548690Y-106989333D01*
X133545977Y-106985878D01*
X133535539Y-106978521D01*
X133526129Y-106969634D01*
X133505612Y-106934486D01*
X133505533Y-106934386D01*
X133505529Y-106934344D01*
X133490905Y-106909292D01*
X133493897Y-106839487D01*
X133530070Y-106785767D01*
X133537084Y-106779690D01*
X133554083Y-106768282D01*
X133553663Y-106767596D01*
X133557814Y-106765052D01*
X133557813Y-106765052D01*
X133557816Y-106765051D01*
X133637007Y-106707515D01*
X133729786Y-106640109D01*
X133729787Y-106640107D01*
X133729845Y-106640065D01*
X133730558Y-106639337D01*
X133880104Y-106489792D01*
X133964704Y-106373347D01*
X133989297Y-106348041D01*
X133998261Y-106341129D01*
X134063368Y-106315784D01*
X134131845Y-106329661D01*
G37*
%TD.AperFunction*%
%TA.AperFunction,Conductor*%
G36*
X112929186Y-106423935D02*
G01*
X112936172Y-106427125D01*
X112972342Y-106452238D01*
X113070216Y-106550112D01*
X113242178Y-106675048D01*
X113243031Y-106675567D01*
X113243303Y-106675865D01*
X113243902Y-106676300D01*
X113244387Y-106676520D01*
X113245225Y-106677079D01*
X113245142Y-106677202D01*
X113246311Y-106678051D01*
X113246195Y-106678209D01*
X113263741Y-106691361D01*
X113273865Y-106700921D01*
X113287665Y-106724560D01*
X113290085Y-106727216D01*
X113290439Y-106729312D01*
X113309091Y-106761259D01*
X113306105Y-106831065D01*
X113269938Y-106884785D01*
X113262614Y-106891132D01*
X113244059Y-106904432D01*
X113242440Y-106905379D01*
X113188282Y-106944726D01*
X113188281Y-106944727D01*
X113693850Y-107450296D01*
X113727335Y-107511619D01*
X113722351Y-107581311D01*
X113680479Y-107637244D01*
X113668173Y-107645362D01*
X113642996Y-107659898D01*
X113642990Y-107659903D01*
X113549903Y-107752990D01*
X113549898Y-107752996D01*
X113535362Y-107778173D01*
X113484793Y-107826387D01*
X113416185Y-107839607D01*
X113351322Y-107813637D01*
X113340296Y-107803850D01*
X112805814Y-107269368D01*
X112802722Y-107267079D01*
X112790486Y-107255016D01*
X112757502Y-107197801D01*
X112754460Y-107186056D01*
X112750500Y-107154970D01*
X112750500Y-106547587D01*
X112755521Y-106512660D01*
X112758707Y-106501807D01*
X112796477Y-106443026D01*
X112860031Y-106413997D01*
X112929186Y-106423935D01*
G37*
%TD.AperFunction*%
%TA.AperFunction,Conductor*%
G36*
X126322281Y-96052814D02*
G01*
X126338423Y-96054764D01*
X126339770Y-96055126D01*
X126353451Y-96059144D01*
X126359906Y-96060548D01*
X126362821Y-96061333D01*
X126418083Y-96093284D01*
X126418253Y-96093377D01*
X126418257Y-96093385D01*
X126418266Y-96093390D01*
X126463100Y-96138226D01*
X126463102Y-96138228D01*
X126463105Y-96138230D01*
X126463107Y-96138232D01*
X126463108Y-96138233D01*
X126463110Y-96138234D01*
X126463112Y-96138236D01*
X126463118Y-96138240D01*
X126464451Y-96139200D01*
X126467353Y-96140799D01*
X126600898Y-96221531D01*
X126754613Y-96269430D01*
X126821409Y-96275500D01*
X128007670Y-96275499D01*
X128017935Y-96276975D01*
X128042604Y-96280522D01*
X128057603Y-96284926D01*
X128116381Y-96322700D01*
X128116390Y-96322710D01*
X128117576Y-96324079D01*
X128145018Y-96378901D01*
X128146663Y-96386459D01*
X128149500Y-96412830D01*
X128149500Y-98445614D01*
X128149499Y-98445618D01*
X128149500Y-98445621D01*
X128144475Y-98480555D01*
X128140564Y-98493872D01*
X128102787Y-98552648D01*
X128039229Y-98581670D01*
X128033287Y-98582524D01*
X127983052Y-98579424D01*
X127963384Y-98574065D01*
X127960727Y-98574659D01*
X127944703Y-98572545D01*
X127828848Y-98549500D01*
X127828845Y-98549500D01*
X127828842Y-98549500D01*
X127671158Y-98549500D01*
X127671155Y-98549500D01*
X127671153Y-98549500D01*
X127516527Y-98580257D01*
X127516496Y-98580264D01*
X127370833Y-98640598D01*
X127370824Y-98640603D01*
X127370807Y-98640613D01*
X127239708Y-98728211D01*
X127239707Y-98728212D01*
X127239701Y-98728217D01*
X127128217Y-98839701D01*
X127128212Y-98839707D01*
X127128211Y-98839708D01*
X127040613Y-98970807D01*
X127040603Y-98970824D01*
X127040598Y-98970833D01*
X126980264Y-99116496D01*
X126980257Y-99116527D01*
X126949500Y-99271150D01*
X126949500Y-99271153D01*
X126949500Y-99428846D01*
X126949500Y-99428848D01*
X126949499Y-99428848D01*
X126980257Y-99583471D01*
X126980264Y-99583502D01*
X127040598Y-99729165D01*
X127040603Y-99729174D01*
X127040613Y-99729191D01*
X127128211Y-99860290D01*
X127128212Y-99860291D01*
X127128217Y-99860297D01*
X127239701Y-99971781D01*
X127239707Y-99971786D01*
X127239711Y-99971789D01*
X127370814Y-100059390D01*
X127370827Y-100059397D01*
X127516498Y-100119735D01*
X127516503Y-100119737D01*
X127646982Y-100145691D01*
X127663530Y-100148982D01*
X127666248Y-100149703D01*
X127671155Y-100150500D01*
X127828844Y-100150500D01*
X127832965Y-100150500D01*
X127840820Y-100148116D01*
X127959207Y-100124568D01*
X127969971Y-100122915D01*
X127990157Y-100120718D01*
X127990158Y-100120720D01*
X128009426Y-100118623D01*
X128078197Y-100130942D01*
X128129394Y-100178487D01*
X128132061Y-100182969D01*
X128149500Y-100246378D01*
X128149500Y-105632111D01*
X128144476Y-105667049D01*
X128141289Y-105677902D01*
X128103514Y-105736679D01*
X128039957Y-105765702D01*
X127970803Y-105755759D01*
X127966257Y-105753683D01*
X127929783Y-105726178D01*
X127927464Y-105726087D01*
X127927463Y-105726087D01*
X127682375Y-105971176D01*
X127682375Y-105971177D01*
X127682375Y-105971178D01*
X127895670Y-106184473D01*
X128100572Y-106389374D01*
X128120351Y-106415182D01*
X128121068Y-106416428D01*
X128127884Y-106428910D01*
X128131451Y-106434461D01*
X128132960Y-106437081D01*
X128140475Y-106468218D01*
X128149500Y-106498951D01*
X128149500Y-106581308D01*
X128144476Y-106616245D01*
X128137064Y-106641486D01*
X128105768Y-106694231D01*
X128052182Y-106747816D01*
X128029111Y-106765087D01*
X128023929Y-106768966D01*
X128010212Y-106776456D01*
X127941955Y-106791309D01*
X127941939Y-106791307D01*
X127941939Y-106791308D01*
X127941938Y-106791307D01*
X127940148Y-106791180D01*
X127881935Y-106771808D01*
X127875425Y-106767624D01*
X127854787Y-106750992D01*
X127785954Y-106682159D01*
X127785949Y-106682155D01*
X127785945Y-106682151D01*
X127780151Y-106677202D01*
X127758257Y-106658503D01*
X127758253Y-106658500D01*
X127758252Y-106658499D01*
X127758247Y-106658496D01*
X127616447Y-106580541D01*
X127459707Y-106540297D01*
X127459704Y-106540297D01*
X127459701Y-106540297D01*
X127419662Y-106540297D01*
X127419660Y-106540296D01*
X127419660Y-106540297D01*
X127384726Y-106535274D01*
X127363460Y-106529029D01*
X127304684Y-106491254D01*
X127289735Y-106469788D01*
X127262677Y-106420568D01*
X127262676Y-106420566D01*
X127239026Y-106392876D01*
X127239011Y-106392860D01*
X127170094Y-106323943D01*
X127165869Y-106317696D01*
X127162096Y-106315138D01*
X127145369Y-106287382D01*
X127143749Y-106284987D01*
X127143530Y-106284474D01*
X127141027Y-106278475D01*
X127140747Y-106277963D01*
X127139410Y-106274833D01*
X127135597Y-106242732D01*
X127131199Y-106215819D01*
X127129957Y-106215733D01*
X127129978Y-106215430D01*
X127130753Y-106213091D01*
X127130382Y-106210818D01*
X127130383Y-106210812D01*
X127130607Y-106209010D01*
X127131606Y-106209134D01*
X127131169Y-106205451D01*
X127137815Y-106191794D01*
X127149366Y-106156964D01*
X127153553Y-106150447D01*
X127170173Y-106129824D01*
X127199999Y-106099999D01*
X127123510Y-106023510D01*
X127102358Y-105995254D01*
X127094866Y-105981533D01*
X127092934Y-105972652D01*
X127080014Y-105913273D01*
X127080143Y-105911464D01*
X127099509Y-105853269D01*
X127103702Y-105846745D01*
X127120323Y-105826120D01*
X127573909Y-105372535D01*
X127573909Y-105372533D01*
X127557961Y-105358911D01*
X127557957Y-105358909D01*
X127557956Y-105358908D01*
X127557579Y-105358657D01*
X127555857Y-105357754D01*
X127440385Y-105294273D01*
X127412193Y-105273043D01*
X127399417Y-105260194D01*
X127367155Y-105203253D01*
X127364307Y-105192026D01*
X127360500Y-105161536D01*
X127360500Y-104855321D01*
X127360500Y-104855317D01*
X127360499Y-104855302D01*
X127357643Y-104819008D01*
X127357642Y-104819002D01*
X127312495Y-104663609D01*
X127312494Y-104663605D01*
X127305606Y-104651958D01*
X127302751Y-104645592D01*
X127302103Y-104640862D01*
X127295705Y-104625355D01*
X127291248Y-104607786D01*
X127292463Y-104542362D01*
X127295728Y-104531242D01*
X127307975Y-104503052D01*
X127312032Y-104496194D01*
X127354504Y-104350000D01*
X127065008Y-104350000D01*
X127032284Y-104345604D01*
X127000588Y-104336932D01*
X126977888Y-104328252D01*
X126976423Y-104327520D01*
X126976398Y-104327508D01*
X126976395Y-104327506D01*
X126976393Y-104327505D01*
X126976389Y-104327503D01*
X126976386Y-104327502D01*
X126976384Y-104327501D01*
X126976382Y-104327500D01*
X126976384Y-104327500D01*
X126821007Y-104282359D01*
X126821003Y-104282358D01*
X126820997Y-104282357D01*
X126820991Y-104282356D01*
X126812925Y-104281721D01*
X126784704Y-104279500D01*
X126784697Y-104279500D01*
X126784690Y-104279500D01*
X126691830Y-104279500D01*
X126691825Y-104279499D01*
X126691823Y-104279500D01*
X126656889Y-104274475D01*
X126641890Y-104270070D01*
X126583144Y-104232327D01*
X126583115Y-104232293D01*
X126583114Y-104232293D01*
X126583113Y-104232291D01*
X126581957Y-104230958D01*
X126554477Y-104176083D01*
X126552832Y-104168521D01*
X126550000Y-104142168D01*
X126550000Y-104100000D01*
X126462326Y-104100000D01*
X126446824Y-104099027D01*
X126443086Y-104098556D01*
X126437935Y-104096311D01*
X126427554Y-104094456D01*
X126427401Y-104094980D01*
X126425977Y-104094562D01*
X126426085Y-104094193D01*
X126418301Y-104092802D01*
X126407123Y-104088962D01*
X126381754Y-104071830D01*
X126379034Y-104070645D01*
X126378241Y-104069458D01*
X126353679Y-104052871D01*
X126350768Y-104049510D01*
X126321757Y-103985947D01*
X126320499Y-103968328D01*
X126320499Y-103880831D01*
X126320498Y-103880806D01*
X126318074Y-103850000D01*
X126800000Y-103850000D01*
X127354503Y-103850000D01*
X127354504Y-103850000D01*
X127312031Y-103703804D01*
X127229721Y-103564625D01*
X127229714Y-103564616D01*
X127115383Y-103450285D01*
X127115374Y-103450278D01*
X126996117Y-103379750D01*
X126976197Y-103367969D01*
X126976193Y-103367967D01*
X126976184Y-103367963D01*
X126820928Y-103322857D01*
X126820920Y-103322855D01*
X126820912Y-103322854D01*
X126800000Y-103321209D01*
X126800000Y-103850000D01*
X126318074Y-103850000D01*
X126317665Y-103844796D01*
X126315790Y-103838343D01*
X126306282Y-103805616D01*
X126301988Y-103783493D01*
X126301167Y-103775366D01*
X126301234Y-103775015D01*
X126300880Y-103772531D01*
X126300628Y-103770031D01*
X126300812Y-103769043D01*
X126300000Y-103757567D01*
X126300000Y-103321210D01*
X126299999Y-103321209D01*
X126279084Y-103322854D01*
X126279078Y-103322855D01*
X126279070Y-103322857D01*
X126123826Y-103367960D01*
X126123805Y-103367967D01*
X126123792Y-103367973D01*
X126119224Y-103370675D01*
X126119222Y-103370675D01*
X126119222Y-103370676D01*
X126116332Y-103371868D01*
X126086595Y-103384135D01*
X126069033Y-103388590D01*
X126003610Y-103387375D01*
X125992500Y-103384113D01*
X125964314Y-103371868D01*
X125939396Y-103357132D01*
X125939382Y-103357126D01*
X125785226Y-103312339D01*
X125785211Y-103312336D01*
X125785212Y-103312336D01*
X125785208Y-103312335D01*
X125785202Y-103312334D01*
X125774912Y-103311524D01*
X125749193Y-103309500D01*
X125749188Y-103309500D01*
X125749181Y-103309500D01*
X125647927Y-103309500D01*
X125647926Y-103309499D01*
X125647926Y-103309500D01*
X125612991Y-103304477D01*
X125587749Y-103297065D01*
X125535004Y-103265769D01*
X124874426Y-102605191D01*
X124853274Y-102576935D01*
X124840667Y-102553846D01*
X124825500Y-102494421D01*
X124825500Y-96385676D01*
X124825568Y-96385206D01*
X124830523Y-96350740D01*
X124831332Y-96347987D01*
X124834927Y-96335741D01*
X124872690Y-96276975D01*
X124872701Y-96276965D01*
X124878244Y-96272161D01*
X124935266Y-96244249D01*
X124956483Y-96240029D01*
X125058497Y-96219737D01*
X125204179Y-96159394D01*
X125209589Y-96155779D01*
X125321055Y-96081299D01*
X125352885Y-96066071D01*
X125372574Y-96059906D01*
X125384529Y-96056164D01*
X125421578Y-96050500D01*
X126306185Y-96050500D01*
X126322281Y-96052814D01*
G37*
%TD.AperFunction*%
%TA.AperFunction,Conductor*%
G36*
X117928538Y-93519301D02*
G01*
X117977603Y-93559561D01*
X117982393Y-93566202D01*
X117989496Y-93577237D01*
X117990606Y-93579181D01*
X118078211Y-93710290D01*
X118078212Y-93710291D01*
X118078217Y-93710297D01*
X118189701Y-93821781D01*
X118189707Y-93821786D01*
X118189711Y-93821789D01*
X118320814Y-93909390D01*
X118320827Y-93909397D01*
X118452433Y-93963909D01*
X118466503Y-93969737D01*
X118615263Y-93999327D01*
X118616946Y-93999712D01*
X118617210Y-93999860D01*
X118621155Y-94000500D01*
X118778844Y-94000500D01*
X118778845Y-94000500D01*
X118824787Y-93991361D01*
X118857504Y-93984853D01*
X118871324Y-93982103D01*
X118906558Y-93980214D01*
X118920390Y-93981451D01*
X118985406Y-94007033D01*
X119026269Y-94063694D01*
X119029933Y-94074077D01*
X119037000Y-94115341D01*
X119037000Y-94396105D01*
X119042309Y-94454534D01*
X119043068Y-94462882D01*
X119043071Y-94462893D01*
X119050289Y-94486056D01*
X119090965Y-94616595D01*
X119090966Y-94616597D01*
X119090967Y-94616598D01*
X119090968Y-94616600D01*
X119163192Y-94736075D01*
X119163194Y-94736077D01*
X119176969Y-94768572D01*
X119181429Y-94785463D01*
X119180515Y-94852056D01*
X119176952Y-94864190D01*
X119164092Y-94893403D01*
X119091428Y-95013604D01*
X119091427Y-95013606D01*
X119091427Y-95013607D01*
X119060257Y-95113637D01*
X119043562Y-95167213D01*
X119040585Y-95199989D01*
X119040585Y-95199999D01*
X119040585Y-95200000D01*
X120208171Y-95200000D01*
X120243106Y-95205023D01*
X120258104Y-95209427D01*
X120316855Y-95247172D01*
X120316879Y-95247200D01*
X120316882Y-95247202D01*
X120316883Y-95247204D01*
X120318042Y-95248541D01*
X120345518Y-95303402D01*
X120347163Y-95310960D01*
X120350000Y-95337331D01*
X120350000Y-95450000D01*
X120458171Y-95450000D01*
X120493106Y-95455023D01*
X120508104Y-95459427D01*
X120566855Y-95497172D01*
X120566879Y-95497200D01*
X120566882Y-95497202D01*
X120566883Y-95497204D01*
X120568042Y-95498541D01*
X120595518Y-95553402D01*
X120597163Y-95560960D01*
X120600000Y-95587331D01*
X120600000Y-96275000D01*
X120601812Y-96276812D01*
X120601814Y-96276811D01*
X120614102Y-96280903D01*
X120624216Y-96284769D01*
X120625309Y-96285242D01*
X120629683Y-96287240D01*
X120630420Y-96287456D01*
X120634337Y-96289153D01*
X120658809Y-96309530D01*
X120679565Y-96325064D01*
X120680591Y-96324176D01*
X120681506Y-96325232D01*
X120682397Y-96327184D01*
X120684309Y-96328615D01*
X120686136Y-96331055D01*
X120685357Y-96331637D01*
X120688029Y-96333862D01*
X120693770Y-96352085D01*
X120710529Y-96388777D01*
X120710736Y-96390216D01*
X120711999Y-96407872D01*
X120711999Y-96550879D01*
X120712000Y-96560867D01*
X120712000Y-105711828D01*
X120711999Y-105711829D01*
X120712000Y-105711830D01*
X120706977Y-105746763D01*
X120701416Y-105765702D01*
X120699791Y-105771237D01*
X120664984Y-105827356D01*
X120656131Y-105835541D01*
X120650000Y-105841208D01*
X120650000Y-106478170D01*
X120649999Y-106478176D01*
X120650000Y-106478179D01*
X120644975Y-106513114D01*
X120640570Y-106528112D01*
X120602827Y-106586855D01*
X120602792Y-106586885D01*
X120602791Y-106586887D01*
X120602789Y-106586887D01*
X120601458Y-106588042D01*
X120546597Y-106615518D01*
X120539039Y-106617163D01*
X120512668Y-106620000D01*
X120291830Y-106620000D01*
X120291825Y-106619999D01*
X120291823Y-106620000D01*
X120256889Y-106614975D01*
X120241890Y-106610570D01*
X120183144Y-106572827D01*
X120183115Y-106572793D01*
X120183114Y-106572793D01*
X120183113Y-106572791D01*
X120181957Y-106571458D01*
X120154477Y-106516583D01*
X120152832Y-106509021D01*
X120150000Y-106482668D01*
X120150000Y-105841210D01*
X120149999Y-105841209D01*
X120129084Y-105842854D01*
X120129078Y-105842855D01*
X120129070Y-105842857D01*
X119973814Y-105887963D01*
X119973805Y-105887967D01*
X119973801Y-105887969D01*
X119834627Y-105970276D01*
X119834619Y-105970282D01*
X119720285Y-106084615D01*
X119720266Y-106084646D01*
X119690306Y-106135305D01*
X119679514Y-106146056D01*
X119673890Y-106157148D01*
X119668200Y-106162817D01*
X119659934Y-106170535D01*
X119649869Y-106175591D01*
X119646295Y-106179152D01*
X119637220Y-106184473D01*
X119627216Y-106186970D01*
X119597500Y-106201899D01*
X119576396Y-106199660D01*
X119569431Y-106201400D01*
X119558774Y-106197791D01*
X119528020Y-106194530D01*
X119512636Y-106182169D01*
X119503253Y-106178992D01*
X119493572Y-106166851D01*
X119473554Y-106150766D01*
X119473530Y-106150732D01*
X119472983Y-106149946D01*
X119465652Y-106131834D01*
X119459694Y-106124362D01*
X119458702Y-106114664D01*
X119452370Y-106099020D01*
X119452108Y-106097409D01*
X119450500Y-106077504D01*
X119450500Y-99326835D01*
X119450500Y-99326833D01*
X119409577Y-99174106D01*
X119407206Y-99170000D01*
X119330524Y-99037180D01*
X119330518Y-99037172D01*
X119218716Y-98925370D01*
X118589397Y-98296050D01*
X118581925Y-98283553D01*
X118573215Y-98276108D01*
X118568248Y-98267800D01*
X118562826Y-98257870D01*
X118560685Y-98248028D01*
X118558338Y-98244103D01*
X118555105Y-98233360D01*
X118555028Y-98222031D01*
X118547973Y-98189600D01*
X118554690Y-98171587D01*
X118554636Y-98163491D01*
X118562114Y-98151680D01*
X118572387Y-98124135D01*
X118586018Y-98113930D01*
X118592014Y-98104461D01*
X118609562Y-98096303D01*
X118628317Y-98082263D01*
X118630517Y-98081442D01*
X118643839Y-98080370D01*
X118655374Y-98075009D01*
X118675766Y-98077801D01*
X118698034Y-98076009D01*
X118797876Y-98095869D01*
X118821154Y-98100500D01*
X118978844Y-98100500D01*
X118982964Y-98100500D01*
X118990814Y-98098118D01*
X119133497Y-98069737D01*
X119279179Y-98009394D01*
X119410289Y-97921789D01*
X119521789Y-97810289D01*
X119609394Y-97679179D01*
X119669737Y-97533497D01*
X119700500Y-97378842D01*
X119700500Y-97221158D01*
X119700500Y-97221155D01*
X119700500Y-97220973D01*
X119700065Y-97218971D01*
X119689963Y-97168185D01*
X119678430Y-97110208D01*
X119669737Y-97066503D01*
X119644852Y-97006424D01*
X119609397Y-96920827D01*
X119609390Y-96920814D01*
X119521789Y-96789711D01*
X119521786Y-96789707D01*
X119521781Y-96789701D01*
X119410297Y-96678217D01*
X119410291Y-96678212D01*
X119410290Y-96678211D01*
X119279191Y-96590613D01*
X119279190Y-96590612D01*
X119279185Y-96590609D01*
X119279172Y-96590602D01*
X119279165Y-96590598D01*
X119133502Y-96530264D01*
X119133471Y-96530257D01*
X118978847Y-96499500D01*
X118978845Y-96499500D01*
X118978842Y-96499500D01*
X118821158Y-96499500D01*
X118821155Y-96499500D01*
X118821153Y-96499500D01*
X118666527Y-96530257D01*
X118666496Y-96530264D01*
X118520833Y-96590598D01*
X118520824Y-96590603D01*
X118520807Y-96590613D01*
X118389708Y-96678211D01*
X118389707Y-96678212D01*
X118389701Y-96678217D01*
X118278217Y-96789701D01*
X118278212Y-96789707D01*
X118278211Y-96789708D01*
X118190613Y-96920807D01*
X118190603Y-96920824D01*
X118190598Y-96920833D01*
X118130264Y-97066496D01*
X118130257Y-97066527D01*
X118099500Y-97221150D01*
X118099500Y-97221153D01*
X118099500Y-97378846D01*
X118099500Y-97378848D01*
X118099499Y-97378848D01*
X118122375Y-97493847D01*
X118121646Y-97508379D01*
X118124751Y-97519400D01*
X118124265Y-97529089D01*
X118123257Y-97540355D01*
X118119572Y-97549719D01*
X118119344Y-97554278D01*
X118116065Y-97565008D01*
X118109832Y-97574475D01*
X118097676Y-97605374D01*
X118082098Y-97616607D01*
X118077648Y-97623368D01*
X118064857Y-97629040D01*
X118041005Y-97646241D01*
X118024011Y-97647154D01*
X118013777Y-97651693D01*
X117994668Y-97648731D01*
X117971266Y-97649989D01*
X117969689Y-97649616D01*
X117968994Y-97649452D01*
X117957315Y-97642941D01*
X117944732Y-97640991D01*
X117929309Y-97627327D01*
X117909798Y-97616450D01*
X117799426Y-97506078D01*
X117778274Y-97477822D01*
X117765667Y-97454733D01*
X117750500Y-97395308D01*
X117750500Y-95700000D01*
X119040585Y-95700000D01*
X119043563Y-95732790D01*
X119072358Y-95825198D01*
X119091427Y-95886392D01*
X119141789Y-95969701D01*
X119174665Y-96024083D01*
X119288414Y-96137832D01*
X119288418Y-96137835D01*
X119288419Y-96137836D01*
X119426103Y-96221070D01*
X119579707Y-96268934D01*
X119646457Y-96275000D01*
X120100000Y-96275000D01*
X120100000Y-95700000D01*
X119040585Y-95700000D01*
X117750500Y-95700000D01*
X117750500Y-93640731D01*
X117755521Y-93605804D01*
X117758055Y-93597172D01*
X117795825Y-93538391D01*
X117859379Y-93509362D01*
X117928538Y-93519301D01*
G37*
%TD.AperFunction*%
%TA.AperFunction,Conductor*%
G36*
X131447628Y-95316514D02*
G01*
X131489494Y-95372434D01*
X131492176Y-95379622D01*
X131500000Y-95422970D01*
X131500000Y-95556246D01*
X131527810Y-95731828D01*
X131531715Y-95756485D01*
X131531716Y-95756493D01*
X131533242Y-95766133D01*
X131567886Y-95872754D01*
X131598904Y-95968217D01*
X131662677Y-96093377D01*
X131695374Y-96157548D01*
X131695375Y-96157550D01*
X131716905Y-96187185D01*
X131734728Y-96211716D01*
X132240297Y-95706147D01*
X132301619Y-95672663D01*
X132371311Y-95677647D01*
X132427244Y-95719519D01*
X132435363Y-95731828D01*
X132449896Y-95757000D01*
X132449899Y-95757004D01*
X132449901Y-95757007D01*
X132542993Y-95850099D01*
X132568169Y-95864634D01*
X132616384Y-95915202D01*
X132629606Y-95983809D01*
X132603638Y-96048673D01*
X132593849Y-96059702D01*
X132088321Y-96565229D01*
X132088282Y-96565269D01*
X132088282Y-96565270D01*
X132142452Y-96604626D01*
X132142451Y-96604626D01*
X132144115Y-96605474D01*
X132151857Y-96611058D01*
X132154490Y-96614448D01*
X132164450Y-96621469D01*
X132173868Y-96630363D01*
X132209092Y-96690700D01*
X132206104Y-96760505D01*
X132169932Y-96814229D01*
X132162929Y-96820297D01*
X132145944Y-96831776D01*
X132146331Y-96832407D01*
X132142172Y-96834955D01*
X131970216Y-96959886D01*
X131819892Y-97110210D01*
X131694949Y-97282182D01*
X131598445Y-97471580D01*
X131532752Y-97673759D01*
X131499500Y-97883707D01*
X131499500Y-98096291D01*
X131530233Y-98290332D01*
X131530234Y-98290339D01*
X131532754Y-98306244D01*
X131532754Y-98306247D01*
X131542032Y-98334803D01*
X131542904Y-98338086D01*
X131542799Y-98342068D01*
X131547000Y-98366342D01*
X131547488Y-98383409D01*
X131531071Y-98448693D01*
X131524443Y-98460236D01*
X131504591Y-98486171D01*
X131174788Y-98815975D01*
X131152067Y-98832985D01*
X131146538Y-98837124D01*
X131136611Y-98842545D01*
X131068338Y-98857399D01*
X131002873Y-98832985D01*
X130961000Y-98777053D01*
X130960995Y-98777040D01*
X130958315Y-98769853D01*
X130950500Y-98726528D01*
X130950500Y-95727925D01*
X130955522Y-95692992D01*
X130958275Y-95683616D01*
X130962934Y-95667747D01*
X130994228Y-95615005D01*
X131275719Y-95333514D01*
X131303957Y-95312375D01*
X131313895Y-95306948D01*
X131382163Y-95292098D01*
X131447628Y-95316514D01*
G37*
%TD.AperFunction*%
%TA.AperFunction,Conductor*%
G36*
X133448671Y-95696358D02*
G01*
X133459702Y-95706149D01*
X133965269Y-96211716D01*
X133965270Y-96211717D01*
X133965271Y-96211716D01*
X133965282Y-96211700D01*
X133968438Y-96208008D01*
X133969409Y-96208837D01*
X133978472Y-96201769D01*
X133988243Y-96188012D01*
X133989240Y-96187235D01*
X133995982Y-96182037D01*
X133998265Y-96180277D01*
X134013765Y-96174243D01*
X134018787Y-96170327D01*
X134029270Y-96166115D01*
X134036427Y-96165422D01*
X134063376Y-96154933D01*
X134089698Y-96160268D01*
X134098815Y-96159387D01*
X134107585Y-96163894D01*
X134131853Y-96168814D01*
X134148349Y-96184845D01*
X134160957Y-96191325D01*
X134168599Y-96204523D01*
X134181941Y-96217489D01*
X134183209Y-96219735D01*
X134183464Y-96220185D01*
X134188285Y-96238521D01*
X134195968Y-96251790D01*
X134195339Y-96265349D01*
X134199500Y-96281175D01*
X134199500Y-97150356D01*
X134194476Y-97185294D01*
X134191289Y-97196147D01*
X134153514Y-97254924D01*
X134089957Y-97283947D01*
X134020819Y-97274011D01*
X134017996Y-97272722D01*
X133969180Y-97232811D01*
X133880109Y-97110214D01*
X133880105Y-97110209D01*
X133729786Y-96959890D01*
X133557817Y-96834949D01*
X133557812Y-96834946D01*
X133556584Y-96834194D01*
X133536242Y-96818624D01*
X133526127Y-96809071D01*
X133490906Y-96748734D01*
X133493896Y-96678929D01*
X133530066Y-96625210D01*
X133537122Y-96619096D01*
X133553537Y-96607083D01*
X133557542Y-96604628D01*
X133557555Y-96604622D01*
X133579119Y-96588953D01*
X133605858Y-96579412D01*
X133611717Y-96565269D01*
X133106149Y-96059702D01*
X133072664Y-95998379D01*
X133077648Y-95928688D01*
X133119519Y-95872754D01*
X133131822Y-95864639D01*
X133157007Y-95850099D01*
X133250099Y-95757007D01*
X133264634Y-95731830D01*
X133315199Y-95683616D01*
X133383805Y-95670391D01*
X133448671Y-95696358D01*
G37*
%TD.AperFunction*%
%TA.AperFunction,Conductor*%
G36*
X113471311Y-95587647D02*
G01*
X113527244Y-95629519D01*
X113535363Y-95641828D01*
X113549896Y-95667000D01*
X113549899Y-95667004D01*
X113549901Y-95667007D01*
X113642993Y-95760099D01*
X113668167Y-95774633D01*
X113716383Y-95825198D01*
X113729607Y-95893805D01*
X113703640Y-95958670D01*
X113693849Y-95969701D01*
X113188321Y-96475229D01*
X113188282Y-96475269D01*
X113188282Y-96475270D01*
X113242452Y-96514626D01*
X113242451Y-96514626D01*
X113244115Y-96515474D01*
X113251857Y-96521058D01*
X113254490Y-96524448D01*
X113264450Y-96531469D01*
X113273868Y-96540363D01*
X113309092Y-96600700D01*
X113306104Y-96670505D01*
X113269932Y-96724229D01*
X113262929Y-96730297D01*
X113245944Y-96741776D01*
X113246331Y-96742407D01*
X113242172Y-96744955D01*
X113070216Y-96869886D01*
X113070211Y-96869891D01*
X113070210Y-96869893D01*
X113070209Y-96869894D01*
X113020916Y-96919187D01*
X112974785Y-96965318D01*
X112946532Y-96986468D01*
X112936608Y-96991887D01*
X112919183Y-96995677D01*
X112913461Y-96998802D01*
X112906958Y-96998336D01*
X112868335Y-97006739D01*
X112802870Y-96982323D01*
X112760999Y-96926389D01*
X112760997Y-96926385D01*
X112758923Y-96920824D01*
X112758313Y-96919187D01*
X112750500Y-96875867D01*
X112750500Y-96267059D01*
X112755522Y-96232127D01*
X112758633Y-96221531D01*
X112759927Y-96217125D01*
X112797697Y-96158350D01*
X112800665Y-96155779D01*
X113340297Y-95616147D01*
X113401619Y-95582663D01*
X113471311Y-95587647D01*
G37*
%TD.AperFunction*%
%TA.AperFunction,Conductor*%
G36*
X134131845Y-93629661D02*
G01*
X134181942Y-93678343D01*
X134183466Y-93681041D01*
X134199500Y-93742027D01*
X134199500Y-94611208D01*
X134194664Y-94628008D01*
X134194846Y-94644862D01*
X134194476Y-94646146D01*
X134191289Y-94656999D01*
X134182292Y-94670996D01*
X134180530Y-94677122D01*
X134174526Y-94686689D01*
X134169145Y-94691453D01*
X134153514Y-94715776D01*
X134129075Y-94726935D01*
X134122217Y-94733009D01*
X134112473Y-94734516D01*
X134089957Y-94744799D01*
X134067182Y-94741526D01*
X134053169Y-94743695D01*
X134039228Y-94737508D01*
X134020819Y-94734863D01*
X134017996Y-94733574D01*
X134003319Y-94721573D01*
X133989305Y-94715355D01*
X133981844Y-94704016D01*
X133969178Y-94693660D01*
X133965271Y-94688282D01*
X133965269Y-94688282D01*
X133965268Y-94688282D01*
X133459702Y-95193849D01*
X133398379Y-95227334D01*
X133328687Y-95222350D01*
X133272754Y-95180478D01*
X133264634Y-95168169D01*
X133263963Y-95167007D01*
X133250099Y-95142993D01*
X133157007Y-95049901D01*
X133157004Y-95049899D01*
X133157000Y-95049896D01*
X133131828Y-95035363D01*
X133083613Y-94984796D01*
X133070391Y-94916189D01*
X133096359Y-94851324D01*
X133106141Y-94840303D01*
X133611716Y-94334728D01*
X133611715Y-94334727D01*
X133577934Y-94310184D01*
X133577888Y-94310151D01*
X133557547Y-94295373D01*
X133557547Y-94295372D01*
X133556190Y-94294681D01*
X133548690Y-94289333D01*
X133545977Y-94285878D01*
X133535539Y-94278521D01*
X133526129Y-94269634D01*
X133505612Y-94234486D01*
X133505533Y-94234386D01*
X133505529Y-94234344D01*
X133490905Y-94209292D01*
X133493897Y-94139487D01*
X133530070Y-94085767D01*
X133537084Y-94079690D01*
X133554083Y-94068282D01*
X133553663Y-94067596D01*
X133557814Y-94065052D01*
X133557813Y-94065052D01*
X133557816Y-94065051D01*
X133637007Y-94007515D01*
X133729786Y-93940109D01*
X133729787Y-93940107D01*
X133729845Y-93940065D01*
X133730558Y-93939337D01*
X133880104Y-93789792D01*
X133964704Y-93673347D01*
X133989297Y-93648041D01*
X133998261Y-93641129D01*
X134063368Y-93615784D01*
X134131845Y-93629661D01*
G37*
%TD.AperFunction*%
%TA.AperFunction,Conductor*%
G36*
X112929186Y-93723935D02*
G01*
X112936172Y-93727125D01*
X112972342Y-93752238D01*
X113070216Y-93850112D01*
X113242178Y-93975048D01*
X113243031Y-93975567D01*
X113243303Y-93975865D01*
X113243902Y-93976300D01*
X113244387Y-93976520D01*
X113245225Y-93977079D01*
X113245142Y-93977202D01*
X113246311Y-93978051D01*
X113246195Y-93978209D01*
X113263741Y-93991361D01*
X113273865Y-94000921D01*
X113287665Y-94024560D01*
X113290085Y-94027216D01*
X113290439Y-94029312D01*
X113309091Y-94061259D01*
X113306105Y-94131065D01*
X113269938Y-94184785D01*
X113262614Y-94191132D01*
X113244059Y-94204432D01*
X113242440Y-94205379D01*
X113188282Y-94244726D01*
X113188281Y-94244727D01*
X113693850Y-94750296D01*
X113727335Y-94811619D01*
X113722351Y-94881311D01*
X113680479Y-94937244D01*
X113668173Y-94945362D01*
X113642996Y-94959898D01*
X113642990Y-94959903D01*
X113549903Y-95052990D01*
X113549898Y-95052996D01*
X113535362Y-95078173D01*
X113484793Y-95126387D01*
X113416185Y-95139607D01*
X113351322Y-95113637D01*
X113340296Y-95103850D01*
X112805814Y-94569368D01*
X112802722Y-94567079D01*
X112790486Y-94555016D01*
X112757502Y-94497801D01*
X112754460Y-94486056D01*
X112750500Y-94454970D01*
X112750500Y-93847587D01*
X112755521Y-93812660D01*
X112758707Y-93801807D01*
X112796477Y-93743026D01*
X112860031Y-93713997D01*
X112929186Y-93723935D01*
G37*
%TD.AperFunction*%
%TA.AperFunction,Conductor*%
G36*
X122069158Y-87525521D02*
G01*
X122078774Y-87528345D01*
X122078780Y-87528346D01*
X122082312Y-87529383D01*
X122081957Y-87530589D01*
X122133747Y-87559669D01*
X122134593Y-87558739D01*
X122137866Y-87561714D01*
X122138114Y-87562121D01*
X122138313Y-87562233D01*
X122139901Y-87563859D01*
X122139445Y-87564304D01*
X122174234Y-87621371D01*
X122176301Y-87629084D01*
X122181905Y-87649994D01*
X122181906Y-87649999D01*
X122190423Y-87681787D01*
X122198582Y-87695920D01*
X122198587Y-87695926D01*
X122214630Y-87723713D01*
X122269480Y-87818716D01*
X122269482Y-87818718D01*
X122302818Y-87852054D01*
X122323969Y-87880308D01*
X122339856Y-87909403D01*
X122352641Y-87944638D01*
X122380259Y-88083486D01*
X122380261Y-88083491D01*
X122380264Y-88083501D01*
X122380267Y-88083509D01*
X122380272Y-88083523D01*
X122440598Y-88229165D01*
X122440603Y-88229174D01*
X122440613Y-88229191D01*
X122528211Y-88360290D01*
X122528212Y-88360291D01*
X122528217Y-88360297D01*
X122639701Y-88471781D01*
X122639707Y-88471786D01*
X122639711Y-88471789D01*
X122770814Y-88559390D01*
X122770827Y-88559397D01*
X122898925Y-88612456D01*
X122916503Y-88619737D01*
X123005833Y-88637506D01*
X123057202Y-88647724D01*
X123090487Y-88659466D01*
X123104341Y-88666713D01*
X123117167Y-88679088D01*
X123132959Y-88687347D01*
X123154613Y-88715218D01*
X123158248Y-88721600D01*
X123174500Y-88782970D01*
X123174500Y-93259349D01*
X123169475Y-93294293D01*
X123165070Y-93309291D01*
X123127301Y-93368057D01*
X123121748Y-93372869D01*
X123064734Y-93400776D01*
X122916515Y-93430259D01*
X122916509Y-93430260D01*
X122916508Y-93430261D01*
X122916498Y-93430264D01*
X122916493Y-93430265D01*
X122916475Y-93430272D01*
X122770833Y-93490598D01*
X122770824Y-93490603D01*
X122770812Y-93490610D01*
X122699499Y-93538260D01*
X122667664Y-93553491D01*
X122647638Y-93559762D01*
X122587482Y-93563256D01*
X122580876Y-93562004D01*
X122556534Y-93554738D01*
X122494853Y-93529189D01*
X122453270Y-93511965D01*
X122453260Y-93511962D01*
X122453256Y-93511961D01*
X122453252Y-93511960D01*
X122315409Y-93484540D01*
X122315407Y-93484540D01*
X122315405Y-93484540D01*
X122282123Y-93472799D01*
X122252749Y-93457434D01*
X122222542Y-93435239D01*
X121711925Y-92924622D01*
X121690773Y-92896366D01*
X121678166Y-92873277D01*
X121662999Y-92813852D01*
X121662999Y-92693893D01*
X121660302Y-92664224D01*
X121656931Y-92627117D01*
X121656928Y-92627106D01*
X121656924Y-92627094D01*
X121618048Y-92502336D01*
X121609032Y-92473401D01*
X121609031Y-92473400D01*
X121609031Y-92473398D01*
X121536329Y-92353135D01*
X121535602Y-92351865D01*
X121535063Y-92349608D01*
X121523322Y-92321909D01*
X121518862Y-92305017D01*
X121519774Y-92238433D01*
X121523341Y-92226286D01*
X121536197Y-92197082D01*
X121609031Y-92076602D01*
X121656930Y-91922887D01*
X121663000Y-91856091D01*
X121662999Y-91423910D01*
X121662999Y-91423909D01*
X121662999Y-91423901D01*
X121662999Y-91423893D01*
X121659973Y-91390598D01*
X121656931Y-91357117D01*
X121656928Y-91357106D01*
X121649538Y-91333392D01*
X121641497Y-91307587D01*
X121609032Y-91203401D01*
X121609031Y-91203400D01*
X121609031Y-91203398D01*
X121527613Y-91068717D01*
X121526941Y-91067549D01*
X121526871Y-91067261D01*
X121526414Y-91066431D01*
X121525986Y-91065862D01*
X121525733Y-91065609D01*
X121525733Y-91065608D01*
X121411891Y-90951766D01*
X121411890Y-90951765D01*
X121411882Y-90951760D01*
X121313788Y-90892459D01*
X121286493Y-90870091D01*
X121275101Y-90857651D01*
X121244750Y-90797162D01*
X121242190Y-90783752D01*
X121240442Y-90751875D01*
X121240383Y-90751873D01*
X121240409Y-90751264D01*
X121240379Y-90750711D01*
X121240463Y-90749651D01*
X121240497Y-90749233D01*
X121240498Y-90749204D01*
X121240500Y-90749181D01*
X121240499Y-90250820D01*
X121237665Y-90214796D01*
X121234675Y-90204503D01*
X121610000Y-90204503D01*
X121756195Y-90162031D01*
X121895374Y-90079721D01*
X121895383Y-90079714D01*
X122009714Y-89965383D01*
X122009721Y-89965374D01*
X122092031Y-89826195D01*
X122092033Y-89826190D01*
X122102373Y-89790602D01*
X122137141Y-89670928D01*
X122137143Y-89670920D01*
X122137144Y-89670918D01*
X122137145Y-89670912D01*
X122138790Y-89650000D01*
X122138789Y-89650000D01*
X121610000Y-89650000D01*
X121610000Y-90204503D01*
X121234675Y-90204503D01*
X121192869Y-90060607D01*
X121192867Y-90060603D01*
X121192866Y-90060601D01*
X121186764Y-90050283D01*
X121186764Y-90050284D01*
X121186763Y-90050282D01*
X121139827Y-89970917D01*
X121126371Y-89938298D01*
X121121915Y-89920736D01*
X121123130Y-89855299D01*
X121127626Y-89839993D01*
X121132289Y-89827100D01*
X121132552Y-89826197D01*
X121160425Y-89730257D01*
X121177642Y-89670997D01*
X121177643Y-89670991D01*
X121177649Y-89670912D01*
X121180500Y-89634690D01*
X121180500Y-89496337D01*
X121184724Y-89464247D01*
X121192887Y-89433778D01*
X121205275Y-89403875D01*
X121229577Y-89361784D01*
X121270501Y-89209057D01*
X121270501Y-89050942D01*
X121270501Y-89043347D01*
X121270501Y-89041663D01*
X121270500Y-89041589D01*
X121270500Y-88595493D01*
X121610000Y-88595493D01*
X121610000Y-88595494D01*
X121610000Y-89150000D01*
X122138790Y-89150000D01*
X122138790Y-89149999D01*
X122137145Y-89129092D01*
X122137145Y-89129089D01*
X122092031Y-88973804D01*
X122009721Y-88834625D01*
X122009714Y-88834616D01*
X121895383Y-88720285D01*
X121895374Y-88720278D01*
X121886946Y-88715294D01*
X121771673Y-88647122D01*
X121759068Y-88639667D01*
X121756839Y-88638266D01*
X121756190Y-88637964D01*
X121610001Y-88595492D01*
X121610000Y-88595493D01*
X121270500Y-88595493D01*
X121270500Y-87941226D01*
X121275522Y-87906293D01*
X121281434Y-87886158D01*
X121311950Y-87834200D01*
X121322434Y-87823527D01*
X121332214Y-87814581D01*
X121369119Y-87784283D01*
X121379240Y-87766035D01*
X121466558Y-87678718D01*
X121499726Y-87629078D01*
X121525548Y-87590433D01*
X121549131Y-87564177D01*
X121565230Y-87550722D01*
X121619476Y-87524472D01*
X121626059Y-87523101D01*
X121651325Y-87520500D01*
X122034229Y-87520500D01*
X122069158Y-87525521D01*
G37*
%TD.AperFunction*%
%TA.AperFunction,Conductor*%
G36*
X131635590Y-78895523D02*
G01*
X131664927Y-78904137D01*
X131704303Y-78923847D01*
X131752028Y-78959573D01*
X131757668Y-78963795D01*
X131757671Y-78963797D01*
X131865185Y-79003897D01*
X131872376Y-79006579D01*
X131903350Y-79023491D01*
X131914461Y-79031808D01*
X131956334Y-79087740D01*
X131961321Y-79157432D01*
X131961318Y-79157445D01*
X131960342Y-79161930D01*
X131926860Y-79223244D01*
X131819886Y-79330218D01*
X131790725Y-79370356D01*
X131696045Y-79500674D01*
X131694949Y-79502182D01*
X131598445Y-79691580D01*
X131532752Y-79893759D01*
X131499500Y-80103707D01*
X131499500Y-80316291D01*
X131525721Y-80481843D01*
X131526480Y-80486635D01*
X131532754Y-80526243D01*
X131537368Y-80540444D01*
X131595958Y-80720768D01*
X131596198Y-80721504D01*
X131597675Y-80726049D01*
X131598444Y-80728415D01*
X131688235Y-80904639D01*
X131694951Y-80917820D01*
X131819890Y-81089786D01*
X131819892Y-81089788D01*
X131970216Y-81240112D01*
X132142178Y-81365048D01*
X132143031Y-81365567D01*
X132143303Y-81365865D01*
X132143902Y-81366300D01*
X132144387Y-81366520D01*
X132145225Y-81367079D01*
X132145142Y-81367202D01*
X132146311Y-81368051D01*
X132146195Y-81368209D01*
X132163741Y-81381361D01*
X132173865Y-81390921D01*
X132187665Y-81414560D01*
X132190085Y-81417216D01*
X132190439Y-81419312D01*
X132209091Y-81451259D01*
X132206105Y-81521065D01*
X132169938Y-81574785D01*
X132162614Y-81581132D01*
X132144059Y-81594432D01*
X132142440Y-81595379D01*
X132088282Y-81634726D01*
X132088281Y-81634727D01*
X132593850Y-82140296D01*
X132627335Y-82201619D01*
X132622351Y-82271311D01*
X132580479Y-82327244D01*
X132568173Y-82335362D01*
X132542996Y-82349898D01*
X132542990Y-82349903D01*
X132449903Y-82442990D01*
X132449898Y-82442996D01*
X132435362Y-82468173D01*
X132384793Y-82516387D01*
X132316185Y-82529607D01*
X132251322Y-82503637D01*
X132240296Y-82493850D01*
X131734728Y-81988282D01*
X131734727Y-81988282D01*
X131695380Y-82042438D01*
X131598903Y-82231784D01*
X131533242Y-82433865D01*
X131531798Y-82442990D01*
X131500000Y-82643753D01*
X131500000Y-82856246D01*
X131525860Y-83019519D01*
X131531715Y-83056485D01*
X131531716Y-83056493D01*
X131533242Y-83066133D01*
X131585936Y-83228305D01*
X131598904Y-83268217D01*
X131677117Y-83421717D01*
X131695374Y-83457548D01*
X131695375Y-83457550D01*
X131733844Y-83510500D01*
X131734728Y-83511716D01*
X132240297Y-83006147D01*
X132301619Y-82972663D01*
X132371311Y-82977647D01*
X132427244Y-83019519D01*
X132435363Y-83031828D01*
X132449896Y-83057000D01*
X132449899Y-83057004D01*
X132449901Y-83057007D01*
X132542993Y-83150099D01*
X132568169Y-83164634D01*
X132616384Y-83215202D01*
X132629606Y-83283809D01*
X132603638Y-83348673D01*
X132593849Y-83359702D01*
X132088321Y-83865229D01*
X132088282Y-83865269D01*
X132088282Y-83865270D01*
X132142452Y-83904626D01*
X132142451Y-83904626D01*
X132144115Y-83905474D01*
X132151857Y-83911058D01*
X132154490Y-83914448D01*
X132164450Y-83921469D01*
X132173868Y-83930363D01*
X132209092Y-83990700D01*
X132206104Y-84060505D01*
X132169932Y-84114229D01*
X132162929Y-84120297D01*
X132145944Y-84131776D01*
X132146331Y-84132407D01*
X132142172Y-84134955D01*
X131970216Y-84259886D01*
X131819892Y-84410210D01*
X131804044Y-84432023D01*
X131713731Y-84556331D01*
X131694949Y-84582182D01*
X131598445Y-84771580D01*
X131532753Y-84973759D01*
X131506327Y-85140609D01*
X131499500Y-85183713D01*
X131499500Y-85396287D01*
X131501545Y-85409199D01*
X131501545Y-85409200D01*
X131530008Y-85588910D01*
X131532752Y-85606237D01*
X131586337Y-85771156D01*
X131598442Y-85808410D01*
X131598443Y-85808412D01*
X131694877Y-85997676D01*
X131694951Y-85997820D01*
X131819890Y-86169786D01*
X131970213Y-86320109D01*
X132142182Y-86445050D01*
X132142190Y-86445054D01*
X132142693Y-86445363D01*
X132144174Y-86446496D01*
X132146122Y-86447912D01*
X132146086Y-86447960D01*
X132163034Y-86460934D01*
X132173315Y-86470643D01*
X132208541Y-86530983D01*
X132205552Y-86600789D01*
X132169383Y-86654507D01*
X132162227Y-86660708D01*
X132145814Y-86672723D01*
X132142190Y-86674943D01*
X131970210Y-86799892D01*
X131819891Y-86950211D01*
X131819889Y-86950214D01*
X131694951Y-87122179D01*
X131694947Y-87122186D01*
X131647191Y-87215910D01*
X131626859Y-87244753D01*
X131615139Y-87257163D01*
X131557373Y-87291720D01*
X131547564Y-87294373D01*
X131544524Y-87295196D01*
X131512140Y-87299500D01*
X131164496Y-87299500D01*
X131129560Y-87294477D01*
X131104318Y-87287065D01*
X131051572Y-87255768D01*
X131015696Y-87219891D01*
X131015695Y-87219890D01*
X131015692Y-87219887D01*
X131015684Y-87219881D01*
X131015679Y-87219877D01*
X130896581Y-87149444D01*
X130896578Y-87149442D01*
X130889874Y-87145477D01*
X130883267Y-87140352D01*
X130867155Y-87133678D01*
X130859446Y-87132581D01*
X130795477Y-87113996D01*
X130721003Y-87092358D01*
X130720997Y-87092357D01*
X130720996Y-87092356D01*
X130720994Y-87092356D01*
X130684704Y-87089500D01*
X130684697Y-87089500D01*
X130684690Y-87089500D01*
X130275310Y-87089500D01*
X130275302Y-87089500D01*
X130275294Y-87089500D01*
X130239004Y-87092356D01*
X130239002Y-87092356D01*
X130239001Y-87092357D01*
X130238995Y-87092358D01*
X130083617Y-87137501D01*
X130083610Y-87137503D01*
X130083609Y-87137504D01*
X130083607Y-87137505D01*
X130083602Y-87137507D01*
X130077975Y-87140835D01*
X130077973Y-87140835D01*
X130077972Y-87140837D01*
X130045398Y-87154273D01*
X130045345Y-87154295D01*
X130027779Y-87158751D01*
X129962351Y-87157534D01*
X129951246Y-87154273D01*
X129923065Y-87142030D01*
X129916190Y-87137964D01*
X129770002Y-87095492D01*
X129770001Y-87095492D01*
X129770000Y-87095493D01*
X129770000Y-87384989D01*
X129765606Y-87417707D01*
X129757006Y-87449146D01*
X129749244Y-87469973D01*
X129747504Y-87473606D01*
X129747500Y-87473618D01*
X129702358Y-87628995D01*
X129702357Y-87629001D01*
X129702356Y-87629002D01*
X129702356Y-87629004D01*
X129699500Y-87665294D01*
X129699500Y-88134704D01*
X129702356Y-88170989D01*
X129702358Y-88171003D01*
X129702359Y-88171007D01*
X129747500Y-88326383D01*
X129747501Y-88326384D01*
X129747505Y-88326393D01*
X129748239Y-88327861D01*
X129756932Y-88350583D01*
X129757033Y-88350955D01*
X129757082Y-88351133D01*
X129758365Y-88354011D01*
X129758841Y-88357561D01*
X129759575Y-88360241D01*
X129759215Y-88360339D01*
X129767666Y-88423259D01*
X129764701Y-88437196D01*
X129757126Y-88464883D01*
X129744257Y-88495277D01*
X129727503Y-88523607D01*
X129682358Y-88678995D01*
X129682357Y-88679001D01*
X129682356Y-88679002D01*
X129682356Y-88679004D01*
X129679500Y-88715294D01*
X129679500Y-88808170D01*
X129679499Y-88808176D01*
X129679500Y-88808179D01*
X129674475Y-88843114D01*
X129670070Y-88858112D01*
X129632327Y-88916855D01*
X129632292Y-88916885D01*
X129632291Y-88916887D01*
X129632289Y-88916887D01*
X129630958Y-88918042D01*
X129576097Y-88945518D01*
X129568539Y-88947163D01*
X129542168Y-88950000D01*
X129500000Y-88950000D01*
X129500000Y-89058170D01*
X129499999Y-89058176D01*
X129500000Y-89058179D01*
X129494975Y-89093112D01*
X129493853Y-89096931D01*
X129490570Y-89108112D01*
X129452827Y-89166855D01*
X129452792Y-89166885D01*
X129452791Y-89166887D01*
X129452789Y-89166887D01*
X129451458Y-89168042D01*
X129396597Y-89195518D01*
X129389039Y-89197163D01*
X129362668Y-89200000D01*
X128721209Y-89200000D01*
X128722852Y-89220905D01*
X128722854Y-89220912D01*
X128767966Y-89376190D01*
X128767968Y-89376195D01*
X128839773Y-89497612D01*
X128850278Y-89515374D01*
X128850285Y-89515383D01*
X128964616Y-89629714D01*
X128964625Y-89629721D01*
X129020632Y-89662843D01*
X129049969Y-89680193D01*
X129060726Y-89690993D01*
X129071836Y-89696630D01*
X129077482Y-89702300D01*
X129085199Y-89710565D01*
X129090266Y-89720651D01*
X129093832Y-89724232D01*
X129099150Y-89733307D01*
X129101642Y-89743297D01*
X129116563Y-89773000D01*
X129114322Y-89794128D01*
X129116061Y-89801099D01*
X129112453Y-89811743D01*
X129109194Y-89842479D01*
X129096815Y-89857888D01*
X129093636Y-89867272D01*
X129081525Y-89876923D01*
X129065457Y-89896927D01*
X129064672Y-89897474D01*
X129046494Y-89904841D01*
X129038996Y-89910817D01*
X129029312Y-89911804D01*
X129013723Y-89918123D01*
X129012706Y-89918288D01*
X129012107Y-89918386D01*
X128992166Y-89920000D01*
X128915359Y-89920000D01*
X128879088Y-89922854D01*
X128879087Y-89922854D01*
X128723807Y-89967967D01*
X128723804Y-89967968D01*
X128584623Y-90050279D01*
X128584621Y-90050280D01*
X128584611Y-90050289D01*
X128526248Y-90108653D01*
X128499033Y-90129230D01*
X128498467Y-90129546D01*
X128491075Y-90133582D01*
X128490630Y-90133922D01*
X128486391Y-90136291D01*
X128456234Y-90143154D01*
X128426599Y-90152031D01*
X128422458Y-90150841D01*
X128418263Y-90151796D01*
X128389330Y-90141319D01*
X128367128Y-90134937D01*
X128366253Y-90136587D01*
X128364381Y-90135593D01*
X128362216Y-90133526D01*
X128359513Y-90132749D01*
X128357993Y-90131785D01*
X128358898Y-90130357D01*
X128358801Y-90130264D01*
X128352568Y-90128007D01*
X128342140Y-90114351D01*
X128315801Y-90089196D01*
X128308525Y-90076893D01*
X128294417Y-90041588D01*
X128291176Y-90027504D01*
X128291166Y-90027466D01*
X128290866Y-90026161D01*
X128291303Y-90026060D01*
X128291570Y-90011365D01*
X128287439Y-89997295D01*
X128292460Y-89962367D01*
X128295730Y-89951234D01*
X128307971Y-89923060D01*
X128312032Y-89916194D01*
X128354504Y-89770000D01*
X128065008Y-89770000D01*
X128032284Y-89765604D01*
X128000588Y-89756932D01*
X127977888Y-89748252D01*
X127976423Y-89747520D01*
X127976398Y-89747508D01*
X127976395Y-89747506D01*
X127976393Y-89747505D01*
X127976389Y-89747503D01*
X127976386Y-89747502D01*
X127976384Y-89747501D01*
X127976382Y-89747500D01*
X127976384Y-89747500D01*
X127821007Y-89702359D01*
X127821003Y-89702358D01*
X127820997Y-89702357D01*
X127820991Y-89702356D01*
X127812925Y-89701721D01*
X127784704Y-89699500D01*
X127784697Y-89699500D01*
X127784690Y-89699500D01*
X127315310Y-89699500D01*
X127315302Y-89699500D01*
X127315294Y-89699500D01*
X127283040Y-89702038D01*
X127279008Y-89702356D01*
X127279002Y-89702357D01*
X127278995Y-89702358D01*
X127278991Y-89702359D01*
X127123613Y-89747501D01*
X127116281Y-89750702D01*
X127115875Y-89749772D01*
X127098555Y-89757166D01*
X127067715Y-89765604D01*
X127034991Y-89770000D01*
X126716308Y-89770000D01*
X126692119Y-89767617D01*
X126668619Y-89762943D01*
X126645362Y-89755887D01*
X126583504Y-89730265D01*
X126583502Y-89730264D01*
X126583501Y-89730264D01*
X126583489Y-89730261D01*
X126583480Y-89730259D01*
X126583471Y-89730257D01*
X126428847Y-89699500D01*
X126428845Y-89699500D01*
X126428842Y-89699500D01*
X126271158Y-89699500D01*
X126271155Y-89699500D01*
X126271153Y-89699500D01*
X126116527Y-89730257D01*
X126116496Y-89730264D01*
X125970833Y-89790598D01*
X125970824Y-89790603D01*
X125970807Y-89790613D01*
X125839708Y-89878211D01*
X125839707Y-89878212D01*
X125839701Y-89878217D01*
X125728217Y-89989701D01*
X125728212Y-89989707D01*
X125728211Y-89989708D01*
X125640613Y-90120807D01*
X125640603Y-90120824D01*
X125640598Y-90120833D01*
X125580264Y-90266496D01*
X125580257Y-90266527D01*
X125549500Y-90421150D01*
X125549500Y-90421153D01*
X125549500Y-90578846D01*
X125549500Y-90578848D01*
X125549499Y-90578848D01*
X125580257Y-90733471D01*
X125580264Y-90733502D01*
X125640598Y-90879165D01*
X125640603Y-90879174D01*
X125640613Y-90879191D01*
X125728211Y-91010290D01*
X125728212Y-91010291D01*
X125728217Y-91010297D01*
X125839701Y-91121781D01*
X125839707Y-91121786D01*
X125839711Y-91121789D01*
X125970814Y-91209390D01*
X125970827Y-91209397D01*
X126058230Y-91245599D01*
X126105964Y-91265371D01*
X126115978Y-91270054D01*
X126121845Y-91273123D01*
X126121845Y-91273124D01*
X126144325Y-91284884D01*
X126194596Y-91333392D01*
X126197210Y-91337982D01*
X126213149Y-91390598D01*
X126213264Y-91392224D01*
X126213065Y-91412186D01*
X126212002Y-91423893D01*
X126212000Y-91423910D01*
X126212000Y-91856105D01*
X126218067Y-91922878D01*
X126218092Y-91922995D01*
X126218423Y-91924021D01*
X126218545Y-91924412D01*
X126219065Y-91927650D01*
X126219537Y-91929904D01*
X126219431Y-91929926D01*
X126224156Y-91959309D01*
X126224384Y-91973186D01*
X126219655Y-91990327D01*
X126219722Y-91994271D01*
X126217639Y-91997634D01*
X126205804Y-92040540D01*
X126153781Y-92087145D01*
X126151569Y-92088200D01*
X126095894Y-92100257D01*
X126089302Y-92100135D01*
X126079449Y-92099560D01*
X126078846Y-92099500D01*
X126078843Y-92099500D01*
X126078842Y-92099500D01*
X126078839Y-92099500D01*
X125921153Y-92099500D01*
X125766527Y-92130257D01*
X125766496Y-92130264D01*
X125620833Y-92190598D01*
X125620824Y-92190603D01*
X125620807Y-92190613D01*
X125489708Y-92278211D01*
X125489707Y-92278212D01*
X125489701Y-92278217D01*
X125378217Y-92389701D01*
X125378212Y-92389707D01*
X125378211Y-92389708D01*
X125290613Y-92520807D01*
X125290603Y-92520824D01*
X125290598Y-92520833D01*
X125230264Y-92666496D01*
X125230257Y-92666527D01*
X125199500Y-92821150D01*
X125199500Y-92821153D01*
X125199500Y-92978846D01*
X125199500Y-92978848D01*
X125199499Y-92978848D01*
X125230257Y-93133471D01*
X125230264Y-93133502D01*
X125267835Y-93224208D01*
X125276563Y-93258402D01*
X125277772Y-93269645D01*
X125265368Y-93338405D01*
X125217759Y-93389543D01*
X125150060Y-93406824D01*
X125150054Y-93406824D01*
X125142387Y-93406550D01*
X125099364Y-93397190D01*
X125058501Y-93380264D01*
X125058491Y-93380261D01*
X125058489Y-93380260D01*
X125058484Y-93380259D01*
X124942795Y-93357247D01*
X124909511Y-93345505D01*
X124895657Y-93338258D01*
X124845379Y-93289743D01*
X124841744Y-93283359D01*
X124825500Y-93222003D01*
X124825500Y-89270000D01*
X126745496Y-89270000D01*
X127300000Y-89270000D01*
X127800000Y-89270000D01*
X128354503Y-89270000D01*
X128354504Y-89270000D01*
X128312031Y-89123804D01*
X128229721Y-88984625D01*
X128229714Y-88984616D01*
X128115383Y-88870285D01*
X128115374Y-88870278D01*
X128082901Y-88851074D01*
X127976195Y-88787968D01*
X127976193Y-88787967D01*
X127976184Y-88787963D01*
X127820928Y-88742857D01*
X127820920Y-88742855D01*
X127820912Y-88742854D01*
X127800000Y-88741209D01*
X127800000Y-89270000D01*
X127300000Y-89270000D01*
X127300000Y-88741210D01*
X127299999Y-88741209D01*
X127279084Y-88742854D01*
X127279078Y-88742855D01*
X127279070Y-88742857D01*
X127123814Y-88787963D01*
X127123805Y-88787967D01*
X127123801Y-88787969D01*
X126984627Y-88870276D01*
X126984615Y-88870285D01*
X126870285Y-88984615D01*
X126870276Y-88984627D01*
X126799380Y-89104507D01*
X126787968Y-89123804D01*
X126745496Y-89270000D01*
X124825500Y-89270000D01*
X124825500Y-88699999D01*
X128721209Y-88699999D01*
X128721210Y-88700000D01*
X129250000Y-88700000D01*
X129250000Y-88150000D01*
X128741209Y-88150000D01*
X128742852Y-88170905D01*
X128742853Y-88170906D01*
X128785344Y-88317166D01*
X128785346Y-88317171D01*
X128787968Y-88326195D01*
X128787968Y-88326196D01*
X128793629Y-88335768D01*
X128796535Y-88342292D01*
X128797168Y-88347011D01*
X128803455Y-88362249D01*
X128807911Y-88379812D01*
X128806696Y-88445243D01*
X128803434Y-88456352D01*
X128791191Y-88484535D01*
X128767965Y-88523808D01*
X128767964Y-88523812D01*
X128722857Y-88679070D01*
X128722855Y-88679078D01*
X128722855Y-88679081D01*
X128722854Y-88679087D01*
X128721209Y-88699999D01*
X124825500Y-88699999D01*
X124825500Y-87649999D01*
X128741209Y-87649999D01*
X128741210Y-87650000D01*
X129270000Y-87650000D01*
X129270000Y-87095494D01*
X129269999Y-87095493D01*
X129269995Y-87095492D01*
X129123808Y-87137964D01*
X129123156Y-87138268D01*
X129120924Y-87139671D01*
X128984627Y-87220276D01*
X128984615Y-87220285D01*
X128870285Y-87334615D01*
X128870276Y-87334627D01*
X128787969Y-87473801D01*
X128787967Y-87473805D01*
X128787963Y-87473814D01*
X128742857Y-87629070D01*
X128742855Y-87629078D01*
X128742855Y-87629081D01*
X128742854Y-87629087D01*
X128741209Y-87649999D01*
X124825500Y-87649999D01*
X124825500Y-85928848D01*
X126549499Y-85928848D01*
X126580257Y-86083471D01*
X126580264Y-86083502D01*
X126640598Y-86229165D01*
X126640603Y-86229174D01*
X126640613Y-86229191D01*
X126728211Y-86360290D01*
X126728217Y-86360297D01*
X126839701Y-86471781D01*
X126839707Y-86471786D01*
X126839711Y-86471789D01*
X126970814Y-86559390D01*
X126970827Y-86559397D01*
X127116498Y-86619735D01*
X127116503Y-86619737D01*
X127271153Y-86650499D01*
X127271156Y-86650500D01*
X127271158Y-86650500D01*
X127428844Y-86650500D01*
X127428845Y-86650499D01*
X127583497Y-86619737D01*
X127729179Y-86559394D01*
X127860289Y-86471789D01*
X127971789Y-86360289D01*
X128059394Y-86229179D01*
X128060054Y-86227587D01*
X128083995Y-86169786D01*
X128119737Y-86083497D01*
X128150500Y-85928842D01*
X128150500Y-85771158D01*
X128150500Y-85771155D01*
X128150500Y-85770971D01*
X128150064Y-85768966D01*
X128128536Y-85660738D01*
X128119737Y-85616503D01*
X128108307Y-85588909D01*
X128108306Y-85588907D01*
X128059402Y-85470840D01*
X128059399Y-85470833D01*
X128059397Y-85470827D01*
X128059390Y-85470814D01*
X127971789Y-85339711D01*
X127971786Y-85339707D01*
X127971781Y-85339701D01*
X127860297Y-85228217D01*
X127860291Y-85228212D01*
X127860290Y-85228211D01*
X127793694Y-85183713D01*
X127729185Y-85140609D01*
X127729172Y-85140602D01*
X127729165Y-85140598D01*
X127583502Y-85080264D01*
X127583471Y-85080257D01*
X127428847Y-85049500D01*
X127428845Y-85049500D01*
X127428842Y-85049500D01*
X127271158Y-85049500D01*
X127271155Y-85049500D01*
X127271153Y-85049500D01*
X127116527Y-85080257D01*
X127116496Y-85080264D01*
X126970833Y-85140598D01*
X126970824Y-85140603D01*
X126970819Y-85140606D01*
X126970814Y-85140609D01*
X126918443Y-85175602D01*
X126839708Y-85228211D01*
X126839707Y-85228212D01*
X126839701Y-85228217D01*
X126728217Y-85339701D01*
X126728212Y-85339707D01*
X126728211Y-85339708D01*
X126640613Y-85470807D01*
X126640603Y-85470824D01*
X126640598Y-85470833D01*
X126580264Y-85616496D01*
X126580257Y-85616527D01*
X126549500Y-85771150D01*
X126549500Y-85771153D01*
X126549500Y-85928846D01*
X126549500Y-85928848D01*
X126549499Y-85928848D01*
X124825500Y-85928848D01*
X124825500Y-85789930D01*
X125150000Y-85789930D01*
X125185122Y-85787167D01*
X125185128Y-85787166D01*
X125339188Y-85742407D01*
X125339191Y-85742406D01*
X125477285Y-85660738D01*
X125477294Y-85660731D01*
X125590731Y-85547294D01*
X125590738Y-85547285D01*
X125672404Y-85409194D01*
X125672404Y-85409190D01*
X125672406Y-85409189D01*
X125712844Y-85270001D01*
X125712843Y-85270000D01*
X125150000Y-85270000D01*
X125150000Y-85789930D01*
X124825500Y-85789930D01*
X124825500Y-85161829D01*
X124830521Y-85126899D01*
X124831548Y-85123402D01*
X124834927Y-85111894D01*
X124844567Y-85096892D01*
X124845185Y-85094790D01*
X124846840Y-85093355D01*
X124872697Y-85053118D01*
X124872701Y-85053116D01*
X124884368Y-85043005D01*
X124886658Y-85036127D01*
X124899866Y-85020322D01*
X124900000Y-85019999D01*
X124900000Y-84912328D01*
X124901832Y-84891094D01*
X124903425Y-84881929D01*
X124904888Y-84878958D01*
X124905023Y-84877394D01*
X124906275Y-84873130D01*
X124907227Y-84873409D01*
X124911285Y-84857329D01*
X124910666Y-84857100D01*
X124911681Y-84854361D01*
X124912215Y-84853643D01*
X124912618Y-84852049D01*
X124913964Y-84849074D01*
X124915203Y-84849634D01*
X124924130Y-84837656D01*
X124927003Y-84827826D01*
X124932372Y-84823160D01*
X124934299Y-84819250D01*
X124940738Y-84815373D01*
X124949924Y-84803048D01*
X124949037Y-84802026D01*
X124950147Y-84801063D01*
X124952054Y-84800189D01*
X124953434Y-84798339D01*
X124953507Y-84798285D01*
X124955850Y-84796526D01*
X124956926Y-84797959D01*
X124966338Y-84793649D01*
X124979746Y-84782001D01*
X125013593Y-84772014D01*
X125014745Y-84771846D01*
X125015168Y-84771785D01*
X125032978Y-84770499D01*
X125149177Y-84770499D01*
X125149180Y-84770499D01*
X125149183Y-84770498D01*
X125149874Y-84770471D01*
X125153707Y-84770249D01*
X125158090Y-84770086D01*
X125162698Y-84770000D01*
X125712843Y-84770000D01*
X125712844Y-84770000D01*
X125712843Y-84769998D01*
X125712844Y-84769998D01*
X125680534Y-84658788D01*
X125672404Y-84630805D01*
X125647654Y-84588954D01*
X125634196Y-84556331D01*
X125631991Y-84547641D01*
X125629740Y-84538766D01*
X125630956Y-84473335D01*
X125634223Y-84462212D01*
X125646459Y-84434048D01*
X125672869Y-84389393D01*
X125672869Y-84389389D01*
X125672871Y-84389388D01*
X125717664Y-84235208D01*
X125717665Y-84235202D01*
X125718360Y-84226375D01*
X125720500Y-84199181D01*
X125720499Y-83800820D01*
X125717665Y-83764796D01*
X125694834Y-83686209D01*
X125689912Y-83651274D01*
X125689951Y-83637387D01*
X125709823Y-83570410D01*
X125762753Y-83524805D01*
X125766393Y-83523155D01*
X125769928Y-83521554D01*
X125821105Y-83510500D01*
X126165686Y-83510500D01*
X126165694Y-83510500D01*
X126202569Y-83507598D01*
X126202571Y-83507597D01*
X126202573Y-83507597D01*
X126299355Y-83479479D01*
X126333950Y-83474555D01*
X126367843Y-83474555D01*
X126402438Y-83479478D01*
X126497508Y-83507100D01*
X126498313Y-83507163D01*
X126499979Y-83507294D01*
X126499985Y-83507294D01*
X126499998Y-83507295D01*
X126500000Y-83507295D01*
X126500000Y-83507294D01*
X126500000Y-83449137D01*
X126505022Y-83414204D01*
X126505187Y-83413643D01*
X126512434Y-83388959D01*
X126543728Y-83336216D01*
X126618081Y-83261865D01*
X126701744Y-83120398D01*
X126743217Y-82977647D01*
X126747597Y-82962573D01*
X126747598Y-82962567D01*
X126747782Y-82960233D01*
X126750500Y-82925694D01*
X126750500Y-82426824D01*
X126750982Y-82423855D01*
X126750583Y-82422284D01*
X126755522Y-82391893D01*
X126756805Y-82387523D01*
X126756885Y-82387546D01*
X126758382Y-82383064D01*
X126768837Y-82368034D01*
X126776550Y-82347335D01*
X126790516Y-82336872D01*
X126798283Y-82325708D01*
X126814194Y-82319134D01*
X126832469Y-82305444D01*
X126850460Y-82304151D01*
X126862858Y-82299029D01*
X126879566Y-82302059D01*
X126902159Y-82300436D01*
X126917867Y-82309006D01*
X126931606Y-82311498D01*
X126944529Y-82323552D01*
X126963494Y-82333899D01*
X126971681Y-82348878D01*
X126982700Y-82359156D01*
X126987397Y-82377632D01*
X126996996Y-82395193D01*
X126997153Y-82395913D01*
X127000000Y-82422331D01*
X127000000Y-83507295D01*
X127000001Y-83507295D01*
X127000003Y-83507295D01*
X127000003Y-83507294D01*
X127002486Y-83507100D01*
X127160198Y-83461281D01*
X127301552Y-83377685D01*
X127301561Y-83377678D01*
X127417678Y-83261561D01*
X127417685Y-83261552D01*
X127501282Y-83120196D01*
X127501283Y-83120193D01*
X127518742Y-83060099D01*
X127548318Y-82958301D01*
X127548358Y-82958312D01*
X127552393Y-82944700D01*
X127553488Y-82941828D01*
X127570000Y-82898501D01*
X127570000Y-82325195D01*
X127589685Y-82258156D01*
X127642489Y-82212401D01*
X127711647Y-82202457D01*
X127726073Y-82205415D01*
X127780504Y-82220000D01*
X127859493Y-82220000D01*
X127859496Y-82220000D01*
X127913910Y-82205420D01*
X127983756Y-82207083D01*
X128041619Y-82246245D01*
X128069123Y-82310473D01*
X128070000Y-82325195D01*
X128070000Y-82889861D01*
X128070000Y-82889862D01*
X128111690Y-82881569D01*
X128111692Y-82881569D01*
X128293671Y-82806192D01*
X128293684Y-82806185D01*
X128457462Y-82696751D01*
X128457466Y-82696748D01*
X128596751Y-82557463D01*
X128706185Y-82393684D01*
X128706192Y-82393671D01*
X128706929Y-82391893D01*
X128730950Y-82333899D01*
X128781569Y-82211693D01*
X128781572Y-82211681D01*
X128818480Y-82026130D01*
X128819203Y-82023401D01*
X128820000Y-82018493D01*
X128820000Y-81620000D01*
X128244000Y-81620000D01*
X128176961Y-81600315D01*
X128131206Y-81547511D01*
X128120000Y-81496000D01*
X128120000Y-81244000D01*
X128139685Y-81176961D01*
X128192489Y-81131206D01*
X128244000Y-81120000D01*
X128820000Y-81120000D01*
X128820000Y-80721506D01*
X128819909Y-80720768D01*
X128819408Y-80718533D01*
X128781577Y-80528343D01*
X128781576Y-80528342D01*
X128781572Y-80528318D01*
X128781569Y-80528306D01*
X128740653Y-80429524D01*
X128706195Y-80346334D01*
X128706190Y-80346325D01*
X128706185Y-80346315D01*
X128596751Y-80182537D01*
X128596748Y-80182533D01*
X128596743Y-80182527D01*
X128457471Y-80043255D01*
X128457465Y-80043250D01*
X128457464Y-80043249D01*
X128293690Y-79933818D01*
X128293689Y-79933817D01*
X128293684Y-79933814D01*
X128293671Y-79933807D01*
X128293664Y-79933803D01*
X128111692Y-79858429D01*
X128111675Y-79858425D01*
X128070000Y-79850135D01*
X128070000Y-80414804D01*
X128050315Y-80481843D01*
X127997511Y-80527598D01*
X127928353Y-80537542D01*
X127913908Y-80534579D01*
X127859497Y-80520000D01*
X127859496Y-80520000D01*
X127780504Y-80520000D01*
X127780502Y-80520000D01*
X127726092Y-80534579D01*
X127656242Y-80532916D01*
X127598380Y-80493752D01*
X127570877Y-80429524D01*
X127570000Y-80414804D01*
X127570000Y-79861871D01*
X127564227Y-79858424D01*
X127529595Y-79837746D01*
X127503175Y-79816591D01*
X127502692Y-79816082D01*
X127497177Y-79810125D01*
X127496676Y-79809736D01*
X127493184Y-79806052D01*
X127479167Y-79778670D01*
X127463267Y-79752338D01*
X127463392Y-79747851D01*
X127461348Y-79743858D01*
X127464360Y-79713246D01*
X127464991Y-79690675D01*
X127463143Y-79690239D01*
X127463938Y-79686874D01*
X127465158Y-79684684D01*
X127465220Y-79682496D01*
X127465239Y-79682437D01*
X127465886Y-79680445D01*
X127467272Y-79680895D01*
X127467601Y-79680304D01*
X127468190Y-79674324D01*
X127477498Y-79662556D01*
X127496933Y-79627706D01*
X128185222Y-78939418D01*
X128213467Y-78918275D01*
X128236559Y-78905667D01*
X128295984Y-78890500D01*
X131600656Y-78890500D01*
X131635590Y-78895523D01*
G37*
%TD.AperFunction*%
%TA.AperFunction,Conductor*%
G36*
X118036080Y-87163062D02*
G01*
X118080630Y-87175000D01*
X118179368Y-87175000D01*
X118179370Y-87175000D01*
X118223907Y-87163066D01*
X118293754Y-87164727D01*
X118351618Y-87203889D01*
X118379123Y-87268117D01*
X118380000Y-87282840D01*
X118380000Y-88050000D01*
X118657671Y-88050000D01*
X118692606Y-88055023D01*
X118707604Y-88059427D01*
X118766355Y-88097172D01*
X118766379Y-88097200D01*
X118766382Y-88097202D01*
X118766383Y-88097204D01*
X118767542Y-88098541D01*
X118795018Y-88153402D01*
X118796663Y-88160960D01*
X118799500Y-88187331D01*
X118799500Y-88444323D01*
X118799499Y-88444329D01*
X118799500Y-88444332D01*
X118794475Y-88479267D01*
X118790070Y-88494265D01*
X118752302Y-88553031D01*
X118749334Y-88555603D01*
X118715666Y-88576418D01*
X118715085Y-88576659D01*
X118690000Y-88595493D01*
X118690000Y-88884989D01*
X118685606Y-88917707D01*
X118677006Y-88949146D01*
X118669244Y-88969973D01*
X118667504Y-88973606D01*
X118667500Y-88973618D01*
X118622358Y-89128995D01*
X118622357Y-89129001D01*
X118622356Y-89129002D01*
X118622356Y-89129004D01*
X118619500Y-89165294D01*
X118619500Y-89258170D01*
X118619499Y-89258176D01*
X118619500Y-89258179D01*
X118614475Y-89293114D01*
X118610070Y-89308112D01*
X118572327Y-89366855D01*
X118572292Y-89366885D01*
X118572291Y-89366887D01*
X118572289Y-89366887D01*
X118570958Y-89368042D01*
X118516097Y-89395518D01*
X118508539Y-89397163D01*
X118482168Y-89400000D01*
X118440000Y-89400000D01*
X118440000Y-89447670D01*
X118439999Y-89447676D01*
X118440000Y-89447679D01*
X118434975Y-89482614D01*
X118430570Y-89497612D01*
X118392827Y-89556355D01*
X118392792Y-89556385D01*
X118392791Y-89556387D01*
X118392789Y-89556387D01*
X118391458Y-89557542D01*
X118336597Y-89585018D01*
X118329039Y-89586663D01*
X118302668Y-89589500D01*
X118295294Y-89589500D01*
X118259004Y-89592356D01*
X118259002Y-89592356D01*
X118259001Y-89592357D01*
X118258995Y-89592358D01*
X118134424Y-89628551D01*
X118103605Y-89637505D01*
X118103603Y-89637505D01*
X118099861Y-89638593D01*
X118099843Y-89638533D01*
X118087185Y-89642102D01*
X118061493Y-89647423D01*
X118036349Y-89650000D01*
X117790000Y-89650000D01*
X117790000Y-89884989D01*
X117785606Y-89917707D01*
X117777006Y-89949146D01*
X117769244Y-89969973D01*
X117767504Y-89973606D01*
X117767500Y-89973618D01*
X117722358Y-90128995D01*
X117722357Y-90129001D01*
X117722356Y-90129002D01*
X117722356Y-90129004D01*
X117719500Y-90165294D01*
X117719500Y-90258166D01*
X117717631Y-90279612D01*
X117715993Y-90288940D01*
X117714592Y-90291771D01*
X117714476Y-90293104D01*
X117713193Y-90297473D01*
X117712225Y-90297188D01*
X117708111Y-90313307D01*
X117708797Y-90313563D01*
X117707734Y-90316411D01*
X117707105Y-90317250D01*
X117706659Y-90319000D01*
X117705422Y-90321709D01*
X117704189Y-90321146D01*
X117695252Y-90333087D01*
X117692406Y-90342794D01*
X117687054Y-90347434D01*
X117685011Y-90351565D01*
X117678499Y-90355469D01*
X117669399Y-90367627D01*
X117670273Y-90368637D01*
X117669217Y-90369551D01*
X117667307Y-90370422D01*
X117665910Y-90372290D01*
X117663470Y-90374118D01*
X117662385Y-90372670D01*
X117653025Y-90376943D01*
X117639619Y-90388569D01*
X117605758Y-90398524D01*
X117604322Y-90398731D01*
X117586630Y-90400000D01*
X117431830Y-90400000D01*
X117396889Y-90394975D01*
X117381890Y-90390570D01*
X117323144Y-90352827D01*
X117321957Y-90351458D01*
X117294477Y-90296583D01*
X117292832Y-90289021D01*
X117290000Y-90262668D01*
X117290000Y-89595494D01*
X117289998Y-89595492D01*
X117176214Y-89628551D01*
X117176210Y-89628551D01*
X117176210Y-89628552D01*
X117141261Y-89633474D01*
X117127384Y-89633434D01*
X117060401Y-89613557D01*
X117014800Y-89560622D01*
X117011555Y-89553464D01*
X117000500Y-89502283D01*
X117000500Y-89149999D01*
X117661209Y-89149999D01*
X117661210Y-89150000D01*
X118190000Y-89150000D01*
X118190000Y-88595494D01*
X118189999Y-88595493D01*
X118189995Y-88595492D01*
X118043808Y-88637964D01*
X118043156Y-88638268D01*
X118040924Y-88639671D01*
X117904627Y-88720276D01*
X117904615Y-88720285D01*
X117790285Y-88834615D01*
X117790276Y-88834627D01*
X117707969Y-88973801D01*
X117707967Y-88973805D01*
X117707963Y-88973814D01*
X117662857Y-89129070D01*
X117662855Y-89129078D01*
X117662854Y-89129084D01*
X117661756Y-89143039D01*
X117661209Y-89149999D01*
X117000500Y-89149999D01*
X117000500Y-87967209D01*
X117005521Y-87932282D01*
X117007370Y-87925985D01*
X117008707Y-87921427D01*
X117046477Y-87862648D01*
X117110031Y-87833619D01*
X117179186Y-87843557D01*
X117182306Y-87844982D01*
X117230045Y-87883458D01*
X117247802Y-87907178D01*
X117247811Y-87907189D01*
X117247812Y-87907190D01*
X117362906Y-87993350D01*
X117362913Y-87993354D01*
X117497620Y-88043596D01*
X117497627Y-88043598D01*
X117504468Y-88044333D01*
X117557138Y-88049998D01*
X117557155Y-88049999D01*
X117557172Y-88050000D01*
X117880000Y-88050000D01*
X117880000Y-87282840D01*
X117899685Y-87215801D01*
X117952489Y-87170046D01*
X118021647Y-87160102D01*
X118036080Y-87163062D01*
G37*
%TD.AperFunction*%
%TA.AperFunction,Conductor*%
G36*
X118256544Y-76155523D02*
G01*
X118269612Y-76159360D01*
X118328390Y-76197134D01*
X118357416Y-76260689D01*
X118350463Y-76322720D01*
X118347508Y-76330429D01*
X118334826Y-76354936D01*
X118293811Y-76416320D01*
X118293810Y-76416321D01*
X118293801Y-76416339D01*
X118218430Y-76598304D01*
X118218421Y-76598343D01*
X118180000Y-76791500D01*
X118180000Y-76791504D01*
X118180000Y-76940000D01*
X118756000Y-76940000D01*
X118823039Y-76959685D01*
X118868794Y-77012489D01*
X118880000Y-77064000D01*
X118880000Y-77316000D01*
X118860315Y-77383039D01*
X118807511Y-77428794D01*
X118756000Y-77440000D01*
X118180000Y-77440000D01*
X118180000Y-77588498D01*
X118218421Y-77781655D01*
X118218430Y-77781694D01*
X118293803Y-77963664D01*
X118293808Y-77963673D01*
X118293818Y-77963690D01*
X118403249Y-78127464D01*
X118403250Y-78127465D01*
X118403255Y-78127471D01*
X118542527Y-78266743D01*
X118542533Y-78266748D01*
X118542537Y-78266751D01*
X118706315Y-78376185D01*
X118706328Y-78376192D01*
X118786803Y-78409525D01*
X118888302Y-78451567D01*
X118888310Y-78451570D01*
X118930000Y-78459862D01*
X118930000Y-77895195D01*
X118949685Y-77828156D01*
X119002489Y-77782401D01*
X119071647Y-77772457D01*
X119086073Y-77775415D01*
X119140504Y-77790000D01*
X119219493Y-77790000D01*
X119219496Y-77790000D01*
X119273910Y-77775420D01*
X119343756Y-77777083D01*
X119401619Y-77816245D01*
X119429123Y-77880473D01*
X119430000Y-77895195D01*
X119430000Y-78459861D01*
X119430000Y-78459862D01*
X119471690Y-78451569D01*
X119471692Y-78451569D01*
X119653671Y-78376192D01*
X119653684Y-78376185D01*
X119817462Y-78266751D01*
X119817466Y-78266748D01*
X119956748Y-78127466D01*
X119956751Y-78127462D01*
X120066185Y-77963684D01*
X120066192Y-77963671D01*
X120141569Y-77781693D01*
X120141572Y-77781681D01*
X120178480Y-77596130D01*
X120179203Y-77593401D01*
X120180000Y-77588493D01*
X120180000Y-77440000D01*
X119604000Y-77440000D01*
X119536961Y-77420315D01*
X119491206Y-77367511D01*
X119480000Y-77316000D01*
X119480000Y-77064000D01*
X119499685Y-76996961D01*
X119552489Y-76951206D01*
X119604000Y-76940000D01*
X120180000Y-76940000D01*
X120180000Y-76791506D01*
X120179909Y-76790768D01*
X120179408Y-76788533D01*
X120141577Y-76598343D01*
X120141576Y-76598342D01*
X120141572Y-76598318D01*
X120141569Y-76598306D01*
X120085299Y-76462456D01*
X120066197Y-76416339D01*
X120066190Y-76416324D01*
X120057150Y-76402795D01*
X120027362Y-76358214D01*
X120012132Y-76326378D01*
X120008062Y-76313380D01*
X120006814Y-76243522D01*
X120043533Y-76184079D01*
X120098960Y-76155401D01*
X120107023Y-76153571D01*
X120134450Y-76150500D01*
X126861610Y-76150500D01*
X126896544Y-76155523D01*
X126909612Y-76159360D01*
X126921409Y-76166941D01*
X126935087Y-76170047D01*
X126950221Y-76185457D01*
X126968390Y-76197134D01*
X126974216Y-76209890D01*
X126984043Y-76219897D01*
X126988442Y-76241041D01*
X126997416Y-76260689D01*
X126995705Y-76275945D01*
X126998277Y-76288301D01*
X126990463Y-76322720D01*
X126987508Y-76330429D01*
X126974826Y-76354936D01*
X126933811Y-76416320D01*
X126933810Y-76416321D01*
X126933801Y-76416339D01*
X126858430Y-76598304D01*
X126858421Y-76598343D01*
X126820000Y-76791500D01*
X126820000Y-76791504D01*
X126820000Y-76940000D01*
X127396000Y-76940000D01*
X127463039Y-76959685D01*
X127508794Y-77012489D01*
X127520000Y-77064000D01*
X127520000Y-77316000D01*
X127500315Y-77383039D01*
X127447511Y-77428794D01*
X127396000Y-77440000D01*
X126820000Y-77440000D01*
X126820000Y-77588498D01*
X126858421Y-77781655D01*
X126858430Y-77781694D01*
X126933803Y-77963664D01*
X126933808Y-77963673D01*
X126933818Y-77963690D01*
X126997259Y-78058636D01*
X127043248Y-78127462D01*
X127043251Y-78127466D01*
X127070695Y-78154910D01*
X127091842Y-78183162D01*
X127099333Y-78196882D01*
X127114184Y-78265140D01*
X127114055Y-78266946D01*
X127094687Y-78325148D01*
X127092102Y-78329172D01*
X127090506Y-78331655D01*
X127073870Y-78352298D01*
X125347654Y-80078513D01*
X125347655Y-80078514D01*
X125346385Y-80079784D01*
X125346353Y-80079817D01*
X125346286Y-80079884D01*
X125234483Y-80191686D01*
X125229532Y-80198139D01*
X125228708Y-80197507D01*
X125226488Y-80203097D01*
X125210373Y-80217192D01*
X125201008Y-80227519D01*
X125196396Y-80230820D01*
X125195828Y-80231154D01*
X125195516Y-80231450D01*
X125192585Y-80233550D01*
X125190494Y-80234279D01*
X125189653Y-80234773D01*
X125189555Y-80234607D01*
X125174548Y-80239845D01*
X125148732Y-80250034D01*
X125149512Y-80253247D01*
X125141087Y-80255291D01*
X125138147Y-80256004D01*
X125108911Y-80259500D01*
X122006211Y-80259500D01*
X122006148Y-80259499D01*
X122004244Y-80259499D01*
X121996648Y-80259499D01*
X121838533Y-80259499D01*
X121762168Y-80279960D01*
X121762169Y-80279961D01*
X121685807Y-80300422D01*
X121685805Y-80300422D01*
X121685804Y-80300423D01*
X121685802Y-80300423D01*
X121685733Y-80300453D01*
X121684924Y-80300930D01*
X121548888Y-80379470D01*
X121548884Y-80379472D01*
X121548880Y-80379475D01*
X121548872Y-80379481D01*
X121548868Y-80379484D01*
X121548866Y-80379485D01*
X121333262Y-80595089D01*
X121333261Y-80595092D01*
X121305007Y-80616243D01*
X121292825Y-80622895D01*
X121224552Y-80637747D01*
X121159089Y-80613331D01*
X121152277Y-80608232D01*
X121119206Y-80570970D01*
X121070515Y-80486635D01*
X120963365Y-80379485D01*
X120864838Y-80322600D01*
X120864838Y-80322599D01*
X120864836Y-80322599D01*
X120832136Y-80303719D01*
X120758950Y-80284109D01*
X120758949Y-80284108D01*
X120685767Y-80264500D01*
X120685766Y-80264500D01*
X120534234Y-80264500D01*
X120387859Y-80303720D01*
X120292851Y-80358574D01*
X120288054Y-80361204D01*
X120248246Y-80381901D01*
X120248099Y-80381709D01*
X120233104Y-80389774D01*
X120232287Y-80390200D01*
X120198811Y-80396773D01*
X120165461Y-80403809D01*
X120164615Y-80403487D01*
X120163727Y-80403662D01*
X120132029Y-80391100D01*
X120100152Y-80378982D01*
X120100147Y-80378978D01*
X120092130Y-80372897D01*
X120063965Y-80342993D01*
X119956749Y-80182534D01*
X119956748Y-80182533D01*
X119956743Y-80182527D01*
X119817471Y-80043255D01*
X119817465Y-80043250D01*
X119817464Y-80043249D01*
X119653690Y-79933818D01*
X119653689Y-79933817D01*
X119653684Y-79933814D01*
X119653671Y-79933807D01*
X119653664Y-79933803D01*
X119471692Y-79858429D01*
X119471675Y-79858425D01*
X119430000Y-79850135D01*
X119430000Y-80414804D01*
X119410315Y-80481843D01*
X119357511Y-80527598D01*
X119288353Y-80537542D01*
X119273908Y-80534579D01*
X119219497Y-80520000D01*
X119219496Y-80520000D01*
X119140504Y-80520000D01*
X119140502Y-80520000D01*
X119086092Y-80534579D01*
X119016242Y-80532916D01*
X118958380Y-80493752D01*
X118930877Y-80429524D01*
X118930000Y-80414804D01*
X118930000Y-79850136D01*
X118929999Y-79850135D01*
X118888330Y-79858424D01*
X118888306Y-79858429D01*
X118706334Y-79933803D01*
X118706325Y-79933808D01*
X118706308Y-79933818D01*
X118542534Y-80043249D01*
X118542533Y-80043250D01*
X118542527Y-80043255D01*
X118403255Y-80182527D01*
X118403250Y-80182533D01*
X118403249Y-80182534D01*
X118293818Y-80346308D01*
X118293808Y-80346325D01*
X118293803Y-80346334D01*
X118218430Y-80528304D01*
X118218421Y-80528343D01*
X118180000Y-80721501D01*
X118180000Y-80721504D01*
X118180000Y-81120000D01*
X118756000Y-81120000D01*
X118823039Y-81139685D01*
X118868794Y-81192489D01*
X118880000Y-81244000D01*
X118880000Y-81496000D01*
X118860315Y-81563039D01*
X118807511Y-81608794D01*
X118756000Y-81620000D01*
X118180000Y-81620000D01*
X118180000Y-82018498D01*
X118218421Y-82211655D01*
X118218430Y-82211694D01*
X118293803Y-82393664D01*
X118293808Y-82393673D01*
X118293818Y-82393690D01*
X118403249Y-82557464D01*
X118403250Y-82557465D01*
X118403255Y-82557471D01*
X118542527Y-82696743D01*
X118542533Y-82696748D01*
X118542537Y-82696751D01*
X118706315Y-82806185D01*
X118706328Y-82806192D01*
X118786803Y-82839525D01*
X118888302Y-82881567D01*
X118888310Y-82881570D01*
X118930000Y-82889862D01*
X118930000Y-82325195D01*
X118949685Y-82258156D01*
X119002489Y-82212401D01*
X119071647Y-82202457D01*
X119086073Y-82205415D01*
X119140504Y-82220000D01*
X119219493Y-82220000D01*
X119219496Y-82220000D01*
X119273910Y-82205420D01*
X119343756Y-82207083D01*
X119401619Y-82246245D01*
X119429123Y-82310473D01*
X119430000Y-82325195D01*
X119430000Y-82904390D01*
X119432302Y-82907769D01*
X119451290Y-82958713D01*
X119452027Y-82958551D01*
X119452399Y-82960233D01*
X119452548Y-82960211D01*
X119452898Y-82962491D01*
X119452899Y-82962496D01*
X119498707Y-83120165D01*
X119498717Y-83120196D01*
X119498718Y-83120199D01*
X119582310Y-83261546D01*
X119582313Y-83261551D01*
X119582322Y-83261562D01*
X119660473Y-83339713D01*
X119681624Y-83367968D01*
X119689116Y-83381689D01*
X119703968Y-83449949D01*
X119703839Y-83451755D01*
X119684471Y-83509957D01*
X119683341Y-83511717D01*
X119680290Y-83516464D01*
X119663654Y-83537107D01*
X119034681Y-84166080D01*
X119034682Y-84166081D01*
X119032000Y-84168764D01*
X119031286Y-84169478D01*
X118919481Y-84281282D01*
X118919479Y-84281284D01*
X118904784Y-84306739D01*
X118891054Y-84330520D01*
X118840423Y-84418215D01*
X118799499Y-84570943D01*
X118799499Y-84570945D01*
X118799499Y-84741400D01*
X118799500Y-84741451D01*
X118799500Y-85408170D01*
X118799499Y-85408176D01*
X118799500Y-85408179D01*
X118794475Y-85443114D01*
X118790070Y-85458112D01*
X118752327Y-85516855D01*
X118752292Y-85516885D01*
X118752291Y-85516887D01*
X118752289Y-85516887D01*
X118750958Y-85518042D01*
X118696097Y-85545518D01*
X118688539Y-85547163D01*
X118662168Y-85550000D01*
X118380000Y-85550000D01*
X118380000Y-86317159D01*
X118360315Y-86384198D01*
X118307511Y-86429953D01*
X118238353Y-86439897D01*
X118223909Y-86436934D01*
X118179370Y-86425000D01*
X118179369Y-86425000D01*
X118080630Y-86425000D01*
X118036092Y-86436933D01*
X117966244Y-86435271D01*
X117908381Y-86396108D01*
X117880877Y-86331880D01*
X117880000Y-86317159D01*
X117880000Y-85550000D01*
X117557155Y-85550000D01*
X117557146Y-85550000D01*
X117497628Y-85556400D01*
X117497621Y-85556402D01*
X117362910Y-85606646D01*
X117362907Y-85606648D01*
X117247812Y-85692808D01*
X117234453Y-85710655D01*
X117234447Y-85710660D01*
X117234446Y-85710664D01*
X117209487Y-85735619D01*
X117200431Y-85742397D01*
X117134964Y-85766808D01*
X117066693Y-85751950D01*
X117017292Y-85702540D01*
X117015652Y-85699537D01*
X117000500Y-85640138D01*
X117000500Y-81925260D01*
X117000500Y-81925258D01*
X116959577Y-81772531D01*
X116959575Y-81772527D01*
X116959574Y-81772524D01*
X116885351Y-81643966D01*
X116885350Y-81643965D01*
X116880520Y-81635599D01*
X116768716Y-81523795D01*
X116730508Y-81485587D01*
X116699421Y-81454500D01*
X116678274Y-81426248D01*
X116665667Y-81403159D01*
X116650500Y-81343734D01*
X116650500Y-79600945D01*
X116650500Y-79600943D01*
X116609577Y-79448216D01*
X116541450Y-79330215D01*
X116541450Y-79330214D01*
X116541448Y-79330212D01*
X116532371Y-79314490D01*
X116530954Y-79311855D01*
X116530572Y-79311336D01*
X116413363Y-79194127D01*
X116413320Y-79194085D01*
X115349424Y-78130189D01*
X115329642Y-78104377D01*
X115328960Y-78103193D01*
X115322114Y-78090655D01*
X115318541Y-78085096D01*
X115317036Y-78082481D01*
X115309524Y-78051352D01*
X115302917Y-78028848D01*
X116199499Y-78028848D01*
X116230257Y-78183471D01*
X116230264Y-78183502D01*
X116290598Y-78329165D01*
X116290603Y-78329174D01*
X116290613Y-78329191D01*
X116378211Y-78460290D01*
X116378212Y-78460291D01*
X116378217Y-78460297D01*
X116489701Y-78571781D01*
X116489707Y-78571786D01*
X116489711Y-78571789D01*
X116620814Y-78659390D01*
X116620827Y-78659397D01*
X116766498Y-78719735D01*
X116766503Y-78719737D01*
X116921153Y-78750499D01*
X116921156Y-78750500D01*
X116921158Y-78750500D01*
X117078844Y-78750500D01*
X117078845Y-78750499D01*
X117233497Y-78719737D01*
X117379179Y-78659394D01*
X117510289Y-78571789D01*
X117621789Y-78460289D01*
X117709394Y-78329179D01*
X117769737Y-78183497D01*
X117800500Y-78028842D01*
X117800500Y-77871158D01*
X117800500Y-77871155D01*
X117800500Y-77870973D01*
X117800065Y-77868972D01*
X117788231Y-77809480D01*
X117788231Y-77809479D01*
X117782704Y-77781693D01*
X117769737Y-77716503D01*
X117758552Y-77689499D01*
X117745086Y-77656988D01*
X117709400Y-77570833D01*
X117709395Y-77570824D01*
X117709390Y-77570814D01*
X117633695Y-77457529D01*
X117621789Y-77439711D01*
X117621786Y-77439707D01*
X117621781Y-77439701D01*
X117510297Y-77328217D01*
X117510291Y-77328212D01*
X117510290Y-77328211D01*
X117379191Y-77240613D01*
X117379190Y-77240612D01*
X117379185Y-77240609D01*
X117379172Y-77240602D01*
X117379165Y-77240598D01*
X117233502Y-77180264D01*
X117233471Y-77180257D01*
X117078847Y-77149500D01*
X117078845Y-77149500D01*
X117078842Y-77149500D01*
X116921158Y-77149500D01*
X116921155Y-77149500D01*
X116921153Y-77149500D01*
X116766527Y-77180257D01*
X116766496Y-77180264D01*
X116620833Y-77240598D01*
X116620824Y-77240603D01*
X116620807Y-77240613D01*
X116489708Y-77328211D01*
X116489707Y-77328212D01*
X116489701Y-77328217D01*
X116378217Y-77439701D01*
X116378212Y-77439707D01*
X116378211Y-77439708D01*
X116290613Y-77570807D01*
X116290603Y-77570824D01*
X116290598Y-77570833D01*
X116230264Y-77716496D01*
X116230257Y-77716527D01*
X116199500Y-77871150D01*
X116199500Y-77871153D01*
X116199500Y-78028846D01*
X116199500Y-78028848D01*
X116199499Y-78028848D01*
X115302917Y-78028848D01*
X115300499Y-78020612D01*
X115300499Y-76682122D01*
X115300339Y-76680197D01*
X115300113Y-76678543D01*
X115294091Y-76622516D01*
X115285060Y-76598304D01*
X115243797Y-76487671D01*
X115243793Y-76487664D01*
X115180249Y-76402780D01*
X115175862Y-76396527D01*
X115172476Y-76391368D01*
X115152617Y-76364840D01*
X115141837Y-76350439D01*
X115117420Y-76284978D01*
X115132271Y-76216704D01*
X115138591Y-76210383D01*
X115139133Y-76208471D01*
X115150906Y-76198068D01*
X115181676Y-76167299D01*
X115184693Y-76165652D01*
X115188773Y-76164611D01*
X115191493Y-76162208D01*
X115208343Y-76159618D01*
X115244091Y-76150500D01*
X118221610Y-76150500D01*
X118256544Y-76155523D01*
G37*
%TD.AperFunction*%
%TA.AperFunction,Conductor*%
G36*
X121251755Y-83716155D02*
G01*
X121309952Y-83735521D01*
X121316470Y-83739710D01*
X121337106Y-83756341D01*
X121390314Y-83809550D01*
X121390358Y-83809592D01*
X121970626Y-84389861D01*
X121980922Y-84401539D01*
X121990413Y-84413774D01*
X121999168Y-84426656D01*
X122002342Y-84432023D01*
X122015802Y-84464651D01*
X122020258Y-84482215D01*
X122019044Y-84547641D01*
X122015782Y-84558751D01*
X122003537Y-84586937D01*
X121977595Y-84630803D01*
X121977594Y-84630805D01*
X121937156Y-84770000D01*
X122489591Y-84770000D01*
X122490045Y-84770001D01*
X122490624Y-84770003D01*
X122494723Y-84770020D01*
X122500819Y-84770500D01*
X122608708Y-84770499D01*
X122608913Y-84770500D01*
X122609404Y-84770646D01*
X122643759Y-84775650D01*
X122658528Y-84780045D01*
X122673667Y-84789809D01*
X122675869Y-84790466D01*
X122677340Y-84792178D01*
X122716846Y-84817659D01*
X122718040Y-84819036D01*
X122745519Y-84873903D01*
X122747164Y-84881462D01*
X122750000Y-84907830D01*
X122750000Y-85020000D01*
X122858171Y-85020000D01*
X122893106Y-85025023D01*
X122908104Y-85029427D01*
X122966855Y-85067172D01*
X122966879Y-85067200D01*
X122966882Y-85067202D01*
X122966883Y-85067204D01*
X122968042Y-85068541D01*
X122995518Y-85123402D01*
X122997163Y-85130960D01*
X123000000Y-85157331D01*
X123000000Y-85818170D01*
X122999999Y-85818176D01*
X123000000Y-85818179D01*
X122994975Y-85853114D01*
X122990570Y-85868112D01*
X122952827Y-85926855D01*
X122952792Y-85926885D01*
X122952791Y-85926887D01*
X122952789Y-85926887D01*
X122951458Y-85928042D01*
X122896597Y-85955518D01*
X122889039Y-85957163D01*
X122862668Y-85960000D01*
X122750000Y-85960000D01*
X122750000Y-85997670D01*
X122749999Y-85997676D01*
X122750000Y-85997679D01*
X122744975Y-86032614D01*
X122740570Y-86047612D01*
X122702827Y-86106355D01*
X122702792Y-86106385D01*
X122702791Y-86106387D01*
X122702789Y-86106387D01*
X122701458Y-86107542D01*
X122646597Y-86135018D01*
X122639039Y-86136663D01*
X122612668Y-86139500D01*
X122515294Y-86139500D01*
X122483040Y-86142038D01*
X122479008Y-86142356D01*
X122479002Y-86142357D01*
X122478995Y-86142358D01*
X122478991Y-86142359D01*
X122323613Y-86187501D01*
X122316281Y-86190702D01*
X122315875Y-86189772D01*
X122298555Y-86197166D01*
X122267715Y-86205604D01*
X122234991Y-86210000D01*
X121945495Y-86210000D01*
X121926691Y-86235042D01*
X121922431Y-86244052D01*
X121921958Y-86244805D01*
X121916776Y-86252819D01*
X121916353Y-86253744D01*
X121913747Y-86257901D01*
X121890254Y-86278718D01*
X121872238Y-86296684D01*
X121872980Y-86297839D01*
X121869907Y-86299814D01*
X121868763Y-86300149D01*
X121867973Y-86300938D01*
X121865219Y-86302437D01*
X121864656Y-86301403D01*
X121861455Y-86304240D01*
X121847416Y-86306418D01*
X121802868Y-86319500D01*
X121774846Y-86319500D01*
X121774841Y-86319499D01*
X121774839Y-86319500D01*
X121739905Y-86314475D01*
X121724906Y-86310070D01*
X121666134Y-86272298D01*
X121657215Y-86262005D01*
X121636368Y-86228256D01*
X121628706Y-86209759D01*
X121628705Y-86209758D01*
X121623489Y-86197166D01*
X121578786Y-86089244D01*
X121578784Y-86089241D01*
X121578782Y-86089237D01*
X121578778Y-86089229D01*
X121466561Y-85921285D01*
X121466555Y-85921277D01*
X121323721Y-85778443D01*
X121323713Y-85778437D01*
X121155767Y-85666219D01*
X121155757Y-85666214D01*
X121057192Y-85625387D01*
X120969127Y-85588909D01*
X120969119Y-85588907D01*
X120969111Y-85588905D01*
X120969101Y-85588903D01*
X120771009Y-85549500D01*
X120771007Y-85549500D01*
X120771003Y-85549500D01*
X120568997Y-85549500D01*
X120568992Y-85549500D01*
X120568990Y-85549500D01*
X120370897Y-85588903D01*
X120370871Y-85588909D01*
X120370869Y-85588910D01*
X120192962Y-85662601D01*
X120170781Y-85669438D01*
X120151907Y-85673367D01*
X120082263Y-85667758D01*
X120026707Y-85625387D01*
X120026706Y-85625386D01*
X120025093Y-85623190D01*
X120002908Y-85571245D01*
X120002370Y-85568182D01*
X120000500Y-85546730D01*
X120000500Y-85270000D01*
X121937156Y-85270000D01*
X121977327Y-85408274D01*
X121977579Y-85409169D01*
X121982094Y-85416804D01*
X121995551Y-85449426D01*
X122000008Y-85466992D01*
X121999702Y-85483473D01*
X122003817Y-85497485D01*
X121998795Y-85532420D01*
X121994975Y-85545431D01*
X121989571Y-85559305D01*
X121989740Y-85559373D01*
X121987969Y-85563798D01*
X121945496Y-85710000D01*
X122500000Y-85710000D01*
X122500000Y-85270000D01*
X121937156Y-85270000D01*
X120000500Y-85270000D01*
X120000500Y-84967925D01*
X120005522Y-84932992D01*
X120012934Y-84907747D01*
X120044228Y-84855005D01*
X121139715Y-83759517D01*
X121167969Y-83738368D01*
X121181689Y-83730877D01*
X121249945Y-83716026D01*
X121251755Y-83716155D01*
G37*
%TD.AperFunction*%
%TA.AperFunction,Conductor*%
G36*
X114548671Y-82906358D02*
G01*
X114559702Y-82916149D01*
X115050682Y-83407130D01*
X115050682Y-83407129D01*
X115065270Y-83421717D01*
X115065270Y-83421716D01*
X115104622Y-83367554D01*
X115156921Y-83264912D01*
X115167152Y-83254079D01*
X115177248Y-83236076D01*
X115178789Y-83234443D01*
X115184588Y-83228303D01*
X115199989Y-83219311D01*
X115204895Y-83214118D01*
X115213619Y-83209482D01*
X115221714Y-83205585D01*
X115224202Y-83205175D01*
X115244925Y-83193077D01*
X115286839Y-83194869D01*
X115290656Y-83194242D01*
X115292686Y-83195120D01*
X115314731Y-83196063D01*
X115346264Y-83218287D01*
X115354787Y-83221973D01*
X115357747Y-83226381D01*
X115371841Y-83236314D01*
X115388096Y-83271564D01*
X115393745Y-83279973D01*
X115393826Y-83283988D01*
X115396441Y-83289658D01*
X115397198Y-83293532D01*
X115399500Y-83317312D01*
X115399500Y-84535745D01*
X115394474Y-84570692D01*
X115391462Y-84580946D01*
X115353681Y-84639720D01*
X115290122Y-84668739D01*
X115220965Y-84658788D01*
X115174832Y-84622414D01*
X115172400Y-84619306D01*
X115159571Y-84599185D01*
X115149500Y-84579419D01*
X115149500Y-84579420D01*
X115105051Y-84492184D01*
X115072492Y-84447370D01*
X114980109Y-84320213D01*
X114829786Y-84169890D01*
X114657817Y-84044949D01*
X114657812Y-84044946D01*
X114656584Y-84044194D01*
X114636242Y-84028624D01*
X114626127Y-84019071D01*
X114590906Y-83958734D01*
X114593896Y-83888929D01*
X114630066Y-83835210D01*
X114637122Y-83829096D01*
X114653537Y-83817083D01*
X114657542Y-83814628D01*
X114657555Y-83814622D01*
X114679119Y-83798953D01*
X114705858Y-83789412D01*
X114711717Y-83775269D01*
X114206149Y-83269702D01*
X114172664Y-83208379D01*
X114177648Y-83138688D01*
X114219519Y-83082754D01*
X114231822Y-83074639D01*
X114257007Y-83060099D01*
X114350099Y-82967007D01*
X114364634Y-82941830D01*
X114415199Y-82893616D01*
X114483805Y-82880391D01*
X114548671Y-82906358D01*
G37*
%TD.AperFunction*%
%TA.AperFunction,Conductor*%
G36*
X133448671Y-82996358D02*
G01*
X133459702Y-83006149D01*
X133965269Y-83511716D01*
X133965270Y-83511717D01*
X133965271Y-83511716D01*
X133965282Y-83511700D01*
X133968438Y-83508008D01*
X133969409Y-83508837D01*
X133978472Y-83501769D01*
X133988243Y-83488012D01*
X133989240Y-83487235D01*
X133992892Y-83484419D01*
X133998265Y-83480277D01*
X134013765Y-83474243D01*
X134018787Y-83470327D01*
X134029270Y-83466115D01*
X134036427Y-83465422D01*
X134063376Y-83454933D01*
X134089698Y-83460268D01*
X134098815Y-83459387D01*
X134107585Y-83463894D01*
X134131853Y-83468814D01*
X134148349Y-83484845D01*
X134160957Y-83491325D01*
X134168599Y-83504523D01*
X134181941Y-83517489D01*
X134183464Y-83520185D01*
X134188285Y-83538521D01*
X134195968Y-83551790D01*
X134195339Y-83565349D01*
X134199500Y-83581175D01*
X134199500Y-84450356D01*
X134194476Y-84485294D01*
X134191289Y-84496147D01*
X134153514Y-84554924D01*
X134089957Y-84583947D01*
X134020819Y-84574011D01*
X134017996Y-84572722D01*
X133969180Y-84532811D01*
X133880109Y-84410214D01*
X133880105Y-84410209D01*
X133729786Y-84259890D01*
X133557817Y-84134949D01*
X133557812Y-84134946D01*
X133556584Y-84134194D01*
X133536242Y-84118624D01*
X133526127Y-84109071D01*
X133490906Y-84048734D01*
X133493896Y-83978929D01*
X133530066Y-83925210D01*
X133537122Y-83919096D01*
X133553537Y-83907083D01*
X133557542Y-83904628D01*
X133557555Y-83904622D01*
X133579119Y-83888953D01*
X133605858Y-83879412D01*
X133611717Y-83865269D01*
X133106149Y-83359702D01*
X133072664Y-83298379D01*
X133077648Y-83228688D01*
X133119519Y-83172754D01*
X133131822Y-83164639D01*
X133157007Y-83150099D01*
X133250099Y-83057007D01*
X133264634Y-83031830D01*
X133315199Y-82983616D01*
X133383805Y-82970391D01*
X133448671Y-82996358D01*
G37*
%TD.AperFunction*%
%TA.AperFunction,Conductor*%
G36*
X113471311Y-82887647D02*
G01*
X113527244Y-82929519D01*
X113535363Y-82941828D01*
X113549896Y-82967000D01*
X113549899Y-82967004D01*
X113549901Y-82967007D01*
X113642993Y-83060099D01*
X113668169Y-83074634D01*
X113716384Y-83125202D01*
X113729606Y-83193809D01*
X113703638Y-83258673D01*
X113693849Y-83269702D01*
X113188321Y-83775229D01*
X113188282Y-83775269D01*
X113188282Y-83775270D01*
X113242452Y-83814626D01*
X113242451Y-83814626D01*
X113244115Y-83815474D01*
X113251857Y-83821058D01*
X113254490Y-83824448D01*
X113264450Y-83831469D01*
X113273868Y-83840363D01*
X113309092Y-83900700D01*
X113306104Y-83970505D01*
X113269932Y-84024229D01*
X113262929Y-84030297D01*
X113245944Y-84041776D01*
X113246331Y-84042407D01*
X113242172Y-84044955D01*
X113070216Y-84169886D01*
X113070211Y-84169891D01*
X113070211Y-84169892D01*
X113070209Y-84169894D01*
X113020916Y-84219187D01*
X112974785Y-84265318D01*
X112946532Y-84286468D01*
X112936608Y-84291887D01*
X112919183Y-84295677D01*
X112913461Y-84298802D01*
X112906958Y-84298336D01*
X112868335Y-84306739D01*
X112802870Y-84282323D01*
X112760999Y-84226389D01*
X112760997Y-84226385D01*
X112758313Y-84219187D01*
X112750500Y-84175867D01*
X112750500Y-83567059D01*
X112755522Y-83532127D01*
X112756827Y-83527682D01*
X112759927Y-83517125D01*
X112797697Y-83458350D01*
X112800665Y-83455779D01*
X113340297Y-82916147D01*
X113401619Y-82882663D01*
X113471311Y-82887647D01*
G37*
%TD.AperFunction*%
%TA.AperFunction,Conductor*%
G36*
X134131845Y-80929661D02*
G01*
X134181942Y-80978343D01*
X134183466Y-80981041D01*
X134199500Y-81042027D01*
X134199500Y-81911208D01*
X134194664Y-81928008D01*
X134194846Y-81944862D01*
X134194476Y-81946146D01*
X134191289Y-81956999D01*
X134182292Y-81970996D01*
X134180530Y-81977122D01*
X134174526Y-81986689D01*
X134169145Y-81991453D01*
X134153514Y-82015776D01*
X134129075Y-82026935D01*
X134122217Y-82033009D01*
X134112473Y-82034516D01*
X134089957Y-82044799D01*
X134067182Y-82041526D01*
X134053169Y-82043695D01*
X134039228Y-82037508D01*
X134020819Y-82034863D01*
X134017996Y-82033574D01*
X134003319Y-82021573D01*
X133989305Y-82015355D01*
X133981844Y-82004016D01*
X133969178Y-81993660D01*
X133965271Y-81988282D01*
X133965269Y-81988282D01*
X133965268Y-81988282D01*
X133459702Y-82493849D01*
X133398379Y-82527334D01*
X133328687Y-82522350D01*
X133272754Y-82480478D01*
X133264634Y-82468169D01*
X133263963Y-82467007D01*
X133250099Y-82442993D01*
X133157007Y-82349901D01*
X133157004Y-82349899D01*
X133157000Y-82349896D01*
X133131828Y-82335363D01*
X133083613Y-82284796D01*
X133070391Y-82216189D01*
X133096359Y-82151324D01*
X133106135Y-82140310D01*
X133611716Y-81634728D01*
X133611715Y-81634727D01*
X133577934Y-81610184D01*
X133577888Y-81610151D01*
X133557547Y-81595373D01*
X133557547Y-81595372D01*
X133556190Y-81594681D01*
X133548690Y-81589333D01*
X133545977Y-81585878D01*
X133535539Y-81578521D01*
X133526129Y-81569634D01*
X133505612Y-81534486D01*
X133505533Y-81534386D01*
X133505529Y-81534344D01*
X133490905Y-81509292D01*
X133493897Y-81439487D01*
X133530070Y-81385767D01*
X133537084Y-81379690D01*
X133554077Y-81368286D01*
X133553657Y-81367600D01*
X133557808Y-81365055D01*
X133557807Y-81365055D01*
X133557816Y-81365051D01*
X133646643Y-81300515D01*
X133729786Y-81240109D01*
X133729788Y-81240106D01*
X133729792Y-81240104D01*
X133729794Y-81240101D01*
X133729842Y-81240067D01*
X133730550Y-81239345D01*
X133880104Y-81089792D01*
X133964704Y-80973347D01*
X133989297Y-80948041D01*
X133998261Y-80941129D01*
X134063368Y-80915784D01*
X134131845Y-80929661D01*
G37*
%TD.AperFunction*%
%TA.AperFunction,Conductor*%
G36*
X112929186Y-81023935D02*
G01*
X112936172Y-81027125D01*
X112972342Y-81052238D01*
X113070216Y-81150112D01*
X113242178Y-81275048D01*
X113243031Y-81275567D01*
X113243303Y-81275865D01*
X113243902Y-81276300D01*
X113244387Y-81276520D01*
X113245225Y-81277079D01*
X113245142Y-81277202D01*
X113246311Y-81278051D01*
X113246195Y-81278209D01*
X113263741Y-81291361D01*
X113273865Y-81300921D01*
X113287665Y-81324560D01*
X113290085Y-81327216D01*
X113290439Y-81329312D01*
X113309091Y-81361259D01*
X113306105Y-81431065D01*
X113269938Y-81484785D01*
X113262614Y-81491132D01*
X113244059Y-81504432D01*
X113242440Y-81505379D01*
X113188282Y-81544726D01*
X113188281Y-81544727D01*
X113693850Y-82050296D01*
X113727335Y-82111619D01*
X113722351Y-82181311D01*
X113680479Y-82237244D01*
X113668173Y-82245362D01*
X113642996Y-82259898D01*
X113642990Y-82259903D01*
X113549903Y-82352990D01*
X113549898Y-82352996D01*
X113535362Y-82378173D01*
X113484793Y-82426387D01*
X113416185Y-82439607D01*
X113351322Y-82413637D01*
X113340296Y-82403850D01*
X112805814Y-81869368D01*
X112802722Y-81867079D01*
X112790486Y-81855016D01*
X112757502Y-81797801D01*
X112754460Y-81786056D01*
X112750500Y-81754970D01*
X112750500Y-81147587D01*
X112755521Y-81112660D01*
X112758707Y-81101807D01*
X112796477Y-81043026D01*
X112860031Y-81013997D01*
X112929186Y-81023935D01*
G37*
%TD.AperFunction*%
%TA.AperFunction,Conductor*%
G36*
X131703711Y-76155521D02*
G01*
X131714564Y-76158707D01*
X131718424Y-76161187D01*
X131719462Y-76161329D01*
X131721949Y-76163452D01*
X131773345Y-76196477D01*
X131802374Y-76260031D01*
X131792439Y-76329181D01*
X131791025Y-76332277D01*
X131752536Y-76380045D01*
X131645047Y-76460511D01*
X131645032Y-76460523D01*
X131642454Y-76462454D01*
X131642453Y-76462455D01*
X131642452Y-76462456D01*
X131641712Y-76463443D01*
X131641710Y-76463446D01*
X131556207Y-76577661D01*
X131556204Y-76577667D01*
X131556203Y-76577667D01*
X131505907Y-76712516D01*
X131500499Y-76762833D01*
X131500499Y-76762834D01*
X131499500Y-76772124D01*
X131499500Y-77547674D01*
X131494477Y-77582608D01*
X131490074Y-77597603D01*
X131452329Y-77656355D01*
X131450960Y-77657542D01*
X131396096Y-77685019D01*
X131388537Y-77686664D01*
X131362169Y-77689500D01*
X128961830Y-77689500D01*
X128961825Y-77689499D01*
X128961823Y-77689500D01*
X128926889Y-77684475D01*
X128911890Y-77680070D01*
X128853144Y-77642327D01*
X128853115Y-77642293D01*
X128853114Y-77642293D01*
X128853113Y-77642291D01*
X128851957Y-77640958D01*
X128824477Y-77586083D01*
X128822832Y-77578521D01*
X128820000Y-77552168D01*
X128820000Y-77440000D01*
X128244000Y-77440000D01*
X128176961Y-77420315D01*
X128131206Y-77367511D01*
X128120000Y-77316000D01*
X128120000Y-77064000D01*
X128139685Y-76996961D01*
X128192489Y-76951206D01*
X128244000Y-76940000D01*
X128820000Y-76940000D01*
X128820000Y-76791506D01*
X128819909Y-76790768D01*
X128819408Y-76788533D01*
X128781577Y-76598343D01*
X128781576Y-76598342D01*
X128781572Y-76598318D01*
X128781569Y-76598306D01*
X128725299Y-76462456D01*
X128706197Y-76416339D01*
X128706190Y-76416324D01*
X128697150Y-76402795D01*
X128667362Y-76358214D01*
X128652132Y-76326378D01*
X128648062Y-76313380D01*
X128646814Y-76243522D01*
X128683533Y-76184079D01*
X128738960Y-76155401D01*
X128747023Y-76153571D01*
X128774450Y-76150500D01*
X131668784Y-76150500D01*
X131703711Y-76155521D01*
G37*
%TD.AperFunction*%
%TD*%
%TA.AperFunction,Conductor*%
%TO.N,+3V3*%
G36*
X121930934Y-109389876D02*
G01*
X121930936Y-109389877D01*
X122003321Y-109398569D01*
X122019397Y-109400500D01*
X122019398Y-109400500D01*
X122205602Y-109400500D01*
X122206136Y-109400468D01*
X122206275Y-109400500D01*
X122209308Y-109400500D01*
X122209308Y-109401196D01*
X122274232Y-109416109D01*
X122323062Y-109466083D01*
X122337122Y-109534524D01*
X122334972Y-109549393D01*
X122332594Y-109560871D01*
X122330263Y-109566501D01*
X122301950Y-109708835D01*
X122301822Y-109709457D01*
X122285620Y-109739846D01*
X122269631Y-109770413D01*
X122269189Y-109770664D01*
X122268951Y-109771112D01*
X122239059Y-109787823D01*
X122212245Y-109803093D01*
X122212285Y-109803198D01*
X122211639Y-109803438D01*
X122208926Y-109804984D01*
X122205022Y-109805906D01*
X122070171Y-109856202D01*
X122070164Y-109856206D01*
X121954955Y-109942452D01*
X121954952Y-109942455D01*
X121868706Y-110057664D01*
X121868702Y-110057671D01*
X121818408Y-110192517D01*
X121812001Y-110252116D01*
X121812001Y-110252123D01*
X121812000Y-110252135D01*
X121812000Y-113547870D01*
X121812001Y-113547876D01*
X121818408Y-113607483D01*
X121868702Y-113742328D01*
X121868706Y-113742335D01*
X121954952Y-113857544D01*
X121954955Y-113857547D01*
X122070164Y-113943793D01*
X122070173Y-113943798D01*
X122110484Y-113958833D01*
X122114969Y-113962190D01*
X122120504Y-113963079D01*
X122142639Y-113982904D01*
X122166418Y-114000704D01*
X122168376Y-114005954D01*
X122172551Y-114009693D01*
X122180452Y-114038330D01*
X122190836Y-114066168D01*
X122190037Y-114073066D01*
X122191135Y-114077046D01*
X122187606Y-114094054D01*
X122185541Y-114111894D01*
X122183866Y-114117269D01*
X122142763Y-114216503D01*
X122124757Y-114307022D01*
X122122806Y-114313287D01*
X122106926Y-114337127D01*
X122093649Y-114362511D01*
X122087802Y-114365840D01*
X122084074Y-114371438D01*
X122057832Y-114382906D01*
X122032933Y-114397085D01*
X122020224Y-114399341D01*
X122020051Y-114399418D01*
X122019917Y-114399396D01*
X122019203Y-114399523D01*
X121996296Y-114402274D01*
X121927283Y-114410561D01*
X121897717Y-114410561D01*
X121849059Y-114404718D01*
X121805602Y-114399500D01*
X121619398Y-114399500D01*
X121578160Y-114404452D01*
X121541549Y-114408848D01*
X121472641Y-114397296D01*
X121420917Y-114350323D01*
X121402800Y-114282843D01*
X121403649Y-114270967D01*
X121413000Y-114193102D01*
X121413000Y-114006898D01*
X121402377Y-113918436D01*
X121402376Y-113918434D01*
X121401938Y-113914785D01*
X121401938Y-113885215D01*
X121402376Y-113881565D01*
X121402377Y-113881564D01*
X121413000Y-113793102D01*
X121413000Y-113606898D01*
X121402377Y-113518436D01*
X121402376Y-113518434D01*
X121401938Y-113514785D01*
X121401938Y-113485215D01*
X121402376Y-113481565D01*
X121402377Y-113481564D01*
X121413000Y-113393102D01*
X121413000Y-113206898D01*
X121402377Y-113118436D01*
X121346861Y-112977658D01*
X121344790Y-112974927D01*
X121343673Y-112971989D01*
X121342705Y-112970267D01*
X121342963Y-112970121D01*
X121319966Y-112909618D01*
X121334391Y-112841254D01*
X121344791Y-112825071D01*
X121346861Y-112822342D01*
X121402377Y-112681564D01*
X121413000Y-112593102D01*
X121413000Y-112406898D01*
X121402377Y-112318436D01*
X121402376Y-112318434D01*
X121401938Y-112314785D01*
X121401938Y-112285215D01*
X121402376Y-112281565D01*
X121402377Y-112281564D01*
X121413000Y-112193102D01*
X121413000Y-112006898D01*
X121402377Y-111918436D01*
X121402376Y-111918434D01*
X121401938Y-111914785D01*
X121401938Y-111885215D01*
X121402376Y-111881565D01*
X121402377Y-111881564D01*
X121413000Y-111793102D01*
X121413000Y-111606898D01*
X121402377Y-111518436D01*
X121402376Y-111518434D01*
X121401938Y-111514785D01*
X121401938Y-111485215D01*
X121402376Y-111481565D01*
X121402377Y-111481564D01*
X121413000Y-111393102D01*
X121413000Y-111206898D01*
X121402377Y-111118436D01*
X121402376Y-111118434D01*
X121401938Y-111114785D01*
X121401938Y-111085215D01*
X121402376Y-111081565D01*
X121402377Y-111081564D01*
X121413000Y-110993102D01*
X121413000Y-110806898D01*
X121402377Y-110718436D01*
X121402376Y-110718434D01*
X121401938Y-110714785D01*
X121401938Y-110685215D01*
X121402376Y-110681565D01*
X121402377Y-110681564D01*
X121413000Y-110593102D01*
X121413000Y-110406898D01*
X121402377Y-110318436D01*
X121402376Y-110318434D01*
X121401938Y-110314785D01*
X121401938Y-110285215D01*
X121402376Y-110281565D01*
X121402377Y-110281564D01*
X121413000Y-110193102D01*
X121413000Y-110006898D01*
X121402377Y-109918436D01*
X121402376Y-109918434D01*
X121401938Y-109914785D01*
X121401938Y-109885215D01*
X121402376Y-109881565D01*
X121402377Y-109881564D01*
X121413000Y-109793102D01*
X121413000Y-109606898D01*
X121403651Y-109529047D01*
X121415203Y-109460142D01*
X121462175Y-109408418D01*
X121529655Y-109390300D01*
X121541533Y-109391149D01*
X121619398Y-109400500D01*
X121619399Y-109400500D01*
X121805603Y-109400500D01*
X121821678Y-109398569D01*
X121894064Y-109389877D01*
X121894065Y-109389876D01*
X121897715Y-109389438D01*
X121927285Y-109389438D01*
X121930934Y-109389876D01*
G37*
%TD.AperFunction*%
%TA.AperFunction,Conductor*%
G36*
X126378965Y-109259595D02*
G01*
X126380567Y-109259779D01*
X126381113Y-109260226D01*
X126413327Y-109269685D01*
X126459082Y-109322489D01*
X126469026Y-109391647D01*
X126461642Y-109419490D01*
X126422623Y-109518434D01*
X126422623Y-109518436D01*
X126412000Y-109606898D01*
X126412000Y-109793102D01*
X126413427Y-109804984D01*
X126423061Y-109885217D01*
X126423061Y-109914783D01*
X126417218Y-109963440D01*
X126412000Y-110006898D01*
X126412000Y-110193102D01*
X126417722Y-110240754D01*
X126423061Y-110285217D01*
X126423061Y-110314783D01*
X126421020Y-110331784D01*
X126412000Y-110406898D01*
X126412000Y-110593102D01*
X126417722Y-110640754D01*
X126423061Y-110685217D01*
X126423061Y-110714783D01*
X126417218Y-110763440D01*
X126412000Y-110806898D01*
X126412000Y-110993102D01*
X126417722Y-111040754D01*
X126423061Y-111085217D01*
X126423061Y-111114783D01*
X126421020Y-111131784D01*
X126412000Y-111206898D01*
X126412000Y-111393102D01*
X126417722Y-111440754D01*
X126423061Y-111485217D01*
X126423061Y-111514783D01*
X126417218Y-111563440D01*
X126412000Y-111606898D01*
X126412000Y-111793102D01*
X126417722Y-111840754D01*
X126423061Y-111885217D01*
X126423061Y-111914783D01*
X126417218Y-111963440D01*
X126412000Y-112006898D01*
X126412000Y-112193102D01*
X126417722Y-112240754D01*
X126423061Y-112285217D01*
X126423061Y-112314783D01*
X126417218Y-112363440D01*
X126412000Y-112406898D01*
X126412000Y-112593102D01*
X126417626Y-112639954D01*
X126422622Y-112681561D01*
X126478139Y-112822343D01*
X126480212Y-112825076D01*
X126481330Y-112828018D01*
X126482295Y-112829734D01*
X126482037Y-112829878D01*
X126505034Y-112890388D01*
X126490605Y-112958752D01*
X126480212Y-112974924D01*
X126478139Y-112977656D01*
X126422622Y-113118438D01*
X126416688Y-113167853D01*
X126412000Y-113206898D01*
X126412000Y-113206903D01*
X126412000Y-113331443D01*
X126402692Y-113363140D01*
X126394395Y-113395131D01*
X126392890Y-113396520D01*
X126392315Y-113398482D01*
X126367362Y-113420103D01*
X126343073Y-113442542D01*
X126341056Y-113442897D01*
X126339511Y-113444237D01*
X126306808Y-113448939D01*
X126274265Y-113454680D01*
X126271927Y-113453954D01*
X126270353Y-113454181D01*
X126240102Y-113445819D01*
X126231739Y-113442317D01*
X126229179Y-113440606D01*
X126089371Y-113382696D01*
X126089101Y-113382583D01*
X126062123Y-113360669D01*
X126035143Y-113338927D01*
X126035063Y-113338689D01*
X126034868Y-113338530D01*
X126024024Y-113305521D01*
X126013078Y-113272633D01*
X126013069Y-113272174D01*
X126013062Y-113272151D01*
X126013068Y-113272124D01*
X126012999Y-113268207D01*
X126012999Y-110252129D01*
X126012998Y-110252123D01*
X126012997Y-110252116D01*
X126006591Y-110192517D01*
X125966705Y-110085578D01*
X125956297Y-110057671D01*
X125956293Y-110057664D01*
X125870047Y-109942455D01*
X125870046Y-109942454D01*
X125870043Y-109942452D01*
X125840353Y-109920225D01*
X125798482Y-109864294D01*
X125793498Y-109794602D01*
X125826981Y-109733281D01*
X126081213Y-109479050D01*
X126081216Y-109479049D01*
X126193020Y-109367245D01*
X126224913Y-109312001D01*
X126238651Y-109298901D01*
X126248453Y-109282647D01*
X126263411Y-109275291D01*
X126275479Y-109263785D01*
X126297851Y-109258357D01*
X126311153Y-109251817D01*
X126320426Y-109252880D01*
X126332301Y-109250000D01*
X126346288Y-109250000D01*
X126378965Y-109259595D01*
G37*
%TD.AperFunction*%
%TD*%
M02*
