%TF.GenerationSoftware,KiCad,Pcbnew,10.0.1*%
%TF.CreationDate,2026-06-25T09:50:19+02:00*%
%TF.ProjectId,devboard,64657662-6f61-4726-942e-6b696361645f,rev?*%
%TF.SameCoordinates,Original*%
%TF.FileFunction,Soldermask,Top*%
%TF.FilePolarity,Negative*%
%FSLAX46Y46*%
G04 Gerber Fmt 4.6, Leading zero omitted, Abs format (unit mm)*
G04 Created by KiCad (PCBNEW 10.0.1) date 2026-06-25 09:50:19*
%MOMM*%
%LPD*%
G01*
G04 APERTURE LIST*
G04 Aperture macros list*
%AMRoundRect*
0 Rectangle with rounded corners*
0 $1 Rounding radius*
0 $2 $3 $4 $5 $6 $7 $8 $9 X,Y pos of 4 corners*
0 Add a 4 corners polygon primitive as box body*
4,1,4,$2,$3,$4,$5,$6,$7,$8,$9,$2,$3,0*
0 Add four circle primitives for the rounded corners*
1,1,$1+$1,$2,$3*
1,1,$1+$1,$4,$5*
1,1,$1+$1,$6,$7*
1,1,$1+$1,$8,$9*
0 Add four rect primitives between the rounded corners*
20,1,$1+$1,$2,$3,$4,$5,0*
20,1,$1+$1,$4,$5,$6,$7,0*
20,1,$1+$1,$6,$7,$8,$9,0*
20,1,$1+$1,$8,$9,$2,$3,0*%
G04 Aperture macros list end*
%ADD10O,1.050000X1.500000*%
%ADD11R,1.050000X1.500000*%
%ADD12O,1.000000X1.600000*%
%ADD13O,1.000000X2.100000*%
%ADD14RoundRect,0.150000X0.150000X0.575000X-0.150000X0.575000X-0.150000X-0.575000X0.150000X-0.575000X0*%
%ADD15RoundRect,0.075000X0.075000X0.650000X-0.075000X0.650000X-0.075000X-0.650000X0.075000X-0.650000X0*%
%ADD16C,0.650000*%
%ADD17RoundRect,0.140000X0.170000X-0.140000X0.170000X0.140000X-0.170000X0.140000X-0.170000X-0.140000X0*%
%ADD18RoundRect,0.135000X-0.185000X0.135000X-0.185000X-0.135000X0.185000X-0.135000X0.185000X0.135000X0*%
%ADD19RoundRect,0.140000X0.140000X0.170000X-0.140000X0.170000X-0.140000X-0.170000X0.140000X-0.170000X0*%
%ADD20RoundRect,0.135000X-0.135000X-0.185000X0.135000X-0.185000X0.135000X0.185000X-0.135000X0.185000X0*%
%ADD21RoundRect,0.135000X0.185000X-0.135000X0.185000X0.135000X-0.185000X0.135000X-0.185000X-0.135000X0*%
%ADD22RoundRect,0.162500X-0.650000X-0.162500X0.650000X-0.162500X0.650000X0.162500X-0.650000X0.162500X0*%
%ADD23RoundRect,0.140000X0.021213X-0.219203X0.219203X-0.021213X-0.021213X0.219203X-0.219203X0.021213X0*%
%ADD24RoundRect,0.140000X-0.170000X0.140000X-0.170000X-0.140000X0.170000X-0.140000X0.170000X0.140000X0*%
%ADD25RoundRect,0.050000X-0.387500X-0.050000X0.387500X-0.050000X0.387500X0.050000X-0.387500X0.050000X0*%
%ADD26RoundRect,0.050000X-0.050000X-0.387500X0.050000X-0.387500X0.050000X0.387500X-0.050000X0.387500X0*%
%ADD27R,3.200000X3.200000*%
%ADD28RoundRect,0.140000X-0.140000X-0.170000X0.140000X-0.170000X0.140000X0.170000X-0.140000X0.170000X0*%
%ADD29R,1.700000X1.700000*%
%ADD30C,1.700000*%
%ADD31RoundRect,0.200000X-0.200000X-0.800000X0.200000X-0.800000X0.200000X0.800000X-0.200000X0.800000X0*%
%ADD32RoundRect,0.250000X-0.450000X-0.350000X0.450000X-0.350000X0.450000X0.350000X-0.450000X0.350000X0*%
G04 APERTURE END LIST*
D10*
%TO.C,U4*%
X120670000Y-86800000D03*
X119400000Y-86800000D03*
D11*
X118130000Y-86800000D03*
%TD*%
D12*
%TO.C,J1*%
X119180000Y-77190000D03*
D13*
X119180000Y-81370000D03*
D12*
X127820000Y-77190000D03*
D13*
X127820000Y-81370000D03*
D14*
X126750000Y-82285000D03*
X125950000Y-82285000D03*
D15*
X125250000Y-82285000D03*
X124250000Y-82285000D03*
X122750000Y-82285000D03*
X121750000Y-82285000D03*
D14*
X121050000Y-82285000D03*
X120250000Y-82285000D03*
X120250000Y-82285000D03*
X121050000Y-82285000D03*
D15*
X122250000Y-82285000D03*
X123250000Y-82285000D03*
X123750000Y-82285000D03*
X124750000Y-82285000D03*
D14*
X125950000Y-82285000D03*
X126750000Y-82285000D03*
D16*
X120610000Y-80840000D03*
X126390000Y-80840000D03*
%TD*%
D17*
%TO.C,C16*%
X118400000Y-121860000D03*
X118400000Y-120900000D03*
%TD*%
D18*
%TO.C,R7*%
X118700000Y-91490000D03*
X118700000Y-92510000D03*
%TD*%
D17*
%TO.C,C10*%
X126550000Y-105060000D03*
X126550000Y-104100000D03*
%TD*%
D19*
%TO.C,C8*%
X118500000Y-90400000D03*
X117540000Y-90400000D03*
%TD*%
D20*
%TO.C,R6*%
X119450000Y-90500000D03*
X120470000Y-90500000D03*
%TD*%
D19*
%TO.C,C9*%
X130460000Y-88950000D03*
X129500000Y-88950000D03*
%TD*%
D18*
%TO.C,R5*%
X118400000Y-118940000D03*
X118400000Y-119960000D03*
%TD*%
D21*
%TO.C,R2*%
X122750000Y-85020000D03*
X122750000Y-84000000D03*
%TD*%
D18*
%TO.C,R3*%
X125500000Y-104080000D03*
X125500000Y-105100000D03*
%TD*%
D22*
%TO.C,U3*%
X120350000Y-91640000D03*
X120350000Y-92910000D03*
X120350000Y-94180000D03*
X120350000Y-95450000D03*
X127525000Y-95450000D03*
X127525000Y-94180000D03*
X127525000Y-92910000D03*
X127525000Y-91640000D03*
%TD*%
D23*
%TO.C,C3*%
X126521178Y-106778822D03*
X127200000Y-106100000D03*
%TD*%
D24*
%TO.C,C12*%
X125000000Y-119020000D03*
X125000000Y-119980000D03*
%TD*%
D18*
%TO.C,R4*%
X124450000Y-104100000D03*
X124450000Y-105120000D03*
%TD*%
D23*
%TO.C,C4*%
X127400000Y-107400000D03*
X128078822Y-106721178D03*
%TD*%
D25*
%TO.C,U1*%
X120475000Y-109300000D03*
X120475000Y-109700000D03*
X120475000Y-110100000D03*
X120475000Y-110500000D03*
X120475000Y-110900000D03*
X120475000Y-111300000D03*
X120475000Y-111700000D03*
X120475000Y-112100000D03*
X120475000Y-112500000D03*
X120475000Y-112900000D03*
X120475000Y-113300000D03*
X120475000Y-113700000D03*
X120475000Y-114100000D03*
X120475000Y-114500000D03*
D26*
X121312500Y-115337500D03*
X121712500Y-115337500D03*
X122112500Y-115337500D03*
X122512500Y-115337500D03*
X122912500Y-115337500D03*
X123312500Y-115337500D03*
X123712500Y-115337500D03*
X124112500Y-115337500D03*
X124512500Y-115337500D03*
X124912500Y-115337500D03*
X125312500Y-115337500D03*
X125712500Y-115337500D03*
X126112500Y-115337500D03*
X126512500Y-115337500D03*
D25*
X127350000Y-114500000D03*
X127350000Y-114100000D03*
X127350000Y-113700000D03*
X127350000Y-113300000D03*
X127350000Y-112900000D03*
X127350000Y-112500000D03*
X127350000Y-112100000D03*
X127350000Y-111700000D03*
X127350000Y-111300000D03*
X127350000Y-110900000D03*
X127350000Y-110500000D03*
X127350000Y-110100000D03*
X127350000Y-109700000D03*
X127350000Y-109300000D03*
D26*
X126512500Y-108462500D03*
X126112500Y-108462500D03*
X125712500Y-108462500D03*
X125312500Y-108462500D03*
X124912500Y-108462500D03*
X124512500Y-108462500D03*
X124112500Y-108462500D03*
X123712500Y-108462500D03*
X123312500Y-108462500D03*
X122912500Y-108462500D03*
X122512500Y-108462500D03*
X122112500Y-108462500D03*
X121712500Y-108462500D03*
X121312500Y-108462500D03*
D27*
X123912500Y-111900000D03*
%TD*%
D17*
%TO.C,C1*%
X122750000Y-86920000D03*
X122750000Y-85960000D03*
%TD*%
%TO.C,C6*%
X120400000Y-107580000D03*
X120400000Y-106620000D03*
%TD*%
D28*
%TO.C,C15*%
X121740000Y-117750000D03*
X122700000Y-117750000D03*
%TD*%
D29*
%TO.C,J4*%
X120910000Y-127500000D03*
D30*
X123450000Y-127500000D03*
X125990000Y-127500000D03*
%TD*%
D17*
%TO.C,C5*%
X124250000Y-107210000D03*
X124250000Y-106250000D03*
%TD*%
D24*
%TO.C,C11*%
X124350000Y-116550000D03*
X124350000Y-117510000D03*
%TD*%
D31*
%TO.C,SW1*%
X119620000Y-123800000D03*
X123820000Y-123800000D03*
%TD*%
D29*
%TO.C,J3*%
X132850000Y-77670000D03*
D30*
X132850000Y-80210000D03*
X132850000Y-82750000D03*
X132850000Y-85290000D03*
X132850000Y-87830000D03*
X132850000Y-90370000D03*
X132850000Y-92910000D03*
X132850000Y-95450000D03*
X132850000Y-97990000D03*
X132850000Y-100530000D03*
X132850000Y-103070000D03*
X132850000Y-105610000D03*
X132850000Y-108150000D03*
X132850000Y-110690000D03*
X132850000Y-113230000D03*
X132850000Y-115770000D03*
X132850000Y-118310000D03*
X132850000Y-120850000D03*
X132850000Y-123390000D03*
X132850000Y-125930000D03*
%TD*%
D21*
%TO.C,R1*%
X124900000Y-85020000D03*
X124900000Y-84000000D03*
%TD*%
D17*
%TO.C,C17*%
X127550000Y-90480000D03*
X127550000Y-89520000D03*
%TD*%
D28*
%TO.C,C13*%
X118440000Y-89400000D03*
X119400000Y-89400000D03*
%TD*%
D32*
%TO.C,Y1*%
X119950000Y-120900000D03*
X122150000Y-120900000D03*
X122150000Y-119200000D03*
X119950000Y-119200000D03*
%TD*%
D29*
%TO.C,J2*%
X113950000Y-77580000D03*
D30*
X113950000Y-80120000D03*
X113950000Y-82660000D03*
X113950000Y-85200000D03*
X113950000Y-87740000D03*
X113950000Y-90280000D03*
X113950000Y-92820000D03*
X113950000Y-95360000D03*
X113950000Y-97900000D03*
X113950000Y-100440000D03*
X113950000Y-102980000D03*
X113950000Y-105520000D03*
X113950000Y-108060000D03*
X113950000Y-110600000D03*
X113950000Y-113140000D03*
X113950000Y-115680000D03*
X113950000Y-118220000D03*
X113950000Y-120760000D03*
X113950000Y-123300000D03*
X113950000Y-125840000D03*
%TD*%
D17*
%TO.C,C7*%
X129150000Y-91660000D03*
X129150000Y-90700000D03*
%TD*%
D19*
%TO.C,C2*%
X130480000Y-87900000D03*
X129520000Y-87900000D03*
%TD*%
%TO.C,C14*%
X121360000Y-89400000D03*
X120400000Y-89400000D03*
%TD*%
M02*
