%TF.GenerationSoftware,KiCad,Pcbnew,10.0.1*%
%TF.CreationDate,2026-06-21T01:56:21+02:00*%
%TF.ProjectId,devboard,64657662-6f61-4726-942e-6b696361645f,rev?*%
%TF.SameCoordinates,Original*%
%TF.FileFunction,Copper,L1,Top*%
%TF.FilePolarity,Positive*%
%FSLAX46Y46*%
G04 Gerber Fmt 4.6, Leading zero omitted, Abs format (unit mm)*
G04 Created by KiCad (PCBNEW 10.0.1) date 2026-06-21 01:56:21*
%MOMM*%
%LPD*%
G01*
G04 APERTURE LIST*
G04 Aperture macros list*
%AMRoundRect*
0 Rectangle with rounded corners*
0 $1 Rounding radius*
0 $2 $3 $4 $5 $6 $7 $8 $9 X,Y pos of 4 corners*
0 Add a 4 corners polygon primitive as box body*
4,1,4,$2,$3,$4,$5,$6,$7,$8,$9,$2,$3,0*
0 Add four circle primitives for the rounded corners*
1,1,$1+$1,$2,$3*
1,1,$1+$1,$4,$5*
1,1,$1+$1,$6,$7*
1,1,$1+$1,$8,$9*
0 Add four rect primitives between the rounded corners*
20,1,$1+$1,$2,$3,$4,$5,0*
20,1,$1+$1,$4,$5,$6,$7,0*
20,1,$1+$1,$6,$7,$8,$9,0*
20,1,$1+$1,$8,$9,$2,$3,0*%
G04 Aperture macros list end*
%TA.AperFunction,SMDPad,CuDef*%
%ADD10RoundRect,0.140000X0.170000X-0.140000X0.170000X0.140000X-0.170000X0.140000X-0.170000X-0.140000X0*%
%TD*%
%TA.AperFunction,SMDPad,CuDef*%
%ADD11RoundRect,0.135000X-0.135000X-0.185000X0.135000X-0.185000X0.135000X0.185000X-0.135000X0.185000X0*%
%TD*%
%TA.AperFunction,ComponentPad*%
%ADD12R,1.050000X1.500000*%
%TD*%
%TA.AperFunction,ComponentPad*%
%ADD13O,1.050000X1.500000*%
%TD*%
%TA.AperFunction,SMDPad,CuDef*%
%ADD14RoundRect,0.140000X-0.170000X0.140000X-0.170000X-0.140000X0.170000X-0.140000X0.170000X0.140000X0*%
%TD*%
%TA.AperFunction,SMDPad,CuDef*%
%ADD15RoundRect,0.140000X-0.140000X-0.170000X0.140000X-0.170000X0.140000X0.170000X-0.140000X0.170000X0*%
%TD*%
%TA.AperFunction,SMDPad,CuDef*%
%ADD16RoundRect,0.135000X0.135000X0.185000X-0.135000X0.185000X-0.135000X-0.185000X0.135000X-0.185000X0*%
%TD*%
%TA.AperFunction,SMDPad,CuDef*%
%ADD17RoundRect,0.150000X0.150000X0.575000X-0.150000X0.575000X-0.150000X-0.575000X0.150000X-0.575000X0*%
%TD*%
%TA.AperFunction,SMDPad,CuDef*%
%ADD18RoundRect,0.075000X0.075000X0.650000X-0.075000X0.650000X-0.075000X-0.650000X0.075000X-0.650000X0*%
%TD*%
%TA.AperFunction,ComponentPad*%
%ADD19O,1.000000X2.100000*%
%TD*%
%TA.AperFunction,ComponentPad*%
%ADD20O,1.000000X1.600000*%
%TD*%
%TA.AperFunction,SMDPad,CuDef*%
%ADD21RoundRect,0.135000X-0.185000X0.135000X-0.185000X-0.135000X0.185000X-0.135000X0.185000X0.135000X0*%
%TD*%
%TA.AperFunction,SMDPad,CuDef*%
%ADD22RoundRect,0.162500X-0.650000X-0.162500X0.650000X-0.162500X0.650000X0.162500X-0.650000X0.162500X0*%
%TD*%
%TA.AperFunction,SMDPad,CuDef*%
%ADD23RoundRect,0.140000X0.140000X0.170000X-0.140000X0.170000X-0.140000X-0.170000X0.140000X-0.170000X0*%
%TD*%
%TA.AperFunction,ComponentPad*%
%ADD24R,1.700000X1.700000*%
%TD*%
%TA.AperFunction,ComponentPad*%
%ADD25C,1.700000*%
%TD*%
%TA.AperFunction,SMDPad,CuDef*%
%ADD26RoundRect,0.200000X-0.200000X-0.800000X0.200000X-0.800000X0.200000X0.800000X-0.200000X0.800000X0*%
%TD*%
%TA.AperFunction,SMDPad,CuDef*%
%ADD27RoundRect,0.250000X-0.450000X-0.350000X0.450000X-0.350000X0.450000X0.350000X-0.450000X0.350000X0*%
%TD*%
%TA.AperFunction,SMDPad,CuDef*%
%ADD28RoundRect,0.050000X-0.387500X-0.050000X0.387500X-0.050000X0.387500X0.050000X-0.387500X0.050000X0*%
%TD*%
%TA.AperFunction,SMDPad,CuDef*%
%ADD29RoundRect,0.050000X-0.050000X-0.387500X0.050000X-0.387500X0.050000X0.387500X-0.050000X0.387500X0*%
%TD*%
%TA.AperFunction,HeatsinkPad*%
%ADD30R,3.200000X3.200000*%
%TD*%
%TA.AperFunction,ViaPad*%
%ADD31C,0.600000*%
%TD*%
%TA.AperFunction,Conductor*%
%ADD32C,0.200000*%
%TD*%
G04 APERTURE END LIST*
D10*
%TO.P,C16,1*%
%TO.N,GND*%
X123750000Y-121410000D03*
%TO.P,C16,2*%
%TO.N,Net-(C16-Pad2)*%
X123750000Y-120450000D03*
%TD*%
D11*
%TO.P,R7,1*%
%TO.N,Net-(R7-Pad1)*%
X119480000Y-107650000D03*
%TO.P,R7,2*%
%TO.N,QSPI_SCLK*%
X120500000Y-107650000D03*
%TD*%
D12*
%TO.P,U4,1,GND_1*%
%TO.N,GND*%
X118510000Y-86400000D03*
D13*
%TO.P,U4,2,VI_2*%
%TO.N,VBUS*%
X119780000Y-86400000D03*
%TO.P,U4,3,VO_3*%
%TO.N,+3V3*%
X121050000Y-86400000D03*
%TD*%
D14*
%TO.P,C10,1*%
%TO.N,+1V1*%
X127550000Y-123440000D03*
%TO.P,C10,2*%
%TO.N,GND*%
X127550000Y-124400000D03*
%TD*%
D15*
%TO.P,C8,1*%
%TO.N,+3V3*%
X119540000Y-96600000D03*
%TO.P,C8,2*%
%TO.N,GND*%
X120500000Y-96600000D03*
%TD*%
D16*
%TO.P,R6,1*%
%TO.N,+3V3*%
X126850000Y-90100000D03*
%TO.P,R6,2*%
%TO.N,QSPI_SCLK*%
X125830000Y-90100000D03*
%TD*%
D14*
%TO.P,C9,1*%
%TO.N,+3V3*%
X118700000Y-94650000D03*
%TO.P,C9,2*%
%TO.N,GND*%
X118700000Y-95610000D03*
%TD*%
D17*
%TO.P,J1,A1,GND_A1*%
%TO.N,GND*%
X126750000Y-82285000D03*
%TO.P,J1,A4,VBUS_A4*%
%TO.N,VBUS*%
X125950000Y-82285000D03*
D18*
%TO.P,J1,A5,CC1_A5*%
%TO.N,Net-(J1-CC1)*%
X124750000Y-82285000D03*
%TO.P,J1,A6,D+_A6*%
%TO.N,USB_D+*%
X123750000Y-82285000D03*
%TO.P,J1,A7,D-_A7*%
%TO.N,USB_D-*%
X123250000Y-82285000D03*
%TO.P,J1,A8,SBU1_A8*%
%TO.N,unconnected-(J1-SBU1-PadA8)*%
X122250000Y-82285000D03*
D17*
%TO.P,J1,A9,VBUS_A9*%
%TO.N,VBUS*%
X121050000Y-82285000D03*
%TO.P,J1,A12,GND_A12*%
%TO.N,GND*%
X120250000Y-82285000D03*
%TO.P,J1,B1,GND_B1*%
X120250000Y-82285000D03*
%TO.P,J1,B4,VBUS_B4*%
%TO.N,VBUS*%
X121050000Y-82285000D03*
D18*
%TO.P,J1,B5,CC2_B5*%
%TO.N,Net-(J1-CC2)*%
X121750000Y-82285000D03*
%TO.P,J1,B6,D+_B6*%
%TO.N,USB_D+*%
X122750000Y-82285000D03*
%TO.P,J1,B7,D-_B7*%
%TO.N,USB_D-*%
X124250000Y-82285000D03*
%TO.P,J1,B8,SBU2_B8*%
%TO.N,unconnected-(J1-SBU2-PadB8)*%
X125250000Y-82285000D03*
D17*
%TO.P,J1,B9,VBUS_B9*%
%TO.N,VBUS*%
X125950000Y-82285000D03*
%TO.P,J1,B12,GND_B12*%
%TO.N,GND*%
X126750000Y-82285000D03*
D19*
%TO.P,J1,SH,SHIELD_SH*%
X127820000Y-81370000D03*
D20*
X127820000Y-77190000D03*
D19*
X119180000Y-81370000D03*
D20*
X119180000Y-77190000D03*
%TD*%
D21*
%TO.P,R5,1*%
%TO.N,XOUT*%
X123750000Y-118500000D03*
%TO.P,R5,2*%
%TO.N,Net-(C16-Pad2)*%
X123750000Y-119520000D03*
%TD*%
%TO.P,R2,1*%
%TO.N,GND*%
X117600000Y-81640000D03*
%TO.P,R2,2*%
%TO.N,Net-(J1-CC2)*%
X117600000Y-82660000D03*
%TD*%
%TO.P,R3,1*%
%TO.N,USB_D-*%
X125400000Y-106230000D03*
%TO.P,R3,2*%
%TO.N,Net-(U1-USB_DM)*%
X125400000Y-107250000D03*
%TD*%
D22*
%TO.P,U3,1,~{CS}_1*%
%TO.N,QSPI_SCLK*%
X120350000Y-91640000D03*
%TO.P,U3,2,DO/IO_{1}_2*%
%TO.N,QSPI_SD1*%
X120350000Y-92910000D03*
%TO.P,U3,3,~{WP}/IO_{2}_3*%
%TO.N,QSPI_SD2*%
X120350000Y-94180000D03*
%TO.P,U3,4,GND_4*%
%TO.N,GND*%
X120350000Y-95450000D03*
%TO.P,U3,5,DI/IO_{0}_5*%
%TO.N,QSPI_SD0*%
X127525000Y-95450000D03*
%TO.P,U3,6,CLK_6*%
%TO.N,QSPI_SS*%
X127525000Y-94180000D03*
%TO.P,U3,7,~{HOLD}/~{RESET}/IO_{3}_7*%
%TO.N,QSPI_SD3*%
X127525000Y-92910000D03*
%TO.P,U3,8,VCC_8*%
%TO.N,+3V3*%
X127525000Y-91640000D03*
%TD*%
D10*
%TO.P,C3,1*%
%TO.N,+3V3*%
X127500000Y-105230000D03*
%TO.P,C3,2*%
%TO.N,GND*%
X127500000Y-104270000D03*
%TD*%
D14*
%TO.P,C12,1*%
%TO.N,+1V1*%
X129550000Y-123440000D03*
%TO.P,C12,2*%
%TO.N,GND*%
X129550000Y-124400000D03*
%TD*%
D21*
%TO.P,R4,1*%
%TO.N,USB_D+*%
X124400000Y-106230000D03*
%TO.P,R4,2*%
%TO.N,Net-(U1-USB_DP)*%
X124400000Y-107250000D03*
%TD*%
D10*
%TO.P,C4,1*%
%TO.N,+3V3*%
X123100000Y-86230000D03*
%TO.P,C4,2*%
%TO.N,GND*%
X123100000Y-85270000D03*
%TD*%
D23*
%TO.P,C1,1*%
%TO.N,+3V3*%
X127950000Y-106250000D03*
%TO.P,C1,2*%
%TO.N,GND*%
X126990000Y-106250000D03*
%TD*%
D15*
%TO.P,C6,1*%
%TO.N,+3V3*%
X117510000Y-123350000D03*
%TO.P,C6,2*%
%TO.N,GND*%
X118470000Y-123350000D03*
%TD*%
%TO.P,C15,1*%
%TO.N,GND*%
X120320000Y-117750000D03*
%TO.P,C15,2*%
%TO.N,XIN*%
X121280000Y-117750000D03*
%TD*%
D24*
%TO.P,J4,1,Pin_1_1*%
%TO.N,SWD*%
X121510000Y-127500000D03*
D25*
%TO.P,J4,2,Pin_2_2*%
%TO.N,GND*%
X124050000Y-127500000D03*
%TO.P,J4,3,Pin_3_3*%
%TO.N,SWCLK*%
X126590000Y-127500000D03*
%TD*%
D23*
%TO.P,C5,1*%
%TO.N,+3V3*%
X126460000Y-85600000D03*
%TO.P,C5,2*%
%TO.N,GND*%
X125500000Y-85600000D03*
%TD*%
D14*
%TO.P,C11,1*%
%TO.N,+1V1*%
X128550000Y-123450000D03*
%TO.P,C11,2*%
%TO.N,GND*%
X128550000Y-124410000D03*
%TD*%
D26*
%TO.P,SW1,1,1_1*%
%TO.N,GND*%
X119620000Y-123800000D03*
%TO.P,SW1,2,2_2*%
%TO.N,Net-(R7-Pad1)*%
X123820000Y-123800000D03*
%TD*%
D24*
%TO.P,J3,1,Pin_1_1*%
%TO.N,VBUS*%
X132850000Y-77670000D03*
D25*
%TO.P,J3,2,Pin_2_2*%
%TO.N,GPIO_29{slash}ADC_3*%
X132850000Y-80210000D03*
%TO.P,J3,3,Pin_3_3*%
%TO.N,GND*%
X132850000Y-82750000D03*
%TO.P,J3,4,Pin_4_4*%
%TO.N,GPIO_28{slash}ADC_2*%
X132850000Y-85290000D03*
%TO.P,J3,5,Pin_5_5*%
%TO.N,+3V3*%
X132850000Y-87830000D03*
%TO.P,J3,6,Pin_6_6*%
%TO.N,GPIO_27{slash}ADC_1*%
X132850000Y-90370000D03*
%TO.P,J3,7,Pin_7_7*%
%TO.N,GPIO_26{slash}ADC_0*%
X132850000Y-92910000D03*
%TO.P,J3,8,Pin_8_8*%
%TO.N,GND*%
X132850000Y-95450000D03*
%TO.P,J3,9,Pin_9_9*%
%TO.N,GPIO_24*%
X132850000Y-97990000D03*
%TO.P,J3,10,Pin_10_10*%
%TO.N,GPIO_23*%
X132850000Y-100530000D03*
%TO.P,J3,11,Pin_11_11*%
%TO.N,RUN*%
X132850000Y-103070000D03*
%TO.P,J3,12,Pin_12_12*%
%TO.N,GPIO_22*%
X132850000Y-105610000D03*
%TO.P,J3,13,Pin_13_13*%
%TO.N,GND*%
X132850000Y-108150000D03*
%TO.P,J3,14,Pin_14_14*%
%TO.N,GPIO_18*%
X132850000Y-110690000D03*
%TO.P,J3,15,Pin_15_15*%
%TO.N,GPIO_19*%
X132850000Y-113230000D03*
%TO.P,J3,16,Pin_16_16*%
%TO.N,GPIO_20*%
X132850000Y-115770000D03*
%TO.P,J3,17,Pin_17_17*%
%TO.N,GPIO_21*%
X132850000Y-118310000D03*
%TO.P,J3,18,Pin_18_18*%
%TO.N,GND*%
X132850000Y-120850000D03*
%TO.P,J3,19,Pin_19_19*%
%TO.N,GPIO_17*%
X132850000Y-123390000D03*
%TO.P,J3,20,Pin_20_20*%
%TO.N,GPIO_16*%
X132850000Y-125930000D03*
%TD*%
D16*
%TO.P,R1,1*%
%TO.N,GND*%
X126520000Y-84550000D03*
%TO.P,R1,2*%
%TO.N,Net-(J1-CC1)*%
X125500000Y-84550000D03*
%TD*%
D23*
%TO.P,C17,1*%
%TO.N,+3V3*%
X118630000Y-92650000D03*
%TO.P,C17,2*%
%TO.N,GND*%
X117670000Y-92650000D03*
%TD*%
D15*
%TO.P,C13,1*%
%TO.N,GND*%
X117490000Y-89000000D03*
%TO.P,C13,2*%
%TO.N,VBUS*%
X118450000Y-89000000D03*
%TD*%
D27*
%TO.P,Y1,1,1_1*%
%TO.N,Net-(C16-Pad2)*%
X119950000Y-120900000D03*
%TO.P,Y1,2,G_2*%
%TO.N,GND*%
X122150000Y-120900000D03*
%TO.P,Y1,3,3_3*%
%TO.N,XIN*%
X122150000Y-119200000D03*
%TO.P,Y1,4,G_4*%
%TO.N,GND*%
X119950000Y-119200000D03*
%TD*%
D24*
%TO.P,J2,1,Pin_1_1*%
%TO.N,GPIO_0*%
X113950000Y-77580000D03*
D25*
%TO.P,J2,2,Pin_2_2*%
%TO.N,GPIO_1*%
X113950000Y-80120000D03*
%TO.P,J2,3,Pin_3_3*%
%TO.N,GPIO_13*%
X113950000Y-82660000D03*
%TO.P,J2,4,Pin_4_4*%
%TO.N,GPIO_2*%
X113950000Y-85200000D03*
%TO.P,J2,5,Pin_5_5*%
%TO.N,GPIO_3*%
X113950000Y-87740000D03*
%TO.P,J2,6,Pin_6_6*%
%TO.N,GPIO_4*%
X113950000Y-90280000D03*
%TO.P,J2,7,Pin_7_7*%
%TO.N,GPIO_5*%
X113950000Y-92820000D03*
%TO.P,J2,8,Pin_8_8*%
%TO.N,GPIO_13*%
X113950000Y-95360000D03*
%TO.P,J2,9,Pin_9_9*%
%TO.N,GPIO_6*%
X113950000Y-97900000D03*
%TO.P,J2,10,Pin_10_10*%
%TO.N,GPIO_7*%
X113950000Y-100440000D03*
%TO.P,J2,11,Pin_11_11*%
%TO.N,GPIO_8*%
X113950000Y-102980000D03*
%TO.P,J2,12,Pin_12_12*%
%TO.N,GPIO_13*%
X113950000Y-105520000D03*
%TO.P,J2,13,Pin_13_13*%
X113950000Y-108060000D03*
%TO.P,J2,14,Pin_14_14*%
%TO.N,GPIO_10*%
X113950000Y-110600000D03*
%TO.P,J2,15,Pin_15_15*%
%TO.N,GPIO_11*%
X113950000Y-113140000D03*
%TO.P,J2,16,Pin_16_16*%
%TO.N,GPIO_12*%
X113950000Y-115680000D03*
%TO.P,J2,17,Pin_17_17*%
%TO.N,GPIO_13*%
X113950000Y-118220000D03*
%TO.P,J2,18,Pin_18_18*%
X113950000Y-120760000D03*
%TO.P,J2,19,Pin_19_19*%
X113950000Y-123300000D03*
%TO.P,J2,20,Pin_20_20*%
X113950000Y-125840000D03*
%TD*%
D23*
%TO.P,C2,1*%
%TO.N,+3V3*%
X128000000Y-107250000D03*
%TO.P,C2,2*%
%TO.N,GND*%
X127040000Y-107250000D03*
%TD*%
D15*
%TO.P,C14,1*%
%TO.N,GND*%
X121140000Y-89000000D03*
%TO.P,C14,2*%
%TO.N,+3V3*%
X122100000Y-89000000D03*
%TD*%
%TO.P,C7,1*%
%TO.N,+3V3*%
X117510000Y-124350000D03*
%TO.P,C7,2*%
%TO.N,GND*%
X118470000Y-124350000D03*
%TD*%
D28*
%TO.P,U1,1,IOVDD_1*%
%TO.N,+3V3*%
X120475000Y-109300000D03*
%TO.P,U1,2,GPIO0_2*%
%TO.N,GPIO_0*%
X120475000Y-109700000D03*
%TO.P,U1,3,GPIO1_3*%
%TO.N,GPIO_1*%
X120475000Y-110100000D03*
%TO.P,U1,4,GPIO2_4*%
%TO.N,GPIO_2*%
X120475000Y-110500000D03*
%TO.P,U1,5,GPIO3_5*%
%TO.N,GPIO_3*%
X120475000Y-110900000D03*
%TO.P,U1,6,GPIO4_6*%
%TO.N,GPIO_4*%
X120475000Y-111300000D03*
%TO.P,U1,7,GPIO5_7*%
%TO.N,GPIO_5*%
X120475000Y-111700000D03*
%TO.P,U1,8,GPIO6_8*%
%TO.N,GPIO_6*%
X120475000Y-112100000D03*
%TO.P,U1,9,GPIO7_9*%
%TO.N,GPIO_7*%
X120475000Y-112500000D03*
%TO.P,U1,10,IOVDD_10*%
%TO.N,+3V3*%
X120475000Y-112900000D03*
%TO.P,U1,11,GPIO8_11*%
%TO.N,GPIO_8*%
X120475000Y-113300000D03*
%TO.P,U1,12,GPIO9_12*%
%TO.N,GPIO_13*%
X120475000Y-113700000D03*
%TO.P,U1,13,GPIO10_13*%
%TO.N,GPIO_10*%
X120475000Y-114100000D03*
%TO.P,U1,14,GPIO11_14*%
%TO.N,GPIO_11*%
X120475000Y-114500000D03*
D29*
%TO.P,U1,15,GPIO12_15*%
%TO.N,GPIO_12*%
X121312500Y-115337500D03*
%TO.P,U1,16,GPIO13_16*%
%TO.N,GPIO_13*%
X121712500Y-115337500D03*
%TO.P,U1,17,GPIO14_17*%
X122112500Y-115337500D03*
%TO.P,U1,18,GPIO15_18*%
X122512500Y-115337500D03*
%TO.P,U1,19,TESTEN_19*%
%TO.N,GND*%
X122912500Y-115337500D03*
%TO.P,U1,20,XIN_20*%
%TO.N,XIN*%
X123312500Y-115337500D03*
%TO.P,U1,21,XOUT_21*%
%TO.N,XOUT*%
X123712500Y-115337500D03*
%TO.P,U1,22,IOVDD_22*%
%TO.N,+3V3*%
X124112500Y-115337500D03*
%TO.P,U1,23,DVDD_23*%
%TO.N,+1V1*%
X124512500Y-115337500D03*
%TO.P,U1,24,SWCLK_24*%
%TO.N,SWCLK*%
X124912500Y-115337500D03*
%TO.P,U1,25,SWDIO_25*%
%TO.N,SWD*%
X125312500Y-115337500D03*
%TO.P,U1,26,RUN_26*%
%TO.N,RUN*%
X125712500Y-115337500D03*
%TO.P,U1,27,GPIO16_27*%
%TO.N,GPIO_16*%
X126112500Y-115337500D03*
%TO.P,U1,28,GPIO17_28*%
%TO.N,GPIO_17*%
X126512500Y-115337500D03*
D28*
%TO.P,U1,29,GPIO18_29*%
%TO.N,GPIO_18*%
X127350000Y-114500000D03*
%TO.P,U1,30,GPIO19_30*%
%TO.N,GPIO_19*%
X127350000Y-114100000D03*
%TO.P,U1,31,GPIO20_31*%
%TO.N,GPIO_20*%
X127350000Y-113700000D03*
%TO.P,U1,32,GPIO21_32*%
%TO.N,GPIO_21*%
X127350000Y-113300000D03*
%TO.P,U1,33,IOVDD_33*%
%TO.N,+3V3*%
X127350000Y-112900000D03*
%TO.P,U1,34,GPIO22_34*%
%TO.N,GPIO_22*%
X127350000Y-112500000D03*
%TO.P,U1,35,GPIO23_35*%
%TO.N,GPIO_23*%
X127350000Y-112100000D03*
%TO.P,U1,36,GPIO24_36*%
%TO.N,GPIO_24*%
X127350000Y-111700000D03*
%TO.P,U1,37,GPIO25_37*%
%TO.N,unconnected-(U1-GPIO25-Pad37)*%
X127350000Y-111300000D03*
%TO.P,U1,38,GPIO26/ADC0_38*%
%TO.N,GPIO_26{slash}ADC_0*%
X127350000Y-110900000D03*
%TO.P,U1,39,GPIO27/ADC1_39*%
%TO.N,GPIO_27{slash}ADC_1*%
X127350000Y-110500000D03*
%TO.P,U1,40,GPIO28/ADC2_40*%
%TO.N,GPIO_28{slash}ADC_2*%
X127350000Y-110100000D03*
%TO.P,U1,41,GPIO29/ADC3_41*%
%TO.N,GPIO_29{slash}ADC_3*%
X127350000Y-109700000D03*
%TO.P,U1,42,IOVDD_42*%
%TO.N,+3V3*%
X127350000Y-109300000D03*
D29*
%TO.P,U1,43,ADC_AVDD_43*%
X126512500Y-108462500D03*
%TO.P,U1,44,VREG_VIN_44*%
X126112500Y-108462500D03*
%TO.P,U1,45,VREG_VOUT_45*%
%TO.N,+1V1*%
X125712500Y-108462500D03*
%TO.P,U1,46,USB_DM_46*%
%TO.N,Net-(U1-USB_DM)*%
X125312500Y-108462500D03*
%TO.P,U1,47,USB_DP_47*%
%TO.N,Net-(U1-USB_DP)*%
X124912500Y-108462500D03*
%TO.P,U1,48,USB_VDD_48*%
%TO.N,+3V3*%
X124512500Y-108462500D03*
%TO.P,U1,49,IOVDD_49*%
X124112500Y-108462500D03*
%TO.P,U1,50,DVDD_50*%
%TO.N,+1V1*%
X123712500Y-108462500D03*
%TO.P,U1,51,QSPI_SD3_51*%
%TO.N,QSPI_SD3*%
X123312500Y-108462500D03*
%TO.P,U1,52,QSPI_SCLK_52*%
%TO.N,QSPI_SCLK*%
X122912500Y-108462500D03*
%TO.P,U1,53,QSPI_SD0_53*%
%TO.N,QSPI_SD0*%
X122512500Y-108462500D03*
%TO.P,U1,54,QSPI_SD2_54*%
%TO.N,QSPI_SD2*%
X122112500Y-108462500D03*
%TO.P,U1,55,QSPI_SD1_55*%
%TO.N,QSPI_SD1*%
X121712500Y-108462500D03*
%TO.P,U1,56,~{QSPI_SS}_56*%
%TO.N,QSPI_SS*%
X121312500Y-108462500D03*
D30*
%TO.P,U1,57,GND_57*%
%TO.N,GND*%
X123912500Y-111900000D03*
%TD*%
D31*
%TO.N,GND*%
X126550000Y-105300000D03*
X127300000Y-107800000D03*
%TO.N,+3V3*%
X120850000Y-97950000D03*
X123300000Y-96000000D03*
%TO.N,GND*%
X118050000Y-90950000D03*
X119550000Y-89800000D03*
X121950000Y-85150000D03*
X117800000Y-79750000D03*
X119250000Y-84400000D03*
X128150000Y-84100000D03*
X124450000Y-122050000D03*
%TO.N,GPIO_13*%
X113050000Y-101973768D03*
X113050000Y-99433769D03*
%TO.N,GPIO_7*%
X121394294Y-111892275D03*
X121394294Y-111892275D03*
%TO.N,GND*%
X122581644Y-116619826D03*
X118700000Y-122200000D03*
X122300000Y-109850000D03*
%TO.N,+3V3*%
X122700000Y-114000002D03*
X121250000Y-116400000D03*
%TO.N,Net-(J1-CC2)*%
X117650000Y-83400000D03*
X121750000Y-83750000D03*
%TO.N,+3V3*%
X126095872Y-110152657D03*
X127600000Y-90050000D03*
X124964668Y-109400000D03*
%TO.N,Net-(C16-Pad2)*%
X120950000Y-120706922D03*
X124450000Y-120450000D03*
%TO.N,Net-(R7-Pad1)*%
X123000000Y-123800000D03*
X118800000Y-106450000D03*
%TO.N,QSPI_SCLK*%
X121500000Y-91600000D03*
X123261765Y-100561765D03*
X123625735Y-105025735D03*
X120512500Y-106800000D03*
%TO.N,+1V1*%
X123700000Y-109799998D03*
X127550000Y-122800000D03*
X123700000Y-114000000D03*
X125990000Y-123450000D03*
%TO.N,USB_D+*%
X123750000Y-83650000D03*
X124750000Y-99300000D03*
%TO.N,USB_D-*%
X125350000Y-98732254D03*
X124450000Y-84750000D03*
%TO.N,QSPI_SS*%
X121112500Y-101400000D03*
X122712500Y-99413972D03*
%TO.N,QSPI_SD3*%
X127525000Y-92910000D03*
X123699197Y-101231584D03*
%TO.N,GPIO_13*%
X118050000Y-113500000D03*
%TO.N,SWD*%
X124800000Y-114076928D03*
%TO.N,RUN*%
X125512500Y-117695049D03*
%TO.N,GPIO_18*%
X127350000Y-115000000D03*
%TO.N,GPIO_19*%
X126000000Y-114100000D03*
%TO.N,GPIO_20*%
X126416353Y-113416883D03*
%TD*%
%TO.N,QSPI_SD3*%
D32*
X123312500Y-108462500D02*
X123312500Y-107928640D01*
X123312500Y-107928640D02*
X123312500Y-107265898D01*
X123312500Y-107265898D02*
X123112500Y-107065898D01*
X123112500Y-107065898D02*
X123112500Y-106115686D01*
X123112500Y-106115686D02*
X123602451Y-105625735D01*
X123602451Y-105625735D02*
X123874264Y-105625735D01*
X123874264Y-105625735D02*
X124225735Y-105274264D01*
X124225735Y-105274264D02*
X124225735Y-104874265D01*
X124225735Y-104874265D02*
X124300000Y-104800000D01*
X124300000Y-104800000D02*
X124300000Y-101832387D01*
X124300000Y-101832387D02*
X123699197Y-101231584D01*
%TO.N,QSPI_SCLK*%
X122912500Y-105750000D02*
X122712500Y-105950000D01*
X122712500Y-105950000D02*
X122712500Y-107231582D01*
X122712500Y-107231582D02*
X122912500Y-107431583D01*
X122912500Y-107431583D02*
X122912500Y-108462500D01*
%TO.N,QSPI_SD0*%
X122512500Y-108462500D02*
X122512500Y-107597268D01*
X122512500Y-107597268D02*
X122312500Y-107397268D01*
X122312500Y-107397268D02*
X122312500Y-102179899D01*
X122312500Y-102179899D02*
X122512500Y-101979899D01*
X122512500Y-101979899D02*
X122512500Y-100820100D01*
X122512500Y-100820100D02*
X122333700Y-100641300D01*
X122333700Y-100641300D02*
X127525000Y-95450000D01*
%TO.N,QSPI_SD2*%
X121912500Y-107562954D02*
X121912500Y-102014215D01*
X122112500Y-107762954D02*
X121912500Y-107562954D01*
X121912500Y-102014215D02*
X122112500Y-101814214D01*
X122112500Y-101814214D02*
X122112500Y-100985785D01*
X122112500Y-108462500D02*
X122112500Y-107762954D01*
X122112500Y-100985785D02*
X121768015Y-100641299D01*
X121768015Y-100641299D02*
X122429657Y-99979657D01*
X122429657Y-99979657D02*
X122112500Y-99662501D01*
X122112500Y-99662501D02*
X122112500Y-99165443D01*
X122112500Y-99165443D02*
X122312500Y-98965442D01*
X122312500Y-98965442D02*
X122312500Y-98625738D01*
X122312500Y-98625738D02*
X122700000Y-98238237D01*
X122700000Y-98238237D02*
X122700000Y-93788924D01*
X122700000Y-93788924D02*
X121462500Y-92551424D01*
X121462500Y-92551424D02*
X121196076Y-92285000D01*
X121196076Y-92285000D02*
X119503924Y-92285000D01*
X119503924Y-92285000D02*
X119237500Y-92551424D01*
X119237500Y-92551424D02*
X119237500Y-93268576D01*
X119237500Y-93268576D02*
X119503924Y-93535000D01*
X119503924Y-93535000D02*
X120148924Y-94180000D01*
X120148924Y-94180000D02*
X120350000Y-94180000D01*
%TO.N,QSPI_SD1*%
X121712500Y-108462500D02*
X121712500Y-107928640D01*
X121712500Y-107928640D02*
X121512500Y-107728640D01*
X121512500Y-107728640D02*
X121512500Y-101848529D01*
X121512500Y-101848529D02*
X121712500Y-101648529D01*
X121712500Y-101648529D02*
X121712500Y-101151471D01*
X121712500Y-101151471D02*
X121361029Y-100800000D01*
X121361029Y-100800000D02*
X121250000Y-100800000D01*
X121250000Y-100800000D02*
X121250000Y-100593628D01*
X121250000Y-100593628D02*
X121863971Y-99979657D01*
X121863971Y-99979657D02*
X121712500Y-99828186D01*
X121712500Y-99828186D02*
X121712500Y-98999757D01*
X121712500Y-98999757D02*
X121912500Y-98799757D01*
X121912500Y-98799757D02*
X121912500Y-98460052D01*
X121912500Y-98460052D02*
X122300000Y-98072552D01*
X122300000Y-98072552D02*
X122300000Y-94047501D01*
X122300000Y-94047501D02*
X121162499Y-92910000D01*
X121162499Y-92910000D02*
X120350000Y-92910000D01*
%TO.N,Net-(C16-Pad2)*%
X124450000Y-120450000D02*
X123750000Y-120450000D01*
%TO.N,+3V3*%
X126512500Y-108462500D02*
X126800000Y-108750000D01*
X128000000Y-107948529D02*
X127198529Y-108750000D01*
X128000000Y-107250000D02*
X128000000Y-107948529D01*
X127198529Y-108750000D02*
X126800000Y-108750000D01*
%TO.N,GND*%
X127300000Y-107800000D02*
X127300000Y-107510000D01*
X127300000Y-107510000D02*
X127040000Y-107250000D01*
X126990000Y-105740000D02*
X126550000Y-105300000D01*
X126990000Y-106250000D02*
X126990000Y-105740000D01*
%TO.N,+3V3*%
X128000000Y-107250000D02*
X128000000Y-106300000D01*
X128000000Y-106300000D02*
X127950000Y-106250000D01*
X127500000Y-105230000D02*
X127500000Y-105800000D01*
X127500000Y-105800000D02*
X127950000Y-106250000D01*
%TO.N,GND*%
X123912500Y-111900000D02*
X123008138Y-110995638D01*
X117670000Y-92650000D02*
X118090000Y-93070000D01*
X118090000Y-95000000D02*
X118700000Y-95610000D01*
X118090000Y-93070000D02*
X118090000Y-95000000D01*
%TO.N,GPIO_0*%
X113950000Y-77580000D02*
X116950000Y-80580000D01*
X116950000Y-80580000D02*
X116950000Y-85600000D01*
X116950000Y-85600000D02*
X116910000Y-85640000D01*
X116910000Y-85640000D02*
X116910000Y-93060000D01*
X116910000Y-93060000D02*
X117400000Y-93550000D01*
X117400000Y-93550000D02*
X117400000Y-97955889D01*
X117400000Y-97955889D02*
X117950000Y-98505890D01*
X117950000Y-98505890D02*
X117950000Y-107708860D01*
X117950000Y-107708860D02*
X119941140Y-109700000D01*
X119941140Y-109700000D02*
X120475000Y-109700000D01*
%TO.N,GPIO_1*%
X120475000Y-110100000D02*
X119775454Y-110100000D01*
X119775454Y-110100000D02*
X117550000Y-107874546D01*
X117550000Y-107874546D02*
X117550000Y-98671575D01*
X117550000Y-98671575D02*
X117000000Y-98121574D01*
X117000000Y-98121574D02*
X116999999Y-93715683D01*
X116999999Y-93715683D02*
X116510000Y-93225685D01*
X116510000Y-93225685D02*
X116510000Y-82680000D01*
X116510000Y-82680000D02*
X113950000Y-80120000D01*
%TO.N,GPIO_2*%
X120475000Y-110500000D02*
X119609768Y-110500000D01*
X119609768Y-110500000D02*
X117150000Y-108040232D01*
X117150000Y-108040232D02*
X117150000Y-98837260D01*
X117150000Y-98837260D02*
X116600000Y-98287259D01*
X116600000Y-98287259D02*
X116600000Y-93881369D01*
X116600000Y-93881369D02*
X116110000Y-93391370D01*
X116110000Y-93391370D02*
X116110000Y-87360000D01*
X116110000Y-87360000D02*
X113950000Y-85200000D01*
%TO.N,GPIO_3*%
X113950000Y-87740000D02*
X115710000Y-89500000D01*
X115710000Y-89500000D02*
X115710000Y-93557055D01*
X115710000Y-93557055D02*
X116200000Y-94047054D01*
X116200000Y-94047054D02*
X116200000Y-98452944D01*
X116200000Y-98452944D02*
X116750000Y-99002945D01*
X116750000Y-99002945D02*
X116750000Y-108205918D01*
X116750000Y-108205918D02*
X119444082Y-110900000D01*
X119444082Y-110900000D02*
X119941140Y-110900000D01*
X119941140Y-110900000D02*
X120475000Y-110900000D01*
%TO.N,GPIO_4*%
X120475000Y-111300000D02*
X119278396Y-111300000D01*
X119278396Y-111300000D02*
X116350000Y-108371604D01*
X116350000Y-108371604D02*
X116350000Y-99168630D01*
X116350000Y-99168630D02*
X115800000Y-98618629D01*
X115800000Y-98618629D02*
X115800000Y-94212739D01*
X115800000Y-94212739D02*
X115310000Y-93722740D01*
X115310000Y-93722740D02*
X115310000Y-91640000D01*
X115310000Y-91640000D02*
X113950000Y-90280000D01*
%TO.N,GPIO_5*%
X113950000Y-92820000D02*
X113950000Y-92928425D01*
X113950000Y-92928425D02*
X115400000Y-94378425D01*
X115400000Y-94378425D02*
X115400000Y-98784314D01*
X115400000Y-98784314D02*
X115950000Y-99334315D01*
X115950000Y-99334315D02*
X115950000Y-108537290D01*
X115950000Y-108537290D02*
X119112710Y-111700000D01*
X119112710Y-111700000D02*
X119941140Y-111700000D01*
X119941140Y-111700000D02*
X120475000Y-111700000D01*
%TO.N,GPIO_28{slash}ADC_2*%
X132850000Y-85290000D02*
X130700000Y-87440000D01*
X130700000Y-87440000D02*
X130700000Y-91954314D01*
X130700000Y-91954314D02*
X130200000Y-92454314D01*
X130200000Y-92454314D02*
X130200000Y-98942942D01*
X130200000Y-98942942D02*
X129171076Y-99971866D01*
X129171076Y-99971866D02*
X129171076Y-104358931D01*
X129171076Y-104358931D02*
X129171079Y-104358934D01*
X129171079Y-104358934D02*
X129171076Y-104690295D01*
X129171076Y-104690295D02*
X129171072Y-104690299D01*
X129171072Y-104690299D02*
X129171072Y-104690305D01*
X129171072Y-104690305D02*
X129150000Y-104711376D01*
X129150000Y-104711376D02*
X129150000Y-109498180D01*
X129150000Y-109498180D02*
X129186134Y-109534315D01*
X129186134Y-109534315D02*
X129186134Y-109865685D01*
X129186134Y-109865685D02*
X128951819Y-110100000D01*
X128951819Y-110100000D02*
X127350000Y-110100000D01*
%TO.N,GPIO_29{slash}ADC_3*%
X132850000Y-80210000D02*
X129750000Y-83310000D01*
X129750000Y-83310000D02*
X129750000Y-87824314D01*
X129750000Y-87824314D02*
X130300000Y-88374314D01*
X130300000Y-88374314D02*
X130300000Y-91788628D01*
X130300000Y-91788628D02*
X129800000Y-92288629D01*
X129800000Y-92288629D02*
X129800000Y-98777256D01*
X129800000Y-98777256D02*
X128771076Y-99806180D01*
X128771076Y-99806180D02*
X128771076Y-104524610D01*
X128771076Y-104524610D02*
X128750000Y-104545685D01*
X128750000Y-104545685D02*
X128750000Y-109663866D01*
X128750000Y-109663866D02*
X128786134Y-109700000D01*
X128786134Y-109700000D02*
X127350000Y-109700000D01*
%TO.N,+3V3*%
X127500000Y-105230000D02*
X128371076Y-104358924D01*
X128337499Y-91640000D02*
X127525000Y-91640000D01*
X128371076Y-104358924D02*
X128371076Y-96075000D01*
X128371076Y-96075000D02*
X128637500Y-95808576D01*
X128637500Y-95808576D02*
X128637500Y-91940001D01*
X128637500Y-91940001D02*
X128337499Y-91640000D01*
%TO.N,GPIO_26{slash}ADC_0*%
X127350000Y-110900000D02*
X129283190Y-110900000D01*
X129283190Y-110900000D02*
X130200000Y-109983189D01*
X130200000Y-109983189D02*
X130200000Y-100074314D01*
X130200000Y-100074314D02*
X131050000Y-99224314D01*
X131050000Y-99224314D02*
X131050000Y-94710000D01*
X131050000Y-94710000D02*
X132850000Y-92910000D01*
%TO.N,+3V3*%
X127380000Y-105350000D02*
X127500000Y-105230000D01*
X126712501Y-91640000D02*
X123300000Y-95052501D01*
X127525000Y-91640000D02*
X126712501Y-91640000D01*
X123300000Y-95052501D02*
X123300000Y-96000000D01*
X120850000Y-97950000D02*
X120850000Y-97233866D01*
X120850000Y-97233866D02*
X120826134Y-97210000D01*
X118700000Y-94650000D02*
X118875000Y-94825000D01*
X118875000Y-94825000D02*
X121196076Y-94825000D01*
X121196076Y-94825000D02*
X121462500Y-95091424D01*
X121462500Y-95091424D02*
X121462500Y-96573634D01*
X121462500Y-96573634D02*
X120826134Y-97210000D01*
X120826134Y-97210000D02*
X120150000Y-97210000D01*
X120150000Y-97210000D02*
X119540000Y-96600000D01*
%TO.N,GND*%
X117670000Y-92650000D02*
X117670000Y-91330000D01*
X117670000Y-91330000D02*
X118050000Y-90950000D01*
X121140000Y-89000000D02*
X120350000Y-89000000D01*
X120350000Y-89000000D02*
X119550000Y-89800000D01*
%TO.N,+3V3*%
X122100000Y-89000000D02*
X120085000Y-91015000D01*
X120085000Y-91015000D02*
X119503924Y-91015000D01*
X119503924Y-91015000D02*
X118630000Y-91888924D01*
X118630000Y-91888924D02*
X118630000Y-92650000D01*
X118700000Y-94650000D02*
X118700000Y-92720000D01*
X118700000Y-92720000D02*
X118630000Y-92650000D01*
%TO.N,GND*%
X125500000Y-85600000D02*
X125500000Y-85570000D01*
X125500000Y-85570000D02*
X126520000Y-84550000D01*
X123100000Y-85270000D02*
X122070000Y-85270000D01*
X122070000Y-85270000D02*
X121950000Y-85150000D01*
X117600000Y-81640000D02*
X117600000Y-79950000D01*
X117600000Y-79950000D02*
X117800000Y-79750000D01*
X120250000Y-82285000D02*
X120250000Y-83400000D01*
X120250000Y-83400000D02*
X119250000Y-84400000D01*
X126750000Y-82285000D02*
X126750000Y-82700000D01*
X126750000Y-82700000D02*
X128150000Y-84100000D01*
X118700000Y-95610000D02*
X119510000Y-95610000D01*
X119510000Y-95610000D02*
X120500000Y-96600000D01*
X123750000Y-121410000D02*
X123810000Y-121410000D01*
X123810000Y-121410000D02*
X124450000Y-122050000D01*
%TO.N,GPIO_13*%
X114426346Y-101590000D02*
X113433768Y-101590000D01*
X113193769Y-99290000D02*
X114426346Y-99290000D01*
X115100000Y-100916346D02*
X114426346Y-101590000D01*
X114426346Y-99290000D02*
X115100000Y-99963654D01*
X113050000Y-99433769D02*
X113193769Y-99290000D01*
X113433768Y-101590000D02*
X113050000Y-101973768D01*
X115100000Y-99963654D02*
X115100000Y-100916346D01*
%TO.N,Net-(R7-Pad1)*%
X118800000Y-106450000D02*
X119210000Y-106450000D01*
X119480000Y-106720000D02*
X119480000Y-107650000D01*
X119210000Y-106450000D02*
X119480000Y-106720000D01*
%TO.N,GPIO_7*%
X121394294Y-112114566D02*
X121394294Y-111892275D01*
X121008860Y-112500000D02*
X121394294Y-112114566D01*
X120475000Y-112500000D02*
X121008860Y-112500000D01*
%TO.N,+3V3*%
X120475000Y-109300000D02*
X121008860Y-109300000D01*
X121008860Y-109300000D02*
X121700000Y-109991140D01*
X121700000Y-109991140D02*
X121700000Y-110098529D01*
X121700000Y-110098529D02*
X122012500Y-110411029D01*
X122012500Y-110411029D02*
X122012500Y-112387500D01*
X122012500Y-112387500D02*
X121500000Y-112900000D01*
X121500000Y-112900000D02*
X121008860Y-112900000D01*
%TO.N,GND*%
X122341930Y-116441930D02*
X122519826Y-116619826D01*
X122341930Y-116441930D02*
X121643860Y-117140000D01*
X122519826Y-116619826D02*
X122581644Y-116619826D01*
X118470000Y-121970000D02*
X118700000Y-122200000D01*
X118470000Y-121850000D02*
X118470000Y-121970000D01*
X118470000Y-119623866D02*
X118470000Y-121850000D01*
X123912500Y-111462500D02*
X122300000Y-109850000D01*
X123912500Y-111900000D02*
X123912500Y-111462500D01*
%TO.N,+3V3*%
X123050000Y-114350002D02*
X123050000Y-114600000D01*
X123908860Y-114600000D02*
X123050000Y-114600000D01*
X117510000Y-123350000D02*
X117510000Y-119623866D01*
X117510000Y-119623866D02*
X120733866Y-116400000D01*
X120733866Y-116400000D02*
X121250000Y-116400000D01*
X122700000Y-114000002D02*
X123050000Y-114350002D01*
%TO.N,GND*%
X122912500Y-115337500D02*
X122912500Y-115871360D01*
X122912500Y-115871360D02*
X122341930Y-116441930D01*
X120953866Y-117140000D02*
X118470000Y-119623866D01*
X121643860Y-117140000D02*
X120953866Y-117140000D01*
X118470000Y-121850000D02*
X118470000Y-123350000D01*
%TO.N,+3V3*%
X124112500Y-115337500D02*
X124112500Y-114803640D01*
X124112500Y-114803640D02*
X123908860Y-114600000D01*
X123050000Y-114600000D02*
X122500000Y-114600000D01*
X122500000Y-114600000D02*
X121212500Y-113312500D01*
X121212500Y-113312500D02*
X121212500Y-113103640D01*
X121212500Y-113103640D02*
X121008860Y-112900000D01*
%TO.N,GND*%
X118470000Y-123350000D02*
X118470000Y-124350000D01*
X118470000Y-124350000D02*
X119070000Y-124350000D01*
X119070000Y-124350000D02*
X119620000Y-123800000D01*
%TO.N,+3V3*%
X117510000Y-124350000D02*
X117510000Y-123350000D01*
%TO.N,GND*%
X124050000Y-127500000D02*
X125200000Y-128650000D01*
X125200000Y-128650000D02*
X127066346Y-128650000D01*
X127066346Y-128650000D02*
X127740000Y-127976346D01*
X127740000Y-127976346D02*
X127740000Y-124590000D01*
X127740000Y-124590000D02*
X127550000Y-124400000D01*
%TO.N,USB_D-*%
X124450000Y-84750000D02*
X124450000Y-84150000D01*
X124450000Y-84150000D02*
X124350000Y-84250000D01*
X123150000Y-83898529D02*
X123150000Y-83401471D01*
X123250000Y-83301471D02*
X123250000Y-82285000D01*
X124350000Y-84250000D02*
X123501471Y-84250000D01*
X123501471Y-84250000D02*
X123150000Y-83898529D01*
X123150000Y-83401471D02*
X123250000Y-83301471D01*
X124450000Y-84150000D02*
X124450000Y-83501471D01*
X124450000Y-83501471D02*
X124250000Y-83301471D01*
X124250000Y-83301471D02*
X124250000Y-82285000D01*
%TO.N,USB_D+*%
X122750000Y-82285000D02*
X122750000Y-81400000D01*
X122750000Y-81400000D02*
X123050000Y-81100000D01*
X123050000Y-81100000D02*
X123600000Y-81100000D01*
X123600000Y-81100000D02*
X123750000Y-81250000D01*
X123750000Y-81250000D02*
X123750000Y-82285000D01*
%TO.N,Net-(J1-CC2)*%
X121750000Y-82285000D02*
X121750000Y-83750000D01*
X117650000Y-83400000D02*
X117650000Y-82710000D01*
X117650000Y-82710000D02*
X117600000Y-82660000D01*
%TO.N,VBUS*%
X125700000Y-81200000D02*
X125700000Y-82035000D01*
X125700000Y-81200000D02*
X124650000Y-80150000D01*
X124650000Y-80150000D02*
X122460001Y-80150000D01*
X122460001Y-80150000D02*
X121050000Y-81560001D01*
X121050000Y-81560001D02*
X121050000Y-82285000D01*
%TO.N,Net-(J1-CC1)*%
X125500000Y-83792410D02*
X124750000Y-83042410D01*
X124750000Y-83042410D02*
X124750000Y-82285000D01*
X125500000Y-84550000D02*
X125500000Y-83792410D01*
%TO.N,+3V3*%
X126850000Y-90100000D02*
X126850000Y-87250000D01*
X126850000Y-87250000D02*
X125830000Y-86230000D01*
X123100000Y-86230000D02*
X125830000Y-86230000D01*
X125830000Y-86230000D02*
X126460000Y-85600000D01*
X121050000Y-86400000D02*
X122930000Y-86400000D01*
X122930000Y-86400000D02*
X123100000Y-86230000D01*
X121050000Y-86400000D02*
X121050000Y-87950000D01*
X121050000Y-87950000D02*
X122100000Y-89000000D01*
%TO.N,GND*%
X118510000Y-86400000D02*
X118510000Y-87980000D01*
X118510000Y-87980000D02*
X117490000Y-89000000D01*
%TO.N,VBUS*%
X118450000Y-89000000D02*
X119780000Y-87670000D01*
X119780000Y-87670000D02*
X119780000Y-86400000D01*
%TO.N,+3V3*%
X124512500Y-108462500D02*
X124512500Y-108996360D01*
X126095872Y-110152657D02*
X126095872Y-111620268D01*
X126900000Y-90050000D02*
X126850000Y-90100000D01*
X126095872Y-111620268D02*
X125816140Y-111900000D01*
X126816140Y-112900000D02*
X127350000Y-112900000D01*
X126112500Y-108462500D02*
X126512500Y-108462500D01*
X126095872Y-110152657D02*
X126112500Y-110136029D01*
X125816140Y-111900000D02*
X126816140Y-112900000D01*
X124112500Y-108462500D02*
X124512500Y-108462500D01*
X127600000Y-90050000D02*
X126900000Y-90050000D01*
X121008860Y-112900000D02*
X120475000Y-112900000D01*
X126800000Y-108750000D02*
X127350000Y-109300000D01*
X124512500Y-108996360D02*
X124916140Y-109400000D01*
X124916140Y-109400000D02*
X124964668Y-109400000D01*
X126112500Y-110136029D02*
X126112500Y-108462500D01*
%TO.N,Net-(C16-Pad2)*%
X123750000Y-119520000D02*
X123750000Y-119750000D01*
X120950000Y-120706922D02*
X120143078Y-120706922D01*
X120143078Y-120706922D02*
X119950000Y-120900000D01*
X123750000Y-119750000D02*
X124450000Y-120450000D01*
%TO.N,Net-(R7-Pad1)*%
X123000000Y-123800000D02*
X123820000Y-123800000D01*
%TO.N,QSPI_SCLK*%
X123261765Y-100561765D02*
X123391126Y-100691126D01*
X120390000Y-91600000D02*
X120350000Y-91640000D01*
X123000000Y-90100000D02*
X121500000Y-91600000D01*
X123099197Y-100983055D02*
X122912500Y-100983055D01*
X120500000Y-107650000D02*
X120500000Y-106812500D01*
X125830000Y-90100000D02*
X123000000Y-90100000D01*
X121500000Y-91600000D02*
X120390000Y-91600000D01*
X120500000Y-106812500D02*
X120512500Y-106800000D01*
X123625735Y-105025735D02*
X123625735Y-105036765D01*
X122912500Y-100983055D02*
X122912500Y-105750000D01*
X123391126Y-100691126D02*
X123099197Y-100983055D01*
X123625735Y-105036765D02*
X122912500Y-105750000D01*
%TO.N,+1V1*%
X123712500Y-108462500D02*
X123712500Y-108996360D01*
X124512500Y-114637955D02*
X124512500Y-115337500D01*
X125990000Y-119586761D02*
X125990000Y-123450000D01*
X128190000Y-123440000D02*
X127550000Y-122800000D01*
X123700000Y-114000000D02*
X123900000Y-114200000D01*
X124074546Y-114200000D02*
X124512500Y-114637955D01*
X125400000Y-110000000D02*
X125712500Y-109687500D01*
X124512500Y-118109262D02*
X125990000Y-119586761D01*
X123700000Y-109799998D02*
X123700000Y-109450000D01*
X124512500Y-115337500D02*
X124512500Y-118109262D01*
X124716140Y-110000000D02*
X125400000Y-110000000D01*
X125712500Y-109687500D02*
X125712500Y-108462500D01*
X123900000Y-114200000D02*
X124074546Y-114200000D01*
X123712500Y-109437500D02*
X123712500Y-108462500D01*
X129550000Y-123440000D02*
X128190000Y-123440000D01*
X123712500Y-108996360D02*
X124716140Y-110000000D01*
X123700000Y-109450000D02*
X123712500Y-109437500D01*
%TO.N,USB_D+*%
X123750000Y-83650000D02*
X123750000Y-82285000D01*
X124750000Y-105880000D02*
X124750000Y-99300000D01*
X124400000Y-106230000D02*
X124750000Y-105880000D01*
%TO.N,USB_D-*%
X125400000Y-98782254D02*
X125400000Y-106230000D01*
X125350000Y-98732254D02*
X125400000Y-98782254D01*
%TO.N,XOUT*%
X123712500Y-118462500D02*
X123750000Y-118500000D01*
X123712500Y-115337500D02*
X123712500Y-118462500D01*
%TO.N,Net-(U1-USB_DM)*%
X125312500Y-108462500D02*
X125312500Y-107337500D01*
X125312500Y-107337500D02*
X125400000Y-107250000D01*
%TO.N,QSPI_SS*%
X122712500Y-98791424D02*
X127323924Y-94180000D01*
X121112500Y-108262500D02*
X121112500Y-101400000D01*
X127323924Y-94180000D02*
X127525000Y-94180000D01*
X122712500Y-99413972D02*
X122712500Y-98791424D01*
X121312500Y-108462500D02*
X121112500Y-108262500D01*
%TO.N,Net-(U1-USB_DP)*%
X124912500Y-107762500D02*
X124400000Y-107250000D01*
X124912500Y-108462500D02*
X124912500Y-107762500D01*
%TO.N,GPIO_6*%
X115550000Y-99500000D02*
X113950000Y-97900000D01*
X115550000Y-108702976D02*
X115550000Y-99500000D01*
X120475000Y-112100000D02*
X118947024Y-112100000D01*
X118947024Y-112100000D02*
X115550000Y-108702976D01*
%TO.N,GPIO_8*%
X120475000Y-113300000D02*
X119415686Y-113300000D01*
X119415686Y-113300000D02*
X115150000Y-109034314D01*
X115150000Y-104180000D02*
X113950000Y-102980000D01*
X115150000Y-109034314D02*
X115150000Y-104180000D01*
%TO.N,GPIO_13*%
X119600000Y-113700000D02*
X120475000Y-113700000D01*
X118250000Y-113700000D02*
X119250000Y-113700000D01*
X121008860Y-113700000D02*
X121712500Y-114403640D01*
X121712500Y-114403640D02*
X121712500Y-115337500D01*
X113950000Y-118220000D02*
X113950000Y-120760000D01*
X118050000Y-113500000D02*
X118250000Y-113700000D01*
X113950000Y-108060000D02*
X113950000Y-108400000D01*
X121712500Y-115337500D02*
X122112500Y-115337500D01*
X113950000Y-108060000D02*
X113950000Y-105520000D01*
X113950000Y-108400000D02*
X119250000Y-113700000D01*
X113950000Y-123300000D02*
X113950000Y-125840000D01*
X119250000Y-113700000D02*
X120475000Y-113700000D01*
X113950000Y-120760000D02*
X113950000Y-123300000D01*
X122112500Y-115337500D02*
X122512500Y-115337500D01*
X120475000Y-113700000D02*
X121008860Y-113700000D01*
%TO.N,GPIO_10*%
X113950000Y-110600000D02*
X117450000Y-114100000D01*
X117450000Y-114100000D02*
X120475000Y-114100000D01*
%TO.N,GPIO_11*%
X115310000Y-114500000D02*
X113950000Y-113140000D01*
X120475000Y-114500000D02*
X115310000Y-114500000D01*
%TO.N,GPIO_12*%
X121312500Y-115337500D02*
X120970000Y-115680000D01*
X120970000Y-115680000D02*
X113950000Y-115680000D01*
%TO.N,XIN*%
X122150000Y-118620000D02*
X121280000Y-117750000D01*
X122150000Y-119200000D02*
X122150000Y-118620000D01*
X123312500Y-115337500D02*
X123312500Y-116737500D01*
X123312500Y-116737500D02*
X122300000Y-117750000D01*
X122300000Y-117750000D02*
X121280000Y-117750000D01*
%TO.N,SWCLK*%
X126590000Y-119621076D02*
X126590000Y-127500000D01*
X124912500Y-117943576D02*
X126590000Y-119621076D01*
X124912500Y-115337500D02*
X124912500Y-117943576D01*
%TO.N,SWD*%
X125312500Y-114589428D02*
X124800000Y-114076928D01*
X125312500Y-115337500D02*
X125312500Y-114589428D01*
%TO.N,RUN*%
X125512500Y-117695049D02*
X125712500Y-117495049D01*
X125712500Y-117495049D02*
X125712500Y-115337500D01*
%TO.N,GPIO_16*%
X132850000Y-125016346D02*
X132850000Y-125930000D01*
X126112500Y-118278846D02*
X132850000Y-125016346D01*
X126112500Y-115337500D02*
X126112500Y-118278846D01*
%TO.N,GPIO_17*%
X126512500Y-117052500D02*
X132850000Y-123390000D01*
X126512500Y-115337500D02*
X126512500Y-117052500D01*
%TO.N,GPIO_18*%
X127350000Y-114500000D02*
X127350000Y-115000000D01*
%TO.N,GPIO_19*%
X127350000Y-114100000D02*
X126000000Y-114100000D01*
%TO.N,GPIO_20*%
X127349800Y-113699800D02*
X127350000Y-113700000D01*
X126799800Y-113699800D02*
X127349800Y-113699800D01*
X126416353Y-113416883D02*
X126516883Y-113416883D01*
X126516883Y-113416883D02*
X126799800Y-113699800D01*
%TO.N,GPIO_21*%
X127350000Y-113300000D02*
X128650000Y-113300000D01*
X128650000Y-113300000D02*
X132850000Y-117500000D01*
X132850000Y-117500000D02*
X132850000Y-118310000D01*
%TO.N,GPIO_22*%
X127350000Y-112500000D02*
X129380248Y-112500000D01*
X131400000Y-107060000D02*
X132850000Y-105610000D01*
X129380248Y-112500000D02*
X131400000Y-110480245D01*
X131400000Y-110480245D02*
X131400000Y-107060000D01*
%TO.N,GPIO_23*%
X127350000Y-112100000D02*
X129214562Y-112100000D01*
X129214562Y-112100000D02*
X131000000Y-110314560D01*
X131000000Y-110314560D02*
X131000000Y-102380000D01*
X131000000Y-102380000D02*
X132850000Y-100530000D01*
%TO.N,GPIO_24*%
X130600000Y-100240000D02*
X132850000Y-97990000D01*
X127350000Y-111700000D02*
X129048876Y-111700000D01*
X130600000Y-110148875D02*
X130600000Y-100240000D01*
X129048876Y-111700000D02*
X130600000Y-110148875D01*
%TO.N,GND*%
X120450000Y-119200000D02*
X119950000Y-119200000D01*
X119605000Y-81640000D02*
X117600000Y-81640000D01*
X122150000Y-121270000D02*
X122150000Y-120900000D01*
X122660000Y-121410000D02*
X122150000Y-120900000D01*
X128540000Y-124400000D02*
X128550000Y-124410000D01*
X120250000Y-82285000D02*
X119605000Y-81640000D01*
X129540000Y-124410000D02*
X129550000Y-124400000D01*
%TO.N,VBUS*%
X125700000Y-82035000D02*
X125950000Y-82285000D01*
X127343629Y-80165000D02*
X126110406Y-80165000D01*
X126110406Y-80165000D02*
X125700000Y-80575406D01*
X119780000Y-86400000D02*
X119780000Y-86175000D01*
X121050000Y-84905000D02*
X121050000Y-82285000D01*
X125700000Y-80575406D02*
X125700000Y-81200000D01*
X119780000Y-86175000D02*
X121050000Y-84905000D01*
X129838629Y-77670000D02*
X127343629Y-80165000D01*
X132850000Y-77670000D02*
X129838629Y-77670000D01*
%TO.N,GPIO_27{slash}ADC_1*%
X127350000Y-110500000D02*
X129117504Y-110500000D01*
X129117504Y-110500000D02*
X129800000Y-109817503D01*
X129800000Y-109817503D02*
X129800000Y-99908628D01*
X129800000Y-99908628D02*
X130650000Y-99058628D01*
X130650000Y-99058628D02*
X130650000Y-94544314D01*
X130650000Y-94544314D02*
X131200000Y-93994314D01*
X131200000Y-93994314D02*
X131200000Y-92020000D01*
X131200000Y-92020000D02*
X132850000Y-90370000D01*
%TD*%
%TA.AperFunction,Conductor*%
%TO.N,GND*%
G36*
X119771808Y-116300185D02*
G01*
X119817563Y-116352989D01*
X119827507Y-116422147D01*
X119798482Y-116485703D01*
X119792451Y-116492179D01*
X118380873Y-117903757D01*
X117141286Y-119143344D01*
X117029481Y-119255148D01*
X117029477Y-119255153D01*
X116991566Y-119320819D01*
X116950424Y-119392077D01*
X116950423Y-119392078D01*
X116930871Y-119465048D01*
X116909499Y-119544809D01*
X116909499Y-119544811D01*
X116909499Y-119712912D01*
X116909500Y-119712925D01*
X116909500Y-122683333D01*
X116889815Y-122750372D01*
X116873181Y-122771014D01*
X116859887Y-122784307D01*
X116859881Y-122784315D01*
X116777505Y-122923606D01*
X116777504Y-122923609D01*
X116732357Y-123079002D01*
X116732356Y-123079008D01*
X116729500Y-123115302D01*
X116729500Y-123584697D01*
X116732356Y-123620991D01*
X116732357Y-123620997D01*
X116777505Y-123776394D01*
X116783708Y-123786884D01*
X116800887Y-123854608D01*
X116783708Y-123913116D01*
X116777505Y-123923605D01*
X116732357Y-124079002D01*
X116732356Y-124079008D01*
X116729500Y-124115302D01*
X116729500Y-124584697D01*
X116732356Y-124620991D01*
X116732357Y-124620997D01*
X116777504Y-124776390D01*
X116777505Y-124776393D01*
X116777506Y-124776395D01*
X116809351Y-124830242D01*
X116859881Y-124915684D01*
X116859887Y-124915692D01*
X116974307Y-125030112D01*
X116974311Y-125030115D01*
X116974313Y-125030117D01*
X117113605Y-125112494D01*
X117154587Y-125124400D01*
X117269002Y-125157642D01*
X117269005Y-125157642D01*
X117269007Y-125157643D01*
X117305310Y-125160500D01*
X117305318Y-125160500D01*
X117714682Y-125160500D01*
X117714690Y-125160500D01*
X117750993Y-125157643D01*
X117750995Y-125157642D01*
X117750997Y-125157642D01*
X117838622Y-125132184D01*
X117906395Y-125112494D01*
X117927369Y-125100089D01*
X117995088Y-125082906D01*
X118053613Y-125100090D01*
X118073803Y-125112031D01*
X118220000Y-125154504D01*
X118220000Y-124848352D01*
X118237267Y-124785233D01*
X118242494Y-124776395D01*
X118267176Y-124691442D01*
X118287642Y-124620997D01*
X118287643Y-124620991D01*
X118288238Y-124613430D01*
X118290500Y-124584690D01*
X118290500Y-124115310D01*
X118287643Y-124079007D01*
X118285545Y-124071786D01*
X118242495Y-123923608D01*
X118242492Y-123923600D01*
X118237266Y-123914763D01*
X118232916Y-123898862D01*
X118225023Y-123886580D01*
X118220000Y-123851645D01*
X118220000Y-123848352D01*
X118237267Y-123785233D01*
X118242494Y-123776395D01*
X118258544Y-123721153D01*
X118287642Y-123620997D01*
X118287643Y-123620991D01*
X118289410Y-123598538D01*
X118290500Y-123584690D01*
X118290500Y-123115310D01*
X118287643Y-123079007D01*
X118285266Y-123070827D01*
X118242495Y-122923608D01*
X118242492Y-122923600D01*
X118237266Y-122914763D01*
X118220000Y-122851645D01*
X118220000Y-122586403D01*
X118720000Y-122586403D01*
X118720000Y-125154503D01*
X118854577Y-125115406D01*
X118924447Y-125115606D01*
X118976856Y-125146805D01*
X118985123Y-125155072D01*
X118985122Y-125155072D01*
X119130604Y-125243019D01*
X119130603Y-125243019D01*
X119292894Y-125293590D01*
X119292893Y-125293590D01*
X119363408Y-125299998D01*
X119363426Y-125299999D01*
X119870000Y-125299999D01*
X119876581Y-125299999D01*
X119947102Y-125293591D01*
X119947107Y-125293590D01*
X120109396Y-125243018D01*
X120254877Y-125155072D01*
X120375072Y-125034877D01*
X120463019Y-124889395D01*
X120513590Y-124727106D01*
X120520000Y-124656572D01*
X120520000Y-124050000D01*
X119870000Y-124050000D01*
X119870000Y-125299999D01*
X119363426Y-125299999D01*
X119369999Y-125299998D01*
X119370000Y-125299998D01*
X119370000Y-123550000D01*
X119870000Y-123550000D01*
X120519999Y-123550000D01*
X120519999Y-122943417D01*
X120513591Y-122872897D01*
X120513590Y-122872892D01*
X120463018Y-122710603D01*
X120375072Y-122565122D01*
X120254877Y-122444927D01*
X120109395Y-122356980D01*
X120109396Y-122356980D01*
X119947105Y-122306409D01*
X119947106Y-122306409D01*
X119876572Y-122300000D01*
X119870000Y-122300000D01*
X119870000Y-123550000D01*
X119370000Y-123550000D01*
X119370000Y-122300000D01*
X119369999Y-122299999D01*
X119363436Y-122300000D01*
X119363417Y-122300001D01*
X119292897Y-122306408D01*
X119292892Y-122306409D01*
X119130603Y-122356981D01*
X118985124Y-122444926D01*
X118899365Y-122530685D01*
X118838041Y-122564169D01*
X118834586Y-122564870D01*
X118720000Y-122586403D01*
X118220000Y-122586403D01*
X118220000Y-122550721D01*
X118166783Y-122516030D01*
X118155336Y-122502645D01*
X118140551Y-122493082D01*
X118133102Y-122476645D01*
X118121373Y-122462930D01*
X118118980Y-122445482D01*
X118111711Y-122429442D01*
X118110500Y-122412153D01*
X118110500Y-119923962D01*
X118130185Y-119856923D01*
X118146814Y-119836286D01*
X118538323Y-119444777D01*
X118599642Y-119411295D01*
X118669333Y-119416279D01*
X118725267Y-119458150D01*
X118749684Y-119523615D01*
X118750000Y-119532459D01*
X118750000Y-119599970D01*
X118750001Y-119599987D01*
X118760494Y-119702697D01*
X118815641Y-119869119D01*
X118815643Y-119869124D01*
X118886763Y-119984426D01*
X118905203Y-120051818D01*
X118886763Y-120114619D01*
X118815189Y-120230659D01*
X118815186Y-120230666D01*
X118760001Y-120397203D01*
X118760001Y-120397204D01*
X118760000Y-120397204D01*
X118749500Y-120499983D01*
X118749500Y-121300001D01*
X118749501Y-121300019D01*
X118760000Y-121402796D01*
X118760001Y-121402799D01*
X118815185Y-121569331D01*
X118815187Y-121569336D01*
X118832914Y-121598076D01*
X118907288Y-121718656D01*
X119031344Y-121842712D01*
X119180666Y-121934814D01*
X119347203Y-121989999D01*
X119449991Y-122000500D01*
X120450008Y-122000499D01*
X120450016Y-122000498D01*
X120450019Y-122000498D01*
X120506302Y-121994748D01*
X120552797Y-121989999D01*
X120719334Y-121934814D01*
X120868656Y-121842712D01*
X120962675Y-121748692D01*
X121023994Y-121715210D01*
X121093686Y-121720194D01*
X121138034Y-121748695D01*
X121231654Y-121842315D01*
X121380875Y-121934356D01*
X121380880Y-121934358D01*
X121547302Y-121989505D01*
X121547309Y-121989506D01*
X121650019Y-121999999D01*
X121899999Y-121999999D01*
X121900000Y-121999998D01*
X121900000Y-121024000D01*
X121919685Y-120956961D01*
X121972489Y-120911206D01*
X122024000Y-120900000D01*
X122276000Y-120900000D01*
X122343039Y-120919685D01*
X122388794Y-120972489D01*
X122400000Y-121024000D01*
X122400000Y-121999999D01*
X122649972Y-121999999D01*
X122649986Y-121999998D01*
X122752697Y-121989505D01*
X122919120Y-121934358D01*
X122919128Y-121934354D01*
X122922344Y-121932371D01*
X122924858Y-121931682D01*
X122925671Y-121931304D01*
X122925735Y-121931442D01*
X122989735Y-121913927D01*
X123056400Y-121934846D01*
X123075127Y-121950225D01*
X123184616Y-122059714D01*
X123184624Y-122059720D01*
X123327988Y-122144505D01*
X123375671Y-122195574D01*
X123388175Y-122264316D01*
X123361530Y-122328905D01*
X123329018Y-122357353D01*
X123184814Y-122444528D01*
X123184810Y-122444531D01*
X123064530Y-122564811D01*
X122976522Y-122710393D01*
X122973931Y-122718708D01*
X122925914Y-122872804D01*
X122925914Y-122872806D01*
X122922665Y-122908557D01*
X122896994Y-122973540D01*
X122840265Y-123014328D01*
X122823367Y-123018951D01*
X122766507Y-123030261D01*
X122766498Y-123030264D01*
X122620827Y-123090602D01*
X122620814Y-123090609D01*
X122489711Y-123178210D01*
X122489707Y-123178213D01*
X122378213Y-123289707D01*
X122378210Y-123289711D01*
X122290609Y-123420814D01*
X122290602Y-123420827D01*
X122230264Y-123566498D01*
X122230261Y-123566510D01*
X122199500Y-123721153D01*
X122199500Y-123878846D01*
X122230261Y-124033489D01*
X122230264Y-124033501D01*
X122290602Y-124179172D01*
X122290609Y-124179185D01*
X122378210Y-124310288D01*
X122378213Y-124310292D01*
X122489707Y-124421786D01*
X122489711Y-124421789D01*
X122620814Y-124509390D01*
X122620827Y-124509397D01*
X122706898Y-124545048D01*
X122766503Y-124569737D01*
X122823366Y-124581047D01*
X122885275Y-124613430D01*
X122919850Y-124674145D01*
X122922665Y-124691442D01*
X122925913Y-124727192D01*
X122925913Y-124727194D01*
X122925914Y-124727196D01*
X122976522Y-124889606D01*
X123008704Y-124942842D01*
X123064530Y-125035188D01*
X123184811Y-125155469D01*
X123184813Y-125155470D01*
X123184815Y-125155472D01*
X123330394Y-125243478D01*
X123492804Y-125294086D01*
X123563384Y-125300500D01*
X123563387Y-125300500D01*
X124076613Y-125300500D01*
X124076616Y-125300500D01*
X124147196Y-125294086D01*
X124309606Y-125243478D01*
X124455185Y-125155472D01*
X124575472Y-125035185D01*
X124663478Y-124889606D01*
X124714086Y-124727196D01*
X124720500Y-124656616D01*
X124720500Y-122943384D01*
X124714086Y-122872804D01*
X124663478Y-122710394D01*
X124575472Y-122564815D01*
X124575470Y-122564813D01*
X124575469Y-122564811D01*
X124455188Y-122444530D01*
X124455185Y-122444528D01*
X124309606Y-122356522D01*
X124309604Y-122356521D01*
X124309602Y-122356520D01*
X124309603Y-122356520D01*
X124251179Y-122338315D01*
X124193031Y-122299578D01*
X124165057Y-122235552D01*
X124176139Y-122166567D01*
X124222757Y-122114524D01*
X124224949Y-122113197D01*
X124315377Y-122059718D01*
X124315383Y-122059714D01*
X124429714Y-121945383D01*
X124429721Y-121945374D01*
X124512031Y-121806195D01*
X124554504Y-121660000D01*
X123874000Y-121660000D01*
X123865314Y-121657449D01*
X123856353Y-121658738D01*
X123832312Y-121647759D01*
X123806961Y-121640315D01*
X123801033Y-121633474D01*
X123792797Y-121629713D01*
X123778507Y-121607478D01*
X123761206Y-121587511D01*
X123758918Y-121576996D01*
X123755023Y-121570935D01*
X123750000Y-121536000D01*
X123750000Y-121354500D01*
X123769685Y-121287461D01*
X123822489Y-121241706D01*
X123874000Y-121230500D01*
X123984682Y-121230500D01*
X123984690Y-121230500D01*
X124020993Y-121227643D01*
X124105306Y-121203147D01*
X124175173Y-121203346D01*
X124187338Y-121207656D01*
X124216503Y-121219737D01*
X124326948Y-121241706D01*
X124371153Y-121250499D01*
X124371156Y-121250500D01*
X124371158Y-121250500D01*
X124528844Y-121250500D01*
X124528845Y-121250499D01*
X124683497Y-121219737D01*
X124829179Y-121159394D01*
X124960289Y-121071789D01*
X125071789Y-120960289D01*
X125159394Y-120829179D01*
X125162398Y-120824684D01*
X125216010Y-120779879D01*
X125285335Y-120771172D01*
X125348363Y-120801326D01*
X125385082Y-120860770D01*
X125389500Y-120893575D01*
X125389500Y-122870234D01*
X125369815Y-122937273D01*
X125368602Y-122939125D01*
X125280609Y-123070814D01*
X125280602Y-123070827D01*
X125220264Y-123216498D01*
X125220261Y-123216510D01*
X125189500Y-123371153D01*
X125189500Y-123528846D01*
X125220261Y-123683489D01*
X125220264Y-123683501D01*
X125280602Y-123829172D01*
X125280609Y-123829185D01*
X125368210Y-123960288D01*
X125368213Y-123960292D01*
X125479707Y-124071786D01*
X125479711Y-124071789D01*
X125610814Y-124159390D01*
X125610827Y-124159397D01*
X125756498Y-124219735D01*
X125756503Y-124219737D01*
X125866987Y-124241713D01*
X125889691Y-124246230D01*
X125951602Y-124278615D01*
X125986176Y-124339330D01*
X125989500Y-124367847D01*
X125989500Y-126214281D01*
X125969815Y-126281320D01*
X125921795Y-126324765D01*
X125882185Y-126344947D01*
X125882184Y-126344948D01*
X125710213Y-126469890D01*
X125559890Y-126620213D01*
X125434949Y-126792182D01*
X125430202Y-126801499D01*
X125382227Y-126852293D01*
X125314405Y-126869087D01*
X125248271Y-126846548D01*
X125209234Y-126801495D01*
X125204626Y-126792452D01*
X125165270Y-126738282D01*
X125165269Y-126738282D01*
X124532962Y-127370590D01*
X124515925Y-127307007D01*
X124450099Y-127192993D01*
X124357007Y-127099901D01*
X124242993Y-127034075D01*
X124179409Y-127017037D01*
X124811716Y-126384728D01*
X124757550Y-126345375D01*
X124568217Y-126248904D01*
X124366129Y-126183242D01*
X124156246Y-126150000D01*
X123943754Y-126150000D01*
X123733872Y-126183242D01*
X123733869Y-126183242D01*
X123531782Y-126248904D01*
X123342439Y-126345380D01*
X123288282Y-126384727D01*
X123288282Y-126384728D01*
X123920591Y-127017037D01*
X123857007Y-127034075D01*
X123742993Y-127099901D01*
X123649901Y-127192993D01*
X123584075Y-127307007D01*
X123567037Y-127370591D01*
X122896818Y-126700372D01*
X122863333Y-126639049D01*
X122863330Y-126639036D01*
X122860499Y-126626015D01*
X122860499Y-126602128D01*
X122854091Y-126542517D01*
X122818992Y-126448412D01*
X122803798Y-126407673D01*
X122803793Y-126407664D01*
X122717547Y-126292455D01*
X122717544Y-126292452D01*
X122602335Y-126206206D01*
X122602328Y-126206202D01*
X122467482Y-126155908D01*
X122467483Y-126155908D01*
X122407883Y-126149501D01*
X122407881Y-126149500D01*
X122407873Y-126149500D01*
X122407864Y-126149500D01*
X120612129Y-126149500D01*
X120612123Y-126149501D01*
X120552516Y-126155908D01*
X120417671Y-126206202D01*
X120417664Y-126206206D01*
X120302455Y-126292452D01*
X120302452Y-126292455D01*
X120216206Y-126407664D01*
X120216202Y-126407671D01*
X120165908Y-126542517D01*
X120159501Y-126602116D01*
X120159500Y-126602135D01*
X120159500Y-128397870D01*
X120159501Y-128397876D01*
X120165908Y-128457483D01*
X120216202Y-128592328D01*
X120216206Y-128592334D01*
X120222835Y-128601190D01*
X120247252Y-128666654D01*
X120232400Y-128734927D01*
X120182995Y-128784332D01*
X120123568Y-128799500D01*
X112874500Y-128799500D01*
X112807461Y-128779815D01*
X112761706Y-128727011D01*
X112750500Y-128675500D01*
X112750500Y-126849758D01*
X112770185Y-126782719D01*
X112822989Y-126736964D01*
X112892147Y-126727020D01*
X112955703Y-126756045D01*
X112962181Y-126762077D01*
X113070213Y-126870109D01*
X113242179Y-126995048D01*
X113242181Y-126995049D01*
X113242184Y-126995051D01*
X113431588Y-127091557D01*
X113633757Y-127157246D01*
X113843713Y-127190500D01*
X113843714Y-127190500D01*
X114056286Y-127190500D01*
X114056287Y-127190500D01*
X114266243Y-127157246D01*
X114468412Y-127091557D01*
X114657816Y-126995051D01*
X114705917Y-126960104D01*
X114829786Y-126870109D01*
X114829788Y-126870106D01*
X114829792Y-126870104D01*
X114980104Y-126719792D01*
X114980106Y-126719788D01*
X114980109Y-126719786D01*
X115105048Y-126547820D01*
X115105047Y-126547820D01*
X115105051Y-126547816D01*
X115201557Y-126358412D01*
X115267246Y-126156243D01*
X115300500Y-125946287D01*
X115300500Y-125733713D01*
X115267246Y-125523757D01*
X115201557Y-125321588D01*
X115105051Y-125132184D01*
X115105049Y-125132181D01*
X115105048Y-125132179D01*
X114980109Y-124960213D01*
X114829786Y-124809890D01*
X114657820Y-124684951D01*
X114657205Y-124684637D01*
X114649054Y-124680484D01*
X114598259Y-124632512D01*
X114581463Y-124564692D01*
X114603999Y-124498556D01*
X114649054Y-124459515D01*
X114657816Y-124455051D01*
X114777843Y-124367847D01*
X114829786Y-124330109D01*
X114829788Y-124330106D01*
X114829792Y-124330104D01*
X114980104Y-124179792D01*
X114980106Y-124179788D01*
X114980109Y-124179786D01*
X115105048Y-124007820D01*
X115105047Y-124007820D01*
X115105051Y-124007816D01*
X115201557Y-123818412D01*
X115267246Y-123616243D01*
X115300500Y-123406287D01*
X115300500Y-123193713D01*
X115267246Y-122983757D01*
X115201557Y-122781588D01*
X115105051Y-122592184D01*
X115105049Y-122592181D01*
X115105048Y-122592179D01*
X114980109Y-122420213D01*
X114829786Y-122269890D01*
X114657820Y-122144951D01*
X114656945Y-122144505D01*
X114649054Y-122140484D01*
X114598259Y-122092512D01*
X114581463Y-122024692D01*
X114603999Y-121958556D01*
X114649054Y-121919515D01*
X114657816Y-121915051D01*
X114757386Y-121842710D01*
X114829786Y-121790109D01*
X114829788Y-121790106D01*
X114829792Y-121790104D01*
X114980104Y-121639792D01*
X114980106Y-121639788D01*
X114980109Y-121639786D01*
X115105048Y-121467820D01*
X115105047Y-121467820D01*
X115105051Y-121467816D01*
X115201557Y-121278412D01*
X115267246Y-121076243D01*
X115300500Y-120866287D01*
X115300500Y-120653713D01*
X115267246Y-120443757D01*
X115201557Y-120241588D01*
X115105051Y-120052184D01*
X115105049Y-120052181D01*
X115105048Y-120052179D01*
X114980109Y-119880213D01*
X114829786Y-119729890D01*
X114657820Y-119604951D01*
X114657205Y-119604637D01*
X114649054Y-119600484D01*
X114598259Y-119552512D01*
X114581463Y-119484692D01*
X114603999Y-119418556D01*
X114649054Y-119379515D01*
X114657816Y-119375051D01*
X114732459Y-119320820D01*
X114829786Y-119250109D01*
X114829788Y-119250106D01*
X114829792Y-119250104D01*
X114980104Y-119099792D01*
X114980106Y-119099788D01*
X114980109Y-119099786D01*
X115105048Y-118927820D01*
X115105047Y-118927820D01*
X115105051Y-118927816D01*
X115201557Y-118738412D01*
X115267246Y-118536243D01*
X115300500Y-118326287D01*
X115300500Y-118113713D01*
X115267246Y-117903757D01*
X115201557Y-117701588D01*
X115105051Y-117512184D01*
X115105049Y-117512181D01*
X115105048Y-117512179D01*
X114980109Y-117340213D01*
X114829786Y-117189890D01*
X114657820Y-117064951D01*
X114657115Y-117064591D01*
X114649054Y-117060485D01*
X114598259Y-117012512D01*
X114581463Y-116944692D01*
X114603999Y-116878556D01*
X114649054Y-116839515D01*
X114657816Y-116835051D01*
X114705917Y-116800104D01*
X114829786Y-116710109D01*
X114829788Y-116710106D01*
X114829792Y-116710104D01*
X114980104Y-116559792D01*
X114980106Y-116559788D01*
X114980109Y-116559786D01*
X115096562Y-116399500D01*
X115105051Y-116387816D01*
X115105349Y-116387230D01*
X115125235Y-116348205D01*
X115173209Y-116297409D01*
X115235719Y-116280500D01*
X119704769Y-116280500D01*
X119771808Y-116300185D01*
G37*
%TD.AperFunction*%
%TA.AperFunction,Conductor*%
G36*
X123584075Y-127692993D02*
G01*
X123649901Y-127807007D01*
X123742993Y-127900099D01*
X123857007Y-127965925D01*
X123920590Y-127982962D01*
X123288282Y-128615269D01*
X123292257Y-128665771D01*
X123277893Y-128734148D01*
X123228842Y-128783905D01*
X123168639Y-128799500D01*
X122896432Y-128799500D01*
X122829393Y-128779815D01*
X122783638Y-128727011D01*
X122773694Y-128657853D01*
X122797165Y-128601190D01*
X122802324Y-128594297D01*
X122803796Y-128592331D01*
X122854091Y-128457483D01*
X122860500Y-128397873D01*
X122860499Y-128387312D01*
X122880179Y-128320275D01*
X122896818Y-128299626D01*
X123567037Y-127629408D01*
X123584075Y-127692993D01*
G37*
%TD.AperFunction*%
%TA.AperFunction,Conductor*%
G36*
X125165270Y-128261717D02*
G01*
X125165270Y-128261716D01*
X125204622Y-128207555D01*
X125209232Y-128198507D01*
X125257205Y-128147709D01*
X125325025Y-128130912D01*
X125391161Y-128153447D01*
X125430204Y-128198504D01*
X125434949Y-128207817D01*
X125559890Y-128379786D01*
X125710207Y-128530103D01*
X125772252Y-128575181D01*
X125814918Y-128630511D01*
X125820897Y-128700124D01*
X125788292Y-128761920D01*
X125727453Y-128796277D01*
X125699367Y-128799500D01*
X124931361Y-128799500D01*
X124864322Y-128779815D01*
X124818567Y-128727011D01*
X124807743Y-128665772D01*
X124811717Y-128615270D01*
X124179408Y-127982962D01*
X124242993Y-127965925D01*
X124357007Y-127900099D01*
X124450099Y-127807007D01*
X124515925Y-127692993D01*
X124532962Y-127629408D01*
X125165270Y-128261717D01*
G37*
%TD.AperFunction*%
%TA.AperFunction,Conductor*%
G36*
X130570293Y-123585874D02*
G01*
X131839579Y-124855160D01*
X131873064Y-124916483D01*
X131868080Y-124986175D01*
X131839583Y-125030518D01*
X131819899Y-125050203D01*
X131819892Y-125050211D01*
X131694951Y-125222179D01*
X131598444Y-125411585D01*
X131532753Y-125613760D01*
X131499500Y-125823713D01*
X131499500Y-126036286D01*
X131527691Y-126214281D01*
X131532754Y-126246243D01*
X131585205Y-126407671D01*
X131598444Y-126448414D01*
X131694951Y-126637820D01*
X131819890Y-126809786D01*
X131970213Y-126960109D01*
X132142179Y-127085048D01*
X132142181Y-127085049D01*
X132142184Y-127085051D01*
X132331588Y-127181557D01*
X132533757Y-127247246D01*
X132743713Y-127280500D01*
X132743714Y-127280500D01*
X132956286Y-127280500D01*
X132956287Y-127280500D01*
X133166243Y-127247246D01*
X133368412Y-127181557D01*
X133557816Y-127085051D01*
X133627979Y-127034075D01*
X133729786Y-126960109D01*
X133729788Y-126960106D01*
X133729792Y-126960104D01*
X133880104Y-126809792D01*
X133975182Y-126678926D01*
X134030511Y-126636262D01*
X134100124Y-126630283D01*
X134161920Y-126662888D01*
X134196277Y-126723727D01*
X134199500Y-126751813D01*
X134199500Y-128675500D01*
X134179815Y-128742539D01*
X134127011Y-128788294D01*
X134075500Y-128799500D01*
X127480633Y-128799500D01*
X127413594Y-128779815D01*
X127367839Y-128727011D01*
X127357895Y-128657853D01*
X127386920Y-128594297D01*
X127407748Y-128575181D01*
X127469792Y-128530104D01*
X127620104Y-128379792D01*
X127620106Y-128379788D01*
X127620109Y-128379786D01*
X127745048Y-128207820D01*
X127745050Y-128207817D01*
X127745051Y-128207816D01*
X127841557Y-128018412D01*
X127907246Y-127816243D01*
X127940500Y-127606287D01*
X127940500Y-127393713D01*
X127907246Y-127183757D01*
X127841557Y-126981588D01*
X127745051Y-126792184D01*
X127745049Y-126792181D01*
X127745048Y-126792179D01*
X127620109Y-126620213D01*
X127469786Y-126469890D01*
X127297815Y-126344948D01*
X127297814Y-126344947D01*
X127258205Y-126324765D01*
X127207409Y-126276791D01*
X127190500Y-126214281D01*
X127190500Y-125304313D01*
X127210185Y-125237274D01*
X127262989Y-125191519D01*
X127291725Y-125186439D01*
X127300000Y-125178790D01*
X127300000Y-125178789D01*
X127800000Y-125178789D01*
X127820910Y-125177145D01*
X127976194Y-125132032D01*
X127978414Y-125130719D01*
X127980385Y-125130218D01*
X127983354Y-125128934D01*
X127983561Y-125129412D01*
X128046136Y-125113530D01*
X128104668Y-125130714D01*
X128123804Y-125142031D01*
X128279089Y-125187145D01*
X128300000Y-125188789D01*
X128800000Y-125188789D01*
X128820910Y-125187145D01*
X128976194Y-125142032D01*
X128995329Y-125130715D01*
X129063053Y-125113530D01*
X129116518Y-125129229D01*
X129116646Y-125128934D01*
X129119041Y-125129970D01*
X129121580Y-125130716D01*
X129123804Y-125132031D01*
X129279089Y-125177145D01*
X129300000Y-125178789D01*
X129800000Y-125178789D01*
X129820910Y-125177145D01*
X129976195Y-125132031D01*
X130115374Y-125049721D01*
X130115383Y-125049714D01*
X130229714Y-124935383D01*
X130229721Y-124935374D01*
X130312031Y-124796195D01*
X130354504Y-124650000D01*
X129800000Y-124650000D01*
X129800000Y-125178789D01*
X129300000Y-125178789D01*
X129300000Y-124660000D01*
X128800000Y-124660000D01*
X128800000Y-125188789D01*
X128300000Y-125188789D01*
X128300000Y-124660000D01*
X127800000Y-124660000D01*
X127800000Y-125178789D01*
X127300000Y-125178789D01*
X127300000Y-124524000D01*
X127319685Y-124456961D01*
X127372489Y-124411206D01*
X127424000Y-124400000D01*
X127550000Y-124400000D01*
X127550000Y-124344500D01*
X127569685Y-124277461D01*
X127622489Y-124231706D01*
X127674000Y-124220500D01*
X127784682Y-124220500D01*
X127784690Y-124220500D01*
X127820993Y-124217643D01*
X127820995Y-124217642D01*
X127820997Y-124217642D01*
X127976389Y-124172496D01*
X127976389Y-124172495D01*
X127976395Y-124172494D01*
X127978420Y-124171296D01*
X127980215Y-124170840D01*
X127983551Y-124169397D01*
X127983783Y-124169934D01*
X128046139Y-124154110D01*
X128104663Y-124171291D01*
X128123605Y-124182494D01*
X128123608Y-124182494D01*
X128123610Y-124182496D01*
X128279002Y-124227642D01*
X128279005Y-124227642D01*
X128279007Y-124227643D01*
X128315310Y-124230500D01*
X128315318Y-124230500D01*
X128784682Y-124230500D01*
X128784690Y-124230500D01*
X128820993Y-124227643D01*
X128820995Y-124227642D01*
X128820997Y-124227642D01*
X128861975Y-124215736D01*
X128976395Y-124182494D01*
X128995332Y-124171294D01*
X129063054Y-124154110D01*
X129116298Y-124169744D01*
X129116449Y-124169397D01*
X129119260Y-124170613D01*
X129121574Y-124171293D01*
X129123605Y-124172494D01*
X129148704Y-124179786D01*
X129279002Y-124217642D01*
X129279005Y-124217642D01*
X129279007Y-124217643D01*
X129315310Y-124220500D01*
X129315318Y-124220500D01*
X129784682Y-124220500D01*
X129784690Y-124220500D01*
X129820993Y-124217643D01*
X129820995Y-124217642D01*
X129820997Y-124217642D01*
X129976389Y-124172496D01*
X129976389Y-124172495D01*
X129976395Y-124172494D01*
X129985233Y-124167267D01*
X130048352Y-124150000D01*
X130354504Y-124150000D01*
X130312031Y-124003803D01*
X130300090Y-123983613D01*
X130282906Y-123915889D01*
X130300089Y-123857369D01*
X130312494Y-123836395D01*
X130350307Y-123706243D01*
X130357642Y-123680997D01*
X130357643Y-123680991D01*
X130358994Y-123663827D01*
X130383878Y-123598538D01*
X130440108Y-123557067D01*
X130509834Y-123552580D01*
X130570293Y-123585874D01*
G37*
%TD.AperFunction*%
%TA.AperFunction,Conductor*%
G36*
X133965270Y-121611717D02*
G01*
X133965271Y-121611716D01*
X133975182Y-121598076D01*
X134030512Y-121555410D01*
X134100125Y-121549431D01*
X134161920Y-121582037D01*
X134196278Y-121642876D01*
X134199500Y-121670961D01*
X134199500Y-122568186D01*
X134179815Y-122635225D01*
X134127011Y-122680980D01*
X134057853Y-122690924D01*
X133994297Y-122661899D01*
X133975182Y-122641071D01*
X133880109Y-122510214D01*
X133880105Y-122510209D01*
X133729786Y-122359890D01*
X133557817Y-122234949D01*
X133548504Y-122230204D01*
X133497707Y-122182230D01*
X133480912Y-122114409D01*
X133503449Y-122048274D01*
X133548507Y-122009232D01*
X133557555Y-122004622D01*
X133611716Y-121965270D01*
X133611717Y-121965270D01*
X132979408Y-121332962D01*
X133042993Y-121315925D01*
X133157007Y-121250099D01*
X133250099Y-121157007D01*
X133315925Y-121042993D01*
X133332962Y-120979409D01*
X133965270Y-121611717D01*
G37*
%TD.AperFunction*%
%TA.AperFunction,Conductor*%
G36*
X128432907Y-113965348D02*
G01*
X128436480Y-113965037D01*
X128464456Y-113979755D01*
X128493203Y-113992884D01*
X128498131Y-113997472D01*
X128498314Y-113997569D01*
X128498402Y-113997725D01*
X128499681Y-113998916D01*
X131791751Y-117290986D01*
X131825236Y-117352309D01*
X131820252Y-117422001D01*
X131804388Y-117451552D01*
X131694951Y-117602180D01*
X131598444Y-117791585D01*
X131532753Y-117993760D01*
X131512963Y-118118713D01*
X131499500Y-118203713D01*
X131499500Y-118416287D01*
X131532754Y-118626243D01*
X131589208Y-118799991D01*
X131598444Y-118828414D01*
X131694951Y-119017820D01*
X131819890Y-119189786D01*
X131970213Y-119340109D01*
X132142179Y-119465048D01*
X132142181Y-119465049D01*
X132142184Y-119465051D01*
X132151493Y-119469794D01*
X132202290Y-119517766D01*
X132219087Y-119585587D01*
X132196552Y-119651722D01*
X132151505Y-119690760D01*
X132142446Y-119695376D01*
X132142440Y-119695380D01*
X132088282Y-119734727D01*
X132088282Y-119734728D01*
X132720591Y-120367037D01*
X132657007Y-120384075D01*
X132542993Y-120449901D01*
X132449901Y-120542993D01*
X132384075Y-120657007D01*
X132367037Y-120720591D01*
X131734728Y-120088282D01*
X131734727Y-120088282D01*
X131695380Y-120142439D01*
X131598904Y-120331782D01*
X131533242Y-120533869D01*
X131533242Y-120533872D01*
X131500000Y-120743753D01*
X131500000Y-120891403D01*
X131480315Y-120958442D01*
X131427511Y-121004197D01*
X131358353Y-121014141D01*
X131294797Y-120985116D01*
X131288319Y-120979084D01*
X127149319Y-116840084D01*
X127115834Y-116778761D01*
X127113000Y-116752403D01*
X127113000Y-115920135D01*
X127132685Y-115853096D01*
X127185489Y-115807341D01*
X127254647Y-115797397D01*
X127261192Y-115798518D01*
X127271156Y-115800500D01*
X127271158Y-115800500D01*
X127428844Y-115800500D01*
X127428845Y-115800499D01*
X127583497Y-115769737D01*
X127729179Y-115709394D01*
X127860289Y-115621789D01*
X127971789Y-115510289D01*
X128059394Y-115379179D01*
X128119737Y-115233497D01*
X128150500Y-115078842D01*
X128150500Y-114958143D01*
X128170185Y-114891104D01*
X128175697Y-114883217D01*
X128221861Y-114822342D01*
X128277377Y-114681564D01*
X128288000Y-114593102D01*
X128288000Y-114406898D01*
X128277377Y-114318436D01*
X128277376Y-114318434D01*
X128276938Y-114314785D01*
X128276247Y-114293069D01*
X128276810Y-114282999D01*
X128277377Y-114281564D01*
X128288000Y-114193102D01*
X128288000Y-114083131D01*
X128288194Y-114079666D01*
X128298780Y-114049882D01*
X128307685Y-114019558D01*
X128310394Y-114017210D01*
X128311595Y-114013832D01*
X128336604Y-113994498D01*
X128360489Y-113973803D01*
X128364037Y-113973292D01*
X128366874Y-113971100D01*
X128398364Y-113968357D01*
X128429647Y-113963859D01*
X128432907Y-113965348D01*
G37*
%TD.AperFunction*%
%TA.AperFunction,Conductor*%
G36*
X134161920Y-119042888D02*
G01*
X134196277Y-119103727D01*
X134199500Y-119131813D01*
X134199500Y-120029038D01*
X134179815Y-120096077D01*
X134127011Y-120141832D01*
X134057853Y-120151776D01*
X133994297Y-120122751D01*
X133975182Y-120101923D01*
X133965271Y-120088282D01*
X133965269Y-120088282D01*
X133332962Y-120720590D01*
X133315925Y-120657007D01*
X133250099Y-120542993D01*
X133157007Y-120449901D01*
X133042993Y-120384075D01*
X132979409Y-120367037D01*
X133611716Y-119734728D01*
X133557547Y-119695373D01*
X133557547Y-119695372D01*
X133548500Y-119690763D01*
X133497706Y-119642788D01*
X133480912Y-119574966D01*
X133503451Y-119508832D01*
X133548508Y-119469793D01*
X133557816Y-119465051D01*
X133658251Y-119392081D01*
X133729786Y-119340109D01*
X133729788Y-119340106D01*
X133729792Y-119340104D01*
X133880104Y-119189792D01*
X133975182Y-119058926D01*
X134030511Y-119016262D01*
X134100124Y-119010283D01*
X134161920Y-119042888D01*
G37*
%TD.AperFunction*%
%TA.AperFunction,Conductor*%
G36*
X122330934Y-116264876D02*
G01*
X122330936Y-116264877D01*
X122403321Y-116273569D01*
X122419397Y-116275500D01*
X122588000Y-116275500D01*
X122655039Y-116295185D01*
X122700794Y-116347989D01*
X122712000Y-116399500D01*
X122712000Y-116437403D01*
X122692315Y-116504442D01*
X122675681Y-116525084D01*
X122087584Y-117113181D01*
X122060656Y-117127884D01*
X122034838Y-117144477D01*
X122028637Y-117145368D01*
X122026261Y-117146666D01*
X121999903Y-117149500D01*
X121946666Y-117149500D01*
X121879627Y-117129815D01*
X121858985Y-117113181D01*
X121851622Y-117105818D01*
X121839334Y-117083314D01*
X121833872Y-117077011D01*
X121833149Y-117071988D01*
X121818137Y-117044495D01*
X121823121Y-116974803D01*
X121851624Y-116930454D01*
X121871787Y-116910291D01*
X121871789Y-116910289D01*
X121959394Y-116779179D01*
X122019737Y-116633497D01*
X122050500Y-116478842D01*
X122050500Y-116399500D01*
X122070185Y-116332461D01*
X122122989Y-116286706D01*
X122174500Y-116275500D01*
X122205603Y-116275500D01*
X122221678Y-116273569D01*
X122294064Y-116264877D01*
X122294065Y-116264876D01*
X122297715Y-116264438D01*
X122327285Y-116264438D01*
X122330934Y-116264876D01*
G37*
%TD.AperFunction*%
%TA.AperFunction,Conductor*%
G36*
X122327285Y-109389438D02*
G01*
X122330934Y-109389876D01*
X122330936Y-109389877D01*
X122403321Y-109398569D01*
X122419397Y-109400500D01*
X122419398Y-109400500D01*
X122605603Y-109400500D01*
X122621678Y-109398569D01*
X122694064Y-109389877D01*
X122694065Y-109389876D01*
X122697715Y-109389438D01*
X122727285Y-109389438D01*
X122730934Y-109389876D01*
X122730936Y-109389877D01*
X122819398Y-109400500D01*
X122819407Y-109400500D01*
X122820894Y-109400589D01*
X122821272Y-109400725D01*
X122823078Y-109400942D01*
X122823028Y-109401356D01*
X122886640Y-109424237D01*
X122929164Y-109479676D01*
X122934965Y-109549304D01*
X122931533Y-109560523D01*
X122932031Y-109560674D01*
X122930261Y-109566508D01*
X122899500Y-109721151D01*
X122899500Y-109878844D01*
X122930261Y-110033487D01*
X122930264Y-110033499D01*
X122990602Y-110179170D01*
X122990609Y-110179183D01*
X123078210Y-110310286D01*
X123078213Y-110310290D01*
X123189707Y-110421784D01*
X123189711Y-110421787D01*
X123320814Y-110509388D01*
X123320827Y-110509395D01*
X123441979Y-110559577D01*
X123466503Y-110569735D01*
X123617322Y-110599735D01*
X123621153Y-110600497D01*
X123621156Y-110600498D01*
X123621158Y-110600498D01*
X123778844Y-110600498D01*
X123778845Y-110600497D01*
X123933497Y-110569735D01*
X124079179Y-110509392D01*
X124093121Y-110500076D01*
X124172674Y-110446921D01*
X124239351Y-110426043D01*
X124306732Y-110444527D01*
X124311776Y-110447815D01*
X124321176Y-110454272D01*
X124347424Y-110480520D01*
X124418184Y-110521373D01*
X124484355Y-110559577D01*
X124637082Y-110600500D01*
X124637083Y-110600500D01*
X125313333Y-110600500D01*
X125320939Y-110600500D01*
X125320943Y-110600501D01*
X125366082Y-110600501D01*
X125405452Y-110612061D01*
X125433119Y-110620186D01*
X125433121Y-110620187D01*
X125433126Y-110620193D01*
X125469179Y-110655607D01*
X125474083Y-110662946D01*
X125474085Y-110662948D01*
X125474474Y-110663530D01*
X125476622Y-110670392D01*
X125478875Y-110672992D01*
X125480096Y-110681484D01*
X125495352Y-110730207D01*
X125495372Y-110732421D01*
X125495372Y-111320170D01*
X125475687Y-111387209D01*
X125459057Y-111407847D01*
X125447428Y-111419477D01*
X125447424Y-111419481D01*
X125335623Y-111531281D01*
X125335621Y-111531284D01*
X125256563Y-111668214D01*
X125256563Y-111668215D01*
X125215639Y-111820943D01*
X125215639Y-111820945D01*
X125215639Y-111979054D01*
X125215638Y-111979054D01*
X125215639Y-111979057D01*
X125256563Y-112131785D01*
X125335621Y-112268716D01*
X125335623Y-112268718D01*
X125796350Y-112729445D01*
X125829835Y-112790768D01*
X125824851Y-112860460D01*
X125798295Y-112901783D01*
X125798425Y-112901890D01*
X125797512Y-112903001D01*
X125796357Y-112904800D01*
X125794568Y-112906588D01*
X125794561Y-112906597D01*
X125706962Y-113037697D01*
X125706955Y-113037710D01*
X125646617Y-113183381D01*
X125646614Y-113183393D01*
X125615852Y-113338041D01*
X125615708Y-113339505D01*
X125615418Y-113340221D01*
X125615236Y-113341138D01*
X125615413Y-113342197D01*
X125614691Y-113343876D01*
X125614664Y-113344015D01*
X125614634Y-113344009D01*
X125602138Y-113373102D01*
X125589543Y-113404290D01*
X125588214Y-113405521D01*
X125587839Y-113406396D01*
X125566400Y-113425747D01*
X125561697Y-113430108D01*
X125561251Y-113430409D01*
X125489711Y-113478211D01*
X125488157Y-113479764D01*
X125481439Y-113484301D01*
X125453446Y-113493215D01*
X125426398Y-113504702D01*
X125420533Y-113503697D01*
X125414864Y-113505503D01*
X125386493Y-113497868D01*
X125357531Y-113492908D01*
X125351165Y-113488360D01*
X125347395Y-113487346D01*
X125343068Y-113482575D01*
X125324367Y-113469216D01*
X125310292Y-113455141D01*
X125310288Y-113455138D01*
X125179185Y-113367537D01*
X125179172Y-113367530D01*
X125033501Y-113307192D01*
X125033489Y-113307189D01*
X124878845Y-113276428D01*
X124878842Y-113276428D01*
X124721158Y-113276428D01*
X124721155Y-113276428D01*
X124566510Y-113307189D01*
X124566498Y-113307192D01*
X124420827Y-113367530D01*
X124420816Y-113367536D01*
X124372828Y-113399601D01*
X124306150Y-113420478D01*
X124238770Y-113401993D01*
X124216256Y-113384178D01*
X124210289Y-113378211D01*
X124162356Y-113346183D01*
X124079185Y-113290609D01*
X124079172Y-113290602D01*
X123933501Y-113230264D01*
X123933489Y-113230261D01*
X123778845Y-113199500D01*
X123778842Y-113199500D01*
X123621158Y-113199500D01*
X123621155Y-113199500D01*
X123466510Y-113230261D01*
X123466498Y-113230264D01*
X123320828Y-113290602D01*
X123320817Y-113290608D01*
X123268888Y-113325306D01*
X123202210Y-113346183D01*
X123134830Y-113327698D01*
X123131107Y-113325305D01*
X123079184Y-113290611D01*
X123079172Y-113290604D01*
X122933501Y-113230266D01*
X122933489Y-113230263D01*
X122778845Y-113199502D01*
X122778842Y-113199502D01*
X122621158Y-113199502D01*
X122621155Y-113199502D01*
X122466510Y-113230263D01*
X122466498Y-113230266D01*
X122320827Y-113290604D01*
X122320809Y-113290614D01*
X122276100Y-113320488D01*
X122209423Y-113341366D01*
X122142043Y-113322881D01*
X122095353Y-113270902D01*
X122084177Y-113201932D01*
X122112063Y-113137869D01*
X122119521Y-113129713D01*
X122371006Y-112878227D01*
X122371011Y-112878224D01*
X122381214Y-112868020D01*
X122381216Y-112868020D01*
X122493020Y-112756216D01*
X122572077Y-112619284D01*
X122612415Y-112468740D01*
X122612415Y-112468739D01*
X122612421Y-112468740D01*
X122612421Y-112468714D01*
X122613000Y-112466558D01*
X122613000Y-112308443D01*
X122613000Y-110500089D01*
X122613001Y-110500076D01*
X122613001Y-110331973D01*
X122572076Y-110179243D01*
X122572073Y-110179238D01*
X122493024Y-110042319D01*
X122493018Y-110042311D01*
X122301195Y-109850488D01*
X122269101Y-109794901D01*
X122259576Y-109759354D01*
X122259573Y-109759349D01*
X122180524Y-109622430D01*
X122180518Y-109622422D01*
X122165458Y-109607362D01*
X122158319Y-109594289D01*
X122147290Y-109584273D01*
X122141911Y-109564240D01*
X122131973Y-109546039D01*
X122133035Y-109531180D01*
X122129173Y-109516793D01*
X122135477Y-109497035D01*
X122136957Y-109476347D01*
X122145884Y-109464421D01*
X122150413Y-109450230D01*
X122166400Y-109437015D01*
X122178829Y-109420414D01*
X122193691Y-109414459D01*
X122204269Y-109405717D01*
X122238342Y-109396568D01*
X122294064Y-109389877D01*
X122294069Y-109389874D01*
X122297716Y-109389437D01*
X122327285Y-109389438D01*
G37*
%TD.AperFunction*%
%TA.AperFunction,Conductor*%
G36*
X133965270Y-108911717D02*
G01*
X133965271Y-108911716D01*
X133975182Y-108898076D01*
X134030512Y-108855410D01*
X134100125Y-108849431D01*
X134161920Y-108882037D01*
X134196278Y-108942876D01*
X134199500Y-108970961D01*
X134199500Y-109868186D01*
X134179815Y-109935225D01*
X134127011Y-109980980D01*
X134057853Y-109990924D01*
X133994297Y-109961899D01*
X133975182Y-109941071D01*
X133880109Y-109810214D01*
X133880105Y-109810209D01*
X133729786Y-109659890D01*
X133557817Y-109534949D01*
X133548504Y-109530204D01*
X133497707Y-109482230D01*
X133480912Y-109414409D01*
X133503449Y-109348274D01*
X133548507Y-109309232D01*
X133557555Y-109304622D01*
X133611716Y-109265270D01*
X133611717Y-109265270D01*
X132979409Y-108632962D01*
X133042993Y-108615925D01*
X133157007Y-108550099D01*
X133250099Y-108457007D01*
X133315925Y-108342993D01*
X133332962Y-108279409D01*
X133965270Y-108911717D01*
G37*
%TD.AperFunction*%
%TA.AperFunction,Conductor*%
G36*
X134161920Y-106342888D02*
G01*
X134196277Y-106403727D01*
X134199500Y-106431813D01*
X134199500Y-107329038D01*
X134179815Y-107396077D01*
X134127011Y-107441832D01*
X134057853Y-107451776D01*
X133994297Y-107422751D01*
X133975182Y-107401923D01*
X133965271Y-107388282D01*
X133965269Y-107388282D01*
X133332962Y-108020590D01*
X133315925Y-107957007D01*
X133250099Y-107842993D01*
X133157007Y-107749901D01*
X133042993Y-107684075D01*
X132979407Y-107667036D01*
X133611716Y-107034728D01*
X133557547Y-106995373D01*
X133557547Y-106995372D01*
X133548500Y-106990763D01*
X133497706Y-106942788D01*
X133480912Y-106874966D01*
X133503451Y-106808832D01*
X133548508Y-106769793D01*
X133557816Y-106765051D01*
X133675546Y-106679516D01*
X133729786Y-106640109D01*
X133729788Y-106640106D01*
X133729792Y-106640104D01*
X133880104Y-106489792D01*
X133975182Y-106358926D01*
X134030511Y-106316262D01*
X134100124Y-106310283D01*
X134161920Y-106342888D01*
G37*
%TD.AperFunction*%
%TA.AperFunction,Conductor*%
G36*
X127112539Y-106269685D02*
G01*
X127158294Y-106322489D01*
X127169500Y-106374000D01*
X127169500Y-106484697D01*
X127172356Y-106520991D01*
X127172357Y-106520997D01*
X127217504Y-106676390D01*
X127217505Y-106676393D01*
X127252399Y-106735396D01*
X127269582Y-106803120D01*
X127264743Y-106833112D01*
X127222357Y-106979002D01*
X127222356Y-106979008D01*
X127219500Y-107015302D01*
X127219500Y-107126000D01*
X127216949Y-107134685D01*
X127218238Y-107143647D01*
X127207259Y-107167687D01*
X127199815Y-107193039D01*
X127192974Y-107198966D01*
X127189213Y-107207203D01*
X127166978Y-107221492D01*
X127147011Y-107238794D01*
X127136496Y-107241081D01*
X127130435Y-107244977D01*
X127095500Y-107250000D01*
X126901362Y-107250000D01*
X126834323Y-107230315D01*
X126813681Y-107213681D01*
X126776319Y-107176319D01*
X126742834Y-107114996D01*
X126740000Y-107088638D01*
X126740000Y-106374000D01*
X126759685Y-106306961D01*
X126812489Y-106261206D01*
X126864000Y-106250000D01*
X127045500Y-106250000D01*
X127112539Y-106269685D01*
G37*
%TD.AperFunction*%
%TA.AperFunction,Conductor*%
G36*
X120278040Y-95426646D02*
G01*
X120289078Y-95426403D01*
X120490940Y-95450903D01*
X120516425Y-95461870D01*
X120543039Y-95469685D01*
X120548065Y-95475486D01*
X120555120Y-95478522D01*
X120570631Y-95501527D01*
X120588794Y-95522489D01*
X120589886Y-95530087D01*
X120594179Y-95536454D01*
X120600000Y-95574000D01*
X120600000Y-95660000D01*
X120626000Y-95660000D01*
X120693039Y-95679685D01*
X120738794Y-95732489D01*
X120750000Y-95784000D01*
X120750000Y-96385537D01*
X120741355Y-96414977D01*
X120734832Y-96444964D01*
X120731077Y-96449979D01*
X120730315Y-96452576D01*
X120713681Y-96473218D01*
X120623218Y-96563681D01*
X120561895Y-96597166D01*
X120535537Y-96600000D01*
X120444500Y-96600000D01*
X120377461Y-96580315D01*
X120331706Y-96527511D01*
X120320500Y-96476000D01*
X120320500Y-96365317D01*
X120320499Y-96365302D01*
X120318447Y-96339230D01*
X120317643Y-96329007D01*
X120316111Y-96323735D01*
X120272495Y-96173609D01*
X120272494Y-96173606D01*
X120272494Y-96173605D01*
X120190117Y-96034313D01*
X120190115Y-96034311D01*
X120190112Y-96034307D01*
X120136319Y-95980514D01*
X120102834Y-95919191D01*
X120100000Y-95892833D01*
X120100000Y-95700000D01*
X119640000Y-95700000D01*
X119625658Y-95714341D01*
X119620315Y-95732539D01*
X119567511Y-95778294D01*
X119516000Y-95789500D01*
X119335302Y-95789500D01*
X119299008Y-95792356D01*
X119299002Y-95792357D01*
X119143610Y-95837503D01*
X119143605Y-95837506D01*
X119134766Y-95842732D01*
X119071648Y-95860000D01*
X118950000Y-95860000D01*
X118950000Y-95922833D01*
X118930315Y-95989872D01*
X118913681Y-96010514D01*
X118889887Y-96034307D01*
X118889881Y-96034315D01*
X118807505Y-96173606D01*
X118807504Y-96173609D01*
X118762357Y-96329002D01*
X118762356Y-96329008D01*
X118759500Y-96365302D01*
X118759500Y-96834697D01*
X118762356Y-96870991D01*
X118762357Y-96870997D01*
X118807504Y-97026390D01*
X118807505Y-97026393D01*
X118889881Y-97165684D01*
X118889887Y-97165692D01*
X119004307Y-97280112D01*
X119004311Y-97280115D01*
X119004313Y-97280117D01*
X119143605Y-97362494D01*
X119167444Y-97369420D01*
X119299002Y-97407642D01*
X119299005Y-97407642D01*
X119299007Y-97407643D01*
X119335310Y-97410500D01*
X119449903Y-97410500D01*
X119479343Y-97419144D01*
X119509330Y-97425668D01*
X119514345Y-97429422D01*
X119516942Y-97430185D01*
X119537584Y-97446819D01*
X119665139Y-97574374D01*
X119665149Y-97574385D01*
X119669479Y-97578715D01*
X119669480Y-97578716D01*
X119781284Y-97690520D01*
X119868095Y-97740639D01*
X119918215Y-97769577D01*
X119966484Y-97782510D01*
X119974910Y-97786171D01*
X119994958Y-97802902D01*
X120017252Y-97816490D01*
X120021351Y-97824927D01*
X120028554Y-97830939D01*
X120036373Y-97855851D01*
X120047783Y-97879337D01*
X120049245Y-97896859D01*
X120049479Y-97897602D01*
X120049347Y-97898080D01*
X120049500Y-97899902D01*
X120049500Y-98028846D01*
X120080261Y-98183489D01*
X120080264Y-98183501D01*
X120140602Y-98329172D01*
X120140609Y-98329185D01*
X120228210Y-98460288D01*
X120228213Y-98460292D01*
X120339707Y-98571786D01*
X120339711Y-98571789D01*
X120470814Y-98659390D01*
X120470827Y-98659397D01*
X120616498Y-98719735D01*
X120616503Y-98719737D01*
X120725093Y-98741337D01*
X120771153Y-98750499D01*
X120771156Y-98750500D01*
X120771158Y-98750500D01*
X120928843Y-98750500D01*
X120943607Y-98747563D01*
X120974906Y-98741337D01*
X121044495Y-98747563D01*
X121099673Y-98790425D01*
X121122919Y-98856315D01*
X121122948Y-98869039D01*
X121122298Y-98882263D01*
X121111999Y-98920700D01*
X121111999Y-99078814D01*
X121112000Y-99078817D01*
X121112000Y-99091868D01*
X121112000Y-99741516D01*
X121111999Y-99741534D01*
X121111999Y-99831031D01*
X121092314Y-99898070D01*
X121075680Y-99918712D01*
X120769481Y-100224910D01*
X120769479Y-100224912D01*
X120750134Y-100258420D01*
X120741957Y-100272584D01*
X120690423Y-100361843D01*
X120649499Y-100514571D01*
X120649499Y-100514573D01*
X120649499Y-100680755D01*
X120629814Y-100747794D01*
X120604161Y-100776611D01*
X120602204Y-100778216D01*
X120490713Y-100889707D01*
X120490710Y-100889711D01*
X120403109Y-101020814D01*
X120403102Y-101020827D01*
X120342764Y-101166498D01*
X120342761Y-101166510D01*
X120312000Y-101321153D01*
X120312000Y-101478846D01*
X120342761Y-101633489D01*
X120342764Y-101633501D01*
X120403102Y-101779172D01*
X120403109Y-101779185D01*
X120491102Y-101910874D01*
X120511980Y-101977551D01*
X120512000Y-101979765D01*
X120512000Y-105882152D01*
X120492315Y-105949191D01*
X120439511Y-105994946D01*
X120412192Y-106003769D01*
X120279008Y-106030261D01*
X120278998Y-106030264D01*
X120133327Y-106090602D01*
X120133314Y-106090609D01*
X120002214Y-106178208D01*
X120002208Y-106178212D01*
X119982507Y-106197914D01*
X119974562Y-106202251D01*
X119969138Y-106209498D01*
X119944380Y-106218732D01*
X119921184Y-106231398D01*
X119912154Y-106230751D01*
X119903674Y-106233915D01*
X119877853Y-106228297D01*
X119851492Y-106226412D01*
X119842439Y-106220594D01*
X119835401Y-106219063D01*
X119807147Y-106197912D01*
X119707961Y-106098726D01*
X119707959Y-106098723D01*
X119578717Y-105969481D01*
X119578716Y-105969480D01*
X119474960Y-105909577D01*
X119441785Y-105890423D01*
X119372931Y-105871973D01*
X119366827Y-105869626D01*
X119350104Y-105856843D01*
X119323646Y-105841567D01*
X119310292Y-105828213D01*
X119310288Y-105828210D01*
X119179185Y-105740609D01*
X119179172Y-105740602D01*
X119033501Y-105680264D01*
X119033489Y-105680261D01*
X118878845Y-105649500D01*
X118878842Y-105649500D01*
X118721158Y-105649500D01*
X118698690Y-105653969D01*
X118629099Y-105647740D01*
X118573922Y-105604877D01*
X118550678Y-105538987D01*
X118550500Y-105532351D01*
X118550500Y-98426835D01*
X118550500Y-98426833D01*
X118509577Y-98274106D01*
X118479474Y-98221965D01*
X118430524Y-98137180D01*
X118430518Y-98137172D01*
X118036819Y-97743473D01*
X118003334Y-97682150D01*
X118000500Y-97655792D01*
X118000500Y-96397794D01*
X118020185Y-96330755D01*
X118072989Y-96285000D01*
X118142147Y-96275056D01*
X118187622Y-96291062D01*
X118273806Y-96342032D01*
X118429089Y-96387145D01*
X118450000Y-96388789D01*
X118450000Y-95734000D01*
X118469685Y-95666961D01*
X118522489Y-95621206D01*
X118574000Y-95610000D01*
X118700000Y-95610000D01*
X118700000Y-95554500D01*
X118719685Y-95487461D01*
X118772489Y-95441706D01*
X118824000Y-95430500D01*
X118934682Y-95430500D01*
X118934690Y-95430500D01*
X118970993Y-95427643D01*
X118970996Y-95427642D01*
X118971677Y-95427518D01*
X118993958Y-95425500D01*
X120274138Y-95425500D01*
X120278040Y-95426646D01*
G37*
%TD.AperFunction*%
%TA.AperFunction,Conductor*%
G36*
X127713615Y-96295184D02*
G01*
X127759370Y-96347988D01*
X127770576Y-96399499D01*
X127770576Y-103417950D01*
X127750891Y-103484989D01*
X127750000Y-103486051D01*
X127750000Y-104079403D01*
X127741355Y-104108843D01*
X127734832Y-104138830D01*
X127731077Y-104143845D01*
X127730315Y-104146442D01*
X127713681Y-104167084D01*
X127647084Y-104233681D01*
X127585761Y-104267166D01*
X127559403Y-104270000D01*
X127500000Y-104270000D01*
X127500000Y-104325500D01*
X127480315Y-104392539D01*
X127427511Y-104438294D01*
X127376000Y-104449500D01*
X127265302Y-104449500D01*
X127229008Y-104452356D01*
X127229002Y-104452357D01*
X127073610Y-104497503D01*
X127073605Y-104497506D01*
X127064766Y-104502732D01*
X127001648Y-104520000D01*
X126695496Y-104520000D01*
X126737968Y-104666194D01*
X126749911Y-104686389D01*
X126767092Y-104754113D01*
X126749911Y-104812628D01*
X126737506Y-104833604D01*
X126737504Y-104833609D01*
X126692357Y-104989002D01*
X126692356Y-104989008D01*
X126689500Y-105025302D01*
X126689500Y-105367063D01*
X126669815Y-105434102D01*
X126617011Y-105479857D01*
X126600103Y-105486137D01*
X126593810Y-105487965D01*
X126593806Y-105487967D01*
X126454625Y-105570278D01*
X126454616Y-105570285D01*
X126340285Y-105684616D01*
X126340276Y-105684627D01*
X126317181Y-105723680D01*
X126266112Y-105771363D01*
X126197370Y-105783866D01*
X126132781Y-105757220D01*
X126116350Y-105741312D01*
X126109261Y-105733051D01*
X126091135Y-105702402D01*
X126033480Y-105644747D01*
X126030400Y-105641158D01*
X126017900Y-105613438D01*
X126003334Y-105586762D01*
X126002539Y-105579373D01*
X126001679Y-105577465D01*
X126002059Y-105574906D01*
X126000500Y-105560404D01*
X126000500Y-104020000D01*
X126695496Y-104020000D01*
X127250000Y-104020000D01*
X127250000Y-103491210D01*
X127249999Y-103491209D01*
X127229087Y-103492854D01*
X127229081Y-103492855D01*
X127073809Y-103537966D01*
X127073804Y-103537968D01*
X126934625Y-103620278D01*
X126934616Y-103620285D01*
X126820285Y-103734616D01*
X126820278Y-103734625D01*
X126737968Y-103873804D01*
X126695496Y-104020000D01*
X126000500Y-104020000D01*
X126000500Y-99237189D01*
X126020185Y-99170150D01*
X126021366Y-99168344D01*
X126059394Y-99111433D01*
X126119737Y-98965751D01*
X126150500Y-98811096D01*
X126150500Y-98653412D01*
X126150500Y-98653409D01*
X126150499Y-98653407D01*
X126125657Y-98528521D01*
X126119737Y-98498757D01*
X126119735Y-98498752D01*
X126059397Y-98353081D01*
X126059390Y-98353068D01*
X125971789Y-98221965D01*
X125971786Y-98221961D01*
X125874710Y-98124885D01*
X125841225Y-98063562D01*
X125846209Y-97993870D01*
X125874708Y-97949525D01*
X127512416Y-96311818D01*
X127539343Y-96297114D01*
X127565162Y-96280522D01*
X127571362Y-96279630D01*
X127573739Y-96278333D01*
X127600097Y-96275499D01*
X127646576Y-96275499D01*
X127713615Y-96295184D01*
G37*
%TD.AperFunction*%
%TA.AperFunction,Conductor*%
G36*
X133965270Y-96211717D02*
G01*
X133965271Y-96211716D01*
X133975182Y-96198076D01*
X134030512Y-96155410D01*
X134100125Y-96149431D01*
X134161920Y-96182037D01*
X134196278Y-96242876D01*
X134199500Y-96270961D01*
X134199500Y-97168186D01*
X134179815Y-97235225D01*
X134127011Y-97280980D01*
X134057853Y-97290924D01*
X133994297Y-97261899D01*
X133975182Y-97241071D01*
X133880109Y-97110214D01*
X133880105Y-97110209D01*
X133729786Y-96959890D01*
X133557817Y-96834949D01*
X133548504Y-96830204D01*
X133497707Y-96782230D01*
X133480912Y-96714409D01*
X133503449Y-96648274D01*
X133548507Y-96609232D01*
X133557555Y-96604622D01*
X133611716Y-96565270D01*
X133611717Y-96565270D01*
X132979408Y-95932962D01*
X133042993Y-95915925D01*
X133157007Y-95850099D01*
X133250099Y-95757007D01*
X133315925Y-95642993D01*
X133332962Y-95579409D01*
X133965270Y-96211717D01*
G37*
%TD.AperFunction*%
%TA.AperFunction,Conductor*%
G36*
X132384075Y-95642993D02*
G01*
X132449901Y-95757007D01*
X132542993Y-95850099D01*
X132657007Y-95915925D01*
X132720590Y-95932962D01*
X132088282Y-96565269D01*
X132088282Y-96565270D01*
X132142452Y-96604626D01*
X132142451Y-96604626D01*
X132151495Y-96609234D01*
X132202292Y-96657208D01*
X132219087Y-96725029D01*
X132196550Y-96791164D01*
X132151499Y-96830202D01*
X132142182Y-96834949D01*
X131970213Y-96959890D01*
X131970209Y-96959894D01*
X131862181Y-97067923D01*
X131800858Y-97101408D01*
X131731166Y-97096424D01*
X131675233Y-97054552D01*
X131650816Y-96989088D01*
X131650500Y-96980242D01*
X131650500Y-96339230D01*
X131670185Y-96272191D01*
X131700665Y-96245779D01*
X132367037Y-95579408D01*
X132384075Y-95642993D01*
G37*
%TD.AperFunction*%
%TA.AperFunction,Conductor*%
G36*
X134161920Y-93642888D02*
G01*
X134196277Y-93703727D01*
X134199500Y-93731813D01*
X134199500Y-94629038D01*
X134179815Y-94696077D01*
X134127011Y-94741832D01*
X134057853Y-94751776D01*
X133994297Y-94722751D01*
X133975182Y-94701923D01*
X133965271Y-94688282D01*
X133965269Y-94688282D01*
X133332962Y-95320590D01*
X133315925Y-95257007D01*
X133250099Y-95142993D01*
X133157007Y-95049901D01*
X133042993Y-94984075D01*
X132979408Y-94967037D01*
X133611716Y-94334728D01*
X133557547Y-94295373D01*
X133557547Y-94295372D01*
X133548500Y-94290763D01*
X133497706Y-94242788D01*
X133480912Y-94174966D01*
X133503451Y-94108832D01*
X133548508Y-94069793D01*
X133557816Y-94065051D01*
X133675546Y-93979516D01*
X133729786Y-93940109D01*
X133729788Y-93940106D01*
X133729792Y-93940104D01*
X133880104Y-93789792D01*
X133975182Y-93658926D01*
X134030511Y-93616262D01*
X134100124Y-93610283D01*
X134161920Y-93642888D01*
G37*
%TD.AperFunction*%
%TA.AperFunction,Conductor*%
G36*
X120356322Y-88008535D02*
G01*
X120390750Y-88010998D01*
X120391150Y-88011297D01*
X120391647Y-88011337D01*
X120419066Y-88032195D01*
X120446684Y-88052869D01*
X120446942Y-88053400D01*
X120447256Y-88053639D01*
X120463930Y-88084746D01*
X120465788Y-88089848D01*
X120490423Y-88181785D01*
X120508973Y-88213914D01*
X120529756Y-88249911D01*
X120535342Y-88259587D01*
X120551813Y-88327488D01*
X120528961Y-88393514D01*
X120515637Y-88409266D01*
X120490281Y-88434621D01*
X120490277Y-88434627D01*
X120407968Y-88573804D01*
X120407966Y-88573809D01*
X120362855Y-88729081D01*
X120362854Y-88729087D01*
X120361209Y-88749999D01*
X120361210Y-88750000D01*
X120949403Y-88750000D01*
X120978843Y-88758644D01*
X121008830Y-88765168D01*
X121013845Y-88768922D01*
X121016442Y-88769685D01*
X121037084Y-88786319D01*
X121103681Y-88852916D01*
X121137166Y-88914239D01*
X121140000Y-88940597D01*
X121140000Y-89059403D01*
X121120315Y-89126442D01*
X121103681Y-89147084D01*
X121037084Y-89213681D01*
X120975761Y-89247166D01*
X120949403Y-89250000D01*
X120361210Y-89250000D01*
X120362854Y-89270910D01*
X120407968Y-89426195D01*
X120490278Y-89565374D01*
X120490285Y-89565383D01*
X120500152Y-89575250D01*
X120533637Y-89636573D01*
X120528653Y-89706265D01*
X120500152Y-89750612D01*
X119872584Y-90378181D01*
X119811261Y-90411666D01*
X119784903Y-90414500D01*
X119424867Y-90414500D01*
X119272137Y-90455423D01*
X119236002Y-90476287D01*
X119236001Y-90476287D01*
X119135211Y-90534477D01*
X119135206Y-90534481D01*
X118149481Y-91520206D01*
X118149479Y-91520209D01*
X118117147Y-91576211D01*
X118099360Y-91607019D01*
X118070423Y-91657139D01*
X118043838Y-91756353D01*
X118041535Y-91762369D01*
X118024105Y-91785236D01*
X118009141Y-91809787D01*
X118003190Y-91812677D01*
X117999181Y-91817938D01*
X117972156Y-91827752D01*
X117946294Y-91840315D01*
X117938768Y-91839877D01*
X117933508Y-91841788D01*
X117926923Y-91840295D01*
X117920000Y-91845494D01*
X117920000Y-92151645D01*
X117902734Y-92214763D01*
X117897507Y-92223600D01*
X117897504Y-92223608D01*
X117852357Y-92379002D01*
X117852356Y-92379008D01*
X117849500Y-92415302D01*
X117849500Y-92526000D01*
X117846949Y-92534685D01*
X117848238Y-92543647D01*
X117837259Y-92567687D01*
X117829815Y-92593039D01*
X117822974Y-92598966D01*
X117819213Y-92607203D01*
X117796978Y-92621492D01*
X117777011Y-92638794D01*
X117766496Y-92641081D01*
X117760435Y-92644977D01*
X117725500Y-92650000D01*
X117634500Y-92650000D01*
X117567461Y-92630315D01*
X117521706Y-92577511D01*
X117510500Y-92526000D01*
X117510500Y-89933999D01*
X117530185Y-89866960D01*
X117582989Y-89821205D01*
X117634500Y-89809999D01*
X117694624Y-89809999D01*
X117694649Y-89809998D01*
X117730911Y-89807145D01*
X117886194Y-89762032D01*
X117906384Y-89750091D01*
X117974108Y-89732906D01*
X118032629Y-89750089D01*
X118053605Y-89762494D01*
X118065053Y-89765820D01*
X118209002Y-89807642D01*
X118209005Y-89807642D01*
X118209007Y-89807643D01*
X118245310Y-89810500D01*
X118245318Y-89810500D01*
X118654682Y-89810500D01*
X118654690Y-89810500D01*
X118690993Y-89807643D01*
X118690995Y-89807642D01*
X118690997Y-89807642D01*
X118731975Y-89795736D01*
X118846395Y-89762494D01*
X118985687Y-89680117D01*
X119100117Y-89565687D01*
X119182494Y-89426395D01*
X119221115Y-89293463D01*
X119227642Y-89270997D01*
X119227643Y-89270991D01*
X119230500Y-89234690D01*
X119230500Y-89120096D01*
X119250185Y-89053057D01*
X119266815Y-89032419D01*
X120148713Y-88150521D01*
X120148716Y-88150520D01*
X120259739Y-88039496D01*
X120260173Y-88039259D01*
X120260416Y-88038824D01*
X120290753Y-88022561D01*
X120321058Y-88006014D01*
X120321556Y-88006049D01*
X120321996Y-88005814D01*
X120356322Y-88008535D01*
G37*
%TD.AperFunction*%
%TA.AperFunction,Conductor*%
G36*
X131442540Y-78290185D02*
G01*
X131488295Y-78342989D01*
X131499501Y-78394500D01*
X131499501Y-78567876D01*
X131505908Y-78627483D01*
X131556202Y-78762328D01*
X131556206Y-78762335D01*
X131642452Y-78877544D01*
X131642455Y-78877547D01*
X131757664Y-78963793D01*
X131757671Y-78963797D01*
X131889082Y-79012810D01*
X131945016Y-79054681D01*
X131969433Y-79120145D01*
X131954582Y-79188418D01*
X131933431Y-79216673D01*
X131819889Y-79330215D01*
X131694951Y-79502179D01*
X131598444Y-79691585D01*
X131532753Y-79893760D01*
X131499500Y-80103713D01*
X131499500Y-80316286D01*
X131532754Y-80526244D01*
X131532754Y-80526247D01*
X131546491Y-80568523D01*
X131548486Y-80638364D01*
X131516241Y-80694522D01*
X129381286Y-82829478D01*
X129269481Y-82941282D01*
X129269477Y-82941287D01*
X129223560Y-83020820D01*
X129223559Y-83020819D01*
X129190424Y-83078211D01*
X129190423Y-83078215D01*
X129149499Y-83230943D01*
X129149499Y-83230945D01*
X129149499Y-83399046D01*
X129149500Y-83399059D01*
X129149500Y-87737644D01*
X129149499Y-87737662D01*
X129149499Y-87903368D01*
X129149498Y-87903368D01*
X129177012Y-88006049D01*
X129190423Y-88056099D01*
X129210922Y-88091604D01*
X129219358Y-88106214D01*
X129219359Y-88106218D01*
X129219360Y-88106218D01*
X129269378Y-88192854D01*
X129269479Y-88193028D01*
X129269481Y-88193031D01*
X129388349Y-88311899D01*
X129388355Y-88311904D01*
X129663181Y-88586730D01*
X129696666Y-88648053D01*
X129699500Y-88674411D01*
X129699500Y-91488530D01*
X129679815Y-91555569D01*
X129663181Y-91576211D01*
X129536881Y-91702512D01*
X129431285Y-91808108D01*
X129431284Y-91808109D01*
X129421455Y-91817938D01*
X129419545Y-91819848D01*
X129358220Y-91853330D01*
X129288528Y-91848343D01*
X129232597Y-91806469D01*
X129212093Y-91764259D01*
X129197077Y-91708217D01*
X129193783Y-91702512D01*
X129118024Y-91571291D01*
X129118021Y-91571287D01*
X129118020Y-91571285D01*
X129006216Y-91459481D01*
X129006215Y-91459480D01*
X129001885Y-91455150D01*
X129001874Y-91455140D01*
X128825089Y-91278355D01*
X128820976Y-91274242D01*
X128820929Y-91274157D01*
X128811340Y-91258294D01*
X128811338Y-91258291D01*
X128790282Y-91223460D01*
X128790051Y-91222719D01*
X128784031Y-91203398D01*
X128700736Y-91065612D01*
X128700734Y-91065610D01*
X128700733Y-91065608D01*
X128586891Y-90951766D01*
X128535169Y-90920499D01*
X128449102Y-90868469D01*
X128295387Y-90820570D01*
X128272275Y-90818469D01*
X128252990Y-90816717D01*
X128188008Y-90791045D01*
X128147220Y-90734317D01*
X128143577Y-90664542D01*
X128176534Y-90605544D01*
X128221786Y-90560292D01*
X128221789Y-90560289D01*
X128309394Y-90429179D01*
X128369737Y-90283497D01*
X128400500Y-90128842D01*
X128400500Y-89971158D01*
X128400500Y-89971155D01*
X128400499Y-89971153D01*
X128369737Y-89816503D01*
X128369735Y-89816498D01*
X128309397Y-89670827D01*
X128309390Y-89670814D01*
X128221789Y-89539711D01*
X128221786Y-89539707D01*
X128110292Y-89428213D01*
X128110288Y-89428210D01*
X127979185Y-89340609D01*
X127979172Y-89340602D01*
X127833501Y-89280264D01*
X127833489Y-89280261D01*
X127678845Y-89249500D01*
X127678842Y-89249500D01*
X127574500Y-89249500D01*
X127507461Y-89229815D01*
X127461706Y-89177011D01*
X127450500Y-89125500D01*
X127450500Y-87339059D01*
X127450501Y-87339046D01*
X127450501Y-87170945D01*
X127450501Y-87170943D01*
X127409577Y-87018215D01*
X127355255Y-86924127D01*
X127330520Y-86881284D01*
X127218716Y-86769480D01*
X127218713Y-86769478D01*
X126941365Y-86492130D01*
X126907880Y-86430807D01*
X126912864Y-86361115D01*
X126954736Y-86305182D01*
X126965909Y-86297727D01*
X126995687Y-86280117D01*
X127110117Y-86165687D01*
X127192494Y-86026395D01*
X127237643Y-85870993D01*
X127240500Y-85834690D01*
X127240500Y-85365310D01*
X127237643Y-85329007D01*
X127237642Y-85329002D01*
X127190318Y-85166113D01*
X127191594Y-85165742D01*
X127184034Y-85104493D01*
X127199663Y-85061467D01*
X127242406Y-84989191D01*
X127242407Y-84989188D01*
X127287166Y-84835128D01*
X127287167Y-84835122D01*
X127289931Y-84800000D01*
X126744947Y-84800000D01*
X126732118Y-84799335D01*
X126721047Y-84798183D01*
X126700993Y-84792357D01*
X126664690Y-84789500D01*
X126637564Y-84789500D01*
X126631171Y-84788835D01*
X126604553Y-84777917D01*
X126576961Y-84769815D01*
X126572638Y-84764826D01*
X126566528Y-84762320D01*
X126550038Y-84738744D01*
X126531206Y-84717011D01*
X126529566Y-84709476D01*
X126526482Y-84705066D01*
X126526015Y-84693149D01*
X126520000Y-84665500D01*
X126520000Y-84550000D01*
X126394500Y-84550000D01*
X126386033Y-84547514D01*
X126377303Y-84548802D01*
X126353022Y-84537820D01*
X126327461Y-84530315D01*
X126321683Y-84523647D01*
X126313641Y-84520010D01*
X126299151Y-84497643D01*
X126281706Y-84477511D01*
X126279450Y-84467234D01*
X126275652Y-84461371D01*
X126270694Y-84427337D01*
X126270501Y-84426455D01*
X126270499Y-84425979D01*
X126270499Y-84300820D01*
X126270018Y-84294706D01*
X126270001Y-84290061D01*
X126270015Y-84290009D01*
X126270000Y-84289606D01*
X126270000Y-83737154D01*
X126770000Y-83737154D01*
X126770000Y-84300000D01*
X127289931Y-84300000D01*
X127287167Y-84264877D01*
X127287166Y-84264871D01*
X127242407Y-84110811D01*
X127242406Y-84110808D01*
X127160738Y-83972714D01*
X127160731Y-83972705D01*
X127047294Y-83859268D01*
X127047285Y-83859261D01*
X126909191Y-83777593D01*
X126909188Y-83777591D01*
X126770001Y-83737153D01*
X126770000Y-83737154D01*
X126270000Y-83737154D01*
X126270000Y-83737153D01*
X126229197Y-83706517D01*
X126187406Y-83650524D01*
X126182522Y-83580825D01*
X126216095Y-83519550D01*
X126269052Y-83488282D01*
X126316303Y-83474555D01*
X126385491Y-83474555D01*
X126497508Y-83507100D01*
X126499998Y-83507295D01*
X126500000Y-83507295D01*
X126500000Y-83431308D01*
X126508333Y-83402928D01*
X126514084Y-83373911D01*
X126518067Y-83369776D01*
X126519685Y-83364269D01*
X126536314Y-83343631D01*
X126618081Y-83261865D01*
X126701744Y-83120398D01*
X126743625Y-82976243D01*
X126747597Y-82962573D01*
X126747598Y-82962567D01*
X126748293Y-82953739D01*
X126750500Y-82925694D01*
X126750500Y-82409000D01*
X126753050Y-82400314D01*
X126751762Y-82391353D01*
X126762740Y-82367312D01*
X126770185Y-82341961D01*
X126777025Y-82336033D01*
X126780787Y-82327797D01*
X126803021Y-82313507D01*
X126822989Y-82296206D01*
X126833503Y-82293918D01*
X126839565Y-82290023D01*
X126874500Y-82285000D01*
X126876000Y-82285000D01*
X126943039Y-82304685D01*
X126988794Y-82357489D01*
X127000000Y-82409000D01*
X127000000Y-83507295D01*
X127000001Y-83507295D01*
X127002486Y-83507100D01*
X127160198Y-83461281D01*
X127301552Y-83377685D01*
X127301561Y-83377678D01*
X127417678Y-83261561D01*
X127417685Y-83261552D01*
X127501282Y-83120196D01*
X127501283Y-83120193D01*
X127547099Y-82962495D01*
X127547100Y-82962488D01*
X127547487Y-82957574D01*
X127570000Y-82898501D01*
X127570000Y-82086988D01*
X127579940Y-82104205D01*
X127635795Y-82160060D01*
X127704204Y-82199556D01*
X127780504Y-82220000D01*
X127859496Y-82220000D01*
X127935796Y-82199556D01*
X128004205Y-82160060D01*
X128060060Y-82104205D01*
X128070000Y-82086988D01*
X128070000Y-82889862D01*
X128111690Y-82881569D01*
X128111692Y-82881569D01*
X128293671Y-82806192D01*
X128293684Y-82806185D01*
X128457462Y-82696751D01*
X128457466Y-82696748D01*
X128596748Y-82557466D01*
X128596751Y-82557462D01*
X128706185Y-82393684D01*
X128706192Y-82393671D01*
X128781569Y-82211693D01*
X128781572Y-82211681D01*
X128819999Y-82018495D01*
X128820000Y-82018492D01*
X128820000Y-81620000D01*
X128120000Y-81620000D01*
X128120000Y-81120000D01*
X128820000Y-81120000D01*
X128820000Y-80721508D01*
X128819999Y-80721504D01*
X128781572Y-80528318D01*
X128781569Y-80528306D01*
X128706192Y-80346328D01*
X128706185Y-80346315D01*
X128596751Y-80182537D01*
X128596748Y-80182533D01*
X128473719Y-80059504D01*
X128440234Y-79998181D01*
X128445218Y-79928489D01*
X128473714Y-79884148D01*
X130051045Y-78306819D01*
X130112368Y-78273334D01*
X130138726Y-78270500D01*
X131375501Y-78270500D01*
X131442540Y-78290185D01*
G37*
%TD.AperFunction*%
%TA.AperFunction,Conductor*%
G36*
X118279745Y-86700075D02*
G01*
X118365255Y-86749444D01*
X118460630Y-86775000D01*
X118559370Y-86775000D01*
X118654745Y-86749444D01*
X118740255Y-86700075D01*
X118754500Y-86685830D01*
X118754500Y-86726002D01*
X118757617Y-86741671D01*
X118760000Y-86765865D01*
X118760000Y-87650000D01*
X118767701Y-87657701D01*
X118801186Y-87719024D01*
X118796202Y-87788716D01*
X118767701Y-87833063D01*
X118447584Y-88153181D01*
X118386261Y-88186666D01*
X118359903Y-88189500D01*
X118245302Y-88189500D01*
X118209008Y-88192356D01*
X118209002Y-88192357D01*
X118053609Y-88237504D01*
X118053604Y-88237506D01*
X118032628Y-88249911D01*
X117964903Y-88267092D01*
X117906389Y-88249911D01*
X117886195Y-88237968D01*
X117730909Y-88192854D01*
X117694644Y-88190000D01*
X117634500Y-88190000D01*
X117567461Y-88170315D01*
X117521706Y-88117511D01*
X117510500Y-88066000D01*
X117510500Y-87667092D01*
X117530185Y-87600053D01*
X117582989Y-87554298D01*
X117652147Y-87544354D01*
X117708812Y-87567826D01*
X117742910Y-87593352D01*
X117742913Y-87593354D01*
X117877620Y-87643596D01*
X117877627Y-87643598D01*
X117937155Y-87649999D01*
X117937172Y-87650000D01*
X118260000Y-87650000D01*
X118260000Y-86680330D01*
X118279745Y-86700075D01*
G37*
%TD.AperFunction*%
%TA.AperFunction,Conductor*%
G36*
X131419333Y-82592413D02*
G01*
X131475267Y-82634285D01*
X131499684Y-82699749D01*
X131500000Y-82708595D01*
X131500000Y-82856246D01*
X131533242Y-83066127D01*
X131533242Y-83066130D01*
X131598904Y-83268217D01*
X131695375Y-83457550D01*
X131734728Y-83511716D01*
X132367037Y-82879408D01*
X132384075Y-82942993D01*
X132449901Y-83057007D01*
X132542993Y-83150099D01*
X132657007Y-83215925D01*
X132720590Y-83232962D01*
X132088282Y-83865269D01*
X132088282Y-83865270D01*
X132142452Y-83904626D01*
X132142451Y-83904626D01*
X132151495Y-83909234D01*
X132202292Y-83957208D01*
X132219087Y-84025029D01*
X132196550Y-84091164D01*
X132151499Y-84130202D01*
X132142182Y-84134949D01*
X131970213Y-84259890D01*
X131819890Y-84410213D01*
X131694951Y-84582179D01*
X131598444Y-84771585D01*
X131532753Y-84973760D01*
X131499500Y-85183713D01*
X131499500Y-85396286D01*
X131532754Y-85606244D01*
X131532754Y-85606247D01*
X131546491Y-85648523D01*
X131548486Y-85718364D01*
X131516241Y-85774522D01*
X130562181Y-86728583D01*
X130500858Y-86762068D01*
X130431167Y-86757084D01*
X130375233Y-86715212D01*
X130350816Y-86649748D01*
X130350500Y-86640902D01*
X130350500Y-83610096D01*
X130370185Y-83543057D01*
X130386814Y-83522420D01*
X131288322Y-82620912D01*
X131349642Y-82587429D01*
X131419333Y-82592413D01*
G37*
%TD.AperFunction*%
%TA.AperFunction,Conductor*%
G36*
X119430000Y-82904390D02*
G01*
X119446894Y-82929193D01*
X119452511Y-82957563D01*
X119452898Y-82962482D01*
X119452900Y-82962495D01*
X119498716Y-83120193D01*
X119498717Y-83120196D01*
X119582314Y-83261552D01*
X119582321Y-83261561D01*
X119698438Y-83377678D01*
X119698447Y-83377685D01*
X119839801Y-83461281D01*
X119997514Y-83507100D01*
X119997511Y-83507100D01*
X119999998Y-83507295D01*
X120000000Y-83507295D01*
X120000000Y-82409000D01*
X120002550Y-82400314D01*
X120001262Y-82391353D01*
X120012240Y-82367312D01*
X120019685Y-82341961D01*
X120026525Y-82336033D01*
X120030287Y-82327797D01*
X120052521Y-82313507D01*
X120072489Y-82296206D01*
X120083003Y-82293918D01*
X120089065Y-82290023D01*
X120124000Y-82285000D01*
X120125500Y-82285000D01*
X120192539Y-82304685D01*
X120238294Y-82357489D01*
X120249500Y-82409000D01*
X120249500Y-82925701D01*
X120252401Y-82962567D01*
X120252402Y-82962573D01*
X120298254Y-83120393D01*
X120298255Y-83120396D01*
X120381917Y-83261862D01*
X120381923Y-83261870D01*
X120413180Y-83293126D01*
X120446666Y-83354448D01*
X120449500Y-83380808D01*
X120449500Y-84604902D01*
X120429815Y-84671941D01*
X120413181Y-84692583D01*
X119990644Y-85115119D01*
X119929321Y-85148604D01*
X119887174Y-85148985D01*
X119887065Y-85150097D01*
X119881003Y-85149500D01*
X119678997Y-85149500D01*
X119678992Y-85149500D01*
X119480880Y-85188907D01*
X119480868Y-85188910D01*
X119399661Y-85222547D01*
X119330191Y-85230016D01*
X119285140Y-85210405D01*
X119284872Y-85210897D01*
X119279374Y-85207894D01*
X119277895Y-85207251D01*
X119277086Y-85206645D01*
X119142379Y-85156403D01*
X119142372Y-85156401D01*
X119082844Y-85150000D01*
X118760000Y-85150000D01*
X118760000Y-86034134D01*
X118757617Y-86058326D01*
X118754500Y-86073995D01*
X118754500Y-86114170D01*
X118740255Y-86099925D01*
X118654745Y-86050556D01*
X118559370Y-86025000D01*
X118460630Y-86025000D01*
X118365255Y-86050556D01*
X118279745Y-86099925D01*
X118260000Y-86119670D01*
X118260000Y-85150000D01*
X117937155Y-85150000D01*
X117877627Y-85156401D01*
X117877620Y-85156403D01*
X117742913Y-85206645D01*
X117735128Y-85210897D01*
X117733512Y-85207938D01*
X117683326Y-85226649D01*
X117615055Y-85211785D01*
X117565658Y-85162372D01*
X117550500Y-85102963D01*
X117550500Y-84324500D01*
X117570185Y-84257461D01*
X117622989Y-84211706D01*
X117674500Y-84200500D01*
X117728844Y-84200500D01*
X117728845Y-84200499D01*
X117883497Y-84169737D01*
X118029179Y-84109394D01*
X118160289Y-84021789D01*
X118271789Y-83910289D01*
X118359394Y-83779179D01*
X118419737Y-83633497D01*
X118450500Y-83478842D01*
X118450500Y-83321158D01*
X118450500Y-83321155D01*
X118450499Y-83321153D01*
X118438645Y-83261561D01*
X118419737Y-83166503D01*
X118388855Y-83091949D01*
X118386776Y-83072609D01*
X118379817Y-83054446D01*
X118382249Y-83030499D01*
X118381387Y-83022482D01*
X118382021Y-83019221D01*
X118382998Y-83014528D01*
X118417665Y-82895204D01*
X118420500Y-82859181D01*
X118420499Y-82834420D01*
X118423103Y-82821919D01*
X118433791Y-82801922D01*
X118440179Y-82780164D01*
X118449947Y-82771698D01*
X118456040Y-82760300D01*
X118475842Y-82749256D01*
X118492980Y-82734405D01*
X118505774Y-82732564D01*
X118517062Y-82726270D01*
X118539691Y-82727685D01*
X118562138Y-82724457D01*
X118576590Y-82729994D01*
X118586795Y-82730633D01*
X118596098Y-82737468D01*
X118613390Y-82744094D01*
X118706315Y-82806185D01*
X118706328Y-82806192D01*
X118888308Y-82881569D01*
X118930000Y-82889862D01*
X118930000Y-82086988D01*
X118939940Y-82104205D01*
X118995795Y-82160060D01*
X119064204Y-82199556D01*
X119140504Y-82220000D01*
X119219496Y-82220000D01*
X119295796Y-82199556D01*
X119364205Y-82160060D01*
X119420060Y-82104205D01*
X119430000Y-82086988D01*
X119430000Y-82904390D01*
G37*
%TD.AperFunction*%
%TA.AperFunction,Conductor*%
G36*
X122543211Y-84137621D02*
G01*
X122545118Y-84137439D01*
X122574602Y-84152638D01*
X122604513Y-84166949D01*
X122606059Y-84168856D01*
X122607221Y-84169455D01*
X122629038Y-84197198D01*
X122669477Y-84267241D01*
X122669481Y-84267246D01*
X122731970Y-84329735D01*
X122765455Y-84391058D01*
X122760471Y-84460750D01*
X122718599Y-84516683D01*
X122678885Y-84536492D01*
X122673808Y-84537966D01*
X122673804Y-84537968D01*
X122534625Y-84620278D01*
X122534616Y-84620285D01*
X122420285Y-84734616D01*
X122420278Y-84734625D01*
X122337968Y-84873804D01*
X122295496Y-85020000D01*
X122976000Y-85020000D01*
X122984685Y-85022550D01*
X122993647Y-85021262D01*
X123017687Y-85032240D01*
X123043039Y-85039685D01*
X123048966Y-85046525D01*
X123057203Y-85050287D01*
X123071492Y-85072521D01*
X123088794Y-85092489D01*
X123091081Y-85103003D01*
X123094977Y-85109065D01*
X123100000Y-85144000D01*
X123100000Y-85325500D01*
X123080315Y-85392539D01*
X123027511Y-85438294D01*
X122976000Y-85449500D01*
X122865302Y-85449500D01*
X122829008Y-85452356D01*
X122829002Y-85452357D01*
X122673610Y-85497503D01*
X122673605Y-85497506D01*
X122664766Y-85502732D01*
X122601648Y-85520000D01*
X122295496Y-85520000D01*
X122330621Y-85640906D01*
X122330545Y-85667162D01*
X122334282Y-85693147D01*
X122330447Y-85701543D01*
X122330421Y-85710775D01*
X122316163Y-85732820D01*
X122305257Y-85756703D01*
X122297490Y-85761694D01*
X122292478Y-85769445D01*
X122268566Y-85780282D01*
X122246479Y-85794477D01*
X122232958Y-85796421D01*
X122228839Y-85798288D01*
X122211544Y-85799500D01*
X122087310Y-85799500D01*
X122020271Y-85779815D01*
X121974516Y-85727011D01*
X121972749Y-85722953D01*
X121963880Y-85701543D01*
X121958786Y-85689244D01*
X121958784Y-85689241D01*
X121958782Y-85689237D01*
X121846558Y-85521281D01*
X121703721Y-85378444D01*
X121703717Y-85378441D01*
X121631668Y-85330299D01*
X121586863Y-85276687D01*
X121578156Y-85207362D01*
X121593179Y-85165186D01*
X121596474Y-85159480D01*
X121609577Y-85136785D01*
X121650500Y-84984058D01*
X121650500Y-84825943D01*
X121650500Y-84674500D01*
X121670185Y-84607461D01*
X121722989Y-84561706D01*
X121774500Y-84550500D01*
X121828844Y-84550500D01*
X121828845Y-84550499D01*
X121983497Y-84519737D01*
X122107953Y-84468186D01*
X122129172Y-84459397D01*
X122129172Y-84459396D01*
X122129179Y-84459394D01*
X122260289Y-84371789D01*
X122371789Y-84260289D01*
X122418549Y-84190306D01*
X122420018Y-84189079D01*
X122420644Y-84187271D01*
X122446711Y-84166770D01*
X122472160Y-84145503D01*
X122474058Y-84145264D01*
X122475565Y-84144080D01*
X122508598Y-84140925D01*
X122541485Y-84136795D01*
X122543211Y-84137621D01*
G37*
%TD.AperFunction*%
%TA.AperFunction,Conductor*%
G36*
X133965270Y-83511717D02*
G01*
X133965271Y-83511716D01*
X133975182Y-83498076D01*
X134030512Y-83455410D01*
X134100125Y-83449431D01*
X134161920Y-83482037D01*
X134196278Y-83542876D01*
X134199500Y-83570961D01*
X134199500Y-84468186D01*
X134179815Y-84535225D01*
X134127011Y-84580980D01*
X134057853Y-84590924D01*
X133994297Y-84561899D01*
X133975182Y-84541071D01*
X133880109Y-84410214D01*
X133880105Y-84410209D01*
X133729786Y-84259890D01*
X133557817Y-84134949D01*
X133548504Y-84130204D01*
X133497707Y-84082230D01*
X133480912Y-84014409D01*
X133503449Y-83948274D01*
X133548507Y-83909232D01*
X133557555Y-83904622D01*
X133611716Y-83865270D01*
X133611717Y-83865270D01*
X132979408Y-83232962D01*
X133042993Y-83215925D01*
X133157007Y-83150099D01*
X133250099Y-83057007D01*
X133315925Y-82942993D01*
X133332962Y-82879409D01*
X133965270Y-83511717D01*
G37*
%TD.AperFunction*%
%TA.AperFunction,Conductor*%
G36*
X134161920Y-80942888D02*
G01*
X134196277Y-81003727D01*
X134199500Y-81031813D01*
X134199500Y-81929038D01*
X134179815Y-81996077D01*
X134127011Y-82041832D01*
X134057853Y-82051776D01*
X133994297Y-82022751D01*
X133975182Y-82001923D01*
X133965271Y-81988282D01*
X133965269Y-81988282D01*
X133332962Y-82620590D01*
X133315925Y-82557007D01*
X133250099Y-82442993D01*
X133157007Y-82349901D01*
X133042993Y-82284075D01*
X132979408Y-82267037D01*
X133611716Y-81634728D01*
X133557547Y-81595373D01*
X133557547Y-81595372D01*
X133548500Y-81590763D01*
X133497706Y-81542788D01*
X133480912Y-81474966D01*
X133503451Y-81408832D01*
X133548508Y-81369793D01*
X133557816Y-81365051D01*
X133675546Y-81279516D01*
X133729786Y-81240109D01*
X133729788Y-81240106D01*
X133729792Y-81240104D01*
X133880104Y-81089792D01*
X133975182Y-80958926D01*
X134030511Y-80916262D01*
X134100124Y-80910283D01*
X134161920Y-80942888D01*
G37*
%TD.AperFunction*%
%TA.AperFunction,Conductor*%
G36*
X118306479Y-76170185D02*
G01*
X118352234Y-76222989D01*
X118362178Y-76292147D01*
X118342542Y-76343391D01*
X118293814Y-76416316D01*
X118293807Y-76416328D01*
X118218430Y-76598306D01*
X118218427Y-76598318D01*
X118180000Y-76791504D01*
X118180000Y-76940000D01*
X118880000Y-76940000D01*
X118880000Y-77440000D01*
X118180000Y-77440000D01*
X118180000Y-77588495D01*
X118218427Y-77781681D01*
X118218430Y-77781693D01*
X118293807Y-77963671D01*
X118293814Y-77963684D01*
X118403248Y-78127462D01*
X118403251Y-78127466D01*
X118542533Y-78266748D01*
X118542537Y-78266751D01*
X118706315Y-78376185D01*
X118706328Y-78376192D01*
X118888308Y-78451569D01*
X118930000Y-78459862D01*
X118930000Y-77656988D01*
X118939940Y-77674205D01*
X118995795Y-77730060D01*
X119064204Y-77769556D01*
X119140504Y-77790000D01*
X119219496Y-77790000D01*
X119295796Y-77769556D01*
X119364205Y-77730060D01*
X119420060Y-77674205D01*
X119430000Y-77656988D01*
X119430000Y-78459862D01*
X119471690Y-78451569D01*
X119471692Y-78451569D01*
X119653671Y-78376192D01*
X119653684Y-78376185D01*
X119817462Y-78266751D01*
X119817466Y-78266748D01*
X119956748Y-78127466D01*
X119956751Y-78127462D01*
X120066185Y-77963684D01*
X120066192Y-77963671D01*
X120141569Y-77781693D01*
X120141572Y-77781681D01*
X120179999Y-77588495D01*
X120180000Y-77588492D01*
X120180000Y-77440000D01*
X119480000Y-77440000D01*
X119480000Y-76940000D01*
X120180000Y-76940000D01*
X120180000Y-76791508D01*
X120179999Y-76791504D01*
X120141572Y-76598318D01*
X120141569Y-76598306D01*
X120066192Y-76416328D01*
X120066185Y-76416316D01*
X120017458Y-76343391D01*
X119996580Y-76276714D01*
X120015064Y-76209334D01*
X120067043Y-76162643D01*
X120120560Y-76150500D01*
X126879440Y-76150500D01*
X126946479Y-76170185D01*
X126992234Y-76222989D01*
X127002178Y-76292147D01*
X126982542Y-76343391D01*
X126933814Y-76416316D01*
X126933807Y-76416328D01*
X126858430Y-76598306D01*
X126858427Y-76598318D01*
X126820000Y-76791504D01*
X126820000Y-76940000D01*
X127520000Y-76940000D01*
X127520000Y-77440000D01*
X126820000Y-77440000D01*
X126820000Y-77588495D01*
X126858427Y-77781681D01*
X126858430Y-77781693D01*
X126933807Y-77963671D01*
X126933814Y-77963684D01*
X127043248Y-78127462D01*
X127043251Y-78127466D01*
X127182533Y-78266748D01*
X127182537Y-78266751D01*
X127346315Y-78376185D01*
X127346328Y-78376192D01*
X127528308Y-78451569D01*
X127570000Y-78459862D01*
X127570000Y-77656988D01*
X127579940Y-77674205D01*
X127635795Y-77730060D01*
X127704204Y-77769556D01*
X127780504Y-77790000D01*
X127859496Y-77790000D01*
X127935796Y-77769556D01*
X128004205Y-77730060D01*
X128060060Y-77674205D01*
X128070000Y-77656988D01*
X128070000Y-78482273D01*
X128074721Y-78489205D01*
X128076590Y-78559049D01*
X128044402Y-78614990D01*
X127131213Y-79528181D01*
X127069890Y-79561666D01*
X127043532Y-79564500D01*
X126197076Y-79564500D01*
X126197060Y-79564499D01*
X126189464Y-79564499D01*
X126031349Y-79564499D01*
X125954985Y-79584961D01*
X125878620Y-79605423D01*
X125878615Y-79605426D01*
X125741696Y-79684475D01*
X125741688Y-79684481D01*
X125475383Y-79950786D01*
X125467437Y-79955124D01*
X125462012Y-79962372D01*
X125437252Y-79971606D01*
X125414060Y-79984271D01*
X125405030Y-79983625D01*
X125396548Y-79986789D01*
X125370727Y-79981172D01*
X125344368Y-79979287D01*
X125335314Y-79973468D01*
X125328275Y-79971937D01*
X125300021Y-79950786D01*
X125137590Y-79788355D01*
X125137588Y-79788352D01*
X125018717Y-79669481D01*
X125018712Y-79669477D01*
X124933995Y-79620567D01*
X124901123Y-79601588D01*
X124881785Y-79590423D01*
X124881782Y-79590422D01*
X124851826Y-79582395D01*
X124729057Y-79549499D01*
X124570943Y-79549499D01*
X124563347Y-79549499D01*
X124563331Y-79549500D01*
X122546671Y-79549500D01*
X122546655Y-79549499D01*
X122539059Y-79549499D01*
X122380944Y-79549499D01*
X122324965Y-79564499D01*
X122228215Y-79590423D01*
X122228210Y-79590426D01*
X122091291Y-79669475D01*
X122091283Y-79669481D01*
X121258900Y-80501864D01*
X121197577Y-80535349D01*
X121127885Y-80530365D01*
X121076367Y-80492276D01*
X121076262Y-80492382D01*
X121075556Y-80491676D01*
X121072844Y-80489671D01*
X121070517Y-80486638D01*
X121070515Y-80486635D01*
X120963365Y-80379485D01*
X120864838Y-80322600D01*
X120832136Y-80303719D01*
X120758950Y-80284109D01*
X120685766Y-80264500D01*
X120534234Y-80264500D01*
X120387863Y-80303719D01*
X120256635Y-80379485D01*
X120250189Y-80384432D01*
X120248099Y-80381709D01*
X120200217Y-80407466D01*
X120130558Y-80402043D01*
X120074888Y-80359821D01*
X120069299Y-80350976D01*
X119956751Y-80182537D01*
X119956748Y-80182533D01*
X119817466Y-80043251D01*
X119817462Y-80043248D01*
X119653684Y-79933814D01*
X119653671Y-79933807D01*
X119471691Y-79858429D01*
X119471683Y-79858427D01*
X119430000Y-79850135D01*
X119430000Y-80653011D01*
X119420060Y-80635795D01*
X119364205Y-80579940D01*
X119295796Y-80540444D01*
X119219496Y-80520000D01*
X119140504Y-80520000D01*
X119064204Y-80540444D01*
X118995795Y-80579940D01*
X118939940Y-80635795D01*
X118930000Y-80653011D01*
X118930000Y-79850136D01*
X118929999Y-79850135D01*
X118888316Y-79858427D01*
X118888308Y-79858429D01*
X118706328Y-79933807D01*
X118706315Y-79933814D01*
X118542537Y-80043248D01*
X118542533Y-80043251D01*
X118403251Y-80182533D01*
X118403248Y-80182537D01*
X118293814Y-80346315D01*
X118293807Y-80346328D01*
X118218430Y-80528306D01*
X118218427Y-80528318D01*
X118180000Y-80721504D01*
X118180000Y-80793349D01*
X118160315Y-80860388D01*
X118107511Y-80906143D01*
X118038353Y-80916087D01*
X118021406Y-80912426D01*
X117885127Y-80872833D01*
X117850000Y-80870068D01*
X117850000Y-81516000D01*
X117847449Y-81524685D01*
X117848738Y-81533647D01*
X117837759Y-81557687D01*
X117830315Y-81583039D01*
X117823474Y-81588966D01*
X117819713Y-81597203D01*
X117797478Y-81611492D01*
X117777511Y-81628794D01*
X117766996Y-81631081D01*
X117760935Y-81634977D01*
X117726000Y-81640000D01*
X117674500Y-81640000D01*
X117607461Y-81620315D01*
X117561706Y-81567511D01*
X117550500Y-81516000D01*
X117550500Y-80669060D01*
X117550501Y-80669047D01*
X117550501Y-80500944D01*
X117548207Y-80492382D01*
X117509577Y-80348216D01*
X117508487Y-80346328D01*
X117430524Y-80211290D01*
X117430518Y-80211282D01*
X115336818Y-78117582D01*
X115303333Y-78056259D01*
X115300499Y-78029901D01*
X115300499Y-76682129D01*
X115300498Y-76682123D01*
X115294091Y-76622516D01*
X115243797Y-76487671D01*
X115243793Y-76487664D01*
X115157547Y-76372455D01*
X115151275Y-76366183D01*
X115152617Y-76364840D01*
X115117428Y-76317833D01*
X115112444Y-76248141D01*
X115145929Y-76186818D01*
X115207252Y-76153334D01*
X115233610Y-76150500D01*
X118239440Y-76150500D01*
X118306479Y-76170185D01*
G37*
%TD.AperFunction*%
%TA.AperFunction,Conductor*%
G36*
X131753653Y-76170185D02*
G01*
X131799408Y-76222989D01*
X131809352Y-76292147D01*
X131780327Y-76355703D01*
X131760925Y-76373767D01*
X131757670Y-76376203D01*
X131757669Y-76376204D01*
X131642454Y-76462454D01*
X131642453Y-76462455D01*
X131642452Y-76462456D01*
X131556206Y-76577664D01*
X131556202Y-76577671D01*
X131505908Y-76712517D01*
X131499501Y-76772116D01*
X131499500Y-76772135D01*
X131499500Y-76945500D01*
X131479815Y-77012539D01*
X131427011Y-77058294D01*
X131375500Y-77069500D01*
X129925298Y-77069500D01*
X129925282Y-77069499D01*
X129917686Y-77069499D01*
X129759572Y-77069499D01*
X129652216Y-77098265D01*
X129606839Y-77110424D01*
X129606838Y-77110425D01*
X129556725Y-77139359D01*
X129556724Y-77139360D01*
X129513318Y-77164420D01*
X129469914Y-77189479D01*
X129469911Y-77189481D01*
X129358107Y-77301286D01*
X129031681Y-77627711D01*
X128970358Y-77661196D01*
X128900666Y-77656212D01*
X128844733Y-77614340D01*
X128820316Y-77548876D01*
X128820000Y-77540030D01*
X128820000Y-77440000D01*
X128120000Y-77440000D01*
X128120000Y-76940000D01*
X128820000Y-76940000D01*
X128820000Y-76791508D01*
X128819999Y-76791504D01*
X128781572Y-76598318D01*
X128781569Y-76598306D01*
X128706192Y-76416328D01*
X128706185Y-76416316D01*
X128657458Y-76343391D01*
X128636580Y-76276714D01*
X128655064Y-76209334D01*
X128707043Y-76162643D01*
X128760560Y-76150500D01*
X131686614Y-76150500D01*
X131753653Y-76170185D01*
G37*
%TD.AperFunction*%
%TD*%
M02*
