%TF.GenerationSoftware,KiCad,Pcbnew,10.0.1*%
%TF.CreationDate,2026-06-08T15:33:48+02:00*%
%TF.ProjectId,devboard,64657662-6f61-4726-942e-6b696361645f,rev?*%
%TF.SameCoordinates,Original*%
%TF.FileFunction,Copper,L1,Top*%
%TF.FilePolarity,Positive*%
%FSLAX46Y46*%
G04 Gerber Fmt 4.6, Leading zero omitted, Abs format (unit mm)*
G04 Created by KiCad (PCBNEW 10.0.1) date 2026-06-08 15:33:48*
%MOMM*%
%LPD*%
G01*
G04 APERTURE LIST*
G04 Aperture macros list*
%AMRoundRect*
0 Rectangle with rounded corners*
0 $1 Rounding radius*
0 $2 $3 $4 $5 $6 $7 $8 $9 X,Y pos of 4 corners*
0 Add a 4 corners polygon primitive as box body*
4,1,4,$2,$3,$4,$5,$6,$7,$8,$9,$2,$3,0*
0 Add four circle primitives for the rounded corners*
1,1,$1+$1,$2,$3*
1,1,$1+$1,$4,$5*
1,1,$1+$1,$6,$7*
1,1,$1+$1,$8,$9*
0 Add four rect primitives between the rounded corners*
20,1,$1+$1,$2,$3,$4,$5,0*
20,1,$1+$1,$4,$5,$6,$7,0*
20,1,$1+$1,$6,$7,$8,$9,0*
20,1,$1+$1,$8,$9,$2,$3,0*%
G04 Aperture macros list end*
%TA.AperFunction,SMDPad,CuDef*%
%ADD10RoundRect,0.140000X0.170000X-0.140000X0.170000X0.140000X-0.170000X0.140000X-0.170000X-0.140000X0*%
%TD*%
%TA.AperFunction,SMDPad,CuDef*%
%ADD11RoundRect,0.135000X0.185000X-0.135000X0.185000X0.135000X-0.185000X0.135000X-0.185000X-0.135000X0*%
%TD*%
%TA.AperFunction,ComponentPad*%
%ADD12R,1.050000X1.500000*%
%TD*%
%TA.AperFunction,ComponentPad*%
%ADD13O,1.050000X1.500000*%
%TD*%
%TA.AperFunction,SMDPad,CuDef*%
%ADD14RoundRect,0.140000X-0.170000X0.140000X-0.170000X-0.140000X0.170000X-0.140000X0.170000X0.140000X0*%
%TD*%
%TA.AperFunction,SMDPad,CuDef*%
%ADD15RoundRect,0.140000X-0.140000X-0.170000X0.140000X-0.170000X0.140000X0.170000X-0.140000X0.170000X0*%
%TD*%
%TA.AperFunction,SMDPad,CuDef*%
%ADD16RoundRect,0.135000X-0.185000X0.135000X-0.185000X-0.135000X0.185000X-0.135000X0.185000X0.135000X0*%
%TD*%
%TA.AperFunction,SMDPad,CuDef*%
%ADD17RoundRect,0.140000X0.140000X0.170000X-0.140000X0.170000X-0.140000X-0.170000X0.140000X-0.170000X0*%
%TD*%
%TA.AperFunction,SMDPad,CuDef*%
%ADD18RoundRect,0.150000X0.150000X0.575000X-0.150000X0.575000X-0.150000X-0.575000X0.150000X-0.575000X0*%
%TD*%
%TA.AperFunction,SMDPad,CuDef*%
%ADD19RoundRect,0.075000X0.075000X0.650000X-0.075000X0.650000X-0.075000X-0.650000X0.075000X-0.650000X0*%
%TD*%
%TA.AperFunction,ComponentPad*%
%ADD20O,1.000000X2.100000*%
%TD*%
%TA.AperFunction,ComponentPad*%
%ADD21O,1.000000X1.600000*%
%TD*%
%TA.AperFunction,SMDPad,CuDef*%
%ADD22RoundRect,0.135000X-0.135000X-0.185000X0.135000X-0.185000X0.135000X0.185000X-0.135000X0.185000X0*%
%TD*%
%TA.AperFunction,SMDPad,CuDef*%
%ADD23RoundRect,0.162500X-0.650000X-0.162500X0.650000X-0.162500X0.650000X0.162500X-0.650000X0.162500X0*%
%TD*%
%TA.AperFunction,SMDPad,CuDef*%
%ADD24RoundRect,0.050000X-0.387500X-0.050000X0.387500X-0.050000X0.387500X0.050000X-0.387500X0.050000X0*%
%TD*%
%TA.AperFunction,SMDPad,CuDef*%
%ADD25RoundRect,0.050000X-0.050000X-0.387500X0.050000X-0.387500X0.050000X0.387500X-0.050000X0.387500X0*%
%TD*%
%TA.AperFunction,HeatsinkPad*%
%ADD26R,3.200000X3.200000*%
%TD*%
%TA.AperFunction,ComponentPad*%
%ADD27R,1.700000X1.700000*%
%TD*%
%TA.AperFunction,ComponentPad*%
%ADD28C,1.700000*%
%TD*%
%TA.AperFunction,SMDPad,CuDef*%
%ADD29RoundRect,0.200000X-0.200000X-0.800000X0.200000X-0.800000X0.200000X0.800000X-0.200000X0.800000X0*%
%TD*%
%TA.AperFunction,SMDPad,CuDef*%
%ADD30RoundRect,0.135000X0.135000X0.185000X-0.135000X0.185000X-0.135000X-0.185000X0.135000X-0.185000X0*%
%TD*%
%TA.AperFunction,SMDPad,CuDef*%
%ADD31RoundRect,0.250000X-0.450000X-0.350000X0.450000X-0.350000X0.450000X0.350000X-0.450000X0.350000X0*%
%TD*%
%TA.AperFunction,ViaPad*%
%ADD32C,0.600000*%
%TD*%
%TA.AperFunction,Conductor*%
%ADD33C,0.200000*%
%TD*%
G04 APERTURE END LIST*
D10*
%TO.P,C16,1*%
%TO.N,GND*%
X125900000Y-120460000D03*
%TO.P,C16,2*%
%TO.N,Net-(C16-Pad2)*%
X125900000Y-119500000D03*
%TD*%
D11*
%TO.P,R7,1*%
%TO.N,Net-(R7-Pad1)*%
X118450000Y-91960000D03*
%TO.P,R7,2*%
%TO.N,QSPI_SCLK*%
X118450000Y-90940000D03*
%TD*%
D12*
%TO.P,U4,1,GND_1*%
%TO.N,GND*%
X119630000Y-86360000D03*
D13*
%TO.P,U4,2,VI_2*%
%TO.N,VBUS*%
X120900000Y-86360000D03*
%TO.P,U4,3,VO_3*%
%TO.N,+3V3*%
X122170000Y-86360000D03*
%TD*%
D14*
%TO.P,C10,1*%
%TO.N,+1V1*%
X125100000Y-117170000D03*
%TO.P,C10,2*%
%TO.N,GND*%
X125100000Y-118130000D03*
%TD*%
D15*
%TO.P,C18,1*%
%TO.N,GND*%
X129490000Y-77850000D03*
%TO.P,C18,2*%
%TO.N,+3V3*%
X130450000Y-77850000D03*
%TD*%
D10*
%TO.P,C8,1*%
%TO.N,+3V3*%
X126950000Y-87030000D03*
%TO.P,C8,2*%
%TO.N,GND*%
X126950000Y-86070000D03*
%TD*%
D16*
%TO.P,R6,1*%
%TO.N,+3V3*%
X118500000Y-88950000D03*
%TO.P,R6,2*%
%TO.N,QSPI_SCLK*%
X118500000Y-89970000D03*
%TD*%
D17*
%TO.P,C9,1*%
%TO.N,+3V3*%
X130450000Y-86500000D03*
%TO.P,C9,2*%
%TO.N,GND*%
X129490000Y-86500000D03*
%TD*%
D18*
%TO.P,J1,A1,GND_A1*%
%TO.N,GND*%
X126750000Y-82285000D03*
%TO.P,J1,A4,VBUS_A4*%
%TO.N,VBUS*%
X125950000Y-82285000D03*
D19*
%TO.P,J1,A5,CC1_A5*%
%TO.N,Net-(J1-CC1)*%
X124750000Y-82285000D03*
%TO.P,J1,A6,D+_A6*%
%TO.N,USB_D+*%
X123750000Y-82285000D03*
%TO.P,J1,A7,D-_A7*%
%TO.N,USB_D-*%
X123250000Y-82285000D03*
%TO.P,J1,A8,SBU1_A8*%
%TO.N,unconnected-(J1-SBU1-PadA8)*%
X122250000Y-82285000D03*
D18*
%TO.P,J1,A9,VBUS_A9*%
%TO.N,VBUS*%
X121050000Y-82285000D03*
%TO.P,J1,A12,GND_A12*%
%TO.N,GND*%
X120250000Y-82285000D03*
%TO.P,J1,B1,GND_B1*%
X120250000Y-82285000D03*
%TO.P,J1,B4,VBUS_B4*%
%TO.N,VBUS*%
X121050000Y-82285000D03*
D19*
%TO.P,J1,B5,CC2_B5*%
%TO.N,Net-(J1-CC2)*%
X121750000Y-82285000D03*
%TO.P,J1,B6,D+_B6*%
%TO.N,USB_D+*%
X122750000Y-82285000D03*
%TO.P,J1,B7,D-_B7*%
%TO.N,USB_D-*%
X124250000Y-82285000D03*
%TO.P,J1,B8,SBU2_B8*%
%TO.N,unconnected-(J1-SBU2-PadB8)*%
X125250000Y-82285000D03*
D18*
%TO.P,J1,B9,VBUS_B9*%
%TO.N,VBUS*%
X125950000Y-82285000D03*
%TO.P,J1,B12,GND_B12*%
%TO.N,GND*%
X126750000Y-82285000D03*
D20*
%TO.P,J1,SH,SHIELD_SH*%
X127820000Y-81370000D03*
D21*
X127820000Y-77190000D03*
D20*
X119180000Y-81370000D03*
D21*
X119180000Y-77190000D03*
%TD*%
D16*
%TO.P,R5,1*%
%TO.N,XOUT*%
X124650000Y-119500000D03*
%TO.P,R5,2*%
%TO.N,Net-(C16-Pad2)*%
X124650000Y-120520000D03*
%TD*%
%TO.P,R2,1*%
%TO.N,GND*%
X117600000Y-81640000D03*
%TO.P,R2,2*%
%TO.N,Net-(J1-CC2)*%
X117600000Y-82660000D03*
%TD*%
D22*
%TO.P,R3,1*%
%TO.N,USB_D-*%
X123900000Y-94750000D03*
%TO.P,R3,2*%
%TO.N,Net-(U1-USB_DM)*%
X124920000Y-94750000D03*
%TD*%
D23*
%TO.P,U3,1,~{CS}_1*%
%TO.N,QSPI_SCLK*%
X120212500Y-89480000D03*
%TO.P,U3,2,DO/IO_{1}_2*%
%TO.N,QSPI_SD1*%
X120212500Y-90750000D03*
%TO.P,U3,3,~{WP}/IO_{2}_3*%
%TO.N,QSPI_SD2*%
X120212500Y-92020000D03*
%TO.P,U3,4,GND_4*%
%TO.N,GND*%
X120212500Y-93290000D03*
%TO.P,U3,5,DI/IO_{0}_5*%
%TO.N,QSPI_SD0*%
X127387500Y-93290000D03*
%TO.P,U3,6,CLK_6*%
%TO.N,QSPI_SS*%
X127387500Y-92020000D03*
%TO.P,U3,7,~{HOLD}/~{RESET}/IO_{3}_7*%
%TO.N,QSPI_SD3*%
X127387500Y-90750000D03*
%TO.P,U3,8,VCC_8*%
%TO.N,+3V3*%
X127387500Y-89480000D03*
%TD*%
D15*
%TO.P,C17,1*%
%TO.N,GND*%
X129490000Y-76900000D03*
%TO.P,C17,2*%
%TO.N,VBUS*%
X130450000Y-76900000D03*
%TD*%
D10*
%TO.P,C3,1*%
%TO.N,+3V3*%
X117050000Y-85630000D03*
%TO.P,C3,2*%
%TO.N,GND*%
X117050000Y-84670000D03*
%TD*%
D14*
%TO.P,C12,1*%
%TO.N,+1V1*%
X126200000Y-104850000D03*
%TO.P,C12,2*%
%TO.N,GND*%
X126200000Y-105810000D03*
%TD*%
D22*
%TO.P,R4,1*%
%TO.N,USB_D+*%
X122680000Y-95850000D03*
%TO.P,R4,2*%
%TO.N,Net-(U1-USB_DP)*%
X123700000Y-95850000D03*
%TD*%
D17*
%TO.P,C4,1*%
%TO.N,+3V3*%
X130550000Y-84950000D03*
%TO.P,C4,2*%
%TO.N,GND*%
X129590000Y-84950000D03*
%TD*%
D24*
%TO.P,U1,1,IOVDD_1*%
%TO.N,+3V3*%
X120475000Y-109300000D03*
%TO.P,U1,2,GPIO0_2*%
%TO.N,GPIO_0*%
X120475000Y-109700000D03*
%TO.P,U1,3,GPIO1_3*%
%TO.N,GPIO_1*%
X120475000Y-110100000D03*
%TO.P,U1,4,GPIO2_4*%
%TO.N,GPIO_2*%
X120475000Y-110500000D03*
%TO.P,U1,5,GPIO3_5*%
%TO.N,GPIO_3*%
X120475000Y-110900000D03*
%TO.P,U1,6,GPIO4_6*%
%TO.N,GPIO_4*%
X120475000Y-111300000D03*
%TO.P,U1,7,GPIO5_7*%
%TO.N,GPIO_5*%
X120475000Y-111700000D03*
%TO.P,U1,8,GPIO6_8*%
%TO.N,GPIO_6*%
X120475000Y-112100000D03*
%TO.P,U1,9,GPIO7_9*%
%TO.N,GPIO_7*%
X120475000Y-112500000D03*
%TO.P,U1,10,IOVDD_10*%
%TO.N,+3V3*%
X120475000Y-112900000D03*
%TO.P,U1,11,GPIO8_11*%
%TO.N,GPIO_8*%
X120475000Y-113300000D03*
%TO.P,U1,12,GPIO9_12*%
%TO.N,GPIO_13*%
X120475000Y-113700000D03*
%TO.P,U1,13,GPIO10_13*%
%TO.N,GPIO_10*%
X120475000Y-114100000D03*
%TO.P,U1,14,GPIO11_14*%
%TO.N,GPIO_11*%
X120475000Y-114500000D03*
D25*
%TO.P,U1,15,GPIO12_15*%
%TO.N,GPIO_12*%
X121312500Y-115337500D03*
%TO.P,U1,16,GPIO13_16*%
%TO.N,GPIO_13*%
X121712500Y-115337500D03*
%TO.P,U1,17,GPIO14_17*%
X122112500Y-115337500D03*
%TO.P,U1,18,GPIO15_18*%
X122512500Y-115337500D03*
%TO.P,U1,19,TESTEN_19*%
%TO.N,GND*%
X122912500Y-115337500D03*
%TO.P,U1,20,XIN_20*%
%TO.N,XIN*%
X123312500Y-115337500D03*
%TO.P,U1,21,XOUT_21*%
%TO.N,XOUT*%
X123712500Y-115337500D03*
%TO.P,U1,22,IOVDD_22*%
%TO.N,+3V3*%
X124112500Y-115337500D03*
%TO.P,U1,23,DVDD_23*%
%TO.N,+1V1*%
X124512500Y-115337500D03*
%TO.P,U1,24,SWCLK_24*%
%TO.N,SWCLK*%
X124912500Y-115337500D03*
%TO.P,U1,25,SWDIO_25*%
%TO.N,SWD*%
X125312500Y-115337500D03*
%TO.P,U1,26,RUN_26*%
%TO.N,RUN*%
X125712500Y-115337500D03*
%TO.P,U1,27,GPIO16_27*%
%TO.N,GPIO_16*%
X126112500Y-115337500D03*
%TO.P,U1,28,GPIO17_28*%
%TO.N,GPIO_17*%
X126512500Y-115337500D03*
D24*
%TO.P,U1,29,GPIO18_29*%
%TO.N,GPIO_18*%
X127350000Y-114500000D03*
%TO.P,U1,30,GPIO19_30*%
%TO.N,GPIO_19*%
X127350000Y-114100000D03*
%TO.P,U1,31,GPIO20_31*%
%TO.N,GPIO_20*%
X127350000Y-113700000D03*
%TO.P,U1,32,GPIO21_32*%
%TO.N,GPIO_21*%
X127350000Y-113300000D03*
%TO.P,U1,33,IOVDD_33*%
%TO.N,+3V3*%
X127350000Y-112900000D03*
%TO.P,U1,34,GPIO22_34*%
%TO.N,GPIO_22*%
X127350000Y-112500000D03*
%TO.P,U1,35,GPIO23_35*%
%TO.N,GPIO_23*%
X127350000Y-112100000D03*
%TO.P,U1,36,GPIO24_36*%
%TO.N,GPIO_24*%
X127350000Y-111700000D03*
%TO.P,U1,37,GPIO25_37*%
%TO.N,unconnected-(U1-GPIO25-Pad37)*%
X127350000Y-111300000D03*
%TO.P,U1,38,GPIO26/ADC0_38*%
%TO.N,GPIO_26{slash}ADC_0*%
X127350000Y-110900000D03*
%TO.P,U1,39,GPIO27/ADC1_39*%
%TO.N,GPIO_27{slash}ADC_1*%
X127350000Y-110500000D03*
%TO.P,U1,40,GPIO28/ADC2_40*%
%TO.N,GPIO_28{slash}ADC_2*%
X127350000Y-110100000D03*
%TO.P,U1,41,GPIO29/ADC3_41*%
%TO.N,GPIO_29{slash}ADC_3*%
X127350000Y-109700000D03*
%TO.P,U1,42,IOVDD_42*%
%TO.N,+3V3*%
X127350000Y-109300000D03*
D25*
%TO.P,U1,43,ADC_AVDD_43*%
X126512500Y-108462500D03*
%TO.P,U1,44,VREG_VIN_44*%
X126112500Y-108462500D03*
%TO.P,U1,45,VREG_VOUT_45*%
%TO.N,+1V1*%
X125712500Y-108462500D03*
%TO.P,U1,46,USB_DM_46*%
%TO.N,Net-(U1-USB_DM)*%
X125312500Y-108462500D03*
%TO.P,U1,47,USB_DP_47*%
%TO.N,Net-(U1-USB_DP)*%
X124912500Y-108462500D03*
%TO.P,U1,48,USB_VDD_48*%
%TO.N,+3V3*%
X124512500Y-108462500D03*
%TO.P,U1,49,IOVDD_49*%
X124112500Y-108462500D03*
%TO.P,U1,50,DVDD_50*%
%TO.N,+1V1*%
X123712500Y-108462500D03*
%TO.P,U1,51,QSPI_SD3_51*%
%TO.N,QSPI_SD3*%
X123312500Y-108462500D03*
%TO.P,U1,52,QSPI_SCLK_52*%
%TO.N,QSPI_SCLK*%
X122912500Y-108462500D03*
%TO.P,U1,53,QSPI_SD0_53*%
%TO.N,QSPI_SD0*%
X122512500Y-108462500D03*
%TO.P,U1,54,QSPI_SD2_54*%
%TO.N,QSPI_SD2*%
X122112500Y-108462500D03*
%TO.P,U1,55,QSPI_SD1_55*%
%TO.N,QSPI_SD1*%
X121712500Y-108462500D03*
%TO.P,U1,56,~{QSPI_SS}_56*%
%TO.N,QSPI_SS*%
X121312500Y-108462500D03*
D26*
%TO.P,U1,57,GND_57*%
%TO.N,GND*%
X123912500Y-111900000D03*
%TD*%
D17*
%TO.P,C1,1*%
%TO.N,+3V3*%
X124060000Y-117150000D03*
%TO.P,C1,2*%
%TO.N,GND*%
X123100000Y-117150000D03*
%TD*%
D10*
%TO.P,C6,1*%
%TO.N,+3V3*%
X130450000Y-89280000D03*
%TO.P,C6,2*%
%TO.N,GND*%
X130450000Y-88320000D03*
%TD*%
D14*
%TO.P,C15,1*%
%TO.N,GND*%
X117600000Y-118150000D03*
%TO.P,C15,2*%
%TO.N,XIN*%
X117600000Y-119110000D03*
%TD*%
D27*
%TO.P,J4,1,Pin_1_1*%
%TO.N,unconnected-(J4-Pin_1-Pad1)*%
X121510000Y-127500000D03*
D28*
%TO.P,J4,2,Pin_2_2*%
%TO.N,GND*%
X124050000Y-127500000D03*
%TO.P,J4,3,Pin_3_3*%
%TO.N,SWCLK*%
X126590000Y-127500000D03*
%TD*%
D10*
%TO.P,C5,1*%
%TO.N,+3V3*%
X117600000Y-117130000D03*
%TO.P,C5,2*%
%TO.N,GND*%
X117600000Y-116170000D03*
%TD*%
D14*
%TO.P,C11,1*%
%TO.N,+1V1*%
X126200000Y-117200000D03*
%TO.P,C11,2*%
%TO.N,GND*%
X126200000Y-118160000D03*
%TD*%
D29*
%TO.P,SW1,1,1_1*%
%TO.N,GND*%
X120400000Y-123800000D03*
%TO.P,SW1,2,2_2*%
%TO.N,Net-(R7-Pad1)*%
X124600000Y-123800000D03*
%TD*%
D27*
%TO.P,J3,1,Pin_1_1*%
%TO.N,VBUS*%
X132850000Y-77670000D03*
D28*
%TO.P,J3,2,Pin_2_2*%
%TO.N,GPIO_29{slash}ADC_3*%
X132850000Y-80210000D03*
%TO.P,J3,3,Pin_3_3*%
%TO.N,GND*%
X132850000Y-82750000D03*
%TO.P,J3,4,Pin_4_4*%
%TO.N,GPIO_28{slash}ADC_2*%
X132850000Y-85290000D03*
%TO.P,J3,5,Pin_5_5*%
%TO.N,+3V3*%
X132850000Y-87830000D03*
%TO.P,J3,6,Pin_6_6*%
%TO.N,GPIO_27{slash}ADC_1*%
X132850000Y-90370000D03*
%TO.P,J3,7,Pin_7_7*%
%TO.N,GPIO_26{slash}ADC_0*%
X132850000Y-92910000D03*
%TO.P,J3,8,Pin_8_8*%
%TO.N,GND*%
X132850000Y-95450000D03*
%TO.P,J3,9,Pin_9_9*%
%TO.N,GPIO_24*%
X132850000Y-97990000D03*
%TO.P,J3,10,Pin_10_10*%
%TO.N,GPIO_23*%
X132850000Y-100530000D03*
%TO.P,J3,11,Pin_11_11*%
%TO.N,RUN*%
X132850000Y-103070000D03*
%TO.P,J3,12,Pin_12_12*%
%TO.N,GPIO_22*%
X132850000Y-105610000D03*
%TO.P,J3,13,Pin_13_13*%
%TO.N,GND*%
X132850000Y-108150000D03*
%TO.P,J3,14,Pin_14_14*%
%TO.N,GPIO_18*%
X132850000Y-110690000D03*
%TO.P,J3,15,Pin_15_15*%
%TO.N,GPIO_19*%
X132850000Y-113230000D03*
%TO.P,J3,16,Pin_16_16*%
%TO.N,GPIO_20*%
X132850000Y-115770000D03*
%TO.P,J3,17,Pin_17_17*%
%TO.N,GPIO_21*%
X132850000Y-118310000D03*
%TO.P,J3,18,Pin_18_18*%
%TO.N,GND*%
X132850000Y-120850000D03*
%TO.P,J3,19,Pin_19_19*%
%TO.N,GPIO_17*%
X132850000Y-123390000D03*
%TO.P,J3,20,Pin_20_20*%
%TO.N,GPIO_16*%
X132850000Y-125930000D03*
%TD*%
D30*
%TO.P,R1,1*%
%TO.N,GND*%
X126520000Y-84550000D03*
%TO.P,R1,2*%
%TO.N,Net-(J1-CC1)*%
X125500000Y-84550000D03*
%TD*%
D15*
%TO.P,C13,1*%
%TO.N,GND*%
X116520000Y-83600000D03*
%TO.P,C13,2*%
%TO.N,VBUS*%
X117480000Y-83600000D03*
%TD*%
D31*
%TO.P,Y1,1,1_1*%
%TO.N,Net-(C16-Pad2)*%
X119150000Y-119400000D03*
%TO.P,Y1,2,G_2*%
%TO.N,GND*%
X121350000Y-119400000D03*
%TO.P,Y1,3,3_3*%
%TO.N,XIN*%
X121350000Y-117700000D03*
%TO.P,Y1,4,G_4*%
%TO.N,GND*%
X119150000Y-117700000D03*
%TD*%
D27*
%TO.P,J2,1,Pin_1_1*%
%TO.N,GPIO_0*%
X113950000Y-77580000D03*
D28*
%TO.P,J2,2,Pin_2_2*%
%TO.N,GPIO_1*%
X113950000Y-80120000D03*
%TO.P,J2,3,Pin_3_3*%
%TO.N,GPIO_13*%
X113950000Y-82660000D03*
%TO.P,J2,4,Pin_4_4*%
%TO.N,GPIO_2*%
X113950000Y-85200000D03*
%TO.P,J2,5,Pin_5_5*%
%TO.N,GPIO_3*%
X113950000Y-87740000D03*
%TO.P,J2,6,Pin_6_6*%
%TO.N,GPIO_4*%
X113950000Y-90280000D03*
%TO.P,J2,7,Pin_7_7*%
%TO.N,GPIO_5*%
X113950000Y-92820000D03*
%TO.P,J2,8,Pin_8_8*%
%TO.N,GPIO_13*%
X113950000Y-95360000D03*
%TO.P,J2,9,Pin_9_9*%
%TO.N,GPIO_6*%
X113950000Y-97900000D03*
%TO.P,J2,10,Pin_10_10*%
%TO.N,unconnected-(J2-Pin_10-Pad10)*%
X113950000Y-100440000D03*
%TO.P,J2,11,Pin_11_11*%
%TO.N,GPIO_8*%
X113950000Y-102980000D03*
%TO.P,J2,12,Pin_12_12*%
%TO.N,GPIO_13*%
X113950000Y-105520000D03*
%TO.P,J2,13,Pin_13_13*%
X113950000Y-108060000D03*
%TO.P,J2,14,Pin_14_14*%
%TO.N,GPIO_10*%
X113950000Y-110600000D03*
%TO.P,J2,15,Pin_15_15*%
%TO.N,GPIO_11*%
X113950000Y-113140000D03*
%TO.P,J2,16,Pin_16_16*%
%TO.N,GPIO_12*%
X113950000Y-115680000D03*
%TO.P,J2,17,Pin_17_17*%
%TO.N,GPIO_13*%
X113950000Y-118220000D03*
%TO.P,J2,18,Pin_18_18*%
X113950000Y-120760000D03*
%TO.P,J2,19,Pin_19_19*%
X113950000Y-123300000D03*
%TO.P,J2,20,Pin_20_20*%
X113950000Y-125840000D03*
%TD*%
D10*
%TO.P,C7,1*%
%TO.N,+3V3*%
X127350000Y-106300000D03*
%TO.P,C7,2*%
%TO.N,GND*%
X127350000Y-105340000D03*
%TD*%
D17*
%TO.P,C2,1*%
%TO.N,+3V3*%
X124060000Y-118200000D03*
%TO.P,C2,2*%
%TO.N,GND*%
X123100000Y-118200000D03*
%TD*%
%TO.P,C14,1*%
%TO.N,GND*%
X125860000Y-85650000D03*
%TO.P,C14,2*%
%TO.N,+3V3*%
X124900000Y-85650000D03*
%TD*%
D32*
%TO.N,GND*%
X129500000Y-86450000D03*
X126840000Y-118100000D03*
X130450000Y-88320000D03*
X128296305Y-108046305D03*
X126950000Y-86070000D03*
X126381786Y-106419684D03*
X127159237Y-107530272D03*
X123906985Y-110105515D03*
%TO.N,Net-(C16-Pad2)*%
X124650000Y-120550000D03*
X119150000Y-119400000D03*
%TO.N,Net-(R7-Pad1)*%
X124600000Y-123800000D03*
X118430000Y-91950000D03*
%TO.N,QSPI_SCLK*%
X122107545Y-98192849D03*
X122711536Y-109442307D03*
%TO.N,VBUS*%
X128717998Y-76450000D03*
X125750000Y-79950000D03*
X117480000Y-83600000D03*
X121450000Y-80400000D03*
%TO.N,+3V3*%
X117600000Y-117130000D03*
X123912803Y-107302410D03*
X126412500Y-112914552D03*
X124900000Y-85650000D03*
X121680754Y-110156893D03*
X130450000Y-86500000D03*
X130550000Y-84950000D03*
X125112500Y-109400000D03*
X127387500Y-89480000D03*
X121300000Y-112900000D03*
X124000000Y-114000002D03*
X126312500Y-109494485D03*
X130450000Y-89280000D03*
X118500000Y-88950000D03*
X131401473Y-78270000D03*
X120500000Y-107500000D03*
X127350000Y-106300000D03*
X117050000Y-85630000D03*
X126950000Y-87030000D03*
%TO.N,+1V1*%
X126008171Y-110234338D03*
X126200000Y-117200000D03*
%TO.N,USB_D+*%
X123000000Y-83900000D03*
X122707545Y-95850000D03*
%TO.N,USB_D-*%
X123900000Y-94750000D03*
X124250000Y-84550000D03*
%TO.N,XOUT*%
X123206225Y-114248836D03*
X124650000Y-119500000D03*
%TO.N,Net-(U1-USB_DM)*%
X124825197Y-95475197D03*
X125346980Y-97781845D03*
%TO.N,QSPI_SD1*%
X121913156Y-109391392D03*
X121350000Y-98450000D03*
%TO.N,QSPI_SD2*%
X121912500Y-102911027D03*
X119049803Y-92650197D03*
%TO.N,Net-(U1-USB_DP)*%
X124712500Y-107280306D03*
X123775197Y-96525197D03*
%TO.N,XIN*%
X121350000Y-117700000D03*
X121350000Y-117700000D03*
X123512499Y-116254771D03*
X117600000Y-119110000D03*
%TO.N,RUN*%
X131550000Y-103200000D03*
X126415033Y-114394801D03*
%TO.N,GPIO_18*%
X128100000Y-115250000D03*
%TO.N,GPIO_19*%
X128700000Y-114700003D03*
%TO.N,GPIO_20*%
X128700000Y-113900000D03*
%TD*%
%TO.N,GND*%
D33*
X129200000Y-77190000D02*
X129490000Y-76900000D01*
X117600000Y-78770000D02*
X119180000Y-77190000D01*
X126200000Y-118160000D02*
X126780000Y-118160000D01*
X117050000Y-84670000D02*
X117940000Y-84670000D01*
X120400000Y-123800000D02*
X124050000Y-127450000D01*
X117940000Y-84670000D02*
X119630000Y-86360000D01*
X134000000Y-81600000D02*
X134000000Y-94300000D01*
X121350000Y-119400000D02*
X121350000Y-118933789D01*
X117830000Y-88160000D02*
X117830000Y-92278924D01*
X126510000Y-118470000D02*
X126200000Y-118160000D01*
X132850000Y-82750000D02*
X134000000Y-81600000D01*
X116520000Y-83600000D02*
X116520000Y-84140000D01*
X126230000Y-118130000D02*
X126200000Y-118160000D01*
X130450000Y-88320000D02*
X130668530Y-88320000D01*
X125900000Y-120460000D02*
X126510000Y-119850000D01*
X123100000Y-117150000D02*
X123100000Y-118200000D01*
X122912500Y-115337500D02*
X122912500Y-114803640D01*
X124420000Y-118810000D02*
X125100000Y-118130000D01*
X133326346Y-79060000D02*
X134000000Y-79733654D01*
X126510000Y-119850000D02*
X126510000Y-118470000D01*
X117600000Y-118150000D02*
X116990000Y-117540000D01*
X126750000Y-84320000D02*
X126750000Y-82285000D01*
X120400000Y-123800000D02*
X120400000Y-120350000D01*
X127163416Y-107526093D02*
X127776093Y-107526093D01*
X134000000Y-107000000D02*
X134000000Y-96600000D01*
X134000000Y-94300000D02*
X132850000Y-95450000D01*
X119630000Y-86360000D02*
X117830000Y-88160000D01*
X126950000Y-86070000D02*
X126280000Y-86070000D01*
X119650000Y-117700000D02*
X119150000Y-117700000D01*
X123906985Y-110105515D02*
X123912500Y-110111030D01*
X118910000Y-81640000D02*
X119180000Y-81370000D01*
X132010000Y-79060000D02*
X133326346Y-79060000D01*
X127820000Y-81370000D02*
X127665000Y-81370000D01*
X134000000Y-96600000D02*
X132850000Y-95450000D01*
X120400000Y-120350000D02*
X121350000Y-119400000D01*
X117600000Y-81640000D02*
X117360000Y-81640000D01*
X127350000Y-105340000D02*
X126670000Y-105340000D01*
X122912500Y-114803640D02*
X121901349Y-113792489D01*
X122762500Y-113050000D02*
X123912500Y-111900000D01*
X120455000Y-87410000D02*
X119630000Y-86585000D01*
X122550000Y-118200000D02*
X121350000Y-119400000D01*
X123100000Y-118200000D02*
X122550000Y-118200000D01*
X119180000Y-81370000D02*
X119180000Y-77190000D01*
X129590000Y-84950000D02*
X129590000Y-86400000D01*
X124050000Y-127450000D02*
X124050000Y-127500000D01*
X126520000Y-84550000D02*
X132010000Y-79060000D01*
X126200000Y-118160000D02*
X125130000Y-118160000D01*
X119150000Y-117700000D02*
X118700000Y-118150000D01*
X121350000Y-119400000D02*
X119650000Y-117700000D01*
X126780000Y-118160000D02*
X126840000Y-118100000D01*
X123710000Y-118810000D02*
X124420000Y-118810000D01*
X123100000Y-118200000D02*
X123710000Y-118810000D01*
X126280000Y-86070000D02*
X125860000Y-85650000D01*
X117600000Y-81640000D02*
X117600000Y-78770000D01*
X129590000Y-86400000D02*
X129490000Y-86500000D01*
X119630000Y-86585000D02*
X119630000Y-86360000D01*
X123912500Y-110111030D02*
X123912500Y-111900000D01*
X121901349Y-113792489D02*
X121901349Y-113050000D01*
X129500000Y-86510000D02*
X129490000Y-86500000D01*
X127665000Y-81370000D02*
X126750000Y-82285000D01*
X123100000Y-117150000D02*
X122912500Y-116962500D01*
X129490000Y-76900000D02*
X129490000Y-77850000D01*
X122912500Y-116962500D02*
X122912500Y-115337500D01*
X126670000Y-105340000D02*
X126200000Y-105810000D01*
X124100000Y-87410000D02*
X120455000Y-87410000D01*
X117600000Y-81640000D02*
X118910000Y-81640000D01*
X120850000Y-119400000D02*
X121350000Y-119400000D01*
X117830000Y-92278924D02*
X118841076Y-93290000D01*
X116990000Y-116780000D02*
X117600000Y-116170000D01*
X119180000Y-81370000D02*
X119335000Y-81370000D01*
X126520000Y-84990000D02*
X125860000Y-85650000D01*
X126100000Y-105910000D02*
X126200000Y-105810000D01*
X126520000Y-84550000D02*
X126520000Y-84990000D01*
X126381786Y-106419684D02*
X126100000Y-106137898D01*
X127159237Y-107530272D02*
X127163416Y-107526093D01*
X116990000Y-117540000D02*
X116990000Y-116780000D01*
X121901349Y-113050000D02*
X122762500Y-113050000D01*
X119335000Y-81370000D02*
X120250000Y-82285000D01*
X132850000Y-108150000D02*
X134000000Y-107000000D01*
X116520000Y-83600000D02*
X116520000Y-82720000D01*
X116520000Y-84140000D02*
X117050000Y-84670000D01*
X125860000Y-85650000D02*
X124100000Y-87410000D01*
X118841076Y-93290000D02*
X120212500Y-93290000D01*
X127820000Y-77190000D02*
X129200000Y-77190000D01*
X125130000Y-118160000D02*
X125100000Y-118130000D01*
X129490000Y-77850000D02*
X130700000Y-79060000D01*
X118700000Y-118150000D02*
X117600000Y-118150000D01*
X116520000Y-82720000D02*
X117600000Y-81640000D01*
X134000000Y-79733654D02*
X134000000Y-81600000D01*
X130700000Y-79060000D02*
X132010000Y-79060000D01*
X126100000Y-106137898D02*
X126100000Y-105910000D01*
X127776093Y-107526093D02*
X128296305Y-108046305D01*
%TO.N,Net-(C16-Pad2)*%
X118860000Y-119690000D02*
X119150000Y-119400000D01*
X124880000Y-120520000D02*
X125900000Y-119500000D01*
X124650000Y-120520000D02*
X124880000Y-120520000D01*
X124650000Y-120520000D02*
X124650000Y-120550000D01*
%TO.N,Net-(R7-Pad1)*%
X118440000Y-91960000D02*
X118430000Y-91950000D01*
X118450000Y-91960000D02*
X118440000Y-91960000D01*
%TO.N,QSPI_SCLK*%
X122107545Y-91173969D02*
X122107545Y-98192849D01*
X122912500Y-109241343D02*
X122912500Y-108462500D01*
X119722500Y-89970000D02*
X120212500Y-89480000D01*
X118450000Y-90940000D02*
X119265000Y-90125000D01*
X119265000Y-90125000D02*
X121058576Y-90125000D01*
X118500000Y-90890000D02*
X118450000Y-90940000D01*
X122711536Y-109442307D02*
X122912500Y-109241343D01*
X121058576Y-90125000D02*
X122107545Y-91173969D01*
X118500000Y-89970000D02*
X119722500Y-89970000D01*
X118500000Y-89970000D02*
X118500000Y-90890000D01*
%TO.N,VBUS*%
X121450000Y-81119594D02*
X121450000Y-80400000D01*
X121285000Y-81119594D02*
X121450000Y-81119594D01*
X129800000Y-76250000D02*
X128650000Y-76250000D01*
X121050000Y-82285000D02*
X121050000Y-81354594D01*
X132850000Y-77670000D02*
X131220000Y-77670000D01*
X131220000Y-77670000D02*
X130450000Y-76900000D01*
X125750000Y-80525406D02*
X125715000Y-80560406D01*
X128650000Y-76250000D02*
X128650000Y-76382002D01*
X121450000Y-81119594D02*
X123064720Y-81119594D01*
X125950000Y-82285000D02*
X125950000Y-81727590D01*
X123064720Y-81119594D02*
X123623908Y-80560406D01*
X125715000Y-82050000D02*
X125715000Y-80650000D01*
X121050000Y-82285000D02*
X121050000Y-82702854D01*
X123623908Y-80560406D02*
X125715000Y-80560406D01*
X132080000Y-76900000D02*
X132850000Y-77670000D01*
X125715000Y-80650000D02*
X125715000Y-80560406D01*
X130450000Y-76900000D02*
X129800000Y-76250000D01*
X128650000Y-76382002D02*
X128717998Y-76450000D01*
X125750000Y-79950000D02*
X125750000Y-80525406D01*
X121050000Y-81354594D02*
X121285000Y-81119594D01*
X125950000Y-82285000D02*
X125715000Y-82050000D01*
%TO.N,+3V3*%
X121680754Y-110156893D02*
X121680754Y-110481744D01*
X130450000Y-77850000D02*
X130870000Y-78270000D01*
X127367500Y-89500000D02*
X127387500Y-89480000D01*
X126512500Y-108462500D02*
X126112500Y-108462500D01*
X131400000Y-89280000D02*
X132850000Y-87830000D01*
X120475000Y-107525000D02*
X120500000Y-107500000D01*
X124112500Y-108462500D02*
X124512500Y-108462500D01*
X127550000Y-88800000D02*
X127550000Y-89317500D01*
X125649998Y-114000002D02*
X126412500Y-113237500D01*
X126512500Y-108462500D02*
X126512500Y-107137500D01*
X124916140Y-109400000D02*
X125112500Y-109400000D01*
X122170000Y-86585000D02*
X122170000Y-86360000D01*
X124060000Y-117150000D02*
X124112500Y-117097500D01*
X120475000Y-112900000D02*
X121300000Y-112900000D01*
X130450000Y-86500000D02*
X130450000Y-85050000D01*
X124060000Y-117150000D02*
X124060000Y-118200000D01*
X130450000Y-85050000D02*
X130550000Y-84950000D01*
X126412500Y-113237500D02*
X126412500Y-112914552D01*
X124900000Y-85959999D02*
X124499999Y-86360000D01*
X130870000Y-78270000D02*
X131401473Y-78270000D01*
X124900000Y-85650000D02*
X124900000Y-85959999D01*
X123912803Y-107302410D02*
X124112500Y-107502107D01*
X126950000Y-87030000D02*
X126950000Y-88200000D01*
X120475000Y-109300000D02*
X120475000Y-107525000D01*
X124112500Y-117097500D02*
X124112500Y-115337500D01*
X124112500Y-115337500D02*
X124112500Y-114112502D01*
X124112500Y-114112502D02*
X124000000Y-114000002D01*
X121680754Y-110481744D02*
X121300000Y-110862498D01*
X127550000Y-89317500D02*
X127387500Y-89480000D01*
X126312500Y-109494485D02*
X126506985Y-109300000D01*
X130450000Y-89280000D02*
X131400000Y-89280000D01*
X126506985Y-109300000D02*
X127350000Y-109300000D01*
X127350000Y-112900000D02*
X126427052Y-112900000D01*
X124112500Y-107502107D02*
X124112500Y-108462500D01*
X127350000Y-109300000D02*
X126512500Y-108462500D01*
X117620000Y-117130000D02*
X117600000Y-117130000D01*
X126950000Y-88200000D02*
X127550000Y-88800000D01*
X121300000Y-110862498D02*
X121300000Y-112900000D01*
X124512500Y-108996360D02*
X124916140Y-109400000D01*
X124499999Y-86360000D02*
X124267500Y-86360000D01*
X124512500Y-108462500D02*
X124512500Y-108996360D01*
X124267500Y-86360000D02*
X122170000Y-86360000D01*
X118500000Y-88950000D02*
X118595000Y-88855000D01*
X126427052Y-112900000D02*
X126412500Y-112914552D01*
X124000000Y-114000002D02*
X125649998Y-114000002D01*
X126512500Y-107137500D02*
X127350000Y-106300000D01*
%TO.N,+1V1*%
X125590000Y-105460000D02*
X126200000Y-104850000D01*
X126230000Y-117170000D02*
X126200000Y-117200000D01*
X125590000Y-106240000D02*
X125590000Y-105460000D01*
X124512500Y-116582500D02*
X124512500Y-115337500D01*
X123712500Y-108996360D02*
X124716140Y-110000000D01*
X125361029Y-110000000D02*
X125712500Y-109648529D01*
X125100000Y-117170000D02*
X124512500Y-116582500D01*
X125712500Y-109648529D02*
X125712500Y-108462500D01*
X125712500Y-106362500D02*
X125590000Y-106240000D01*
X125712500Y-108462500D02*
X125712500Y-106362500D01*
X125130000Y-117200000D02*
X125100000Y-117170000D01*
X125712500Y-109938667D02*
X125712500Y-109648529D01*
X123712500Y-108462500D02*
X123712500Y-108996360D01*
X124716140Y-110000000D02*
X125361029Y-110000000D01*
X126200000Y-117200000D02*
X125130000Y-117200000D01*
X126008171Y-110234338D02*
X125712500Y-109938667D01*
%TO.N,Net-(J1-CC1)*%
X125500000Y-84550000D02*
X124750000Y-83800000D01*
X124750000Y-83800000D02*
X124750000Y-82285000D01*
%TO.N,USB_D+*%
X123750000Y-82285000D02*
X123750000Y-83042410D01*
X122750000Y-83042410D02*
X122750000Y-82285000D01*
X123017590Y-83310000D02*
X122750000Y-83042410D01*
X123750000Y-83042410D02*
X123482410Y-83310000D01*
X123017590Y-83882410D02*
X123000000Y-83900000D01*
X123017590Y-83310000D02*
X123017590Y-83882410D01*
X123482410Y-83310000D02*
X123017590Y-83310000D01*
%TO.N,USB_D-*%
X124250000Y-82285000D02*
X124250000Y-81527590D01*
X123250000Y-81500000D02*
X123250000Y-82285000D01*
X123972410Y-81250000D02*
X123500000Y-81250000D01*
X124250000Y-81527590D02*
X123972410Y-81250000D01*
X123500000Y-81250000D02*
X123250000Y-81500000D01*
X124250000Y-82285000D02*
X124250000Y-84550000D01*
%TO.N,Net-(J1-CC2)*%
X118250000Y-83310000D02*
X117600000Y-82660000D01*
X121750000Y-82950552D02*
X121390552Y-83310000D01*
X121390552Y-83310000D02*
X118250000Y-83310000D01*
X121750000Y-82285000D02*
X121750000Y-82950552D01*
%TO.N,XOUT*%
X123206225Y-114248836D02*
X123341108Y-114248836D01*
X123712500Y-114620228D02*
X123712500Y-115337500D01*
X123341108Y-114248836D02*
X123712500Y-114620228D01*
%TO.N,Net-(U1-USB_DM)*%
X125346980Y-97803020D02*
X125050000Y-98100000D01*
X125050000Y-106650000D02*
X125312500Y-106912500D01*
X125050000Y-98100000D02*
X125050000Y-106650000D01*
X125346980Y-97781845D02*
X125346980Y-97803020D01*
X124920000Y-95380394D02*
X124825197Y-95475197D01*
X125312500Y-106912500D02*
X125312500Y-108462500D01*
X124920000Y-94750000D02*
X124920000Y-95380394D01*
%TO.N,QSPI_SD1*%
X121024999Y-90750000D02*
X121350000Y-91075001D01*
X120212500Y-90750000D02*
X121024999Y-90750000D01*
X121350000Y-91075001D02*
X121350000Y-98450000D01*
X121913156Y-109391392D02*
X121712500Y-109190736D01*
X121712500Y-109190736D02*
X121712500Y-108462500D01*
%TO.N,QSPI_SD2*%
X119049803Y-92650197D02*
X119680000Y-92020000D01*
X122112500Y-108462500D02*
X122112500Y-103111027D01*
X122112500Y-103111027D02*
X121912500Y-102911027D01*
X119680000Y-92020000D02*
X120212500Y-92020000D01*
%TO.N,QSPI_SD0*%
X122900000Y-106534314D02*
X122512500Y-106921814D01*
X122512500Y-102262500D02*
X122900000Y-102650000D01*
X127387500Y-93290000D02*
X127387500Y-94327110D01*
X122512500Y-99202110D02*
X122512500Y-102262500D01*
X122512500Y-106921814D02*
X122512500Y-108462500D01*
X127387500Y-94327110D02*
X122512500Y-99202110D01*
X122900000Y-102650000D02*
X122900000Y-106534314D01*
%TO.N,QSPI_SS*%
X121312500Y-108462500D02*
X121312500Y-99836424D01*
X121312500Y-99836424D02*
X126275000Y-94873924D01*
X126275000Y-94873924D02*
X126275000Y-92320001D01*
X126575001Y-92020000D02*
X127387500Y-92020000D01*
X126275000Y-92320001D02*
X126575001Y-92020000D01*
%TO.N,QSPI_SD3*%
X127588576Y-90750000D02*
X128500000Y-91661424D01*
X128500000Y-93780295D02*
X123312500Y-98967796D01*
X123312500Y-98967796D02*
X123312500Y-108462500D01*
X128500000Y-91661424D02*
X128500000Y-93780295D01*
X127387500Y-90750000D02*
X127588576Y-90750000D01*
%TO.N,Net-(U1-USB_DP)*%
X124742806Y-107280306D02*
X124912500Y-107450000D01*
X124712500Y-107280306D02*
X124742806Y-107280306D01*
X123700000Y-96450000D02*
X123775197Y-96525197D01*
X124912500Y-107450000D02*
X124912500Y-108462500D01*
X123700000Y-95850000D02*
X123700000Y-96450000D01*
%TO.N,GPIO_0*%
X115650000Y-79280000D02*
X115650000Y-85650000D01*
X119941140Y-109700000D02*
X120475000Y-109700000D01*
X119900000Y-108800000D02*
X119737500Y-108962500D01*
X113950000Y-77580000D02*
X115650000Y-79280000D01*
X116800000Y-86800000D02*
X116800000Y-92700000D01*
X119737500Y-108962500D02*
X119737500Y-109496360D01*
X116800000Y-92700000D02*
X119900000Y-95800000D01*
X115650000Y-85650000D02*
X116800000Y-86800000D01*
X119900000Y-95800000D02*
X119900000Y-108800000D01*
X119737500Y-109496360D02*
X119941140Y-109700000D01*
%TO.N,GPIO_1*%
X116400000Y-87084314D02*
X116400000Y-92865686D01*
X115232843Y-81402843D02*
X115232843Y-85917157D01*
X113950000Y-80120000D02*
X115232843Y-81402843D01*
X116400000Y-92865686D02*
X119217157Y-95682843D01*
X119217157Y-95682843D02*
X119217157Y-109541702D01*
X119217157Y-109541702D02*
X119775455Y-110100000D01*
X115232843Y-85917157D02*
X116400000Y-87084314D01*
X119775455Y-110100000D02*
X120475000Y-110100000D01*
%TO.N,GPIO_2*%
X119609770Y-110500000D02*
X120475000Y-110500000D01*
X116000000Y-93082843D02*
X118817157Y-95900000D01*
X116000000Y-87250000D02*
X116000000Y-93082843D01*
X113950000Y-85200000D02*
X116000000Y-87250000D01*
X118817157Y-109707388D02*
X119609770Y-110500000D01*
X118817157Y-95900000D02*
X118817157Y-109707388D01*
%TO.N,GPIO_3*%
X115600000Y-88950000D02*
X115600000Y-93248529D01*
X113950000Y-87740000D02*
X114390000Y-87740000D01*
X118417157Y-96065686D02*
X118417157Y-109873074D01*
X119444085Y-110900000D02*
X120475000Y-110900000D01*
X114390000Y-87740000D02*
X115600000Y-88950000D01*
X118417157Y-109873074D02*
X119444085Y-110900000D01*
X115600000Y-93248529D02*
X118417157Y-96065686D01*
%TO.N,GPIO_4*%
X113950000Y-90280000D02*
X115200000Y-91530000D01*
X119278400Y-111300000D02*
X120475000Y-111300000D01*
X115200000Y-93414215D02*
X118017157Y-96231371D01*
X118017157Y-96231371D02*
X118017158Y-110038760D01*
X118017158Y-110038760D02*
X119278400Y-111300000D01*
X115200000Y-91530000D02*
X115200000Y-93414215D01*
%TO.N,GPIO_5*%
X117617157Y-96450000D02*
X117580000Y-96450000D01*
X119112715Y-111700000D02*
X117617158Y-110204445D01*
X117580000Y-96450000D02*
X113950000Y-92820000D01*
X117617158Y-110204445D02*
X117617157Y-96450000D01*
X120475000Y-111700000D02*
X119112715Y-111700000D01*
%TO.N,GPIO_6*%
X117217158Y-110370131D02*
X118947029Y-112100000D01*
X117217157Y-101167157D02*
X117217158Y-110370131D01*
X113950000Y-97900000D02*
X117217157Y-101167157D01*
X118947029Y-112100000D02*
X120475000Y-112100000D01*
%TO.N,GPIO_8*%
X116817158Y-110567158D02*
X119550000Y-113300000D01*
X113950000Y-102980000D02*
X116817158Y-105847158D01*
X116817158Y-105847158D02*
X116817158Y-110567158D01*
X119550000Y-113300000D02*
X120475000Y-113300000D01*
%TO.N,GPIO_13*%
X113950000Y-125840000D02*
X113950000Y-123300000D01*
X119214314Y-113530000D02*
X119384314Y-113700000D01*
X121008860Y-113700000D02*
X121712500Y-114403640D01*
X116417158Y-108600000D02*
X116417158Y-110732844D01*
X120475000Y-113700000D02*
X121008860Y-113700000D01*
X121712500Y-115337500D02*
X122112500Y-115337500D01*
X121712500Y-114403640D02*
X121712500Y-115337500D01*
X119384314Y-113700000D02*
X120475000Y-113700000D01*
X113950000Y-123300000D02*
X113950000Y-120760000D01*
X113950000Y-108060000D02*
X115877158Y-108060000D01*
X116417158Y-110732844D02*
X119384314Y-113700000D01*
X113950000Y-120760000D02*
X113950000Y-118220000D01*
X115877158Y-108060000D02*
X116417158Y-108600000D01*
X122112500Y-115337500D02*
X122512500Y-115337500D01*
%TO.N,GPIO_10*%
X113950000Y-110600000D02*
X115718628Y-110600000D01*
X119218629Y-114100000D02*
X120475000Y-114100000D01*
X115718628Y-110600000D02*
X119218629Y-114100000D01*
%TO.N,GPIO_11*%
X117692944Y-113140000D02*
X119052944Y-114500000D01*
X113950000Y-113140000D02*
X117692944Y-113140000D01*
X119052944Y-114500000D02*
X120475000Y-114500000D01*
%TO.N,GPIO_12*%
X113950000Y-115680000D02*
X114292500Y-115337500D01*
X114292500Y-115337500D02*
X121312500Y-115337500D01*
%TO.N,XIN*%
X123312500Y-116054772D02*
X123512499Y-116254771D01*
X123312500Y-115337500D02*
X123312500Y-116054772D01*
%TO.N,SWCLK*%
X127440000Y-117503866D02*
X126411134Y-116475000D01*
X125516140Y-116475000D02*
X124912500Y-115871360D01*
X126590000Y-127500000D02*
X127440000Y-126650000D01*
X126411134Y-116475000D02*
X125516140Y-116475000D01*
X127440000Y-126650000D02*
X127440000Y-117503866D01*
X124912500Y-115871360D02*
X124912500Y-115337500D01*
%TO.N,RUN*%
X126121339Y-114394801D02*
X126415033Y-114394801D01*
X131680000Y-103070000D02*
X131550000Y-103200000D01*
X125712500Y-114803640D02*
X126121339Y-114394801D01*
X125712500Y-115337500D02*
X125712500Y-114803640D01*
X132850000Y-103070000D02*
X131680000Y-103070000D01*
%TO.N,GPIO_16*%
X126316140Y-116075000D02*
X126112500Y-115871360D01*
X128940000Y-117923866D02*
X127091134Y-116075000D01*
X126112500Y-115871360D02*
X126112500Y-115337500D01*
X128940000Y-122020000D02*
X128940000Y-117923866D01*
X127091134Y-116075000D02*
X126316140Y-116075000D01*
X132850000Y-125930000D02*
X128940000Y-122020000D01*
%TO.N,GPIO_17*%
X126919320Y-115337500D02*
X129340000Y-117758181D01*
X129340000Y-121854314D02*
X130875686Y-123390000D01*
X129340000Y-117758181D02*
X129340000Y-121854314D01*
X126512500Y-115337500D02*
X126919320Y-115337500D01*
X130875686Y-123390000D02*
X132850000Y-123390000D01*
%TO.N,GPIO_18*%
X132850000Y-110690000D02*
X132850000Y-110700000D01*
X128100000Y-115250000D02*
X127350000Y-114500000D01*
%TO.N,GPIO_19*%
X128700000Y-114700003D02*
X128649997Y-114650000D01*
X128000000Y-114100000D02*
X127350000Y-114100000D01*
X128649997Y-114650000D02*
X128550000Y-114650000D01*
X128550000Y-114650000D02*
X128000000Y-114100000D01*
%TO.N,GPIO_20*%
X128400000Y-113700000D02*
X127350000Y-113700000D01*
X128600000Y-113800000D02*
X128500000Y-113800000D01*
X128500000Y-113800000D02*
X128400000Y-113700000D01*
X128700000Y-113900000D02*
X128600000Y-113800000D01*
%TO.N,GPIO_21*%
X129350000Y-113400000D02*
X129350000Y-114810000D01*
X129350000Y-114810000D02*
X132850000Y-118310000D01*
X129250000Y-113300000D02*
X129350000Y-113400000D01*
X127350000Y-113300000D02*
X129250000Y-113300000D01*
%TO.N,GPIO_22*%
X131700000Y-109277974D02*
X131700000Y-106760000D01*
X127350000Y-112500000D02*
X128477974Y-112500000D01*
X128477974Y-112500000D02*
X131700000Y-109277974D01*
X131700000Y-106760000D02*
X132850000Y-105610000D01*
%TO.N,GPIO_23*%
X128312288Y-112100000D02*
X127350000Y-112100000D01*
X130900000Y-102480000D02*
X130900000Y-109512288D01*
X132850000Y-100530000D02*
X130900000Y-102480000D01*
X130900000Y-109512288D02*
X128312288Y-112100000D01*
%TO.N,GPIO_24*%
X132850000Y-97990000D02*
X130500000Y-100340000D01*
X128146602Y-111700000D02*
X127350000Y-111700000D01*
X130500000Y-100340000D02*
X130500000Y-109346602D01*
X130500000Y-109346602D02*
X128146602Y-111700000D01*
%TO.N,GPIO_26{slash}ADC_0*%
X132850000Y-92910000D02*
X130100000Y-95660000D01*
X130100000Y-109180916D02*
X128380915Y-110900000D01*
X128380915Y-110900000D02*
X127350000Y-110900000D01*
X130100000Y-95660000D02*
X130100000Y-109180916D01*
%TO.N,GPIO_27{slash}ADC_1*%
X132850000Y-90370000D02*
X129700000Y-93520000D01*
X128215230Y-110500000D02*
X127350000Y-110500000D01*
X129700000Y-93520000D02*
X129700000Y-109015230D01*
X129700000Y-109015230D02*
X128215230Y-110500000D01*
%TO.N,GPIO_28{slash}ADC_2*%
X130210000Y-87740000D02*
X130093866Y-87740000D01*
X128487500Y-109662046D02*
X128049545Y-110100000D01*
X128049545Y-110100000D02*
X127350000Y-110100000D01*
X129840000Y-87993866D02*
X129840000Y-88110000D01*
X132660000Y-85290000D02*
X130210000Y-87740000D01*
X129300000Y-108456826D02*
X128487500Y-109269326D01*
X128487500Y-109269326D02*
X128487500Y-109662046D01*
X130093866Y-87740000D02*
X129840000Y-87993866D01*
X129840000Y-88110000D02*
X129300000Y-88650000D01*
X129300000Y-88650000D02*
X129300000Y-108456826D01*
X132850000Y-85290000D02*
X132660000Y-85290000D01*
%TO.N,GPIO_29{slash}ADC_3*%
X128087500Y-109103640D02*
X128087500Y-109496360D01*
X128900000Y-108291140D02*
X128087500Y-109103640D01*
X128900000Y-84160000D02*
X128900000Y-108291140D01*
X128087500Y-109496360D02*
X127883860Y-109700000D01*
X132850000Y-80210000D02*
X128900000Y-84160000D01*
X127883860Y-109700000D02*
X127350000Y-109700000D01*
%TD*%
%TA.AperFunction,Conductor*%
%TO.N,GND*%
G36*
X120739276Y-115957685D02*
G01*
X120771425Y-115991788D01*
X120773014Y-115990584D01*
X120869577Y-116117922D01*
X120990156Y-116209360D01*
X120990157Y-116209360D01*
X120990158Y-116209361D01*
X121130936Y-116264877D01*
X121219398Y-116275500D01*
X121219403Y-116275500D01*
X121405603Y-116275500D01*
X121421678Y-116273569D01*
X121494064Y-116264877D01*
X121494065Y-116264876D01*
X121497715Y-116264438D01*
X121527285Y-116264438D01*
X121530934Y-116264876D01*
X121530936Y-116264877D01*
X121603321Y-116273569D01*
X121619397Y-116275500D01*
X121619398Y-116275500D01*
X121805603Y-116275500D01*
X121821678Y-116273569D01*
X121894064Y-116264877D01*
X121894065Y-116264876D01*
X121897715Y-116264438D01*
X121927285Y-116264438D01*
X121930934Y-116264876D01*
X121930936Y-116264877D01*
X122003321Y-116273569D01*
X122019397Y-116275500D01*
X122019398Y-116275500D01*
X122205603Y-116275500D01*
X122221678Y-116273569D01*
X122294064Y-116264877D01*
X122294065Y-116264876D01*
X122297715Y-116264438D01*
X122322508Y-116263958D01*
X122330181Y-116264579D01*
X122330936Y-116264877D01*
X122419398Y-116275500D01*
X122465046Y-116275500D01*
X122470048Y-116275905D01*
X122498172Y-116286697D01*
X122527079Y-116295185D01*
X122530459Y-116299086D01*
X122535280Y-116300936D01*
X122553110Y-116325226D01*
X122572834Y-116347989D01*
X122573568Y-116353097D01*
X122576624Y-116357260D01*
X122578490Y-116387329D01*
X122582778Y-116417147D01*
X122580633Y-116421843D01*
X122580953Y-116426996D01*
X122566269Y-116453295D01*
X122553753Y-116480703D01*
X122547721Y-116487181D01*
X122450285Y-116584616D01*
X122450276Y-116584627D01*
X122391220Y-116684485D01*
X122340151Y-116732168D01*
X122271409Y-116744671D01*
X122219393Y-116726902D01*
X122119340Y-116665189D01*
X122119335Y-116665187D01*
X122119334Y-116665186D01*
X121952797Y-116610001D01*
X121952795Y-116610000D01*
X121850010Y-116599500D01*
X120849998Y-116599500D01*
X120849980Y-116599501D01*
X120747203Y-116610000D01*
X120747200Y-116610001D01*
X120580668Y-116665185D01*
X120580663Y-116665187D01*
X120431345Y-116757287D01*
X120337327Y-116851305D01*
X120276003Y-116884789D01*
X120206312Y-116879805D01*
X120161965Y-116851304D01*
X120068345Y-116757684D01*
X119919124Y-116665643D01*
X119919119Y-116665641D01*
X119752697Y-116610494D01*
X119752690Y-116610493D01*
X119649986Y-116600000D01*
X119400000Y-116600000D01*
X119400000Y-117576000D01*
X119380315Y-117643039D01*
X119327511Y-117688794D01*
X119276000Y-117700000D01*
X119024000Y-117700000D01*
X118956961Y-117680315D01*
X118911206Y-117627511D01*
X118900000Y-117576000D01*
X118900000Y-116600000D01*
X118650029Y-116600000D01*
X118650012Y-116600001D01*
X118547298Y-116610494D01*
X118540681Y-116611911D01*
X118540136Y-116609366D01*
X118482098Y-116611359D01*
X118422059Y-116575623D01*
X118390871Y-116513100D01*
X118393854Y-116456659D01*
X118404504Y-116420000D01*
X118098352Y-116420000D01*
X118035233Y-116402732D01*
X118026395Y-116397506D01*
X118026393Y-116397505D01*
X118026389Y-116397503D01*
X117870997Y-116352357D01*
X117870991Y-116352356D01*
X117834697Y-116349500D01*
X117834690Y-116349500D01*
X117791599Y-116349500D01*
X117767408Y-116347117D01*
X117739007Y-116341467D01*
X117678844Y-116329500D01*
X117678842Y-116329500D01*
X117521158Y-116329500D01*
X117521156Y-116329500D01*
X117460992Y-116341467D01*
X117432591Y-116347117D01*
X117408401Y-116349500D01*
X117365302Y-116349500D01*
X117329008Y-116352356D01*
X117329002Y-116352357D01*
X117173610Y-116397503D01*
X117173605Y-116397506D01*
X117164766Y-116402732D01*
X117101648Y-116420000D01*
X116795496Y-116420000D01*
X116837968Y-116566194D01*
X116849911Y-116586389D01*
X116867092Y-116654113D01*
X116849911Y-116712628D01*
X116837506Y-116733604D01*
X116837504Y-116733609D01*
X116792357Y-116889002D01*
X116792356Y-116889008D01*
X116789500Y-116925302D01*
X116789500Y-117334697D01*
X116792356Y-117370991D01*
X116792357Y-117370997D01*
X116837504Y-117526390D01*
X116837505Y-117526393D01*
X116867652Y-117577369D01*
X116884835Y-117645093D01*
X116867653Y-117703610D01*
X116837968Y-117753805D01*
X116795496Y-117900000D01*
X117285053Y-117900000D01*
X117295570Y-117900447D01*
X117307830Y-117901490D01*
X117329007Y-117907643D01*
X117365310Y-117910500D01*
X117413667Y-117910500D01*
X117418918Y-117910947D01*
X117420949Y-117911736D01*
X117432592Y-117912883D01*
X117500192Y-117926329D01*
X117562102Y-117958713D01*
X117596676Y-118019429D01*
X117600000Y-118047946D01*
X117600000Y-118192053D01*
X117580315Y-118259092D01*
X117527511Y-118304847D01*
X117500192Y-118313670D01*
X117453159Y-118323025D01*
X117432591Y-118327117D01*
X117408401Y-118329500D01*
X117365302Y-118329500D01*
X117329008Y-118332356D01*
X117329002Y-118332357D01*
X117173610Y-118377503D01*
X117173605Y-118377506D01*
X117164766Y-118382732D01*
X117101648Y-118400000D01*
X116795496Y-118400000D01*
X116837968Y-118546194D01*
X116849911Y-118566389D01*
X116867092Y-118634113D01*
X116849911Y-118692628D01*
X116837506Y-118713604D01*
X116837504Y-118713609D01*
X116792357Y-118869002D01*
X116792356Y-118869008D01*
X116789500Y-118905302D01*
X116789500Y-119314697D01*
X116792356Y-119350991D01*
X116792357Y-119350997D01*
X116837504Y-119506390D01*
X116837505Y-119506393D01*
X116837506Y-119506395D01*
X116870064Y-119561447D01*
X116919881Y-119645684D01*
X116919887Y-119645692D01*
X117034307Y-119760112D01*
X117034311Y-119760115D01*
X117034313Y-119760117D01*
X117173605Y-119842494D01*
X117214587Y-119854400D01*
X117329002Y-119887642D01*
X117329005Y-119887642D01*
X117329007Y-119887643D01*
X117365310Y-119890500D01*
X117408401Y-119890500D01*
X117432591Y-119892882D01*
X117460992Y-119898532D01*
X117521156Y-119910500D01*
X117521158Y-119910500D01*
X117678843Y-119910500D01*
X117724398Y-119901438D01*
X117767409Y-119892882D01*
X117788157Y-119890548D01*
X117789885Y-119890500D01*
X117834690Y-119890500D01*
X117859123Y-119888577D01*
X117862261Y-119888490D01*
X117893113Y-119896626D01*
X117924348Y-119903186D01*
X117926670Y-119905475D01*
X117929821Y-119906306D01*
X117951378Y-119929832D01*
X117974106Y-119952236D01*
X117976125Y-119956838D01*
X117977024Y-119957819D01*
X117977326Y-119959575D01*
X117983408Y-119973435D01*
X118009501Y-120052179D01*
X118015186Y-120069333D01*
X118015187Y-120069336D01*
X118026873Y-120088282D01*
X118107288Y-120218656D01*
X118231344Y-120342712D01*
X118380666Y-120434814D01*
X118547203Y-120489999D01*
X118649991Y-120500500D01*
X119650008Y-120500499D01*
X119650016Y-120500498D01*
X119650019Y-120500498D01*
X119706302Y-120494748D01*
X119752797Y-120489999D01*
X119919334Y-120434814D01*
X120068656Y-120342712D01*
X120162675Y-120248692D01*
X120223994Y-120215210D01*
X120293686Y-120220194D01*
X120338034Y-120248695D01*
X120431654Y-120342315D01*
X120580875Y-120434356D01*
X120580880Y-120434358D01*
X120747302Y-120489505D01*
X120747309Y-120489506D01*
X120850019Y-120499999D01*
X121099999Y-120499999D01*
X121600000Y-120499999D01*
X121849972Y-120499999D01*
X121849986Y-120499998D01*
X121952697Y-120489505D01*
X122119119Y-120434358D01*
X122119124Y-120434356D01*
X122268345Y-120342315D01*
X122392315Y-120218345D01*
X122484357Y-120069123D01*
X122484358Y-120069119D01*
X122539505Y-119902697D01*
X122539506Y-119902690D01*
X122549999Y-119799986D01*
X122550000Y-119799973D01*
X122550000Y-119650000D01*
X121600000Y-119650000D01*
X121600000Y-120499999D01*
X121099999Y-120499999D01*
X121100000Y-120499998D01*
X121100000Y-119524000D01*
X121119685Y-119456961D01*
X121172489Y-119411206D01*
X121224000Y-119400000D01*
X121350000Y-119400000D01*
X121350000Y-119274000D01*
X121369685Y-119206961D01*
X121422489Y-119161206D01*
X121474000Y-119150000D01*
X122549999Y-119150000D01*
X122549999Y-119082499D01*
X122569684Y-119015460D01*
X122622488Y-118969705D01*
X122691646Y-118959761D01*
X122708594Y-118963422D01*
X122850000Y-119004503D01*
X122850000Y-117274000D01*
X122852550Y-117265314D01*
X122851262Y-117256353D01*
X122862240Y-117232312D01*
X122869685Y-117206961D01*
X122876525Y-117201033D01*
X122880287Y-117192797D01*
X122902521Y-117178507D01*
X122922489Y-117161206D01*
X122933003Y-117158918D01*
X122939065Y-117155023D01*
X122974000Y-117150000D01*
X123155500Y-117150000D01*
X123222539Y-117169685D01*
X123268294Y-117222489D01*
X123279500Y-117274000D01*
X123279500Y-117384697D01*
X123282356Y-117420991D01*
X123282357Y-117420997D01*
X123327503Y-117576389D01*
X123327505Y-117576393D01*
X123327506Y-117576395D01*
X123332732Y-117585233D01*
X123337082Y-117601132D01*
X123344977Y-117613417D01*
X123350000Y-117648352D01*
X123350000Y-117701645D01*
X123332734Y-117764763D01*
X123327507Y-117773600D01*
X123327504Y-117773608D01*
X123282357Y-117929002D01*
X123282356Y-117929008D01*
X123279500Y-117965302D01*
X123279500Y-118434697D01*
X123282356Y-118470991D01*
X123282357Y-118470997D01*
X123327503Y-118626389D01*
X123327505Y-118626393D01*
X123327506Y-118626395D01*
X123332732Y-118635233D01*
X123350000Y-118698352D01*
X123350000Y-119004503D01*
X123496194Y-118962032D01*
X123516384Y-118950091D01*
X123584108Y-118932906D01*
X123620744Y-118939878D01*
X123632184Y-118943911D01*
X123663605Y-118962494D01*
X123784474Y-118997610D01*
X123787755Y-118998767D01*
X123813380Y-119017239D01*
X123840000Y-119034240D01*
X123841506Y-119037514D01*
X123844433Y-119039624D01*
X123856004Y-119069019D01*
X123869207Y-119097712D01*
X123868923Y-119101840D01*
X123870025Y-119104639D01*
X123868049Y-119114579D01*
X123865597Y-119150304D01*
X123832334Y-119264797D01*
X123829500Y-119300811D01*
X123829500Y-119699169D01*
X123829501Y-119699191D01*
X123832335Y-119735205D01*
X123877129Y-119889388D01*
X123877132Y-119889395D01*
X123911128Y-119946881D01*
X123928309Y-120014605D01*
X123911128Y-120073119D01*
X123877132Y-120130604D01*
X123877129Y-120130611D01*
X123832335Y-120284791D01*
X123832334Y-120284797D01*
X123829500Y-120320811D01*
X123829500Y-120719169D01*
X123829501Y-120719191D01*
X123832335Y-120755205D01*
X123877129Y-120909388D01*
X123877131Y-120909393D01*
X123958863Y-121047595D01*
X123958869Y-121047603D01*
X124072396Y-121161130D01*
X124072400Y-121161133D01*
X124072402Y-121161135D01*
X124210607Y-121242869D01*
X124235493Y-121250099D01*
X124272104Y-121260736D01*
X124284957Y-121265249D01*
X124416503Y-121319737D01*
X124568644Y-121350000D01*
X124571153Y-121350499D01*
X124571156Y-121350500D01*
X124571158Y-121350500D01*
X124728844Y-121350500D01*
X124728845Y-121350499D01*
X124883497Y-121319737D01*
X125015051Y-121265245D01*
X125027883Y-121260738D01*
X125089393Y-121242869D01*
X125227598Y-121161135D01*
X125231664Y-121157068D01*
X125292984Y-121123582D01*
X125362675Y-121128563D01*
X125382470Y-121138015D01*
X125473806Y-121192032D01*
X125629089Y-121237145D01*
X125650000Y-121238789D01*
X125650000Y-120650597D01*
X125658644Y-120621159D01*
X125665168Y-120591169D01*
X125668923Y-120586152D01*
X125669685Y-120583558D01*
X125686319Y-120562915D01*
X125715363Y-120533872D01*
X125752917Y-120496318D01*
X125814241Y-120462834D01*
X125840598Y-120460000D01*
X126026000Y-120460000D01*
X126093039Y-120479685D01*
X126138794Y-120532489D01*
X126150000Y-120584000D01*
X126150000Y-121238789D01*
X126170910Y-121237145D01*
X126326195Y-121192031D01*
X126465374Y-121109721D01*
X126465383Y-121109714D01*
X126579714Y-120995383D01*
X126579721Y-120995374D01*
X126608768Y-120946259D01*
X126659837Y-120898576D01*
X126728579Y-120886072D01*
X126793168Y-120912717D01*
X126833098Y-120970053D01*
X126839500Y-121009380D01*
X126839500Y-126026997D01*
X126819815Y-126094036D01*
X126767011Y-126139791D01*
X126701198Y-126149253D01*
X126701149Y-126149882D01*
X126698357Y-126149662D01*
X126697853Y-126149735D01*
X126696308Y-126149501D01*
X126696293Y-126149500D01*
X126696287Y-126149500D01*
X126483713Y-126149500D01*
X126441165Y-126156239D01*
X126273760Y-126182753D01*
X126071585Y-126248444D01*
X125882179Y-126344951D01*
X125710213Y-126469890D01*
X125559890Y-126620213D01*
X125434949Y-126792182D01*
X125430202Y-126801499D01*
X125382227Y-126852293D01*
X125314405Y-126869087D01*
X125248271Y-126846548D01*
X125209234Y-126801495D01*
X125204626Y-126792452D01*
X125165270Y-126738282D01*
X125165269Y-126738282D01*
X124532962Y-127370590D01*
X124515925Y-127307007D01*
X124450099Y-127192993D01*
X124357007Y-127099901D01*
X124242993Y-127034075D01*
X124179409Y-127017037D01*
X124811716Y-126384728D01*
X124757550Y-126345375D01*
X124568217Y-126248904D01*
X124366129Y-126183242D01*
X124156246Y-126150000D01*
X123943754Y-126150000D01*
X123733872Y-126183242D01*
X123733869Y-126183242D01*
X123531782Y-126248904D01*
X123342439Y-126345380D01*
X123288282Y-126384727D01*
X123288282Y-126384728D01*
X123920591Y-127017037D01*
X123857007Y-127034075D01*
X123742993Y-127099901D01*
X123649901Y-127192993D01*
X123584075Y-127307007D01*
X123567037Y-127370591D01*
X122896818Y-126700372D01*
X122863333Y-126639049D01*
X122863330Y-126639036D01*
X122860499Y-126626015D01*
X122860499Y-126602128D01*
X122854091Y-126542517D01*
X122818992Y-126448412D01*
X122803798Y-126407673D01*
X122803793Y-126407664D01*
X122717547Y-126292455D01*
X122717544Y-126292452D01*
X122602335Y-126206206D01*
X122602328Y-126206202D01*
X122467482Y-126155908D01*
X122467483Y-126155908D01*
X122407883Y-126149501D01*
X122407881Y-126149500D01*
X122407873Y-126149500D01*
X122407864Y-126149500D01*
X120612129Y-126149500D01*
X120612123Y-126149501D01*
X120552516Y-126155908D01*
X120417671Y-126206202D01*
X120417664Y-126206206D01*
X120302455Y-126292452D01*
X120302452Y-126292455D01*
X120216206Y-126407664D01*
X120216202Y-126407671D01*
X120165908Y-126542517D01*
X120159501Y-126602116D01*
X120159500Y-126602135D01*
X120159500Y-128397870D01*
X120159501Y-128397876D01*
X120165908Y-128457483D01*
X120216202Y-128592328D01*
X120216206Y-128592334D01*
X120222835Y-128601190D01*
X120247252Y-128666654D01*
X120232400Y-128734927D01*
X120182995Y-128784332D01*
X120123568Y-128799500D01*
X113850862Y-128799500D01*
X113783823Y-128779815D01*
X113763181Y-128763181D01*
X112786819Y-127786819D01*
X112753334Y-127725496D01*
X112750500Y-127699138D01*
X112750500Y-126849758D01*
X112770185Y-126782719D01*
X112822989Y-126736964D01*
X112892147Y-126727020D01*
X112955703Y-126756045D01*
X112962181Y-126762077D01*
X113070213Y-126870109D01*
X113242179Y-126995048D01*
X113242181Y-126995049D01*
X113242184Y-126995051D01*
X113431588Y-127091557D01*
X113633757Y-127157246D01*
X113843713Y-127190500D01*
X113843714Y-127190500D01*
X114056286Y-127190500D01*
X114056287Y-127190500D01*
X114266243Y-127157246D01*
X114468412Y-127091557D01*
X114657816Y-126995051D01*
X114705917Y-126960104D01*
X114829786Y-126870109D01*
X114829788Y-126870106D01*
X114829792Y-126870104D01*
X114980104Y-126719792D01*
X114980106Y-126719788D01*
X114980109Y-126719786D01*
X115105048Y-126547820D01*
X115105047Y-126547820D01*
X115105051Y-126547816D01*
X115201557Y-126358412D01*
X115267246Y-126156243D01*
X115300500Y-125946287D01*
X115300500Y-125733713D01*
X115267246Y-125523757D01*
X115201557Y-125321588D01*
X115105051Y-125132184D01*
X115105049Y-125132181D01*
X115105048Y-125132179D01*
X114980109Y-124960213D01*
X114829786Y-124809890D01*
X114657820Y-124684951D01*
X114657205Y-124684637D01*
X114649054Y-124680484D01*
X114623745Y-124656582D01*
X119500001Y-124656582D01*
X119506408Y-124727102D01*
X119506409Y-124727107D01*
X119556981Y-124889396D01*
X119644927Y-125034877D01*
X119765122Y-125155072D01*
X119910604Y-125243019D01*
X119910603Y-125243019D01*
X120072894Y-125293590D01*
X120072893Y-125293590D01*
X120143408Y-125299998D01*
X120143426Y-125299999D01*
X120650000Y-125299999D01*
X120656581Y-125299999D01*
X120727102Y-125293591D01*
X120727107Y-125293590D01*
X120889396Y-125243018D01*
X121034877Y-125155072D01*
X121155072Y-125034877D01*
X121243019Y-124889395D01*
X121293590Y-124727106D01*
X121300000Y-124656572D01*
X121300000Y-124050000D01*
X120650000Y-124050000D01*
X120650000Y-125299999D01*
X120143426Y-125299999D01*
X120149999Y-125299998D01*
X120150000Y-125299998D01*
X120150000Y-124050000D01*
X119500001Y-124050000D01*
X119500001Y-124656582D01*
X114623745Y-124656582D01*
X114598259Y-124632512D01*
X114581463Y-124564692D01*
X114603999Y-124498556D01*
X114649054Y-124459515D01*
X114657816Y-124455051D01*
X114705917Y-124420104D01*
X114829786Y-124330109D01*
X114829788Y-124330106D01*
X114829792Y-124330104D01*
X114980104Y-124179792D01*
X114980106Y-124179788D01*
X114980109Y-124179786D01*
X115105048Y-124007820D01*
X115105047Y-124007820D01*
X115105051Y-124007816D01*
X115201557Y-123818412D01*
X115267246Y-123616243D01*
X115300500Y-123406287D01*
X115300500Y-123193713D01*
X115267246Y-122983757D01*
X115254142Y-122943427D01*
X119500000Y-122943427D01*
X119500000Y-123550000D01*
X120150000Y-123550000D01*
X120650000Y-123550000D01*
X121299999Y-123550000D01*
X121299999Y-122943417D01*
X121299996Y-122943386D01*
X123699500Y-122943386D01*
X123699500Y-124656613D01*
X123705913Y-124727192D01*
X123705913Y-124727194D01*
X123705914Y-124727196D01*
X123720794Y-124774949D01*
X123756522Y-124889606D01*
X123844530Y-125035188D01*
X123964811Y-125155469D01*
X123964813Y-125155470D01*
X123964815Y-125155472D01*
X124110394Y-125243478D01*
X124272804Y-125294086D01*
X124343384Y-125300500D01*
X124343387Y-125300500D01*
X124856613Y-125300500D01*
X124856616Y-125300500D01*
X124927196Y-125294086D01*
X125089606Y-125243478D01*
X125235185Y-125155472D01*
X125355472Y-125035185D01*
X125443478Y-124889606D01*
X125494086Y-124727196D01*
X125500500Y-124656616D01*
X125500500Y-122943384D01*
X125494086Y-122872804D01*
X125443478Y-122710394D01*
X125355472Y-122564815D01*
X125355470Y-122564813D01*
X125355469Y-122564811D01*
X125235188Y-122444530D01*
X125172153Y-122406424D01*
X125089606Y-122356522D01*
X124927196Y-122305914D01*
X124927194Y-122305913D01*
X124927192Y-122305913D01*
X124877778Y-122301423D01*
X124856616Y-122299500D01*
X124343384Y-122299500D01*
X124324145Y-122301248D01*
X124272807Y-122305913D01*
X124110393Y-122356522D01*
X123964811Y-122444530D01*
X123844530Y-122564811D01*
X123756522Y-122710393D01*
X123705913Y-122872807D01*
X123699500Y-122943386D01*
X121299996Y-122943386D01*
X121293591Y-122872897D01*
X121293590Y-122872892D01*
X121243018Y-122710603D01*
X121155072Y-122565122D01*
X121034877Y-122444927D01*
X120889395Y-122356980D01*
X120889396Y-122356980D01*
X120727105Y-122306409D01*
X120727106Y-122306409D01*
X120656572Y-122300000D01*
X120650000Y-122300000D01*
X120650000Y-123550000D01*
X120150000Y-123550000D01*
X120150000Y-122300000D01*
X120149999Y-122299999D01*
X120143436Y-122300000D01*
X120143417Y-122300001D01*
X120072897Y-122306408D01*
X120072892Y-122306409D01*
X119910603Y-122356981D01*
X119765122Y-122444927D01*
X119644927Y-122565122D01*
X119556980Y-122710604D01*
X119506409Y-122872893D01*
X119500000Y-122943427D01*
X115254142Y-122943427D01*
X115201557Y-122781588D01*
X115105051Y-122592184D01*
X115105049Y-122592181D01*
X115105048Y-122592179D01*
X114980109Y-122420213D01*
X114829786Y-122269890D01*
X114657820Y-122144951D01*
X114657205Y-122144637D01*
X114649054Y-122140484D01*
X114598259Y-122092512D01*
X114581463Y-122024692D01*
X114603999Y-121958556D01*
X114649054Y-121919515D01*
X114657816Y-121915051D01*
X114679789Y-121899086D01*
X114829786Y-121790109D01*
X114829788Y-121790106D01*
X114829792Y-121790104D01*
X114980104Y-121639792D01*
X114980106Y-121639788D01*
X114980109Y-121639786D01*
X115105048Y-121467820D01*
X115105047Y-121467820D01*
X115105051Y-121467816D01*
X115201557Y-121278412D01*
X115267246Y-121076243D01*
X115300500Y-120866287D01*
X115300500Y-120653713D01*
X115267246Y-120443757D01*
X115201557Y-120241588D01*
X115105051Y-120052184D01*
X115105049Y-120052181D01*
X115105048Y-120052179D01*
X114980109Y-119880213D01*
X114829786Y-119729890D01*
X114657820Y-119604951D01*
X114657205Y-119604637D01*
X114649054Y-119600484D01*
X114598259Y-119552512D01*
X114581463Y-119484692D01*
X114603999Y-119418556D01*
X114649054Y-119379515D01*
X114657816Y-119375051D01*
X114740887Y-119314697D01*
X114829786Y-119250109D01*
X114829788Y-119250106D01*
X114829792Y-119250104D01*
X114980104Y-119099792D01*
X114980106Y-119099788D01*
X114980109Y-119099786D01*
X115089086Y-118949789D01*
X115105051Y-118927816D01*
X115201557Y-118738412D01*
X115267246Y-118536243D01*
X115300500Y-118326287D01*
X115300500Y-118113713D01*
X115267246Y-117903757D01*
X115201557Y-117701588D01*
X115105051Y-117512184D01*
X115105049Y-117512181D01*
X115105048Y-117512179D01*
X114980109Y-117340213D01*
X114829786Y-117189890D01*
X114657820Y-117064951D01*
X114657115Y-117064591D01*
X114649054Y-117060485D01*
X114598259Y-117012512D01*
X114581463Y-116944692D01*
X114603999Y-116878556D01*
X114649054Y-116839515D01*
X114657816Y-116835051D01*
X114754151Y-116765060D01*
X114829786Y-116710109D01*
X114829788Y-116710106D01*
X114829792Y-116710104D01*
X114980104Y-116559792D01*
X114980106Y-116559788D01*
X114980109Y-116559786D01*
X115105048Y-116387820D01*
X115105047Y-116387820D01*
X115105051Y-116387816D01*
X115201557Y-116198412D01*
X115258330Y-116023680D01*
X115297768Y-115966006D01*
X115362126Y-115938808D01*
X115376261Y-115938000D01*
X120672237Y-115938000D01*
X120739276Y-115957685D01*
G37*
%TD.AperFunction*%
%TA.AperFunction,Conductor*%
G36*
X123584075Y-127692993D02*
G01*
X123649901Y-127807007D01*
X123742993Y-127900099D01*
X123857007Y-127965925D01*
X123920590Y-127982962D01*
X123288282Y-128615269D01*
X123292257Y-128665771D01*
X123277893Y-128734148D01*
X123228842Y-128783905D01*
X123168639Y-128799500D01*
X122896432Y-128799500D01*
X122829393Y-128779815D01*
X122783638Y-128727011D01*
X122773694Y-128657853D01*
X122797165Y-128601190D01*
X122802324Y-128594297D01*
X122803796Y-128592331D01*
X122854091Y-128457483D01*
X122860500Y-128397873D01*
X122860499Y-128387312D01*
X122880179Y-128320275D01*
X122896818Y-128299626D01*
X123567037Y-127629408D01*
X123584075Y-127692993D01*
G37*
%TD.AperFunction*%
%TA.AperFunction,Conductor*%
G36*
X125165270Y-128261717D02*
G01*
X125165270Y-128261716D01*
X125204622Y-128207555D01*
X125209232Y-128198507D01*
X125257205Y-128147709D01*
X125325025Y-128130912D01*
X125391161Y-128153447D01*
X125430204Y-128198504D01*
X125434949Y-128207817D01*
X125559890Y-128379786D01*
X125710207Y-128530103D01*
X125772252Y-128575181D01*
X125814918Y-128630511D01*
X125820897Y-128700124D01*
X125788292Y-128761920D01*
X125727453Y-128796277D01*
X125699367Y-128799500D01*
X124931361Y-128799500D01*
X124864322Y-128779815D01*
X124818567Y-128727011D01*
X124807743Y-128665772D01*
X124811717Y-128615270D01*
X124179408Y-127982962D01*
X124242993Y-127965925D01*
X124357007Y-127900099D01*
X124450099Y-127807007D01*
X124515925Y-127692993D01*
X124532962Y-127629408D01*
X125165270Y-128261717D01*
G37*
%TD.AperFunction*%
%TA.AperFunction,Conductor*%
G36*
X129087977Y-115428008D02*
G01*
X129089131Y-115427905D01*
X129119130Y-115443603D01*
X129149419Y-115458765D01*
X129150974Y-115460266D01*
X129151037Y-115460299D01*
X129151071Y-115460360D01*
X129152603Y-115461838D01*
X131516241Y-117825476D01*
X131549726Y-117886799D01*
X131546492Y-117951473D01*
X131532753Y-117993757D01*
X131499500Y-118203713D01*
X131499500Y-118416286D01*
X131525642Y-118581344D01*
X131532754Y-118626243D01*
X131589373Y-118800499D01*
X131598444Y-118828414D01*
X131694951Y-119017820D01*
X131819890Y-119189786D01*
X131970213Y-119340109D01*
X132142179Y-119465048D01*
X132142181Y-119465049D01*
X132142184Y-119465051D01*
X132151493Y-119469794D01*
X132202290Y-119517766D01*
X132219087Y-119585587D01*
X132196552Y-119651722D01*
X132151505Y-119690760D01*
X132142446Y-119695376D01*
X132142440Y-119695380D01*
X132088282Y-119734727D01*
X132088282Y-119734728D01*
X132720591Y-120367037D01*
X132657007Y-120384075D01*
X132542993Y-120449901D01*
X132449901Y-120542993D01*
X132384075Y-120657007D01*
X132367037Y-120720591D01*
X131734728Y-120088282D01*
X131734727Y-120088282D01*
X131695380Y-120142439D01*
X131598904Y-120331782D01*
X131533242Y-120533869D01*
X131533242Y-120533872D01*
X131500000Y-120743753D01*
X131500000Y-120956246D01*
X131533242Y-121166127D01*
X131533242Y-121166130D01*
X131598904Y-121368217D01*
X131695375Y-121557550D01*
X131734728Y-121611716D01*
X132367037Y-120979408D01*
X132384075Y-121042993D01*
X132449901Y-121157007D01*
X132542993Y-121250099D01*
X132657007Y-121315925D01*
X132720590Y-121332962D01*
X132088282Y-121965269D01*
X132088282Y-121965270D01*
X132142452Y-122004626D01*
X132142451Y-122004626D01*
X132151495Y-122009234D01*
X132202292Y-122057208D01*
X132219087Y-122125029D01*
X132196550Y-122191164D01*
X132151499Y-122230202D01*
X132142182Y-122234949D01*
X131970213Y-122359890D01*
X131819890Y-122510213D01*
X131694948Y-122682184D01*
X131694947Y-122682185D01*
X131674765Y-122721795D01*
X131626791Y-122772591D01*
X131564281Y-122789500D01*
X131175783Y-122789500D01*
X131108744Y-122769815D01*
X131088102Y-122753181D01*
X129976819Y-121641898D01*
X129943334Y-121580575D01*
X129940500Y-121554217D01*
X129940500Y-117679125D01*
X129940500Y-117679124D01*
X129930094Y-117640289D01*
X129899577Y-117526396D01*
X129870639Y-117476276D01*
X129820520Y-117389465D01*
X129708716Y-117277661D01*
X129708715Y-117277660D01*
X129704385Y-117273330D01*
X129704374Y-117273320D01*
X128532828Y-116101774D01*
X128499343Y-116040451D01*
X128504327Y-115970759D01*
X128546199Y-115914826D01*
X128551591Y-115911009D01*
X128610289Y-115871789D01*
X128721789Y-115760289D01*
X128809394Y-115629179D01*
X128844859Y-115543556D01*
X128888698Y-115489157D01*
X128914035Y-115475616D01*
X128924349Y-115471559D01*
X128933497Y-115469740D01*
X129018482Y-115434537D01*
X129019538Y-115434123D01*
X129053263Y-115431109D01*
X129086940Y-115427489D01*
X129087977Y-115428008D01*
G37*
%TD.AperFunction*%
%TA.AperFunction,Conductor*%
G36*
X133965270Y-121611717D02*
G01*
X133965271Y-121611716D01*
X133975182Y-121598076D01*
X134030512Y-121555410D01*
X134100125Y-121549431D01*
X134161920Y-121582037D01*
X134196278Y-121642876D01*
X134199500Y-121670961D01*
X134199500Y-122568186D01*
X134179815Y-122635225D01*
X134127011Y-122680980D01*
X134057853Y-122690924D01*
X133994297Y-122661899D01*
X133975182Y-122641071D01*
X133880109Y-122510214D01*
X133880105Y-122510209D01*
X133729786Y-122359890D01*
X133557817Y-122234949D01*
X133548504Y-122230204D01*
X133497707Y-122182230D01*
X133480912Y-122114409D01*
X133503449Y-122048274D01*
X133548507Y-122009232D01*
X133557555Y-122004622D01*
X133611716Y-121965270D01*
X133611717Y-121965270D01*
X132979408Y-121332962D01*
X133042993Y-121315925D01*
X133157007Y-121250099D01*
X133250099Y-121157007D01*
X133315925Y-121042993D01*
X133332962Y-120979409D01*
X133965270Y-121611717D01*
G37*
%TD.AperFunction*%
%TA.AperFunction,Conductor*%
G36*
X134161920Y-119042888D02*
G01*
X134196277Y-119103727D01*
X134199500Y-119131813D01*
X134199500Y-120029038D01*
X134179815Y-120096077D01*
X134127011Y-120141832D01*
X134057853Y-120151776D01*
X133994297Y-120122751D01*
X133975182Y-120101923D01*
X133965271Y-120088282D01*
X133965269Y-120088282D01*
X133332962Y-120720590D01*
X133315925Y-120657007D01*
X133250099Y-120542993D01*
X133157007Y-120449901D01*
X133042993Y-120384075D01*
X132979409Y-120367037D01*
X133611716Y-119734728D01*
X133557547Y-119695373D01*
X133557547Y-119695372D01*
X133548500Y-119690763D01*
X133497706Y-119642788D01*
X133480912Y-119574966D01*
X133503451Y-119508832D01*
X133548508Y-119469793D01*
X133557816Y-119465051D01*
X133675546Y-119379516D01*
X133729786Y-119340109D01*
X133729788Y-119340106D01*
X133729792Y-119340104D01*
X133880104Y-119189792D01*
X133975182Y-119058926D01*
X134030511Y-119016262D01*
X134100124Y-119010283D01*
X134161920Y-119042888D01*
G37*
%TD.AperFunction*%
%TA.AperFunction,Conductor*%
G36*
X125714041Y-117897268D02*
G01*
X125773605Y-117932494D01*
X125814587Y-117944400D01*
X125929002Y-117977642D01*
X125929005Y-117977642D01*
X125929007Y-117977643D01*
X125965310Y-117980500D01*
X126008401Y-117980500D01*
X126032592Y-117982883D01*
X126100192Y-117996329D01*
X126162102Y-118028713D01*
X126196676Y-118089429D01*
X126200000Y-118117946D01*
X126200000Y-118286000D01*
X126180315Y-118353039D01*
X126127511Y-118398794D01*
X126076000Y-118410000D01*
X125341362Y-118410000D01*
X125274323Y-118390315D01*
X125261523Y-118380000D01*
X125224000Y-118380000D01*
X125156961Y-118360315D01*
X125111206Y-118307511D01*
X125100000Y-118256000D01*
X125100000Y-118074500D01*
X125119685Y-118007461D01*
X125172489Y-117961706D01*
X125224000Y-117950500D01*
X125334682Y-117950500D01*
X125334690Y-117950500D01*
X125370993Y-117947643D01*
X125370995Y-117947642D01*
X125370997Y-117947642D01*
X125423132Y-117932495D01*
X125526395Y-117902494D01*
X125535231Y-117897267D01*
X125551133Y-117892917D01*
X125563418Y-117885023D01*
X125598353Y-117880000D01*
X125650920Y-117880000D01*
X125714041Y-117897268D01*
G37*
%TD.AperFunction*%
%TA.AperFunction,Conductor*%
G36*
X123606079Y-109744623D02*
G01*
X123630491Y-109763586D01*
X124231279Y-110364374D01*
X124231289Y-110364385D01*
X124235619Y-110368715D01*
X124235620Y-110368716D01*
X124347424Y-110480520D01*
X124405893Y-110514276D01*
X124434235Y-110530639D01*
X124434237Y-110530641D01*
X124472548Y-110552760D01*
X124484355Y-110559577D01*
X124637082Y-110600500D01*
X124637083Y-110600500D01*
X125223800Y-110600500D01*
X125290839Y-110620185D01*
X125326902Y-110655609D01*
X125386381Y-110744627D01*
X125497878Y-110856124D01*
X125497882Y-110856127D01*
X125628985Y-110943728D01*
X125628998Y-110943735D01*
X125765642Y-111000334D01*
X125774674Y-111004075D01*
X125875507Y-111024132D01*
X125929324Y-111034837D01*
X125929327Y-111034838D01*
X125929329Y-111034838D01*
X126087015Y-111034838D01*
X126087016Y-111034837D01*
X126241668Y-111004075D01*
X126250700Y-111000333D01*
X126320167Y-110992861D01*
X126382648Y-111024132D01*
X126418303Y-111084219D01*
X126421273Y-111129675D01*
X126412000Y-111206898D01*
X126412000Y-111393102D01*
X126412567Y-111397820D01*
X126423061Y-111485217D01*
X126423061Y-111514783D01*
X126419707Y-111542719D01*
X126412000Y-111606898D01*
X126412000Y-111793102D01*
X126413728Y-111807491D01*
X126423061Y-111885217D01*
X126423068Y-111914720D01*
X126423060Y-111914779D01*
X126423061Y-111914783D01*
X126422937Y-111915810D01*
X126422623Y-111918435D01*
X126422623Y-111918436D01*
X126412000Y-112006898D01*
X126412000Y-112007297D01*
X126411516Y-112011346D01*
X126399145Y-112040236D01*
X126388504Y-112069795D01*
X126385502Y-112072095D01*
X126384013Y-112075575D01*
X126357982Y-112093193D01*
X126333054Y-112112304D01*
X126327265Y-112113983D01*
X126326151Y-112114738D01*
X126324532Y-112114776D01*
X126312585Y-112118243D01*
X126179008Y-112144813D01*
X126178998Y-112144816D01*
X126033327Y-112205154D01*
X126033314Y-112205161D01*
X125902211Y-112292762D01*
X125902207Y-112292765D01*
X125790713Y-112404259D01*
X125790710Y-112404263D01*
X125703109Y-112535366D01*
X125703102Y-112535379D01*
X125642764Y-112681050D01*
X125642761Y-112681062D01*
X125612000Y-112835705D01*
X125612000Y-112835710D01*
X125612000Y-112993394D01*
X125619537Y-113031284D01*
X125631483Y-113091343D01*
X125630775Y-113099250D01*
X125633549Y-113106687D01*
X125627705Y-113133549D01*
X125625255Y-113160935D01*
X125620006Y-113168943D01*
X125618698Y-113174960D01*
X125597547Y-113203214D01*
X125437582Y-113363182D01*
X125376259Y-113396668D01*
X125349900Y-113399502D01*
X124579766Y-113399502D01*
X124512727Y-113379817D01*
X124510875Y-113378604D01*
X124379185Y-113290611D01*
X124379172Y-113290604D01*
X124233501Y-113230266D01*
X124233489Y-113230263D01*
X124078845Y-113199502D01*
X124078842Y-113199502D01*
X123921158Y-113199502D01*
X123921155Y-113199502D01*
X123766510Y-113230263D01*
X123766498Y-113230266D01*
X123620827Y-113290604D01*
X123620814Y-113290611D01*
X123489714Y-113378210D01*
X123489708Y-113378214D01*
X123444133Y-113423789D01*
X123382810Y-113457273D01*
X123332264Y-113457724D01*
X123285067Y-113448336D01*
X123127383Y-113448336D01*
X123127380Y-113448336D01*
X122972735Y-113479097D01*
X122972723Y-113479100D01*
X122827052Y-113539438D01*
X122827039Y-113539445D01*
X122695936Y-113627046D01*
X122695932Y-113627049D01*
X122584438Y-113738543D01*
X122584435Y-113738547D01*
X122496834Y-113869650D01*
X122496827Y-113869663D01*
X122436489Y-114015334D01*
X122436485Y-114015348D01*
X122435476Y-114020422D01*
X122403089Y-114082332D01*
X122342372Y-114116903D01*
X122272603Y-114113161D01*
X122221883Y-114079390D01*
X122213055Y-114069627D01*
X122193020Y-114034924D01*
X122081216Y-113923120D01*
X122081213Y-113923118D01*
X121832767Y-113674672D01*
X121799282Y-113613349D01*
X121804266Y-113543657D01*
X121832766Y-113499311D01*
X121921789Y-113410289D01*
X122009394Y-113279179D01*
X122069737Y-113133497D01*
X122100500Y-112978842D01*
X122100500Y-112821158D01*
X122100500Y-112821155D01*
X122100499Y-112821153D01*
X122087734Y-112756980D01*
X122069737Y-112666503D01*
X122017131Y-112539500D01*
X122009397Y-112520827D01*
X122009390Y-112520814D01*
X121921398Y-112389125D01*
X121900520Y-112322447D01*
X121900500Y-112320234D01*
X121900500Y-111162595D01*
X121909145Y-111133151D01*
X121915668Y-111103169D01*
X121919422Y-111098153D01*
X121920185Y-111095556D01*
X121936814Y-111074917D01*
X122039259Y-110972472D01*
X122039264Y-110972469D01*
X122049468Y-110962264D01*
X122049470Y-110962264D01*
X122161274Y-110850460D01*
X122210495Y-110765203D01*
X122230197Y-110739526D01*
X122302543Y-110667182D01*
X122390148Y-110536072D01*
X122450491Y-110390390D01*
X122461473Y-110335175D01*
X122493857Y-110273268D01*
X122554572Y-110238693D01*
X122607281Y-110237752D01*
X122632694Y-110242807D01*
X122790380Y-110242807D01*
X122790381Y-110242806D01*
X122945033Y-110212044D01*
X123090715Y-110151701D01*
X123221825Y-110064096D01*
X123333325Y-109952596D01*
X123420930Y-109821486D01*
X123428248Y-109803816D01*
X123472086Y-109749414D01*
X123538379Y-109727346D01*
X123606079Y-109744623D01*
G37*
%TD.AperFunction*%
%TA.AperFunction,Conductor*%
G36*
X133965270Y-108911717D02*
G01*
X133965271Y-108911716D01*
X133975182Y-108898076D01*
X134030512Y-108855410D01*
X134100125Y-108849431D01*
X134161920Y-108882037D01*
X134196278Y-108942876D01*
X134199500Y-108970961D01*
X134199500Y-109868186D01*
X134179815Y-109935225D01*
X134127011Y-109980980D01*
X134057853Y-109990924D01*
X133994297Y-109961899D01*
X133975182Y-109941071D01*
X133880109Y-109810214D01*
X133880105Y-109810209D01*
X133729786Y-109659890D01*
X133557817Y-109534949D01*
X133548504Y-109530204D01*
X133497707Y-109482230D01*
X133480912Y-109414409D01*
X133503449Y-109348274D01*
X133548507Y-109309232D01*
X133557555Y-109304622D01*
X133611716Y-109265270D01*
X133611717Y-109265270D01*
X132979409Y-108632962D01*
X133042993Y-108615925D01*
X133157007Y-108550099D01*
X133250099Y-108457007D01*
X133315925Y-108342993D01*
X133332962Y-108279409D01*
X133965270Y-108911717D01*
G37*
%TD.AperFunction*%
%TA.AperFunction,Conductor*%
G36*
X128253168Y-106736789D02*
G01*
X128293098Y-106794124D01*
X128299500Y-106833452D01*
X128299500Y-107991042D01*
X128279815Y-108058081D01*
X128263181Y-108078723D01*
X127718780Y-108623124D01*
X127708246Y-108633657D01*
X127646921Y-108667139D01*
X127577230Y-108662152D01*
X127532888Y-108633653D01*
X127149319Y-108250084D01*
X127115834Y-108188761D01*
X127113000Y-108162403D01*
X127113000Y-107437597D01*
X127132685Y-107370558D01*
X127149319Y-107349916D01*
X127170197Y-107329038D01*
X127364662Y-107134572D01*
X127381258Y-107125510D01*
X127394866Y-107112380D01*
X127424362Y-107101973D01*
X127425983Y-107101089D01*
X127428149Y-107100638D01*
X127468170Y-107092677D01*
X127517408Y-107082882D01*
X127541599Y-107080500D01*
X127584682Y-107080500D01*
X127584690Y-107080500D01*
X127620993Y-107077643D01*
X127620995Y-107077642D01*
X127620997Y-107077642D01*
X127684859Y-107059088D01*
X127776395Y-107032494D01*
X127915687Y-106950117D01*
X128030117Y-106835687D01*
X128054698Y-106794124D01*
X128068768Y-106770332D01*
X128119836Y-106722648D01*
X128188578Y-106710144D01*
X128253168Y-106736789D01*
G37*
%TD.AperFunction*%
%TA.AperFunction,Conductor*%
G36*
X134161920Y-106342888D02*
G01*
X134196277Y-106403727D01*
X134199500Y-106431813D01*
X134199500Y-107329038D01*
X134179815Y-107396077D01*
X134127011Y-107441832D01*
X134057853Y-107451776D01*
X133994297Y-107422751D01*
X133975182Y-107401923D01*
X133965271Y-107388282D01*
X133965269Y-107388282D01*
X133332962Y-108020590D01*
X133315925Y-107957007D01*
X133250099Y-107842993D01*
X133157007Y-107749901D01*
X133042993Y-107684075D01*
X132979407Y-107667036D01*
X133611716Y-107034728D01*
X133557547Y-106995373D01*
X133557547Y-106995372D01*
X133548500Y-106990763D01*
X133497706Y-106942788D01*
X133480912Y-106874966D01*
X133503451Y-106808832D01*
X133548508Y-106769793D01*
X133557816Y-106765051D01*
X133675546Y-106679516D01*
X133729786Y-106640109D01*
X133729788Y-106640106D01*
X133729792Y-106640104D01*
X133880104Y-106489792D01*
X133975182Y-106358926D01*
X134030511Y-106316262D01*
X134100124Y-106310283D01*
X134161920Y-106342888D01*
G37*
%TD.AperFunction*%
%TA.AperFunction,Conductor*%
G36*
X128218834Y-95013211D02*
G01*
X128274767Y-95055083D01*
X128299184Y-95120547D01*
X128299500Y-95129393D01*
X128299500Y-104807528D01*
X128279815Y-104874567D01*
X128227011Y-104920322D01*
X128157853Y-104930266D01*
X128094297Y-104901241D01*
X128068768Y-104870650D01*
X128029718Y-104804622D01*
X128029714Y-104804616D01*
X127915383Y-104690285D01*
X127915374Y-104690278D01*
X127776195Y-104607968D01*
X127776190Y-104607966D01*
X127620918Y-104562855D01*
X127620912Y-104562854D01*
X127600000Y-104561209D01*
X127600000Y-105216000D01*
X127580315Y-105283039D01*
X127527511Y-105328794D01*
X127476000Y-105340000D01*
X127224000Y-105340000D01*
X127156961Y-105320315D01*
X127111206Y-105267511D01*
X127100000Y-105216000D01*
X127100000Y-104561210D01*
X127099998Y-104561208D01*
X127096770Y-104561463D01*
X127028393Y-104547098D01*
X126978636Y-104498046D01*
X126967966Y-104472442D01*
X126962494Y-104453605D01*
X126880117Y-104314313D01*
X126880115Y-104314311D01*
X126880112Y-104314307D01*
X126765692Y-104199887D01*
X126765684Y-104199881D01*
X126626393Y-104117505D01*
X126626390Y-104117504D01*
X126470997Y-104072357D01*
X126470991Y-104072356D01*
X126434697Y-104069500D01*
X126434690Y-104069500D01*
X125965310Y-104069500D01*
X125965302Y-104069500D01*
X125929008Y-104072356D01*
X125929002Y-104072357D01*
X125809095Y-104107194D01*
X125739225Y-104106995D01*
X125680555Y-104069053D01*
X125651712Y-104005414D01*
X125650500Y-103988118D01*
X125650500Y-98605431D01*
X125670185Y-98538392D01*
X125720946Y-98494406D01*
X125720788Y-98494109D01*
X125722098Y-98493408D01*
X125722989Y-98492637D01*
X125725968Y-98491340D01*
X125726148Y-98491243D01*
X125726159Y-98491239D01*
X125857269Y-98403634D01*
X125968769Y-98292134D01*
X126056374Y-98161024D01*
X126116717Y-98015342D01*
X126147480Y-97860687D01*
X126147480Y-97703003D01*
X126147480Y-97703000D01*
X126147479Y-97702998D01*
X126141663Y-97673760D01*
X126116717Y-97548348D01*
X126116715Y-97548343D01*
X126056377Y-97402672D01*
X126056370Y-97402659D01*
X125980928Y-97289753D01*
X125960050Y-97223076D01*
X125978534Y-97155696D01*
X125996345Y-97133185D01*
X128087819Y-95041712D01*
X128149142Y-95008227D01*
X128218834Y-95013211D01*
G37*
%TD.AperFunction*%
%TA.AperFunction,Conductor*%
G36*
X134161920Y-103802888D02*
G01*
X134196277Y-103863727D01*
X134199500Y-103891813D01*
X134199500Y-104788186D01*
X134179815Y-104855225D01*
X134127011Y-104900980D01*
X134057853Y-104910924D01*
X133994297Y-104881899D01*
X133975182Y-104861071D01*
X133880109Y-104730214D01*
X133880105Y-104730209D01*
X133729786Y-104579890D01*
X133557820Y-104454951D01*
X133555176Y-104453604D01*
X133549054Y-104450485D01*
X133498259Y-104402512D01*
X133481463Y-104334692D01*
X133503999Y-104268556D01*
X133549054Y-104229515D01*
X133557816Y-104225051D01*
X133675546Y-104139516D01*
X133729786Y-104100109D01*
X133729788Y-104100106D01*
X133729792Y-104100104D01*
X133880104Y-103949792D01*
X133975182Y-103818926D01*
X134030511Y-103776262D01*
X134100124Y-103770283D01*
X134161920Y-103802888D01*
G37*
%TD.AperFunction*%
%TA.AperFunction,Conductor*%
G36*
X134161920Y-101262888D02*
G01*
X134196277Y-101323727D01*
X134199500Y-101351813D01*
X134199500Y-102248186D01*
X134179815Y-102315225D01*
X134127011Y-102360980D01*
X134057853Y-102370924D01*
X133994297Y-102341899D01*
X133975182Y-102321071D01*
X133880109Y-102190214D01*
X133880105Y-102190209D01*
X133729786Y-102039890D01*
X133557820Y-101914951D01*
X133557115Y-101914591D01*
X133549054Y-101910485D01*
X133498259Y-101862512D01*
X133481463Y-101794692D01*
X133503999Y-101728556D01*
X133549054Y-101689515D01*
X133557816Y-101685051D01*
X133609513Y-101647491D01*
X133729786Y-101560109D01*
X133729788Y-101560106D01*
X133729792Y-101560104D01*
X133880104Y-101409792D01*
X133975182Y-101278926D01*
X134030511Y-101236262D01*
X134100124Y-101230283D01*
X134161920Y-101262888D01*
G37*
%TD.AperFunction*%
%TA.AperFunction,Conductor*%
G36*
X134161920Y-98722888D02*
G01*
X134196277Y-98783727D01*
X134199500Y-98811813D01*
X134199500Y-99708186D01*
X134179815Y-99775225D01*
X134127011Y-99820980D01*
X134057853Y-99830924D01*
X133994297Y-99801899D01*
X133975182Y-99781071D01*
X133880109Y-99650214D01*
X133880105Y-99650209D01*
X133729786Y-99499890D01*
X133557820Y-99374951D01*
X133557115Y-99374591D01*
X133549054Y-99370485D01*
X133498259Y-99322512D01*
X133481463Y-99254692D01*
X133503999Y-99188556D01*
X133549054Y-99149515D01*
X133557816Y-99145051D01*
X133609513Y-99107491D01*
X133729786Y-99020109D01*
X133729788Y-99020106D01*
X133729792Y-99020104D01*
X133880104Y-98869792D01*
X133975182Y-98738926D01*
X134030511Y-98696262D01*
X134100124Y-98690283D01*
X134161920Y-98722888D01*
G37*
%TD.AperFunction*%
%TA.AperFunction,Conductor*%
G36*
X131419334Y-95292414D02*
G01*
X131475267Y-95334286D01*
X131499684Y-95399750D01*
X131500000Y-95408596D01*
X131500000Y-95556246D01*
X131533242Y-95766127D01*
X131533242Y-95766130D01*
X131598904Y-95968217D01*
X131695375Y-96157550D01*
X131734728Y-96211716D01*
X132367037Y-95579408D01*
X132384075Y-95642993D01*
X132449901Y-95757007D01*
X132542993Y-95850099D01*
X132657007Y-95915925D01*
X132720590Y-95932962D01*
X132088282Y-96565269D01*
X132088282Y-96565270D01*
X132142452Y-96604626D01*
X132142451Y-96604626D01*
X132151495Y-96609234D01*
X132202292Y-96657208D01*
X132219087Y-96725029D01*
X132196550Y-96791164D01*
X132151499Y-96830202D01*
X132142182Y-96834949D01*
X131970213Y-96959890D01*
X131819890Y-97110213D01*
X131694951Y-97282179D01*
X131598444Y-97471585D01*
X131532753Y-97673760D01*
X131499500Y-97883713D01*
X131499500Y-98096286D01*
X131532754Y-98306244D01*
X131532754Y-98306247D01*
X131546491Y-98348523D01*
X131548486Y-98418364D01*
X131516241Y-98474522D01*
X130912181Y-99078583D01*
X130850858Y-99112068D01*
X130781167Y-99107084D01*
X130725233Y-99065213D01*
X130700816Y-98999748D01*
X130700500Y-98990902D01*
X130700500Y-95960096D01*
X130720185Y-95893057D01*
X130736814Y-95872420D01*
X131288320Y-95320914D01*
X131349642Y-95287430D01*
X131419334Y-95292414D01*
G37*
%TD.AperFunction*%
%TA.AperFunction,Conductor*%
G36*
X120405539Y-93309685D02*
G01*
X120451294Y-93362489D01*
X120462500Y-93414000D01*
X120462500Y-94115000D01*
X120625500Y-94115000D01*
X120692539Y-94134685D01*
X120738294Y-94187489D01*
X120749500Y-94239000D01*
X120749500Y-97870234D01*
X120744169Y-97888388D01*
X120743828Y-97907309D01*
X120730339Y-97935487D01*
X120729815Y-97937273D01*
X120728589Y-97939144D01*
X120727589Y-97940640D01*
X120673969Y-97985435D01*
X120604642Y-97994130D01*
X120541620Y-97963963D01*
X120504912Y-97904513D01*
X120500500Y-97871730D01*
X120500500Y-95889059D01*
X120500501Y-95889046D01*
X120500501Y-95720945D01*
X120500501Y-95720943D01*
X120459577Y-95568215D01*
X120409387Y-95481284D01*
X120380520Y-95431284D01*
X120268716Y-95319480D01*
X120268715Y-95319479D01*
X120264385Y-95315149D01*
X120264374Y-95315139D01*
X119240064Y-94290829D01*
X119206579Y-94229506D01*
X119211563Y-94159814D01*
X119253435Y-94103881D01*
X119318899Y-94079464D01*
X119364635Y-94084762D01*
X119442207Y-94108934D01*
X119508957Y-94115000D01*
X119962500Y-94115000D01*
X119962500Y-93414000D01*
X119982185Y-93346961D01*
X120034989Y-93301206D01*
X120086500Y-93290000D01*
X120338500Y-93290000D01*
X120405539Y-93309685D01*
G37*
%TD.AperFunction*%
%TA.AperFunction,Conductor*%
G36*
X133965270Y-96211717D02*
G01*
X133965271Y-96211716D01*
X133975182Y-96198076D01*
X134030512Y-96155410D01*
X134100125Y-96149431D01*
X134161920Y-96182037D01*
X134196278Y-96242876D01*
X134199500Y-96270961D01*
X134199500Y-97168186D01*
X134179815Y-97235225D01*
X134127011Y-97280980D01*
X134057853Y-97290924D01*
X133994297Y-97261899D01*
X133975182Y-97241071D01*
X133880109Y-97110214D01*
X133880105Y-97110209D01*
X133729786Y-96959890D01*
X133557817Y-96834949D01*
X133548504Y-96830204D01*
X133497707Y-96782230D01*
X133480912Y-96714409D01*
X133503449Y-96648274D01*
X133548507Y-96609232D01*
X133557555Y-96604622D01*
X133611716Y-96565270D01*
X133611717Y-96565270D01*
X132979408Y-95932962D01*
X133042993Y-95915925D01*
X133157007Y-95850099D01*
X133250099Y-95757007D01*
X133315925Y-95642993D01*
X133332962Y-95579409D01*
X133965270Y-96211717D01*
G37*
%TD.AperFunction*%
%TA.AperFunction,Conductor*%
G36*
X134161920Y-93642888D02*
G01*
X134196277Y-93703727D01*
X134199500Y-93731813D01*
X134199500Y-94629038D01*
X134179815Y-94696077D01*
X134127011Y-94741832D01*
X134057853Y-94751776D01*
X133994297Y-94722751D01*
X133975182Y-94701923D01*
X133965271Y-94688282D01*
X133965269Y-94688282D01*
X133332962Y-95320590D01*
X133315925Y-95257007D01*
X133250099Y-95142993D01*
X133157007Y-95049901D01*
X133042993Y-94984075D01*
X132979408Y-94967037D01*
X133611716Y-94334728D01*
X133557547Y-94295373D01*
X133557547Y-94295372D01*
X133548500Y-94290763D01*
X133497706Y-94242788D01*
X133480912Y-94174966D01*
X133503451Y-94108832D01*
X133548508Y-94069793D01*
X133557816Y-94065051D01*
X133678827Y-93977132D01*
X133729786Y-93940109D01*
X133729788Y-93940106D01*
X133729792Y-93940104D01*
X133880104Y-93789792D01*
X133975182Y-93658926D01*
X134030511Y-93616262D01*
X134100124Y-93610283D01*
X134161920Y-93642888D01*
G37*
%TD.AperFunction*%
%TA.AperFunction,Conductor*%
G36*
X122119891Y-83508210D02*
G01*
X122127294Y-83509185D01*
X122191191Y-83537450D01*
X122229663Y-83595773D01*
X122230432Y-83660325D01*
X122231451Y-83660528D01*
X122230492Y-83665346D01*
X122230496Y-83665638D01*
X122230303Y-83666298D01*
X122199500Y-83821153D01*
X122199500Y-83978846D01*
X122230261Y-84133489D01*
X122230264Y-84133501D01*
X122290602Y-84279172D01*
X122290609Y-84279185D01*
X122378210Y-84410288D01*
X122378213Y-84410292D01*
X122489707Y-84521786D01*
X122489711Y-84521789D01*
X122620814Y-84609390D01*
X122620827Y-84609397D01*
X122756489Y-84665589D01*
X122766503Y-84669737D01*
X122921153Y-84700499D01*
X122921156Y-84700500D01*
X122921158Y-84700500D01*
X123078844Y-84700500D01*
X123078845Y-84700499D01*
X123233497Y-84669737D01*
X123300983Y-84641783D01*
X123370447Y-84634315D01*
X123432927Y-84665589D01*
X123468580Y-84725678D01*
X123470049Y-84732152D01*
X123480261Y-84783492D01*
X123480264Y-84783501D01*
X123540602Y-84929172D01*
X123540609Y-84929185D01*
X123628210Y-85060288D01*
X123628213Y-85060292D01*
X123739707Y-85171786D01*
X123739711Y-85171789D01*
X123870814Y-85259390D01*
X123870827Y-85259397D01*
X123920337Y-85279904D01*
X124016503Y-85319737D01*
X124019684Y-85320369D01*
X124021196Y-85321160D01*
X124022338Y-85321507D01*
X124022272Y-85321723D01*
X124047815Y-85335082D01*
X124076703Y-85348275D01*
X124078557Y-85351160D01*
X124081596Y-85352750D01*
X124097310Y-85380341D01*
X124114477Y-85407053D01*
X124115136Y-85411639D01*
X124116175Y-85413463D01*
X124119500Y-85441988D01*
X124119500Y-85458399D01*
X124117117Y-85482590D01*
X124099500Y-85571154D01*
X124099500Y-85635500D01*
X124079815Y-85702539D01*
X124027011Y-85748294D01*
X123975500Y-85759500D01*
X123207310Y-85759500D01*
X123140271Y-85739815D01*
X123094516Y-85687011D01*
X123092749Y-85682953D01*
X123087253Y-85669685D01*
X123078786Y-85649244D01*
X123078784Y-85649241D01*
X123078782Y-85649237D01*
X122966558Y-85481281D01*
X122823718Y-85338441D01*
X122655762Y-85226217D01*
X122655752Y-85226212D01*
X122469127Y-85148909D01*
X122469119Y-85148907D01*
X122271007Y-85109500D01*
X122271003Y-85109500D01*
X122068997Y-85109500D01*
X122068992Y-85109500D01*
X121870880Y-85148907D01*
X121870872Y-85148909D01*
X121684244Y-85226213D01*
X121603891Y-85279904D01*
X121537213Y-85300782D01*
X121469833Y-85282297D01*
X121466109Y-85279904D01*
X121385755Y-85226213D01*
X121199127Y-85148909D01*
X121199119Y-85148907D01*
X121001007Y-85109500D01*
X121001003Y-85109500D01*
X120798997Y-85109500D01*
X120798992Y-85109500D01*
X120600880Y-85148907D01*
X120600868Y-85148910D01*
X120519661Y-85182547D01*
X120450191Y-85190016D01*
X120405140Y-85170405D01*
X120404872Y-85170897D01*
X120399374Y-85167894D01*
X120397895Y-85167251D01*
X120397086Y-85166645D01*
X120262379Y-85116403D01*
X120262372Y-85116401D01*
X120202844Y-85110000D01*
X119880000Y-85110000D01*
X119880000Y-85994134D01*
X119877617Y-86018326D01*
X119874500Y-86033995D01*
X119874500Y-86074170D01*
X119860255Y-86059925D01*
X119774745Y-86010556D01*
X119679370Y-85985000D01*
X119580630Y-85985000D01*
X119485255Y-86010556D01*
X119399745Y-86059925D01*
X119380000Y-86079670D01*
X119380000Y-85110000D01*
X119057155Y-85110000D01*
X118997627Y-85116401D01*
X118997620Y-85116403D01*
X118862913Y-85166645D01*
X118862906Y-85166649D01*
X118747812Y-85252809D01*
X118747809Y-85252812D01*
X118661649Y-85367906D01*
X118661645Y-85367913D01*
X118611403Y-85502620D01*
X118611401Y-85502627D01*
X118605000Y-85562155D01*
X118605000Y-86110000D01*
X119349670Y-86110000D01*
X119329925Y-86129745D01*
X119280556Y-86215255D01*
X119255000Y-86310630D01*
X119255000Y-86409370D01*
X119280556Y-86504745D01*
X119329925Y-86590255D01*
X119349670Y-86610000D01*
X118605000Y-86610000D01*
X118605000Y-87157844D01*
X118611401Y-87217372D01*
X118611403Y-87217379D01*
X118661645Y-87352086D01*
X118661649Y-87352093D01*
X118747809Y-87467187D01*
X118747812Y-87467190D01*
X118862906Y-87553350D01*
X118862913Y-87553354D01*
X118997620Y-87603596D01*
X118997627Y-87603598D01*
X119057155Y-87609999D01*
X119057172Y-87610000D01*
X119380000Y-87610000D01*
X119380000Y-86640330D01*
X119399745Y-86660075D01*
X119485255Y-86709444D01*
X119580630Y-86735000D01*
X119679370Y-86735000D01*
X119774745Y-86709444D01*
X119860255Y-86660075D01*
X119874500Y-86645830D01*
X119874500Y-86686002D01*
X119877617Y-86701671D01*
X119880000Y-86725865D01*
X119880000Y-87610000D01*
X120202828Y-87610000D01*
X120202844Y-87609999D01*
X120262372Y-87603598D01*
X120262376Y-87603597D01*
X120397089Y-87553352D01*
X120397896Y-87552748D01*
X120398845Y-87552393D01*
X120404876Y-87549101D01*
X120405349Y-87549967D01*
X120463360Y-87528329D01*
X120519661Y-87537451D01*
X120600873Y-87571091D01*
X120796478Y-87609999D01*
X120798992Y-87610499D01*
X120798996Y-87610500D01*
X120798997Y-87610500D01*
X121001004Y-87610500D01*
X121001005Y-87610499D01*
X121199127Y-87571091D01*
X121385756Y-87493786D01*
X121466110Y-87440094D01*
X121532786Y-87419217D01*
X121600166Y-87437701D01*
X121603865Y-87440078D01*
X121684244Y-87493786D01*
X121870873Y-87571091D01*
X122066478Y-87609999D01*
X122068992Y-87610499D01*
X122068996Y-87610500D01*
X122068997Y-87610500D01*
X122271004Y-87610500D01*
X122271005Y-87610499D01*
X122469127Y-87571091D01*
X122655756Y-87493786D01*
X122661725Y-87489798D01*
X122823718Y-87381558D01*
X122966558Y-87238718D01*
X123078782Y-87070762D01*
X123078782Y-87070761D01*
X123078786Y-87070756D01*
X123092749Y-87037047D01*
X123136590Y-86982644D01*
X123202884Y-86960579D01*
X123207310Y-86960500D01*
X124188443Y-86960500D01*
X124413330Y-86960500D01*
X124413346Y-86960501D01*
X124420942Y-86960501D01*
X124579053Y-86960501D01*
X124579056Y-86960501D01*
X124731784Y-86919577D01*
X124801755Y-86879179D01*
X124868715Y-86840520D01*
X124980519Y-86728716D01*
X124980519Y-86728714D01*
X124990723Y-86718511D01*
X124990727Y-86718506D01*
X125268713Y-86440520D01*
X125268716Y-86440519D01*
X125286169Y-86423064D01*
X125286173Y-86423062D01*
X125310723Y-86404019D01*
X125317373Y-86400086D01*
X125337697Y-86394930D01*
X125347492Y-86389583D01*
X125356295Y-86390212D01*
X125385096Y-86382907D01*
X125443613Y-86400090D01*
X125463803Y-86412031D01*
X125610000Y-86454504D01*
X125610000Y-86148352D01*
X125627267Y-86085233D01*
X125632494Y-86076395D01*
X125643380Y-86038928D01*
X125677642Y-85920997D01*
X125677643Y-85920991D01*
X125678945Y-85904448D01*
X125680500Y-85884690D01*
X125680500Y-85841599D01*
X125682883Y-85817407D01*
X125685458Y-85804465D01*
X125689163Y-85785837D01*
X125696330Y-85749808D01*
X125728716Y-85687897D01*
X125789432Y-85653323D01*
X125817947Y-85650000D01*
X125986000Y-85650000D01*
X126053039Y-85669685D01*
X126098794Y-85722489D01*
X126110000Y-85774000D01*
X126110000Y-86454504D01*
X126148824Y-86483655D01*
X126190616Y-86539649D01*
X126195500Y-86609347D01*
X126188172Y-86632066D01*
X126187504Y-86633609D01*
X126142357Y-86789002D01*
X126142356Y-86789008D01*
X126139500Y-86825302D01*
X126139500Y-87234697D01*
X126142356Y-87270991D01*
X126142357Y-87270997D01*
X126187504Y-87426390D01*
X126187505Y-87426393D01*
X126187506Y-87426395D01*
X126206796Y-87459013D01*
X126269881Y-87565684D01*
X126269887Y-87565692D01*
X126313180Y-87608984D01*
X126346666Y-87670307D01*
X126349500Y-87696666D01*
X126349500Y-88113330D01*
X126349499Y-88113348D01*
X126349499Y-88279054D01*
X126349498Y-88279054D01*
X126390423Y-88431786D01*
X126390424Y-88431787D01*
X126415018Y-88474385D01*
X126466953Y-88564340D01*
X126483426Y-88632241D01*
X126460573Y-88698268D01*
X126423717Y-88732456D01*
X126325611Y-88791764D01*
X126325607Y-88791767D01*
X126211766Y-88905608D01*
X126128469Y-89043397D01*
X126080569Y-89197116D01*
X126074500Y-89263911D01*
X126074500Y-89696098D01*
X126080568Y-89762882D01*
X126080571Y-89762893D01*
X126128467Y-89916599D01*
X126209625Y-90050850D01*
X126227461Y-90118405D01*
X126209625Y-90179150D01*
X126128469Y-90313397D01*
X126080569Y-90467116D01*
X126074500Y-90533911D01*
X126074500Y-90966098D01*
X126080568Y-91032882D01*
X126080571Y-91032893D01*
X126128467Y-91186599D01*
X126209625Y-91320850D01*
X126212667Y-91332373D01*
X126219787Y-91341929D01*
X126221421Y-91365529D01*
X126227461Y-91388405D01*
X126223912Y-91401495D01*
X126224614Y-91411631D01*
X126213878Y-91438502D01*
X126212206Y-91444672D01*
X126210958Y-91446944D01*
X126128469Y-91583398D01*
X126118516Y-91615335D01*
X126112528Y-91626244D01*
X126102270Y-91636455D01*
X126091511Y-91654253D01*
X125906286Y-91839479D01*
X125794481Y-91951283D01*
X125794475Y-91951291D01*
X125748914Y-92030207D01*
X125748914Y-92030208D01*
X125715423Y-92088216D01*
X125674499Y-92240944D01*
X125674499Y-92240946D01*
X125674499Y-92409047D01*
X125674500Y-92409060D01*
X125674500Y-93986404D01*
X125654815Y-94053443D01*
X125602011Y-94099198D01*
X125532853Y-94109142D01*
X125469297Y-94080117D01*
X125462819Y-94074085D01*
X125447603Y-94058869D01*
X125447595Y-94058863D01*
X125309393Y-93977131D01*
X125309388Y-93977129D01*
X125155208Y-93932335D01*
X125155202Y-93932334D01*
X125119181Y-93929500D01*
X124720830Y-93929500D01*
X124720808Y-93929501D01*
X124684794Y-93932335D01*
X124530611Y-93977129D01*
X124530604Y-93977132D01*
X124473119Y-94011128D01*
X124405395Y-94028309D01*
X124346881Y-94011128D01*
X124289395Y-93977132D01*
X124289388Y-93977129D01*
X124135208Y-93932335D01*
X124135202Y-93932334D01*
X124099181Y-93929500D01*
X123700830Y-93929500D01*
X123700808Y-93929501D01*
X123664794Y-93932335D01*
X123510611Y-93977129D01*
X123510606Y-93977131D01*
X123372404Y-94058863D01*
X123372396Y-94058869D01*
X123258869Y-94172396D01*
X123258863Y-94172404D01*
X123177131Y-94310606D01*
X123177129Y-94310611D01*
X123132335Y-94464791D01*
X123132334Y-94464797D01*
X123129500Y-94500811D01*
X123129500Y-94508126D01*
X123127117Y-94532318D01*
X123099500Y-94671155D01*
X123099500Y-94828846D01*
X123113936Y-94901420D01*
X123107709Y-94971012D01*
X123064846Y-95026189D01*
X122998956Y-95049433D01*
X122976881Y-95048646D01*
X122967139Y-95047423D01*
X122915204Y-95032335D01*
X122879181Y-95029500D01*
X122824298Y-95029500D01*
X122816607Y-95028535D01*
X122791391Y-95017562D01*
X122765006Y-95009815D01*
X122759812Y-95003821D01*
X122752540Y-95000657D01*
X122737258Y-94977792D01*
X122719251Y-94957011D01*
X122717263Y-94947876D01*
X122713715Y-94942567D01*
X122713499Y-94930572D01*
X122708045Y-94905500D01*
X122708045Y-91094915D01*
X122708044Y-91094908D01*
X122695872Y-91049480D01*
X122667122Y-90942184D01*
X122620217Y-90860943D01*
X122588065Y-90805253D01*
X122476261Y-90693449D01*
X122476260Y-90693448D01*
X122471930Y-90689118D01*
X122471919Y-90689108D01*
X121561818Y-89779007D01*
X121528333Y-89717684D01*
X121525499Y-89691335D01*
X121525499Y-89263910D01*
X121525499Y-89263909D01*
X121525499Y-89263901D01*
X121519431Y-89197117D01*
X121519428Y-89197106D01*
X121471532Y-89043401D01*
X121471531Y-89043400D01*
X121471531Y-89043398D01*
X121388236Y-88905612D01*
X121388234Y-88905610D01*
X121388233Y-88905608D01*
X121274391Y-88791766D01*
X121136602Y-88708469D01*
X121025411Y-88673821D01*
X120982887Y-88660570D01*
X120982885Y-88660569D01*
X120982883Y-88660569D01*
X120936117Y-88656319D01*
X120916091Y-88654500D01*
X120916088Y-88654500D01*
X119508901Y-88654500D01*
X119442114Y-88660569D01*
X119434238Y-88663023D01*
X119364377Y-88664169D01*
X119304987Y-88627365D01*
X119278278Y-88579226D01*
X119278191Y-88578928D01*
X119272869Y-88560607D01*
X119191135Y-88422402D01*
X119191133Y-88422400D01*
X119191130Y-88422396D01*
X119077603Y-88308869D01*
X119077595Y-88308863D01*
X118939393Y-88227131D01*
X118939388Y-88227129D01*
X118785208Y-88182335D01*
X118785202Y-88182334D01*
X118749188Y-88179500D01*
X118749181Y-88179500D01*
X118741872Y-88179500D01*
X118717681Y-88177117D01*
X118673158Y-88168260D01*
X118578844Y-88149500D01*
X118578842Y-88149500D01*
X118421158Y-88149500D01*
X118282308Y-88177118D01*
X118258133Y-88179500D01*
X118250821Y-88179500D01*
X118214794Y-88182335D01*
X118060611Y-88227129D01*
X118060606Y-88227131D01*
X117922404Y-88308863D01*
X117922396Y-88308869D01*
X117808869Y-88422396D01*
X117808863Y-88422404D01*
X117727131Y-88560606D01*
X117727129Y-88560611D01*
X117682335Y-88714791D01*
X117682334Y-88714797D01*
X117679500Y-88750811D01*
X117679500Y-89149169D01*
X117679501Y-89149191D01*
X117682335Y-89185205D01*
X117727129Y-89339388D01*
X117727132Y-89339395D01*
X117761128Y-89396881D01*
X117778309Y-89464605D01*
X117761128Y-89523119D01*
X117727132Y-89580604D01*
X117727129Y-89580611D01*
X117682335Y-89734791D01*
X117682334Y-89734797D01*
X117679500Y-89770811D01*
X117679500Y-90169169D01*
X117679501Y-90169191D01*
X117682335Y-90205205D01*
X117727131Y-90359395D01*
X117728695Y-90363009D01*
X117729074Y-90366083D01*
X117729307Y-90366884D01*
X117729177Y-90366921D01*
X117737252Y-90432353D01*
X117721625Y-90475371D01*
X117677130Y-90550608D01*
X117677129Y-90550612D01*
X117643576Y-90666102D01*
X117605970Y-90724988D01*
X117542497Y-90754194D01*
X117473311Y-90744448D01*
X117420376Y-90698844D01*
X117400501Y-90631861D01*
X117400500Y-90631507D01*
X117400500Y-86889060D01*
X117400501Y-86889047D01*
X117400501Y-86720944D01*
X117399849Y-86718511D01*
X117359577Y-86568216D01*
X117348951Y-86549811D01*
X117345502Y-86540923D01*
X117343323Y-86515224D01*
X117337244Y-86490163D01*
X117340420Y-86480984D01*
X117339600Y-86471303D01*
X117351661Y-86448505D01*
X117360096Y-86424136D01*
X117367732Y-86418130D01*
X117372275Y-86409545D01*
X117394745Y-86396888D01*
X117415018Y-86380946D01*
X117426508Y-86376988D01*
X117446846Y-86371078D01*
X117476395Y-86362494D01*
X117615687Y-86280117D01*
X117730117Y-86165687D01*
X117812494Y-86026395D01*
X117857643Y-85870993D01*
X117860500Y-85834690D01*
X117860500Y-85425310D01*
X117857643Y-85389007D01*
X117855125Y-85380341D01*
X117812495Y-85233609D01*
X117812494Y-85233605D01*
X117808122Y-85226212D01*
X117800089Y-85212630D01*
X117782906Y-85144909D01*
X117800091Y-85086384D01*
X117812032Y-85066194D01*
X117854504Y-84920000D01*
X117548352Y-84920000D01*
X117485233Y-84902732D01*
X117476395Y-84897506D01*
X117476393Y-84897505D01*
X117476389Y-84897503D01*
X117320997Y-84852357D01*
X117320991Y-84852356D01*
X117284697Y-84849500D01*
X117284690Y-84849500D01*
X117241599Y-84849500D01*
X117217408Y-84847117D01*
X117196840Y-84843025D01*
X117149808Y-84833670D01*
X117087897Y-84801284D01*
X117053323Y-84740568D01*
X117050000Y-84712053D01*
X117050000Y-84544000D01*
X117069685Y-84476961D01*
X117122489Y-84431206D01*
X117174000Y-84420000D01*
X117854504Y-84420000D01*
X117891707Y-84370451D01*
X117892233Y-84370846D01*
X117908423Y-84345807D01*
X117926248Y-84333011D01*
X118015681Y-84280121D01*
X118015682Y-84280119D01*
X118015687Y-84280117D01*
X118130117Y-84165687D01*
X118212494Y-84026395D01*
X118215354Y-84016551D01*
X118220191Y-83999904D01*
X118257798Y-83941019D01*
X118321271Y-83911813D01*
X118339267Y-83910500D01*
X121303883Y-83910500D01*
X121303899Y-83910501D01*
X121311495Y-83910501D01*
X121469606Y-83910501D01*
X121469609Y-83910501D01*
X121622337Y-83869577D01*
X121622339Y-83869575D01*
X121622341Y-83869575D01*
X121622342Y-83869574D01*
X121680612Y-83835932D01*
X121680613Y-83835931D01*
X121759268Y-83790520D01*
X121871072Y-83678716D01*
X121871072Y-83678714D01*
X121881276Y-83668511D01*
X121881280Y-83668506D01*
X122007448Y-83542337D01*
X122010790Y-83540512D01*
X122012813Y-83537282D01*
X122041217Y-83523898D01*
X122068769Y-83508854D01*
X122073571Y-83508653D01*
X122076018Y-83507501D01*
X122111310Y-83507081D01*
X122119891Y-83508210D01*
G37*
%TD.AperFunction*%
%TA.AperFunction,Conductor*%
G36*
X117925445Y-92632589D02*
G01*
X117929135Y-92634686D01*
X118010607Y-92682869D01*
X118062988Y-92698087D01*
X118164795Y-92727665D01*
X118169306Y-92728489D01*
X118231718Y-92759897D01*
X118267242Y-92820062D01*
X118268645Y-92826280D01*
X118280064Y-92883686D01*
X118280067Y-92883698D01*
X118340405Y-93029369D01*
X118340412Y-93029382D01*
X118369490Y-93072900D01*
X118390368Y-93139578D01*
X118371883Y-93206958D01*
X118319904Y-93253648D01*
X118250934Y-93264824D01*
X118186871Y-93236938D01*
X118178707Y-93229472D01*
X117778337Y-92829102D01*
X117744852Y-92767779D01*
X117749836Y-92698087D01*
X117791708Y-92642154D01*
X117857172Y-92617737D01*
X117925445Y-92632589D01*
G37*
%TD.AperFunction*%
%TA.AperFunction,Conductor*%
G36*
X134161920Y-91102888D02*
G01*
X134196277Y-91163727D01*
X134199500Y-91191813D01*
X134199500Y-92088186D01*
X134179815Y-92155225D01*
X134127011Y-92200980D01*
X134057853Y-92210924D01*
X133994297Y-92181899D01*
X133975182Y-92161071D01*
X133880109Y-92030214D01*
X133880103Y-92030207D01*
X133729786Y-91879890D01*
X133557820Y-91754951D01*
X133557115Y-91754591D01*
X133549054Y-91750485D01*
X133498259Y-91702512D01*
X133481463Y-91634692D01*
X133503999Y-91568556D01*
X133549054Y-91529515D01*
X133557816Y-91525051D01*
X133609513Y-91487491D01*
X133729786Y-91400109D01*
X133729788Y-91400106D01*
X133729792Y-91400104D01*
X133880104Y-91249792D01*
X133975182Y-91118926D01*
X134030511Y-91076262D01*
X134100124Y-91070283D01*
X134161920Y-91102888D01*
G37*
%TD.AperFunction*%
%TA.AperFunction,Conductor*%
G36*
X134161920Y-88562888D02*
G01*
X134196277Y-88623727D01*
X134199500Y-88651813D01*
X134199500Y-89548186D01*
X134179815Y-89615225D01*
X134127011Y-89660980D01*
X134057853Y-89670924D01*
X133994297Y-89641899D01*
X133975182Y-89621071D01*
X133880109Y-89490214D01*
X133880105Y-89490209D01*
X133729786Y-89339890D01*
X133557820Y-89214951D01*
X133557115Y-89214591D01*
X133549054Y-89210485D01*
X133498259Y-89162512D01*
X133481463Y-89094692D01*
X133503999Y-89028556D01*
X133549054Y-88989515D01*
X133557816Y-88985051D01*
X133609513Y-88947491D01*
X133729786Y-88860109D01*
X133729788Y-88860106D01*
X133729792Y-88860104D01*
X133880104Y-88709792D01*
X133975182Y-88578926D01*
X134030511Y-88536262D01*
X134100124Y-88530283D01*
X134161920Y-88562888D01*
G37*
%TD.AperFunction*%
%TA.AperFunction,Conductor*%
G36*
X131402212Y-87458562D02*
G01*
X131433744Y-87459013D01*
X131436794Y-87461035D01*
X131440448Y-87461297D01*
X131465700Y-87480200D01*
X131491977Y-87497622D01*
X131493450Y-87500973D01*
X131496382Y-87503168D01*
X131507403Y-87532718D01*
X131520092Y-87561585D01*
X131520021Y-87566547D01*
X131520799Y-87568633D01*
X131519588Y-87596876D01*
X131499500Y-87723712D01*
X131499500Y-87936286D01*
X131532754Y-88146244D01*
X131532754Y-88146247D01*
X131546491Y-88188523D01*
X131548486Y-88258364D01*
X131516241Y-88314522D01*
X131297083Y-88533681D01*
X131235760Y-88567166D01*
X131209402Y-88570000D01*
X130948352Y-88570000D01*
X130885233Y-88552732D01*
X130876395Y-88547506D01*
X130876393Y-88547505D01*
X130876389Y-88547503D01*
X130720997Y-88502357D01*
X130720991Y-88502356D01*
X130684697Y-88499500D01*
X130684690Y-88499500D01*
X130641599Y-88499500D01*
X130617408Y-88497117D01*
X130593031Y-88492268D01*
X130555438Y-88484790D01*
X130493527Y-88452404D01*
X130458953Y-88391688D01*
X130462694Y-88321919D01*
X130503560Y-88265247D01*
X130517626Y-88255788D01*
X130578716Y-88220520D01*
X130690520Y-88108716D01*
X130690520Y-88108714D01*
X130692916Y-88106319D01*
X130754239Y-88072834D01*
X130780598Y-88070000D01*
X131254504Y-88070000D01*
X131212031Y-87923804D01*
X131135904Y-87795080D01*
X131118721Y-87727356D01*
X131140881Y-87661094D01*
X131154943Y-87644290D01*
X131309439Y-87489794D01*
X131337111Y-87474684D01*
X131363882Y-87458015D01*
X131367544Y-87458067D01*
X131370757Y-87456313D01*
X131402212Y-87458562D01*
G37*
%TD.AperFunction*%
%TA.AperFunction,Conductor*%
G36*
X118306479Y-76170185D02*
G01*
X118352234Y-76222989D01*
X118362178Y-76292147D01*
X118342542Y-76343391D01*
X118293814Y-76416316D01*
X118293807Y-76416328D01*
X118218430Y-76598306D01*
X118218427Y-76598318D01*
X118180000Y-76791504D01*
X118180000Y-76940000D01*
X118880000Y-76940000D01*
X118880000Y-77440000D01*
X118180000Y-77440000D01*
X118180000Y-77588495D01*
X118218427Y-77781681D01*
X118218430Y-77781693D01*
X118293807Y-77963671D01*
X118293814Y-77963684D01*
X118403248Y-78127462D01*
X118403251Y-78127466D01*
X118542533Y-78266748D01*
X118542537Y-78266751D01*
X118706315Y-78376185D01*
X118706328Y-78376192D01*
X118888308Y-78451569D01*
X118930000Y-78459862D01*
X118930000Y-77656988D01*
X118939940Y-77674205D01*
X118995795Y-77730060D01*
X119064204Y-77769556D01*
X119140504Y-77790000D01*
X119219496Y-77790000D01*
X119295796Y-77769556D01*
X119364205Y-77730060D01*
X119420060Y-77674205D01*
X119430000Y-77656988D01*
X119430000Y-78459862D01*
X119471690Y-78451569D01*
X119471692Y-78451569D01*
X119653671Y-78376192D01*
X119653684Y-78376185D01*
X119817462Y-78266751D01*
X119817466Y-78266748D01*
X119956748Y-78127466D01*
X119956751Y-78127462D01*
X120066185Y-77963684D01*
X120066192Y-77963671D01*
X120141569Y-77781693D01*
X120141572Y-77781681D01*
X120179999Y-77588495D01*
X120180000Y-77588492D01*
X120180000Y-77440000D01*
X119480000Y-77440000D01*
X119480000Y-76940000D01*
X120180000Y-76940000D01*
X120180000Y-76791508D01*
X120179999Y-76791504D01*
X120141572Y-76598318D01*
X120141569Y-76598306D01*
X120066192Y-76416328D01*
X120066185Y-76416316D01*
X120017458Y-76343391D01*
X119996580Y-76276714D01*
X120015064Y-76209334D01*
X120067043Y-76162643D01*
X120120560Y-76150500D01*
X126879440Y-76150500D01*
X126946479Y-76170185D01*
X126992234Y-76222989D01*
X127002178Y-76292147D01*
X126982542Y-76343391D01*
X126933814Y-76416316D01*
X126933807Y-76416328D01*
X126858430Y-76598306D01*
X126858427Y-76598318D01*
X126820000Y-76791504D01*
X126820000Y-76940000D01*
X127520000Y-76940000D01*
X127520000Y-77440000D01*
X126820000Y-77440000D01*
X126820000Y-77588495D01*
X126858427Y-77781681D01*
X126858430Y-77781693D01*
X126933807Y-77963671D01*
X126933814Y-77963684D01*
X127043248Y-78127462D01*
X127043251Y-78127466D01*
X127182533Y-78266748D01*
X127182537Y-78266751D01*
X127346315Y-78376185D01*
X127346328Y-78376192D01*
X127528308Y-78451569D01*
X127570000Y-78459862D01*
X127570000Y-77656988D01*
X127579940Y-77674205D01*
X127635795Y-77730060D01*
X127704204Y-77769556D01*
X127780504Y-77790000D01*
X127859496Y-77790000D01*
X127935796Y-77769556D01*
X128004205Y-77730060D01*
X128060060Y-77674205D01*
X128070000Y-77656988D01*
X128070000Y-78459862D01*
X128111690Y-78451569D01*
X128111692Y-78451569D01*
X128293671Y-78376192D01*
X128293684Y-78376185D01*
X128457461Y-78266752D01*
X128539930Y-78184283D01*
X128601253Y-78150798D01*
X128670945Y-78155782D01*
X128726879Y-78197653D01*
X128746689Y-78237370D01*
X128757968Y-78276195D01*
X128840278Y-78415374D01*
X128840285Y-78415383D01*
X128954616Y-78529714D01*
X128954625Y-78529721D01*
X129093804Y-78612031D01*
X129240000Y-78654504D01*
X129240000Y-77111438D01*
X129248141Y-77083709D01*
X129253437Y-77055298D01*
X129258557Y-77048240D01*
X129259685Y-77044399D01*
X129273732Y-77026422D01*
X129274994Y-77025081D01*
X129339787Y-76960289D01*
X129348993Y-76946510D01*
X129356082Y-76938984D01*
X129377665Y-76926345D01*
X129396856Y-76910306D01*
X129409579Y-76907656D01*
X129416374Y-76903678D01*
X129426642Y-76904103D01*
X129446350Y-76900000D01*
X129545500Y-76900000D01*
X129612539Y-76919685D01*
X129658294Y-76972489D01*
X129669500Y-77024000D01*
X129669500Y-77134697D01*
X129672356Y-77170991D01*
X129672357Y-77170997D01*
X129719682Y-77333887D01*
X129718283Y-77334293D01*
X129725785Y-77395106D01*
X129719622Y-77416096D01*
X129719682Y-77416114D01*
X129672357Y-77579002D01*
X129672356Y-77579008D01*
X129669500Y-77615302D01*
X129669500Y-78084697D01*
X129672356Y-78120991D01*
X129672357Y-78120997D01*
X129717503Y-78276389D01*
X129717505Y-78276393D01*
X129717506Y-78276395D01*
X129722732Y-78285233D01*
X129740000Y-78348352D01*
X129740000Y-78654503D01*
X129886194Y-78612032D01*
X129906384Y-78600091D01*
X129974108Y-78582906D01*
X130032629Y-78600089D01*
X130053605Y-78612494D01*
X130094587Y-78624400D01*
X130209002Y-78657642D01*
X130209005Y-78657642D01*
X130209007Y-78657643D01*
X130245310Y-78660500D01*
X130359902Y-78660500D01*
X130426941Y-78680185D01*
X130447583Y-78696819D01*
X130501284Y-78750520D01*
X130501286Y-78750521D01*
X130501290Y-78750524D01*
X130586086Y-78799480D01*
X130638216Y-78829577D01*
X130790943Y-78870501D01*
X130821709Y-78870501D01*
X130888748Y-78890186D01*
X130890600Y-78891399D01*
X131022287Y-78979390D01*
X131022300Y-78979397D01*
X131167971Y-79039735D01*
X131167976Y-79039737D01*
X131322626Y-79070499D01*
X131322629Y-79070500D01*
X131322631Y-79070500D01*
X131480317Y-79070500D01*
X131480318Y-79070499D01*
X131634970Y-79039737D01*
X131744504Y-78994366D01*
X131772897Y-78991314D01*
X131800801Y-78985244D01*
X131810245Y-78987298D01*
X131813971Y-78986898D01*
X131835288Y-78992746D01*
X131889082Y-79012810D01*
X131945016Y-79054681D01*
X131969433Y-79120146D01*
X131954581Y-79188419D01*
X131933431Y-79216673D01*
X131819889Y-79330215D01*
X131694951Y-79502179D01*
X131598444Y-79691585D01*
X131532753Y-79893760D01*
X131522803Y-79956582D01*
X131499500Y-80103713D01*
X131499500Y-80316287D01*
X131500500Y-80322600D01*
X131532754Y-80526244D01*
X131532754Y-80526247D01*
X131546491Y-80568523D01*
X131548486Y-80638364D01*
X131516241Y-80694522D01*
X128531286Y-83679478D01*
X128419481Y-83791282D01*
X128419479Y-83791285D01*
X128374280Y-83869574D01*
X128374279Y-83869575D01*
X128354042Y-83904626D01*
X128340423Y-83928215D01*
X128299499Y-84080943D01*
X128299499Y-84080945D01*
X128299499Y-84249046D01*
X128299500Y-84249059D01*
X128299500Y-88434398D01*
X128279815Y-88501437D01*
X128227011Y-88547192D01*
X128157853Y-88557136D01*
X128094297Y-88528111D01*
X128068113Y-88496399D01*
X128046735Y-88459371D01*
X128030521Y-88431285D01*
X127914385Y-88315149D01*
X127914374Y-88315139D01*
X127586819Y-87987584D01*
X127572115Y-87960656D01*
X127555523Y-87934838D01*
X127554631Y-87928637D01*
X127553334Y-87926261D01*
X127550500Y-87899903D01*
X127550500Y-87696666D01*
X127570185Y-87629627D01*
X127586820Y-87608984D01*
X127630112Y-87565692D01*
X127630117Y-87565687D01*
X127712494Y-87426395D01*
X127757643Y-87270993D01*
X127760500Y-87234690D01*
X127760500Y-86825310D01*
X127757643Y-86789007D01*
X127752409Y-86770993D01*
X127712495Y-86633609D01*
X127712494Y-86633605D01*
X127711584Y-86632066D01*
X127700089Y-86612630D01*
X127682906Y-86544909D01*
X127700091Y-86486384D01*
X127712032Y-86466194D01*
X127754504Y-86320000D01*
X127448352Y-86320000D01*
X127385233Y-86302732D01*
X127376395Y-86297506D01*
X127376393Y-86297505D01*
X127376389Y-86297503D01*
X127220997Y-86252357D01*
X127220991Y-86252356D01*
X127184697Y-86249500D01*
X127184690Y-86249500D01*
X127141599Y-86249500D01*
X127117408Y-86247117D01*
X127096840Y-86243025D01*
X127049808Y-86233670D01*
X126987897Y-86201284D01*
X126953323Y-86140568D01*
X126950000Y-86112053D01*
X126950000Y-85944000D01*
X126969685Y-85876961D01*
X127022489Y-85831206D01*
X127074000Y-85820000D01*
X127754504Y-85820000D01*
X127712031Y-85673804D01*
X127629721Y-85534625D01*
X127629714Y-85534616D01*
X127515383Y-85420285D01*
X127515374Y-85420278D01*
X127376195Y-85337968D01*
X127376190Y-85337966D01*
X127239513Y-85298258D01*
X127180627Y-85260652D01*
X127151421Y-85197180D01*
X127161167Y-85127993D01*
X127167376Y-85116061D01*
X127242406Y-84989191D01*
X127242407Y-84989188D01*
X127287166Y-84835128D01*
X127287167Y-84835122D01*
X127289931Y-84800000D01*
X126644000Y-84800000D01*
X126576961Y-84780315D01*
X126531206Y-84727511D01*
X126520000Y-84676000D01*
X126520000Y-84550000D01*
X126394499Y-84550000D01*
X126386032Y-84547513D01*
X126377301Y-84548802D01*
X126353021Y-84537820D01*
X126327460Y-84530315D01*
X126321681Y-84523645D01*
X126313640Y-84520009D01*
X126299151Y-84497644D01*
X126281705Y-84477511D01*
X126279449Y-84467235D01*
X126275650Y-84461370D01*
X126270693Y-84427335D01*
X126270500Y-84426454D01*
X126270499Y-84426249D01*
X126270499Y-84300820D01*
X126270017Y-84294705D01*
X126270001Y-84290061D01*
X126270015Y-84290009D01*
X126270000Y-84289607D01*
X126270000Y-83737154D01*
X126770000Y-83737154D01*
X126770000Y-84300000D01*
X127289931Y-84300000D01*
X127287167Y-84264877D01*
X127287166Y-84264871D01*
X127242407Y-84110811D01*
X127242406Y-84110808D01*
X127160738Y-83972714D01*
X127160731Y-83972705D01*
X127047294Y-83859268D01*
X127047285Y-83859261D01*
X126909191Y-83777593D01*
X126909188Y-83777591D01*
X126770001Y-83737153D01*
X126770000Y-83737154D01*
X126270000Y-83737154D01*
X126270000Y-83737153D01*
X126256089Y-83726708D01*
X126226128Y-83749473D01*
X126216562Y-83752679D01*
X126130809Y-83777592D01*
X126073611Y-83811419D01*
X126069030Y-83812580D01*
X126065560Y-83815787D01*
X126035485Y-83821090D01*
X126005886Y-83828600D01*
X126000116Y-83827328D01*
X125996752Y-83827922D01*
X125985030Y-83824004D01*
X125962589Y-83819060D01*
X125954714Y-83815762D01*
X125889393Y-83777131D01*
X125801527Y-83751603D01*
X125795010Y-83748874D01*
X125773159Y-83731123D01*
X125749431Y-83715970D01*
X125746401Y-83709386D01*
X125740779Y-83704819D01*
X125731995Y-83678077D01*
X125720225Y-83652498D01*
X125721235Y-83645321D01*
X125718975Y-83638439D01*
X125726043Y-83611191D01*
X125729971Y-83583311D01*
X125734700Y-83577821D01*
X125736520Y-83570808D01*
X125757201Y-83551703D01*
X125775575Y-83530377D01*
X125782519Y-83528316D01*
X125787843Y-83523399D01*
X125815571Y-83518508D01*
X125842558Y-83510501D01*
X125842912Y-83510500D01*
X126165686Y-83510500D01*
X126165694Y-83510500D01*
X126172238Y-83509985D01*
X126216534Y-83519290D01*
X126269052Y-83488282D01*
X126316303Y-83474555D01*
X126385491Y-83474555D01*
X126497508Y-83507100D01*
X126499998Y-83507295D01*
X126500000Y-83507295D01*
X126500000Y-83431308D01*
X126508333Y-83402928D01*
X126514084Y-83373911D01*
X126518067Y-83369776D01*
X126519685Y-83364269D01*
X126536314Y-83343631D01*
X126618081Y-83261865D01*
X126701744Y-83120398D01*
X126747598Y-82962569D01*
X126750500Y-82925694D01*
X126750500Y-82409000D01*
X126753050Y-82400314D01*
X126751762Y-82391353D01*
X126762740Y-82367312D01*
X126770185Y-82341961D01*
X126777025Y-82336033D01*
X126780787Y-82327797D01*
X126803021Y-82313507D01*
X126822989Y-82296206D01*
X126833503Y-82293918D01*
X126839565Y-82290023D01*
X126874500Y-82285000D01*
X126876000Y-82285000D01*
X126943039Y-82304685D01*
X126988794Y-82357489D01*
X127000000Y-82409000D01*
X127000000Y-83507295D01*
X127000001Y-83507295D01*
X127002486Y-83507100D01*
X127160198Y-83461281D01*
X127301552Y-83377685D01*
X127301561Y-83377678D01*
X127417678Y-83261561D01*
X127417685Y-83261552D01*
X127501282Y-83120196D01*
X127501283Y-83120193D01*
X127547099Y-82962495D01*
X127547100Y-82962488D01*
X127547487Y-82957574D01*
X127570000Y-82898501D01*
X127570000Y-82086988D01*
X127579940Y-82104205D01*
X127635795Y-82160060D01*
X127704204Y-82199556D01*
X127780504Y-82220000D01*
X127859496Y-82220000D01*
X127935796Y-82199556D01*
X128004205Y-82160060D01*
X128060060Y-82104205D01*
X128070000Y-82086988D01*
X128070000Y-82889862D01*
X128111690Y-82881569D01*
X128111692Y-82881569D01*
X128293671Y-82806192D01*
X128293684Y-82806185D01*
X128457462Y-82696751D01*
X128457466Y-82696748D01*
X128596748Y-82557466D01*
X128596751Y-82557462D01*
X128706185Y-82393684D01*
X128706192Y-82393671D01*
X128781569Y-82211693D01*
X128781572Y-82211681D01*
X128819999Y-82018495D01*
X128820000Y-82018492D01*
X128820000Y-81620000D01*
X128120000Y-81620000D01*
X128120000Y-81120000D01*
X128820000Y-81120000D01*
X128820000Y-80721508D01*
X128819999Y-80721504D01*
X128781572Y-80528318D01*
X128781569Y-80528306D01*
X128706192Y-80346328D01*
X128706185Y-80346315D01*
X128596751Y-80182537D01*
X128596748Y-80182533D01*
X128457466Y-80043251D01*
X128457462Y-80043248D01*
X128293684Y-79933814D01*
X128293671Y-79933807D01*
X128111691Y-79858429D01*
X128111683Y-79858427D01*
X128070000Y-79850135D01*
X128070000Y-80653011D01*
X128060060Y-80635795D01*
X128004205Y-80579940D01*
X127935796Y-80540444D01*
X127859496Y-80520000D01*
X127780504Y-80520000D01*
X127704204Y-80540444D01*
X127635795Y-80579940D01*
X127579940Y-80635795D01*
X127570000Y-80653011D01*
X127570000Y-79850136D01*
X127569999Y-79850135D01*
X127528316Y-79858427D01*
X127528308Y-79858429D01*
X127346328Y-79933807D01*
X127346315Y-79933814D01*
X127182537Y-80043248D01*
X127182533Y-80043251D01*
X127043248Y-80182536D01*
X126930427Y-80351387D01*
X126929003Y-80350435D01*
X126885742Y-80394451D01*
X126817600Y-80409892D01*
X126764215Y-80394002D01*
X126749588Y-80385708D01*
X126743365Y-80379485D01*
X126612135Y-80303719D01*
X126598595Y-80300091D01*
X126584820Y-80292280D01*
X126571082Y-80278095D01*
X126554222Y-80267816D01*
X126547274Y-80253511D01*
X126536213Y-80242089D01*
X126532325Y-80222730D01*
X126523698Y-80204966D01*
X126524048Y-80181510D01*
X126522457Y-80173587D01*
X126524234Y-80169045D01*
X126524365Y-80160225D01*
X126547634Y-80043251D01*
X126550500Y-80028844D01*
X126550500Y-79871155D01*
X126550499Y-79871153D01*
X126532012Y-79778213D01*
X126519737Y-79716503D01*
X126509416Y-79691585D01*
X126459397Y-79570827D01*
X126459390Y-79570814D01*
X126371789Y-79439711D01*
X126371786Y-79439707D01*
X126260292Y-79328213D01*
X126260288Y-79328210D01*
X126129185Y-79240609D01*
X126129172Y-79240602D01*
X125983501Y-79180264D01*
X125983489Y-79180261D01*
X125828845Y-79149500D01*
X125828842Y-79149500D01*
X125671158Y-79149500D01*
X125671155Y-79149500D01*
X125516510Y-79180261D01*
X125516498Y-79180264D01*
X125370827Y-79240602D01*
X125370814Y-79240609D01*
X125239711Y-79328210D01*
X125239707Y-79328213D01*
X125128213Y-79439707D01*
X125128210Y-79439711D01*
X125040609Y-79570814D01*
X125040602Y-79570827D01*
X124980264Y-79716498D01*
X124980261Y-79716510D01*
X124951700Y-79860097D01*
X124919315Y-79922008D01*
X124858600Y-79956582D01*
X124830083Y-79959906D01*
X123702965Y-79959906D01*
X123544850Y-79959906D01*
X123392123Y-80000829D01*
X123392122Y-80000829D01*
X123392120Y-80000830D01*
X123392117Y-80000831D01*
X123356392Y-80021458D01*
X123356391Y-80021459D01*
X123255195Y-80079883D01*
X123255190Y-80079887D01*
X123174856Y-80160222D01*
X123143388Y-80191690D01*
X123143386Y-80191692D01*
X122983692Y-80351387D01*
X122852304Y-80482775D01*
X122790981Y-80516260D01*
X122764623Y-80519094D01*
X122374500Y-80519094D01*
X122307461Y-80499409D01*
X122261706Y-80446605D01*
X122250500Y-80395094D01*
X122250500Y-80321155D01*
X122250499Y-80321153D01*
X122240209Y-80269424D01*
X122219737Y-80166503D01*
X122193729Y-80103713D01*
X122159397Y-80020827D01*
X122159390Y-80020814D01*
X122071789Y-79889711D01*
X122071786Y-79889707D01*
X121960292Y-79778213D01*
X121960288Y-79778210D01*
X121829185Y-79690609D01*
X121829172Y-79690602D01*
X121683501Y-79630264D01*
X121683489Y-79630261D01*
X121528845Y-79599500D01*
X121528842Y-79599500D01*
X121371158Y-79599500D01*
X121371155Y-79599500D01*
X121216510Y-79630261D01*
X121216498Y-79630264D01*
X121070827Y-79690602D01*
X121070814Y-79690609D01*
X120939711Y-79778210D01*
X120939707Y-79778213D01*
X120828213Y-79889707D01*
X120828210Y-79889711D01*
X120740609Y-80020814D01*
X120740602Y-80020827D01*
X120680264Y-80166498D01*
X120678494Y-80172335D01*
X120676880Y-80171845D01*
X120648240Y-80226601D01*
X120587525Y-80261176D01*
X120559006Y-80264500D01*
X120534234Y-80264500D01*
X120387863Y-80303719D01*
X120256635Y-80379485D01*
X120250189Y-80384432D01*
X120248099Y-80381709D01*
X120200217Y-80407466D01*
X120130558Y-80402043D01*
X120074888Y-80359821D01*
X120069299Y-80350976D01*
X119956751Y-80182537D01*
X119956748Y-80182533D01*
X119817466Y-80043251D01*
X119817462Y-80043248D01*
X119653684Y-79933814D01*
X119653671Y-79933807D01*
X119471691Y-79858429D01*
X119471683Y-79858427D01*
X119430000Y-79850135D01*
X119430000Y-80653011D01*
X119420060Y-80635795D01*
X119364205Y-80579940D01*
X119295796Y-80540444D01*
X119219496Y-80520000D01*
X119140504Y-80520000D01*
X119064204Y-80540444D01*
X118995795Y-80579940D01*
X118939940Y-80635795D01*
X118930000Y-80653011D01*
X118930000Y-79850136D01*
X118929999Y-79850135D01*
X118888316Y-79858427D01*
X118888308Y-79858429D01*
X118706328Y-79933807D01*
X118706315Y-79933814D01*
X118542537Y-80043248D01*
X118542533Y-80043251D01*
X118403251Y-80182533D01*
X118403248Y-80182537D01*
X118293814Y-80346315D01*
X118293807Y-80346328D01*
X118218430Y-80528306D01*
X118218427Y-80528318D01*
X118180000Y-80721504D01*
X118180000Y-80793349D01*
X118160315Y-80860388D01*
X118107511Y-80906143D01*
X118038353Y-80916087D01*
X118021406Y-80912426D01*
X117885127Y-80872833D01*
X117850000Y-80870068D01*
X117850000Y-81516000D01*
X117830315Y-81583039D01*
X117777511Y-81628794D01*
X117726000Y-81640000D01*
X117600000Y-81640000D01*
X117600000Y-81765500D01*
X117597514Y-81773966D01*
X117598802Y-81782697D01*
X117587820Y-81806977D01*
X117580315Y-81832539D01*
X117573647Y-81838316D01*
X117570010Y-81846359D01*
X117547643Y-81860848D01*
X117527511Y-81878294D01*
X117517234Y-81880549D01*
X117511371Y-81884348D01*
X117477337Y-81889305D01*
X117476455Y-81889499D01*
X117475977Y-81889500D01*
X117350820Y-81889501D01*
X117344706Y-81889981D01*
X117340062Y-81889999D01*
X117340010Y-81889984D01*
X117339607Y-81890000D01*
X116787156Y-81890000D01*
X116827594Y-82029193D01*
X116861419Y-82086388D01*
X116878601Y-82154112D01*
X116861419Y-82212628D01*
X116827130Y-82270607D01*
X116827129Y-82270611D01*
X116782335Y-82424791D01*
X116782334Y-82424797D01*
X116779500Y-82460811D01*
X116779500Y-82726402D01*
X116770000Y-82758755D01*
X116770000Y-83101645D01*
X116752734Y-83164763D01*
X116747507Y-83173600D01*
X116747504Y-83173608D01*
X116702357Y-83329002D01*
X116702356Y-83329008D01*
X116699500Y-83365302D01*
X116699500Y-83408399D01*
X116697117Y-83432591D01*
X116683670Y-83500192D01*
X116651285Y-83562103D01*
X116590569Y-83596677D01*
X116562053Y-83600000D01*
X116394000Y-83600000D01*
X116326961Y-83580315D01*
X116281206Y-83527511D01*
X116270000Y-83476000D01*
X116270000Y-82777794D01*
X116258255Y-82762057D01*
X116250500Y-82718893D01*
X116250500Y-81390000D01*
X116787156Y-81390000D01*
X117350000Y-81390000D01*
X117350000Y-80870068D01*
X117349999Y-80870068D01*
X117314869Y-80872834D01*
X117314868Y-80872834D01*
X117160811Y-80917592D01*
X117160808Y-80917593D01*
X117022714Y-80999261D01*
X117022705Y-80999268D01*
X116909268Y-81112705D01*
X116909261Y-81112714D01*
X116827595Y-81250805D01*
X116787156Y-81390000D01*
X116250500Y-81390000D01*
X116250500Y-79200946D01*
X116250500Y-79200943D01*
X116244959Y-79180263D01*
X116209577Y-79048215D01*
X116161503Y-78964949D01*
X116130520Y-78911284D01*
X116018716Y-78799480D01*
X116018715Y-78799479D01*
X116014385Y-78795149D01*
X116014374Y-78795139D01*
X115336818Y-78117583D01*
X115303333Y-78056260D01*
X115300499Y-78029902D01*
X115300499Y-76682129D01*
X115300498Y-76682123D01*
X115294091Y-76622516D01*
X115243797Y-76487671D01*
X115243793Y-76487664D01*
X115157547Y-76372455D01*
X115151275Y-76366183D01*
X115152617Y-76364840D01*
X115117428Y-76317833D01*
X115112444Y-76248141D01*
X115145929Y-76186818D01*
X115207252Y-76153334D01*
X115233610Y-76150500D01*
X118239440Y-76150500D01*
X118306479Y-76170185D01*
G37*
%TD.AperFunction*%
%TA.AperFunction,Conductor*%
G36*
X134161920Y-86022888D02*
G01*
X134196277Y-86083727D01*
X134199500Y-86111813D01*
X134199500Y-87008186D01*
X134179815Y-87075225D01*
X134127011Y-87120980D01*
X134057853Y-87130924D01*
X133994297Y-87101899D01*
X133975182Y-87081071D01*
X133880109Y-86950214D01*
X133880105Y-86950209D01*
X133729786Y-86799890D01*
X133557820Y-86674951D01*
X133557115Y-86674591D01*
X133549054Y-86670485D01*
X133498259Y-86622512D01*
X133481463Y-86554692D01*
X133503999Y-86488556D01*
X133549054Y-86449515D01*
X133557816Y-86445051D01*
X133588076Y-86423066D01*
X133729786Y-86320109D01*
X133729788Y-86320106D01*
X133729792Y-86320104D01*
X133880104Y-86169792D01*
X133975182Y-86038926D01*
X134030511Y-85996262D01*
X134100124Y-85990283D01*
X134161920Y-86022888D01*
G37*
%TD.AperFunction*%
%TA.AperFunction,Conductor*%
G36*
X129699092Y-84969685D02*
G01*
X129744847Y-85022489D01*
X129753670Y-85049808D01*
X129760946Y-85086384D01*
X129765643Y-85110000D01*
X129767117Y-85117407D01*
X129769500Y-85141599D01*
X129769500Y-85184697D01*
X129772356Y-85220991D01*
X129772357Y-85220997D01*
X129817504Y-85376390D01*
X129817504Y-85376392D01*
X129817506Y-85376395D01*
X129822730Y-85385229D01*
X129840000Y-85448352D01*
X129840000Y-85766000D01*
X129820315Y-85833039D01*
X129787175Y-85867539D01*
X129695675Y-85931677D01*
X129672408Y-85939536D01*
X129650858Y-85951304D01*
X129639894Y-85950519D01*
X129629480Y-85954038D01*
X129605659Y-85948071D01*
X129581166Y-85946320D01*
X129572366Y-85939732D01*
X129561704Y-85937062D01*
X129544889Y-85919162D01*
X129525233Y-85904448D01*
X129521392Y-85894150D01*
X129513865Y-85886138D01*
X129509396Y-85861988D01*
X129500816Y-85838984D01*
X129500500Y-85830138D01*
X129500500Y-85074000D01*
X129520185Y-85006961D01*
X129572989Y-84961206D01*
X129624500Y-84950000D01*
X129632053Y-84950000D01*
X129699092Y-84969685D01*
G37*
%TD.AperFunction*%
%TA.AperFunction,Conductor*%
G36*
X131419334Y-82592413D02*
G01*
X131475267Y-82634285D01*
X131499684Y-82699749D01*
X131500000Y-82708595D01*
X131500000Y-82856246D01*
X131533242Y-83066127D01*
X131533242Y-83066130D01*
X131598904Y-83268217D01*
X131695375Y-83457550D01*
X131734728Y-83511716D01*
X132367037Y-82879408D01*
X132384075Y-82942993D01*
X132449901Y-83057007D01*
X132542993Y-83150099D01*
X132657007Y-83215925D01*
X132720590Y-83232962D01*
X132088282Y-83865269D01*
X132088282Y-83865270D01*
X132142452Y-83904626D01*
X132142451Y-83904626D01*
X132151495Y-83909234D01*
X132202292Y-83957208D01*
X132219087Y-84025029D01*
X132196550Y-84091164D01*
X132151499Y-84130202D01*
X132142182Y-84134949D01*
X131970213Y-84259890D01*
X131819890Y-84410213D01*
X131694951Y-84582179D01*
X131598444Y-84771583D01*
X131579208Y-84830788D01*
X131577013Y-84833997D01*
X131576667Y-84837869D01*
X131557450Y-84862606D01*
X131539770Y-84888463D01*
X131536189Y-84889976D01*
X131533804Y-84893047D01*
X131504263Y-84903468D01*
X131475411Y-84915661D01*
X131471579Y-84914997D01*
X131467914Y-84916291D01*
X131437433Y-84909088D01*
X131406565Y-84903746D01*
X131403700Y-84901117D01*
X131399917Y-84900223D01*
X131378171Y-84877686D01*
X131355089Y-84856502D01*
X131353318Y-84851930D01*
X131351402Y-84849944D01*
X131339660Y-84816660D01*
X131332883Y-84782590D01*
X131330500Y-84758399D01*
X131330500Y-84715317D01*
X131330499Y-84715302D01*
X131330243Y-84712053D01*
X131327643Y-84679007D01*
X131326769Y-84676000D01*
X131293620Y-84561899D01*
X131282494Y-84523605D01*
X131200117Y-84384313D01*
X131200115Y-84384311D01*
X131200112Y-84384307D01*
X131085692Y-84269887D01*
X131085684Y-84269881D01*
X130946393Y-84187505D01*
X130946390Y-84187504D01*
X130790997Y-84142357D01*
X130790991Y-84142356D01*
X130754697Y-84139500D01*
X130754690Y-84139500D01*
X130345310Y-84139500D01*
X130345302Y-84139500D01*
X130309008Y-84142356D01*
X130309002Y-84142357D01*
X130153609Y-84187504D01*
X130153604Y-84187506D01*
X130132628Y-84199911D01*
X130124798Y-84201897D01*
X130118582Y-84207054D01*
X130091420Y-84210364D01*
X130064903Y-84217092D01*
X130055466Y-84214747D01*
X130049226Y-84215508D01*
X130029241Y-84208231D01*
X130015583Y-84204838D01*
X129962923Y-84179406D01*
X129944408Y-84162652D01*
X129923364Y-84149211D01*
X129918948Y-84139613D01*
X129911116Y-84132526D01*
X129904598Y-84108423D01*
X129894161Y-84085737D01*
X129895635Y-84075275D01*
X129892878Y-84065079D01*
X129900426Y-84041277D01*
X129903911Y-84016551D01*
X129911952Y-84004934D01*
X129914000Y-83998478D01*
X129919687Y-83993759D01*
X129929163Y-83980071D01*
X131288322Y-82620912D01*
X131349642Y-82587429D01*
X131419334Y-82592413D01*
G37*
%TD.AperFunction*%
%TA.AperFunction,Conductor*%
G36*
X133965270Y-83511717D02*
G01*
X133965271Y-83511716D01*
X133975182Y-83498076D01*
X134030512Y-83455410D01*
X134100125Y-83449431D01*
X134161920Y-83482037D01*
X134196278Y-83542876D01*
X134199500Y-83570961D01*
X134199500Y-84468186D01*
X134179815Y-84535225D01*
X134127011Y-84580980D01*
X134057853Y-84590924D01*
X133994297Y-84561899D01*
X133975182Y-84541071D01*
X133880109Y-84410214D01*
X133880105Y-84410209D01*
X133729786Y-84259890D01*
X133557817Y-84134949D01*
X133548504Y-84130204D01*
X133497707Y-84082230D01*
X133480912Y-84014409D01*
X133503449Y-83948274D01*
X133548507Y-83909232D01*
X133557555Y-83904622D01*
X133611716Y-83865270D01*
X133611717Y-83865270D01*
X132979408Y-83232962D01*
X133042993Y-83215925D01*
X133157007Y-83150099D01*
X133250099Y-83057007D01*
X133315925Y-82942993D01*
X133332962Y-82879409D01*
X133965270Y-83511717D01*
G37*
%TD.AperFunction*%
%TA.AperFunction,Conductor*%
G36*
X134161920Y-80942888D02*
G01*
X134196277Y-81003727D01*
X134199500Y-81031813D01*
X134199500Y-81929038D01*
X134179815Y-81996077D01*
X134127011Y-82041832D01*
X134057853Y-82051776D01*
X133994297Y-82022751D01*
X133975182Y-82001923D01*
X133965271Y-81988282D01*
X133965269Y-81988282D01*
X133332962Y-82620590D01*
X133315925Y-82557007D01*
X133250099Y-82442993D01*
X133157007Y-82349901D01*
X133042993Y-82284075D01*
X132979408Y-82267037D01*
X133611716Y-81634728D01*
X133557547Y-81595373D01*
X133557547Y-81595372D01*
X133548500Y-81590763D01*
X133497706Y-81542788D01*
X133480912Y-81474966D01*
X133503451Y-81408832D01*
X133548508Y-81369793D01*
X133557816Y-81365051D01*
X133646643Y-81300515D01*
X133729786Y-81240109D01*
X133729788Y-81240106D01*
X133729792Y-81240104D01*
X133880104Y-81089792D01*
X133975182Y-80958926D01*
X134030511Y-80916262D01*
X134100124Y-80910283D01*
X134161920Y-80942888D01*
G37*
%TD.AperFunction*%
%TD*%
M02*
